<svg xmlns="http://www.w3.org/2000/svg" viewBox="0 0 200 200" width="200" height="200">
  <!-- Placeholder QR Code for ArtKey -->
  <!-- This will be replaced with real QR code at print time -->
  
  <!-- White background -->
  <rect width="200" height="200" fill="white"/>
  
  <!-- QR Code Pattern (simplified placeholder) -->
  <g fill="black">
    <!-- Top-left position marker -->
    <rect x="10" y="10" width="50" height="50"/>
    <rect x="15" y="15" width="40" height="40" fill="white"/>
    <rect x="20" y="20" width="30" height="30"/>
    
    <!-- Top-right position marker -->
    <rect x="140" y="10" width="50" height="50"/>
    <rect x="145" y="15" width="40" height="40" fill="white"/>
    <rect x="150" y="20" width="30" height="30"/>
    
    <!-- Bottom-left position marker -->
    <rect x="10" y="140" width="50" height="50"/>
    <rect x="15" y="145" width="40" height="40" fill="white"/>
    <rect x="20" y="150" width="30" height="30"/>
    
    <!-- Data pattern (placeholder) -->
    <rect x="70" y="10" width="8" height="8"/>
    <rect x="86" y="10" width="8" height="8"/>
    <rect x="102" y="10" width="8" height="8"/>
    <rect x="118" y="10" width="8" height="8"/>
    
    <rect x="70" y="26" width="8" height="8"/>
    <rect x="94" y="26" width="8" height="8"/>
    <rect x="110" y="26" width="8" height="8"/>
    
    <rect x="78" y="42" width="8" height="8"/>
    <rect x="102" y="42" width="8" height="8"/>
    <rect x="118" y="42" width="8" height="8"/>
    
    <rect x="10" y="70" width="8" height="8"/>
    <rect x="26" y="70" width="8" height="8"/>
    <rect x="50" y="70" width="8" height="8"/>
    <rect x="70" y="70" width="8" height="8"/>
    <rect x="94" y="70" width="8" height="8"/>
    <rect x="118" y="70" width="8" height="8"/>
    <rect x="142" y="70" width="8" height="8"/>
    <rect x="166" y="70" width="8" height="8"/>
    <rect x="182" y="70" width="8" height="8"/>
    
    <rect x="10" y="86" width="8" height="8"/>
    <rect x="42" y="86" width="8" height="8"/>
    <rect x="70" y="86" width="8" height="8"/>
    <rect x="86" y="86" width="8" height="8"/>
    <rect x="110" y="86" width="8" height="8"/>
    <rect x="150" y="86" width="8" height="8"/>
    <rect x="182" y="86" width="8" height="8"/>
    
    <rect x="26" y="102" width="8" height="8"/>
    <rect x="50" y="102" width="8" height="8"/>
    <rect x="70" y="102" width="8" height="8"/>
    <rect x="102" y="102" width="8" height="8"/>
    <rect x="126" y="102" width="8" height="8"/>
    <rect x="158" y="102" width="8" height="8"/>
    <rect x="182" y="102" width="8" height="8"/>
    
    <rect x="10" y="118" width="8" height="8"/>
    <rect x="34" y="118" width="8" height="8"/>
    <rect x="58" y="118" width="8" height="8"/>
    <rect x="86" y="118" width="8" height="8"/>
    <rect x="110" y="118" width="8" height="8"/>
    <rect x="142" y="118" width="8" height="8"/>
    <rect x="158" y="118" width="8" height="8"/>
    
    <rect x="70" y="142" width="8" height="8"/>
    <rect x="102" y="142" width="8" height="8"/>
    <rect x="118" y="142" width="8" height="8"/>
    <rect x="126" y="142" width="8" height="8"/>
    <rect x="158" y="142" width="8" height="8"/>
    <rect x="174" y="142" width="8" height="8"/>
    
    <rect x="86" y="158" width="8" height="8"/>
    <rect x="102" y="158" width="8" height="8"/>
    <rect x="142" y="158" width="8" height="8"/>
    <rect x="158" y="158" width="8" height="8"/>
    
    <rect x="70" y="174" width="8" height="8"/>
    <rect x="86" y="174" width="8" height="8"/>
    <rect x="110" y="174" width="8" height="8"/>
    <rect x="126" y="174" width="8" height="8"/>
    <rect x="174" y="174" width="8" height="8"/>
  </g>
</svg>
