<?xml version="1.0" encoding="UTF-8"?>
<svg xmlns="http://www.w3.org/2000/svg" width="413.620" height="576.777" viewBox="0 0 413.620 576.777">
  <path d="M 404.53 497.918 C 400.11 499.178 395.58 496.982 391.82 494.389 C 391.31 494.04 390.84 493.672 390.37 493.291 C 390.84 492.91 391.31 492.542 391.82 492.192 C 395.58 489.6 400.11 487.405 404.53 488.663 C 407.81 489.594 409.11 492.066 409.11 493.291 C 409.11 494.515 407.81 496.987 404.53 497.918 Z M 398.93 543.491 C 398.93 545.768 398.49 547.941 397.74 549.958 C 397.52 550.03 397.3 550.109 397.08 550.174 C 394.43 550.923 391.76 551.394 389.07 551.627 C 389.22 549.737 389.26 547.836 389.2 545.949 C 389.01 539.239 387.92 532.415 385.12 526.269 C 384.89 525.758 384.63 525.264 384.37 524.768 C 389.17 520.55 390.22 513.776 388.79 507.702 C 388.04 504.529 386.62 501.592 384.76 498.928 C 386.39 497.17 387.97 495.386 389.79 493.799 C 391.54 495.13 393.39 496.33 395.28 497.445 C 396.4 498.099 397.64 498.664 398.93 499.083 L 398.93 543.491 Z M 387.38 560.637 C 388.24 557.922 388.76 555.106 389.02 552.26 C 391.85 552.068 394.67 551.621 397.39 550.853 C 395.47 555.281 391.86 558.809 387.38 560.637 Z M 336.87 562.01 C 336.46 560.745 335.9 559.532 335.26 558.44 C 334.15 556.548 332.95 554.693 331.61 552.94 C 333.2 551.123 334.98 549.548 336.74 547.919 C 339.41 549.771 342.35 551.199 345.52 551.946 C 351.59 553.376 358.36 552.32 362.58 547.523 C 363.08 547.781 363.57 548.042 364.08 548.275 C 370.23 551.077 377.05 552.164 383.76 552.356 C 385.3 552.4 386.84 552.379 388.38 552.294 C 388.12 554.629 387.67 556.955 387.02 559.261 C 386.85 559.837 386.66 560.408 386.46 560.975 C 384.56 561.634 382.53 562.01 380.41 562.01 L 336.87 562.01 Z M 335.73 567.688 C 334.8 570.965 332.33 572.262 331.11 572.262 C 329.88 572.262 327.41 570.965 326.48 567.688 C 325.22 563.262 327.42 558.732 330.01 554.976 C 330.36 554.47 330.72 553.99 331.11 553.525 C 331.49 553.99 331.86 554.47 332.2 554.976 C 334.8 558.732 336.99 563.262 335.73 567.688 Z M 300.26 545.999 C 297.77 542.467 296.95 537.654 297.79 533.497 C 298.35 530.692 299.68 527.975 301.67 525.911 C 303.5 524.031 306.7 521.853 309.43 522.989 C 312.24 524.099 312.43 527.952 311.97 530.454 C 311.41 533.545 309.86 536.57 308.02 539.091 C 305.93 541.942 303.25 544.214 300.26 545.999 Z M 382.84 462.444 C 381.06 465.435 378.79 468.114 375.94 470.201 C 373.42 472.044 370.39 473.598 367.3 474.159 C 364.8 474.614 360.94 474.428 359.83 471.618 C 358.7 468.884 360.88 465.68 362.76 463.859 C 364.82 461.864 367.54 460.533 370.34 459.971 C 374.5 459.136 379.31 459.95 382.84 462.444 Z M 382.84 114.333 C 379.31 116.827 374.5 117.641 370.34 116.806 C 367.54 116.244 364.82 114.913 362.76 112.917 C 360.88 111.097 358.7 107.892 359.83 105.16 C 360.94 102.349 364.8 102.163 367.3 102.618 C 370.39 103.18 373.42 104.733 375.94 106.576 C 378.79 108.663 381.06 111.342 382.84 114.333 Z M 308.02 37.685 C 309.86 40.206 311.41 43.231 311.97 46.323 C 312.43 48.824 312.24 52.678 309.43 53.788 C 306.7 54.923 303.5 52.746 301.67 50.866 C 299.68 48.802 298.35 46.085 297.79 43.28 C 296.95 39.123 297.77 34.31 300.26 30.777 C 303.25 32.562 305.93 34.834 308.02 37.685 Z M 113.36 30.777 C 115.85 34.31 116.67 39.123 115.83 43.28 C 115.27 46.085 113.94 48.802 111.94 50.866 C 110.12 52.746 106.92 54.923 104.18 53.788 C 101.37 52.678 101.19 48.824 101.64 46.323 C 102.2 43.231 103.76 40.206 105.6 37.685 C 107.69 34.834 110.37 32.562 113.36 30.777 Z M 30.77 114.333 C 32.56 111.342 34.83 108.663 37.68 106.576 C 40.2 104.733 43.23 103.18 46.32 102.618 C 48.82 102.163 52.67 102.349 53.78 105.16 C 54.92 107.892 52.74 111.097 50.86 112.917 C 48.8 114.913 46.08 116.244 43.28 116.806 C 39.12 117.641 34.31 116.827 30.77 114.333 Z M 30.77 462.444 C 34.31 459.95 39.12 459.136 43.28 459.971 C 46.08 460.533 48.8 461.864 50.86 463.859 C 52.74 465.68 54.92 468.884 53.78 471.618 C 52.67 474.428 48.82 474.614 46.32 474.159 C 43.23 473.598 40.2 472.044 37.68 470.201 C 34.83 468.114 32.56 465.435 30.77 462.444 Z M 105.6 539.091 C 103.76 536.57 102.2 533.545 101.64 530.454 C 101.19 527.952 101.37 524.099 104.18 522.989 C 106.92 521.853 110.12 524.031 111.94 525.911 C 113.94 527.975 115.27 530.692 115.83 533.497 C 116.67 537.654 115.85 542.467 113.36 545.999 C 110.37 544.214 107.69 541.942 105.6 539.091 Z M 88.28 562.01 C 87.86 560.745 87.31 559.532 86.66 558.44 C 85.55 556.548 84.35 554.693 83.02 552.94 C 84.61 551.123 86.39 549.548 88.15 547.919 C 90.81 549.771 93.75 551.199 96.92 551.946 C 103 553.376 109.77 552.32 113.99 547.523 C 114.48 547.781 114.98 548.042 115.49 548.275 C 121.56 551.042 128.29 552.133 134.92 552.345 L 134.92 552.343 L 278.69 552.343 L 278.69 551.77 L 134.92 551.77 L 134.92 551.771 C 130.09 551.603 125.27 550.704 120.53 549.206 C 118.5 548.563 116.52 547.735 114.64 546.733 C 118.13 542.124 119.56 535.367 117.82 529.84 C 116.2 524.701 111 519.294 105.07 520.586 C 97.94 522.14 99.91 531.512 102.27 536.078 C 104.64 540.66 108.33 544.262 112.72 546.823 C 112.13 547.542 111.45 548.199 110.69 548.764 C 105.55 552.577 98.32 551.964 92.82 549.309 C 91.49 548.669 90.24 547.914 89.05 547.071 C 89.69 546.458 90.32 545.834 90.93 545.172 C 94.63 541.133 96.31 535.317 94.26 530.054 C 93.86 529.016 93.36 528.031 92.79 527.079 C 93.75 524.75 94.51 522.357 95.03 519.927 C 95.94 515.715 96.07 510.884 94.5 506.787 C 93.18 503.331 89.82 500.728 86.24 503.077 C 84.51 504.228 83.38 505.904 82.51 507.642 C 81.64 505.904 80.51 504.228 78.79 503.077 C 76.72 501.721 74.73 502.02 73.16 503.177 C 74.66 501.538 75.21 499.324 73.7 497.016 C 72.54 495.293 70.87 494.159 69.13 493.291 C 70.87 492.424 72.54 491.288 73.7 489.567 C 76.04 485.985 73.44 482.623 69.98 481.304 C 65.89 479.735 61.06 479.863 56.85 480.77 C 54.42 481.293 52.02 482.056 49.69 483.013 C 48.74 482.444 47.76 481.943 46.72 481.539 C 41.46 479.496 35.64 481.173 31.6 484.876 C 30.94 485.484 30.31 486.116 29.7 486.757 C 28.86 485.566 28.1 484.31 27.46 482.983 C 24.81 477.481 24.2 470.25 28.01 465.108 C 28.57 464.349 29.23 463.677 29.95 463.077 C 32.51 467.473 36.11 471.167 40.69 473.535 C 45.26 475.895 54.63 477.857 56.19 470.73 C 57.48 464.798 52.07 459.605 46.93 457.983 C 41.41 456.24 34.65 457.668 30.04 461.159 C 29.04 459.283 28.21 457.305 27.57 455.273 C 26.07 450.549 25.17 445.734 25 440.919 L 25.01 440.919 L 25.01 135.842 L 25 135.842 C 25.18 131.032 26.07 126.223 27.57 121.504 C 28.21 119.472 29.04 117.495 30.04 115.619 C 34.65 119.109 41.41 120.537 46.93 118.793 C 52.07 117.172 57.48 111.978 56.19 106.046 C 54.63 98.919 45.26 100.882 40.69 103.242 C 36.11 105.61 32.51 109.304 29.95 113.7 C 29.23 113.1 28.57 112.427 28.01 111.668 C 24.2 106.527 24.81 99.296 27.46 93.793 C 28.1 92.467 28.86 91.211 29.7 90.019 C 30.31 90.661 30.94 91.293 31.6 91.901 C 35.64 95.604 41.46 97.281 46.72 95.237 C 47.76 94.834 48.74 94.333 49.69 93.764 C 52.02 94.72 54.42 95.483 56.85 96.007 C 61.06 96.914 65.89 97.041 69.98 95.473 C 73.44 94.153 76.04 90.791 73.7 87.21 C 72.54 85.488 70.87 84.353 69.13 83.486 C 70.87 82.618 72.54 81.484 73.7 79.761 C 75.21 77.453 74.66 75.238 73.16 73.6 C 74.73 74.756 76.72 75.056 78.79 73.7 C 80.51 72.548 81.64 70.872 82.51 69.134 C 83.38 70.872 84.51 72.548 86.24 73.7 C 89.82 76.049 93.18 73.446 94.5 69.989 C 96.07 65.893 95.94 61.061 95.03 56.85 C 94.51 54.419 93.75 52.026 92.79 49.698 C 93.36 48.746 93.86 47.76 94.26 46.723 C 96.31 41.459 94.63 35.643 90.93 31.604 C 90.32 30.942 89.69 30.318 89.05 29.706 C 90.24 28.862 91.49 28.107 92.82 27.467 C 98.32 24.812 105.55 24.199 110.69 28.013 C 111.45 28.577 112.13 29.234 112.72 29.954 C 108.33 32.515 104.64 36.117 102.27 40.698 C 99.91 45.265 97.94 54.637 105.07 56.191 C 111 57.483 116.2 52.076 117.82 46.937 C 119.56 41.41 118.13 34.652 114.64 30.044 C 116.52 29.041 118.5 28.213 120.53 27.571 C 125.27 26.072 130.09 25.174 134.92 25.005 L 134.92 25.007 L 278.69 25.007 L 278.69 24.433 L 134.92 24.433 L 134.92 24.432 C 128.29 24.644 121.56 25.735 115.49 28.502 C 114.98 28.734 114.48 28.995 113.99 29.253 C 109.77 24.456 103 23.4 96.92 24.831 C 93.75 25.577 90.81 27.005 88.15 28.857 C 86.39 27.228 84.61 25.653 83.02 23.836 C 84.35 22.083 85.55 20.228 86.66 18.337 C 87.31 17.245 87.86 16.031 88.28 14.767 L 325.34 14.767 C 325.76 16.031 326.31 17.245 326.95 18.337 C 328.07 20.228 329.27 22.083 330.6 23.836 C 329.01 25.653 327.23 27.228 325.47 28.857 C 322.81 27.005 319.87 25.577 316.69 24.831 C 310.62 23.4 303.85 24.456 299.63 29.253 C 299.13 28.995 298.64 28.734 298.13 28.502 C 292.06 25.735 285.33 24.644 278.7 24.432 L 278.7 25.005 C 283.53 25.174 288.35 26.072 293.09 27.571 C 295.12 28.213 297.1 29.041 298.97 30.044 C 295.48 34.652 294.06 41.41 295.8 46.937 C 297.42 52.076 302.61 57.483 308.55 56.191 C 315.67 54.637 313.71 45.265 311.35 40.698 C 308.98 36.117 305.29 32.515 300.89 29.954 C 301.49 29.234 302.17 28.577 302.92 28.013 C 308.06 24.199 315.3 24.812 320.8 27.467 C 322.13 28.107 323.38 28.862 324.57 29.706 C 323.93 30.318 323.3 30.942 322.69 31.604 C 318.99 35.643 317.31 41.459 319.35 46.723 C 319.76 47.76 320.26 48.746 320.83 49.698 C 319.87 52.026 319.11 54.419 318.59 56.85 C 317.68 61.061 317.55 65.893 319.12 69.989 C 320.44 73.446 323.8 76.049 327.38 73.7 C 329.1 72.548 330.24 70.872 331.11 69.134 C 331.97 70.872 333.11 72.548 334.83 73.7 C 336.9 75.056 338.89 74.756 340.46 73.6 C 338.96 75.238 338.41 77.453 339.92 79.761 C 341.07 81.484 342.75 82.618 344.49 83.486 C 342.75 84.353 341.07 85.488 339.92 87.21 C 337.57 90.791 340.18 94.153 343.63 95.473 C 347.73 97.041 352.56 96.914 356.77 96.007 C 359.2 95.483 361.6 94.72 363.92 93.764 C 364.88 94.333 365.86 94.834 366.9 95.237 C 372.16 97.281 377.98 95.604 382.02 91.901 C 382.68 91.293 383.3 90.661 383.92 90.019 C 384.76 91.211 385.51 92.467 386.15 93.793 C 388.81 99.296 389.42 106.527 385.61 111.668 C 385.04 112.427 384.39 113.1 383.67 113.7 C 381.11 109.304 377.5 105.61 372.92 103.242 C 368.36 100.882 358.99 98.919 357.43 106.046 C 356.14 111.978 361.55 117.172 366.68 118.793 C 372.21 120.537 378.97 119.109 383.58 115.619 C 384.58 117.495 385.41 119.472 386.05 121.504 C 387.54 126.222 388.44 131.03 388.61 135.839 L 388.61 135.839 L 388.61 440.916 L 388.9 440.917 L 388.61 440.917 C 388.44 445.733 387.55 450.548 386.05 455.273 C 385.41 457.305 384.58 459.283 383.58 461.159 C 378.97 457.668 372.21 456.24 366.68 457.983 C 361.55 459.605 356.14 464.798 357.43 470.73 C 358.99 477.857 368.36 475.895 372.92 473.535 C 377.5 471.167 381.11 467.473 383.67 463.077 C 384.39 463.677 385.04 464.349 385.61 465.108 C 389.42 470.25 388.81 477.481 386.15 482.983 C 385.51 484.31 384.76 485.566 383.92 486.757 C 383.3 486.116 382.68 485.484 382.02 484.876 C 377.98 481.173 372.16 479.496 366.9 481.539 C 365.86 481.943 364.88 482.444 363.92 483.013 C 361.6 482.056 359.2 481.293 356.77 480.77 C 352.56 479.863 347.73 479.735 343.63 481.304 C 340.18 482.623 337.57 485.985 339.92 489.567 C 341.07 491.288 342.75 492.424 344.49 493.291 C 342.75 494.159 341.07 495.293 339.92 497.016 C 338.41 499.324 338.96 501.538 340.46 503.177 C 338.89 502.021 336.9 501.721 334.83 503.077 C 333.11 504.228 331.97 505.904 331.11 507.642 C 330.24 505.904 329.1 504.228 327.38 503.077 C 323.8 500.728 320.44 503.331 319.12 506.787 C 317.55 510.884 317.68 515.715 318.59 519.927 C 319.11 522.357 319.87 524.75 320.83 527.079 C 320.26 528.031 319.76 529.016 319.35 530.054 C 317.31 535.317 318.99 541.133 322.69 545.172 C 323.3 545.834 323.93 546.458 324.57 547.071 C 323.38 547.914 322.13 548.669 320.8 549.309 C 315.3 551.964 308.06 552.577 302.92 548.764 C 302.17 548.199 301.49 547.542 300.89 546.823 C 305.29 544.262 308.98 540.66 311.35 536.078 C 313.71 531.512 315.67 522.14 308.55 520.586 C 302.61 519.294 297.42 524.701 295.8 529.84 C 294.06 535.367 295.48 542.124 298.97 546.733 C 297.1 547.735 295.12 548.563 293.09 549.206 C 288.35 550.704 283.53 551.603 278.7 551.771 L 278.7 552.345 C 285.33 552.133 292.06 551.042 298.13 548.275 C 298.64 548.042 299.13 547.781 299.63 547.523 C 303.85 552.32 310.62 553.376 316.69 551.946 C 319.87 551.199 322.81 549.771 325.47 547.919 C 327.23 549.548 329.01 551.123 330.6 552.94 C 329.27 554.693 328.07 556.548 326.95 558.44 C 326.31 559.532 325.76 560.745 325.34 562.01 L 88.28 562.01 Z M 87.14 567.688 C 86.21 570.965 83.74 572.262 82.51 572.262 C 81.29 572.262 78.81 570.965 77.88 567.688 C 76.62 563.262 78.82 558.732 81.41 554.976 C 81.76 554.47 82.13 553.99 82.51 553.525 C 82.89 553.99 83.26 554.47 83.61 554.976 C 86.2 558.732 88.4 563.262 87.14 567.688 Z M 33.21 562.01 C 31.09 562.01 29.06 561.634 27.16 560.975 C 26.96 560.408 26.77 559.837 26.6 559.261 C 25.95 556.954 25.5 554.629 25.24 552.293 C 26.78 552.379 28.32 552.4 29.85 552.356 C 36.56 552.164 43.39 551.077 49.53 548.275 C 50.04 548.042 50.54 547.781 51.03 547.523 C 55.25 552.32 62.03 553.376 68.1 551.946 C 71.27 551.199 74.21 549.771 76.87 547.919 C 78.63 549.548 80.42 551.123 82 552.94 C 80.67 554.693 79.47 556.548 78.36 558.44 C 77.72 559.532 77.16 560.745 76.74 562.01 L 33.21 562.01 Z M 16.22 550.851 C 18.95 551.619 21.77 552.067 24.6 552.26 C 24.86 555.107 25.38 557.923 26.24 560.639 C 21.76 558.811 18.15 555.281 16.22 550.851 Z M 14.69 499.083 C 15.98 498.664 17.22 498.099 18.33 497.445 C 20.22 496.33 22.08 495.13 23.83 493.799 C 25.65 495.386 27.22 497.17 28.85 498.928 C 27 501.592 25.57 504.529 24.83 507.702 C 23.4 513.776 24.45 520.55 29.25 524.768 C 28.99 525.264 28.73 525.758 28.5 526.269 C 25.7 532.415 24.61 539.239 24.42 545.949 C 24.36 547.837 24.4 549.737 24.54 551.628 C 21.86 551.394 19.19 550.923 16.54 550.174 C 16.32 550.11 16.1 550.033 15.88 549.958 C 15.12 547.941 14.69 545.768 14.69 543.491 L 14.69 499.083 Z M 9.08 497.918 C 5.81 496.987 4.51 494.515 4.51 493.291 C 4.51 492.066 5.81 489.594 9.08 488.663 C 13.51 487.405 18.04 489.6 21.8 492.192 C 22.3 492.542 22.78 492.91 23.25 493.291 C 22.78 493.672 22.3 494.04 21.8 494.389 C 18.04 496.982 13.51 499.178 9.08 497.918 Z M 33.77 493.291 C 32.26 494.713 30.84 496.257 29.59 497.921 C 28.13 496.599 26.77 495.164 25.26 493.908 C 25 493.696 24.74 493.495 24.48 493.291 C 24.74 493.085 25 492.887 25.26 492.675 C 26.77 491.417 28.13 489.981 29.59 488.66 C 30.84 490.324 32.26 491.869 33.77 493.291 Z M 35.43 491.81 C 35.22 491.985 35.02 492.164 34.81 492.345 C 33.24 490.984 31.79 489.485 30.51 487.851 C 30.82 487.593 31.13 487.342 31.46 487.103 C 35.53 484.077 41.1 482.164 46.18 483.537 C 46.64 483.663 47.08 483.812 47.53 483.974 C 43.15 486.031 39.05 488.745 35.43 491.81 Z M 61.11 492.13 C 61.95 492.562 62.82 492.971 63.74 493.291 C 62.82 493.611 61.95 494.019 61.11 494.451 C 57.52 496.356 54.27 499.158 50.68 501.152 C 47.28 499.927 43.98 498.423 40.9 496.642 C 39.18 495.649 37.52 494.532 35.95 493.291 C 37.52 492.051 39.18 490.933 40.9 489.94 C 43.98 488.159 47.28 486.654 50.68 485.429 C 54.27 487.425 57.52 490.226 61.11 492.13 Z M 90.97 524.387 C 88.75 521.37 86.14 518.547 84.4 515.278 C 83.69 513.972 83.16 512.553 82.98 511.134 C 82.98 511.129 82.98 511.124 82.97 511.119 C 82.95 510.949 82.83 510.811 82.66 510.755 C 82.64 510.75 82.63 510.742 82.61 510.737 C 82.6 510.736 82.6 510.731 82.59 510.729 C 82.56 510.724 82.54 510.732 82.51 510.732 C 82.49 510.732 82.46 510.724 82.43 510.729 C 82.43 510.731 82.42 510.736 82.41 510.737 C 82.39 510.742 82.38 510.75 82.36 510.755 C 82.2 510.811 82.08 510.949 82.05 511.119 C 82.05 511.124 82.04 511.129 82.04 511.134 C 81.86 512.553 81.33 513.972 80.62 515.278 C 78.88 518.547 76.28 521.37 74.05 524.387 C 73.26 521.985 72.61 519.544 72.11 517.101 C 71.46 513.925 71.11 510.488 72.04 507.323 C 72.91 504.518 75.28 502.241 78.26 503.938 C 79.98 504.921 81.26 506.66 82.24 508.475 C 82.25 508.497 82.27 508.513 82.29 508.531 C 82.29 508.533 82.29 508.534 82.29 508.536 C 82.32 508.562 82.35 508.584 82.38 508.6 C 82.38 508.602 82.38 508.604 82.39 508.605 C 82.39 508.605 82.39 508.605 82.39 508.605 C 82.42 508.618 82.44 508.623 82.47 508.627 C 82.48 508.628 82.5 508.632 82.51 508.632 C 82.52 508.632 82.54 508.628 82.55 508.627 C 82.58 508.623 82.61 508.618 82.63 508.605 C 82.63 508.605 82.63 508.605 82.64 508.605 C 82.64 508.604 82.64 508.602 82.64 508.6 C 82.68 508.584 82.71 508.562 82.73 508.536 C 82.73 508.534 82.73 508.533 82.73 508.531 C 82.75 508.513 82.77 508.497 82.78 508.475 C 83.76 506.66 85.05 504.921 86.76 503.938 C 89.74 502.241 92.12 504.518 92.98 507.323 C 93.92 510.488 93.56 513.925 92.91 517.101 C 92.41 519.544 91.77 521.985 90.97 524.387 Z M 83.46 541.958 C 83.64 541.755 83.82 541.552 83.99 541.345 C 87.06 537.725 89.77 533.622 91.83 529.246 C 91.99 529.688 92.14 530.136 92.27 530.593 C 93.64 535.668 91.72 541.244 88.7 545.317 C 88.46 545.639 88.21 545.951 87.95 546.259 C 86.32 544.982 84.82 543.533 83.46 541.958 Z M 82.51 543.001 C 83.93 544.513 85.48 545.932 87.14 547.188 C 85.82 548.644 84.39 550.007 83.13 551.515 C 82.92 551.769 82.72 552.035 82.51 552.295 C 82.31 552.035 82.11 551.769 81.89 551.515 C 80.64 550.007 79.2 548.644 77.88 547.188 C 79.55 545.932 81.09 544.513 82.51 543.001 Z M 74.65 526.098 C 76.64 522.498 79.45 519.253 81.35 515.663 C 81.78 514.82 82.19 513.949 82.51 513.035 C 82.83 513.949 83.24 514.82 83.67 515.663 C 85.58 519.253 88.38 522.498 90.37 526.098 C 89.15 529.494 87.64 532.794 85.86 535.877 C 84.87 537.595 83.75 539.257 82.51 540.818 C 81.27 539.257 80.15 537.595 79.16 535.877 C 77.38 532.794 75.88 529.494 74.65 526.098 Z M 72.76 530.593 C 72.88 530.136 73.03 529.688 73.2 529.246 C 75.25 533.622 77.97 537.725 81.03 541.345 C 81.21 541.552 81.38 541.755 81.56 541.958 C 80.2 543.533 78.71 544.982 77.07 546.259 C 76.82 545.951 76.56 545.639 76.32 545.317 C 73.3 541.244 71.38 535.668 72.76 530.593 Z M 30.51 498.731 C 31.79 497.097 33.24 495.598 34.81 494.238 C 35.02 494.418 35.22 494.596 35.43 494.772 C 39.05 497.837 43.15 500.552 47.53 502.607 C 47.08 502.77 46.64 502.919 46.18 503.043 C 41.1 504.418 35.53 502.504 31.46 499.478 C 31.13 499.241 30.82 498.987 30.51 498.731 Z M 62.76 536.078 C 65.12 531.512 67.08 522.14 59.95 520.586 C 58.5 520.27 57.1 520.36 55.78 520.741 C 56.36 519.217 56.56 517.567 56.19 515.851 C 54.63 508.724 45.26 510.686 40.69 513.046 C 36.11 515.416 32.51 519.11 29.95 523.505 C 29.23 522.905 28.57 522.234 28.01 521.473 C 24.2 516.33 24.81 509.102 27.46 503.599 C 28.1 502.271 28.86 501.015 29.7 499.825 C 30.31 500.465 30.94 501.099 31.6 501.706 C 35.64 505.41 41.46 507.086 46.72 505.043 C 47.76 504.64 48.74 504.137 49.69 503.568 C 52.02 504.525 54.42 505.289 56.85 505.812 C 61.06 506.719 65.89 506.847 69.98 505.279 C 70.78 504.975 71.53 504.56 72.18 504.062 C 71.48 504.828 70.91 505.768 70.52 506.787 C 68.96 510.884 69.08 515.715 69.99 519.927 C 70.51 522.357 71.28 524.75 72.23 527.079 C 71.67 528.031 71.16 529.016 70.76 530.054 C 68.72 535.317 70.39 541.133 74.1 545.172 C 74.7 545.834 75.34 546.458 75.98 547.071 C 74.79 547.914 73.53 548.669 72.2 549.309 C 66.7 551.964 59.47 552.577 54.33 548.764 C 53.57 548.199 52.9 547.542 52.3 546.823 C 56.69 544.262 60.39 540.66 62.76 536.078 Z M 49.19 533.497 C 49.75 530.692 51.08 527.975 53.08 525.911 C 54.9 524.031 58.1 521.853 60.84 522.989 C 63.65 524.099 63.83 527.952 63.38 530.454 C 62.82 533.545 61.27 536.57 59.42 539.091 C 57.33 541.942 54.65 544.214 51.67 545.999 C 49.17 542.467 48.36 537.654 49.19 533.497 Z M 50.86 522.722 C 48.8 524.719 46.08 526.049 43.28 526.611 C 39.12 527.445 34.31 526.632 30.77 524.138 C 32.56 521.147 34.83 518.468 37.68 516.38 C 40.2 514.538 43.23 512.985 46.32 512.424 C 48.82 511.968 52.67 512.155 53.78 514.965 C 54.92 517.697 52.74 520.902 50.86 522.722 Z M 27.57 531.309 C 28.21 529.277 29.04 527.3 30.04 525.423 C 34.65 528.914 41.41 530.342 46.93 528.598 C 47.22 528.506 47.52 528.399 47.81 528.284 C 47.58 528.801 47.37 529.321 47.2 529.84 C 45.46 535.367 46.89 542.124 50.38 546.733 C 48.5 547.735 46.53 548.563 44.49 549.206 C 38.15 551.214 31.64 552.154 25.18 551.686 C 24.52 544.881 25.45 538.004 27.57 531.309 Z M 68.15 493.331 C 68.15 493.359 68.15 493.386 68.17 493.412 C 68.17 493.412 68.17 493.414 68.17 493.416 C 68.17 493.418 68.17 493.419 68.17 493.422 C 68.19 493.456 68.21 493.486 68.24 493.511 C 68.24 493.512 68.24 493.514 68.24 493.515 C 68.26 493.531 68.28 493.55 68.3 493.561 C 70.11 494.539 71.85 495.827 72.83 497.539 C 74.53 500.519 72.25 502.896 69.45 503.761 C 66.28 504.697 62.85 504.341 59.67 503.692 C 57.23 503.193 54.79 502.545 52.39 501.753 C 55.4 499.526 58.22 496.921 61.49 495.183 C 62.8 494.473 64.22 493.944 65.64 493.759 C 65.64 493.758 65.65 493.756 65.65 493.755 C 65.82 493.726 65.96 493.606 66.02 493.438 C 66.02 493.422 66.03 493.408 66.04 493.391 C 66.04 493.382 66.04 493.376 66.04 493.367 C 66.05 493.341 66.04 493.316 66.04 493.291 C 66.04 493.265 66.05 493.241 66.04 493.214 C 66.04 493.206 66.04 493.199 66.04 493.191 C 66.03 493.173 66.02 493.159 66.02 493.142 C 65.96 492.976 65.82 492.855 65.65 492.828 C 65.65 492.827 65.64 492.824 65.64 492.824 C 64.22 492.639 62.8 492.109 61.49 491.399 C 58.22 489.662 55.4 487.055 52.39 484.828 C 54.79 484.037 57.23 483.39 59.67 482.889 C 62.85 482.242 66.28 481.886 69.45 482.819 C 72.25 483.686 74.53 486.063 72.83 489.042 C 71.85 490.756 70.11 492.043 68.3 493.022 C 68.28 493.033 68.26 493.052 68.24 493.068 C 68.24 493.068 68.24 493.068 68.24 493.072 C 68.21 493.097 68.19 493.127 68.17 493.159 C 68.17 493.162 68.17 493.164 68.17 493.167 C 68.17 493.168 68.17 493.169 68.17 493.17 C 68.15 493.196 68.15 493.222 68.15 493.251 C 68.14 493.264 68.14 493.277 68.14 493.291 C 68.14 493.305 68.14 493.317 68.15 493.331 Z M 14.69 89.279 C 15.98 88.859 17.22 88.294 18.33 87.639 C 20.22 86.526 22.08 85.324 23.83 83.996 C 25.65 85.58 27.22 87.365 28.85 89.123 C 27 91.787 25.57 94.724 24.83 97.897 C 23.4 103.97 24.45 110.744 29.25 114.963 C 28.99 115.458 28.73 115.953 28.5 116.464 C 25.74 122.522 24.64 129.241 24.43 135.859 L 24.43 135.859 L 24.43 440.916 L 24.72 440.917 L 24.43 440.917 C 24.64 447.536 25.74 454.254 28.5 460.312 C 28.73 460.824 28.99 461.319 29.25 461.814 C 24.45 466.033 23.4 472.806 24.83 478.879 C 25.57 482.053 27 484.99 28.85 487.653 C 27.22 489.411 25.65 491.197 23.83 492.781 C 22.08 491.452 20.22 490.251 18.33 489.138 C 17.22 488.482 15.98 487.917 14.69 487.498 L 14.69 89.279 Z M 9.08 88.114 C 5.81 87.183 4.51 84.711 4.51 83.486 C 4.51 82.261 5.81 79.789 9.08 78.858 C 13.51 77.6 18.04 79.795 21.8 82.388 C 22.3 82.736 22.78 83.105 23.25 83.486 C 22.78 83.867 22.3 84.235 21.8 84.584 C 18.04 87.177 13.51 89.371 9.08 88.114 Z M 14.69 33.286 C 14.69 31.008 15.12 28.835 15.88 26.818 C 16.1 26.746 16.32 26.667 16.54 26.602 C 19.19 25.853 21.86 25.382 24.55 25.148 C 24.4 27.04 24.36 28.939 24.42 30.827 C 24.61 37.538 25.7 44.362 28.5 50.508 C 28.73 51.019 28.99 51.513 29.25 52.008 C 24.45 56.227 23.4 63.001 24.83 69.075 C 25.57 72.247 27 75.185 28.85 77.849 C 27.22 79.607 25.65 81.391 23.83 82.978 C 22.08 81.647 20.22 80.446 18.33 79.332 C 17.22 78.677 15.98 78.113 14.69 77.694 L 14.69 33.286 Z M 26.25 16.137 C 25.38 18.852 24.86 21.669 24.6 24.516 C 21.77 24.708 18.95 25.154 16.23 25.922 C 18.15 21.492 21.76 17.963 26.25 16.137 Z M 76.74 14.767 C 77.16 16.031 77.72 17.245 78.36 18.337 C 79.47 20.228 80.67 22.083 82 23.836 C 80.42 25.653 78.63 27.228 76.87 28.857 C 74.21 27.005 71.27 25.577 68.1 24.831 C 62.03 23.4 55.25 24.456 51.03 29.253 C 50.54 28.995 50.04 28.734 49.53 28.502 C 43.39 25.7 36.56 24.612 29.85 24.42 C 28.32 24.376 26.78 24.398 25.24 24.482 C 25.5 22.147 25.95 19.821 26.6 17.516 C 26.77 16.938 26.96 16.368 27.16 15.8 C 29.06 15.142 31.09 14.767 33.21 14.767 L 76.74 14.767 Z M 82.51 33.775 C 81.09 32.264 79.55 30.844 77.88 29.589 C 79.2 28.132 80.64 26.77 81.89 25.262 C 82.11 25.007 82.31 24.741 82.51 24.481 C 82.72 24.741 82.92 25.007 83.13 25.262 C 84.39 26.77 85.82 28.132 87.14 29.589 C 85.48 30.844 83.93 32.264 82.51 33.775 Z M 92.27 46.184 C 92.14 46.642 91.99 47.088 91.83 47.531 C 89.77 43.155 87.06 39.051 83.99 35.431 C 83.82 35.224 83.64 35.021 83.46 34.818 C 84.82 33.244 86.32 31.794 87.95 30.518 C 88.21 30.826 88.46 31.138 88.7 31.459 C 91.72 35.533 93.64 41.108 92.27 46.184 Z M 72.04 69.454 C 71.11 66.289 71.46 62.852 72.11 59.676 C 72.61 57.233 73.26 54.792 74.05 52.39 C 76.28 55.406 78.88 58.229 80.62 61.499 C 81.33 62.805 81.86 64.224 82.04 65.643 C 82.04 65.648 82.05 65.653 82.05 65.658 C 82.08 65.828 82.2 65.966 82.36 66.021 C 82.38 66.027 82.39 66.035 82.41 66.039 C 82.42 66.041 82.43 66.046 82.43 66.048 C 82.46 66.052 82.49 66.044 82.51 66.044 C 82.54 66.044 82.56 66.052 82.59 66.048 C 82.6 66.046 82.6 66.041 82.61 66.039 C 82.63 66.035 82.64 66.027 82.66 66.021 C 82.83 65.966 82.95 65.828 82.97 65.658 C 82.98 65.653 82.98 65.648 82.98 65.643 C 83.16 64.224 83.69 62.805 84.4 61.499 C 86.14 58.229 88.75 55.406 90.97 52.39 C 91.77 54.792 92.41 57.233 92.91 59.676 C 93.56 62.852 93.92 66.289 92.98 69.454 C 92.12 72.259 89.74 74.536 86.76 72.839 C 85.05 71.856 83.76 70.117 82.78 68.301 C 82.77 68.28 82.75 68.264 82.73 68.246 C 82.73 68.245 82.73 68.243 82.73 68.241 C 82.71 68.215 82.68 68.192 82.64 68.176 C 82.64 68.174 82.64 68.173 82.64 68.172 C 82.63 68.171 82.63 68.172 82.63 68.171 C 82.61 68.159 82.58 68.154 82.55 68.15 C 82.54 68.149 82.52 68.145 82.51 68.145 C 82.5 68.145 82.48 68.149 82.47 68.15 C 82.44 68.154 82.42 68.159 82.39 68.171 C 82.39 68.172 82.39 68.171 82.39 68.172 C 82.38 68.173 82.38 68.174 82.38 68.176 C 82.35 68.192 82.32 68.215 82.29 68.241 C 82.29 68.243 82.29 68.245 82.29 68.246 C 82.27 68.264 82.25 68.28 82.24 68.301 C 81.26 70.117 79.98 71.856 78.26 72.839 C 75.28 74.536 72.91 72.259 72.04 69.454 Z M 40.9 86.837 C 39.18 85.844 37.52 84.726 35.95 83.486 C 37.52 82.245 39.18 81.127 40.9 80.134 C 43.98 78.353 47.28 76.85 50.68 75.625 C 54.27 77.619 57.52 80.421 61.11 82.326 C 61.95 82.757 62.82 83.166 63.74 83.486 C 62.82 83.806 61.95 84.215 61.11 84.646 C 57.52 86.55 54.27 89.352 50.68 91.349 C 47.28 90.122 43.98 88.618 40.9 86.837 Z M 34.81 84.432 C 35.02 84.612 35.22 84.791 35.43 84.967 C 39.05 88.032 43.15 90.746 47.53 92.802 C 47.08 92.965 46.64 93.114 46.18 93.24 C 41.1 94.613 35.53 92.699 31.46 89.674 C 31.13 89.435 30.82 89.183 30.51 88.925 C 31.79 87.292 33.24 85.793 34.81 84.432 Z M 33.77 83.486 C 32.26 84.908 30.84 86.453 29.59 88.117 C 28.13 86.796 26.77 85.36 25.26 84.102 C 25 83.89 24.74 83.692 24.48 83.486 C 24.74 83.281 25 83.081 25.26 82.869 C 26.77 81.612 28.13 80.177 29.59 78.856 C 30.84 80.519 32.26 82.064 33.77 83.486 Z M 47.53 74.17 C 43.15 76.225 39.05 78.939 35.43 82.004 C 35.22 82.181 35.02 82.359 34.81 82.539 C 33.24 81.178 31.79 79.68 30.51 78.046 C 30.82 77.79 31.13 77.536 31.46 77.298 C 35.53 74.273 41.1 72.358 46.18 73.733 C 46.64 73.857 47.08 74.007 47.53 74.17 Z M 82.51 35.959 C 83.75 37.519 84.87 39.181 85.86 40.9 C 87.64 43.983 89.15 47.283 90.37 50.68 C 88.38 54.278 85.58 57.523 83.67 61.114 C 83.24 61.957 82.83 62.828 82.51 63.741 C 82.19 62.828 81.78 61.957 81.35 61.114 C 79.45 57.523 76.64 54.278 74.65 50.68 C 75.88 47.283 77.38 43.983 79.16 40.9 C 80.15 39.181 81.27 37.519 82.51 35.959 Z M 81.03 35.431 C 77.97 39.051 75.25 43.155 73.2 47.531 C 73.03 47.088 72.88 46.642 72.76 46.184 C 71.38 41.108 73.3 35.533 76.32 31.459 C 76.56 31.138 76.82 30.826 77.07 30.518 C 78.71 31.794 80.2 33.244 81.56 34.818 C 81.38 35.021 81.21 35.224 81.03 35.431 Z M 40.69 63.731 C 45.26 66.09 54.63 68.053 56.19 60.926 C 56.56 59.21 56.36 57.559 55.78 56.036 C 57.1 56.417 58.5 56.506 59.95 56.191 C 67.08 54.637 65.12 45.265 62.76 40.698 C 60.39 36.117 56.69 32.515 52.3 29.954 C 52.9 29.234 53.57 28.577 54.33 28.013 C 59.47 24.199 66.7 24.812 72.2 27.467 C 73.53 28.107 74.79 28.862 75.98 29.706 C 75.34 30.318 74.7 30.942 74.1 31.604 C 70.39 35.643 68.72 41.459 70.76 46.723 C 71.16 47.76 71.67 48.746 72.23 49.698 C 71.28 52.026 70.51 54.419 69.99 56.85 C 69.08 61.061 68.96 65.893 70.52 69.989 C 70.91 71.009 71.48 71.949 72.18 72.715 C 71.53 72.217 70.78 71.801 69.98 71.498 C 65.89 69.93 61.06 70.058 56.85 70.965 C 54.42 71.488 52.02 72.252 49.69 73.208 C 48.74 72.64 47.76 72.137 46.72 71.734 C 41.46 69.69 35.64 71.367 31.6 75.07 C 30.94 75.678 30.31 76.311 29.7 76.952 C 28.86 75.761 28.1 74.505 27.46 73.178 C 24.81 67.675 24.2 60.446 28.01 55.304 C 28.57 54.543 29.23 53.872 29.95 53.272 C 32.51 57.667 36.11 61.361 40.69 63.731 Z M 53.08 50.866 C 51.08 48.802 49.75 46.085 49.19 43.28 C 48.36 39.123 49.17 34.31 51.67 30.777 C 54.65 32.562 57.33 34.834 59.42 37.685 C 61.27 40.206 62.82 43.231 63.38 46.323 C 63.83 48.824 63.65 52.678 60.84 53.788 C 58.1 54.923 54.9 52.746 53.08 50.866 Z M 53.78 61.811 C 52.67 64.622 48.82 64.809 46.32 64.353 C 43.23 63.791 40.2 62.239 37.68 60.396 C 34.83 58.309 32.56 55.629 30.77 52.64 C 34.31 50.144 39.12 49.332 43.28 50.165 C 46.08 50.728 48.8 52.058 50.86 54.055 C 52.74 55.875 54.92 59.08 53.78 61.811 Z M 25.18 25.09 C 31.64 24.623 38.15 25.562 44.49 27.571 C 46.53 28.213 48.5 29.041 50.38 30.044 C 46.89 34.652 45.46 41.41 47.2 46.937 C 47.37 47.455 47.58 47.976 47.81 48.493 C 47.52 48.378 47.22 48.271 46.93 48.179 C 41.41 46.435 34.65 47.862 30.04 51.353 C 29.04 49.476 28.21 47.5 27.57 45.468 C 25.45 38.772 24.52 31.895 25.18 25.09 Z M 68.15 83.526 C 68.15 83.555 68.15 83.581 68.17 83.607 C 68.17 83.608 68.17 83.609 68.17 83.61 C 68.17 83.612 68.17 83.615 68.17 83.618 C 68.19 83.65 68.21 83.68 68.24 83.705 C 68.24 83.708 68.24 83.708 68.24 83.708 C 68.26 83.725 68.28 83.744 68.3 83.755 C 70.11 84.734 71.85 86.021 72.83 87.735 C 74.53 90.714 72.25 93.09 69.45 93.957 C 66.28 94.891 62.85 94.536 59.67 93.888 C 57.23 93.387 54.79 92.739 52.39 91.949 C 55.4 89.722 58.22 87.115 61.49 85.377 C 62.8 84.667 64.22 84.138 65.64 83.954 C 65.64 83.954 65.65 83.95 65.65 83.949 C 65.82 83.921 65.96 83.801 66.02 83.635 C 66.02 83.618 66.03 83.603 66.04 83.586 C 66.04 83.578 66.04 83.57 66.04 83.562 C 66.05 83.536 66.04 83.512 66.04 83.486 C 66.04 83.46 66.05 83.436 66.04 83.41 C 66.04 83.401 66.04 83.395 66.04 83.385 C 66.03 83.369 66.02 83.354 66.02 83.339 C 65.96 83.17 65.82 83.051 65.65 83.022 C 65.65 83.021 65.64 83.018 65.64 83.017 C 64.22 82.833 62.8 82.304 61.49 81.594 C 58.22 79.856 55.4 77.25 52.39 75.023 C 54.79 74.232 57.23 73.584 59.67 73.084 C 62.85 72.435 66.28 72.08 69.45 73.016 C 72.25 73.881 74.53 76.257 72.83 79.237 C 71.85 80.95 70.11 82.238 68.3 83.216 C 68.28 83.227 68.26 83.246 68.24 83.262 C 68.24 83.264 68.24 83.265 68.24 83.266 C 68.21 83.291 68.19 83.321 68.17 83.354 C 68.17 83.357 68.17 83.359 68.17 83.361 C 68.17 83.362 68.17 83.364 68.17 83.364 C 68.15 83.391 68.15 83.417 68.15 83.445 C 68.14 83.459 68.14 83.472 68.14 83.486 C 68.14 83.499 68.14 83.513 68.15 83.526 Z M 77.88 9.088 C 78.81 5.812 81.29 4.514 82.51 4.514 C 83.74 4.514 86.21 5.812 87.14 9.088 C 88.4 13.514 86.2 18.044 83.61 21.801 C 83.26 22.306 82.89 22.786 82.51 23.251 C 82.13 22.786 81.76 22.306 81.41 21.801 C 78.82 18.044 76.62 13.514 77.88 9.088 Z M 326.48 9.088 C 327.41 5.812 329.88 4.514 331.11 4.514 C 332.33 4.514 334.8 5.812 335.73 9.088 C 336.99 13.514 334.8 18.044 332.2 21.801 C 331.86 22.306 331.49 22.786 331.11 23.251 C 330.72 22.786 330.36 22.306 330.01 21.801 C 327.42 18.044 325.22 13.514 326.48 9.088 Z M 380.41 14.767 C 382.53 14.767 384.56 15.143 386.46 15.801 C 386.66 16.368 386.85 16.939 387.02 17.516 C 387.67 19.821 388.12 22.146 388.38 24.481 C 386.84 24.397 385.3 24.376 383.76 24.42 C 377.05 24.612 370.23 25.7 364.08 28.502 C 363.57 28.734 363.08 28.995 362.58 29.253 C 358.36 24.456 351.59 23.4 345.52 24.831 C 342.35 25.577 339.41 27.005 336.74 28.857 C 334.98 27.228 333.2 25.653 331.61 23.836 C 332.95 22.083 334.15 20.228 335.26 18.337 C 335.9 17.245 336.46 16.031 336.87 14.767 L 380.41 14.767 Z M 397.39 25.918 C 394.67 25.151 391.85 24.706 389.02 24.516 C 388.76 21.668 388.23 18.852 387.37 16.136 C 391.85 17.962 395.46 21.49 397.39 25.918 Z M 398.93 77.694 C 397.64 78.113 396.4 78.677 395.28 79.332 C 393.39 80.446 391.54 81.647 389.79 82.978 C 387.97 81.391 386.39 79.607 384.76 77.849 C 386.62 75.185 388.04 72.247 388.79 69.075 C 390.22 63.001 389.17 56.227 384.37 52.008 C 384.63 51.513 384.89 51.019 385.12 50.508 C 387.92 44.362 389.01 37.538 389.2 30.827 C 389.26 28.939 389.22 27.039 389.07 25.148 C 391.75 25.382 394.43 25.852 397.08 26.602 C 397.3 26.667 397.52 26.747 397.74 26.818 C 398.49 28.835 398.93 31.008 398.93 33.286 L 398.93 77.694 Z M 404.53 78.858 C 407.81 79.789 409.11 82.261 409.11 83.486 C 409.11 84.711 407.81 87.183 404.53 88.114 C 400.11 89.371 395.58 87.177 391.82 84.584 C 391.31 84.235 390.84 83.867 390.37 83.486 C 390.84 83.105 391.31 82.736 391.82 82.388 C 395.58 79.795 400.11 77.6 404.53 78.858 Z M 379.85 83.486 C 381.36 82.064 382.78 80.519 384.03 78.856 C 385.49 80.177 386.85 81.612 388.36 82.869 C 388.61 83.081 388.88 83.281 389.14 83.486 C 388.88 83.692 388.61 83.89 388.36 84.102 C 386.85 85.36 385.49 86.796 384.03 88.117 C 382.78 86.453 381.36 84.908 379.85 83.486 Z M 378.19 84.967 C 378.4 84.791 378.6 84.612 378.8 84.432 C 380.38 85.793 381.83 87.292 383.1 88.925 C 382.8 89.183 382.48 89.435 382.16 89.674 C 378.09 92.699 372.51 94.613 367.44 93.24 C 366.98 93.114 366.53 92.965 366.09 92.802 C 370.47 90.746 374.57 88.032 378.19 84.967 Z M 352.51 84.646 C 351.67 84.215 350.79 83.806 349.88 83.486 C 350.79 83.166 351.67 82.757 352.51 82.326 C 356.1 80.421 359.34 77.619 362.94 75.625 C 366.34 76.85 369.64 78.353 372.72 80.134 C 374.44 81.127 376.1 82.245 377.66 83.486 C 376.1 84.726 374.44 85.844 372.72 86.837 C 369.64 88.618 366.34 90.122 362.94 91.349 C 359.34 89.352 356.1 86.55 352.51 84.646 Z M 322.64 52.39 C 324.87 55.406 327.48 58.229 329.21 61.499 C 329.92 62.805 330.45 64.224 330.64 65.643 C 330.64 65.648 330.64 65.653 330.64 65.658 C 330.67 65.828 330.79 65.966 330.96 66.021 C 330.97 66.027 330.99 66.035 331.01 66.039 C 331.01 66.041 331.02 66.046 331.03 66.048 C 331.06 66.052 331.08 66.044 331.11 66.044 C 331.13 66.044 331.16 66.052 331.18 66.048 C 331.19 66.046 331.2 66.041 331.21 66.039 C 331.22 66.035 331.24 66.027 331.25 66.021 C 331.42 65.966 331.54 65.828 331.57 65.658 C 331.57 65.653 331.57 65.648 331.57 65.643 C 331.76 64.224 332.29 62.805 333 61.499 C 334.74 58.229 337.34 55.406 339.57 52.39 C 340.36 54.792 341.01 57.233 341.51 59.676 C 342.16 62.852 342.51 66.289 341.58 69.454 C 340.71 72.259 338.34 74.536 335.35 72.839 C 333.64 71.856 332.35 70.117 331.38 68.301 C 331.36 68.28 331.35 68.264 331.33 68.246 C 331.33 68.245 331.33 68.243 331.33 68.241 C 331.3 68.215 331.27 68.192 331.24 68.176 C 331.23 68.174 331.23 68.173 331.23 68.172 C 331.23 68.171 331.23 68.172 331.23 68.171 C 331.2 68.159 331.17 68.154 331.15 68.15 C 331.13 68.149 331.12 68.145 331.11 68.145 C 331.09 68.145 331.08 68.149 331.07 68.15 C 331.04 68.154 331.01 68.159 330.99 68.171 C 330.98 68.172 330.98 68.171 330.98 68.172 C 330.98 68.173 330.98 68.174 330.97 68.176 C 330.94 68.192 330.91 68.215 330.89 68.241 C 330.88 68.243 330.88 68.245 330.88 68.246 C 330.87 68.264 330.85 68.28 330.84 68.301 C 329.86 70.117 328.57 71.856 326.86 72.839 C 323.88 74.536 321.5 72.259 320.64 69.454 C 319.7 66.289 320.06 62.852 320.7 59.676 C 321.21 57.233 321.85 54.792 322.64 52.39 Z M 330.16 34.818 C 329.98 35.021 329.8 35.224 329.63 35.431 C 326.56 39.051 323.85 43.155 321.79 47.531 C 321.63 47.088 321.48 46.642 321.35 46.184 C 319.98 41.108 321.89 35.533 324.92 31.459 C 325.16 31.138 325.41 30.826 325.67 30.518 C 327.3 31.794 328.8 33.244 330.16 34.818 Z M 331.11 33.775 C 329.68 32.264 328.14 30.844 326.47 29.589 C 327.8 28.132 329.23 26.77 330.49 25.262 C 330.7 25.007 330.9 24.741 331.11 24.481 C 331.31 24.741 331.51 25.007 331.72 25.262 C 332.98 26.77 334.41 28.132 335.74 29.589 C 334.07 30.844 332.53 32.264 331.11 33.775 Z M 338.97 50.68 C 336.97 54.278 334.17 57.523 332.27 61.114 C 331.83 61.957 331.43 62.828 331.11 63.741 C 330.79 62.828 330.38 61.957 329.95 61.114 C 328.04 57.523 325.24 54.278 323.24 50.68 C 324.47 47.283 325.97 43.983 327.76 40.9 C 328.75 39.181 329.87 37.519 331.11 35.959 C 332.35 37.519 333.46 39.181 334.46 40.9 C 336.24 43.983 337.74 47.283 338.97 50.68 Z M 340.86 46.184 C 340.73 46.642 340.59 47.088 340.42 47.531 C 338.37 43.155 335.65 39.051 332.59 35.431 C 332.41 35.224 332.23 35.021 332.05 34.818 C 333.41 33.244 334.91 31.794 336.55 30.518 C 336.8 30.826 337.06 31.138 337.29 31.459 C 340.32 35.533 342.23 41.108 340.86 46.184 Z M 383.1 78.046 C 381.83 79.68 380.38 81.178 378.8 82.539 C 378.6 82.359 378.4 82.181 378.19 82.004 C 374.57 78.939 370.47 76.225 366.09 74.17 C 366.53 74.007 366.98 73.857 367.44 73.733 C 372.51 72.358 378.09 74.273 382.16 77.298 C 382.48 77.536 382.8 77.79 383.1 78.046 Z M 350.86 40.698 C 348.5 45.265 346.54 54.637 353.67 56.191 C 355.11 56.506 356.52 56.417 357.84 56.036 C 357.26 57.559 357.06 59.21 357.43 60.926 C 358.99 68.053 368.36 66.09 372.92 63.731 C 377.5 61.361 381.11 57.667 383.67 53.272 C 384.39 53.872 385.04 54.543 385.61 55.304 C 389.42 60.446 388.81 67.675 386.15 73.178 C 385.51 74.505 384.76 75.761 383.92 76.952 C 383.3 76.311 382.68 75.678 382.02 75.07 C 377.98 71.367 372.16 69.69 366.9 71.734 C 365.86 72.137 364.88 72.64 363.92 73.208 C 361.6 72.252 359.2 71.488 356.77 70.965 C 352.56 70.058 347.73 69.93 343.63 71.498 C 342.84 71.801 342.09 72.217 341.44 72.715 C 342.14 71.949 342.71 71.009 343.09 69.989 C 344.66 65.893 344.53 61.061 343.63 56.85 C 343.1 54.419 342.34 52.026 341.38 49.698 C 341.95 48.746 342.46 47.76 342.86 46.723 C 344.9 41.459 343.22 35.643 339.52 31.604 C 338.91 30.942 338.28 30.318 337.64 29.706 C 338.83 28.862 340.09 28.107 341.41 27.467 C 346.92 24.812 354.15 24.199 359.29 28.013 C 360.05 28.577 360.72 29.234 361.32 29.954 C 356.93 32.515 353.23 36.117 350.86 40.698 Z M 364.43 43.28 C 363.86 46.085 362.53 48.802 360.54 50.866 C 358.72 52.746 355.51 54.923 352.78 53.788 C 349.97 52.678 349.78 48.824 350.24 46.323 C 350.8 43.231 352.35 40.206 354.2 37.685 C 356.28 34.834 358.96 32.562 361.95 30.777 C 364.45 34.31 365.26 39.123 364.43 43.28 Z M 362.76 54.055 C 364.82 52.058 367.54 50.728 370.34 50.165 C 374.5 49.332 379.31 50.144 382.84 52.64 C 381.06 55.629 378.79 58.309 375.94 60.396 C 373.42 62.239 370.39 63.791 367.3 64.353 C 364.8 64.809 360.94 64.622 359.83 61.811 C 358.7 59.08 360.88 55.875 362.76 54.055 Z M 386.05 45.468 C 385.41 47.5 384.58 49.476 383.58 51.353 C 378.97 47.862 372.21 46.435 366.68 48.179 C 366.39 48.271 366.1 48.378 365.81 48.493 C 366.04 47.976 366.25 47.455 366.41 46.937 C 368.16 41.41 366.73 34.652 363.24 30.044 C 365.12 29.041 367.09 28.213 369.12 27.571 C 375.47 25.562 381.98 24.623 388.43 25.09 C 389.09 31.895 388.17 38.772 386.05 45.468 Z M 345.47 83.445 C 345.47 83.417 345.46 83.391 345.45 83.364 C 345.45 83.364 345.45 83.362 345.45 83.361 C 345.45 83.359 345.45 83.357 345.45 83.354 C 345.43 83.321 345.41 83.291 345.38 83.266 C 345.38 83.265 345.38 83.264 345.38 83.262 C 345.36 83.246 345.34 83.227 345.32 83.216 C 343.51 82.238 341.77 80.95 340.78 79.237 C 339.09 76.257 341.36 73.881 344.17 73.016 C 347.33 72.08 350.77 72.435 353.95 73.084 C 356.39 73.584 358.83 74.232 361.23 75.023 C 358.22 77.25 355.39 79.856 352.12 81.594 C 350.82 82.304 349.4 82.833 347.98 83.017 C 347.97 83.018 347.97 83.021 347.96 83.022 C 347.79 83.051 347.66 83.17 347.6 83.339 C 347.6 83.354 347.59 83.369 347.58 83.385 C 347.58 83.395 347.58 83.401 347.57 83.41 C 347.57 83.436 347.58 83.46 347.58 83.486 C 347.58 83.512 347.57 83.536 347.57 83.562 C 347.58 83.57 347.58 83.578 347.58 83.586 C 347.59 83.603 347.6 83.618 347.6 83.635 C 347.66 83.801 347.79 83.921 347.96 83.949 C 347.97 83.95 347.97 83.954 347.98 83.954 C 349.4 84.138 350.82 84.667 352.12 85.377 C 355.39 87.115 358.22 89.722 361.23 91.949 C 358.83 92.739 356.39 93.387 353.95 93.888 C 350.77 94.536 347.33 94.891 344.17 93.957 C 341.36 93.09 339.09 90.714 340.78 87.735 C 341.77 86.021 343.51 84.734 345.32 83.755 C 345.34 83.744 345.36 83.725 345.38 83.708 C 345.38 83.708 345.38 83.708 345.38 83.705 C 345.41 83.68 345.43 83.65 345.45 83.618 C 345.45 83.615 345.45 83.612 345.45 83.61 C 345.45 83.609 345.45 83.608 345.45 83.607 C 345.46 83.581 345.47 83.555 345.47 83.526 C 345.47 83.513 345.48 83.499 345.48 83.486 C 345.48 83.472 345.47 83.459 345.47 83.445 Z M 379.85 493.291 C 381.36 491.869 382.78 490.324 384.03 488.66 C 385.49 489.981 386.85 491.417 388.36 492.675 C 388.61 492.887 388.88 493.085 389.14 493.291 C 388.88 493.495 388.61 493.696 388.36 493.908 C 386.85 495.164 385.49 496.599 384.03 497.921 C 382.78 496.257 381.36 494.713 379.85 493.291 Z M 332.05 541.958 C 332.23 541.755 332.41 541.552 332.59 541.345 C 335.65 537.725 338.37 533.622 340.42 529.246 C 340.59 529.688 340.73 530.136 340.86 530.593 C 342.23 535.668 340.32 541.244 337.29 545.317 C 337.06 545.639 336.8 545.951 336.55 546.259 C 334.91 544.982 333.41 543.533 332.05 541.958 Z M 331.11 543.001 C 332.53 544.513 334.07 545.932 335.74 547.188 C 334.41 548.644 332.98 550.007 331.72 551.515 C 331.51 551.769 331.31 552.035 331.11 552.295 C 330.9 552.035 330.7 551.769 330.49 551.515 C 329.23 550.007 327.8 548.644 326.47 547.188 C 328.14 545.932 329.68 544.513 331.11 543.001 Z M 321.35 530.593 C 321.48 530.136 321.63 529.688 321.79 529.246 C 323.85 533.622 326.56 537.725 329.63 541.345 C 329.8 541.552 329.98 541.755 330.16 541.958 C 328.8 543.533 327.3 544.982 325.67 546.259 C 325.41 545.951 325.16 545.639 324.92 545.317 C 321.89 541.244 319.98 535.668 321.35 530.593 Z M 338.97 526.098 C 337.74 529.494 336.24 532.794 334.46 535.877 C 333.46 537.595 332.35 539.257 331.11 540.818 C 329.87 539.257 328.75 537.595 327.76 535.877 C 325.97 532.794 324.47 529.494 323.24 526.098 C 325.24 522.498 328.04 519.253 329.95 515.663 C 330.38 514.82 330.79 513.949 331.11 513.035 C 331.43 513.949 331.83 514.82 332.27 515.663 C 334.17 519.253 336.97 522.498 338.97 526.098 Z M 333 515.278 C 332.29 513.972 331.76 512.553 331.57 511.134 C 331.57 511.129 331.57 511.124 331.57 511.119 C 331.54 510.949 331.42 510.811 331.25 510.755 C 331.24 510.75 331.22 510.742 331.21 510.737 C 331.2 510.736 331.19 510.731 331.18 510.729 C 331.16 510.724 331.13 510.732 331.11 510.732 C 331.08 510.732 331.06 510.724 331.03 510.729 C 331.02 510.731 331.01 510.736 331.01 510.737 C 330.99 510.742 330.97 510.75 330.96 510.755 C 330.79 510.811 330.67 510.949 330.64 511.119 C 330.64 511.124 330.64 511.129 330.64 511.134 C 330.45 512.553 329.92 513.972 329.21 515.278 C 327.48 518.547 324.87 521.37 322.64 524.387 C 321.85 521.985 321.21 519.544 320.7 517.101 C 320.06 513.925 319.7 510.488 320.64 507.323 C 321.5 504.518 323.88 502.241 326.86 503.938 C 328.57 504.921 329.86 506.66 330.84 508.475 C 330.85 508.497 330.87 508.513 330.88 508.531 C 330.88 508.533 330.88 508.534 330.89 508.536 C 330.91 508.562 330.94 508.584 330.97 508.6 C 330.98 508.602 330.98 508.604 330.98 508.605 C 330.98 508.605 330.98 508.605 330.99 508.605 C 331.01 508.618 331.04 508.623 331.07 508.627 C 331.08 508.628 331.09 508.632 331.11 508.632 C 331.12 508.632 331.13 508.628 331.15 508.627 C 331.17 508.623 331.2 508.618 331.23 508.605 C 331.23 508.605 331.23 508.605 331.23 508.605 C 331.23 508.604 331.23 508.602 331.24 508.6 C 331.27 508.584 331.3 508.562 331.33 508.536 C 331.33 508.534 331.33 508.533 331.33 508.531 C 331.35 508.513 331.36 508.497 331.38 508.475 C 332.35 506.66 333.64 504.921 335.35 503.938 C 338.34 502.241 340.71 504.518 341.58 507.323 C 342.51 510.488 342.16 513.925 341.51 517.101 C 341.01 519.544 340.36 521.985 339.57 524.387 C 337.34 521.37 334.74 518.547 333 515.278 Z M 372.72 489.94 C 374.44 490.933 376.1 492.051 377.66 493.291 C 376.1 494.532 374.44 495.649 372.72 496.642 C 369.64 498.423 366.34 499.927 362.94 501.152 C 359.34 499.158 356.1 496.356 352.51 494.451 C 351.67 494.019 350.79 493.611 349.88 493.291 C 350.79 492.971 351.67 492.562 352.51 492.13 C 356.1 490.226 359.34 487.425 362.94 485.429 C 366.34 486.654 369.64 488.159 372.72 489.94 Z M 383.1 498.731 C 382.8 498.987 382.48 499.241 382.16 499.478 C 378.09 502.504 372.51 504.418 367.44 503.043 C 366.98 502.919 366.53 502.77 366.09 502.607 C 370.47 500.552 374.57 497.837 378.19 494.772 C 378.4 494.596 378.6 494.418 378.8 494.238 C 380.38 495.598 381.83 497.097 383.1 498.731 Z M 378.19 491.81 C 374.57 488.745 370.47 486.031 366.09 483.974 C 366.53 483.812 366.98 483.663 367.44 483.537 C 372.51 482.164 378.09 484.077 382.16 487.103 C 382.48 487.342 382.8 487.593 383.1 487.851 C 381.83 489.485 380.38 490.984 378.8 492.345 C 378.6 492.164 378.4 491.985 378.19 491.81 Z M 345.47 493.251 C 345.47 493.222 345.46 493.196 345.45 493.17 C 345.45 493.169 345.45 493.168 345.45 493.167 C 345.45 493.164 345.45 493.162 345.45 493.159 C 345.43 493.127 345.41 493.097 345.38 493.072 C 345.38 493.068 345.38 493.068 345.38 493.068 C 345.36 493.052 345.34 493.033 345.32 493.022 C 343.51 492.043 341.77 490.756 340.78 489.042 C 339.09 486.063 341.36 483.686 344.17 482.819 C 347.33 481.886 350.77 482.242 353.95 482.889 C 356.39 483.39 358.83 484.037 361.23 484.828 C 358.22 487.055 355.39 489.662 352.12 491.399 C 350.82 492.109 349.4 492.639 347.98 492.824 C 347.97 492.824 347.97 492.827 347.96 492.828 C 347.79 492.855 347.66 492.976 347.6 493.142 C 347.6 493.159 347.59 493.173 347.58 493.191 C 347.58 493.199 347.58 493.206 347.57 493.214 C 347.57 493.241 347.58 493.265 347.58 493.291 C 347.58 493.316 347.57 493.341 347.57 493.367 C 347.58 493.376 347.58 493.382 347.58 493.391 C 347.59 493.408 347.6 493.422 347.6 493.438 C 347.66 493.606 347.79 493.726 347.96 493.755 C 347.97 493.756 347.97 493.758 347.98 493.759 C 349.4 493.944 350.82 494.473 352.12 495.183 C 355.39 496.921 358.22 499.526 361.23 501.753 C 358.83 502.545 356.39 503.193 353.95 503.692 C 350.77 504.341 347.33 504.697 344.17 503.761 C 341.36 502.896 339.09 500.519 340.78 497.539 C 341.77 495.827 343.51 494.539 345.32 493.561 C 345.34 493.55 345.36 493.531 345.38 493.515 C 345.38 493.514 345.38 493.512 345.38 493.511 C 345.41 493.486 345.43 493.456 345.45 493.422 C 345.45 493.419 345.45 493.418 345.45 493.416 C 345.45 493.414 345.45 493.412 345.45 493.412 C 345.46 493.386 345.47 493.359 345.47 493.331 C 345.47 493.317 345.48 493.305 345.48 493.291 C 345.48 493.277 345.47 493.264 345.47 493.251 Z M 372.92 513.046 C 368.36 510.686 358.99 508.724 357.43 515.851 C 357.06 517.567 357.26 519.217 357.84 520.741 C 356.52 520.36 355.11 520.27 353.67 520.586 C 346.54 522.14 348.5 531.512 350.86 536.078 C 353.23 540.66 356.93 544.262 361.32 546.823 C 360.72 547.542 360.05 548.199 359.29 548.764 C 354.15 552.577 346.92 551.964 341.41 549.309 C 340.09 548.669 338.83 547.914 337.64 547.071 C 338.28 546.458 338.91 545.834 339.52 545.172 C 343.22 541.133 344.9 535.317 342.86 530.054 C 342.46 529.016 341.95 528.031 341.38 527.079 C 342.34 524.75 343.1 522.357 343.63 519.927 C 344.53 515.715 344.66 510.884 343.09 506.787 C 342.71 505.768 342.14 504.828 341.44 504.062 C 342.09 504.559 342.84 504.975 343.63 505.279 C 347.73 506.847 352.56 506.719 356.77 505.812 C 359.2 505.289 361.6 504.525 363.92 503.568 C 364.88 504.137 365.86 504.64 366.9 505.043 C 372.16 507.086 377.98 505.41 382.02 501.706 C 382.68 501.099 383.3 500.465 383.92 499.825 C 384.76 501.015 385.51 502.271 386.15 503.599 C 388.81 509.102 389.42 516.33 385.61 521.473 C 385.04 522.234 384.39 522.905 383.67 523.505 C 381.11 519.11 377.5 515.416 372.92 513.046 Z M 360.54 525.911 C 362.53 527.975 363.86 530.692 364.43 533.497 C 365.26 537.654 364.45 542.467 361.95 545.999 C 358.96 544.214 356.28 541.942 354.2 539.091 C 352.35 536.57 350.8 533.545 350.24 530.454 C 349.78 527.952 349.97 524.099 352.78 522.989 C 355.51 521.853 358.72 524.031 360.54 525.911 Z M 359.83 514.965 C 360.94 512.155 364.8 511.968 367.3 512.424 C 370.39 512.985 373.42 514.538 375.94 516.38 C 378.79 518.468 381.06 521.147 382.84 524.138 C 379.31 526.632 374.5 527.445 370.34 526.611 C 367.54 526.049 364.82 524.719 362.76 522.722 C 360.88 520.902 358.7 517.697 359.83 514.965 Z M 388.43 551.686 C 381.98 552.154 375.47 551.214 369.12 549.206 C 367.09 548.563 365.12 547.735 363.24 546.733 C 366.73 542.124 368.16 535.367 366.41 529.84 C 366.25 529.321 366.04 528.801 365.81 528.284 C 366.1 528.399 366.39 528.506 366.68 528.598 C 372.21 530.342 378.97 528.914 383.58 525.423 C 384.58 527.3 385.41 529.277 386.05 531.309 C 388.17 538.004 389.09 544.881 388.43 551.686 Z M 398.93 487.498 C 397.64 487.917 396.4 488.482 395.28 489.138 C 393.39 490.251 391.54 491.452 389.79 492.781 C 387.97 491.197 386.39 489.411 384.76 487.653 C 386.62 484.99 388.04 482.053 388.79 478.879 C 390.22 472.806 389.17 466.033 384.37 461.814 C 384.63 461.319 384.89 460.824 385.12 460.312 C 387.88 454.254 388.97 447.536 389.19 440.917 L 389.18 440.917 L 389.18 135.859 L 389.19 135.859 C 388.97 129.241 387.88 122.522 385.12 116.464 C 384.89 115.953 384.63 115.458 384.37 114.963 C 389.17 110.744 390.22 103.97 388.79 97.897 C 388.04 94.724 386.62 91.787 384.76 89.123 C 386.39 87.365 387.97 85.58 389.79 83.996 C 391.54 85.324 393.39 86.526 395.28 87.639 C 396.4 88.294 397.64 88.859 398.93 89.279 L 398.93 487.498 Z M 400.03 487.18 L 400.03 89.597 C 403.87 90.559 407.98 90.088 410.59 86.568 C 411.16 85.745 411.62 84.755 411.62 83.486 C 411.62 82.216 411.16 81.226 410.59 80.405 C 407.98 76.885 403.87 76.413 400.03 77.375 L 400.03 33.286 C 400.03 24.477 394.19 17.007 386.18 14.536 C 386.1 14.495 386.01 14.457 385.92 14.415 C 385.93 14.435 385.94 14.455 385.95 14.475 C 384.19 13.956 382.33 13.665 380.41 13.665 L 337.2 13.665 C 338.18 9.807 337.73 5.656 334.19 3.032 C 333.37 2.46 332.38 2 331.11 2 C 329.84 2 328.85 2.46 328.02 3.032 C 324.48 5.656 324.03 9.807 325.02 13.665 L 88.6 13.665 C 89.59 9.807 89.14 5.656 85.59 3.032 C 84.77 2.46 83.78 2 82.51 2 C 81.24 2 80.25 2.46 79.43 3.032 C 75.89 5.656 75.43 9.807 76.42 13.665 L 33.21 13.665 C 22.39 13.665 13.59 22.467 13.59 33.286 L 13.59 77.375 C 9.75 76.413 5.64 76.885 3.03 80.405 C 2.46 81.226 2 82.216 2 83.486 C 2 84.755 2.46 85.745 3.03 86.568 C 5.64 90.088 9.75 90.559 13.59 89.597 L 13.59 487.18 C 9.75 486.217 5.64 486.688 3.03 490.209 C 2.46 491.032 2 492.021 2 493.291 C 2 494.561 2.46 495.551 3.03 496.371 C 5.64 499.892 9.75 500.363 13.59 499.401 L 13.59 543.491 C 13.59 554.309 22.39 563.111 33.21 563.111 L 76.42 563.111 C 75.43 566.97 75.89 571.12 79.43 573.744 C 80.25 574.316 81.24 574.777 82.51 574.777 C 83.78 574.777 84.77 574.316 85.59 573.744 C 89.14 571.12 89.59 566.97 88.6 563.111 L 325.02 563.111 C 324.03 566.97 324.48 571.12 328.02 573.744 C 328.85 574.316 329.84 574.777 331.11 574.777 C 332.38 574.777 333.37 574.316 334.19 573.744 C 337.73 571.12 338.18 566.97 337.2 563.111 L 380.41 563.111 C 391.23 563.111 400.03 554.309 400.03 543.491 L 400.03 499.401 C 403.87 500.363 407.98 499.892 410.59 496.371 C 411.16 495.551 411.62 494.561 411.62 493.291 C 411.62 492.021 411.16 491.032 410.59 490.209 C 407.98 486.688 403.87 486.217 400.03 487.18 Z" fill="#414042" stroke="none"/>
</svg>
