<?xml version="1.0" encoding="UTF-8"?>
<svg xmlns="http://www.w3.org/2000/svg" width="300" height="300" viewBox="0 0 300 300">
  <!-- ArtKey Template v2 ? The Artful Experience
       Vector skeleton key. QR zone: (200,77) 100x100. -->

  <!-- KEY BOW (decorative handle) -->
  <circle cx="88" cy="148" r="72" fill="none" stroke="#1a1a1a" stroke-width="5"/>
  <circle cx="88" cy="148" r="60" fill="none" stroke="#1a1a1a" stroke-width="1.5"/>
  <circle cx="88" cy="148" r="20" fill="#1a1a1a"/>
  <circle cx="88" cy="148" r="9" fill="#ffffff"/>

  <!-- Dots at compass points -->
  <circle cx="88" cy="82" r="3.5" fill="#1a1a1a"/>
  <circle cx="88" cy="214" r="3.5" fill="#1a1a1a"/>
  <circle cx="22" cy="148" r="3.5" fill="#1a1a1a"/>
  <circle cx="154" cy="148" r="3.5" fill="#1a1a1a"/>

  <!-- Decorative arcs -->
  <path d="M55 110 A46 46 0 0 1 121 110" fill="none" stroke="#1a1a1a" stroke-width="1" opacity="0.4"/>
  <path d="M55 186 A46 46 0 0 0 121 186" fill="none" stroke="#1a1a1a" stroke-width="1" opacity="0.4"/>

  <!-- BRANDING TEXT -->
  <text x="88" y="138" font-family="Georgia,serif" font-size="14" fill="#1a1a1a" text-anchor="middle">the</text>
  <text x="88" y="166" font-family="Georgia,serif" font-size="28" font-weight="bold" fill="#1a1a1a" text-anchor="middle" letter-spacing="2">AE</text>

  <!-- COLLAR -->
  <rect x="155" y="133" width="18" height="30" rx="2" fill="#1a1a1a"/>

  <!-- KEY SHAFT -->
  <rect x="173" y="136" width="85" height="24" rx="1" fill="#1a1a1a"/>

  <!-- SHOULDER -->
  <rect x="192" y="122" width="14" height="14" rx="1" fill="#1a1a1a"/>
  <rect x="212" y="126" width="10" height="10" rx="1" fill="#1a1a1a"/>

  <!-- KEY TEETH -->
  <rect x="198" y="160" width="11" height="14" rx="1" fill="#1a1a1a"/>
  <rect x="215" y="160" width="11" height="24" rx="1" fill="#1a1a1a"/>
  <rect x="232" y="160" width="11" height="18" rx="1" fill="#1a1a1a"/>
  <rect x="249" y="160" width="11" height="10" rx="1" fill="#1a1a1a"/>
</svg>
