<?xml version="1.0" encoding="UTF-8"?>
<svg xmlns="http://www.w3.org/2000/svg" width="615.834" height="305.230" viewBox="0 0 615.834 305.230">
  <path d="M 102.168 235.2 L 103.661 236.33 C 150.664 271.96 227.022 293.23 307.917 293.23 C 388.812 293.23 465.17 271.96 512.174 236.33 L 513.666 235.2 L 515.528 235.34 C 517.552 235.49 519.593 235.57 521.593 235.57 C 566.984 235.57 603.911 198.36 603.911 152.61 C 603.911 106.87 566.984 69.65 521.593 69.65 C 519.593 69.65 517.552 69.73 515.528 69.89 L 513.666 70.03 L 512.174 68.9 C 465.169 33.27 388.812 12 307.917 12 C 227.022 12 150.664 33.27 103.661 68.9 L 102.168 70.03 L 100.307 69.89 C 98.282 69.73 96.241 69.65 94.241 69.65 C 48.85 69.65 11.922 106.87 11.922 152.61 C 11.922 198.36 48.85 235.57 94.241 235.57 C 96.241 235.57 98.282 235.49 100.307 235.34 L 102.168 235.2 Z M 307.917 303.23 C 266.97 303.23 226.185 297.87 189.971 287.74 C 154.416 277.79 123.072 263.18 99.179 245.43 C 97.526 245.53 95.872 245.57 94.241 245.57 C 43.379 245.57 2 203.87 2 152.61 C 2 101.36 43.379 59.65 94.241 59.65 C 95.872 59.65 97.526 59.7 99.179 59.79 C 123.072 42.05 154.417 27.44 189.971 17.49 C 226.185 7.36 266.97 2 307.917 2 C 348.864 2 389.648 7.36 425.863 17.49 C 461.417 27.44 492.762 42.05 516.656 59.79 C 518.308 59.7 519.962 59.65 521.593 59.65 C 572.455 59.65 613.834 101.36 613.834 152.61 C 613.834 203.87 572.455 245.57 521.593 245.57 C 519.962 245.57 518.308 245.53 516.656 245.43 C 492.763 263.18 461.418 277.79 425.863 287.74 C 389.649 297.87 348.864 303.23 307.917 303.23 Z" fill="#000000" stroke="none"/><path d="M 106.732 218.37 L 107.089 218.67 C 150.806 255.34 225.882 277.23 307.917 277.23 C 389.952 277.23 465.028 255.34 508.746 218.67 L 509.102 218.37 L 509.559 218.45 C 513.578 219.2 517.627 219.57 521.593 219.57 C 558.229 219.57 588.035 189.53 588.035 152.61 C 588.035 115.69 558.229 85.65 521.593 85.65 C 517.627 85.65 513.578 86.03 509.559 86.77 L 509.102 86.85 L 508.746 86.56 C 465.028 49.89 389.952 28 307.917 28 C 225.882 28 150.806 49.89 107.089 86.56 L 106.732 86.85 L 106.276 86.77 C 102.256 86.03 98.207 85.65 94.241 85.65 C 57.605 85.65 27.799 115.69 27.799 152.61 C 27.799 189.53 57.605 219.57 94.241 219.57 C 98.207 219.57 102.256 219.2 106.276 218.45 L 106.732 218.37 Z M 307.917 279.23 C 225.654 279.23 150.288 257.28 106.175 220.5 C 102.188 221.21 98.176 221.57 94.241 221.57 C 56.51 221.57 25.814 190.64 25.814 152.61 C 25.814 114.59 56.51 83.65 94.241 83.65 C 98.176 83.65 102.188 84.01 106.175 84.72 C 150.288 47.94 225.654 26 307.917 26 C 390.179 26 465.546 47.94 509.659 84.72 C 513.646 84.01 517.658 83.65 521.593 83.65 C 559.323 83.65 590.019 114.59 590.019 152.61 C 590.019 190.64 559.323 221.57 521.593 221.57 C 517.658 221.57 513.646 221.21 509.659 220.5 C 465.546 257.28 390.179 279.23 307.917 279.23 Z" fill="#000000" stroke="none"/><path d="M 307.752 27 C 307.647 27 307.546 27 307.441 27 C 307.546 27 307.647 27 307.752 27 Z M 308.082 27 C 308.187 27 308.288 27 308.393 27 C 308.288 27 308.187 27 308.082 27 Z M 94.241 84.65 C 94.257 84.65 94.272 84.65 94.287 84.65 C 94.272 84.65 94.257 84.65 94.241 84.65 Z M 521.593 84.65 C 521.578 84.65 521.563 84.65 521.547 84.65 C 521.563 84.65 521.578 84.65 521.593 84.65 Z M 94.305 84.65 C 94.314 84.65 94.324 84.65 94.334 84.65 C 94.324 84.65 94.314 84.65 94.305 84.65 Z M 521.53 84.65 C 521.52 84.65 521.51 84.65 521.501 84.65 C 521.51 84.65 521.52 84.65 521.53 84.65 Z M 94.353 84.65 C 94.362 84.65 94.371 84.65 94.38 84.65 C 94.371 84.65 94.362 84.65 94.353 84.65 Z M 521.482 84.65 C 521.473 84.65 521.463 84.65 521.454 84.65 C 521.464 84.65 521.473 84.65 521.482 84.65 Z M 94.399 84.65 C 94.408 84.65 94.417 84.65 94.427 84.65 C 94.417 84.65 94.408 84.65 94.399 84.65 Z M 521.435 84.65 C 521.426 84.65 521.417 84.65 521.408 84.65 C 521.417 84.65 521.426 84.65 521.435 84.65 Z M 94.446 84.65 C 94.455 84.65 94.464 84.65 94.473 84.65 C 94.464 84.65 94.455 84.65 94.446 84.65 Z M 521.388 84.65 C 521.379 84.65 521.37 84.65 521.361 84.65 C 521.37 84.65 521.379 84.65 521.388 84.65 Z M 94.492 84.65 C 94.501 84.66 94.511 84.66 94.52 84.66 C 94.511 84.66 94.501 84.66 94.492 84.65 Z M 521.343 84.65 C 521.334 84.66 521.324 84.66 521.315 84.66 C 521.324 84.66 521.333 84.66 521.343 84.65 Z M 94.539 84.66 C 94.548 84.66 94.557 84.66 94.566 84.66 C 94.557 84.66 94.548 84.66 94.539 84.66 Z M 521.296 84.66 C 521.287 84.66 521.277 84.66 521.268 84.66 C 521.277 84.66 521.287 84.66 521.296 84.66 Z M 94.584 84.66 C 94.593 84.66 94.603 84.66 94.613 84.66 C 94.603 84.66 94.594 84.66 94.584 84.66 Z M 521.251 84.66 C 521.241 84.66 521.231 84.66 521.221 84.66 C 521.231 84.66 521.241 84.66 521.251 84.66 Z M 94.631 84.66 C 94.641 84.66 94.65 84.66 94.659 84.66 C 94.65 84.66 94.64 84.66 94.631 84.66 Z M 521.203 84.66 C 521.194 84.66 521.185 84.66 521.175 84.66 C 521.184 84.66 521.194 84.66 521.203 84.66 Z M 94.678 84.66 C 94.687 84.66 94.697 84.66 94.706 84.66 C 94.697 84.66 94.687 84.66 94.678 84.66 Z M 521.157 84.66 C 521.147 84.66 521.138 84.66 521.128 84.66 C 521.137 84.66 521.147 84.66 521.157 84.66 Z M 94.723 84.66 C 94.733 84.66 94.743 84.66 94.753 84.66 C 94.744 84.66 94.733 84.66 94.723 84.66 Z M 521.111 84.66 C 521.101 84.66 521.091 84.66 521.081 84.66 C 521.091 84.66 521.101 84.66 521.111 84.66 Z M 94.769 84.66 C 94.779 84.66 94.79 84.66 94.8 84.66 C 94.79 84.66 94.78 84.66 94.769 84.66 Z M 521.065 84.66 C 521.054 84.66 521.045 84.66 521.034 84.66 C 521.045 84.66 521.055 84.66 521.065 84.66 Z M 94.816 84.66 C 94.827 84.66 94.837 84.66 94.847 84.66 C 94.837 84.66 94.826 84.66 94.816 84.66 Z M 521.018 84.66 C 521.008 84.66 520.997 84.66 520.987 84.66 C 520.997 84.66 521.007 84.66 521.018 84.66 Z M 94.862 84.66 C 94.873 84.66 94.884 84.66 94.894 84.66 C 94.884 84.66 94.872 84.66 94.862 84.66 Z M 520.973 84.66 C 520.962 84.66 520.951 84.66 520.94 84.66 C 520.951 84.66 520.961 84.66 520.973 84.66 Z M 94.909 84.66 C 94.92 84.66 94.931 84.66 94.942 84.66 C 94.931 84.66 94.92 84.66 94.909 84.66 Z M 520.926 84.66 C 520.914 84.66 520.903 84.66 520.892 84.66 C 520.903 84.66 520.914 84.66 520.926 84.66 Z M 94.954 84.66 C 94.965 84.66 94.978 84.66 94.989 84.66 C 94.978 84.66 94.965 84.66 94.954 84.66 Z M 520.881 84.66 C 520.868 84.66 520.857 84.66 520.845 84.66 C 520.857 84.66 520.869 84.66 520.881 84.66 Z M 95.001 84.66 C 95.013 84.66 95.025 84.66 95.037 84.66 C 95.025 84.66 95.013 84.66 95.001 84.66 Z M 520.833 84.66 C 520.821 84.66 520.809 84.66 520.797 84.66 C 520.809 84.66 520.821 84.66 520.833 84.66 Z M 95.047 84.66 C 95.06 84.66 95.074 84.66 95.087 84.66 C 95.074 84.66 95.06 84.66 95.047 84.66 Z M 520.787 84.66 C 520.774 84.66 520.761 84.66 520.748 84.66 C 520.761 84.66 520.774 84.66 520.787 84.66 Z M 95.093 84.66 C 95.107 84.66 95.122 84.66 95.137 84.66 C 95.122 84.66 95.107 84.66 95.093 84.66 Z M 520.741 84.66 C 520.727 84.66 520.712 84.66 520.697 84.66 C 520.712 84.66 520.727 84.66 520.741 84.66 Z M 95.139 84.66 C 95.154 84.66 95.169 84.66 95.185 84.66 C 95.169 84.66 95.154 84.66 95.139 84.66 Z M 520.695 84.66 C 520.68 84.66 520.664 84.66 520.649 84.66 C 520.664 84.66 520.68 84.66 520.695 84.66 Z M 520.649 84.66 C 517.51 84.71 514.325 84.98 511.151 85.48 C 514.328 84.98 517.512 84.71 520.649 84.66 Z M 511.15 85.48 C 511.138 85.49 511.126 85.49 511.114 85.49 C 511.126 85.49 511.138 85.49 511.15 85.48 Z M 95.185 84.66 C 98.353 84.71 101.568 84.99 104.775 85.5 C 101.571 84.99 98.354 84.71 95.185 84.66 Z M 104.788 85.5 C 104.796 85.5 104.804 85.5 104.811 85.5 C 104.804 85.5 104.796 85.5 104.788 85.5 Z M 509.191 85.63 C 509.252 85.68 509.319 85.74 509.381 85.79 L 509.381 85.79 C 509.47 85.77 509.56 85.75 509.65 85.74 L 509.38 85.79 L 509.191 85.63 Z M 106.184 85.74 C 106.274 85.75 106.364 85.77 106.454 85.79 L 106.454 85.79 C 106.532 85.72 106.608 85.66 106.686 85.59 L 106.454 85.79 L 106.184 85.74 Z M 106.454 219.44 L 106.643 219.6 C 106.581 219.55 106.516 219.49 106.454 219.44 L 106.454 219.44 C 106.363 219.45 106.272 219.47 106.181 219.49 L 106.454 219.44 Z M 509.381 219.44 L 509.38 219.44 C 509.316 219.49 509.251 219.55 509.186 219.6 L 509.38 219.44 L 509.638 219.49 C 509.553 219.47 509.466 219.45 509.381 219.44 L 509.381 219.44 Z M 104.854 219.71 C 104.852 219.71 104.848 219.71 104.845 219.72 C 104.848 219.71 104.851 219.71 104.854 219.71 Z M 511.257 219.76 C 511.267 219.76 511.276 219.76 511.287 219.76 C 511.276 219.76 511.267 219.76 511.257 219.76 Z M 104.819 219.72 C 101.581 220.24 98.335 220.52 95.138 220.57 C 98.337 220.52 101.583 220.24 104.819 219.72 Z M 511.296 219.76 C 514.438 220.25 517.59 220.52 520.696 220.57 C 517.591 220.52 514.44 220.25 511.296 219.76 Z M 95.138 220.57 C 95.123 220.57 95.108 220.57 95.093 220.57 C 95.108 220.57 95.123 220.57 95.138 220.57 Z M 520.696 220.57 C 520.711 220.57 520.726 220.57 520.741 220.57 C 520.726 220.57 520.711 220.57 520.696 220.57 Z M 95.087 220.57 C 95.074 220.57 95.06 220.57 95.047 220.57 C 95.06 220.57 95.074 220.57 95.087 220.57 Z M 520.747 220.57 C 520.761 220.57 520.774 220.57 520.787 220.57 C 520.774 220.57 520.761 220.57 520.747 220.57 Z M 95.038 220.57 C 95.026 220.57 95.013 220.57 95.001 220.57 C 95.013 220.57 95.026 220.57 95.038 220.57 Z M 520.796 220.57 C 520.809 220.57 520.821 220.57 520.834 220.57 C 520.821 220.57 520.809 220.57 520.796 220.57 Z M 94.99 220.57 C 94.978 220.57 94.966 220.57 94.954 220.57 C 94.966 220.57 94.978 220.57 94.99 220.57 Z M 520.845 220.57 C 520.856 220.57 520.868 220.57 520.88 220.57 C 520.868 220.57 520.856 220.57 520.845 220.57 Z M 94.942 220.57 C 94.931 220.57 94.92 220.57 94.909 220.57 C 94.92 220.57 94.931 220.57 94.942 220.57 Z M 520.892 220.57 C 520.903 220.57 520.914 220.57 520.926 220.57 C 520.914 220.57 520.903 220.57 520.892 220.57 Z M 94.894 220.57 C 94.884 220.57 94.873 220.57 94.862 220.57 C 94.873 220.57 94.884 220.57 94.894 220.57 Z M 520.94 220.57 C 520.951 220.57 520.961 220.57 520.972 220.57 C 520.961 220.57 520.951 220.57 520.94 220.57 Z M 94.847 220.57 C 94.837 220.57 94.827 220.57 94.817 220.57 C 94.827 220.57 94.837 220.57 94.847 220.57 Z M 520.988 220.57 C 520.997 220.57 521.007 220.57 521.017 220.57 C 521.007 220.57 520.997 220.57 520.988 220.57 Z M 94.799 220.57 C 94.79 220.57 94.78 220.57 94.77 220.57 C 94.78 220.57 94.79 220.57 94.799 220.57 Z M 521.035 220.57 C 521.045 220.57 521.054 220.57 521.064 220.57 C 521.054 220.57 521.045 220.57 521.035 220.57 Z M 94.753 220.57 C 94.743 220.57 94.734 220.57 94.724 220.57 C 94.734 220.57 94.743 220.57 94.753 220.57 Z M 521.082 220.57 C 521.091 220.57 521.1 220.57 521.11 220.57 C 521.1 220.57 521.091 220.57 521.082 220.57 Z M 94.706 220.57 C 94.697 220.57 94.687 220.57 94.678 220.57 C 94.687 220.57 94.697 220.57 94.706 220.57 Z M 521.129 220.57 C 521.138 220.57 521.147 220.57 521.157 220.57 C 521.147 220.57 521.138 220.57 521.129 220.57 Z M 94.659 220.57 C 94.65 220.57 94.641 220.57 94.632 220.57 C 94.641 220.57 94.65 220.57 94.659 220.57 Z M 521.175 220.57 C 521.184 220.57 521.194 220.57 521.203 220.57 C 521.194 220.57 521.184 220.57 521.175 220.57 Z M 94.613 220.57 C 94.604 220.57 94.594 220.57 94.585 220.57 C 94.594 220.57 94.604 220.57 94.613 220.57 Z M 521.222 220.57 C 521.231 220.57 521.24 220.57 521.249 220.57 C 521.24 220.57 521.231 220.57 521.222 220.57 Z M 94.566 220.57 C 94.557 220.57 94.549 220.57 94.54 220.57 C 94.548 220.57 94.557 220.57 94.566 220.57 Z M 521.269 220.57 C 521.277 220.57 521.286 220.57 521.294 220.57 C 521.286 220.57 521.277 220.57 521.269 220.57 Z M 94.519 220.57 C 94.511 220.57 94.502 220.57 94.494 220.57 C 94.502 220.57 94.511 220.57 94.519 220.57 Z M 521.315 220.57 C 521.323 220.57 521.332 220.57 521.341 220.57 C 521.333 220.57 521.323 220.57 521.315 220.57 Z M 94.473 220.57 C 94.464 220.57 94.455 220.57 94.447 220.57 C 94.456 220.57 94.464 220.57 94.473 220.57 Z M 521.362 220.57 C 521.37 220.57 521.379 220.57 521.387 220.57 C 521.379 220.57 521.37 220.57 521.362 220.57 Z M 94.427 220.57 C 94.417 220.57 94.408 220.57 94.399 220.57 C 94.408 220.57 94.417 220.57 94.427 220.57 Z M 521.408 220.57 C 521.417 220.57 521.426 220.57 521.435 220.57 C 521.426 220.57 521.417 220.57 521.408 220.57 Z M 94.38 220.57 C 94.371 220.57 94.362 220.57 94.353 220.57 C 94.362 220.57 94.371 220.57 94.38 220.57 Z M 521.454 220.57 C 521.463 220.57 521.473 220.57 521.482 220.57 C 521.473 220.57 521.464 220.57 521.454 220.57 Z M 94.334 220.57 C 94.324 220.57 94.314 220.57 94.305 220.57 C 94.314 220.57 94.324 220.57 94.334 220.57 Z M 521.501 220.57 C 521.51 220.57 521.52 220.57 521.53 220.57 C 521.52 220.57 521.51 220.57 521.501 220.57 Z M 26.807 152.61 C 26.807 190.08 57.057 220.57 94.241 220.57 C 94.257 220.57 94.272 220.57 94.287 220.57 C 94.272 220.57 94.257 220.57 94.241 220.57 C 57.057 220.57 26.807 190.08 26.807 152.61 Z M 521.547 220.57 C 521.563 220.57 521.578 220.57 521.593 220.57 C 558.776 220.57 589.027 190.08 589.027 152.61 C 589.027 190.08 558.776 220.57 521.593 220.57 C 521.578 220.57 521.563 220.57 521.547 220.57 Z M 107.01 217.3 L 107.723 217.9 C 151.268 254.42 226.107 276.23 307.917 276.23 C 389.726 276.23 464.566 254.42 508.111 217.9 L 508.824 217.3 L 509.737 217.47 C 513.7 218.2 517.689 218.57 521.593 218.57 C 557.682 218.57 587.043 188.98 587.043 152.61 C 587.043 116.24 557.682 86.65 521.593 86.65 C 517.689 86.65 513.7 87.02 509.737 87.75 L 508.824 87.92 L 508.112 87.32 C 464.566 50.8 389.726 29 307.917 29 C 226.107 29 151.268 50.8 107.723 87.32 L 107.01 87.92 L 106.097 87.75 C 102.133 87.02 98.144 86.65 94.241 86.65 C 58.152 86.65 28.791 116.24 28.791 152.61 C 28.791 188.98 58.152 218.57 94.241 218.57 C 98.144 218.57 102.133 218.2 106.097 217.47 L 107.01 217.3 Z M 308.393 278.23 C 308.288 278.23 308.187 278.23 308.082 278.23 C 308.187 278.23 308.288 278.23 308.393 278.23 Z M 307.441 278.23 C 307.546 278.23 307.647 278.23 307.752 278.23 C 307.647 278.23 307.546 278.23 307.441 278.23 Z M 307.917 280.23 C 225.689 280.23 150.219 258.31 105.895 221.57 C 102.003 222.23 98.084 222.57 94.241 222.57 C 55.963 222.57 24.822 191.19 24.822 152.61 C 24.822 114.04 55.963 82.65 94.241 82.65 C 98.084 82.65 102.003 82.99 105.895 83.66 C 150.219 46.92 225.689 25 307.917 25 C 390.145 25 465.615 46.92 509.939 83.66 C 513.832 82.99 517.75 82.65 521.593 82.65 C 559.87 82.65 591.012 114.04 591.012 152.61 C 591.012 191.19 559.87 222.57 521.593 222.57 C 517.75 222.57 513.832 222.23 509.939 221.57 C 465.615 258.31 390.145 280.23 307.917 280.23 Z" fill="#000000" stroke="none"/>
</svg>
