<?xml version="1.0" encoding="UTF-8"?>
<svg xmlns="http://www.w3.org/2000/svg" width="597.372" height="313.010" viewBox="0 0 597.372 313.010">
  <path d="M 83.202 273.58 L 174.552 273.58 C 196.952 273.58 219.252 278.55 240.832 288.34 C 259.372 296.75 279.152 301.01 299.632 301.01 C 320.102 301.01 339.882 296.75 358.422 288.34 C 380.012 278.55 402.312 273.58 424.702 273.58 L 516.062 273.58 L 561.982 227.3 L 561.982 192.23 L 564.652 190.82 C 577.282 184.17 585.452 170.7 585.452 156.51 C 585.452 142.31 577.282 128.84 564.652 122.19 L 561.982 120.79 L 561.982 85.71 L 516.062 39.43 L 424.702 39.43 C 402.312 39.43 380.012 34.47 358.422 24.68 C 339.882 16.27 320.102 12 299.632 12 C 279.152 12 259.372 16.27 240.832 24.68 C 219.252 34.47 196.952 39.43 174.552 39.43 L 83.202 39.43 L 37.272 85.71 L 37.272 120.1 L 34.372 121.43 C 21.062 127.55 12.472 140.45 11.952 155.1 C 11.572 165.7 15.382 175.72 22.682 183.34 C 26.072 186.89 30.012 189.7 34.372 191.71 L 37.272 193.04 L 37.272 227.3 L 83.202 273.58 Z M 299.632 311.01 C 277.742 311.01 256.592 306.45 236.762 297.46 C 216.462 288.25 195.532 283.58 174.552 283.58 L 79.082 283.58 L 27.352 231.44 L 27.352 199.35 C 23.002 196.98 19.032 193.94 15.532 190.28 C 6.352 180.7 1.562 168.07 2.032 154.75 C 2.652 137.38 12.262 121.96 27.352 113.79 L 27.352 81.57 L 79.082 29.43 L 174.552 29.43 C 195.532 29.43 216.462 24.76 236.762 15.56 C 256.592 6.56 277.742 2 299.632 2 C 321.522 2 342.672 6.56 362.502 15.56 C 382.792 24.76 403.722 29.43 424.702 29.43 L 520.172 29.43 L 571.902 81.57 L 571.902 114.83 C 586.452 123.68 595.372 139.38 595.372 156.51 C 595.372 173.64 586.452 189.34 571.902 198.18 L 571.902 231.44 L 520.172 283.58 L 424.702 283.58 C 403.722 283.58 382.792 288.25 362.502 297.46 C 342.672 306.45 321.522 311.01 299.632 311.01 Z" fill="#000000" stroke="none"/><path d="M 89.772 257.58 L 174.552 257.58 C 199.212 257.58 223.702 263.02 247.352 273.75 C 263.832 281.22 281.412 285.01 299.632 285.01 C 317.842 285.01 335.432 281.22 351.912 273.75 C 375.552 263.02 400.042 257.58 424.702 257.58 L 509.482 257.58 L 546.102 220.67 L 546.102 182.28 C 546.102 180.59 547.372 179.21 549.042 179.07 C 560.552 178.08 569.572 168.17 569.572 156.51 C 569.572 144.84 560.552 134.93 549.042 133.94 C 547.372 133.8 546.102 132.42 546.102 130.73 L 546.102 92.34 L 509.482 55.43 L 424.702 55.43 C 400.042 55.43 375.552 49.99 351.912 39.27 C 335.432 31.79 317.842 28 299.632 28 C 281.412 28 263.832 31.79 247.352 39.27 C 223.702 49.99 199.212 55.43 174.552 55.43 L 89.772 55.43 L 53.152 92.34 L 53.152 131.55 C 53.152 132.82 52.122 133.86 50.852 133.86 C 50.852 133.86 50.842 133.86 50.842 133.86 C 38.572 133.86 28.242 143.64 27.822 155.67 C 27.602 161.89 29.832 167.77 34.102 172.23 C 38.382 176.7 44.122 179.15 50.282 179.15 C 51.872 179.15 53.152 180.44 53.152 182.03 L 53.152 220.67 L 89.772 257.58 Z M 299.632 287.01 C 281.132 287.01 263.272 283.16 246.542 275.57 C 223.152 264.96 198.932 259.58 174.552 259.58 L 88.952 259.58 L 51.162 221.5 L 51.162 182.03 C 51.162 181.55 50.772 181.15 50.292 181.15 C 43.582 181.15 37.332 178.48 32.672 173.62 C 28.022 168.76 25.592 162.36 25.832 155.6 C 26.302 142.51 37.512 131.86 50.842 131.86 C 51.002 131.85 51.162 131.72 51.162 131.55 L 51.162 91.51 L 88.952 53.43 L 174.552 53.43 C 198.932 53.43 223.152 48.05 246.542 37.44 C 263.272 29.85 281.132 26 299.632 26 C 318.122 26 335.992 29.85 352.722 37.44 C 376.112 48.05 400.332 53.43 424.702 53.43 L 510.302 53.43 L 548.092 91.51 L 548.092 130.73 C 548.092 131.37 548.572 131.89 549.212 131.95 C 561.742 133.03 571.562 143.82 571.562 156.51 C 571.562 169.2 561.742 179.99 549.212 181.06 C 548.572 181.12 548.092 181.64 548.092 182.28 L 548.092 221.5 L 510.302 259.58 L 424.702 259.58 C 400.332 259.58 376.112 264.96 352.722 275.57 C 335.992 283.16 318.122 287.01 299.632 287.01 Z" fill="#000000" stroke="none"/><path d="M 299.632 27 C 281.272 27 263.552 30.82 246.942 38.35 C 243.832 39.76 240.712 41.08 237.572 42.31 C 240.712 41.08 243.832 39.76 246.942 38.35 C 263.552 30.82 281.272 27 299.632 27 Z M 299.632 27 C 317.982 27 335.712 30.82 352.312 38.35 C 355.802 39.94 359.312 41.4 362.832 42.75 C 359.312 41.4 355.802 39.94 352.312 38.35 C 335.712 30.82 317.982 27 299.632 27 Z M 362.842 42.76 C 362.842 42.76 362.852 42.76 362.852 42.76 C 362.852 42.76 362.842 42.76 362.842 42.76 Z M 547.102 91.92 L 547.102 130.73 L 547.102 91.92 Z M 52.162 131.55 C 52.152 132.24 51.602 132.81 50.902 132.86 C 50.612 132.86 50.322 132.86 50.022 132.87 C 50.292 132.86 50.572 132.86 50.842 132.86 C 51.572 132.86 52.152 132.28 52.162 131.55 Z M 27.182 160.72 C 27.982 165.28 30.112 169.5 33.392 172.92 C 33.692 173.24 34.002 173.55 34.322 173.85 C 34.002 173.55 33.692 173.24 33.392 172.92 C 30.112 169.5 27.982 165.28 27.182 160.72 Z M 52.162 182.02 C 52.162 182.03 52.162 182.03 52.162 182.03 C 52.162 182.03 52.162 182.03 52.162 182.02 Z M 547.412 181.13 C 547.212 181.47 547.102 181.86 547.102 182.28 L 547.102 221.09 L 547.102 182.28 C 547.102 181.86 547.212 181.47 547.412 181.13 Z M 89.362 258.58 L 174.552 258.58 L 89.362 258.58 Z M 424.702 258.58 L 509.892 258.58 L 424.702 258.58 Z M 90.182 256.58 L 174.552 256.58 C 199.352 256.58 223.982 262.05 247.762 272.84 C 264.102 280.25 281.562 284.01 299.632 284.01 C 317.702 284.01 335.152 280.25 351.502 272.84 C 375.272 262.05 399.902 256.58 424.702 256.58 L 509.072 256.58 L 545.112 220.26 L 545.112 182.28 C 545.112 180.07 546.762 178.26 548.952 178.08 C 559.962 177.13 568.582 167.65 568.582 156.51 C 568.582 145.36 559.962 135.88 548.952 134.94 C 546.762 134.75 545.112 132.94 545.112 130.73 L 545.112 92.75 L 509.072 56.43 L 424.702 56.43 C 399.902 56.43 375.272 50.96 351.502 40.18 C 335.152 32.76 317.702 29 299.632 29 C 281.562 29 264.102 32.76 247.762 40.18 C 223.982 50.96 199.352 56.43 174.552 56.43 L 90.182 56.43 L 54.142 92.75 L 54.142 131.55 C 54.142 133.37 52.672 134.86 50.852 134.86 C 39.102 134.86 29.222 144.21 28.812 155.71 C 28.602 161.65 30.732 167.27 34.812 171.54 C 38.902 175.8 44.392 178.15 50.282 178.15 C 52.412 178.15 54.142 179.89 54.142 182.03 L 54.142 220.26 L 90.182 256.58 Z M 237.572 270.7 C 240.712 271.93 243.832 273.25 246.942 274.66 C 263.552 282.19 281.272 286.01 299.632 286.01 C 317.982 286.01 335.712 282.19 352.312 274.66 C 355.452 273.24 358.602 271.91 361.762 270.68 C 358.592 271.91 355.452 273.24 352.312 274.66 C 335.712 282.19 317.982 286.01 299.632 286.01 C 281.272 286.01 263.552 282.19 246.942 274.66 C 243.832 273.25 240.712 271.93 237.572 270.7 Z M 299.632 288.01 C 280.992 288.01 262.992 284.13 246.132 276.48 C 222.872 265.93 198.792 260.58 174.552 260.58 L 88.542 260.58 L 50.172 221.92 L 50.172 182.15 C 43.242 182.12 36.772 179.34 31.962 174.31 C 27.122 169.26 24.592 162.6 24.842 155.57 C 25.322 142.16 36.622 131.21 50.172 130.87 L 50.172 91.1 L 88.542 52.43 L 174.552 52.43 C 198.792 52.43 222.872 47.08 246.132 36.53 C 262.992 28.88 280.992 25 299.632 25 C 318.272 25 336.272 28.88 353.132 36.53 C 376.392 47.08 400.472 52.43 424.702 52.43 L 510.722 52.43 L 549.082 91.1 L 549.082 130.73 C 549.082 130.85 549.172 130.94 549.292 130.95 C 562.332 132.08 572.552 143.3 572.552 156.51 C 572.552 169.71 562.332 180.94 549.292 182.06 C 549.172 182.07 549.082 182.16 549.082 182.28 L 549.082 221.92 L 510.722 260.58 L 424.702 260.58 C 400.472 260.58 376.392 265.93 353.132 276.48 C 336.272 284.13 318.272 288.01 299.632 288.01 Z" fill="#000000" stroke="none"/>
</svg>
