<?xml version="1.0" encoding="UTF-8"?>
<svg xmlns="http://www.w3.org/2000/svg" width="548.550" height="311.910" viewBox="0 0 548.550 311.910">
  <path d="M 11.92 231.66 L 274.27 299.59 L 536.63 231.66 L 536.63 80.25 L 274.27 12.33 L 11.92 80.25 L 11.92 231.66 Z M 274.27 309.91 L 273.04 309.59 L 2 239.42 L 2 72.5 L 274.27 2 L 275.51 2.32 L 546.55 72.5 L 546.55 239.42 L 274.27 309.91 Z" fill="#000000" stroke="none"/><path d="M 27.8 219.25 L 274.27 283.07 L 520.75 219.25 L 520.75 92.66 L 274.27 28.85 L 27.8 92.66 L 27.8 219.25 Z M 274.27 285.13 L 274.03 285.07 L 25.81 220.8 L 25.81 91.11 L 26.56 90.92 L 274.27 26.78 L 274.52 26.85 L 522.74 91.11 L 522.74 220.8 L 521.99 221 L 274.27 285.13 Z" fill="#000000" stroke="none"/><path d="M 274.28 27.81 L 303.1 35.28 L 274.28 27.81 Z M 26.81 91.89 L 39.51 88.6 L 26.81 91.89 Z M 521.75 91.89 L 521.75 220.03 L 501.25 225.33 L 521.75 220.03 L 521.75 91.89 Z M 28.79 218.48 L 274.27 282.04 L 519.76 218.48 L 519.76 93.44 L 274.27 29.88 L 28.79 93.44 L 28.79 218.48 Z M 236.85 274.41 L 274.27 284.1 L 236.85 274.41 Z M 274.28 286.16 L 273.78 286.04 L 24.82 221.58 L 24.82 90.33 L 26.31 89.95 L 274.27 25.75 L 274.77 25.88 L 523.73 90.33 L 523.73 221.58 L 522.24 221.97 L 274.28 286.16 Z" fill="#000000" stroke="none"/>
</svg>
