<?xml version="1.0" encoding="UTF-8"?>
<svg xmlns="http://www.w3.org/2000/svg" width="620.890" height="374.320" viewBox="0 0 620.890 374.320">
  <path d="M 241.97 314.74 L 242.37 314.75 C 256.24 315.09 269.49 320.5 279.68 330.01 L 310.44 358.7 L 341.21 330.01 C 351.4 320.5 364.65 315.09 378.52 314.75 L 378.92 314.74 L 523.52 335.14 C 525.28 335.39 527.07 335.52 528.83 335.52 C 545.77 335.52 560.8 324.03 565.39 307.59 C 566.27 304.43 566.7 301.09 566.7 297.35 L 566.7 259.59 L 569.11 258.14 C 594.07 243.13 608.96 216.6 608.96 187.16 C 608.96 157.73 594.07 131.2 569.11 116.19 L 566.7 114.73 L 566.7 76.97 C 566.7 73.24 566.27 69.89 565.39 66.74 C 560.8 50.29 545.77 38.81 528.83 38.81 C 527.07 38.81 525.28 38.93 523.52 39.18 L 378.92 59.59 L 378.52 59.58 C 364.65 59.24 351.4 53.82 341.21 44.32 L 310.44 15.63 L 279.68 44.32 C 269.49 53.82 256.24 59.24 242.37 59.58 L 241.97 59.59 L 97.38 39.18 C 95.61 38.93 93.82 38.81 92.06 38.81 C 75.12 38.81 60.09 50.29 55.5 66.74 C 54.62 69.89 54.2 73.24 54.2 76.97 L 54.2 114.73 L 51.78 116.19 C 26.82 131.2 11.93 157.73 11.93 187.16 C 11.93 216.6 26.82 243.13 51.78 258.14 L 54.2 259.59 L 54.2 297.35 C 54.2 301.08 54.62 304.43 55.5 307.58 C 60.08 324.03 75.12 335.52 92.06 335.52 C 93.82 335.52 95.61 335.39 97.37 335.14 L 241.97 314.74 Z M 310.44 372.32 L 272.94 337.35 C 264.62 329.59 253.83 325.13 242.53 324.76 L 98.75 345.05 C 96.53 345.36 94.28 345.52 92.06 345.52 C 70.69 345.52 51.73 331.03 45.95 310.29 C 44.82 306.24 44.27 302.01 44.27 297.35 L 44.27 265.22 C 17.75 248.16 2 219.19 2 187.16 C 2 155.14 17.75 126.17 44.27 109.11 L 44.27 76.97 C 44.27 72.31 44.82 68.08 45.95 64.03 C 51.73 43.29 70.69 28.81 92.06 28.81 C 94.28 28.81 96.53 28.97 98.75 29.28 L 242.53 49.57 C 253.83 49.2 264.62 44.74 272.94 36.98 L 310.44 2 L 347.95 36.98 C 356.27 44.74 367.06 49.2 378.36 49.57 L 522.14 29.28 C 524.36 28.97 526.61 28.81 528.83 28.81 C 550.2 28.81 569.16 43.29 574.94 64.03 C 576.07 68.08 576.62 72.31 576.62 76.97 L 576.62 109.11 C 603.14 126.17 618.89 155.14 618.89 187.16 C 618.89 219.19 603.14 248.16 576.62 265.22 L 576.62 297.35 C 576.62 302.01 576.07 306.25 574.94 310.3 C 569.16 331.03 550.2 345.52 528.83 345.52 C 526.61 345.52 524.36 345.36 522.14 345.05 L 378.36 324.76 C 367.06 325.13 356.27 329.59 347.95 337.35 L 310.44 372.32 Z" fill="#000000" stroke="none"/><path d="M 240.91 298.73 L 240.98 298.73 C 259.38 298.73 276.95 305.67 290.46 318.26 L 310.44 336.9 L 330.43 318.26 C 343.94 305.67 361.51 298.73 379.91 298.73 L 380.05 298.74 L 525.72 319.3 C 536.65 320.84 547.12 313.95 550.1 303.26 C 550.58 301.53 550.82 299.6 550.82 297.35 L 550.82 249.4 L 551.44 249.15 C 576.74 238.94 593.09 214.61 593.09 187.16 C 593.09 159.72 576.74 135.38 551.44 125.18 L 550.82 124.92 L 550.82 76.97 C 550.82 74.73 550.58 72.79 550.1 71.07 C 547.12 60.38 536.66 53.49 525.72 55.03 L 379.98 75.59 L 379.91 75.59 C 361.51 75.59 343.94 68.66 330.43 56.06 L 310.44 37.43 L 290.46 56.06 C 276.95 68.66 259.38 75.59 240.98 75.59 L 240.84 75.58 L 95.17 55.03 C 84.25 53.49 73.76 60.38 70.79 71.07 C 70.31 72.79 70.07 74.73 70.07 76.97 L 70.07 124.92 L 69.45 125.18 C 44.15 135.38 27.8 159.72 27.8 187.16 C 27.8 214.61 44.15 238.94 69.45 249.15 L 70.07 249.4 L 70.07 297.35 C 70.07 299.6 70.31 301.53 70.79 303.26 C 73.76 313.94 84.24 320.84 95.17 319.3 L 240.91 298.73 Z M 310.44 339.62 L 289.11 319.73 C 275.99 307.49 258.92 300.75 241.05 300.73 L 95.45 321.28 C 83.54 322.96 72.12 315.44 68.88 303.8 C 68.35 301.89 68.09 299.79 68.09 297.35 L 68.09 250.75 C 42.39 240.09 25.82 215.21 25.82 187.16 C 25.82 159.12 42.39 134.23 68.09 123.57 L 68.09 76.97 C 68.09 74.54 68.35 72.43 68.88 70.52 C 72.12 58.88 83.55 51.37 95.45 53.05 L 241.05 73.59 C 258.92 73.58 275.99 66.83 289.11 54.59 L 310.44 34.7 L 331.78 54.59 C 344.9 66.83 361.97 73.58 379.84 73.59 L 525.44 53.05 C 537.33 51.37 548.77 58.88 552.01 70.52 C 552.54 72.43 552.8 74.54 552.8 76.97 L 552.8 123.57 C 578.5 134.23 595.07 159.12 595.07 187.16 C 595.07 215.21 578.5 240.09 552.8 250.75 L 552.8 297.35 C 552.8 299.79 552.54 301.89 552.01 303.8 C 548.77 315.44 537.34 322.95 525.44 321.28 L 379.84 300.73 C 361.97 300.75 344.9 307.49 331.78 319.73 L 310.44 339.62 Z" fill="#000000" stroke="none"/><path d="M 334.95 58.67 C 334.96 58.68 334.96 58.68 334.96 58.68 C 334.96 58.68 334.96 58.68 334.95 58.67 Z M 334.99 58.71 C 335 58.71 335.01 58.72 335.01 58.72 C 335.01 58.72 335 58.71 334.99 58.71 Z M 335.03 58.74 C 335.04 58.75 335.06 58.76 335.07 58.77 C 335.06 58.76 335.04 58.75 335.03 58.74 Z M 335.07 58.77 C 347.31 68.63 362.35 74.17 378.09 74.57 C 362.35 74.17 347.31 68.63 335.07 58.77 Z M 378.09 74.57 C 378.11 74.57 378.12 74.57 378.14 74.57 C 378.12 74.57 378.11 74.57 378.09 74.57 Z M 378.15 74.57 C 378.16 74.57 378.17 74.57 378.18 74.57 C 378.17 74.57 378.16 74.57 378.15 74.57 Z M 378.2 74.57 C 378.21 74.57 378.22 74.57 378.23 74.57 C 378.22 74.57 378.21 74.57 378.2 74.57 Z M 378.26 74.58 C 378.27 74.58 378.27 74.58 378.28 74.58 C 378.27 74.58 378.26 74.58 378.26 74.58 Z M 378.31 74.58 C 378.32 74.58 378.32 74.58 378.32 74.58 C 378.32 74.58 378.32 74.58 378.31 74.58 Z M 378.37 74.58 C 378.37 74.58 378.37 74.58 378.37 74.58 C 378.37 74.58 378.37 74.58 378.37 74.58 Z M 240.98 74.59 L 241.05 74.6 C 259.13 74.59 276.46 67.75 289.79 55.33 L 305.99 40.22 L 289.79 55.33 C 276.48 67.73 259.17 74.58 241.05 74.59 L 240.98 74.59 Z M 528.77 53.81 C 538.98 53.81 548.24 60.68 551.06 70.79 C 551.42 72.11 551.65 73.53 551.75 75.09 C 551.65 73.53 551.42 72.11 551.06 70.79 C 548.07 60.06 537.83 53 526.9 53.89 C 527.52 53.84 528.15 53.81 528.77 53.81 Z M 551.75 75.1 C 551.75 75.11 551.76 75.12 551.76 75.14 C 551.76 75.12 551.75 75.11 551.75 75.1 Z M 551.76 75.17 C 551.76 75.17 551.76 75.18 551.76 75.18 C 551.76 75.18 551.76 75.18 551.76 75.17 Z M 551.81 76.67 C 551.81 76.67 551.81 76.68 551.81 76.68 C 551.81 76.68 551.81 76.67 551.81 76.67 Z M 85.8 54.71 C 78.27 56.88 72.05 62.83 69.83 70.79 C 69.34 72.55 69.09 74.5 69.08 76.75 C 69.09 74.5 69.34 72.55 69.83 70.79 C 72.05 62.83 78.27 56.88 85.8 54.71 Z M 69.08 124.24 L 68.47 124.5 C 68.1 124.65 67.73 124.81 67.36 124.97 C 67.93 124.72 68.5 124.48 69.08 124.25 L 69.08 124.24 Z M 67.36 124.97 C 67.36 124.97 67.35 124.97 67.35 124.97 C 67.35 124.97 67.36 124.97 67.36 124.97 Z M 551.81 124.25 L 551.81 124.25 C 552.54 124.54 553.27 124.85 553.99 125.17 C 553.47 124.94 552.95 124.72 552.43 124.5 L 551.81 124.24 L 551.81 76.97 L 551.81 124.25 Z M 26.81 187.08 C 26.81 187.09 26.81 187.09 26.81 187.09 C 26.81 187.09 26.81 187.09 26.81 187.08 Z M 594.08 187.08 C 594.08 187.09 594.08 187.09 594.08 187.09 C 594.08 187.09 594.08 187.09 594.08 187.08 Z M 26.81 187.23 C 26.81 187.24 26.81 187.24 26.81 187.24 C 26.81 187.24 26.81 187.24 26.81 187.23 Z M 594.08 187.23 C 594.08 187.24 594.08 187.24 594.08 187.24 C 594.08 187.24 594.08 187.24 594.08 187.23 Z M 67.28 249.32 L 67.29 249.33 L 67.28 249.32 Z M 67.3 249.33 C 67.69 249.5 68.07 249.66 68.47 249.83 L 69.08 250.08 L 69.08 250.08 C 68.48 249.84 67.89 249.59 67.3 249.33 Z M 551.81 250.08 L 551.81 297.35 L 551.81 250.08 L 552.43 249.83 C 553.1 249.54 553.78 249.25 554.45 248.95 C 553.58 249.34 552.7 249.72 551.81 250.08 Z M 551.81 297.65 C 551.81 297.65 551.81 297.65 551.81 297.65 C 551.81 297.65 551.81 297.65 551.81 297.65 Z M 551.76 299.2 C 551.76 299.2 551.76 299.2 551.76 299.2 C 551.76 299.2 551.76 299.2 551.76 299.2 Z M 551.75 299.23 L 551.75 299.23 Z M 551.75 299.24 C 551.75 299.25 551.75 299.25 551.75 299.25 C 551.75 299.25 551.75 299.25 551.75 299.24 Z M 242.73 299.75 C 242.73 299.75 242.73 299.75 242.73 299.75 C 242.73 299.75 242.73 299.75 242.73 299.75 Z M 242.78 299.75 C 242.78 299.75 242.78 299.75 242.79 299.75 C 242.78 299.75 242.78 299.75 242.78 299.75 Z M 242.82 299.75 C 242.83 299.75 242.84 299.76 242.84 299.76 C 242.84 299.75 242.83 299.75 242.82 299.75 Z M 242.87 299.76 C 242.88 299.76 242.89 299.76 242.9 299.76 C 242.89 299.76 242.88 299.76 242.87 299.76 Z M 242.92 299.76 C 242.93 299.76 242.94 299.76 242.95 299.76 C 242.94 299.76 242.93 299.76 242.92 299.76 Z M 242.97 299.76 C 242.98 299.76 242.99 299.76 243.01 299.76 C 242.99 299.76 242.98 299.76 242.97 299.76 Z M 243.02 299.76 C 243.03 299.76 243.05 299.76 243.06 299.76 C 243.05 299.76 243.03 299.76 243.02 299.76 Z M 551.75 299.26 C 551.65 300.82 551.42 302.23 551.06 303.53 C 550.76 304.59 550.4 305.61 549.97 306.6 C 550.4 305.61 550.76 304.59 551.06 303.53 C 551.42 302.23 551.65 300.82 551.75 299.26 Z M 69.08 297.58 C 69.09 299.82 69.34 301.77 69.83 303.53 C 70.17 304.73 70.59 305.88 71.1 306.98 C 70.59 305.88 70.17 304.73 69.83 303.53 C 69.34 301.77 69.09 299.82 69.08 297.58 Z M 243.06 299.76 C 256.34 300.15 269.11 304.19 280.12 311.4 C 269.11 304.19 256.34 300.15 243.06 299.76 Z M 280.13 311.42 C 280.14 311.42 280.15 311.42 280.15 311.43 C 280.15 311.43 280.14 311.42 280.13 311.42 Z M 280.19 311.45 C 280.19 311.45 280.19 311.46 280.19 311.46 C 280.19 311.45 280.19 311.45 280.19 311.45 Z M 379.84 299.73 C 363.28 299.73 347.34 305.47 334.54 315.99 C 347.32 305.49 363.24 299.75 379.84 299.73 L 379.91 299.73 L 379.84 299.73 Z M 334.53 316 C 334.52 316.01 334.51 316.01 334.5 316.02 C 334.51 316.01 334.52 316.01 334.53 316 Z M 240.84 297.73 L 240.98 297.73 C 259.63 297.73 277.44 304.76 291.13 317.53 L 310.44 335.54 L 329.76 317.53 C 343.45 304.76 361.26 297.73 379.91 297.73 L 380.12 297.74 L 525.86 318.31 C 536.28 319.78 546.3 313.2 549.15 302.99 C 549.6 301.35 549.83 299.51 549.83 297.35 L 549.83 248.73 L 551.07 248.22 C 575.99 238.17 592.09 214.2 592.09 187.16 C 592.09 160.13 575.99 136.16 551.07 126.1 L 549.83 125.6 L 549.83 76.97 C 549.83 74.82 549.6 72.97 549.15 71.34 C 546.31 61.13 536.29 54.55 525.86 56.02 L 380.05 76.59 L 379.98 76.59 C 361.26 76.59 343.45 69.56 329.76 56.8 L 310.44 38.79 L 291.13 56.8 C 277.44 69.56 259.63 76.59 240.98 76.59 L 240.77 76.58 L 95.03 56.02 C 84.59 54.55 74.58 61.13 71.74 71.34 C 71.29 72.97 71.06 74.82 71.06 76.97 L 71.06 125.6 L 69.82 126.1 C 44.9 136.16 28.8 160.13 28.8 187.16 C 28.8 214.2 44.9 238.17 69.82 248.22 L 71.06 248.73 L 71.06 297.35 C 71.06 299.51 71.29 301.35 71.74 302.99 C 74.59 313.19 84.6 319.78 95.03 318.31 L 240.84 297.73 Z M 310.44 340.99 L 288.44 320.46 C 275.52 308.42 258.72 301.77 241.12 301.73 L 95.59 322.27 C 83.19 324.01 71.3 316.19 67.92 304.07 C 67.37 302.07 67.09 299.88 67.09 297.35 L 67.09 251.42 C 41.39 240.47 24.83 215.33 24.83 187.16 C 24.83 159 41.39 133.85 67.09 122.91 L 67.09 76.97 C 67.09 74.45 67.37 72.25 67.92 70.25 C 71.3 58.13 83.19 50.31 95.59 52.06 L 241.12 72.59 C 258.71 72.56 275.52 65.91 288.44 53.86 L 310.44 33.34 L 332.45 53.86 C 345.37 65.91 362.18 72.56 379.77 72.59 L 525.31 52.06 C 537.7 50.3 549.59 58.13 552.97 70.25 C 553.53 72.25 553.8 74.45 553.8 76.97 L 553.8 122.91 C 579.5 133.85 596.06 159 596.06 187.16 C 596.06 215.33 579.5 240.47 553.8 251.42 L 553.8 297.35 C 553.8 299.88 553.53 302.07 552.97 304.07 C 549.59 316.19 537.71 324.02 525.31 322.27 L 379.77 301.73 C 362.18 301.77 345.37 308.42 332.45 320.46 L 310.44 340.99 Z" fill="#000000" stroke="none"/>
</svg>
