<?xml version="1.0" encoding="UTF-8"?>
<svg xmlns="http://www.w3.org/2000/svg" width="232.156" height="157.004" viewBox="0 0 232.156 157.004">
  <path d="M 154.247 76.991 C 152.806 79.102 150.781 80.81 148.524 82.015 C 146.264 83.227 143.81 84.027 141.321 84.489 C 138.83 84.976 136.307 85.165 133.798 85.182 C 131.287 85.215 128.782 85.09 126.302 84.812 C 121.334 84.281 116.449 83.298 111.64 82.076 C 106.83 80.854 102.1 79.365 97.439 77.704 C 92.785 76.022 88.188 74.192 83.688 72.132 C 81.409 71.089 79.278 70.078 77.007 69.221 C 75.89 68.766 74.736 68.406 73.601 67.993 C 72.444 67.646 71.298 67.257 70.128 66.951 C 60.823 64.402 50.925 63.387 41.383 64.977 C 36.627 65.743 31.977 67.249 27.898 69.669 C 25.843 70.855 24.014 72.37 22.412 74.061 C 21.589 74.894 20.922 75.848 20.235 76.784 L 19.354 78.283 C 19.04 78.772 18.859 79.33 18.602 79.849 C 17.699 81.975 17.068 84.237 16.9 86.572 L 16.804 87.442 L 16.792 88.321 L 16.774 90.078 L 16.907 91.84 L 16.973 92.72 L 17.124 93.578 L 17.422 95.292 C 17.573 95.847 17.751 96.393 17.91 96.944 C 17.995 97.217 18.068 97.496 18.162 97.765 L 18.51 98.544 C 18.759 99.053 18.929 99.606 19.236 100.08 C 20.288 102.088 21.862 103.747 23.648 105.058 C 25.451 106.355 27.532 107.278 29.733 107.743 C 31.935 108.201 34.222 108.261 36.456 107.963 C 40.917 107.395 45.236 105.271 47.945 101.948 C 49.295 100.292 50.193 98.351 50.575 96.309 C 51.004 94.266 50.741 92.106 50.21 90.024 C 50.051 89.503 49.929 88.977 49.748 88.461 L 49.103 86.931 C 48.991 86.677 48.901 86.419 48.776 86.169 L 48.365 85.43 L 47.55 83.953 C 46.935 82.998 46.259 82.069 45.614 81.132 L 43.402 78.462 L 43.333 78.379 C 42.348 77.189 42.513 75.426 43.703 74.44 C 44.893 73.455 46.656 73.62 47.642 74.81 C 47.653 74.823 47.671 74.847 47.682 74.861 C 50.878 78.906 53.684 83.538 54.894 88.916 C 55.446 91.587 55.644 94.459 54.944 97.227 C 54.3 99.988 52.923 102.555 51.082 104.624 C 47.384 108.804 42.13 111.05 36.873 111.559 C 34.234 111.82 31.551 111.657 28.96 111.022 C 26.372 110.38 23.901 109.194 21.781 107.553 C 19.67 105.905 17.886 103.816 16.683 101.447 C 16.339 100.878 16.144 100.242 15.87 99.641 L 15.491 98.728 C 15.388 98.417 15.309 98.099 15.218 97.785 C 15.046 97.154 14.859 96.526 14.704 95.893 L 14.407 93.972 L 14.261 93.011 L 14.207 92.054 L 14.103 90.14 C 14.108 89.499 14.142 88.857 14.16 88.215 L 14.196 87.254 L 14.319 86.294 C 14.56 83.729 15.307 81.202 16.371 78.845 C 16.667 78.269 16.892 77.654 17.25 77.111 L 18.271 75.456 C 19.053 74.424 19.824 73.383 20.747 72.481 C 22.551 70.648 24.588 69.046 26.815 67.817 C 31.248 65.309 36.146 63.877 41.07 63.077 C 46.007 62.268 51.014 62.133 55.981 62.412 C 60.954 62.666 65.892 63.456 70.735 64.638 C 71.949 64.923 73.142 65.29 74.347 65.615 C 75.532 66.007 76.735 66.346 77.906 66.784 C 80.258 67.593 82.6 68.621 84.814 69.559 C 89.313 71.438 93.863 73.208 98.464 74.814 C 107.657 78.021 117.047 80.795 126.627 82.134 C 129.019 82.467 131.42 82.718 133.821 82.78 C 136.221 82.868 138.624 82.789 140.974 82.433 C 143.319 82.073 145.643 81.532 147.782 80.545 C 149.917 79.568 151.853 78.155 153.37 76.331 C 153.564 76.097 153.909 76.064 154.144 76.257 C 154.364 76.439 154.404 76.759 154.247 76.991 Z" fill="#000000" stroke="none"/><path d="M 65.304 65.179 C 60.959 64.688 56.789 63.582 52.645 62.339 C 48.514 61.059 44.437 59.551 40.477 57.688 C 36.528 55.812 32.645 53.654 29.111 50.759 C 27.35 49.31 25.672 47.673 24.228 45.731 C 22.79 43.796 21.585 41.513 20.996 38.939 L 20.984 38.885 C 20.619 37.293 21.614 35.708 23.205 35.343 C 24.797 34.979 26.383 35.973 26.747 37.565 C 26.771 37.664 26.788 37.766 26.8 37.864 C 27.205 41.154 29.423 44.475 32.249 47.258 C 35.086 50.077 38.524 52.462 42.108 54.591 C 45.707 56.717 49.518 58.552 53.421 60.174 C 57.327 61.761 61.351 63.236 65.452 64.092 L 65.478 64.097 C 65.774 64.159 65.964 64.45 65.903 64.747 C 65.844 65.026 65.581 65.21 65.304 65.179 Z" fill="#000000" stroke="none"/><path d="M 38.079 61.307 C 36.235 61.148 34.483 60.644 32.795 60.019 C 31.106 59.39 29.471 58.63 27.886 57.773 C 24.722 56.051 21.727 53.968 19.057 51.422 C 16.408 48.876 13.997 45.857 12.586 42.099 C 11.89 40.23 11.485 38.17 11.52 36.068 C 11.547 33.966 12.026 31.858 12.831 29.933 L 12.853 29.881 C 13.468 28.412 15.157 27.719 16.625 28.334 C 18.094 28.949 18.786 30.638 18.172 32.107 C 18.129 32.208 18.074 32.321 18.021 32.415 C 16.618 34.89 16.211 37.77 16.961 40.717 C 17.69 43.662 19.414 46.527 21.546 49.07 C 23.688 51.625 26.268 53.894 29.068 55.845 C 30.47 56.818 31.937 57.709 33.461 58.477 C 34.984 59.244 36.578 59.892 38.21 60.217 L 38.234 60.222 C 38.532 60.281 38.724 60.57 38.665 60.868 C 38.61 61.145 38.355 61.331 38.079 61.307 Z" fill="#000000" stroke="none"/><path d="M 15.828 73.508 C 14.531 74.483 13.43 75.828 12.503 77.242 C 11.578 78.668 10.802 80.192 10.204 81.775 C 9.007 84.939 8.478 88.318 8.754 91.578 C 9.011 94.843 10.109 97.958 11.837 100.68 C 13.534 103.427 15.884 105.762 18.463 107.799 L 18.491 107.821 C 19.712 108.786 19.92 110.56 18.955 111.782 C 17.99 113.004 16.216 113.212 14.994 112.247 C 14.923 112.191 14.853 112.129 14.789 112.068 C 12.04 109.429 9.54 106.413 7.82 102.91 C 6.955 101.17 6.267 99.335 5.817 97.443 C 5.377 95.549 5.169 93.609 5.198 91.688 C 5.25 87.839 6.245 84.1 7.896 80.759 C 8.723 79.087 9.728 77.513 10.885 76.061 C 12.054 74.618 13.365 73.272 15.024 72.26 C 15.373 72.047 15.83 72.157 16.044 72.507 C 16.244 72.836 16.159 73.258 15.859 73.485 L 15.828 73.508 Z" fill="#000000" stroke="none"/><path d="M 128.509 80.341 C 124.872 79.399 121.437 77.714 118.249 75.638 C 115.07 73.541 112.111 70.999 109.653 67.866 C 107.217 64.753 105.261 60.917 104.774 56.548 C 104.527 54.381 104.668 52.128 105.175 49.973 C 105.678 47.814 106.53 45.763 107.579 43.867 L 107.602 43.826 C 108.628 41.972 110.963 41.301 112.817 42.327 C 114.67 43.354 115.341 45.688 114.315 47.542 C 114.214 47.724 114.087 47.911 113.963 48.069 C 112.052 50.477 110.782 53.24 110.63 56.293 C 110.451 59.338 111.392 62.6 113.048 65.601 C 114.704 68.611 117.01 71.388 119.657 73.818 C 122.319 76.236 125.321 78.374 128.673 79.847 L 128.68 79.85 C 128.812 79.908 128.872 80.062 128.814 80.194 C 128.762 80.313 128.631 80.373 128.509 80.341 Z" fill="#000000" stroke="none"/><path d="M 131.842 80.443 C 129.372 79.307 127.157 77.63 125.19 75.699 C 123.23 73.754 121.505 71.507 120.222 68.922 C 118.947 66.35 118.128 63.372 118.272 60.24 C 118.391 57.11 119.562 53.993 121.323 51.383 C 122.246 50.012 124.108 49.648 125.48 50.572 C 126.852 51.496 127.215 53.357 126.291 54.729 C 126.199 54.866 126.082 55.008 125.973 55.125 C 124.449 56.719 123.299 58.603 122.809 60.783 C 122.304 62.955 122.472 65.384 123.167 67.752 C 123.861 70.124 125.04 72.436 126.535 74.549 C 128.039 76.655 129.843 78.61 132.018 80.116 L 132.025 80.121 C 132.11 80.179 132.13 80.295 132.072 80.38 C 132.02 80.455 131.922 80.48 131.842 80.443 Z" fill="#000000" stroke="none"/><path d="M 138.598 80.688 C 136.829 79.751 135.247 78.461 133.841 76.993 C 132.441 75.515 131.206 73.832 130.305 71.894 C 129.413 69.969 128.86 67.714 129.146 65.353 C 129.408 62.989 130.605 60.73 132.186 58.992 L 132.198 58.979 C 133.047 58.045 134.492 57.977 135.426 58.826 C 136.36 59.675 136.428 61.12 135.579 62.054 C 135.491 62.15 135.388 62.244 135.289 62.322 C 134.03 63.299 133.04 64.513 132.563 66.028 C 132.074 67.536 132.119 69.317 132.574 71.069 C 133.028 72.825 133.849 74.555 134.893 76.153 C 135.946 77.747 137.212 79.242 138.745 80.453 L 138.749 80.456 C 138.81 80.504 138.821 80.591 138.773 80.652 C 138.731 80.705 138.657 80.719 138.598 80.688 Z" fill="#000000" stroke="none"/><path d="M 36.968 84.073 C 36.968 85.838 38.398 87.268 40.162 87.268 C 41.926 87.268 43.357 85.838 43.357 84.073 C 43.357 82.309 41.926 80.879 40.162 80.879 C 38.398 80.879 36.968 82.309 36.968 84.073 Z" fill="#000000" stroke="none"/><path d="M 99.171 44.062 C 99.171 45.826 100.601 47.256 102.366 47.256 C 104.129 47.256 105.56 45.826 105.56 44.062 C 105.56 42.298 104.129 40.867 102.366 40.867 C 100.601 40.867 99.171 42.298 99.171 44.062 Z" fill="#000000" stroke="none"/><path d="M 2 35.207 C 2 36.971 3.43 38.402 5.194 38.402 C 6.958 38.402 8.388 36.971 8.388 35.207 C 8.388 33.443 6.958 32.013 5.194 32.013 C 3.43 32.013 2 33.443 2 35.207 Z" fill="#000000" stroke="none"/><path d="M 3.762 43.594 C 3.762 45.1 4.983 46.32 6.489 46.32 C 7.994 46.32 9.215 45.1 9.215 43.594 C 9.215 42.088 7.994 40.867 6.489 40.867 C 4.983 40.867 3.762 42.088 3.762 43.594 Z" fill="#000000" stroke="none"/><path d="M 75.105 64.085 C 72.483 63.186 69.925 62.08 67.491 60.716 C 65.081 59.311 62.806 57.661 60.739 55.765 C 56.582 51.992 53.396 47.136 51.509 41.803 C 49.629 36.469 49.094 30.602 50.225 24.963 C 51.331 19.335 54.201 13.952 58.522 10.014 C 60.655 8.04 63.157 6.421 65.733 5.206 C 66.995 4.546 68.355 4.057 69.697 3.535 L 71.782 2.91 C 72.477 2.698 73.209 2.592 73.923 2.431 C 76.806 1.898 79.848 1.82 82.829 2.423 C 85.804 3.017 88.713 4.289 91.116 6.252 C 93.52 8.196 95.515 10.712 96.684 13.63 C 97.326 15.065 97.664 16.623 97.913 18.188 C 98.057 19.768 98.118 21.385 97.804 22.978 C 97.328 26.183 95.677 29.199 93.445 31.502 C 91.203 33.832 88.385 35.389 85.527 36.393 L 85.479 36.41 C 83.994 36.931 82.368 36.151 81.847 34.666 C 81.325 33.181 82.106 31.555 83.591 31.034 C 83.626 31.021 83.672 31.007 83.708 30.995 C 88.235 29.623 91.828 26.37 92.624 22.048 C 93.532 17.763 91.585 12.921 88.059 9.989 C 84.544 6.941 79.51 5.966 74.67 6.763 C 74.065 6.887 73.45 6.948 72.849 7.118 L 71.039 7.607 C 69.856 8.039 68.654 8.424 67.504 8.99 C 65.172 10.017 63.057 11.315 61.172 12.958 C 57.4 16.216 54.788 20.764 53.675 25.701 C 52.544 30.641 52.864 35.929 54.442 40.816 C 56.026 45.702 58.813 50.239 62.568 53.833 C 64.435 55.638 66.51 57.232 68.732 58.611 C 70.979 59.948 73.363 61.057 75.828 61.978 L 75.856 61.988 C 76.432 62.203 76.725 62.844 76.509 63.421 C 76.298 63.987 75.673 64.278 75.105 64.085 Z" fill="#000000" stroke="none"/><path d="M 156.079 138.605 C 157.153 139.925 157.529 141.767 157.211 143.473 C 156.9 145.19 156.044 146.759 154.989 148.125 C 152.842 150.853 149.848 152.87 146.544 154.019 C 143.235 155.171 139.538 155.333 136.094 154.401 C 132.657 153.458 129.5 151.57 127.067 148.895 C 124.635 146.227 123.086 142.785 122.547 139.239 C 121.998 135.684 122.357 132.042 123.424 128.64 C 124.494 125.238 126.287 122.05 128.725 119.407 C 131.15 116.757 134.226 114.67 137.638 113.449 C 141.051 112.231 144.75 111.907 148.288 112.368 C 151.838 112.813 155.222 113.965 158.373 115.477 C 164.399 118.375 170.558 121.007 176.948 122.895 C 183.311 124.781 189.934 126.062 196.543 125.672 C 199.831 125.459 203.123 124.819 206.134 123.424 C 209.134 122.029 211.807 119.887 213.84 117.181 C 212.961 118.624 211.905 119.974 210.67 121.158 C 209.429 122.335 208.028 123.35 206.524 124.19 C 203.502 125.852 200.112 126.825 196.69 127.23 C 189.806 128.041 182.891 126.969 176.281 125.265 C 169.673 123.47 163.275 121.001 157.131 118.059 C 154.195 116.674 151.095 115.651 147.933 115.276 C 144.778 114.903 141.574 115.173 138.612 116.201 C 135.655 117.24 132.971 119.028 130.823 121.346 C 128.677 123.665 127.03 126.464 126.011 129.48 C 125.001 132.496 124.625 135.739 125.051 138.874 C 125.473 141.999 126.692 145.024 128.749 147.419 C 130.775 149.819 133.602 151.601 136.619 152.596 C 139.658 153.578 143.002 153.57 146.128 152.687 C 149.253 151.82 152.211 150.098 154.406 147.642 C 155.491 146.414 156.38 144.978 156.791 143.383 C 157.224 141.804 157.035 140.018 156.079 138.605 Z" fill="#000000" stroke="none"/><path d="M 153.775 120.796 C 154.608 121.454 155.5 122.023 156.407 122.566 C 157.304 123.121 158.223 123.639 159.15 124.141 C 161.008 125.138 162.89 126.081 164.811 126.938 C 168.631 128.694 172.572 130.156 176.559 131.389 C 180.565 132.561 184.624 133.523 188.734 133.968 C 192.831 134.433 196.973 134.482 200.983 133.796 C 204.986 133.183 208.873 131.756 212.404 129.776 C 215.927 127.801 219.018 125.047 221.101 121.65 C 222.119 119.95 222.874 118.073 223.137 116.137 C 223.288 115.168 223.265 114.195 223.141 113.242 C 222.978 112.298 222.643 111.399 222.132 110.611 C 221.134 108.997 219.189 108.127 217.169 108.122 C 215.134 108.069 213.065 108.699 211.13 109.551 C 212.922 108.427 214.92 107.494 217.141 107.303 C 219.315 107.04 221.834 107.839 223.3 109.75 C 224.03 110.679 224.519 111.773 224.803 112.899 C 225.046 114.029 225.153 115.189 225.066 116.329 C 224.928 118.62 224.147 120.794 223.112 122.781 C 221.003 126.778 217.58 129.888 213.822 132.19 C 211.915 133.308 209.922 134.283 207.852 135.013 C 205.784 135.765 203.635 136.378 201.458 136.711 C 192.7 138.078 183.897 136.457 175.837 133.57 C 171.792 132.111 167.887 130.316 164.157 128.226 C 162.302 127.164 160.475 126.054 158.723 124.835 C 156.979 123.611 155.257 122.325 153.775 120.796 Z" fill="#000000" stroke="none"/><path d="M 186.171 140.969 C 191.021 142.316 195.967 142.584 200.821 142.219 C 203.243 141.997 205.651 141.666 207.99 141.066 C 210.331 140.496 212.624 139.748 214.78 138.728 C 219.119 136.775 222.978 133.798 225.596 129.84 C 228.242 125.88 229.416 121.017 229.745 116.001 C 230.202 118.478 230.282 121.047 229.965 123.609 C 229.622 126.162 228.846 128.708 227.577 131.022 C 226.346 133.361 224.6 135.412 222.635 137.172 C 220.64 138.908 218.378 140.301 216.012 141.413 C 211.235 143.561 206.041 144.56 200.903 144.516 C 195.788 144.469 190.578 143.468 186.171 140.969 Z" fill="#000000" stroke="none"/>
</svg>
