<?xml version="1.0" encoding="UTF-8"?>
<svg xmlns="http://www.w3.org/2000/svg" width="226.676" height="131.975" viewBox="0 0 226.676 131.975">
  <path d="M 199.104 94.454 C 195.777 89.402 191.489 84.779 185.997 82.24 C 180.51 79.676 174.227 79.639 168.422 80.967 C 162.567 82.288 157.019 84.752 151.632 87.458 C 146.242 90.186 141.001 93.237 135.715 96.258 C 130.437 99.293 125.126 102.336 119.566 105.03 C 114.007 107.709 108.179 110.075 101.888 111.362 C 98.748 111.995 95.482 112.324 92.174 112.142 C 88.872 111.972 85.54 111.288 82.402 110.069 C 79.256 108.866 76.326 107.137 73.711 105.089 C 71.09 103.04 68.771 100.686 66.676 98.194 C 65.401 96.676 65.597 94.413 67.114 93.137 C 68.631 91.862 70.895 92.058 72.17 93.576 C 72.22 93.634 72.268 93.695 72.313 93.757 L 72.335 93.786 C 75.67 98.342 79.75 102.281 84.708 104.548 C 89.647 106.838 95.362 107.357 101.057 106.513 C 106.771 105.711 112.427 103.749 117.942 101.442 C 123.464 99.113 128.874 96.383 134.291 93.63 C 139.701 90.861 145.117 88.033 150.708 85.52 C 156.293 83.022 162.078 80.793 168.159 79.659 C 171.193 79.094 174.314 78.886 177.397 79.177 C 180.473 79.474 183.523 80.27 186.26 81.694 C 191.805 84.491 195.945 89.299 199.104 94.454 Z" fill="#000000" stroke="none"/><path d="M 88.192 41.557 C 85.451 43.968 83.253 47.096 82.045 50.672 C 81.768 51.572 81.458 52.471 81.307 53.411 C 81.068 54.337 81.01 55.289 80.897 56.243 C 80.789 58.151 80.846 60.103 81.259 62 C 81.942 65.832 83.763 69.455 86.364 72.469 C 89.033 75.512 92.383 78.076 96.145 79.801 C 99.898 81.553 104.06 82.505 108.265 82.565 C 112.468 82.618 116.707 81.802 120.625 80.152 C 124.556 78.513 128.118 76.011 131.079 72.861 C 132.635 71.342 133.915 69.586 135.221 67.848 L 136.944 65.077 C 137.509 64.146 137.927 63.135 138.429 62.166 C 142.045 54.246 143.076 45.024 140.899 36.478 C 139.843 32.214 138.149 28.087 135.756 24.378 C 133.351 20.671 130.278 17.469 126.92 14.59 C 123.445 11.88 119.789 9.318 115.699 7.612 C 113.728 6.599 111.585 6.014 109.51 5.263 C 108.456 4.94 107.368 4.732 106.298 4.461 L 104.689 4.075 C 104.151 3.953 103.598 3.911 103.053 3.824 L 99.775 3.367 L 96.47 3.215 L 94.818 3.159 L 93.167 3.26 C 92.068 3.335 90.966 3.378 89.871 3.477 L 86.61 3.993 C 86.069 4.091 85.518 4.135 84.986 4.278 L 83.39 4.691 C 82.331 4.983 81.251 5.201 80.212 5.553 L 77.118 6.681 C 76.071 7.015 75.102 7.54 74.112 8.009 C 73.137 8.507 72.114 8.913 71.18 9.485 C 69.326 10.651 67.391 11.686 65.706 13.09 C 64.848 13.767 63.937 14.376 63.126 15.105 L 60.73 17.337 C 60.335 17.714 59.915 18.06 59.541 18.461 L 58.421 19.664 C 57.658 20.449 56.96 21.294 56.258 22.132 C 50.667 28.866 46.499 36.753 44.126 45.148 C 41.75 53.541 41.15 62.42 42.376 71.034 C 43.6 79.646 46.642 87.988 51.301 95.323 C 53.612 99.002 56.324 102.429 59.371 105.536 C 62.382 108.648 65.818 111.303 69.585 113.43 C 73.346 115.552 77.403 117.189 81.629 118.212 C 85.853 119.244 90.214 119.748 94.587 119.772 C 112.133 119.797 129.549 112.503 142.576 100.412 C 142.637 100.355 142.732 100.358 142.789 100.418 C 142.843 100.476 142.841 100.568 142.787 100.625 C 130.382 113.494 112.825 121.663 94.604 122.118 C 90.059 122.185 85.49 121.755 81.026 120.76 C 76.561 119.774 72.229 118.135 68.182 115.958 C 66.15 114.88 64.226 113.607 62.365 112.252 C 61.477 111.52 60.55 110.831 59.694 110.062 C 58.857 109.276 57.96 108.535 57.186 107.699 C 53.957 104.468 51.07 100.889 48.601 97.039 C 43.696 89.32 40.451 80.528 39.278 71.46 C 38.093 62.396 38.833 53.105 41.416 44.361 C 43.967 35.602 48.498 27.458 54.442 20.593 C 55.188 19.737 55.93 18.878 56.737 18.078 L 57.921 16.855 C 58.317 16.449 58.766 16.09 59.185 15.707 L 61.753 13.453 C 62.621 12.718 63.59 12.109 64.504 11.433 C 66.302 10.03 68.346 9.007 70.304 7.861 C 71.29 7.299 72.363 6.907 73.388 6.423 C 74.427 5.968 75.443 5.461 76.536 5.146 L 79.758 4.066 C 80.838 3.732 81.958 3.534 83.055 3.263 L 84.708 2.882 C 85.257 2.751 85.826 2.718 86.384 2.632 L 89.744 2.192 C 90.87 2.12 92.001 2.104 93.127 2.057 L 94.817 2 L 96.506 2.096 C 97.631 2.16 98.758 2.204 99.881 2.285 L 103.225 2.783 C 103.78 2.877 104.343 2.926 104.891 3.056 L 106.531 3.464 C 107.619 3.752 108.726 3.976 109.798 4.315 C 111.908 5.099 114.083 5.72 116.083 6.769 C 120.223 8.556 123.97 11.117 127.504 13.885 L 130.01 16.146 C 130.421 16.53 130.86 16.884 131.248 17.293 L 132.383 18.545 C 133.963 20.162 135.246 22.028 136.551 23.864 C 139.04 27.633 140.825 31.847 141.955 36.214 C 142.224 37.312 142.541 38.401 142.663 39.527 L 142.914 41.204 C 142.997 41.763 143.104 42.32 143.115 42.887 L 143.315 46.276 L 143.198 49.673 C 142.86 54.197 141.768 58.659 140.035 62.87 C 139.559 63.903 139.163 64.981 138.617 65.982 L 136.937 68.969 C 135.651 70.856 134.375 72.769 132.806 74.448 C 129.809 77.925 126.055 80.833 121.869 82.884 C 113.492 86.993 103.295 87.554 94.351 84.098 C 89.882 82.378 85.749 79.76 82.255 76.361 C 78.754 72.887 76.024 68.498 74.665 63.631 C 73.23 58.789 73.089 53.545 74.217 48.505 C 74.32 47.866 74.55 47.26 74.722 46.635 C 74.922 46.021 75.065 45.381 75.323 44.786 C 75.817 43.587 76.272 42.358 76.927 41.227 C 78.092 38.878 79.678 36.765 81.385 34.752 C 83.11 32.717 86.157 32.466 88.191 34.19 C 90.225 35.915 90.476 38.961 88.752 40.996 C 88.603 41.17 88.445 41.333 88.279 41.481 L 88.192 41.557 Z" fill="#000000" stroke="none"/><path d="M 102.28 128.158 C 99.774 129.114 97.138 129.524 94.515 129.782 C 91.883 130.058 89.247 129.984 86.615 129.887 C 81.356 129.581 76.143 128.679 71.046 127.329 C 60.876 124.597 51.048 120.021 42.751 113.165 C 38.619 109.738 34.907 105.72 31.907 101.168 C 28.911 96.621 26.609 91.557 25.238 86.239 C 23.875 80.917 23.387 75.412 23.525 69.959 L 23.756 65.874 C 23.895 64.522 24.108 63.182 24.283 61.834 L 24.564 59.813 L 24.985 57.829 L 25.836 53.855 C 26.239 51.968 28.097 50.765 29.984 51.17 C 31.871 51.573 33.073 53.43 32.67 55.318 C 32.659 55.367 32.648 55.417 32.635 55.465 L 32.57 55.71 L 31.618 59.318 L 31.139 61.125 L 30.798 62.951 C 30.582 64.17 30.324 65.387 30.137 66.611 L 29.753 70.295 C 29.395 75.211 29.593 80.159 30.579 84.971 C 31.574 89.779 33.41 94.399 35.925 98.651 C 38.443 102.904 41.668 106.768 45.372 110.152 C 52.802 116.928 62.014 121.817 71.745 124.931 C 76.621 126.478 81.653 127.601 86.753 128.144 C 89.302 128.36 91.871 128.557 94.424 128.411 C 96.968 128.285 99.534 128.006 101.938 127.218 L 101.946 127.215 C 102.209 127.129 102.491 127.273 102.577 127.535 C 102.66 127.79 102.527 128.063 102.28 128.158 Z" fill="#000000" stroke="none"/><path d="M 28.842 109.415 C 26.546 107.172 24.722 104.546 23.083 101.84 C 21.444 99.128 20.005 96.301 18.715 93.405 C 16.152 87.605 14.146 81.534 12.859 75.234 C 11.607 68.937 11.014 62.38 11.866 55.694 C 12.301 52.36 13.127 48.995 14.52 45.756 C 15.905 42.523 17.892 39.432 20.432 36.806 L 20.501 36.735 C 22.111 35.071 24.766 35.027 26.431 36.637 C 28.095 38.248 28.139 40.902 26.528 42.567 C 26.425 42.674 26.313 42.778 26.201 42.872 C 22.213 46.197 19.567 51.238 18.292 56.841 C 16.995 62.454 16.894 68.516 17.49 74.522 C 18.11 80.542 19.449 86.55 21.365 92.376 C 22.331 95.288 23.451 98.155 24.773 100.926 C 26.093 103.693 27.607 106.394 29.564 108.721 L 29.575 108.735 C 29.753 108.947 29.725 109.262 29.514 109.44 C 29.316 109.606 29.025 109.591 28.842 109.415 Z" fill="#000000" stroke="none"/><path d="M 9.724 80.034 C 7.375 75.27 5.507 70.247 4.151 65.046 C 2.808 59.845 1.973 54.446 2.001 48.91 C 2.036 43.395 2.971 37.672 5.457 32.336 C 7.9 26.995 12.045 22.27 17.042 18.97 L 17.106 18.928 C 19.105 17.608 21.795 18.158 23.114 20.157 C 24.434 22.156 23.884 24.845 21.886 26.166 C 21.748 26.256 21.584 26.35 21.44 26.423 C 17.366 28.466 13.873 31.528 11.402 35.512 C 8.913 39.479 7.449 44.255 6.818 49.219 C 6.182 54.196 6.329 59.364 7.009 64.483 C 7.699 69.607 8.913 74.704 10.644 79.643 C 10.738 79.903 10.603 80.19 10.342 80.284 C 10.101 80.371 9.836 80.257 9.724 80.034 Z" fill="#000000" stroke="none"/><path d="M 161.646 75.122 C 165.713 72.745 170.31 71.2 175.074 70.644 C 179.836 70.09 184.779 70.48 189.485 71.92 C 194.198 73.345 198.61 75.829 202.449 78.995 C 206.244 82.223 209.378 86.095 212.143 90.188 C 213.274 91.861 212.834 94.133 211.161 95.263 C 209.488 96.394 207.216 95.955 206.086 94.282 C 206.009 94.17 205.941 94.054 205.879 93.938 L 205.811 93.807 C 203.807 89.99 201.486 86.325 198.551 83.18 C 195.574 80.106 192.051 77.54 188.07 75.817 C 184.098 74.086 179.699 73.204 175.24 73.212 C 170.779 73.221 166.275 74.172 162.119 76.003 L 162.1 76.011 C 161.847 76.123 161.552 76.008 161.441 75.755 C 161.337 75.52 161.429 75.249 161.646 75.122 Z" fill="#000000" stroke="none"/><path d="M 166.17 67.929 C 170.708 65.199 175.722 63.193 180.982 62.069 C 186.236 60.948 191.769 60.732 197.199 61.709 C 202.626 62.668 207.905 64.88 212.469 68.135 C 217.053 71.379 220.889 75.576 224.073 80.157 C 225.136 81.686 224.758 83.789 223.229 84.852 C 221.699 85.916 219.597 85.537 218.534 84.007 C 218.477 83.926 218.424 83.842 218.376 83.758 L 218.334 83.684 C 215.911 79.433 212.932 75.503 209.231 72.334 C 205.545 69.159 201.139 66.793 196.35 65.482 C 191.565 64.159 186.44 63.865 181.383 64.469 C 176.323 65.075 171.317 66.549 166.652 68.805 L 166.646 68.808 C 166.397 68.928 166.098 68.825 165.978 68.576 C 165.864 68.341 165.952 68.061 166.17 67.929 Z" fill="#000000" stroke="none"/><path d="M 174.296 59.34 C 179.629 55.559 185.903 52.996 192.552 51.992 C 195.878 51.502 199.314 51.42 202.75 51.912 C 206.178 52.4 209.618 53.484 212.754 55.299 L 212.784 55.317 C 214.111 56.085 214.565 57.783 213.797 59.11 C 213.029 60.437 211.331 60.891 210.004 60.123 C 209.911 60.07 209.811 60.003 209.728 59.941 C 207.458 58.238 204.767 56.997 201.884 56.231 C 199 55.462 195.933 55.159 192.849 55.25 C 186.674 55.445 180.415 57.134 174.828 60.187 C 174.587 60.321 174.282 60.234 174.148 59.992 C 174.023 59.767 174.092 59.487 174.296 59.34 Z" fill="#000000" stroke="none"/><path d="M 101.959 80.044 C 100.663 79.762 99.487 79.083 98.473 78.27 C 97.455 77.452 96.581 76.486 95.796 75.461 C 94.238 73.4 93.046 71.085 92.17 68.607 C 91.307 66.126 90.751 63.46 90.868 60.537 C 90.937 59.079 91.191 57.543 91.799 55.991 C 92.4 54.449 93.408 52.887 94.808 51.655 L 95.328 51.197 C 96.991 49.733 99.526 49.894 100.99 51.558 C 102.455 53.221 102.293 55.756 100.629 57.22 C 100.297 57.513 99.913 57.747 99.526 57.911 C 99.01 58.126 98.506 58.503 98.048 59.104 C 97.591 59.701 97.205 60.504 96.931 61.414 C 96.38 63.242 96.253 65.434 96.473 67.61 C 96.694 69.793 97.224 72.01 98.119 74.068 C 99.022 76.094 100.287 78.093 102.259 79.089 L 102.291 79.106 C 102.538 79.23 102.637 79.532 102.513 79.779 C 102.407 79.988 102.176 80.09 101.959 80.044 Z" fill="#000000" stroke="none"/>
</svg>
