<?xml version="1.0" encoding="UTF-8"?>
<svg xmlns="http://www.w3.org/2000/svg" width="386.026" height="102.388" viewBox="0 0 386.026 102.388">
  <path d="M 104.973 53.775 C 103.018 51.823 100.642 50.319 98.002 49.572 C 95.367 48.823 92.481 48.895 89.767 49.744 C 87.037 50.559 84.502 52.107 82.31 54.042 C 80.105 55.975 78.277 58.345 76.796 60.901 C 73.885 66.039 72.491 72.121 73.303 77.97 C 73.706 80.887 74.684 83.72 76.19 86.248 C 77.694 88.783 79.741 90.975 82.08 92.778 C 84.425 94.591 87.023 96.095 89.771 97.148 C 92.526 98.186 95.454 98.725 98.384 98.668 C 104.273 98.581 109.933 96.247 114.95 93.095 C 120.012 89.946 124.583 86.002 128.933 81.846 C 133.278 77.67 137.415 73.257 141.605 68.855 C 143.702 66.656 145.812 64.455 148.011 62.317 C 150.218 60.161 152.618 58.125 155.232 56.404 C 160.419 52.924 166.559 50.585 172.946 50.357 C 179.313 50.077 185.765 51.991 190.977 55.696 C 196.174 59.377 200.253 64.903 201.585 71.328 C 202.249 74.519 202.171 77.899 201.289 81.066 C 200.415 84.238 198.773 87.162 196.669 89.613 C 194.542 92.034 192.206 94.149 189.447 95.888 C 186.71 97.594 183.519 98.854 180.108 99 C 176.711 99.168 173.231 98.096 170.503 96.075 C 167.755 94.068 165.706 91.24 164.535 88.097 C 163.363 84.957 163.064 81.435 163.924 78.103 C 164.755 74.763 166.843 71.766 169.521 69.708 L 169.531 69.701 C 170.319 69.096 171.448 69.244 172.054 70.032 C 172.659 70.82 172.512 71.949 171.724 72.554 L 171.719 72.558 C 169.582 74.189 168.007 76.432 167.342 78.995 C 166.66 81.546 166.856 84.352 167.786 86.897 C 168.711 89.444 170.364 91.746 172.516 93.336 C 174.662 94.941 177.303 95.775 179.976 95.669 C 182.659 95.578 185.323 94.585 187.728 93.111 C 190.125 91.637 192.353 89.651 194.239 87.531 C 196.1 85.393 197.51 82.902 198.27 80.223 C 199.036 77.545 199.128 74.69 198.578 71.937 C 197.483 66.402 193.921 61.42 189.269 58.082 C 184.608 54.721 178.814 52.945 173.043 53.158 C 167.256 53.321 161.594 55.403 156.702 58.632 C 154.232 60.234 151.967 62.122 149.818 64.19 C 147.65 66.268 145.542 68.434 143.435 70.612 C 139.227 74.972 135.029 79.393 130.548 83.555 C 126.071 87.711 121.343 91.684 116.039 94.88 C 110.769 98.042 104.724 100.421 98.392 100.387 C 95.25 100.374 92.117 99.754 89.206 98.617 C 86.299 97.46 83.61 95.852 81.18 93.925 C 76.265 90.112 72.75 84.385 71.898 78.169 C 70.994 71.958 72.471 65.59 75.441 60.147 C 76.911 57.403 78.816 54.893 81.057 52.692 C 83.302 50.496 85.972 48.675 88.979 47.487 C 91.982 46.317 95.372 45.849 98.676 46.413 C 101.99 46.928 105.098 48.396 107.84 50.271 L 107.864 50.288 C 108.901 50.997 109.167 52.413 108.458 53.45 C 107.749 54.487 106.333 54.752 105.296 54.043 C 105.181 53.965 105.067 53.869 104.973 53.775 Z" fill="#000000" stroke="none"/><path d="M 72.756 88.673 C 72.756 88.673 64.235 63.171 54.787 61.593 C 44.668 59.903 48.066 71.259 48.066 71.259 C 48.066 71.259 53.664 64.913 55.471 67.233 C 57.278 69.552 53.744 73.549 53.744 73.549 C 53.744 73.549 62.859 72.053 62.796 74.895 C 62.767 76.253 59.406 78.265 59.811 79.98 C 60.625 83.421 65.95 78.431 72.756 88.673 Z" fill="#000000" stroke="none"/><path d="M 19.261 48.646 C 19.261 48.646 25.817 22.569 17.567 15.871 C 8.73 8.695 5.425 20.081 5.425 20.081 C 5.425 20.081 14.547 17.993 14.952 20.953 C 15.356 23.913 9.604 25.224 9.604 25.224 C 9.604 25.224 19.318 29.174 17.606 31.504 C 16.787 32.618 12.357 32.375 11.753 34.034 C 10.542 37.361 18.61 36.245 19.261 48.646 Z" fill="#000000" stroke="none"/><path d="M 68.18 72.825 C 68.18 72.825 80.917 44.308 60.878 49.916 C 60.878 49.916 68.547 52.358 67.242 56.303 C 66.809 57.611 62.464 57.737 61.864 59.42 C 60.66 62.797 67.996 60.811 68.18 72.825 Z" fill="#000000" stroke="none"/><path d="M 169.372 97.918 C 169.372 97.918 149.391 77.543 147.219 94.955 C 147.219 94.955 151.977 90.003 154.901 92.473 C 155.87 93.291 154.466 96.661 155.698 97.747 C 158.171 99.927 159.023 93.578 169.372 97.918 Z" fill="#000000" stroke="none"/><path d="M 18.596 62.774 C 18.596 62.774 13.64 34.67 2 47.801 C 2 47.801 8.726 46.409 9.741 50.099 C 10.077 51.322 7.014 53.306 7.415 54.899 C 8.221 58.096 12.515 53.341 18.596 62.774 Z" fill="#000000" stroke="none"/><path d="M 132.99 74.443 C 132.99 74.443 150.87 56.999 148.609 49.227 C 146.187 40.901 138.075 48.371 138.075 48.371 C 138.075 48.371 145.438 49.822 144.202 52.183 C 142.965 54.544 138.324 53.624 138.324 53.624 C 138.324 53.624 143.003 59.815 140.628 60.999 C 139.493 61.566 136.56 59.915 135.295 60.962 C 132.755 63.064 138.893 64.898 132.99 74.443 Z" fill="#000000" stroke="none"/><path d="M 157.417 48.307 C 157.417 49.839 156.175 51.081 154.642 51.081 C 153.11 51.081 151.868 49.839 151.868 48.307 C 151.868 46.775 153.11 45.533 154.642 45.533 C 156.175 45.533 157.417 46.775 157.417 48.307 Z" fill="#000000" stroke="none"/><path d="M 39.702 12.102 C 39.702 13.634 38.46 14.876 36.928 14.876 C 35.395 14.876 34.153 13.634 34.153 12.102 C 34.153 10.569 35.395 9.327 36.928 9.327 C 38.46 9.327 39.702 10.569 39.702 12.102 Z" fill="#000000" stroke="none"/><path d="M 155.52 83.611 C 155.52 85.143 156.763 86.385 158.296 86.385 C 159.828 86.385 161.07 85.143 161.07 83.611 C 161.07 82.078 159.828 80.835 158.296 80.835 C 156.763 80.835 155.52 82.078 155.52 83.611 Z" fill="#000000" stroke="none"/><path d="M 76.607 53.079 C 77.48 50.247 77.133 47.204 76.019 44.58 C 74.908 41.944 73.02 39.676 70.73 38.184 C 68.444 36.677 65.767 36.009 63.202 36.27 C 60.623 36.495 58.182 37.649 56.006 39.21 L 55.993 39.22 C 54.773 40.095 53.076 39.816 52.201 38.596 C 51.326 37.377 51.605 35.68 52.825 34.805 C 52.919 34.737 53.03 34.669 53.129 34.616 C 54.639 33.81 56.228 33.122 57.906 32.648 C 59.584 32.177 61.356 31.955 63.115 32.013 C 66.651 32.112 70.062 33.517 72.605 35.722 C 75.17 37.917 76.971 40.825 77.844 43.948 C 78.722 47.056 78.642 50.465 77.324 53.355 C 77.236 53.548 77.008 53.633 76.814 53.545 C 76.636 53.464 76.551 53.26 76.607 53.079 Z" fill="#000000" stroke="none"/><path d="M 25.585 27.178 C 26.713 24.283 27.179 21.178 26.881 18.185 C 26.585 15.204 25.535 12.311 23.784 10.089 C 22.049 7.87 19.594 6.401 17.119 6.377 C 14.643 6.302 12.226 7.508 10.152 9.267 C 9.007 10.237 7.293 10.096 6.323 8.952 C 5.353 7.807 5.494 6.092 6.639 5.122 C 6.724 5.05 6.813 4.984 6.905 4.923 L 6.923 4.912 C 8.434 3.933 10.086 3.09 11.895 2.562 C 13.697 2.031 15.667 1.841 17.577 2.144 C 19.492 2.427 21.291 3.238 22.767 4.35 C 24.253 5.459 25.439 6.85 26.345 8.351 C 28.154 11.368 28.884 14.8 28.811 18.116 C 28.732 21.444 27.808 24.671 26.281 27.505 C 26.18 27.692 25.947 27.762 25.76 27.662 C 25.586 27.568 25.514 27.361 25.583 27.183 L 25.585 27.178 Z" fill="#000000" stroke="none"/><path d="M 76.966 96.56 C 73.479 97.7 69.746 97.958 66.072 97.882 C 62.387 97.755 58.717 97.212 55.12 96.351 C 51.518 95.501 48.014 94.243 44.631 92.705 C 41.253 91.157 38.007 89.275 35.013 87.015 C 32.031 84.745 29.293 82.107 26.988 79.092 C 24.69 76.077 22.842 72.685 21.598 69.067 C 20.345 65.449 19.743 61.618 19.679 57.802 C 19.632 53.983 20.125 50.182 21.021 46.506 C 21.9 42.807 23.181 39.295 24.72 35.808 C 26.331 32.336 28.41 29.06 30.916 26.128 C 35.918 20.259 42.666 15.822 50.164 13.688 C 57.614 11.532 65.961 11.601 73.342 14.98 C 77.008 16.654 80.358 19.23 82.85 22.508 C 85.372 25.769 86.956 29.68 87.698 33.631 C 87.984 35.157 86.98 36.624 85.455 36.911 C 83.93 37.197 82.462 36.193 82.176 34.667 C 82.175 34.66 82.173 34.652 82.172 34.644 L 82.168 34.622 C 81.61 31.403 80.414 28.344 78.501 25.789 C 76.612 23.222 74.041 21.158 71.096 19.754 C 65.181 16.923 58.014 16.645 51.457 18.378 C 44.857 20.093 38.789 23.868 34.206 29.003 C 31.908 31.569 29.977 34.471 28.433 37.582 C 26.936 40.728 25.6 44.065 24.697 47.45 C 22.811 54.206 22.512 61.426 24.596 68.084 C 25.63 71.404 27.221 74.552 29.264 77.405 C 31.314 80.254 33.803 82.805 36.562 85.037 C 42.067 89.546 48.647 92.749 55.528 94.848 C 58.975 95.898 62.529 96.641 66.13 96.988 C 69.724 97.359 73.391 97.339 76.966 96.56 Z" fill="#000000" stroke="none"/><path d="M 103.224 97.533 C 100.446 96.663 97.967 94.902 95.842 92.841 C 93.723 90.756 91.91 88.299 90.637 85.477 C 89.384 82.677 88.647 79.372 89.368 75.964 C 89.722 74.279 90.461 72.629 91.491 71.209 C 92.517 69.783 93.803 68.589 95.178 67.598 L 95.205 67.578 C 96.424 66.699 98.125 66.974 99.004 68.194 C 99.883 69.413 99.608 71.113 98.389 71.992 C 98.271 72.077 98.136 72.157 98.011 72.22 C 95.863 73.291 94.124 74.873 93.28 77.072 C 92.411 79.256 92.473 81.962 93.185 84.554 C 93.895 87.159 95.184 89.689 96.861 91.947 C 98.549 94.188 100.623 96.242 103.224 97.533 Z" fill="#000000" stroke="none"/><path d="M 278.187 50.271 C 280.928 48.396 284.036 46.928 287.351 46.413 C 290.654 45.849 294.045 46.317 297.048 47.487 C 300.055 48.675 302.725 50.496 304.97 52.692 C 307.211 54.893 309.115 57.403 310.586 60.147 C 313.557 65.59 315.033 71.958 314.129 78.169 C 313.276 84.385 309.762 90.112 304.848 93.925 C 302.417 95.852 299.728 97.46 296.82 98.617 C 293.91 99.754 290.777 100.374 287.635 100.387 C 281.303 100.421 275.257 98.042 269.987 94.88 C 264.683 91.684 259.956 87.711 255.479 83.555 C 250.998 79.393 246.799 74.972 242.592 70.612 C 240.485 68.434 238.376 66.268 236.209 64.19 C 234.06 62.122 231.795 60.234 229.325 58.632 C 224.432 55.403 218.771 53.321 212.983 53.158 C 207.213 52.945 201.419 54.721 196.757 58.082 C 192.106 61.42 188.543 66.402 187.448 71.937 C 186.899 74.69 186.991 77.545 187.757 80.223 C 188.517 82.902 189.927 85.393 191.788 87.531 C 193.674 89.651 195.902 91.637 198.299 93.111 C 200.703 94.585 203.368 95.578 206.05 95.669 C 208.724 95.775 211.365 94.941 213.51 93.336 C 215.662 91.746 217.316 89.444 218.241 86.897 C 219.171 84.352 219.367 81.546 218.685 78.995 C 218.02 76.432 216.445 74.189 214.308 72.558 C 213.518 71.955 213.367 70.827 213.97 70.037 C 214.572 69.247 215.701 69.094 216.491 69.698 L 216.496 69.701 L 216.506 69.708 C 219.183 71.766 221.271 74.763 222.103 78.103 C 222.963 81.435 222.664 84.957 221.492 88.097 C 220.321 91.24 218.272 94.068 215.524 96.075 C 212.796 98.096 209.316 99.168 205.918 99 C 202.508 98.854 199.317 97.594 196.579 95.888 C 193.821 94.149 191.485 92.034 189.357 89.613 C 187.254 87.162 185.611 84.238 184.738 81.066 C 183.856 77.899 183.778 74.519 184.442 71.328 C 185.774 64.903 189.853 59.377 195.05 55.696 C 200.262 51.991 206.714 50.077 213.081 50.357 C 219.468 50.585 225.608 52.924 230.795 56.404 C 233.409 58.125 235.809 60.161 238.016 62.317 C 240.215 64.455 242.324 66.656 244.422 68.855 C 248.612 73.257 252.749 77.67 257.094 81.846 C 261.443 86.002 266.016 89.946 271.077 93.095 C 276.094 96.247 281.753 98.581 287.643 98.668 C 290.572 98.725 293.501 98.186 296.256 97.148 C 299.004 96.095 301.601 94.591 303.947 92.778 C 306.286 90.975 308.333 88.783 309.837 86.248 C 311.343 83.72 312.32 80.887 312.724 77.97 C 313.536 72.121 312.141 66.039 309.23 60.901 C 307.75 58.345 305.922 55.975 303.717 54.042 C 301.525 52.107 298.989 50.559 296.26 49.744 C 293.546 48.895 290.66 48.823 288.024 49.572 C 285.385 50.319 283.009 51.823 281.055 53.775 C 280.166 54.663 278.725 54.662 277.838 53.773 C 276.949 52.884 276.95 51.444 277.84 50.556 C 277.937 50.457 278.042 50.371 278.152 50.294 L 278.187 50.271 Z" fill="#000000" stroke="none"/><path d="M 313.27 88.673 C 313.27 88.673 321.792 63.171 331.239 61.593 C 341.359 59.903 337.961 71.259 337.961 71.259 C 337.961 71.259 332.362 64.913 330.556 67.233 C 328.749 69.552 332.282 73.549 332.282 73.549 C 332.282 73.549 323.168 72.053 323.23 74.895 C 323.26 76.253 326.621 78.265 326.216 79.98 C 325.401 83.421 320.077 78.431 313.27 88.673 Z" fill="#000000" stroke="none"/><path d="M 366.766 48.646 C 366.766 48.646 360.21 22.569 368.46 15.871 C 377.297 8.695 380.601 20.081 380.601 20.081 C 380.601 20.081 371.48 17.993 371.075 20.953 C 370.671 23.913 376.423 25.224 376.423 25.224 C 376.423 25.224 366.709 29.174 368.421 31.504 C 369.239 32.618 373.67 32.375 374.273 34.034 C 375.485 37.361 367.417 36.245 366.766 48.646 Z" fill="#000000" stroke="none"/><path d="M 317.847 72.825 C 317.847 72.825 305.11 44.308 325.148 49.916 C 325.148 49.916 317.48 52.358 318.785 56.303 C 319.218 57.611 323.562 57.737 324.163 59.42 C 325.367 62.797 318.031 60.811 317.847 72.825 Z" fill="#000000" stroke="none"/><path d="M 216.654 97.918 C 216.654 97.918 236.636 77.543 238.808 94.955 C 238.808 94.955 234.049 90.003 231.126 92.473 C 230.157 93.291 231.56 96.661 230.329 97.747 C 227.856 99.927 227.004 93.578 216.654 97.918 Z" fill="#000000" stroke="none"/><path d="M 367.432 62.774 C 367.432 62.774 372.387 34.67 384.026 47.801 C 384.026 47.801 377.301 46.409 376.286 50.099 C 375.95 51.322 379.014 53.306 378.612 54.899 C 377.807 58.096 373.512 53.341 367.432 62.774 Z" fill="#000000" stroke="none"/><path d="M 253.037 74.443 C 253.037 74.443 235.156 56.999 237.418 49.227 C 239.84 40.901 247.952 48.371 247.952 48.371 C 247.952 48.371 240.588 49.822 241.825 52.183 C 243.062 54.544 247.703 53.624 247.703 53.624 C 247.703 53.624 243.023 59.815 245.398 60.999 C 246.533 61.566 249.467 59.915 250.732 60.962 C 253.272 63.064 247.134 64.898 253.037 74.443 Z" fill="#000000" stroke="none"/><path d="M 228.609 48.307 C 228.609 49.839 229.851 51.081 231.384 51.081 C 232.917 51.081 234.159 49.839 234.159 48.307 C 234.159 46.775 232.917 45.533 231.384 45.533 C 229.851 45.533 228.609 46.775 228.609 48.307 Z" fill="#000000" stroke="none"/><path d="M 346.325 12.102 C 346.325 13.634 347.567 14.876 349.099 14.876 C 350.632 14.876 351.874 13.634 351.874 12.102 C 351.874 10.569 350.632 9.327 349.099 9.327 C 347.567 9.327 346.325 10.569 346.325 12.102 Z" fill="#000000" stroke="none"/><path d="M 230.506 83.611 C 230.506 85.143 229.264 86.385 227.731 86.385 C 226.199 86.385 224.957 85.143 224.957 83.611 C 224.957 82.078 226.199 80.835 227.731 80.835 C 229.264 80.835 230.506 82.078 230.506 83.611 Z" fill="#000000" stroke="none"/><path d="M 308.703 53.355 C 307.385 50.465 307.305 47.056 308.182 43.948 C 309.057 40.825 310.856 37.917 313.422 35.722 C 315.965 33.517 319.376 32.112 322.912 32.013 C 324.671 31.955 326.442 32.177 328.121 32.648 C 329.799 33.122 331.388 33.81 332.897 34.616 C 334.222 35.322 334.722 36.968 334.016 38.291 C 333.308 39.616 331.663 40.117 330.339 39.41 C 330.236 39.355 330.139 39.294 330.047 39.229 L 330.021 39.21 C 327.845 37.649 325.404 36.495 322.824 36.27 C 320.26 36.009 317.583 36.677 315.297 38.184 C 313.007 39.676 311.119 41.944 310.008 44.58 C 308.893 47.204 308.547 50.247 309.42 53.079 C 309.484 53.281 309.373 53.497 309.17 53.562 C 308.983 53.622 308.783 53.528 308.703 53.355 Z" fill="#000000" stroke="none"/><path d="M 359.746 27.505 C 358.219 24.671 357.295 21.444 357.216 18.116 C 357.143 14.8 357.873 11.368 359.682 8.351 C 360.588 6.85 361.773 5.459 363.26 4.35 C 364.735 3.238 366.535 2.427 368.45 2.144 C 370.36 1.841 372.33 2.031 374.132 2.562 C 375.941 3.09 377.593 3.933 379.103 4.912 L 379.109 4.915 C 380.368 5.731 380.727 7.414 379.911 8.672 C 379.096 9.931 377.413 10.29 376.154 9.474 C 376.06 9.414 375.959 9.337 375.875 9.267 C 373.801 7.508 371.384 6.302 368.907 6.377 C 366.433 6.401 363.978 7.87 362.243 10.089 C 360.492 12.311 359.442 15.204 359.146 18.185 C 358.849 21.178 359.313 24.283 360.441 27.178 L 360.443 27.183 C 360.52 27.38 360.423 27.604 360.224 27.681 C 360.041 27.752 359.837 27.673 359.746 27.505 Z" fill="#000000" stroke="none"/><path d="M 309.061 96.56 C 312.636 97.339 316.303 97.359 319.897 96.988 C 323.498 96.641 327.052 95.898 330.499 94.848 C 337.38 92.749 343.96 89.546 349.465 85.037 C 352.224 82.805 354.713 80.254 356.763 77.405 C 358.806 74.552 360.397 71.404 361.432 68.084 C 363.515 61.426 363.216 54.206 361.33 47.45 C 360.427 44.065 359.091 40.728 357.594 37.582 C 356.05 34.471 354.119 31.569 351.82 29.003 C 347.238 23.868 341.17 20.093 334.569 18.378 C 328.013 16.645 320.847 16.923 314.931 19.754 C 311.985 21.158 309.415 23.222 307.525 25.789 C 305.612 28.344 304.417 31.403 303.859 34.622 L 303.857 34.629 C 303.593 36.158 302.139 37.182 300.61 36.917 C 299.082 36.653 298.057 35.199 298.322 33.67 C 298.323 33.662 298.327 33.639 298.329 33.631 C 299.07 29.68 300.654 25.769 303.177 22.508 C 305.669 19.23 309.019 16.654 312.684 14.98 C 320.066 11.601 328.413 11.532 335.862 13.688 C 343.361 15.822 350.108 20.259 355.111 26.128 C 357.617 29.06 359.696 32.336 361.307 35.808 C 362.846 39.295 364.127 42.807 365.006 46.506 C 365.901 50.182 366.394 53.983 366.348 57.802 C 366.284 61.618 365.682 65.449 364.43 69.067 C 363.184 72.685 361.337 76.077 359.039 79.092 C 356.734 82.107 353.996 84.745 351.015 87.015 C 348.02 89.275 344.774 91.157 341.395 92.705 C 338.014 94.243 334.509 95.501 330.906 96.351 C 327.31 97.212 323.641 97.755 319.955 97.882 C 316.28 97.958 312.548 97.7 309.061 96.56 Z" fill="#000000" stroke="none"/><path d="M 282.803 97.533 C 285.403 96.242 287.477 94.188 289.166 91.947 C 290.843 89.689 292.132 87.159 292.842 84.554 C 293.554 81.962 293.615 79.256 292.747 77.072 C 291.903 74.873 290.164 73.291 288.016 72.22 C 286.671 71.55 286.124 69.916 286.795 68.572 C 287.465 67.226 289.099 66.679 290.443 67.35 C 290.573 67.414 290.695 67.488 290.809 67.569 L 290.849 67.598 C 292.224 68.589 293.51 69.783 294.536 71.209 C 295.565 72.629 296.305 74.279 296.659 75.964 C 297.38 79.372 296.643 82.677 295.391 85.477 C 294.116 88.299 292.305 90.756 290.184 92.841 C 288.06 94.902 285.581 96.663 282.803 97.533 Z" fill="#000000" stroke="none"/>
</svg>
