<?xml version="1.0" encoding="UTF-8"?>
<svg xmlns="http://www.w3.org/2000/svg" width="269.806" height="91.369" viewBox="0 0 269.806 91.369">
  <path d="M 145.484 46.678 C 144.034 45.393 141.552 45.915 139.206 47.75 C 138.433 44.729 136.799 42.641 134.924 42.662 C 133.05 42.683 131.464 44.808 130.759 47.845 C 128.372 46.064 125.88 45.597 124.459 46.915 C 122.509 48.723 123.316 53.192 126.261 56.898 C 128.491 59.703 131.304 61.263 133.386 61.074 C 133.237 60.443 133.135 59.767 133.128 59.057 C 133.09 55.737 133.947 53.036 135.042 53.023 C 136.135 53.011 137.053 55.692 137.09 59.013 C 137.098 59.722 137.012 60.401 136.878 61.034 C 138.964 61.177 141.741 59.554 143.906 56.7 C 146.767 52.929 147.473 48.442 145.484 46.678 Z" fill="#000000" stroke="none"/><path d="M 143.099 28.295 C 141.98 27.303 140.064 27.707 138.253 29.123 C 137.657 26.791 136.395 25.179 134.949 25.195 C 133.502 25.211 132.277 26.851 131.733 29.196 C 129.89 27.821 127.965 27.461 126.869 28.478 C 125.365 29.874 125.988 33.324 128.261 36.185 C 129.982 38.35 132.154 39.554 133.76 39.408 C 133.645 38.921 133.567 38.399 133.561 37.851 C 133.532 35.289 134.194 33.203 135.039 33.194 C 135.883 33.184 136.591 35.254 136.62 37.817 C 136.627 38.364 136.56 38.888 136.456 39.377 C 138.066 39.487 140.21 38.235 141.882 36.031 C 144.09 33.121 144.635 29.657 143.099 28.295 Z" fill="#000000" stroke="none"/><path d="M 141.141 14.17 C 140.294 13.419 138.842 13.725 137.47 14.797 C 137.019 13.031 136.063 11.81 134.967 11.823 C 133.873 11.835 132.944 13.077 132.533 14.853 C 131.137 13.811 129.679 13.539 128.849 14.309 C 127.71 15.366 128.181 17.979 129.903 20.145 C 131.207 21.785 132.851 22.697 134.068 22.586 C 133.981 22.218 133.922 21.822 133.918 21.407 C 133.895 19.466 134.396 17.887 135.036 17.88 C 135.675 17.872 136.213 19.44 136.234 21.381 C 136.239 21.796 136.188 22.193 136.109 22.563 C 137.329 22.646 138.953 21.698 140.218 20.029 C 141.891 17.825 142.304 15.202 141.141 14.17 Z" fill="#000000" stroke="none"/><path d="M 187.705 2.083 C 186.064 2.517 185.241 4.58 185.44 7.183 C 182.862 6.28 180.546 6.459 179.651 7.836 C 178.757 9.214 179.537 11.402 181.412 13.39 C 178.954 14.268 177.404 15.859 177.675 17.535 C 178.049 19.834 181.701 21.414 185.833 21.064 C 188.961 20.799 191.464 19.504 192.336 17.893 C 191.803 17.696 191.26 17.441 190.739 17.103 C 188.299 15.519 186.745 13.583 187.266 12.779 C 187.789 11.975 190.19 12.607 192.63 14.19 C 193.151 14.529 193.604 14.921 194.001 15.327 C 195.117 13.875 195.281 11.061 194.25 8.097 C 192.887 4.18 189.957 1.487 187.705 2.083 Z" fill="#000000" stroke="none"/><path d="M 261.888 42.775 C 261.446 41.53 259.793 41.024 257.787 41.347 C 258.321 39.289 258.033 37.503 256.908 36.898 C 255.782 36.293 254.134 37.039 252.714 38.621 C 251.875 36.77 250.541 35.67 249.257 35.989 C 247.499 36.426 246.507 39.361 247.046 42.543 C 247.452 44.953 248.618 46.81 249.923 47.383 C 250.042 46.958 250.204 46.52 250.433 46.094 C 251.505 44.1 252.906 42.769 253.563 43.123 C 254.22 43.476 253.885 45.379 252.813 47.373 C 252.585 47.8 252.309 48.176 252.02 48.51 C 253.218 49.283 255.411 49.229 257.644 48.238 C 260.595 46.93 262.495 44.483 261.888 42.775 Z" fill="#000000" stroke="none"/><path d="M 266.812 60.077 C 267.325 59.19 266.792 57.959 265.593 56.937 C 267.077 56.218 267.986 55.151 267.777 54.183 C 267.568 53.214 266.3 52.616 264.652 52.572 C 265.323 51.147 265.301 49.807 264.468 49.21 C 263.326 48.391 261.095 49.281 259.487 51.199 C 258.269 52.649 257.758 54.272 258.077 55.33 C 258.387 55.186 258.727 55.062 259.094 54.983 C 260.81 54.613 262.299 54.772 262.422 55.337 C 262.544 55.903 261.252 56.662 259.536 57.032 C 259.17 57.111 258.808 57.138 258.466 57.135 C 258.612 58.23 259.747 59.497 261.454 60.318 C 263.71 61.402 266.109 61.293 266.812 60.077 Z" fill="#000000" stroke="none"/><path d="M 260.49 74.332 C 261.274 74.206 261.754 73.284 261.782 72.063 C 262.94 72.604 264.027 72.628 264.507 72.029 C 264.988 71.43 264.726 70.374 263.947 69.361 C 265.132 69.067 265.927 68.399 265.88 67.606 C 265.813 66.518 264.186 65.612 262.246 65.583 C 260.778 65.56 259.552 66.047 259.071 66.756 C 259.309 66.872 259.55 67.016 259.777 67.198 C 260.84 68.049 261.473 69.023 261.192 69.373 C 260.912 69.723 259.824 69.317 258.761 68.466 C 258.535 68.284 258.341 68.08 258.176 67.872 C 257.589 68.497 257.382 69.799 257.723 71.227 C 258.174 73.114 259.414 74.504 260.49 74.332 Z" fill="#000000" stroke="none"/><path d="M 136.234 66.458 C 135.935 69.2 137.153 71.974 139.481 73.701 C 141.772 75.468 144.735 76.357 147.684 76.768 C 153.651 77.522 159.796 76.621 165.512 74.751 C 171.22 72.851 176.652 69.954 180.976 65.9 C 183.106 63.857 184.981 61.558 186.295 58.975 C 187.647 56.416 188.405 53.587 188.554 50.72 C 188.708 47.851 188.285 44.943 187.432 42.13 C 187.031 40.715 186.462 39.343 185.855 37.986 C 185.555 37.305 185.191 36.652 184.863 35.981 C 184.499 35.347 184.113 34.739 183.731 34.118 C 182.067 31.752 179.661 29.933 176.906 29.114 C 175.521 28.735 174.084 28.564 172.642 28.61 C 171.209 28.705 169.763 28.899 168.396 29.388 C 167.695 29.568 167.048 29.913 166.38 30.182 C 165.748 30.535 165.086 30.831 164.5 31.256 C 163.273 32.018 162.193 32.989 161.238 34.04 C 160.256 35.08 159.551 36.325 158.978 37.581 C 158.419 38.857 158.182 40.221 158.126 41.565 C 158.119 42.919 158.404 44.25 158.884 45.518 C 158.992 45.838 159.181 46.134 159.323 46.443 C 159.492 46.742 159.59 47.07 159.811 47.345 C 160.231 47.903 160.542 48.515 161.046 49.019 C 162.852 51.157 165.189 52.9 167.708 54.334 L 167.737 54.351 C 168.668 54.881 168.992 56.065 168.463 56.996 C 167.932 57.926 166.749 58.25 165.818 57.721 C 165.763 57.689 165.709 57.654 165.658 57.619 C 163.032 55.761 160.502 53.65 158.539 50.951 C 158.007 50.32 157.643 49.535 157.204 48.83 C 156.813 48.088 156.479 47.3 156.181 46.511 C 155.652 44.891 155.38 43.173 155.478 41.461 C 155.625 39.762 156.027 38.085 156.774 36.582 C 157.531 35.096 158.461 33.706 159.612 32.542 C 160.749 31.372 162.009 30.323 163.412 29.514 C 164.087 29.065 164.836 28.751 165.553 28.386 L 166.681 27.947 C 167.053 27.79 167.435 27.662 167.827 27.562 C 169.362 27.059 170.985 26.868 172.596 26.803 C 174.217 26.788 175.84 27.016 177.397 27.483 C 180.515 28.439 183.224 30.492 185.214 33.02 C 185.672 33.677 186.139 34.341 186.57 35.012 C 186.952 35.696 187.367 36.362 187.721 37.065 C 188.438 38.464 189.126 39.891 189.644 41.396 C 190.761 44.37 191.31 47.62 191.143 50.862 C 190.962 54.101 190.04 57.313 188.478 60.135 C 186.935 62.976 184.823 65.436 182.445 67.52 C 177.646 71.667 171.897 74.425 165.951 76.167 C 162.964 77.014 159.92 77.652 156.833 77.966 C 153.75 78.29 150.627 78.334 147.529 77.931 C 144.449 77.513 141.332 76.702 138.615 74.894 C 137.27 73.989 136.067 72.779 135.23 71.306 C 134.379 69.84 133.922 68.146 133.795 66.457 L 133.792 66.417 C 133.741 65.742 134.248 65.153 134.924 65.102 C 135.599 65.052 136.187 65.558 136.238 66.234 C 136.244 66.308 136.242 66.387 136.234 66.458 Z" fill="#000000" stroke="none"/><path d="M 158.212 80.458 C 162.467 81.237 166.827 81.515 171.18 81.301 C 175.525 81.017 179.853 80.215 183.997 78.837 C 188.151 77.487 192.102 75.528 195.715 73.091 C 196.594 72.446 197.497 71.833 198.354 71.164 C 199.181 70.455 200.04 69.783 200.84 69.046 C 201.602 68.269 202.403 67.531 203.13 66.725 C 203.825 65.89 204.58 65.106 205.222 64.233 C 206.531 62.506 207.744 60.705 208.724 58.783 L 209.443 57.335 C 209.68 56.852 209.848 56.338 210.054 55.842 C 210.247 55.341 210.46 54.848 210.634 54.341 L 211.09 52.8 C 211.712 50.75 212.003 48.628 212.177 46.521 C 212.161 45.462 212.22 44.404 212.123 43.356 C 211.992 42.31 211.958 41.258 211.686 40.241 C 210.855 36.143 209.011 32.296 206.309 29.166 C 203.589 26.046 200.096 23.663 196.297 22.068 C 194.849 21.461 194.169 19.795 194.776 18.348 C 195.382 16.9 197.049 16.219 198.496 16.827 C 198.724 16.923 198.934 17.045 199.123 17.188 L 199.154 17.213 C 202.873 20.084 206.274 23.335 208.938 27.136 C 211.592 30.933 213.376 35.335 213.948 39.874 C 214.158 41 214.122 42.149 214.177 43.283 C 214.2 44.418 214.059 45.551 213.992 46.676 C 213.669 48.912 213.221 51.126 212.442 53.228 L 211.87 54.804 C 211.656 55.32 211.404 55.819 211.173 56.326 C 210.928 56.827 210.721 57.345 210.446 57.829 L 209.615 59.274 C 208.52 61.205 207.21 63 205.804 64.703 C 205.113 65.564 204.313 66.331 203.575 67.148 C 202.804 67.935 201.964 68.651 201.163 69.404 C 200.332 70.125 199.458 70.795 198.608 71.492 C 197.73 72.152 196.809 72.753 195.912 73.386 C 192.229 75.789 188.208 77.619 184.062 79.031 C 179.902 80.412 175.608 81.381 171.239 81.936 C 166.864 82.454 162.449 82.56 157.99 82.504 C 157.42 82.497 156.963 82.028 156.97 81.458 C 156.977 80.887 157.445 80.431 158.016 80.437 C 158.073 80.438 158.129 80.444 158.183 80.453 L 158.212 80.458 Z" fill="#000000" stroke="none"/><path d="M 201.219 75.542 C 205.557 75.225 209.476 73.29 212.747 70.656 C 216.041 68.014 218.868 64.813 221.713 61.6 C 224.558 58.391 227.456 55.108 230.976 52.39 C 232.731 51.036 234.661 49.83 236.8 49.044 C 238.933 48.257 241.266 47.924 243.538 48.166 L 244.389 48.254 C 244.671 48.296 244.945 48.371 245.223 48.428 C 245.777 48.553 246.339 48.656 246.865 48.859 C 247.947 49.178 248.991 49.626 250.008 50.142 C 252.025 51.202 253.85 52.797 255.051 54.838 C 255.688 55.838 256.07 56.975 256.374 58.116 C 256.6 59.273 256.737 60.46 256.633 61.633 C 256.589 62.814 256.302 63.959 255.968 65.082 C 255.562 66.178 255.102 67.265 254.459 68.25 C 253.219 70.242 251.486 71.97 249.358 73.104 C 247.251 74.254 244.778 74.827 242.358 74.659 C 239.936 74.508 237.607 73.742 235.542 72.627 C 233.482 71.492 231.663 70.053 229.963 68.514 C 229.172 67.797 229.112 66.575 229.828 65.784 C 230.545 64.994 231.766 64.933 232.557 65.649 C 232.593 65.682 232.628 65.716 232.661 65.75 L 232.708 65.8 C 234.091 67.263 235.586 68.612 237.248 69.659 C 238.91 70.69 240.73 71.409 242.606 71.634 C 246.354 72.083 250.235 70.194 252.42 66.915 C 253.554 65.317 254.253 63.406 254.428 61.462 C 254.549 60.489 254.458 59.514 254.308 58.557 C 254.081 57.619 253.808 56.675 253.304 55.84 C 251.442 52.4 247.348 50.317 243.368 49.837 C 241.357 49.618 239.316 49.928 237.442 50.707 C 235.56 51.473 233.832 52.634 232.222 53.956 C 229.019 56.641 226.211 59.871 223.241 62.998 C 220.262 66.109 217.221 69.294 213.551 71.753 C 211.724 72.976 209.764 74.032 207.673 74.72 C 205.577 75.381 203.377 75.704 201.219 75.542 Z" fill="#000000" stroke="none"/><path d="M 213.671 61.089 L 213.722 61.029 C 213.726 61.025 213.732 61.024 213.736 61.028 C 213.741 61.032 213.741 61.038 213.737 61.042 L 213.736 61.043 L 213.671 61.089 Z" fill="#000000" stroke="none"/><path d="M 216.007 57.766 L 216.045 57.7 C 216.165 57.49 216.432 57.416 216.642 57.537 C 216.852 57.656 216.925 57.924 216.806 58.135 C 216.794 58.156 216.778 58.178 216.763 58.196 L 216.713 58.257 C 216.561 58.441 216.289 58.467 216.105 58.315 C 215.941 58.18 215.904 57.945 216.007 57.766 Z" fill="#000000" stroke="none"/><path d="M 217.715 54.151 L 217.743 54.08 C 217.887 53.699 218.314 53.507 218.696 53.652 C 219.077 53.796 219.269 54.223 219.124 54.605 C 219.113 54.634 219.097 54.667 219.084 54.694 L 219.045 54.765 C 218.852 55.122 218.407 55.255 218.05 55.062 C 217.723 54.885 217.587 54.49 217.715 54.151 Z" fill="#000000" stroke="none"/><path d="M 218.897 50.359 L 218.915 50.285 C 219.036 49.772 219.55 49.455 220.062 49.577 C 220.575 49.699 220.891 50.212 220.77 50.725 C 220.763 50.754 220.755 50.784 220.745 50.812 L 220.718 50.889 C 220.549 51.386 220.01 51.652 219.514 51.483 C 219.048 51.324 218.785 50.839 218.894 50.369 L 218.897 50.359 Z" fill="#000000" stroke="none"/><path d="M 219.593 46.472 L 219.602 46.396 C 219.67 45.796 220.211 45.364 220.811 45.432 C 221.411 45.499 221.842 46.041 221.775 46.641 C 221.773 46.661 221.769 46.684 221.766 46.703 L 221.753 46.785 C 221.65 47.378 221.087 47.777 220.492 47.675 C 219.92 47.577 219.529 47.05 219.592 46.48 L 219.593 46.472 Z" fill="#000000" stroke="none"/><path d="M 219.805 42.544 L 219.805 42.468 C 219.799 41.821 220.319 41.291 220.966 41.286 C 221.613 41.28 222.142 41.8 222.148 42.447 C 222.148 42.452 222.148 42.466 222.148 42.471 L 222.147 42.554 C 222.139 43.201 221.609 43.719 220.963 43.711 C 220.324 43.703 219.81 43.18 219.805 42.544 Z" fill="#000000" stroke="none"/><path d="M 219.51 38.637 L 219.501 38.561 C 219.41 37.905 219.87 37.299 220.526 37.209 C 221.175 37.12 221.775 37.573 221.876 38.217 L 221.888 38.299 C 221.989 38.955 221.539 39.568 220.882 39.668 C 220.227 39.768 219.614 39.318 219.514 38.662 C 219.513 38.657 219.511 38.643 219.51 38.637 Z" fill="#000000" stroke="none"/><path d="M 218.706 34.812 L 218.683 34.739 C 218.5 34.124 218.849 33.477 219.464 33.293 C 220.071 33.111 220.712 33.455 220.905 34.057 L 220.929 34.136 C 221.123 34.748 220.783 35.401 220.171 35.594 C 219.558 35.788 218.906 35.448 218.713 34.835 C 218.711 34.83 218.707 34.817 218.706 34.812 Z" fill="#000000" stroke="none"/><path d="M 217.361 31.139 L 217.33 31.069 L 217.327 31.064 C 217.083 30.53 217.318 29.899 217.852 29.655 C 218.366 29.419 218.972 29.632 219.234 30.125 L 219.273 30.199 C 219.548 30.719 219.348 31.364 218.829 31.638 C 218.308 31.913 217.664 31.714 217.388 31.194 C 217.38 31.177 217.37 31.156 217.361 31.139 Z" fill="#000000" stroke="none"/><path d="M 215.479 27.686 L 215.438 27.622 L 215.434 27.617 C 215.164 27.199 215.283 26.641 215.701 26.37 C 216.093 26.115 216.613 26.208 216.898 26.567 L 216.95 26.632 C 217.26 27.024 217.194 27.593 216.801 27.904 C 216.41 28.214 215.84 28.148 215.53 27.756 C 215.512 27.734 215.495 27.709 215.479 27.686 Z" fill="#000000" stroke="none"/><path d="M 213.092 24.511 L 213.044 24.455 C 212.801 24.179 212.829 23.758 213.105 23.516 C 213.358 23.293 213.735 23.301 213.982 23.515 L 214.041 23.566 C 214.32 23.81 214.348 24.234 214.105 24.513 C 213.861 24.792 213.437 24.821 213.158 24.577 C 213.135 24.557 213.112 24.533 213.092 24.511 Z" fill="#000000" stroke="none"/><path d="M 210.266 21.644 L 210.209 21.592 C 210.071 21.468 210.06 21.256 210.184 21.119 C 210.293 20.999 210.469 20.976 210.603 21.055 L 210.673 21.096 C 210.835 21.192 210.889 21.403 210.793 21.565 C 210.696 21.728 210.486 21.783 210.323 21.686 C 210.302 21.674 210.283 21.659 210.266 21.644 Z" fill="#000000" stroke="none"/><path d="M 228.401 72.747 L 228.441 72.816 C 228.446 72.825 228.443 72.836 228.434 72.841 C 228.425 72.846 228.415 72.843 228.409 72.835 C 228.408 72.832 228.407 72.829 228.407 72.827 L 228.401 72.747 Z" fill="#000000" stroke="none"/><path d="M 231.297 75.333 L 231.362 75.367 C 231.687 75.535 231.815 75.935 231.647 76.26 C 231.479 76.585 231.079 76.712 230.754 76.544 C 230.71 76.521 230.663 76.489 230.627 76.458 L 230.563 76.405 C 230.288 76.172 230.254 75.76 230.486 75.485 C 230.687 75.248 231.019 75.19 231.284 75.326 L 231.297 75.333 Z" fill="#000000" stroke="none"/><path d="M 234.935 76.642 L 235.006 76.661 C 235.552 76.805 235.879 77.365 235.734 77.912 C 235.59 78.458 235.03 78.785 234.483 78.641 C 234.451 78.632 234.416 78.621 234.384 78.609 L 234.309 78.581 C 233.782 78.384 233.513 77.796 233.711 77.268 C 233.895 76.774 234.423 76.508 234.922 76.638 L 234.935 76.642 Z" fill="#000000" stroke="none"/><path d="M 238.763 77.316 L 238.842 77.325 C 239.494 77.391 239.968 77.974 239.901 78.625 C 239.835 79.276 239.253 79.751 238.601 79.684 C 238.585 79.683 238.562 79.68 238.545 79.677 L 238.459 79.664 C 237.812 79.567 237.367 78.964 237.465 78.317 C 237.559 77.69 238.13 77.252 238.754 77.315 L 238.763 77.316 Z" fill="#000000" stroke="none"/><path d="M 242.66 77.501 L 242.737 77.5 L 242.743 77.5 C 243.395 77.493 243.929 78.015 243.937 78.666 C 243.945 79.298 243.452 79.82 242.829 79.859 L 242.745 79.864 C 242.092 79.903 241.532 79.407 241.493 78.755 C 241.454 78.103 241.95 77.543 242.601 77.503 C 242.62 77.502 242.642 77.502 242.66 77.501 Z" fill="#000000" stroke="none"/><path d="M 246.541 77.179 L 246.617 77.168 L 246.63 77.166 C 247.18 77.087 247.692 77.469 247.772 78.021 C 247.843 78.518 247.539 78.984 247.073 79.128 L 246.992 79.154 C 246.457 79.323 245.886 79.026 245.717 78.491 C 245.549 77.955 245.845 77.385 246.381 77.216 C 246.43 77.2 246.491 77.187 246.541 77.179 Z" fill="#000000" stroke="none"/><path d="M 250.317 76.212 L 250.391 76.183 L 250.401 76.179 C 250.724 76.05 251.09 76.207 251.219 76.531 C 251.332 76.812 251.226 77.125 250.986 77.287 L 250.913 77.336 C 250.621 77.534 250.222 77.458 250.024 77.165 C 249.826 76.873 249.902 76.475 250.195 76.277 C 250.232 76.251 250.277 76.228 250.317 76.212 Z" fill="#000000" stroke="none"/><path d="M 138.331 78.698 L 138.381 78.757 C 138.383 78.761 138.383 78.767 138.38 78.771 C 138.375 78.774 138.369 78.774 138.365 78.77 C 138.365 78.769 138.364 78.768 138.364 78.768 L 138.331 78.698 Z" fill="#000000" stroke="none"/><path d="M 141.486 81.232 L 141.55 81.273 C 141.757 81.406 141.816 81.681 141.683 81.887 C 141.55 82.093 141.276 82.153 141.07 82.02 C 141.049 82.006 141.027 81.989 141.009 81.973 L 140.951 81.919 C 140.773 81.755 140.762 81.479 140.925 81.301 C 141.072 81.143 141.311 81.119 141.486 81.232 Z" fill="#000000" stroke="none"/><path d="M 144.996 83.175 L 145.062 83.206 C 145.436 83.38 145.599 83.825 145.424 84.199 C 145.251 84.574 144.806 84.736 144.431 84.562 C 144.401 84.548 144.367 84.529 144.34 84.511 L 144.274 84.469 C 143.93 84.246 143.833 83.786 144.055 83.442 C 144.259 83.128 144.665 83.02 144.996 83.175 Z" fill="#000000" stroke="none"/><path d="M 148.684 84.683 L 148.756 84.707 C 149.259 84.878 149.528 85.425 149.357 85.929 C 149.186 86.432 148.639 86.701 148.135 86.53 C 148.106 86.52 148.076 86.508 148.048 86.495 L 147.974 86.462 C 147.493 86.244 147.279 85.675 147.498 85.193 C 147.703 84.741 148.223 84.528 148.684 84.683 Z" fill="#000000" stroke="none"/><path d="M 152.5 85.801 L 152.574 85.818 C 153.166 85.958 153.532 86.551 153.392 87.143 C 153.253 87.735 152.66 88.101 152.068 87.962 C 152.049 87.957 152.025 87.951 152.006 87.945 L 151.928 87.922 C 151.346 87.748 151.016 87.136 151.19 86.555 C 151.357 85.995 151.938 85.669 152.5 85.801 Z" fill="#000000" stroke="none"/><path d="M 156.4 86.552 L 156.473 86.562 C 157.115 86.656 157.56 87.251 157.467 87.893 C 157.374 88.536 156.778 88.98 156.135 88.887 C 156.13 88.887 156.117 88.884 156.111 88.883 L 156.034 88.871 C 155.394 88.764 154.963 88.159 155.069 87.519 C 155.174 86.888 155.77 86.46 156.4 86.552 Z" fill="#000000" stroke="none"/><path d="M 160.356 86.955 L 160.431 86.96 C 161.09 87.004 161.59 87.574 161.546 88.233 C 161.503 88.884 160.942 89.379 160.294 89.349 L 160.214 89.345 C 159.553 89.312 159.045 88.751 159.077 88.09 C 159.109 87.43 159.671 86.921 160.332 86.953 C 160.338 86.954 160.35 86.955 160.356 86.955 Z" fill="#000000" stroke="none"/><path d="M 164.343 87.053 L 164.42 87.051 C 165.059 87.038 165.588 87.544 165.602 88.184 C 165.615 88.814 165.118 89.339 164.49 89.365 L 164.41 89.368 C 163.77 89.393 163.232 88.895 163.207 88.256 C 163.182 87.617 163.68 87.078 164.319 87.053 C 164.325 87.053 164.338 87.053 164.343 87.053 Z" fill="#000000" stroke="none"/><path d="M 168.347 86.883 L 168.424 86.877 C 169.002 86.83 169.507 87.259 169.555 87.836 C 169.601 88.392 169.199 88.882 168.654 88.96 L 168.574 88.971 C 168 89.051 167.469 88.65 167.389 88.075 C 167.31 87.5 167.712 86.97 168.286 86.89 C 168.305 86.888 168.328 86.885 168.347 86.883 Z" fill="#000000" stroke="none"/><path d="M 172.354 86.474 L 172.432 86.464 C 172.911 86.399 173.351 86.734 173.416 87.212 C 173.477 87.662 173.179 88.078 172.748 88.181 L 172.669 88.2 C 172.196 88.309 171.724 88.015 171.615 87.543 C 171.506 87.07 171.799 86.599 172.271 86.489 C 172.299 86.483 172.328 86.478 172.354 86.474 Z" fill="#000000" stroke="none"/><path d="M 176.363 85.864 L 176.438 85.851 C 176.777 85.79 177.1 86.015 177.161 86.354 C 177.216 86.664 177.031 86.961 176.74 87.056 L 176.667 87.08 C 176.337 87.187 175.982 87.006 175.876 86.676 C 175.768 86.347 175.949 85.992 176.279 85.885 C 176.305 85.876 176.337 85.869 176.363 85.864 Z" fill="#000000" stroke="none"/><path d="M 180.376 85.109 L 180.453 85.093 C 180.594 85.064 180.733 85.156 180.761 85.297 C 180.787 85.421 180.72 85.542 180.609 85.59 L 180.536 85.622 C 180.398 85.68 180.24 85.617 180.181 85.48 C 180.122 85.343 180.185 85.184 180.322 85.125 C 180.34 85.118 180.358 85.112 180.376 85.109 Z" fill="#000000" stroke="none"/><path d="M 82.102 2.083 C 83.744 2.517 84.566 4.58 84.367 7.183 C 86.945 6.28 89.262 6.459 90.156 7.836 C 91.049 9.214 90.27 11.402 88.396 13.39 C 90.854 14.268 92.404 15.859 92.132 17.535 C 91.759 19.834 88.107 21.414 83.974 21.064 C 80.846 20.799 78.343 19.504 77.471 17.893 C 78.004 17.696 78.547 17.441 79.068 17.103 C 81.508 15.519 83.063 13.583 82.541 12.779 C 82.019 11.975 79.618 12.607 77.177 14.19 C 76.656 14.529 76.203 14.921 75.806 15.327 C 74.69 13.875 74.526 11.061 75.557 8.097 C 76.921 4.18 79.85 1.487 82.102 2.083 Z" fill="#000000" stroke="none"/><path d="M 7.919 42.775 C 8.361 41.53 10.015 41.024 12.021 41.347 C 11.486 39.289 11.774 37.503 12.9 36.898 C 14.025 36.293 15.672 37.039 17.094 38.621 C 17.932 36.77 19.267 35.67 20.549 35.989 C 22.309 36.426 23.299 39.361 22.762 42.543 C 22.355 44.953 21.19 46.81 19.884 47.383 C 19.766 46.958 19.603 46.52 19.375 46.094 C 18.302 44.1 16.901 42.769 16.244 43.123 C 15.587 43.476 15.922 45.379 16.994 47.373 C 17.222 47.8 17.498 48.176 17.787 48.51 C 16.589 49.283 14.396 49.229 12.163 48.238 C 9.212 46.93 7.312 44.483 7.919 42.775 Z" fill="#000000" stroke="none"/><path d="M 2.995 60.077 C 2.483 59.19 3.016 57.959 4.214 56.937 C 2.731 56.218 1.821 55.151 2.03 54.183 C 2.239 53.214 3.507 52.616 5.155 52.572 C 4.485 51.147 4.506 49.807 5.339 49.21 C 6.481 48.391 8.712 49.281 10.32 51.199 C 11.538 52.649 12.048 54.272 11.731 55.33 C 11.42 55.186 11.08 55.062 10.713 54.983 C 8.997 54.613 7.507 54.772 7.385 55.337 C 7.263 55.903 8.555 56.662 10.272 57.032 C 10.638 57.111 10.999 57.138 11.341 57.135 C 11.195 58.23 10.061 59.497 8.354 60.318 C 6.098 61.402 3.699 61.293 2.995 60.077 Z" fill="#000000" stroke="none"/><path d="M 9.318 74.332 C 8.533 74.206 8.054 73.284 8.026 72.063 C 6.867 72.604 5.78 72.628 5.3 72.029 C 4.82 71.43 5.081 70.374 5.86 69.361 C 4.675 69.067 3.88 68.399 3.928 67.606 C 3.994 66.518 5.621 65.612 7.561 65.583 C 9.029 65.56 10.256 66.047 10.736 66.756 C 10.498 66.872 10.257 67.016 10.03 67.198 C 8.968 68.049 8.334 69.023 8.615 69.373 C 8.895 69.723 9.984 69.317 11.046 68.466 C 11.273 68.284 11.465 68.08 11.631 67.872 C 12.218 68.497 12.426 69.799 12.084 71.227 C 11.632 73.114 10.394 74.504 9.318 74.332 Z" fill="#000000" stroke="none"/><path d="M 136.012 66.457 C 135.885 68.146 135.429 69.84 134.577 71.306 C 133.74 72.779 132.538 73.989 131.192 74.894 C 128.475 76.702 125.358 77.513 122.278 77.931 C 119.181 78.334 116.057 78.29 112.974 77.966 C 109.887 77.652 106.843 77.014 103.857 76.167 C 97.91 74.425 92.162 71.667 87.362 67.52 C 84.985 65.436 82.872 62.976 81.33 60.135 C 79.767 57.313 78.845 54.101 78.664 50.862 C 78.498 47.62 79.046 44.37 80.163 41.396 C 80.681 39.891 81.37 38.464 82.086 37.065 C 82.44 36.362 82.856 35.696 83.238 35.012 C 83.668 34.341 84.136 33.677 84.593 33.02 C 86.584 30.492 89.292 28.439 92.411 27.483 C 93.968 27.016 95.59 26.788 97.211 26.803 C 98.822 26.868 100.445 27.059 101.98 27.562 C 102.373 27.662 102.755 27.79 103.126 27.947 L 104.254 28.386 C 104.971 28.751 105.721 29.065 106.395 29.514 C 107.798 30.323 109.058 31.372 110.196 32.542 C 111.347 33.706 112.277 35.096 113.033 36.582 C 113.78 38.085 114.182 39.762 114.329 41.461 C 114.427 43.173 114.155 44.891 113.626 46.511 C 113.328 47.3 112.994 48.088 112.603 48.83 C 112.164 49.535 111.8 50.32 111.268 50.951 C 109.306 53.65 106.775 55.761 104.149 57.619 C 103.275 58.237 102.065 58.03 101.447 57.156 C 100.829 56.281 101.036 55.071 101.91 54.453 C 101.962 54.416 102.014 54.383 102.068 54.352 L 102.1 54.334 C 104.618 52.9 106.955 51.157 108.761 49.019 C 109.265 48.515 109.576 47.903 109.996 47.345 C 110.217 47.07 110.316 46.742 110.484 46.443 C 110.626 46.134 110.816 45.838 110.923 45.518 C 111.403 44.25 111.688 42.919 111.681 41.565 C 111.625 40.221 111.388 38.857 110.83 37.581 C 110.256 36.325 109.551 35.08 108.57 34.04 C 107.614 32.989 106.535 32.018 105.307 31.256 C 104.721 30.831 104.059 30.535 103.428 30.182 C 102.759 29.913 102.113 29.568 101.411 29.388 C 100.044 28.899 98.599 28.705 97.165 28.61 C 95.724 28.564 94.286 28.735 92.901 29.114 C 90.146 29.933 87.74 31.752 86.076 34.118 C 85.695 34.739 85.309 35.347 84.945 35.981 C 84.616 36.652 84.252 37.305 83.952 37.986 C 83.346 39.343 82.776 40.715 82.376 42.13 C 81.522 44.943 81.099 47.851 81.253 50.72 C 81.402 53.587 82.16 56.416 83.512 58.975 C 84.826 61.558 86.701 63.857 88.831 65.9 C 93.155 69.954 98.588 72.851 104.296 74.751 C 110.011 76.621 116.157 77.522 122.123 76.768 C 125.072 76.357 128.035 75.468 130.326 73.701 C 132.655 71.974 133.872 69.2 133.573 66.458 C 133.5 65.785 133.986 65.18 134.659 65.106 C 135.333 65.033 135.938 65.519 136.011 66.192 C 136.019 66.266 136.021 66.339 136.016 66.41 L 136.012 66.457 Z" fill="#000000" stroke="none"/><path d="M 111.817 82.504 C 107.358 82.56 102.943 82.454 98.569 81.936 C 94.2 81.381 89.905 80.412 85.746 79.031 C 81.6 77.619 77.578 75.789 73.895 73.386 C 72.999 72.753 72.077 72.152 71.199 71.492 C 70.349 70.795 69.475 70.125 68.645 69.404 C 67.844 68.651 67.003 67.935 66.232 67.148 C 65.494 66.331 64.694 65.564 64.004 64.703 C 62.598 63 61.288 61.205 60.192 59.274 L 59.361 57.829 C 59.086 57.345 58.879 56.827 58.634 56.326 C 58.404 55.819 58.152 55.32 57.938 54.804 L 57.365 53.228 C 56.586 51.126 56.139 48.912 55.815 46.676 C 55.748 45.551 55.607 44.418 55.63 43.283 C 55.685 42.149 55.65 41 55.859 39.874 C 56.431 35.335 58.215 30.933 60.869 27.136 C 63.534 23.335 66.934 20.084 70.654 17.213 L 70.674 17.198 C 71.917 16.239 73.702 16.468 74.661 17.711 C 75.62 18.954 75.39 20.738 74.148 21.697 C 73.952 21.849 73.728 21.976 73.51 22.068 C 69.712 23.663 66.218 26.046 63.498 29.166 C 60.797 32.296 58.953 36.143 58.121 40.241 C 57.849 41.258 57.815 42.31 57.684 43.356 C 57.588 44.404 57.647 45.462 57.631 46.521 C 57.805 48.628 58.096 50.75 58.717 52.8 L 59.173 54.341 C 59.347 54.848 59.56 55.341 59.753 55.842 C 59.959 56.338 60.127 56.852 60.365 57.335 L 61.084 58.783 C 62.063 60.705 63.276 62.506 64.585 64.233 C 65.228 65.106 65.983 65.89 66.677 66.725 C 67.405 67.531 68.206 68.269 68.967 69.046 C 69.767 69.783 70.626 70.455 71.453 71.164 C 72.31 71.833 73.214 72.446 74.091 73.091 C 77.706 75.528 81.657 77.487 85.81 78.837 C 89.954 80.215 94.282 81.017 98.627 81.301 C 102.98 81.515 107.34 81.237 111.595 80.458 L 111.618 80.455 C 112.179 80.351 112.718 80.724 112.821 81.285 C 112.924 81.846 112.551 82.385 111.99 82.487 C 111.934 82.497 111.873 82.503 111.817 82.504 Z" fill="#000000" stroke="none"/><path d="M 68.589 75.542 C 66.431 75.704 64.231 75.381 62.134 74.72 C 60.044 74.032 58.083 72.976 56.257 71.753 C 52.586 69.294 49.545 66.109 46.566 62.998 C 43.597 59.871 40.788 56.641 37.585 53.956 C 35.976 52.634 34.248 51.473 32.365 50.707 C 30.491 49.928 28.45 49.618 26.44 49.837 C 22.46 50.317 18.365 52.4 16.503 55.84 C 15.999 56.675 15.726 57.619 15.5 58.557 C 15.35 59.514 15.257 60.489 15.379 61.462 C 15.554 63.406 16.253 65.317 17.387 66.915 C 19.573 70.194 23.454 72.083 27.201 71.634 C 29.077 71.409 30.897 70.69 32.56 69.659 C 34.222 68.612 35.716 67.263 37.1 65.8 L 37.143 65.754 C 37.877 64.978 39.099 64.944 39.875 65.678 C 40.65 66.411 40.684 67.634 39.951 68.409 C 39.918 68.445 39.88 68.481 39.844 68.514 C 38.145 70.053 36.326 71.492 34.265 72.627 C 32.201 73.742 29.872 74.508 27.45 74.659 C 25.029 74.827 22.556 74.254 20.449 73.104 C 18.322 71.97 16.588 70.242 15.348 68.25 C 14.705 67.265 14.245 66.178 13.839 65.082 C 13.505 63.959 13.218 62.814 13.174 61.633 C 13.07 60.46 13.208 59.273 13.433 58.116 C 13.737 56.975 14.12 55.838 14.756 54.838 C 15.957 52.797 17.783 51.202 19.799 50.142 C 20.816 49.626 21.86 49.178 22.943 48.859 C 23.468 48.656 24.031 48.553 24.585 48.428 C 24.862 48.371 25.136 48.296 25.418 48.254 L 26.27 48.166 C 28.541 47.924 30.874 48.257 33.007 49.044 C 35.146 49.83 37.076 51.036 38.831 52.39 C 42.352 55.108 45.249 58.391 48.094 61.6 C 50.939 64.813 53.767 68.014 57.06 70.656 C 60.331 73.29 64.25 75.225 68.589 75.542 Z" fill="#000000" stroke="none"/><path d="M 56.137 61.089 L 56.072 61.043 C 56.067 61.04 56.066 61.034 56.069 61.03 C 56.072 61.025 56.079 61.024 56.083 61.027 C 56.084 61.028 56.084 61.029 56.085 61.029 L 56.137 61.089 Z" fill="#000000" stroke="none"/><path d="M 53.094 58.257 L 53.044 58.196 C 52.89 58.01 52.917 57.733 53.103 57.579 C 53.29 57.425 53.566 57.451 53.72 57.638 C 53.736 57.657 53.752 57.679 53.763 57.7 L 53.8 57.766 C 53.921 57.972 53.85 58.236 53.644 58.356 C 53.46 58.463 53.226 58.415 53.094 58.257 Z" fill="#000000" stroke="none"/><path d="M 50.762 54.765 L 50.724 54.694 C 50.53 54.335 50.664 53.887 51.022 53.692 C 51.382 53.498 51.83 53.632 52.024 53.991 C 52.039 54.018 52.053 54.051 52.065 54.08 L 52.092 54.151 C 52.238 54.529 52.05 54.954 51.674 55.101 C 51.326 55.235 50.936 55.083 50.762 54.765 Z" fill="#000000" stroke="none"/><path d="M 49.089 50.889 L 49.062 50.812 C 48.893 50.313 49.16 49.772 49.658 49.602 C 50.156 49.433 50.698 49.699 50.868 50.198 C 50.878 50.226 50.885 50.256 50.892 50.285 L 50.91 50.359 L 50.912 50.365 C 51.033 50.875 50.717 51.387 50.207 51.508 C 49.727 51.622 49.246 51.346 49.089 50.889 Z" fill="#000000" stroke="none"/><path d="M 48.055 46.785 L 48.041 46.703 C 47.939 46.108 48.339 45.542 48.934 45.44 C 49.529 45.338 50.094 45.738 50.197 46.333 C 50.2 46.353 50.203 46.376 50.206 46.396 L 50.215 46.472 L 50.215 46.477 C 50.283 47.076 49.852 47.616 49.254 47.684 C 48.676 47.749 48.153 47.349 48.055 46.785 Z" fill="#000000" stroke="none"/><path d="M 47.66 42.554 L 47.659 42.471 C 47.651 41.824 48.17 41.293 48.817 41.286 C 49.464 41.278 49.995 41.796 50.003 42.443 C 50.003 42.449 50.003 42.462 50.003 42.468 L 50.002 42.544 C 50 43.191 49.473 43.713 48.827 43.711 C 48.188 43.709 47.671 43.19 47.66 42.554 Z" fill="#000000" stroke="none"/><path d="M 47.919 38.299 L 47.931 38.217 C 48.031 37.561 48.644 37.112 49.299 37.212 C 49.946 37.31 50.392 37.915 50.307 38.561 L 50.297 38.637 C 50.211 39.294 49.607 39.758 48.95 39.671 C 48.292 39.585 47.829 38.982 47.915 38.324 C 47.916 38.319 47.918 38.305 47.919 38.299 Z" fill="#000000" stroke="none"/><path d="M 48.878 34.136 L 48.903 34.057 C 49.095 33.444 49.749 33.105 50.36 33.298 C 50.965 33.489 51.301 34.134 51.124 34.739 L 51.102 34.812 C 50.922 35.428 50.276 35.782 49.66 35.601 C 49.044 35.421 48.69 34.776 48.871 34.159 C 48.872 34.154 48.876 34.141 48.878 34.136 Z" fill="#000000" stroke="none"/><path d="M 50.535 30.199 L 50.573 30.125 C 50.847 29.606 51.491 29.407 52.01 29.682 C 52.51 29.946 52.713 30.553 52.481 31.061 L 52.477 31.069 L 52.446 31.139 C 52.202 31.674 51.57 31.91 51.034 31.665 C 50.499 31.421 50.263 30.789 50.507 30.254 C 50.515 30.236 50.526 30.215 50.535 30.199 Z" fill="#000000" stroke="none"/><path d="M 52.858 26.632 L 52.909 26.567 C 53.218 26.176 53.785 26.11 54.175 26.419 C 54.543 26.709 54.623 27.228 54.375 27.613 L 54.37 27.622 L 54.328 27.686 C 54.055 28.106 53.495 28.226 53.075 27.954 C 52.656 27.682 52.536 27.121 52.807 26.701 C 52.823 26.678 52.84 26.653 52.858 26.632 Z" fill="#000000" stroke="none"/><path d="M 55.766 23.566 L 55.825 23.515 C 56.101 23.273 56.522 23.301 56.764 23.578 C 56.986 23.831 56.978 24.208 56.763 24.455 L 56.715 24.511 C 56.472 24.791 56.049 24.821 55.768 24.579 C 55.488 24.335 55.458 23.912 55.701 23.632 C 55.72 23.609 55.745 23.585 55.766 23.566 Z" fill="#000000" stroke="none"/><path d="M 59.135 21.096 L 59.204 21.055 C 59.363 20.961 59.568 21.014 59.663 21.173 C 59.745 21.311 59.714 21.487 59.599 21.592 L 59.542 21.644 C 59.402 21.772 59.184 21.762 59.056 21.622 C 58.929 21.482 58.939 21.266 59.079 21.138 C 59.095 21.122 59.116 21.107 59.135 21.096 Z" fill="#000000" stroke="none"/><path d="M 41.406 72.747 L 41.4 72.827 C 41.4 72.837 41.391 72.844 41.382 72.844 C 41.371 72.843 41.363 72.834 41.364 72.824 C 41.364 72.821 41.365 72.818 41.367 72.816 L 41.406 72.747 Z" fill="#000000" stroke="none"/><path d="M 39.244 76.405 L 39.18 76.458 C 38.903 76.697 38.485 76.664 38.247 76.387 C 38.008 76.109 38.04 75.691 38.318 75.453 C 38.355 75.42 38.403 75.389 38.445 75.367 L 38.51 75.333 L 38.523 75.327 C 38.843 75.161 39.237 75.287 39.403 75.607 C 39.545 75.883 39.471 76.212 39.244 76.405 Z" fill="#000000" stroke="none"/><path d="M 35.499 78.581 L 35.423 78.609 C 34.893 78.808 34.303 78.539 34.104 78.01 C 33.906 77.481 34.174 76.891 34.703 76.692 C 34.735 76.68 34.769 76.669 34.801 76.661 L 34.872 76.642 L 34.882 76.64 C 35.425 76.496 35.984 76.821 36.128 77.365 C 36.261 77.875 35.981 78.398 35.499 78.581 Z" fill="#000000" stroke="none"/><path d="M 31.348 79.664 L 31.262 79.677 C 30.615 79.775 30.01 79.329 29.913 78.681 C 29.815 78.033 30.261 77.429 30.909 77.331 C 30.925 77.329 30.948 77.327 30.965 77.325 L 31.044 77.316 L 31.05 77.316 C 31.701 77.248 32.283 77.721 32.349 78.372 C 32.415 79.003 31.969 79.57 31.348 79.664 Z" fill="#000000" stroke="none"/><path d="M 27.063 79.864 L 26.979 79.859 C 26.328 79.82 25.833 79.26 25.872 78.609 C 25.91 77.979 26.436 77.494 27.061 77.5 L 27.071 77.5 L 27.147 77.501 C 27.8 77.509 28.324 78.044 28.316 78.697 C 28.309 79.35 27.774 79.873 27.121 79.866 C 27.103 79.866 27.081 79.865 27.063 79.864 Z" fill="#000000" stroke="none"/><path d="M 22.815 79.154 L 22.734 79.128 C 22.202 78.963 21.905 78.397 22.071 77.865 C 22.22 77.385 22.695 77.096 23.177 77.166 L 23.191 77.168 L 23.266 77.179 C 23.822 77.259 24.207 77.774 24.127 78.33 C 24.047 78.885 23.531 79.27 22.976 79.19 C 22.923 79.183 22.864 79.168 22.815 79.154 Z" fill="#000000" stroke="none"/><path d="M 18.894 77.336 L 18.822 77.287 C 18.533 77.093 18.456 76.702 18.65 76.413 C 18.819 76.162 19.136 76.071 19.406 76.178 L 19.417 76.183 L 19.49 76.212 C 19.818 76.342 19.978 76.715 19.847 77.043 C 19.717 77.371 19.345 77.532 19.016 77.401 C 18.974 77.384 18.93 77.36 18.894 77.336 Z" fill="#000000" stroke="none"/><path d="M 131.476 78.698 L 131.444 78.768 C 131.441 78.772 131.435 78.775 131.43 78.772 C 131.425 78.77 131.424 78.764 131.425 78.759 C 131.426 78.758 131.426 78.757 131.426 78.757 L 131.476 78.698 Z" fill="#000000" stroke="none"/><path d="M 128.856 81.919 L 128.798 81.973 C 128.618 82.139 128.337 82.128 128.171 81.947 C 128.005 81.767 128.015 81.486 128.196 81.32 C 128.215 81.303 128.236 81.287 128.257 81.273 L 128.321 81.232 C 128.523 81.1 128.794 81.156 128.926 81.358 C 129.045 81.539 129.009 81.777 128.856 81.919 Z" fill="#000000" stroke="none"/><path d="M 125.533 84.469 L 125.467 84.511 C 125.122 84.736 124.658 84.638 124.433 84.291 C 124.209 83.945 124.307 83.482 124.653 83.257 C 124.681 83.238 124.715 83.22 124.745 83.206 L 124.812 83.175 C 125.182 82.999 125.626 83.158 125.8 83.529 C 125.961 83.868 125.838 84.269 125.533 84.469 Z" fill="#000000" stroke="none"/><path d="M 121.833 86.462 L 121.759 86.495 C 121.276 86.715 120.705 86.501 120.485 86.017 C 120.265 85.533 120.479 84.962 120.964 84.742 C 120.992 84.729 121.022 84.717 121.051 84.707 L 121.123 84.683 C 121.624 84.51 122.17 84.775 122.342 85.276 C 122.505 85.745 122.273 86.258 121.833 86.462 Z" fill="#000000" stroke="none"/><path d="M 117.88 87.922 L 117.801 87.945 C 117.219 88.119 116.605 87.788 116.431 87.205 C 116.257 86.622 116.589 86.009 117.172 85.835 C 117.191 85.83 117.215 85.823 117.234 85.818 L 117.308 85.801 C 117.898 85.659 118.491 86.022 118.633 86.612 C 118.769 87.18 118.43 87.753 117.88 87.922 Z" fill="#000000" stroke="none"/><path d="M 113.774 88.871 L 113.696 88.883 C 113.056 88.99 112.451 88.559 112.344 87.918 C 112.237 87.278 112.67 86.673 113.309 86.566 C 113.315 86.565 113.328 86.563 113.334 86.562 L 113.407 86.552 C 114.049 86.456 114.646 86.898 114.741 87.539 C 114.836 88.173 114.402 88.764 113.774 88.871 Z" fill="#000000" stroke="none"/><path d="M 109.593 89.345 L 109.514 89.349 C 108.854 89.381 108.293 88.872 108.26 88.212 C 108.228 87.561 108.728 87.005 109.376 86.96 L 109.451 86.955 C 110.111 86.908 110.683 87.406 110.729 88.065 C 110.776 88.725 110.278 89.297 109.619 89.343 C 109.613 89.344 109.599 89.345 109.593 89.345 Z" fill="#000000" stroke="none"/><path d="M 105.398 89.368 L 105.318 89.365 C 104.679 89.34 104.181 88.802 104.206 88.163 C 104.231 87.533 104.759 87.039 105.387 87.051 L 105.465 87.053 C 106.103 87.064 106.613 87.592 106.601 88.232 C 106.59 88.872 106.061 89.38 105.422 89.369 C 105.417 89.369 105.403 89.368 105.398 89.368 Z" fill="#000000" stroke="none"/><path d="M 101.233 88.971 L 101.153 88.96 C 100.58 88.881 100.179 88.351 100.258 87.778 C 100.335 87.226 100.835 86.835 101.382 86.877 L 101.46 86.883 C 102.039 86.929 102.47 87.435 102.424 88.014 C 102.379 88.592 101.873 89.024 101.295 88.978 C 101.275 88.976 101.252 88.974 101.233 88.971 Z" fill="#000000" stroke="none"/><path d="M 97.139 88.2 L 97.06 88.181 C 96.59 88.072 96.298 87.602 96.406 87.132 C 96.508 86.691 96.935 86.407 97.375 86.464 L 97.453 86.474 C 97.933 86.538 98.271 86.979 98.208 87.46 C 98.143 87.94 97.703 88.278 97.221 88.214 C 97.194 88.211 97.166 88.205 97.139 88.2 Z" fill="#000000" stroke="none"/><path d="M 93.14 87.08 L 93.067 87.056 C 92.74 86.95 92.561 86.599 92.668 86.271 C 92.764 85.972 93.068 85.797 93.369 85.851 L 93.444 85.864 C 93.786 85.924 94.013 86.25 93.953 86.592 C 93.893 86.933 93.567 87.161 93.225 87.101 C 93.198 87.096 93.167 87.088 93.14 87.08 Z" fill="#000000" stroke="none"/><path d="M 89.272 85.622 L 89.199 85.59 C 89.066 85.533 89.005 85.379 89.061 85.247 C 89.111 85.13 89.235 85.069 89.354 85.093 L 89.431 85.109 C 89.578 85.138 89.673 85.281 89.643 85.427 C 89.614 85.573 89.471 85.667 89.325 85.638 C 89.307 85.634 89.289 85.628 89.272 85.622 Z" fill="#000000" stroke="none"/>
</svg>
