<?xml version="1.0" encoding="UTF-8"?>
<svg xmlns="http://www.w3.org/2000/svg" width="158.164" height="297.001" viewBox="0 0 158.164 297.001">
  <path d="M 134.638 287.523 L 134.569 287.481 C 134.461 287.417 134.425 287.278 134.49 287.17 C 134.554 287.062 134.694 287.027 134.802 287.092 C 134.809 287.096 134.816 287.1 134.822 287.105 L 134.886 287.153 C 134.985 287.227 135.004 287.367 134.93 287.466 C 134.862 287.557 134.734 287.58 134.638 287.523 Z" fill="#000000" stroke="none"/><path d="M 127.936 283.347 L 127.869 283.304 C 127.587 283.119 127.508 282.742 127.692 282.461 C 127.877 282.18 128.253 282.101 128.535 282.285 C 128.548 282.294 128.562 282.304 128.575 282.314 L 128.638 282.363 C 128.902 282.568 128.95 282.948 128.745 283.212 C 128.55 283.462 128.197 283.516 127.936 283.347 Z" fill="#000000" stroke="none"/><path d="M 121.387 278.917 L 121.322 278.871 C 120.902 278.577 120.799 277.998 121.093 277.578 C 121.387 277.158 121.966 277.055 122.386 277.349 C 122.407 277.364 122.427 277.38 122.447 277.395 L 122.508 277.446 C 122.901 277.772 122.956 278.355 122.63 278.749 C 122.322 279.122 121.778 279.187 121.387 278.917 Z" fill="#000000" stroke="none"/><path d="M 115.008 274.228 L 114.945 274.179 C 114.419 273.775 114.322 273.022 114.725 272.498 C 115.129 271.972 115.882 271.875 116.407 272.278 C 116.425 272.293 116.446 272.309 116.463 272.324 L 116.523 272.377 C 117.022 272.81 117.075 273.566 116.641 274.065 C 116.225 274.545 115.506 274.609 115.008 274.228 Z" fill="#000000" stroke="none"/><path d="M 108.824 269.266 L 108.762 269.215 C 108.163 268.708 108.086 267.811 108.593 267.212 C 109.1 266.612 109.997 266.536 110.596 267.043 C 110.612 267.055 110.63 267.072 110.645 267.085 L 110.704 267.139 C 111.279 267.672 111.315 268.569 110.783 269.145 C 110.266 269.705 109.401 269.752 108.824 269.266 Z" fill="#000000" stroke="none"/><path d="M 102.864 264.019 L 102.804 263.966 C 102.154 263.368 102.111 262.356 102.709 261.706 C 103.306 261.055 104.318 261.013 104.968 261.61 C 104.985 261.626 105.004 261.645 105.02 261.661 L 105.076 261.717 C 105.699 262.343 105.696 263.353 105.071 263.975 C 104.463 264.58 103.489 264.592 102.864 264.019 Z" fill="#000000" stroke="none"/><path d="M 97.158 258.477 L 97.102 258.42 C 96.431 257.732 96.445 256.633 97.132 255.962 C 97.82 255.292 98.92 255.305 99.59 255.992 C 99.601 256.003 99.617 256.019 99.627 256.03 L 99.679 256.089 C 100.33 256.795 100.284 257.893 99.578 258.543 C 98.885 259.18 97.812 259.145 97.158 258.477 Z" fill="#000000" stroke="none"/><path d="M 91.742 252.632 L 91.688 252.571 C 91.012 251.801 91.088 250.629 91.859 249.953 C 92.628 249.277 93.8 249.354 94.476 250.124 C 94.486 250.136 94.502 250.154 94.512 250.166 L 94.562 250.227 C 95.215 251.015 95.105 252.183 94.316 252.837 C 93.543 253.477 92.401 253.38 91.742 252.632 Z" fill="#000000" stroke="none"/><path d="M 86.683 246.451 L 86.633 246.387 C 85.987 245.542 86.148 244.333 86.993 243.686 C 87.837 243.04 89.046 243.201 89.693 244.046 C 89.696 244.05 89.706 244.063 89.71 244.067 L 89.756 244.131 C 90.391 244.983 90.214 246.19 89.362 246.825 C 88.516 247.455 87.322 247.284 86.683 246.451 Z" fill="#000000" stroke="none"/><path d="M 82.028 239.938 L 81.983 239.87 C 81.377 238.959 81.627 237.73 82.538 237.125 C 83.449 236.52 84.678 236.768 85.283 237.679 C 85.286 237.684 85.295 237.699 85.298 237.704 L 85.34 237.769 C 85.934 238.688 85.669 239.914 84.751 240.507 C 83.84 241.095 82.627 240.837 82.028 239.938 Z" fill="#000000" stroke="none"/><path d="M 77.876 233.071 L 77.836 233 C 77.309 232.035 77.664 230.825 78.629 230.297 C 79.59 229.771 80.796 230.124 81.327 231.081 L 81.365 231.149 C 81.899 232.11 81.552 233.323 80.59 233.857 C 79.629 234.391 78.417 234.045 77.882 233.083 L 77.876 233.071 Z" fill="#000000" stroke="none"/><path d="M 74.333 225.851 L 74.3 225.775 C 73.877 224.786 74.338 223.641 75.328 223.22 C 76.298 222.805 77.421 223.247 77.862 224.198 L 77.895 224.269 C 78.346 225.247 77.919 226.405 76.943 226.856 C 75.965 227.307 74.807 226.882 74.356 225.904 C 74.349 225.889 74.338 225.866 74.333 225.851 Z" fill="#000000" stroke="none"/><path d="M 71.52 218.303 L 71.497 218.223 C 71.202 217.256 71.748 216.233 72.715 215.938 C 73.65 215.654 74.639 216.162 74.971 217.067 L 74.998 217.141 C 75.344 218.093 74.854 219.145 73.903 219.492 C 72.951 219.839 71.899 219.348 71.552 218.396 C 71.542 218.367 71.53 218.332 71.52 218.303 Z" fill="#000000" stroke="none"/><path d="M 69.572 210.484 L 69.556 210.404 C 69.387 209.525 69.961 208.677 70.839 208.507 C 71.688 208.344 72.51 208.882 72.718 209.709 L 72.738 209.785 C 72.955 210.654 72.425 211.534 71.556 211.751 C 70.687 211.968 69.807 211.439 69.59 210.57 C 69.584 210.544 69.577 210.512 69.572 210.484 Z" fill="#000000" stroke="none"/><path d="M 68.485 202.513 L 68.479 202.431 C 68.418 201.656 68.997 200.979 69.772 200.919 C 70.52 200.859 71.178 201.404 71.277 202.139 L 71.288 202.217 C 71.39 202.989 70.848 203.697 70.076 203.801 C 69.304 203.903 68.595 203.36 68.493 202.589 C 68.49 202.565 68.487 202.537 68.485 202.513 Z" fill="#000000" stroke="none"/><path d="M 68.323 194.489 L 68.326 194.407 C 68.351 193.751 68.904 193.24 69.56 193.265 C 70.193 193.29 70.691 193.81 70.703 194.435 L 70.704 194.514 C 70.715 195.173 70.191 195.715 69.534 195.726 C 68.876 195.738 68.334 195.214 68.322 194.556 C 68.322 194.535 68.322 194.51 68.323 194.489 Z" fill="#000000" stroke="none"/><path d="M 69.09 186.526 L 69.103 186.445 C 69.185 185.917 69.681 185.554 70.21 185.637 C 70.72 185.717 71.075 186.184 71.025 186.692 L 71.017 186.771 C 70.964 187.304 70.489 187.695 69.956 187.642 C 69.421 187.59 69.031 187.114 69.084 186.581 C 69.085 186.563 69.087 186.543 69.09 186.526 Z" fill="#000000" stroke="none"/><path d="M 70.698 178.717 L 70.718 178.638 C 70.83 178.208 71.269 177.949 71.7 178.061 C 72.121 178.171 72.376 178.596 72.282 179.017 L 72.264 179.096 C 72.168 179.529 71.737 179.803 71.302 179.706 C 70.868 179.609 70.594 179.178 70.691 178.743 C 70.693 178.735 70.696 178.724 70.698 178.717 Z" fill="#000000" stroke="none"/><path d="M 73.059 171.123 L 73.086 171.048 C 73.219 170.679 73.627 170.488 73.995 170.621 C 74.361 170.753 74.551 171.156 74.423 171.522 L 74.398 171.596 C 74.269 171.968 73.865 172.164 73.495 172.035 C 73.124 171.906 72.928 171.502 73.056 171.132 C 73.057 171.13 73.059 171.125 73.059 171.123 Z" fill="#000000" stroke="none"/><path d="M 76.096 163.789 L 76.13 163.716 C 76.285 163.379 76.683 163.23 77.02 163.385 C 77.358 163.54 77.505 163.938 77.351 164.275 L 77.348 164.281 L 77.315 164.353 C 77.158 164.688 76.758 164.834 76.422 164.677 C 76.088 164.52 75.944 164.124 76.096 163.789 Z" fill="#000000" stroke="none"/><path d="M 79.701 156.724 L 79.741 156.653 C 79.932 156.314 80.362 156.194 80.701 156.386 C 81.04 156.576 81.16 157.006 80.969 157.346 L 80.965 157.351 L 80.926 157.42 C 80.733 157.758 80.302 157.875 79.964 157.681 C 79.628 157.489 79.512 157.061 79.701 156.724 Z" fill="#000000" stroke="none"/><path d="M 83.802 149.937 L 83.846 149.87 C 84.085 149.505 84.573 149.402 84.938 149.639 C 85.303 149.878 85.406 150.367 85.168 150.731 C 85.166 150.736 85.16 150.744 85.157 150.749 L 85.112 150.814 C 84.866 151.173 84.375 151.263 84.016 151.016 C 83.664 150.774 83.571 150.294 83.802 149.937 Z" fill="#000000" stroke="none"/><path d="M 88.158 143.376 L 88.185 143.333 C 88.457 142.893 89.032 142.759 89.471 143.03 C 89.91 143.302 90.045 143.877 89.774 144.316 C 89.762 144.335 89.749 144.355 89.736 144.373 L 89.707 144.414 C 89.404 144.831 88.821 144.925 88.404 144.622 C 88.006 144.334 87.905 143.787 88.158 143.376 Z" fill="#000000" stroke="none"/><path d="M 92.197 136.702 L 92.221 136.658 C 92.52 136.119 93.2 135.926 93.738 136.224 C 94.277 136.523 94.47 137.203 94.171 137.741 C 94.159 137.764 94.143 137.789 94.129 137.811 L 94.101 137.853 C 93.764 138.368 93.074 138.512 92.559 138.175 C 92.069 137.853 91.918 137.207 92.197 136.702 Z" fill="#000000" stroke="none"/><path d="M 95.906 129.848 L 95.928 129.804 C 96.246 129.155 97.03 128.887 97.678 129.204 C 98.328 129.521 98.596 130.304 98.279 130.954 C 98.262 130.986 98.244 131.02 98.226 131.051 L 98.2 131.095 C 97.83 131.714 97.027 131.915 96.409 131.545 C 95.823 131.194 95.614 130.452 95.906 129.848 Z" fill="#000000" stroke="none"/><path d="M 99.275 122.832 L 99.295 122.786 C 99.628 122.017 100.521 121.664 101.29 121.997 C 102.058 122.33 102.412 123.222 102.079 123.991 C 102.062 124.029 102.043 124.07 102.023 124.106 L 101.999 124.151 C 101.603 124.888 100.685 125.165 99.948 124.769 C 99.251 124.395 98.969 123.546 99.275 122.832 Z" fill="#000000" stroke="none"/><path d="M 102.321 115.68 L 102.339 115.634 C 102.681 114.753 103.673 114.315 104.555 114.658 C 105.436 115.001 105.873 115.992 105.531 116.874 C 105.517 116.908 105.501 116.946 105.486 116.979 L 105.463 117.025 C 105.064 117.881 104.045 118.251 103.19 117.85 C 102.372 117.468 102.001 116.512 102.321 115.68 Z" fill="#000000" stroke="none"/><path d="M 105.058 108.416 L 105.074 108.369 C 105.413 107.393 106.478 106.876 107.454 107.215 C 108.43 107.553 108.947 108.618 108.609 109.595 C 108.6 109.619 108.588 109.65 108.579 109.675 L 108.559 109.722 C 108.177 110.68 107.089 111.148 106.131 110.765 C 105.201 110.394 104.735 109.353 105.058 108.416 Z" fill="#000000" stroke="none"/><path d="M 107.485 101.053 L 107.499 101.006 C 107.806 99.955 108.908 99.352 109.959 99.66 C 111.009 99.968 111.612 101.069 111.304 102.12 C 111.296 102.147 111.286 102.181 111.276 102.208 L 111.26 102.256 C 110.904 103.29 109.777 103.841 108.742 103.485 C 107.738 103.139 107.191 102.061 107.485 101.053 Z" fill="#000000" stroke="none"/><path d="M 109.568 93.595 L 109.58 93.547 C 109.852 92.438 110.973 91.761 112.082 92.033 C 113.19 92.306 113.868 93.427 113.595 94.536 C 113.59 94.554 113.583 94.582 113.578 94.601 L 113.564 94.649 C 113.255 95.748 112.114 96.388 111.015 96.08 C 109.939 95.777 109.304 94.672 109.568 93.595 Z" fill="#000000" stroke="none"/><path d="M 111.269 86.05 L 111.278 86.003 C 111.5 84.839 112.624 84.074 113.788 84.296 C 114.952 84.518 115.716 85.641 115.494 86.805 C 115.491 86.826 115.484 86.855 115.48 86.876 L 115.469 86.924 C 115.209 88.08 114.061 88.805 112.905 88.546 C 111.774 88.291 111.055 87.18 111.269 86.05 Z" fill="#000000" stroke="none"/><path d="M 112.554 78.435 L 112.56 78.389 C 112.722 77.171 113.84 76.314 115.058 76.476 C 116.276 76.638 117.132 77.756 116.971 78.973 C 116.968 78.995 116.963 79.026 116.96 79.048 L 116.952 79.096 C 116.75 80.306 115.604 81.125 114.393 80.923 C 113.208 80.725 112.399 79.618 112.554 78.435 Z" fill="#000000" stroke="none"/><path d="M 113.391 70.775 L 113.395 70.729 C 113.484 69.461 114.585 68.505 115.854 68.595 C 117.123 68.684 118.079 69.785 117.989 71.054 C 117.987 71.077 117.984 71.11 117.982 71.133 L 117.977 71.18 C 117.844 72.445 116.711 73.362 115.447 73.229 C 114.21 73.099 113.306 72.006 113.391 70.775 Z" fill="#000000" stroke="none"/><path d="M 113.751 63.097 L 113.752 63.053 C 113.776 61.745 114.856 60.704 116.164 60.728 C 117.471 60.753 118.511 61.833 118.487 63.14 L 118.487 63.151 L 118.486 63.198 C 118.456 64.506 117.371 65.541 116.063 65.511 C 114.755 65.48 113.72 64.405 113.751 63.097 Z" fill="#000000" stroke="none"/><path d="M 113.624 55.435 L 113.622 55.391 C 113.547 54.081 114.55 52.958 115.862 52.884 C 117.173 52.81 118.295 53.813 118.37 55.125 L 118.371 55.136 L 118.373 55.18 C 118.44 56.492 117.432 57.61 116.121 57.678 C 114.809 57.746 113.692 56.746 113.624 55.435 Z" fill="#000000" stroke="none"/><path d="M 112.892 47.835 L 112.886 47.794 C 112.723 46.487 113.649 45.295 114.956 45.132 C 116.237 44.971 117.409 45.865 117.608 47.131 L 117.615 47.175 C 117.818 48.475 116.927 49.695 115.626 49.898 C 114.324 50.1 113.105 49.21 112.902 47.908 C 112.899 47.888 112.894 47.855 112.892 47.835 Z" fill="#000000" stroke="none"/><path d="M 111.539 40.353 L 111.53 40.314 C 111.246 39.065 112.028 37.822 113.278 37.538 C 114.502 37.259 115.721 38.012 116.038 39.216 L 116.048 39.257 C 116.372 40.497 115.627 41.764 114.387 42.088 C 113.147 42.411 111.879 41.667 111.556 40.427 C 111.551 40.406 111.543 40.374 111.539 40.353 Z" fill="#000000" stroke="none"/><path d="M 109.396 33.099 L 109.37 33.027 C 108.942 31.857 109.543 30.561 110.713 30.134 C 111.872 29.711 113.155 30.302 113.595 31.447 L 113.626 31.525 C 114.07 32.689 113.487 33.994 112.323 34.438 C 111.159 34.883 109.855 34.3 109.41 33.136 C 109.407 33.128 109.399 33.107 109.396 33.099 Z" fill="#000000" stroke="none"/><path d="M 106.366 26.176 L 106.33 26.108 L 106.327 26.102 C 105.773 25.046 106.18 23.739 107.237 23.185 C 108.273 22.641 109.551 23.026 110.123 24.037 L 110.164 24.11 C 110.751 25.15 110.383 26.469 109.342 27.055 C 108.302 27.642 106.984 27.274 106.397 26.234 C 106.388 26.218 106.375 26.192 106.366 26.176 Z" fill="#000000" stroke="none"/><path d="M 102.348 19.825 L 102.301 19.763 L 102.297 19.759 C 101.614 18.861 101.787 17.58 102.683 16.896 C 103.563 16.226 104.814 16.383 105.506 17.234 L 105.56 17.3 C 106.271 18.176 106.136 19.463 105.26 20.174 C 104.384 20.885 103.097 20.75 102.386 19.874 C 102.376 19.86 102.358 19.839 102.348 19.825 Z" fill="#000000" stroke="none"/><path d="M 97.288 14.306 L 97.231 14.255 L 97.225 14.25 C 96.444 13.547 96.381 12.344 97.085 11.562 C 97.77 10.803 98.931 10.725 99.712 11.37 L 99.777 11.424 C 100.587 12.095 100.701 13.296 100.03 14.105 C 99.359 14.916 98.159 15.029 97.348 14.358 C 97.33 14.344 97.305 14.322 97.288 14.306 Z" fill="#000000" stroke="none"/><path d="M 91.243 9.879 L 91.177 9.84 L 91.17 9.836 C 90.341 9.351 90.062 8.287 90.546 7.458 C 91.018 6.651 92.043 6.367 92.861 6.799 L 92.935 6.838 C 93.785 7.287 94.109 8.341 93.66 9.189 C 93.21 10.039 92.157 10.363 91.307 9.914 C 91.288 9.903 91.262 9.889 91.243 9.879 Z" fill="#000000" stroke="none"/><path d="M 84.4 6.708 L 84.327 6.682 L 84.321 6.68 C 83.521 6.398 83.1 5.52 83.382 4.72 C 83.654 3.949 84.482 3.532 85.257 3.754 L 85.337 3.777 C 86.154 4.012 86.626 4.865 86.391 5.681 C 86.156 6.499 85.303 6.971 84.486 6.735 C 84.459 6.727 84.426 6.718 84.4 6.708 Z" fill="#000000" stroke="none"/><path d="M 77.016 4.831 L 76.939 4.818 C 76.226 4.703 75.741 4.032 75.855 3.319 C 75.965 2.632 76.6 2.157 77.283 2.225 L 77.365 2.234 C 78.085 2.309 78.607 2.954 78.532 3.674 C 78.457 4.393 77.812 4.916 77.092 4.841 C 77.068 4.838 77.04 4.834 77.016 4.831 Z" fill="#000000" stroke="none"/><path d="M 69.349 4.163 L 69.271 4.162 C 68.675 4.154 68.198 3.665 68.206 3.069 C 68.212 2.495 68.672 2.031 69.238 2.005 L 69.319 2.001 C 69.916 1.974 70.42 2.437 70.447 3.034 C 70.472 3.631 70.009 4.136 69.413 4.162 C 69.393 4.163 69.369 4.163 69.349 4.163 Z" fill="#000000" stroke="none"/><path d="M 61.592 4.47 L 61.513 4.477 C 61.078 4.519 60.69 4.2 60.648 3.764 C 60.608 3.35 60.898 2.98 61.299 2.907 L 61.379 2.893 C 61.812 2.817 62.225 3.106 62.301 3.539 C 62.377 3.972 62.088 4.385 61.655 4.461 C 61.635 4.465 61.613 4.468 61.592 4.47 Z" fill="#000000" stroke="none"/><path d="M 81.021 20.211 C 88.125 18.804 95.415 17.918 102.778 18.317 C 106.453 18.516 110.147 18.994 113.774 19.929 C 117.394 20.877 120.936 22.304 124.224 24.26 C 127.536 26.182 130.475 28.792 132.924 31.789 C 135.34 34.817 137.244 38.247 138.593 41.845 C 141.3 49.076 141.885 56.793 141.533 64.244 C 141.187 71.733 139.759 79.062 137.834 86.186 C 135.909 93.318 133.472 100.275 130.596 107.025 C 129.15 110.395 127.661 113.745 126.053 117.033 C 124.417 120.306 122.743 123.557 120.974 126.754 C 119.237 129.967 117.373 133.106 115.474 136.219 C 113.574 139.331 111.629 142.413 109.606 145.44 C 107.587 148.471 105.526 151.469 103.417 154.431 C 101.347 157.388 99.081 160.346 97.095 163.208 C 93.167 169.064 90.155 175.616 88.668 182.591 C 87.911 186.069 87.485 189.629 87.38 193.206 C 87.307 196.785 87.554 200.374 88.072 203.928 C 89.078 211.05 91.273 217.974 94.041 224.621 C 99.672 237.925 107.882 249.975 116.9 261.204 C 121.435 266.815 126.231 272.21 131.168 277.471 C 136.102 282.752 141.209 287.806 146.176 293.163 C 146.587 293.606 146.561 294.299 146.119 294.71 C 145.83 294.977 145.435 295.059 145.082 294.962 L 145.067 294.958 C 140.183 293.593 135.507 291.885 130.861 290.001 C 126.223 288.119 121.691 285.982 117.253 283.665 C 108.385 279.018 99.918 273.553 92.168 267.157 C 84.433 260.763 77.377 253.436 71.688 245.095 C 65.97 236.793 61.607 227.505 58.916 217.804 C 56.131 208.156 54.663 197.954 55.696 187.846 C 56.176 182.804 57.247 177.819 58.851 173.03 C 60.445 168.234 62.551 163.637 64.96 159.238 C 69.78 150.423 75.877 142.511 81.04 134.089 C 83.601 129.872 85.966 125.52 87.574 120.859 C 89.201 116.216 89.985 111.262 89.738 106.313 C 89.734 106.237 89.793 106.172 89.87 106.168 C 89.945 106.164 90.009 106.221 90.015 106.294 C 90.456 111.263 89.857 116.331 88.382 121.121 C 86.915 125.921 84.721 130.469 82.218 134.787 C 77.21 143.431 71.375 151.505 66.836 160.245 C 62.228 168.919 59.02 178.343 58.298 188.079 C 57.516 197.799 58.903 207.617 61.655 217.013 C 64.312 226.456 68.536 235.381 74.109 243.43 C 79.682 251.471 86.41 258.717 93.957 265.006 C 101.49 271.316 109.765 276.747 118.46 281.382 C 122.806 283.703 127.268 285.809 131.798 287.753 C 136.326 289.674 140.974 291.448 145.639 292.831 L 144.529 294.625 C 142.168 291.951 139.655 289.334 137.19 286.689 C 134.71 284.053 132.272 281.372 129.86 278.668 C 125.035 273.26 120.369 267.703 115.939 261.963 C 111.5 256.233 107.305 250.305 103.503 244.132 C 99.716 237.954 96.226 231.577 93.398 224.893 C 90.525 218.233 88.351 211.256 87.09 204.083 C 86.473 200.495 86.127 196.852 86.108 193.198 C 86.051 189.546 86.315 185.876 86.932 182.256 C 87.56 178.638 88.496 175.061 89.758 171.592 C 91.024 168.123 92.621 164.769 94.484 161.568 C 96.421 158.352 98.385 155.441 100.27 152.344 C 102.164 149.283 104.006 146.193 105.802 143.081 C 113.009 130.643 119.504 117.841 125.013 104.694 C 127.684 98.091 130.176 91.42 132.082 84.601 C 134.006 77.795 135.378 70.851 135.944 63.897 C 136.206 60.422 136.251 56.938 135.939 53.51 C 135.623 50.083 134.984 46.711 133.958 43.48 C 132.911 40.26 131.39 37.219 129.418 34.499 C 128.397 33.168 127.321 31.866 126.081 30.721 C 125.498 30.11 124.823 29.596 124.196 29.026 C 123.51 28.527 122.869 27.966 122.146 27.511 C 116.499 23.641 109.585 21.612 102.563 20.686 C 95.505 19.758 88.267 19.907 81.061 20.486 C 80.985 20.494 80.917 20.437 80.91 20.36 C 80.903 20.289 80.953 20.225 81.021 20.211 Z" fill="#000000" stroke="none"/><path d="M 88.282 117.102 C 88.551 115.507 88.891 113.944 88.964 112.343 C 88.994 111.945 89.043 111.55 89.057 111.152 L 89.039 109.957 C 89.013 109.162 89.069 108.37 88.955 107.582 C 88.862 106.796 88.839 106.003 88.691 105.226 L 88.235 102.905 L 87.561 100.642 C 87.341 99.888 87.002 99.175 86.733 98.44 C 85.516 95.553 83.869 92.857 81.85 90.475 C 79.836 88.084 77.399 86.081 74.757 84.419 C 72.12 82.767 69.201 81.418 66.134 80.721 C 63.068 80.005 59.82 79.968 56.712 80.652 C 50.483 82.007 44.946 86.2 41.943 91.768 C 41.196 93.16 40.613 94.634 40.176 96.142 C 39.903 96.883 39.823 97.663 39.643 98.418 C 39.552 99.187 39.441 99.957 39.429 100.729 C 39.426 101.503 39.408 102.273 39.516 103.038 C 39.558 103.807 39.735 104.558 39.881 105.309 C 40.251 106.795 40.782 108.24 41.535 109.558 C 42.983 112.234 45.236 114.367 47.755 115.827 C 49.038 116.524 50.359 117.124 51.753 117.473 C 53.135 117.917 54.473 118.052 55.834 118.055 C 58.543 118.086 61.195 117.237 63.465 115.782 C 64.599 115.047 65.603 114.114 66.464 113.061 C 67.334 112.015 68.08 110.835 68.566 109.527 C 69.065 108.253 69.373 106.938 69.388 105.552 C 69.39 104.179 69.152 102.769 68.639 101.423 C 67.608 98.73 65.478 96.334 62.557 94.891 C 62.502 94.863 62.478 94.796 62.506 94.74 C 62.528 94.696 62.575 94.673 62.621 94.678 C 65.924 95.026 69.171 97.086 71.081 100.156 C 73.053 103.178 73.634 107.241 72.569 110.847 C 71.614 114.407 69.353 117.668 66.293 119.858 C 63.242 122.043 59.407 123.216 55.648 122.922 C 48.037 122.259 42.052 116.884 39.417 110.588 C 38.031 107.443 37.501 103.981 37.801 100.624 C 37.87 99.785 38.042 98.956 38.195 98.134 C 38.437 97.331 38.585 96.496 38.921 95.735 C 39.483 94.173 40.196 92.668 41.068 91.267 C 44.45 85.582 50.169 81.471 56.55 79.949 C 59.732 79.172 63.087 78.981 66.367 79.502 C 69.654 80.031 72.788 81.218 75.706 82.825 C 81.553 86.07 86.038 91.587 88.339 97.809 C 90.725 104.037 90.652 111.05 88.496 117.166 C 88.475 117.223 88.412 117.255 88.353 117.234 C 88.301 117.216 88.272 117.163 88.281 117.11 L 88.282 117.102 Z" fill="#000000" stroke="none"/><path d="M 95.754 229.403 C 93.203 222.13 93.062 213.776 95.94 206.374 C 98.678 198.971 104.014 192.407 110.972 188.547 C 114.443 186.634 118.171 185.221 122.082 184.593 C 125.984 183.973 129.975 184.2 133.761 185.124 C 141.353 186.935 148.158 191.828 152.18 198.592 C 153.217 200.258 154.065 202.049 154.734 203.906 C 155.133 204.812 155.31 205.804 155.598 206.761 C 155.718 207.245 155.775 207.742 155.866 208.234 C 155.941 208.729 156.055 209.221 156.067 209.723 C 156.425 213.718 155.794 217.836 154.149 221.578 C 151.019 229.073 143.906 235.479 134.836 236.285 C 130.355 236.649 125.782 235.245 122.152 232.634 C 118.517 230.016 115.795 226.147 114.665 221.899 C 113.399 217.594 114.093 212.754 116.458 209.157 C 118.735 205.502 122.606 203.054 126.54 202.647 C 126.614 202.639 126.68 202.692 126.689 202.766 C 126.695 202.823 126.664 202.877 126.615 202.902 C 123.142 204.628 120.616 207.481 119.395 210.681 C 118.187 213.902 118.259 217.335 119.505 220.302 C 120.106 221.844 120.958 223.259 121.992 224.502 C 123.014 225.751 124.208 226.857 125.553 227.73 C 128.253 229.448 131.399 230.451 134.613 230.428 C 136.229 230.433 137.818 230.27 139.46 229.748 C 141.119 229.335 142.69 228.624 144.216 227.798 C 144.948 227.337 145.72 226.911 146.393 226.347 C 147.118 225.842 147.752 225.232 148.401 224.623 C 149.631 223.353 150.774 221.943 151.625 220.35 C 152.521 218.783 153.154 217.064 153.593 215.297 C 153.768 214.403 153.978 213.511 154.029 212.595 C 154.157 211.684 154.135 210.768 154.132 209.847 C 154.154 209.386 154.074 208.931 154.036 208.472 C 153.98 208.015 153.96 207.551 153.878 207.097 C 153.664 206.199 153.57 205.271 153.244 204.39 C 152.725 202.595 152.032 200.842 151.143 199.185 C 147.569 192.56 140.98 187.573 133.569 185.962 C 129.872 185.146 126.007 185.191 122.359 186.042 C 118.71 186.872 115.238 188.477 112.099 190.442 C 108.957 192.42 106.057 194.804 103.661 197.648 C 101.259 200.482 99.3 203.688 97.852 207.124 C 97.533 207.999 97.126 208.847 96.87 209.746 L 96.08 212.439 L 95.546 215.201 C 95.366 216.124 95.335 217.066 95.219 218.002 C 95.079 218.939 95.136 219.881 95.108 220.827 L 95.086 222.249 C 95.104 222.721 95.162 223.191 95.197 223.665 C 95.285 225.57 95.689 227.429 96.009 229.328 L 96.01 229.338 C 96.023 229.41 95.974 229.478 95.902 229.49 C 95.837 229.501 95.776 229.463 95.754 229.403 Z" fill="#000000" stroke="none"/><path d="M 55.63 186.714 C 56.14 184.124 56.312 181.515 56.084 178.95 C 55.999 178.311 55.972 177.668 55.843 177.039 L 55.466 175.156 L 54.916 173.322 C 54.738 172.711 54.458 172.134 54.238 171.538 C 53.239 169.201 51.898 167.02 50.26 165.094 C 48.624 163.16 46.654 161.535 44.52 160.178 C 42.391 158.825 40.028 157.708 37.544 157.123 C 35.06 156.521 32.418 156.47 29.886 157.02 C 24.813 158.11 20.312 161.549 17.906 166.086 C 17.307 167.22 16.84 168.419 16.496 169.644 C 16.277 170.247 16.217 170.878 16.076 171.489 C 16.006 172.113 15.92 172.735 15.915 173.359 C 15.866 175.853 16.433 178.347 17.657 180.471 C 18.847 182.616 20.68 184.306 22.707 185.462 C 23.735 186.021 24.802 186.477 25.912 186.775 C 27.019 187.132 28.079 187.235 29.164 187.264 C 31.316 187.309 33.474 186.711 35.32 185.545 C 37.149 184.363 38.651 182.619 39.494 180.513 C 40.383 178.497 40.431 176.127 39.596 173.923 C 38.77 171.721 37.017 169.771 34.639 168.601 C 34.583 168.574 34.56 168.507 34.587 168.45 C 34.609 168.407 34.656 168.384 34.702 168.388 C 37.406 168.681 40.044 170.371 41.619 172.874 C 43.235 175.349 43.711 178.656 42.877 181.63 C 42.111 184.556 40.252 187.23 37.761 189.064 C 35.261 190.871 32.123 191.923 28.994 191.703 C 22.66 191.223 17.698 186.712 15.571 181.486 C 14.434 178.883 14.012 176.02 14.276 173.254 C 14.335 172.562 14.48 171.879 14.611 171.202 C 14.814 170.542 14.94 169.854 15.219 169.23 C 15.689 167.949 16.282 166.716 17.003 165.569 C 19.811 160.918 24.502 157.576 29.725 156.316 C 32.33 155.674 35.08 155.498 37.777 155.905 C 40.481 156.321 43.06 157.275 45.467 158.584 C 50.289 161.232 53.975 165.787 55.844 170.907 C 57.812 176.028 57.668 181.801 55.844 186.776 C 55.823 186.834 55.758 186.864 55.701 186.843 C 55.648 186.823 55.62 186.766 55.63 186.714 Z" fill="#000000" stroke="none"/><path d="M 92.398 201.097 L 92.396 201.021 C 92.396 201.015 92.401 201.011 92.407 201.011 C 92.412 201.011 92.417 201.015 92.417 201.02 C 92.417 201.02 92.417 201.022 92.417 201.023 L 92.398 201.097 Z" fill="#000000" stroke="none"/><path d="M 93.395 193.19 L 93.413 193.115 C 93.515 192.689 93.943 192.427 94.37 192.528 C 94.795 192.631 95.058 193.058 94.956 193.484 C 94.946 193.526 94.931 193.571 94.915 193.609 L 94.885 193.679 C 94.717 194.079 94.256 194.267 93.856 194.099 C 93.496 193.949 93.308 193.558 93.395 193.19 Z" fill="#000000" stroke="none"/><path d="M 95.877 185.564 L 95.906 185.49 C 96.182 184.802 96.964 184.468 97.654 184.744 C 98.342 185.02 98.676 185.803 98.4 186.491 C 98.379 186.541 98.352 186.597 98.327 186.644 L 98.29 186.712 C 97.932 187.359 97.118 187.594 96.471 187.236 C 95.874 186.907 95.628 186.182 95.877 185.564 Z" fill="#000000" stroke="none"/><path d="M 99.349 178.314 L 99.388 178.243 C 99.851 177.401 100.91 177.094 101.752 177.557 C 102.593 178.02 102.9 179.078 102.437 179.921 C 102.413 179.965 102.383 180.012 102.356 180.054 L 102.312 180.118 L 102.309 180.123 C 101.774 180.918 100.695 181.129 99.899 180.593 C 99.149 180.088 98.922 179.093 99.349 178.314 Z" fill="#000000" stroke="none"/><path d="M 103.63 171.486 L 103.678 171.419 C 104.331 170.511 105.595 170.304 106.503 170.956 C 107.412 171.608 107.619 172.874 106.966 173.781 C 106.951 173.804 106.929 173.833 106.912 173.854 L 106.864 173.916 C 106.173 174.794 104.902 174.947 104.023 174.257 C 103.17 173.587 103.007 172.36 103.63 171.486 Z" fill="#000000" stroke="none"/><path d="M 108.69 165.178 L 108.743 165.119 C 109.545 164.226 110.919 164.154 111.811 164.956 C 112.704 165.759 112.777 167.133 111.974 168.025 C 111.962 168.038 111.944 168.057 111.932 168.07 L 111.88 168.124 C 111.055 168.995 109.681 169.031 108.81 168.206 C 107.956 167.396 107.91 166.051 108.69 165.178 Z" fill="#000000" stroke="none"/><path d="M 114.47 159.485 L 114.531 159.432 C 115.463 158.631 116.87 158.736 117.671 159.669 C 118.469 160.597 118.366 161.997 117.446 162.801 L 117.389 162.85 C 116.463 163.66 115.056 163.566 114.247 162.64 C 113.436 161.715 113.53 160.307 114.456 159.498 L 114.47 159.485 Z" fill="#000000" stroke="none"/><path d="M 120.971 154.58 L 121.039 154.536 C 122.044 153.885 123.388 154.172 124.041 155.178 C 124.68 156.165 124.415 157.478 123.453 158.142 L 123.446 158.147 L 123.384 158.189 C 122.397 158.87 121.045 158.622 120.365 157.635 C 119.684 156.647 119.933 155.295 120.92 154.614 C 120.934 154.604 120.958 154.589 120.971 154.58 Z" fill="#000000" stroke="none"/><path d="M 128.139 150.66 L 128.211 150.628 C 129.233 150.18 130.422 150.645 130.871 151.666 C 131.298 152.643 130.89 153.776 129.959 154.263 L 129.945 154.27 L 129.879 154.304 C 128.889 154.819 127.669 154.433 127.155 153.443 C 126.64 152.453 127.026 151.233 128.016 150.719 C 128.054 150.698 128.1 150.677 128.139 150.66 Z" fill="#000000" stroke="none"/><path d="M 135.871 148.009 L 135.948 147.99 C 136.875 147.765 137.807 148.335 138.032 149.262 C 138.243 150.134 137.752 151.011 136.922 151.299 L 136.907 151.304 L 136.836 151.328 C 135.933 151.638 134.949 151.158 134.637 150.254 C 134.327 149.35 134.808 148.365 135.711 148.054 C 135.762 148.037 135.819 148.021 135.871 148.009 Z" fill="#000000" stroke="none"/><path d="M 143.924 146.818 L 144.003 146.814 C 144.733 146.782 145.35 147.347 145.382 148.077 C 145.412 148.749 144.935 149.326 144.29 149.438 L 144.282 149.439 L 144.209 149.452 C 143.487 149.578 142.798 149.096 142.672 148.374 C 142.545 147.651 143.029 146.964 143.751 146.837 C 143.805 146.827 143.871 146.821 143.924 146.818 Z" fill="#000000" stroke="none"/><path d="M 151.983 147.227 L 152.062 147.239 C 152.478 147.302 152.764 147.69 152.702 148.106 C 152.644 148.481 152.32 148.75 151.953 148.754 L 151.876 148.755 C 151.452 148.76 151.104 148.419 151.099 147.995 C 151.094 147.57 151.435 147.222 151.859 147.219 C 151.9 147.218 151.945 147.221 151.983 147.227 Z" fill="#000000" stroke="none"/><path d="M 21.036 156.172 L 20.965 156.213 C 20.961 156.215 20.957 156.214 20.955 156.21 C 20.953 156.206 20.954 156.2 20.958 156.198 C 20.958 156.198 20.959 156.198 20.959 156.197 L 21.036 156.172 Z" fill="#000000" stroke="none"/><path d="M 14.792 160.838 L 14.735 160.893 C 14.468 161.152 14.043 161.145 13.784 160.879 C 13.525 160.612 13.532 160.185 13.798 159.927 C 13.823 159.903 13.851 159.88 13.878 159.861 L 13.946 159.813 C 14.246 159.6 14.662 159.671 14.875 159.971 C 15.068 160.243 15.024 160.613 14.792 160.838 Z" fill="#000000" stroke="none"/><path d="M 9.992 166.762 L 9.951 166.827 C 9.611 167.374 8.893 167.541 8.347 167.201 C 7.8 166.861 7.633 166.142 7.973 165.596 C 7.994 165.563 8.017 165.53 8.041 165.5 L 8.091 165.433 C 8.483 164.926 9.211 164.831 9.719 165.222 C 10.195 165.589 10.307 166.251 9.999 166.751 L 9.992 166.762 Z" fill="#000000" stroke="none"/><path d="M 6.899 173.597 L 6.877 173.67 C 6.622 174.486 5.754 174.941 4.938 174.686 C 4.123 174.432 3.668 173.564 3.921 172.749 C 3.932 172.714 3.947 172.675 3.96 172.641 L 3.991 172.563 C 4.302 171.769 5.199 171.379 5.993 171.69 C 6.75 171.988 7.14 172.817 6.904 173.582 L 6.899 173.597 Z" fill="#000000" stroke="none"/><path d="M 5.662 180.891 L 5.66 180.967 C 5.632 181.976 4.791 182.773 3.78 182.746 C 2.769 182.718 1.972 181.876 2.001 180.865 C 2.002 180.823 2.004 180.772 2.009 180.73 L 2.017 180.644 C 2.118 179.64 3.013 178.908 4.017 179.009 C 4.975 179.104 5.686 179.924 5.663 180.87 L 5.662 180.891 Z" fill="#000000" stroke="none"/><path d="M 6.435 188.118 L 6.454 188.189 C 6.743 189.267 6.103 190.375 5.025 190.664 C 3.947 190.952 2.839 190.312 2.55 189.235 C 2.543 189.209 2.535 189.175 2.529 189.148 L 2.51 189.063 C 2.269 187.974 2.957 186.897 4.044 186.656 C 5.103 186.422 6.151 187.064 6.43 188.099 L 6.435 188.118 Z" fill="#000000" stroke="none"/><path d="M 9.388 194.562 L 9.429 194.621 C 10.114 195.599 9.877 196.947 8.898 197.632 C 7.92 198.316 6.573 198.079 5.887 197.101 C 5.88 197.091 5.866 197.068 5.858 197.058 L 5.809 196.985 C 5.149 195.991 5.418 194.65 6.412 193.989 C 7.391 193.338 8.709 193.591 9.379 194.55 L 9.388 194.562 Z" fill="#000000" stroke="none"/><path d="M 14.387 199.4 L 14.447 199.439 L 14.454 199.443 C 15.484 200.104 15.784 201.476 15.122 202.507 C 14.46 203.538 13.088 203.837 12.057 203.176 L 12.043 203.167 L 11.969 203.118 C 10.943 202.448 10.654 201.075 11.323 200.049 C 11.989 199.028 13.353 198.737 14.377 199.394 L 14.387 199.4 Z" fill="#000000" stroke="none"/><path d="M 20.901 202.083 L 20.972 202.098 L 20.981 202.1 C 22.171 202.366 22.92 203.547 22.655 204.737 C 22.39 205.922 21.218 206.67 20.034 206.415 L 19.949 206.396 C 18.756 206.139 17.998 204.964 18.255 203.771 C 18.512 202.579 19.687 201.821 20.879 202.078 L 20.896 202.082 L 20.901 202.083 Z" fill="#000000" stroke="none"/><path d="M 28.151 202.715 L 28.226 202.714 L 28.239 202.713 C 29.413 202.688 30.384 203.619 30.41 204.793 C 30.433 205.925 29.562 206.869 28.448 206.957 L 28.362 206.964 C 27.19 207.055 26.167 206.18 26.075 205.009 C 25.983 203.837 26.858 202.813 28.03 202.721 C 28.067 202.719 28.114 202.716 28.151 202.715 Z" fill="#000000" stroke="none"/><path d="M 35.219 201.499 L 35.288 201.473 L 35.306 201.467 C 36.293 201.098 37.39 201.6 37.758 202.587 C 38.113 203.538 37.654 204.595 36.737 204.999 L 36.655 205.035 C 35.69 205.459 34.564 205.021 34.139 204.056 C 33.714 203.091 34.153 201.965 35.118 201.54 C 35.149 201.526 35.188 201.511 35.219 201.499 Z" fill="#000000" stroke="none"/><path d="M 41.022 197.69 L 41.07 197.637 L 41.085 197.62 C 41.662 196.977 42.649 196.923 43.292 197.499 C 43.896 198.041 43.975 198.952 43.504 199.593 L 43.451 199.664 L 43.447 199.67 C 42.932 200.364 41.951 200.511 41.255 199.995 C 40.56 199.479 40.415 198.499 40.93 197.804 C 40.959 197.764 40.991 197.726 41.022 197.69 Z" fill="#000000" stroke="none"/><path d="M 44.58 191.376 L 44.604 191.303 L 44.608 191.292 C 44.795 190.734 45.4 190.434 45.958 190.623 C 46.46 190.792 46.752 191.299 46.668 191.804 L 46.655 191.888 C 46.561 192.473 46.011 192.872 45.426 192.778 C 44.841 192.684 44.443 192.135 44.537 191.55 C 44.545 191.493 44.562 191.429 44.58 191.376 Z" fill="#000000" stroke="none"/><path d="M 45.952 183.83 L 45.957 183.749 C 45.965 183.549 46.136 183.393 46.337 183.402 C 46.513 183.411 46.655 183.546 46.68 183.714 L 46.692 183.796 C 46.721 183.999 46.581 184.187 46.377 184.218 C 46.173 184.247 45.985 184.105 45.956 183.902 C 45.952 183.879 45.951 183.852 45.952 183.83 Z" fill="#000000" stroke="none"/>
</svg>
