<?xml version="1.0" encoding="UTF-8"?>
<svg xmlns="http://www.w3.org/2000/svg" width="152.035" height="124.917" viewBox="0 0 152.035 124.917">
  <path d="M 111.114 80.325 C 111.44 81.56 111.683 82.816 112.076 84.026 C 112.497 85.228 112.854 86.451 113.43 87.585 C 113.899 88.767 114.571 89.84 115.209 90.927 C 115.947 91.943 116.661 92.988 117.58 93.841 C 119.332 95.618 121.497 96.971 123.87 97.657 C 126.239 98.356 128.771 98.393 131.19 97.919 C 140.984 96.001 148.607 86.342 148.126 76.502 C 147.971 71.577 145.968 66.913 143.103 62.81 C 140.323 58.677 136.642 55.171 132.298 52.837 C 127.955 50.508 123.002 49.387 118.055 49.482 C 113.095 49.516 108.179 50.72 103.51 52.485 C 98.858 54.337 94.447 56.821 90.359 59.767 C 86.283 62.732 82.519 66.13 79.033 69.794 C 78.149 70.699 77.309 71.646 76.483 72.606 C 75.635 73.546 74.843 74.535 74.051 75.524 C 72.436 77.49 71.031 79.562 69.406 81.607 L 67.042 84.684 C 66.25 85.706 65.34 86.634 64.493 87.612 C 63.616 88.563 62.807 89.576 61.873 90.475 L 59.075 93.169 C 58.601 93.61 58.159 94.086 57.658 94.497 L 56.155 95.729 C 55.145 96.541 54.167 97.392 53.133 98.169 C 50.981 99.617 48.919 101.195 46.607 102.387 C 44.398 103.753 41.984 104.729 39.629 105.805 L 35.947 107.062 L 35.026 107.373 L 34.079 107.596 L 32.186 108.042 C 27.129 109.155 21.872 109.439 16.746 108.675 C 15.476 108.418 14.19 108.245 12.937 107.924 C 11.699 107.55 10.441 107.228 9.219 106.809 C 8.024 106.308 6.82 105.829 5.636 105.307 L 2.214 103.462 L 2.213 103.461 L 2.767 102.78 C 8.11 107.237 13.955 111.103 20.112 114.086 C 23.203 115.556 26.376 116.815 29.642 117.649 C 32.886 118.555 36.22 119.011 39.526 119 C 42.835 119.011 46.112 118.496 49.242 117.439 L 51.59 116.577 C 52.38 116.307 53.109 115.881 53.875 115.546 C 54.64 115.205 55.402 114.857 56.12 114.416 L 58.313 113.167 C 63.991 109.523 69.003 104.727 73.045 99.177 C 81.178 88.134 85.738 74.204 85.062 60.499 C 84.919 57.074 84.313 53.683 83.331 50.427 C 82.405 47.142 80.868 44.075 79.046 41.234 L 77.598 39.15 L 75.939 37.231 C 75.417 36.563 74.773 36.01 74.157 35.431 L 73.231 34.565 C 72.929 34.269 72.615 33.987 72.265 33.746 L 70.234 32.221 C 69.906 31.953 69.548 31.727 69.178 31.518 L 68.086 30.866 L 66.995 30.212 L 66.448 29.886 L 65.87 29.617 L 63.559 28.537 C 62.806 28.141 61.981 27.901 61.181 27.607 L 58.77 26.751 C 57.108 26.334 55.457 25.855 53.786 25.492 L 51.262 25.068 L 50 24.855 C 49.578 24.806 49.153 24.79 48.73 24.756 L 46.19 24.572 C 45.344 24.538 44.501 24.612 43.657 24.62 L 42.391 24.65 C 41.969 24.662 41.557 24.752 41.139 24.799 C 40.308 24.918 39.471 25.011 38.643 25.147 L 36.211 25.766 L 35.602 25.919 L 35.018 26.142 L 33.851 26.591 C 30.758 27.821 27.906 29.636 25.528 31.971 C 20.826 36.706 18.099 43.287 17.687 49.994 C 17.483 53.349 17.847 56.751 18.847 59.958 C 19.857 63.155 21.505 66.152 23.763 68.603 C 28.268 73.586 35.201 75.856 41.989 75.481 C 45.385 75.404 48.772 74.714 51.733 73.156 C 52.122 72.992 52.457 72.744 52.807 72.518 C 53.151 72.285 53.512 72.071 53.846 71.824 C 54.458 71.264 55.159 70.791 55.682 70.139 C 56.862 68.957 57.721 67.495 58.428 65.985 C 59.131 64.459 59.495 62.796 59.725 61.127 C 59.903 59.443 59.826 57.74 59.578 56.059 C 59.266 54.389 58.767 52.756 58.055 51.21 C 57.293 49.691 56.32 48.28 55.122 47.081 C 52.718 44.709 49.22 43.424 45.809 43.976 C 42.388 44.424 39.218 46.16 36.487 48.316 C 36.429 48.362 36.345 48.352 36.299 48.294 C 36.254 48.237 36.263 48.155 36.318 48.109 C 39.004 45.851 42.159 43.968 45.723 43.381 C 49.269 42.684 53.107 43.929 55.763 46.402 C 57.089 47.645 58.176 49.121 59.037 50.717 C 59.849 52.337 60.444 54.059 60.808 55.837 C 61.113 57.623 61.235 59.444 61.081 61.261 C 60.877 63.065 60.518 64.877 59.787 66.566 C 59.053 68.238 58.134 69.873 56.857 71.214 C 56.287 71.947 55.533 72.495 54.86 73.127 C 54.496 73.409 54.106 73.656 53.729 73.921 C 53.348 74.18 52.977 74.46 52.559 74.652 C 49.332 76.443 45.672 77.254 42.075 77.417 C 38.478 77.71 34.783 77.221 31.32 76.04 C 27.854 74.856 24.643 72.824 22.117 70.132 C 19.579 67.448 17.724 64.167 16.574 60.688 C 15.434 57.198 14.991 53.51 15.163 49.862 C 15.338 46.212 16.135 42.589 17.545 39.201 C 18.963 35.819 21.016 32.683 23.617 30.054 C 26.246 27.451 29.418 25.416 32.834 24.048 L 34.123 23.549 L 34.768 23.303 L 35.435 23.13 L 38.105 22.446 C 39.007 22.292 39.916 22.185 40.821 22.055 C 41.275 22.002 41.727 21.908 42.183 21.891 L 43.548 21.851 C 44.458 21.838 45.372 21.777 46.277 21.817 L 48.988 22.029 C 49.439 22.069 49.893 22.091 50.342 22.147 L 51.675 22.379 L 54.34 22.847 C 56.095 23.24 57.817 23.751 59.555 24.204 L 62.101 25.125 C 62.945 25.442 63.81 25.704 64.614 26.128 L 67.065 27.296 L 67.678 27.588 L 68.261 27.939 L 69.424 28.645 L 70.587 29.353 C 70.979 29.58 71.36 29.826 71.713 30.115 L 73.881 31.769 C 74.253 32.032 74.589 32.338 74.913 32.658 L 75.904 33.597 C 76.561 34.225 77.245 34.829 77.807 35.55 L 79.572 37.631 L 81.114 39.881 C 83.052 42.945 84.661 46.246 85.62 49.736 C 85.75 50.168 85.902 50.595 86.014 51.032 L 86.309 52.353 C 86.49 53.236 86.743 54.107 86.862 55 L 87.236 57.676 C 87.377 58.566 87.371 59.468 87.445 60.364 C 87.613 62.158 87.502 63.953 87.502 65.748 L 87.294 68.428 L 87.183 69.768 L 86.988 71.096 C 86.561 74.657 85.655 78.129 84.657 81.557 C 84.062 83.241 83.575 84.965 82.869 86.608 C 82.531 87.435 82.226 88.277 81.86 89.092 L 80.73 91.523 C 80.377 92.346 79.945 93.129 79.528 93.92 C 79.101 94.707 78.71 95.513 78.255 96.284 C 77.313 97.806 76.443 99.377 75.395 100.836 C 73.427 103.84 71.104 106.609 68.626 109.235 C 66.122 111.846 63.301 114.152 60.313 116.247 C 57.251 118.233 53.994 119.977 50.488 121.157 C 46.985 122.421 43.215 122.937 39.51 122.917 C 32.046 122.848 24.919 120.377 18.672 116.854 C 15.524 115.101 12.579 113.042 9.804 110.804 C 7.047 108.536 4.435 106.127 2.129 103.393 L 2.103 103.363 C 1.946 103.177 1.971 102.899 2.156 102.743 C 2.309 102.614 2.523 102.607 2.683 102.712 L 2.684 102.713 C 6.941 105.459 11.849 107.174 16.865 107.833 C 21.893 108.488 27.019 108.118 31.934 106.943 L 33.771 106.475 L 34.691 106.242 L 35.585 105.921 L 39.153 104.631 C 41.435 103.535 43.769 102.547 45.903 101.171 C 48.137 99.972 50.127 98.386 52.201 96.94 C 53.198 96.161 54.14 95.31 55.112 94.5 L 56.559 93.271 C 57.041 92.861 57.465 92.385 57.921 91.946 L 60.611 89.262 C 61.508 88.369 62.283 87.357 63.126 86.412 C 63.936 85.438 64.811 84.519 65.573 83.504 L 67.842 80.45 C 69.376 78.46 70.819 76.265 72.426 74.245 C 73.22 73.222 74.013 72.198 74.865 71.222 C 75.695 70.227 76.54 69.244 77.432 68.301 C 84.419 60.662 92.892 54.186 102.639 50.266 C 107.517 48.37 112.73 47.134 118.038 47.145 C 123.325 47.086 128.682 48.335 133.351 50.892 C 138.026 53.452 141.935 57.257 144.831 61.64 C 147.767 65.915 150.008 71.069 150.029 76.456 C 150.284 87.283 141.923 97.328 131.422 99.188 C 128.812 99.637 126.079 99.499 123.556 98.67 C 121.027 97.854 118.766 96.331 116.988 94.412 C 116.055 93.484 115.345 92.377 114.615 91.302 C 113.99 90.16 113.338 89.036 112.895 87.814 C 112.354 86.634 112.043 85.376 111.667 84.144 C 111.319 82.904 111.127 81.626 110.851 80.373 C 110.835 80.301 110.881 80.23 110.952 80.214 C 111.022 80.198 111.092 80.241 111.11 80.31 L 111.114 80.325 Z" fill="#000000" stroke="none"/><path d="M 20.335 112.182 C 25.191 113.176 30.162 113.519 35.053 113.033 C 39.941 112.606 44.753 111.405 49.218 109.431 C 58.184 105.502 65.593 98.602 70.86 90.396 L 72.962 87.295 C 73.641 86.235 74.485 85.282 75.239 84.272 C 76.888 82.357 78.613 80.465 80.717 78.972 C 82.781 77.464 85.137 76.22 87.741 75.752 C 90.324 75.27 93.135 75.66 95.412 77.016 C 99.978 79.706 102.402 85.343 101.244 90.396 C 100.996 91.667 100.398 92.834 99.738 93.921 C 99.359 94.434 98.971 94.946 98.539 95.409 C 98.058 95.824 97.648 96.322 97.111 96.661 C 95.083 98.185 92.658 99.016 90.225 99.448 C 92.62 98.829 94.942 97.847 96.816 96.291 C 97.315 95.939 97.679 95.438 98.114 95.024 C 98.499 94.563 98.838 94.06 99.168 93.563 C 99.728 92.507 100.226 91.404 100.387 90.218 C 101.306 85.529 98.837 80.42 94.742 78.215 C 92.698 77.104 90.295 76.847 88.029 77.29 C 85.747 77.737 83.62 78.893 81.726 80.328 C 79.797 81.737 78.15 83.536 76.588 85.379 C 75.867 86.359 75.063 87.271 74.41 88.304 L 72.356 91.368 L 70.22 94.475 C 69.449 95.469 68.636 96.431 67.846 97.41 C 67.087 98.417 66.15 99.27 65.29 100.189 L 63.974 101.544 L 62.541 102.779 C 58.74 106.079 54.43 108.834 49.748 110.691 C 45.079 112.571 40.107 113.647 35.113 113.901 C 30.119 114.1 25.1 113.568 20.335 112.182 Z" fill="#000000" stroke="none"/><path d="M 106.366 39.338 C 105.518 37.656 103.09 37.236 100.31 38.049 C 100.699 35.043 99.974 32.569 98.274 31.914 C 96.574 31.259 94.377 32.607 92.648 35.098 C 91.133 32.63 89.049 31.312 87.292 31.992 C 84.882 32.923 84.004 37.25 85.331 41.657 C 86.336 44.991 88.315 47.412 90.264 47.989 C 90.355 47.366 90.508 46.719 90.756 46.075 C 91.916 43.063 93.661 40.932 94.653 41.314 C 95.646 41.696 95.511 44.448 94.351 47.459 C 94.102 48.103 93.781 48.685 93.431 49.209 C 95.264 50.088 98.355 49.621 101.338 47.822 C 105.277 45.445 107.529 41.646 106.366 39.338 Z" fill="#000000" stroke="none"/><path d="M 81.142 96.125 C 80.685 97.249 81.524 98.578 83.116 99.542 C 81.483 100.65 80.589 102.056 81.001 103.141 C 81.412 104.226 83.014 104.686 84.971 104.433 C 84.419 106.21 84.672 107.761 85.759 108.3 C 87.249 109.039 89.735 107.595 91.312 105.074 C 92.506 103.166 92.835 101.19 92.278 100.021 C 91.935 100.245 91.555 100.451 91.135 100.61 C 89.168 101.356 87.379 101.447 87.139 100.814 C 86.898 100.18 88.298 99.062 90.265 98.316 C 90.684 98.156 91.106 98.059 91.512 97.999 C 91.153 96.755 89.597 95.494 87.437 94.857 C 84.586 94.016 81.767 94.584 81.142 96.125 Z" fill="#000000" stroke="none"/><path d="M 128.585 40.126 C 128.597 38.592 126.993 37.383 124.678 36.937 C 126.078 34.905 126.474 32.843 125.485 31.735 C 124.498 30.628 122.404 30.787 120.226 31.948 C 120.046 29.596 119.027 27.866 117.502 27.704 C 115.408 27.482 113.162 30.29 112.483 33.975 C 111.97 36.765 112.504 39.255 113.7 40.399 C 113.999 39.982 114.35 39.569 114.768 39.195 C 116.73 37.445 118.787 36.551 119.364 37.197 C 119.941 37.844 118.819 39.787 116.857 41.537 C 116.438 41.911 115.988 42.212 115.54 42.461 C 116.541 43.78 118.954 44.593 121.784 44.399 C 125.523 44.144 128.567 42.23 128.585 40.126 Z" fill="#000000" stroke="none"/><path d="M 84.431 19.486 C 83.303 19.107 82.025 19.997 81.139 21.596 C 79.978 20.074 78.555 19.285 77.501 19.746 C 76.446 20.207 76.059 21.788 76.389 23.673 C 74.612 23.239 73.092 23.572 72.604 24.657 C 71.936 26.146 73.463 28.478 76.016 29.867 C 77.947 30.918 79.911 31.126 81.042 30.52 C 80.807 30.2 80.587 29.841 80.413 29.442 C 79.597 27.575 79.434 25.843 80.049 25.574 C 80.664 25.305 81.825 26.6 82.642 28.468 C 82.816 28.867 82.931 29.271 83.006 29.662 C 84.219 29.242 85.399 27.66 85.939 25.528 C 86.653 22.711 85.977 20.006 84.431 19.486 Z" fill="#000000" stroke="none"/><path d="M 25.128 46.807 C 25.014 48.282 26.476 49.553 28.674 50.137 C 27.189 51.999 26.671 53.957 27.547 55.088 C 28.423 56.22 30.448 56.208 32.623 55.237 C 32.638 57.512 33.502 59.245 34.959 59.503 C 36.959 59.858 39.309 57.307 40.209 53.806 C 40.891 51.156 40.544 48.724 39.47 47.543 C 39.154 47.924 38.789 48.298 38.36 48.629 C 36.355 50.182 34.315 50.904 33.804 50.244 C 33.292 49.583 34.503 47.788 36.508 46.236 C 36.935 45.905 37.389 45.644 37.837 45.434 C 36.963 44.099 34.695 43.155 31.959 43.151 C 28.344 43.146 25.286 44.783 25.128 46.807 Z" fill="#000000" stroke="none"/><path d="M 137.609 42.411 C 135.965 42.411 134.632 43.744 134.632 45.389 C 134.632 47.033 135.965 48.366 137.609 48.366 C 139.254 48.366 140.587 47.033 140.587 45.389 C 140.587 43.744 139.254 42.411 137.609 42.411 Z" fill="#000000" stroke="none"/><path d="M 92.541 22.151 C 90.896 22.151 89.563 23.484 89.563 25.128 C 89.563 26.772 90.896 28.106 92.541 28.106 C 94.185 28.106 95.518 26.772 95.518 25.128 C 95.518 23.484 94.185 22.151 92.541 22.151 Z" fill="#000000" stroke="none"/><path d="M 48.885 48.366 C 47.24 48.366 45.907 49.699 45.907 51.344 C 45.907 52.988 47.24 54.321 48.885 54.321 C 50.529 54.321 51.862 52.988 51.862 51.344 C 51.862 49.699 50.529 48.366 48.885 48.366 Z" fill="#000000" stroke="none"/><path d="M 113.652 76.982 C 112.008 76.982 110.675 78.315 110.675 79.96 C 110.675 81.604 112.008 82.937 113.652 82.937 C 115.297 82.937 116.63 81.604 116.63 79.96 C 116.63 78.315 115.297 76.982 113.652 76.982 Z" fill="#000000" stroke="none"/><path d="M 113.652 76.982 C 112.008 76.982 110.675 78.315 110.675 79.96 C 110.675 81.604 112.008 82.937 113.652 82.937 C 115.297 82.937 116.63 81.604 116.63 79.96 C 116.63 78.315 115.297 76.982 113.652 76.982 Z" fill="#000000" stroke="none"/><path d="M 111.867 68.198 C 110.223 68.198 108.89 69.531 108.89 71.176 C 108.89 72.82 110.223 74.153 111.867 74.153 C 113.512 74.153 114.845 72.82 114.845 71.176 C 114.845 69.531 113.512 68.198 111.867 68.198 Z" fill="#000000" stroke="none"/><path d="M 118.919 85.066 C 117.275 85.066 115.942 86.4 115.942 88.044 C 115.942 89.689 117.275 91.022 118.919 91.022 C 120.563 91.022 121.896 89.689 121.896 88.044 C 121.896 86.4 120.563 85.066 118.919 85.066 Z" fill="#000000" stroke="none"/><path d="M 125.607 91.022 C 123.963 91.022 122.63 92.355 122.63 93.999 C 122.63 95.644 123.963 96.977 125.607 96.977 C 127.252 96.977 128.585 95.644 128.585 93.999 C 128.585 92.355 127.252 91.022 125.607 91.022 Z" fill="#000000" stroke="none"/><path d="M 77.634 76.29 C 78.86 71.48 79.738 66.555 79.55 61.631 C 79.444 56.713 78.277 51.883 76.265 47.418 C 74.282 42.932 71.605 38.762 69.386 34.224 C 68.284 31.955 67.367 29.546 66.848 27.019 C 66.318 24.498 66.208 21.873 66.538 19.317 C 66.891 16.776 67.57 14.245 68.762 11.93 C 69.939 9.616 71.594 7.515 73.649 5.903 C 77.753 2.642 83.242 1.4 88.309 2.269 C 93.37 3.097 98.158 6.038 100.747 10.489 C 103.351 14.944 103.559 20.353 102.309 25.128 C 102.718 22.679 102.854 20.18 102.507 17.746 C 102.168 15.317 101.336 12.966 100.007 10.945 C 97.408 6.832 92.845 4.236 88.104 3.62 C 83.367 3.003 78.359 4.19 74.702 7.218 C 72.872 8.71 71.375 10.594 70.317 12.715 C 69.241 14.831 68.624 17.171 68.308 19.546 C 67.994 21.919 68.079 24.326 68.557 26.669 C 69.02 29.018 69.881 31.29 70.916 33.503 C 72.963 37.94 75.676 42.184 77.531 46.882 C 79.448 51.542 80.5 56.595 80.426 61.625 C 80.317 66.657 79.248 71.594 77.634 76.29 Z" fill="#000000" stroke="none"/>
</svg>
