<?xml version="1.0" encoding="UTF-8"?>
<svg xmlns="http://www.w3.org/2000/svg" width="406.339" height="90.256" viewBox="0 0 406.339 90.256">
  <path d="M 201.945 60.882 C 201.992 59.439 202.449 57.957 203.257 56.802 C 204.047 55.63 205.06 54.723 206.118 54.002 C 208.253 52.57 210.56 51.76 212.853 51.108 C 217.456 49.848 222.118 49.327 226.763 49.037 C 236.059 48.518 245.328 48.841 254.547 49.595 C 272.996 51.027 291.266 53.982 309.394 57.515 C 318.482 59.238 327.413 61.64 336.536 62.461 L 339.954 62.772 L 343.38 62.898 C 343.951 62.914 344.522 62.952 345.092 62.95 L 346.803 62.907 C 347.941 62.861 349.086 62.891 350.22 62.784 C 354.766 62.498 359.273 61.683 363.538 60.216 C 367.784 58.733 371.802 56.511 374.963 53.371 C 375.69 52.534 376.52 51.78 377.128 50.85 C 377.447 50.397 377.805 49.971 378.101 49.504 L 378.938 48.071 C 379.958 46.118 380.806 44.042 381.17 41.854 C 382.036 37.513 381.462 32.901 379.602 28.902 C 378.636 26.92 377.323 25.118 375.714 23.649 C 374.104 22.183 372.166 21.089 370.062 20.534 L 370.049 20.531 C 369.623 20.418 369.37 19.982 369.481 19.557 C 369.593 19.137 370.021 18.884 370.442 18.987 C 372.821 19.572 375.025 20.773 376.844 22.381 C 378.671 23.985 380.123 25.976 381.186 28.138 C 383.24 32.496 383.873 37.478 382.96 42.194 C 382.109 46.933 379.653 51.313 376.262 54.681 C 372.838 58.039 368.56 60.355 364.114 61.878 C 359.648 63.384 354.988 64.19 350.327 64.455 C 349.163 64.557 347.995 64.521 346.83 64.56 L 345.081 64.593 C 344.498 64.591 343.917 64.549 343.335 64.53 L 339.847 64.379 L 336.376 64.042 C 331.747 63.593 327.177 62.75 322.64 61.799 C 318.124 60.824 313.634 59.825 309.114 58.914 C 291.058 55.238 272.807 52.37 254.441 51.046 C 249.849 50.746 245.251 50.558 240.657 50.517 C 236.064 50.487 231.469 50.585 226.916 51.029 C 222.375 51.471 217.828 52.129 213.571 53.487 C 211.47 54.195 209.412 55.072 207.768 56.311 C 206.953 56.93 206.264 57.641 205.808 58.415 C 205.345 59.19 205.174 60.024 205.191 60.882 L 205.191 60.902 C 205.209 61.799 204.497 62.54 203.601 62.558 C 202.704 62.576 201.962 61.864 201.944 60.967 C 201.944 60.94 201.944 60.908 201.945 60.882 Z" fill="#000000" stroke="none"/><path d="M 370.362 20.414 C 373.543 5.023 360.988 5.312 353.652 2.438 C 353.652 2.438 360.591 14.11 370.362 20.414 Z" fill="#000000" stroke="none"/><path d="M 370.422 20.467 C 368.174 21.536 365.596 21.862 363.104 21.141 C 360.641 20.363 358.607 18.563 357.193 16.499 C 355.771 14.409 354.924 12.048 354.29 9.689 C 353.622 7.327 353.401 4.893 353.223 2.487 L 353.221 2.449 C 353.204 2.218 353.376 2.018 353.606 2.001 C 353.678 1.996 353.748 2.01 353.809 2.037 C 355.942 2.999 358.257 3.621 360.554 4.25 C 362.847 4.879 365.235 5.477 367.343 6.892 C 367.882 7.215 368.322 7.695 368.797 8.116 C 369.234 8.579 369.595 9.121 369.974 9.634 C 370.247 10.213 370.546 10.783 370.784 11.371 C 370.942 11.985 371.102 12.598 371.24 13.209 C 371.295 13.83 371.328 14.453 371.365 15.069 C 371.389 15.685 371.278 16.294 371.229 16.9 C 371.193 17.204 371.18 17.503 371.122 17.808 L 370.891 18.734 C 370.738 19.341 370.58 19.925 370.422 20.467 Z M 370.302 20.362 L 370.376 18.569 L 370.417 17.731 L 370.384 16.858 C 370.344 16.278 370.374 15.695 370.298 15.127 C 370.204 14.562 370.104 14.002 370.029 13.442 L 369.519 11.848 C 369.292 11.345 369.017 10.869 368.775 10.377 C 368.42 9.958 368.129 9.493 367.761 9.085 C 367.338 8.73 367.013 8.271 366.545 7.954 C 364.814 6.526 362.646 5.488 360.405 4.746 C 358.152 4 355.812 3.572 353.495 2.84 L 354.08 2.39 C 354.555 4.722 354.999 7.05 355.728 9.277 C 356.436 11.503 357.358 13.653 358.604 15.549 C 359.829 17.454 361.482 19.05 363.53 19.958 C 365.581 20.839 368.036 20.831 370.302 20.362 Z" fill="#000000" stroke="none"/><path d="M 362.01 11.423 C 361.501 11.775 360.985 11.971 360.466 12.111 C 359.948 12.261 359.426 12.331 358.902 12.358 C 358.378 12.38 357.852 12.355 357.322 12.253 C 356.793 12.159 356.262 12.009 355.723 11.701 C 356.232 11.347 356.748 11.15 357.267 11.011 C 357.786 10.861 358.308 10.79 358.831 10.767 C 359.355 10.746 359.881 10.77 360.411 10.874 C 360.94 10.968 361.472 11.117 362.01 11.423 Z" fill="#000000" stroke="none"/><path d="M 366.084 15.511 C 365.674 15.963 365.223 16.263 364.757 16.51 C 364.294 16.766 363.81 16.945 363.315 17.081 C 362.818 17.214 362.31 17.302 361.781 17.314 C 361.255 17.335 360.713 17.301 360.131 17.114 C 360.541 16.661 360.992 16.36 361.458 16.113 C 361.921 15.858 362.405 15.678 362.9 15.544 C 363.397 15.413 363.906 15.325 364.435 15.314 C 364.961 15.293 365.502 15.327 366.084 15.511 Z" fill="#000000" stroke="none"/><path d="M 381.817 25.906 C 394.242 23.626 390.233 14.362 390.158 8.029 C 390.158 8.029 383.56 16.724 381.817 25.906 Z" fill="#000000" stroke="none"/><path d="M 381.796 25.967 C 380.322 24.616 379.295 22.794 379.087 20.72 C 378.943 18.655 379.632 16.589 380.755 14.914 C 381.882 13.224 383.385 11.88 384.95 10.696 C 386.507 9.484 388.254 8.583 389.993 7.725 L 390.02 7.711 C 390.186 7.629 390.388 7.697 390.47 7.863 C 390.496 7.915 390.506 7.971 390.504 8.025 C 390.432 9.904 390.669 11.816 390.894 13.718 C 391.118 15.616 391.394 17.575 390.977 19.573 C 390.899 20.072 390.674 20.545 390.505 21.025 C 390.292 21.491 389.997 21.923 389.729 22.36 C 389.38 22.738 389.046 23.134 388.68 23.489 C 388.27 23.792 387.862 24.097 387.449 24.383 L 386.101 25.038 C 385.65 25.242 385.163 25.344 384.696 25.491 C 384.458 25.556 384.232 25.636 383.987 25.685 L 383.228 25.793 C 382.729 25.862 382.247 25.921 381.796 25.967 Z M 381.838 25.846 L 383.196 25.36 L 383.832 25.137 L 384.472 24.849 C 384.893 24.643 385.336 24.49 385.735 24.262 L 386.91 23.552 L 387.943 22.69 C 388.249 22.37 388.52 22.02 388.814 21.692 C 389.019 21.301 389.277 20.943 389.469 20.546 C 389.606 20.124 389.85 19.743 389.945 19.299 C 390.485 17.579 390.603 15.65 390.479 13.757 C 390.354 11.853 389.966 9.981 389.811 8.033 L 390.323 8.333 C 388.73 9.392 387.13 10.426 385.691 11.642 C 384.248 12.842 382.924 14.177 381.889 15.679 C 380.852 17.168 380.125 18.875 380.089 20.68 C 380.06 22.473 380.802 24.299 381.838 25.846 Z" fill="#000000" stroke="none"/><path d="M 385.991 16.969 C 385.181 16.413 384.727 15.694 384.356 14.936 C 384.19 14.548 384.04 14.154 383.956 13.728 C 383.866 13.306 383.817 12.864 383.884 12.37 C 384.302 12.642 384.604 12.968 384.865 13.312 C 385.133 13.653 385.333 14.024 385.519 14.403 C 385.851 15.179 386.099 15.993 385.991 16.969 Z" fill="#000000" stroke="none"/><path d="M 384.177 21.239 C 383.275 20.885 382.686 20.295 382.17 19.65 C 381.93 19.314 381.702 18.969 381.534 18.578 C 381.359 18.192 381.221 17.779 381.184 17.289 C 381.646 17.457 382.006 17.702 382.331 17.975 C 382.661 18.242 382.932 18.555 383.19 18.877 C 383.672 19.549 384.08 20.275 384.177 21.239 Z" fill="#000000" stroke="none"/><path d="M 204.628 46.876 C 216.195 51.955 218.071 42.036 221.559 36.75 C 221.559 36.75 211.221 40.25 204.628 46.876 Z" fill="#000000" stroke="none"/><path d="M 204.577 46.914 C 204.114 44.969 204.286 42.885 205.276 41.051 C 206.315 39.261 208.043 37.936 209.912 37.179 C 211.794 36.412 213.791 36.142 215.751 36.038 C 217.721 35.908 219.671 36.142 221.593 36.406 L 221.623 36.41 C 221.807 36.435 221.935 36.604 221.91 36.788 C 221.902 36.845 221.88 36.898 221.848 36.941 C 220.734 38.457 219.858 40.173 218.978 41.873 C 218.1 43.57 217.229 45.348 215.765 46.768 C 215.42 47.137 214.969 47.403 214.559 47.706 C 214.122 47.972 213.635 48.164 213.168 48.376 C 212.667 48.494 212.169 48.634 211.667 48.723 C 211.158 48.744 210.649 48.767 210.145 48.773 L 208.663 48.559 C 208.174 48.475 207.714 48.286 207.245 48.146 C 207.012 48.067 206.78 48.006 206.549 47.91 L 205.86 47.573 C 205.409 47.351 204.977 47.129 204.577 46.914 Z M 204.68 46.837 L 206.077 47.196 L 206.728 47.369 L 207.42 47.489 C 207.883 47.555 208.336 47.676 208.795 47.711 L 210.165 47.782 L 211.504 47.647 C 211.937 47.554 212.358 47.417 212.785 47.31 C 213.174 47.1 213.588 46.95 213.97 46.729 C 214.32 46.455 214.735 46.277 215.063 45.962 C 216.475 44.841 217.654 43.31 218.613 41.673 C 219.578 40.027 220.306 38.259 221.27 36.559 L 221.525 37.095 C 219.613 37.078 217.708 37.037 215.835 37.237 C 213.966 37.421 212.122 37.785 210.423 38.447 C 208.729 39.1 207.17 40.105 206.128 41.579 C 205.099 43.048 204.689 44.976 204.68 46.837 Z" fill="#000000" stroke="none"/><path d="M 213.096 41.816 C 212.737 40.901 212.764 40.051 212.882 39.216 C 212.962 38.802 213.059 38.391 213.229 37.992 C 213.391 37.592 213.598 37.199 213.93 36.827 C 214.123 37.287 214.191 37.725 214.214 38.157 C 214.245 38.589 214.203 39.01 214.144 39.427 C 213.984 40.255 213.733 41.068 213.096 41.816 Z" fill="#000000" stroke="none"/><path d="M 209.199 44.334 C 208.651 43.536 208.494 42.718 208.429 41.894 C 208.418 41.481 208.423 41.067 208.503 40.649 C 208.575 40.232 208.692 39.812 208.936 39.386 C 209.225 39.784 209.385 40.189 209.501 40.596 C 209.624 41.003 209.674 41.414 209.707 41.826 C 209.729 42.652 209.66 43.482 209.199 44.334 Z" fill="#000000" stroke="none"/><path d="M 241.646 52.689 C 238.63 64.956 248.724 65.1 254.53 67.627 C 254.53 67.627 249.306 58.045 241.646 52.689 Z" fill="#000000" stroke="none"/><path d="M 241.6 52.645 C 243.436 51.855 245.519 51.665 247.496 52.326 C 249.438 53.041 251.039 54.517 252.107 56.227 C 253.186 57.949 253.795 59.871 254.234 61.784 C 254.701 63.702 254.806 65.663 254.876 67.601 L 254.877 67.632 C 254.884 67.817 254.739 67.973 254.554 67.98 C 254.496 67.982 254.44 67.969 254.392 67.945 C 252.708 67.108 250.867 66.54 249.04 65.966 C 247.217 65.392 245.317 64.84 243.666 63.641 C 243.243 63.365 242.904 62.966 242.535 62.614 C 242.198 62.229 241.925 61.783 241.636 61.359 C 241.434 60.886 241.209 60.419 241.037 59.94 C 240.928 59.442 240.817 58.945 240.726 58.45 L 240.681 56.952 C 240.68 56.457 240.787 55.971 240.844 55.485 C 240.882 55.242 240.902 55.003 240.957 54.759 L 241.171 54.022 C 241.312 53.539 241.456 53.076 241.6 52.645 Z M 241.692 52.733 L 241.579 54.171 L 241.521 54.842 L 241.522 55.544 C 241.537 56.012 241.495 56.479 241.539 56.937 L 241.705 58.299 L 242.067 59.595 C 242.234 60.005 242.441 60.396 242.62 60.799 C 242.893 61.146 243.113 61.528 243.396 61.866 C 243.726 62.164 243.973 62.542 244.339 62.811 C 245.686 64.01 247.397 64.909 249.175 65.571 C 250.962 66.239 252.829 66.652 254.668 67.309 L 254.185 67.653 C 253.873 65.766 253.586 63.883 253.067 62.073 C 252.565 60.263 251.889 58.509 250.945 56.948 C 250.011 55.392 248.752 54.03 247.122 53.256 C 245.498 52.494 243.527 52.422 241.692 52.733 Z" fill="#000000" stroke="none"/><path d="M 248.085 60.161 C 248.925 59.65 249.767 59.531 250.61 59.503 C 251.032 59.511 251.454 59.536 251.875 59.635 C 252.298 59.725 252.72 59.862 253.144 60.125 C 252.724 60.395 252.304 60.537 251.883 60.634 C 251.462 60.739 251.04 60.768 250.619 60.783 C 249.776 60.767 248.932 60.66 248.085 60.161 Z" fill="#000000" stroke="none"/><path d="M 244.935 56.755 C 245.627 56.078 246.407 55.783 247.207 55.577 C 247.612 55.495 248.02 55.429 248.446 55.436 C 248.869 55.435 249.303 55.478 249.765 55.645 C 249.422 55.997 249.051 56.226 248.669 56.41 C 248.29 56.601 247.894 56.721 247.494 56.824 C 246.684 56.988 245.853 57.062 244.935 56.755 Z" fill="#000000" stroke="none"/><path d="M 206.426 36.111 C 216.858 34.196 213.493 26.418 213.43 21.1 C 213.43 21.1 207.89 28.401 206.426 36.111 Z" fill="#000000" stroke="none"/><path d="M 206.408 36.162 C 205.171 35.027 204.309 33.497 204.134 31.756 C 204.013 30.022 204.592 28.288 205.534 26.882 C 206.481 25.462 207.743 24.334 209.057 23.339 C 210.365 22.322 211.831 21.566 213.29 20.845 L 213.314 20.833 C 213.454 20.765 213.623 20.822 213.691 20.961 C 213.713 21.005 213.722 21.052 213.721 21.097 C 213.66 22.675 213.858 24.28 214.047 25.877 C 214.236 27.47 214.467 29.116 214.118 30.793 C 214.052 31.212 213.863 31.609 213.721 32.013 C 213.542 32.403 213.294 32.766 213.069 33.133 C 212.777 33.451 212.496 33.783 212.189 34.081 L 211.155 34.832 C 210.781 35.026 210.397 35.2 210.02 35.376 C 209.64 35.542 209.232 35.63 208.842 35.758 C 208.644 35.814 208.454 35.885 208.248 35.925 L 207.611 36.016 C 207.192 36.074 206.788 36.123 206.408 36.162 Z M 206.444 36.06 C 207.255 35.739 207.931 35.581 208.657 35.226 C 209.012 35.059 209.386 34.933 209.719 34.735 C 210.048 34.53 210.37 34.322 210.702 34.134 L 211.57 33.41 C 211.827 33.142 212.055 32.848 212.301 32.572 C 212.473 32.244 212.69 31.944 212.851 31.611 C 212.966 31.256 213.171 30.936 213.25 30.563 C 213.704 29.119 213.804 27.499 213.699 25.91 C 213.595 24.311 213.269 22.739 213.139 21.104 L 213.568 21.356 C 212.23 22.245 210.887 23.113 209.68 24.134 C 208.467 25.142 207.356 26.263 206.486 27.523 C 205.616 28.774 205.006 30.207 204.975 31.723 C 204.951 33.228 205.574 34.762 206.444 36.06 Z" fill="#000000" stroke="none"/><path d="M 209.931 28.607 C 209.25 28.14 208.869 27.536 208.558 26.9 C 208.277 26.25 208.069 25.566 208.162 24.746 C 208.844 25.211 209.226 25.815 209.535 26.453 C 209.813 27.103 210.021 27.787 209.931 28.607 Z" fill="#000000" stroke="none"/><path d="M 208.407 32.192 C 207.651 31.895 207.156 31.4 206.723 30.858 C 206.316 30.296 205.974 29.685 205.894 28.875 C 206.653 29.171 207.148 29.666 207.579 30.209 C 207.983 30.773 208.327 31.383 208.407 32.192 Z" fill="#000000" stroke="none"/><path d="M 382.071 51.56 C 389.729 63.302 397.495 55.228 403.945 52.437 C 403.945 52.437 392.217 49.411 382.071 51.56 Z" fill="#000000" stroke="none"/><path d="M 382 51.565 C 382.751 49.476 384.178 47.649 386.208 46.54 C 388.256 45.484 390.675 45.345 392.867 45.763 C 395.081 46.193 397.101 47.155 398.983 48.249 C 400.891 49.325 402.561 50.726 404.185 52.138 L 404.211 52.16 C 404.367 52.295 404.383 52.531 404.248 52.686 C 404.206 52.734 404.153 52.769 404.097 52.79 C 402.143 53.522 400.287 54.583 398.437 55.629 C 396.59 56.671 394.703 57.793 392.48 58.223 C 391.935 58.357 391.355 58.329 390.79 58.362 C 390.223 58.343 389.654 58.227 389.091 58.14 C 388.555 57.945 388.007 57.773 387.487 57.55 C 387.001 57.26 386.514 56.973 386.043 56.672 C 385.618 56.314 385.206 55.941 384.795 55.574 C 384.393 55.199 384.081 54.744 383.73 54.329 C 383.562 54.115 383.383 53.917 383.227 53.687 L 382.792 52.956 C 382.508 52.475 382.24 52.007 382 51.565 Z M 382.142 51.556 L 383.222 52.738 L 383.722 53.293 L 384.291 53.825 C 384.682 54.167 385.029 54.556 385.434 54.867 C 385.849 55.165 386.263 55.457 386.664 55.765 L 387.989 56.453 C 388.447 56.629 388.921 56.757 389.383 56.917 C 389.872 56.958 390.348 57.07 390.836 57.097 C 391.328 57.056 391.822 57.142 392.317 57.049 C 394.31 56.865 396.334 56.16 398.219 55.221 C 400.115 54.278 401.864 53.078 403.792 52.085 L 403.704 52.737 C 401.938 51.56 400.194 50.365 398.333 49.414 C 396.486 48.45 394.551 47.668 392.571 47.251 C 390.598 46.815 388.549 46.844 386.682 47.556 C 384.831 48.287 383.282 49.835 382.142 51.556 Z" fill="#000000" stroke="none"/><path d="M 393.008 52.003 C 393.109 51.46 393.312 51.012 393.553 50.597 C 393.793 50.183 394.07 49.802 394.388 49.458 C 394.702 49.112 395.061 48.806 395.454 48.532 C 395.847 48.259 396.278 48.019 396.812 47.876 C 396.713 48.42 396.51 48.869 396.269 49.284 C 396.028 49.698 395.752 50.079 395.433 50.421 C 395.116 50.766 394.758 51.072 394.365 51.346 C 393.971 51.619 393.541 51.859 393.008 52.003 Z" fill="#000000" stroke="none"/><path d="M 387.86 51.975 C 387.836 51.432 387.933 50.958 388.072 50.51 C 388.212 50.061 388.395 49.637 388.626 49.241 C 388.852 48.843 389.132 48.475 389.451 48.131 C 389.771 47.787 390.135 47.468 390.621 47.22 C 390.646 47.765 390.55 48.239 390.41 48.687 C 390.269 49.135 390.088 49.56 389.854 49.954 C 389.625 50.351 389.348 50.72 389.028 51.064 C 388.707 51.408 388.344 51.727 387.86 51.975 Z" fill="#000000" stroke="none"/><path d="M 377.19 57.023 C 374.856 67.729 383.611 67.622 388.704 69.682 C 388.704 69.682 383.955 61.492 377.19 57.023 Z" fill="#000000" stroke="none"/><path d="M 377.149 56.986 C 378.723 56.259 380.525 56.047 382.254 56.575 C 383.955 57.151 385.376 58.393 386.341 59.852 C 387.316 61.32 387.889 62.973 388.313 64.621 C 388.761 66.273 388.897 67.972 389.003 69.651 L 389.004 69.678 C 389.015 69.838 388.893 69.976 388.732 69.986 C 388.682 69.99 388.633 69.979 388.591 69.96 C 387.111 69.273 385.502 68.823 383.905 68.366 C 382.311 67.911 380.651 67.475 379.192 66.474 C 378.819 66.244 378.516 65.906 378.188 65.609 C 377.887 65.283 377.64 64.902 377.379 64.541 C 377.194 64.136 376.989 63.736 376.828 63.325 C 376.722 62.895 376.615 62.467 376.524 62.039 L 376.451 60.742 C 376.438 60.312 376.52 59.889 376.559 59.466 C 376.586 59.254 376.598 59.046 376.641 58.834 L 376.809 58.19 C 376.92 57.768 377.034 57.363 377.149 56.986 Z M 377.231 57.06 L 377.166 58.309 L 377.131 58.893 L 377.148 59.502 C 377.171 59.907 377.146 60.313 377.195 60.709 L 377.37 61.887 L 377.713 63.002 C 377.867 63.354 378.056 63.688 378.221 64.033 C 378.465 64.328 378.665 64.654 378.918 64.94 C 379.21 65.191 379.433 65.514 379.757 65.739 C 380.953 66.747 382.456 67.487 384.013 68.021 C 385.578 68.558 387.206 68.874 388.816 69.403 L 388.405 69.712 C 388.091 68.082 387.799 66.456 387.308 64.898 C 386.831 63.341 386.205 61.835 385.351 60.504 C 384.505 59.176 383.383 58.023 381.951 57.39 C 380.525 56.767 378.815 56.749 377.231 57.06 Z" fill="#000000" stroke="none"/><path d="M 382.944 63.354 C 383.661 62.892 384.388 62.77 385.119 62.726 C 385.85 62.718 386.584 62.792 387.33 63.208 C 386.614 63.673 385.886 63.795 385.156 63.836 C 384.424 63.842 383.69 63.768 382.944 63.354 Z" fill="#000000" stroke="none"/><path d="M 380.135 60.474 C 380.72 59.871 381.389 59.597 382.078 59.4 C 382.776 59.237 383.494 59.153 384.297 59.401 C 383.714 60.006 383.044 60.28 382.355 60.475 C 381.657 60.636 380.938 60.719 380.135 60.474 Z" fill="#000000" stroke="none"/><path d="M 301.406 58.946 C 297.007 68.981 305.61 70.603 310.197 73.626 C 310.197 73.626 307.156 64.661 301.406 58.946 Z" fill="#000000" stroke="none"/><path d="M 301.373 58.901 C 303.06 58.499 304.868 58.647 306.459 59.505 C 308.013 60.405 309.162 61.904 309.82 63.524 C 310.486 65.156 310.722 66.889 310.812 68.588 C 310.926 70.296 310.724 71.989 310.496 73.655 L 310.493 73.682 C 310.471 73.841 310.324 73.953 310.165 73.931 C 310.115 73.924 310.069 73.905 310.032 73.877 C 308.717 72.912 307.228 72.153 305.752 71.39 C 304.28 70.629 302.738 69.875 301.505 68.605 C 301.185 68.306 300.954 67.915 300.691 67.559 C 300.46 67.181 300.293 66.759 300.109 66.353 C 300.007 65.919 299.885 65.487 299.808 65.052 C 299.79 64.61 299.769 64.168 299.764 63.732 L 299.948 62.446 C 300.021 62.022 300.185 61.623 300.306 61.216 C 300.374 61.014 300.427 60.812 300.511 60.612 L 300.802 60.015 C 300.995 59.623 301.186 59.248 301.373 58.901 Z M 301.439 58.99 L 301.129 60.202 L 300.98 60.767 L 300.876 61.367 C 300.819 61.769 300.714 62.162 300.684 62.56 L 300.623 63.749 L 300.74 64.91 C 300.822 65.286 300.941 65.651 301.034 66.021 C 301.216 66.358 301.347 66.718 301.539 67.048 C 301.775 67.352 301.931 67.712 302.204 67.996 C 303.177 69.221 304.505 70.243 305.926 71.073 C 307.354 71.909 308.888 72.539 310.362 73.375 L 309.898 73.597 C 309.912 71.938 309.947 70.286 309.772 68.662 C 309.612 67.041 309.295 65.441 308.72 63.968 C 308.153 62.499 307.28 61.147 306.001 60.244 C 304.727 59.352 303.054 58.997 301.439 58.99 Z" fill="#000000" stroke="none"/><path d="M 305.799 66.288 C 306.592 65.976 307.33 65.999 308.054 66.101 C 308.773 66.237 309.478 66.454 310.127 67.009 C 309.333 67.323 308.596 67.3 307.872 67.196 C 307.153 67.057 306.448 66.84 305.799 66.288 Z" fill="#000000" stroke="none"/><path d="M 303.613 62.91 C 304.305 62.433 305.015 62.297 305.729 62.24 C 306.446 62.218 307.166 62.277 307.905 62.679 C 307.213 63.157 306.503 63.294 305.789 63.348 C 305.073 63.368 304.352 63.308 303.613 62.91 Z" fill="#000000" stroke="none"/><path d="M 297.02 59.379 C 289.036 61.348 292.003 67.21 292.3 71.323 C 292.3 71.323 296.247 65.414 297.02 59.379 Z" fill="#000000" stroke="none"/><path d="M 297.031 59.339 C 298.042 60.159 298.78 61.303 298.997 62.642 C 299.171 63.978 298.805 65.348 298.141 66.48 C 297.474 67.622 296.55 68.555 295.58 69.386 C 294.615 70.234 293.516 70.888 292.419 71.514 L 292.402 71.524 C 292.297 71.583 292.164 71.547 292.104 71.442 C 292.085 71.41 292.076 71.373 292.075 71.339 C 292.047 70.115 291.813 68.883 291.599 67.655 C 291.379 66.431 291.123 65.168 291.315 63.853 C 291.489 62.537 292.322 61.306 293.42 60.589 C 293.7 60.422 293.989 60.269 294.272 60.115 C 294.56 59.969 294.871 59.882 295.166 59.765 C 295.453 59.641 295.779 59.564 296.107 59.508 L 297.031 59.339 Z M 297.009 59.419 C 296.396 59.705 295.88 59.859 295.335 60.167 C 295.068 60.313 294.785 60.429 294.536 60.597 C 294.291 60.771 294.051 60.947 293.803 61.109 L 293.165 61.709 C 292.979 61.929 292.816 62.167 292.638 62.392 C 292.52 62.654 292.367 62.896 292.257 63.162 C 292.185 63.441 292.041 63.699 291.998 63.991 C 291.713 65.13 291.712 66.388 291.867 67.613 C 292.029 68.844 292.35 70.046 292.525 71.306 L 292.181 71.131 C 293.175 70.381 294.174 69.646 295.061 68.8 C 295.952 67.964 296.76 67.044 297.374 66.028 C 297.989 65.019 298.394 63.882 298.348 62.707 C 298.296 61.541 297.742 60.384 297.009 59.419 Z" fill="#000000" stroke="none"/><path d="M 294.658 65.35 C 295.205 65.68 295.53 66.129 295.8 66.607 C 296.048 67.097 296.24 67.617 296.207 68.256 C 295.658 67.927 295.333 67.478 295.064 66.999 C 294.818 66.508 294.626 65.989 294.658 65.35 Z" fill="#000000" stroke="none"/><path d="M 295.669 62.505 C 296.268 62.7 296.675 63.058 297.036 63.458 C 297.376 63.874 297.669 64.331 297.769 64.954 C 297.168 64.76 296.762 64.401 296.403 64 C 296.063 63.583 295.77 63.126 295.669 62.505 Z" fill="#000000" stroke="none"/><path d="M 350.507 65.75 C 347.812 78.107 357.918 77.984 363.796 80.36 C 363.796 80.36 358.314 70.908 350.507 65.75 Z" fill="#000000" stroke="none"/><path d="M 350.459 65.707 C 352.276 64.868 354.356 64.623 356.352 65.232 C 358.314 65.897 359.956 67.331 361.07 69.015 C 362.195 70.71 362.856 72.617 363.346 74.52 C 363.863 76.427 364.019 78.388 364.142 80.325 L 364.144 80.356 C 364.155 80.541 364.014 80.701 363.829 80.713 C 363.771 80.716 363.715 80.704 363.666 80.682 C 361.958 79.889 360.101 79.369 358.258 78.842 C 356.418 78.316 354.502 77.814 352.818 76.658 C 352.387 76.392 352.037 76.002 351.659 75.66 C 351.311 75.284 351.026 74.844 350.726 74.428 C 350.511 73.959 350.274 73.498 350.088 73.023 C 349.967 72.527 349.843 72.033 349.738 71.539 L 349.653 70.042 C 349.639 69.546 349.734 69.058 349.778 68.57 C 349.81 68.325 349.824 68.085 349.873 67.84 L 350.066 67.097 C 350.195 66.61 350.327 66.142 350.459 65.707 Z M 350.555 65.792 L 350.479 67.235 L 350.439 67.908 L 350.458 68.611 C 350.485 69.078 350.456 69.547 350.512 70.004 L 350.714 71.363 L 351.111 72.651 C 351.288 73.057 351.506 73.443 351.696 73.841 C 351.978 74.181 352.208 74.558 352.501 74.889 C 352.838 75.178 353.096 75.55 353.47 75.809 C 354.85 76.974 356.585 77.828 358.382 78.444 C 360.188 79.065 362.068 79.429 363.926 80.039 L 363.451 80.395 C 363.089 78.515 362.752 76.638 362.185 74.84 C 361.635 73.042 360.912 71.304 359.926 69.767 C 358.95 68.234 357.655 66.904 356.001 66.173 C 354.356 65.453 352.383 65.433 350.555 65.792 Z" fill="#000000" stroke="none"/><path d="M 357.149 73.058 C 357.976 72.524 358.815 72.383 359.658 72.333 C 360.081 72.33 360.503 72.343 360.928 72.431 C 361.353 72.511 361.78 72.636 362.21 72.889 C 361.798 73.169 361.38 73.323 360.962 73.431 C 360.543 73.547 360.123 73.588 359.701 73.614 C 358.857 73.62 358.009 73.535 357.149 73.058 Z" fill="#000000" stroke="none"/><path d="M 353.906 69.732 C 354.581 69.037 355.353 68.72 356.148 68.493 C 356.552 68.401 356.959 68.324 357.385 68.32 C 357.809 68.307 358.244 68.339 358.71 68.495 C 358.377 68.856 358.011 69.094 357.634 69.288 C 357.259 69.49 356.866 69.62 356.468 69.734 C 355.662 69.919 354.833 70.016 353.906 69.732 Z" fill="#000000" stroke="none"/><path d="M 322.669 63.893 C 316.011 75.915 326.568 78.939 331.946 83.246 C 331.946 83.246 329.187 71.697 322.669 63.893 Z" fill="#000000" stroke="none"/><path d="M 322.633 63.834 C 324.786 63.527 327.027 63.921 328.915 65.178 C 330.75 66.482 332.012 68.487 332.645 70.587 C 333.289 72.702 333.382 74.893 333.298 77.026 C 333.242 79.172 332.793 81.262 332.316 83.317 L 332.308 83.35 C 332.263 83.546 332.066 83.668 331.87 83.623 C 331.809 83.609 331.754 83.579 331.71 83.54 C 330.18 82.183 328.409 81.062 326.654 79.939 C 324.903 78.817 323.065 77.697 321.673 75.968 C 321.308 75.558 321.065 75.042 320.778 74.568 C 320.533 74.068 320.373 73.522 320.19 72.995 C 320.113 72.44 320.011 71.886 319.965 71.333 C 319.993 70.78 320.019 70.226 320.063 69.68 C 320.178 69.147 320.313 68.619 320.442 68.095 C 320.582 67.575 320.833 67.095 321.031 66.601 C 321.141 66.357 321.23 66.111 321.357 65.871 L 321.791 65.159 C 322.077 64.692 322.36 64.246 322.633 63.834 Z M 322.706 63.953 L 322.177 65.431 L 321.926 66.119 L 321.726 66.856 C 321.609 67.351 321.432 67.83 321.348 68.324 C 321.28 68.821 321.217 69.313 321.135 69.801 L 321.146 71.265 C 321.204 71.743 321.31 72.213 321.384 72.686 C 321.572 73.128 321.694 73.592 321.895 74.028 C 322.156 74.434 322.308 74.902 322.616 75.288 C 323.689 76.931 325.229 78.361 326.908 79.563 C 328.594 80.772 330.437 81.738 332.181 82.952 L 331.576 83.175 C 331.785 81.105 332.02 79.046 331.991 76.997 C 331.978 74.954 331.768 72.92 331.221 71.013 C 330.683 69.113 329.749 67.324 328.257 66.048 C 326.769 64.786 324.721 64.149 322.706 63.953 Z" fill="#000000" stroke="none"/><path d="M 327.304 73.572 C 327.821 73.41 328.303 73.381 328.772 73.399 C 329.242 73.417 329.699 73.482 330.142 73.6 C 330.586 73.713 331.016 73.884 331.434 74.098 C 331.851 74.314 332.256 74.577 332.625 74.975 C 332.108 75.138 331.626 75.167 331.156 75.149 C 330.687 75.13 330.229 75.067 329.787 74.946 C 329.343 74.83 328.914 74.662 328.496 74.446 C 328.079 74.23 327.674 73.967 327.304 73.572 Z" fill="#000000" stroke="none"/><path d="M 324.966 69.1 C 325.426 68.829 325.881 68.696 326.333 68.611 C 326.787 68.526 327.237 68.49 327.686 68.508 C 328.135 68.522 328.582 68.595 329.027 68.713 C 329.472 68.833 329.915 69.002 330.352 69.309 C 329.892 69.581 329.437 69.715 328.985 69.8 C 328.532 69.883 328.081 69.921 327.632 69.9 C 327.183 69.884 326.736 69.812 326.291 69.693 C 325.847 69.573 325.404 69.405 324.966 69.1 Z" fill="#000000" stroke="none"/><path d="M 379.248 39.575 C 367.642 44.563 365.844 34.63 362.397 29.317 C 362.397 29.317 372.707 32.898 379.248 39.575 Z" fill="#000000" stroke="none"/><path d="M 379.197 39.536 C 379.202 37.675 378.808 35.743 377.79 34.267 C 376.759 32.785 375.208 31.767 373.519 31.101 C 371.826 30.426 369.984 30.047 368.117 29.849 C 366.246 29.634 364.341 29.66 362.428 29.662 L 362.687 29.129 C 363.639 30.835 364.352 32.609 365.304 34.263 C 366.25 35.908 367.417 37.447 368.821 38.579 C 369.146 38.897 369.56 39.079 369.908 39.354 C 370.288 39.579 370.701 39.732 371.088 39.945 C 371.514 40.056 371.934 40.196 372.366 40.293 L 373.704 40.437 L 375.075 40.377 C 375.534 40.346 375.988 40.228 376.452 40.166 L 377.144 40.051 L 377.797 39.884 L 379.197 39.536 Z M 379.299 39.613 C 378.898 39.825 378.464 40.043 378.011 40.262 L 377.319 40.593 C 377.088 40.688 376.855 40.747 376.621 40.825 C 376.151 40.96 375.69 41.146 375.201 41.226 L 373.716 41.428 C 373.213 41.419 372.705 41.392 372.195 41.366 C 371.694 41.274 371.197 41.13 370.697 41.008 C 370.231 40.793 369.747 40.596 369.311 40.327 C 368.904 40.021 368.455 39.752 368.113 39.38 C 366.659 37.948 365.803 36.164 364.937 34.46 C 364.071 32.753 363.208 31.03 362.106 29.506 C 361.998 29.356 362.031 29.146 362.182 29.037 C 362.228 29.003 362.281 28.983 362.334 28.976 L 362.366 28.972 C 364.289 28.724 366.242 28.505 368.21 28.65 C 370.169 28.769 372.165 29.055 374.04 29.837 C 375.903 30.609 377.621 31.946 378.645 33.745 C 379.622 35.586 379.777 37.672 379.299 39.613 Z" fill="#000000" stroke="none"/><path d="M 370.82 34.449 C 370.189 33.696 369.945 32.881 369.79 32.052 C 369.735 31.634 369.696 31.213 369.73 30.781 C 369.757 30.35 369.828 29.912 370.025 29.454 C 370.354 29.828 370.558 30.222 370.717 30.624 C 370.884 31.024 370.977 31.436 371.055 31.85 C 371.166 32.687 371.186 33.537 370.82 34.449 Z" fill="#000000" stroke="none"/><path d="M 374.697 36.997 C 374.243 36.142 374.18 35.311 374.209 34.485 C 374.246 34.074 374.298 33.663 374.425 33.257 C 374.543 32.851 374.707 32.447 374.998 32.051 C 375.24 32.479 375.353 32.9 375.422 33.318 C 375.498 33.736 375.5 34.15 375.486 34.563 C 375.415 35.386 375.251 36.204 374.697 36.997 Z" fill="#000000" stroke="none"/><path d="M 340.172 61.562 C 331.951 51.971 340.896 47.293 344.941 42.42 C 344.941 42.42 344.596 53.329 340.172 61.562 Z" fill="#000000" stroke="none"/><path d="M 340.194 61.502 C 341.972 60.952 343.698 60 344.804 58.588 C 345.912 57.162 346.421 55.379 346.553 53.569 C 346.693 51.75 346.505 49.879 346.138 48.038 C 345.786 46.188 345.193 44.377 344.621 42.552 L 345.207 42.641 C 343.862 44.058 342.381 45.268 341.087 46.669 C 339.798 48.062 338.677 49.635 338.014 51.312 C 337.808 51.717 337.758 52.166 337.598 52.581 C 337.498 53.01 337.474 53.451 337.387 53.884 C 337.408 54.323 337.399 54.766 337.435 55.207 L 337.696 56.527 L 338.162 57.818 C 338.329 58.246 338.577 58.645 338.774 59.069 L 339.09 59.696 L 339.445 60.269 L 340.194 61.502 Z M 340.15 61.622 C 339.829 61.303 339.491 60.953 339.147 60.586 L 338.625 60.024 C 338.465 59.832 338.34 59.627 338.196 59.427 C 337.926 59.019 337.611 58.634 337.389 58.191 L 336.754 56.834 C 336.613 56.351 336.488 55.857 336.36 55.364 C 336.298 54.858 336.288 54.34 336.255 53.827 C 336.322 53.318 336.365 52.797 336.492 52.301 C 336.663 51.821 336.786 51.312 337.039 50.875 C 337.973 49.06 339.42 47.711 340.789 46.377 C 342.161 45.041 343.548 43.704 344.674 42.199 C 344.785 42.05 344.996 42.019 345.144 42.131 C 345.19 42.165 345.225 42.209 345.248 42.258 L 345.261 42.287 C 346.071 44.049 346.862 45.848 347.31 47.769 C 347.781 49.675 348.102 51.665 347.915 53.688 C 347.733 55.697 346.969 57.735 345.558 59.249 C 344.091 60.73 342.146 61.5 340.15 61.622 Z" fill="#000000" stroke="none"/><path d="M 342.553 51.99 C 343.083 51.163 343.789 50.686 344.534 50.292 C 344.917 50.115 345.307 49.952 345.729 49.856 C 346.149 49.753 346.588 49.69 347.084 49.742 C 346.825 50.168 346.509 50.48 346.173 50.751 C 345.841 51.03 345.476 51.242 345.103 51.439 C 344.338 51.794 343.532 52.067 342.553 51.99 Z" fill="#000000" stroke="none"/><path d="M 341.276 56.45 C 341.957 55.762 342.731 55.454 343.528 55.235 C 343.932 55.147 344.339 55.075 344.765 55.075 C 345.188 55.067 345.623 55.103 346.087 55.264 C 345.75 55.621 345.382 55.855 345.004 56.045 C 344.627 56.243 344.233 56.368 343.834 56.478 C 343.028 56.655 342.199 56.742 341.276 56.45 Z" fill="#000000" stroke="none"/><path d="M 362.058 58.837 C 351.902 54.26 357.291 47.175 358.694 41.77 C 358.694 41.77 362.505 50.607 362.058 58.837 Z" fill="#000000" stroke="none"/><path d="M 362.053 58.781 C 363.266 57.676 364.288 56.269 364.642 54.728 C 364.992 53.175 364.73 51.56 364.158 50.066 C 363.588 48.562 362.737 47.139 361.754 45.806 C 360.78 44.461 359.628 43.238 358.488 41.996 L 358.99 41.847 C 358.446 43.481 357.718 45.002 357.209 46.606 C 356.703 48.2 356.396 49.876 356.496 51.463 C 356.483 51.864 356.611 52.241 356.639 52.632 C 356.719 53.012 356.865 53.372 356.958 53.751 C 357.14 54.094 357.298 54.451 357.493 54.789 L 358.195 55.746 L 359.051 56.601 C 359.344 56.881 359.692 57.106 360.008 57.371 L 360.496 57.753 L 360.993 58.078 L 362.053 58.781 Z M 362.063 58.893 C 361.686 58.759 361.286 58.606 360.873 58.442 L 360.247 58.189 C 360.047 58.095 359.87 57.979 359.681 57.873 C 359.312 57.649 358.917 57.459 358.574 57.189 L 357.558 56.344 C 357.265 56.011 356.979 55.663 356.693 55.317 C 356.454 54.936 356.252 54.527 356.033 54.129 C 355.896 53.699 355.735 53.266 355.651 52.823 C 355.607 52.375 355.515 51.923 355.554 51.479 C 355.619 49.681 356.269 48.062 356.862 46.485 C 357.456 44.904 358.063 43.317 358.398 41.693 C 358.431 41.533 358.588 41.43 358.748 41.463 C 358.798 41.473 358.842 41.496 358.878 41.526 L 358.9 41.544 C 360.207 42.647 361.512 43.787 362.589 45.153 C 363.679 46.498 364.681 47.966 365.29 49.651 C 365.896 51.323 366.05 53.236 365.491 54.974 C 364.874 56.705 363.61 58.048 362.063 58.893 Z" fill="#000000" stroke="none"/><path d="M 360.373 50.304 C 360.486 49.445 360.871 48.801 361.318 48.207 C 361.794 47.635 362.335 47.115 363.148 46.812 C 363.036 47.672 362.652 48.317 362.202 48.909 C 361.725 49.479 361.184 49.999 360.373 50.304 Z" fill="#000000" stroke="none"/><path d="M 361.024 54.343 C 361.31 53.538 361.813 53.002 362.367 52.529 C 362.943 52.084 363.573 51.704 364.42 51.594 C 364.136 52.4 363.633 52.935 363.077 53.407 C 362.499 53.85 361.87 54.23 361.024 54.343 Z" fill="#000000" stroke="none"/><path d="M 316.535 58.066 C 310.352 48.8 318.678 45.652 322.734 41.813 C 322.734 41.813 321.278 51.327 316.535 58.066 Z" fill="#000000" stroke="none"/><path d="M 316.56 58.016 C 318.175 57.723 319.787 57.072 320.904 55.953 C 322.025 54.822 322.659 53.314 322.966 51.744 C 323.281 50.166 323.315 48.509 323.188 46.858 C 323.075 45.201 322.748 43.554 322.44 41.895 L 322.944 42.035 C 321.616 43.132 320.192 44.036 318.911 45.125 C 317.635 46.208 316.487 47.467 315.73 48.865 C 315.507 49.198 315.415 49.586 315.231 49.932 C 315.098 50.297 315.031 50.68 314.909 51.05 C 314.881 51.437 314.826 51.824 314.811 52.214 L 314.9 53.397 L 315.171 54.576 C 315.271 54.969 315.447 55.344 315.575 55.736 L 315.785 56.319 L 316.035 56.858 L 316.56 58.016 Z M 316.509 58.117 C 316.261 57.803 316.002 57.461 315.74 57.103 L 315.343 56.557 C 315.224 56.371 315.135 56.179 315.03 55.989 C 314.837 55.603 314.602 55.232 314.455 54.821 L 314.042 53.566 C 313.97 53.128 313.913 52.683 313.853 52.237 C 313.852 51.787 313.898 51.333 313.924 50.88 C 314.036 50.442 314.129 49.99 314.293 49.57 C 314.493 49.167 314.655 48.735 314.922 48.379 C 315.932 46.89 317.342 45.861 318.681 44.839 C 320.023 43.814 321.379 42.79 322.524 41.591 C 322.637 41.473 322.825 41.469 322.943 41.581 C 322.979 41.617 323.005 41.659 323.02 41.704 L 323.029 41.731 C 323.552 43.359 324.054 45.017 324.242 46.747 C 324.453 48.465 324.524 50.241 324.146 51.993 C 323.774 53.731 322.89 55.435 321.494 56.612 C 320.053 57.753 318.269 58.221 316.509 58.117 Z" fill="#000000" stroke="none"/><path d="M 319.631 49.938 C 320.184 49.27 320.851 48.928 321.545 48.662 C 322.252 48.43 322.986 48.276 323.836 48.45 C 323.285 49.12 322.617 49.462 321.922 49.726 C 321.215 49.956 320.481 50.11 319.631 49.938 Z" fill="#000000" stroke="none"/><path d="M 318.042 53.707 C 318.711 53.177 319.421 52.99 320.142 52.883 C 320.867 52.811 321.602 52.822 322.379 53.178 C 321.71 53.711 320.999 53.898 320.279 54.003 C 319.554 54.072 318.819 54.061 318.042 53.707 Z" fill="#000000" stroke="none"/><path d="M 384.283 30.646 C 391.56 37.01 395.207 30.2 398.967 27.142 C 398.967 27.142 390.617 27.324 384.283 30.646 Z" fill="#000000" stroke="none"/><path d="M 384.237 30.662 C 384.346 29.137 384.949 27.654 386.093 26.543 C 387.263 25.475 388.829 24.905 390.367 24.781 C 391.916 24.653 393.437 24.914 394.891 25.289 C 396.358 25.646 397.729 26.265 399.071 26.899 L 399.092 26.909 C 399.22 26.969 399.275 27.122 399.214 27.251 C 399.196 27.291 399.167 27.324 399.134 27.349 C 397.975 28.201 396.945 29.256 395.907 30.29 C 394.876 31.327 393.832 32.424 392.437 33.125 C 392.101 33.315 391.71 33.406 391.341 33.533 C 390.961 33.626 390.562 33.655 390.172 33.703 C 389.78 33.674 389.384 33.662 388.997 33.611 L 387.874 33.298 C 387.525 33.141 387.183 32.966 386.844 32.797 C 386.509 32.619 386.216 32.377 385.903 32.172 C 385.591 31.98 385.297 31.717 385.022 31.438 C 384.744 31.173 384.479 30.912 384.237 30.662 Z M 384.329 30.63 C 385.018 31.028 385.514 31.421 386.178 31.738 C 386.498 31.897 386.801 32.092 387.13 32.218 C 387.463 32.337 387.794 32.449 388.117 32.579 L 389.125 32.789 C 389.462 32.82 389.801 32.816 390.138 32.836 C 390.469 32.773 390.807 32.758 391.136 32.684 C 391.454 32.565 391.798 32.53 392.11 32.375 C 393.398 31.881 394.61 31.035 395.686 30.059 C 396.763 29.074 397.704 27.954 398.8 26.937 L 398.863 27.387 C 397.471 26.935 396.09 26.468 394.677 26.183 C 393.27 25.889 391.84 25.731 390.448 25.824 C 389.062 25.912 387.693 26.288 386.594 27.125 C 385.505 27.96 384.764 29.274 384.329 30.63 Z" fill="#000000" stroke="none"/><path d="M 391.626 28.897 C 391.574 28.147 391.789 27.533 392.066 26.95 C 392.372 26.382 392.742 25.846 393.38 25.447 C 393.434 26.198 393.219 26.812 392.939 27.394 C 392.632 27.962 392.263 28.497 391.626 28.897 Z" fill="#000000" stroke="none"/><path d="M 388.204 29.841 C 387.986 29.132 388.06 28.499 388.201 27.883 C 388.373 27.274 388.614 26.683 389.147 26.168 C 389.366 26.877 389.293 27.511 389.15 28.126 C 388.977 28.734 388.735 29.325 388.204 29.841 Z" fill="#000000" stroke="none"/><path d="M 225.165 45.84 C 228.131 45.633 231.009 45.717 233.923 45.678 C 236.828 45.673 239.731 45.604 242.633 45.505 C 245.534 45.403 248.433 45.265 251.327 45.057 C 254.219 44.829 257.105 44.54 259.978 44.174 C 265.714 43.416 271.446 42.386 276.879 40.501 C 279.593 39.575 282.222 38.404 284.599 36.9 C 286.973 35.413 289.077 33.508 290.413 31.229 L 290.419 31.218 C 290.789 30.588 291.599 30.377 292.228 30.746 C 292.858 31.116 293.069 31.926 292.7 32.555 C 292.676 32.596 292.649 32.636 292.622 32.673 C 290.714 35.249 288.182 37.091 285.562 38.537 C 282.92 39.972 280.129 40.995 277.32 41.865 C 274.504 42.733 271.63 43.327 268.758 43.869 C 265.883 44.396 262.992 44.818 260.092 45.125 C 254.291 45.742 248.473 46.057 242.656 46.231 C 239.747 46.317 236.837 46.342 233.93 46.394 C 231.033 46.458 228.09 46.407 225.256 46.632 L 225.225 46.634 C 225.006 46.651 224.814 46.488 224.796 46.269 C 224.779 46.05 224.943 45.858 225.162 45.841 L 225.165 45.84 Z" fill="#000000" stroke="none"/><path d="M 238.896 41.662 C 244.103 41.174 249.316 39.55 253.845 36.814 C 256.102 35.445 258.193 33.757 259.802 31.68 C 261.428 29.624 262.444 27.091 262.506 24.495 C 262.596 21.908 261.759 19.251 259.918 17.522 C 258.066 15.808 255.407 15.14 252.934 15.462 C 250.456 15.78 248.106 17.047 246.734 18.974 C 245.378 20.917 245.104 23.364 245.719 25.641 C 245.95 26.494 245.445 27.372 244.591 27.603 C 243.738 27.833 242.859 27.328 242.629 26.475 C 242.604 26.385 242.588 26.294 242.58 26.204 L 242.578 26.172 C 242.448 24.667 242.519 23.118 242.913 21.632 C 243.307 20.146 244.056 18.757 245.055 17.626 C 247.07 15.35 249.958 14.163 252.801 13.987 C 255.645 13.811 258.617 14.725 260.649 16.774 C 261.659 17.788 262.382 19.061 262.802 20.399 C 263.219 21.744 263.378 23.138 263.325 24.524 C 263.231 27.318 262.063 29.973 260.397 32.137 C 258.717 34.313 256.571 36.058 254.293 37.532 C 251.999 38.995 249.546 40.19 247.003 41.154 C 244.466 42.144 241.828 42.865 239.12 43.37 C 238.652 43.457 238.201 43.149 238.114 42.681 C 238.026 42.212 238.335 41.762 238.804 41.674 C 238.829 41.669 238.854 41.666 238.88 41.663 L 238.896 41.662 Z" fill="#000000" stroke="none"/><path d="M 258.377 56.176 C 262.348 56.25 266.242 57.276 269.883 58.813 C 273.525 60.365 276.947 62.482 279.914 65.179 C 282.856 67.871 285.397 71.224 286.611 75.232 C 287.219 77.224 287.431 79.364 287.215 81.464 C 287.003 83.568 286.363 85.611 285.443 87.485 L 285.441 87.49 C 285.108 88.169 284.287 88.449 283.608 88.116 C 282.929 87.782 282.648 86.961 282.982 86.282 C 282.991 86.263 283.003 86.24 283.013 86.222 C 284.761 83.067 285.376 79.354 284.44 75.834 C 283.538 72.31 281.367 69.11 278.696 66.46 C 276.009 63.803 272.808 61.623 269.356 59.982 C 265.905 58.352 262.173 57.202 258.351 56.972 L 258.345 56.971 C 258.126 56.958 257.958 56.769 257.972 56.55 C 257.985 56.336 258.165 56.172 258.377 56.176 Z" fill="#000000" stroke="none"/><path d="M 201.148 60.882 C 201.165 60.024 200.995 59.19 200.531 58.415 C 200.075 57.641 199.386 56.93 198.572 56.311 C 196.928 55.072 194.869 54.195 192.769 53.487 C 188.511 52.129 183.964 51.471 179.423 51.029 C 174.871 50.585 170.275 50.487 165.683 50.517 C 161.088 50.558 156.491 50.746 151.899 51.046 C 133.532 52.37 115.281 55.238 97.226 58.914 C 92.705 59.825 88.215 60.824 83.699 61.799 C 79.163 62.75 74.592 63.593 69.964 64.042 L 66.493 64.379 L 63.004 64.53 C 62.422 64.549 61.841 64.591 61.259 64.593 L 59.51 64.56 C 58.345 64.521 57.177 64.557 56.013 64.455 C 51.351 64.19 46.691 63.384 42.225 61.878 C 37.78 60.355 33.501 58.039 30.078 54.681 C 26.686 51.313 24.23 46.933 23.379 42.194 C 22.467 37.478 23.1 32.496 25.153 28.138 C 26.216 25.976 27.668 23.985 29.496 22.381 C 31.314 20.773 33.518 19.572 35.897 18.987 C 36.325 18.882 36.756 19.143 36.861 19.57 C 36.965 19.993 36.71 20.419 36.291 20.53 L 36.277 20.534 C 34.173 21.089 32.235 22.183 30.625 23.649 C 29.016 25.118 27.704 26.92 26.738 28.902 C 24.877 32.901 24.304 37.513 25.169 41.854 C 25.534 44.042 26.381 46.118 27.401 48.071 L 28.239 49.504 C 28.535 49.971 28.892 50.397 29.211 50.85 C 29.82 51.78 30.649 52.534 31.376 53.371 C 34.537 56.511 38.555 58.733 42.801 60.216 C 47.066 61.683 51.574 62.498 56.12 62.784 C 57.253 62.891 58.398 62.861 59.537 62.907 L 61.247 62.95 C 61.817 62.952 62.389 62.914 62.959 62.898 L 66.385 62.772 L 69.804 62.461 C 78.926 61.64 87.857 59.238 96.945 57.515 C 115.074 53.982 133.344 51.027 151.792 49.595 C 161.012 48.841 170.28 48.518 179.576 49.037 C 184.222 49.327 188.883 49.848 193.486 51.108 C 195.78 51.76 198.086 52.57 200.222 54.002 C 201.28 54.723 202.292 55.63 203.082 56.802 C 203.89 57.957 204.348 59.439 204.394 60.882 C 204.424 61.778 203.721 62.529 202.824 62.558 C 201.928 62.587 201.177 61.884 201.148 60.987 C 201.147 60.961 201.147 60.934 201.147 60.908 L 201.148 60.882 Z" fill="#000000" stroke="none"/><path d="M 35.977 20.414 C 32.796 5.023 45.351 5.312 52.687 2.438 C 52.687 2.438 45.748 14.11 35.977 20.414 Z" fill="#000000" stroke="none"/><path d="M 36.037 20.362 C 38.304 20.831 40.758 20.839 42.809 19.958 C 44.857 19.05 46.51 17.454 47.735 15.549 C 48.982 13.653 49.903 11.503 50.611 9.277 C 51.34 7.05 51.784 4.722 52.259 2.39 L 52.845 2.84 C 50.527 3.572 48.187 4 45.934 4.746 C 43.693 5.488 41.525 6.526 39.795 7.954 C 39.327 8.271 39.001 8.73 38.578 9.085 C 38.21 9.493 37.919 9.958 37.564 10.377 C 37.323 10.869 37.047 11.345 36.821 11.848 L 36.31 13.442 C 36.235 14.002 36.136 14.562 36.041 15.127 C 35.965 15.695 35.995 16.278 35.955 16.858 L 35.922 17.731 L 35.963 18.569 L 36.037 20.362 Z M 35.917 20.467 C 35.759 19.925 35.602 19.341 35.448 18.734 L 35.218 17.808 C 35.16 17.503 35.146 17.204 35.11 16.9 C 35.061 16.294 34.951 15.685 34.975 15.069 C 35.012 14.453 35.044 13.83 35.1 13.209 C 35.237 12.598 35.397 11.985 35.555 11.371 C 35.793 10.783 36.093 10.213 36.366 9.634 C 36.745 9.121 37.105 8.579 37.542 8.116 C 38.017 7.695 38.457 7.215 38.996 6.892 C 41.104 5.477 43.492 4.879 45.785 4.25 C 48.082 3.621 50.398 2.999 52.53 2.037 C 52.741 1.942 52.988 2.036 53.083 2.246 C 53.112 2.311 53.124 2.38 53.119 2.447 L 53.116 2.487 C 52.938 4.893 52.717 7.327 52.049 9.689 C 51.415 12.048 50.568 14.409 49.146 16.499 C 47.732 18.563 45.698 20.363 43.235 21.141 C 40.743 21.862 38.165 21.536 35.917 20.467 Z" fill="#000000" stroke="none"/><path d="M 44.329 11.423 C 44.868 11.117 45.399 10.968 45.928 10.874 C 46.458 10.77 46.984 10.746 47.508 10.767 C 48.032 10.79 48.554 10.861 49.072 11.011 C 49.591 11.15 50.107 11.347 50.617 11.701 C 50.078 12.009 49.546 12.159 49.017 12.253 C 48.488 12.355 47.961 12.38 47.437 12.358 C 46.913 12.331 46.392 12.261 45.873 12.111 C 45.355 11.971 44.838 11.775 44.329 11.423 Z" fill="#000000" stroke="none"/><path d="M 40.255 15.511 C 40.837 15.327 41.378 15.293 41.905 15.314 C 42.434 15.325 42.942 15.413 43.439 15.544 C 43.934 15.678 44.418 15.858 44.881 16.113 C 45.347 16.36 45.798 16.661 46.208 17.114 C 45.626 17.301 45.084 17.335 44.558 17.314 C 44.029 17.302 43.521 17.214 43.024 17.081 C 42.529 16.945 42.045 16.766 41.582 16.51 C 41.117 16.263 40.665 15.963 40.255 15.511 Z" fill="#000000" stroke="none"/><path d="M 24.522 25.906 C 12.098 23.626 16.106 14.362 16.181 8.029 C 16.181 8.029 22.779 16.724 24.522 25.906 Z" fill="#000000" stroke="none"/><path d="M 24.501 25.846 C 25.537 24.299 26.279 22.473 26.25 20.68 C 26.214 18.875 25.487 17.168 24.451 15.679 C 23.415 14.177 22.092 12.842 20.648 11.642 C 19.209 10.426 17.609 9.392 16.016 8.333 L 16.528 8.033 C 16.373 9.981 15.985 11.853 15.86 13.757 C 15.736 15.65 15.854 17.579 16.394 19.299 C 16.49 19.743 16.733 20.124 16.87 20.546 C 17.062 20.943 17.321 21.301 17.525 21.692 C 17.819 22.02 18.09 22.37 18.396 22.69 L 19.43 23.552 L 20.604 24.262 C 21.003 24.49 21.447 24.643 21.867 24.849 L 22.508 25.137 L 23.143 25.36 L 24.501 25.846 Z M 24.543 25.967 C 24.092 25.921 23.61 25.862 23.111 25.793 L 22.352 25.685 C 22.107 25.636 21.881 25.556 21.643 25.491 C 21.177 25.344 20.689 25.242 20.238 25.038 L 18.891 24.383 C 18.477 24.097 18.069 23.792 17.659 23.489 C 17.293 23.134 16.959 22.738 16.61 22.36 C 16.342 21.923 16.047 21.491 15.834 21.025 C 15.665 20.545 15.44 20.072 15.362 19.573 C 14.946 17.575 15.221 15.616 15.446 13.718 C 15.67 11.816 15.907 9.904 15.835 8.025 C 15.828 7.84 15.972 7.683 16.158 7.677 C 16.215 7.674 16.269 7.686 16.318 7.71 L 16.347 7.725 C 18.085 8.583 19.832 9.484 21.39 10.696 C 22.955 11.88 24.457 13.224 25.584 14.914 C 26.707 16.589 27.396 18.655 27.252 20.72 C 27.044 22.794 26.017 24.616 24.543 25.967 Z" fill="#000000" stroke="none"/><path d="M 20.349 16.969 C 20.24 15.993 20.488 15.179 20.82 14.403 C 21.006 14.024 21.206 13.653 21.474 13.312 C 21.735 12.968 22.037 12.642 22.455 12.37 C 22.522 12.864 22.473 13.306 22.383 13.728 C 22.3 14.154 22.149 14.548 21.983 14.936 C 21.613 15.694 21.159 16.413 20.349 16.969 Z" fill="#000000" stroke="none"/><path d="M 22.163 21.239 C 22.259 20.275 22.667 19.549 23.149 18.877 C 23.407 18.555 23.679 18.242 24.009 17.975 C 24.333 17.702 24.693 17.457 25.155 17.289 C 25.119 17.779 24.98 18.192 24.806 18.578 C 24.637 18.969 24.41 19.314 24.169 19.65 C 23.653 20.295 23.064 20.885 22.163 21.239 Z" fill="#000000" stroke="none"/><path d="M 201.711 46.876 C 190.144 51.955 188.269 42.036 184.78 36.75 C 184.78 36.75 195.119 40.25 201.711 46.876 Z" fill="#000000" stroke="none"/><path d="M 201.66 46.837 C 201.65 44.976 201.241 43.048 200.211 41.579 C 199.169 40.105 197.61 39.1 195.917 38.447 C 194.217 37.785 192.373 37.421 190.504 37.237 C 188.631 37.037 186.727 37.078 184.814 37.095 L 185.07 36.559 C 186.034 38.259 186.762 40.027 187.727 41.673 C 188.685 43.31 189.864 44.841 191.276 45.962 C 191.604 46.277 192.019 46.455 192.37 46.729 C 192.751 46.95 193.165 47.1 193.554 47.31 C 193.981 47.417 194.402 47.554 194.835 47.647 L 196.174 47.782 L 197.544 47.711 C 198.003 47.676 198.457 47.555 198.919 47.489 L 199.611 47.369 L 200.263 47.196 L 201.66 46.837 Z M 201.763 46.914 C 201.363 47.129 200.931 47.351 200.479 47.573 L 199.79 47.91 C 199.56 48.006 199.327 48.067 199.094 48.146 C 198.625 48.286 198.165 48.475 197.677 48.559 L 196.194 48.773 C 195.69 48.767 195.182 48.744 194.672 48.723 C 194.17 48.634 193.672 48.494 193.171 48.376 C 192.704 48.164 192.218 47.972 191.781 47.706 C 191.371 47.403 190.919 47.137 190.575 46.768 C 189.11 45.348 188.239 43.57 187.361 41.873 C 186.481 40.173 185.605 38.457 184.491 36.941 C 184.381 36.792 184.414 36.581 184.563 36.472 C 184.609 36.438 184.662 36.417 184.715 36.41 L 184.747 36.406 C 186.668 36.142 188.619 35.908 190.588 36.038 C 192.548 36.142 194.545 36.412 196.427 37.179 C 198.296 37.936 200.024 39.261 201.063 41.051 C 202.054 42.885 202.225 44.969 201.763 46.914 Z" fill="#000000" stroke="none"/><path d="M 193.244 41.816 C 192.606 41.068 192.355 40.255 192.195 39.427 C 192.137 39.01 192.094 38.589 192.125 38.157 C 192.148 37.725 192.216 37.287 192.409 36.827 C 192.742 37.199 192.949 37.592 193.111 37.992 C 193.281 38.391 193.377 38.802 193.457 39.216 C 193.575 40.051 193.603 40.901 193.244 41.816 Z" fill="#000000" stroke="none"/><path d="M 197.14 44.334 C 196.68 43.482 196.61 42.652 196.632 41.826 C 196.665 41.414 196.715 41.003 196.838 40.596 C 196.954 40.189 197.115 39.784 197.403 39.386 C 197.647 39.812 197.765 40.232 197.836 40.649 C 197.916 41.067 197.921 41.481 197.911 41.894 C 197.845 42.718 197.688 43.536 197.14 44.334 Z" fill="#000000" stroke="none"/><path d="M 164.693 52.689 C 167.709 64.956 157.616 65.1 151.809 67.627 C 151.809 67.627 157.034 58.045 164.693 52.689 Z" fill="#000000" stroke="none"/><path d="M 164.647 52.733 C 162.812 52.422 160.842 52.494 159.218 53.256 C 157.587 54.03 156.329 55.392 155.394 56.948 C 154.45 58.509 153.774 60.263 153.272 62.073 C 152.753 63.883 152.466 65.766 152.154 67.653 L 151.671 67.309 C 153.51 66.652 155.377 66.239 157.165 65.571 C 158.942 64.909 160.653 64.01 162 62.811 C 162.366 62.542 162.614 62.164 162.943 61.866 C 163.226 61.528 163.446 61.146 163.719 60.799 C 163.898 60.396 164.105 60.005 164.272 59.595 L 164.634 58.299 L 164.8 56.937 C 164.845 56.479 164.803 56.012 164.818 55.544 L 164.818 54.842 L 164.76 54.171 L 164.647 52.733 Z M 164.74 52.645 C 164.883 53.076 165.027 53.539 165.168 54.022 L 165.382 54.759 C 165.437 55.003 165.457 55.242 165.495 55.485 C 165.552 55.971 165.66 56.457 165.659 56.952 L 165.614 58.45 C 165.522 58.945 165.411 59.442 165.303 59.94 C 165.13 60.419 164.906 60.886 164.704 61.359 C 164.415 61.783 164.142 62.229 163.804 62.614 C 163.436 62.966 163.096 63.365 162.673 63.641 C 161.022 64.84 159.122 65.392 157.299 65.966 C 155.473 66.54 153.631 67.108 151.947 67.945 C 151.781 68.028 151.58 67.96 151.497 67.794 C 151.472 67.742 151.46 67.687 151.462 67.634 L 151.463 67.601 C 151.534 65.663 151.639 63.702 152.105 61.784 C 152.544 59.871 153.153 57.949 154.233 56.227 C 155.3 54.517 156.901 53.041 158.844 52.326 C 160.821 51.665 162.903 51.855 164.74 52.645 Z" fill="#000000" stroke="none"/><path d="M 158.254 60.161 C 157.407 60.66 156.563 60.767 155.72 60.783 C 155.299 60.768 154.877 60.739 154.457 60.634 C 154.036 60.537 153.615 60.395 153.195 60.125 C 153.619 59.862 154.041 59.725 154.464 59.635 C 154.886 59.536 155.308 59.511 155.729 59.503 C 156.572 59.531 157.415 59.65 158.254 60.161 Z" fill="#000000" stroke="none"/><path d="M 161.404 56.755 C 160.486 57.062 159.656 56.988 158.846 56.824 C 158.446 56.721 158.05 56.601 157.67 56.41 C 157.289 56.226 156.917 55.997 156.575 55.645 C 157.037 55.478 157.47 55.435 157.894 55.436 C 158.319 55.429 158.728 55.495 159.132 55.577 C 159.933 55.783 160.712 56.078 161.404 56.755 Z" fill="#000000" stroke="none"/><path d="M 199.914 36.111 C 189.481 34.196 192.847 26.418 192.91 21.1 C 192.91 21.1 198.449 28.401 199.914 36.111 Z" fill="#000000" stroke="none"/><path d="M 199.895 36.06 C 200.765 34.762 201.389 33.228 201.364 31.723 C 201.333 30.207 200.723 28.774 199.853 27.523 C 198.983 26.263 197.873 25.142 196.66 24.134 C 195.452 23.113 194.109 22.245 192.771 21.356 L 193.201 21.104 C 193.071 22.739 192.745 24.311 192.641 25.91 C 192.536 27.499 192.635 29.119 193.089 30.563 C 193.169 30.936 193.374 31.256 193.488 31.611 C 193.649 31.944 193.867 32.244 194.039 32.572 C 194.285 32.848 194.513 33.142 194.769 33.41 L 195.637 34.134 C 195.969 34.322 196.291 34.53 196.621 34.735 C 196.954 34.933 197.328 35.059 197.683 35.226 C 198.408 35.581 199.084 35.739 199.895 36.06 Z M 199.931 36.162 C 199.552 36.123 199.147 36.074 198.728 36.016 L 198.091 35.925 C 197.885 35.885 197.696 35.814 197.497 35.758 C 197.107 35.63 196.7 35.542 196.319 35.376 C 195.942 35.2 195.559 35.026 195.185 34.832 L 194.151 34.081 C 193.843 33.783 193.563 33.451 193.27 33.133 C 193.045 32.766 192.797 32.403 192.619 32.013 C 192.476 31.609 192.288 31.212 192.222 30.793 C 191.872 29.116 192.103 27.47 192.292 25.877 C 192.481 24.28 192.68 22.675 192.619 21.097 C 192.613 20.941 192.734 20.81 192.89 20.805 C 192.938 20.803 192.984 20.813 193.024 20.833 L 193.049 20.845 C 194.508 21.566 195.975 22.322 197.283 23.339 C 198.597 24.334 199.858 25.462 200.805 26.882 C 201.748 28.288 202.326 30.022 202.206 31.756 C 202.031 33.497 201.168 35.027 199.931 36.162 Z" fill="#000000" stroke="none"/><path d="M 196.409 28.607 C 196.318 27.787 196.526 27.103 196.805 26.453 C 197.114 25.815 197.495 25.211 198.178 24.746 C 198.27 25.566 198.062 26.25 197.782 26.9 C 197.47 27.536 197.089 28.14 196.409 28.607 Z" fill="#000000" stroke="none"/><path d="M 197.932 32.192 C 198.013 31.383 198.356 30.773 198.76 30.209 C 199.191 29.666 199.686 29.171 200.445 28.875 C 200.366 29.685 200.023 30.296 199.617 30.858 C 199.184 31.4 198.689 31.895 197.932 32.192 Z" fill="#000000" stroke="none"/><path d="M 24.268 51.56 C 16.61 63.302 8.845 55.228 2.395 52.437 C 2.395 52.437 14.122 49.411 24.268 51.56 Z" fill="#000000" stroke="none"/><path d="M 24.198 51.556 C 23.058 49.835 21.509 48.287 19.657 47.556 C 17.79 46.844 15.741 46.815 13.768 47.251 C 11.788 47.668 9.854 48.45 8.006 49.414 C 6.145 50.365 4.401 51.56 2.636 52.737 L 2.547 52.085 C 4.475 53.078 6.225 54.278 8.12 55.221 C 10.005 56.16 12.029 56.865 14.022 57.049 C 14.517 57.142 15.012 57.056 15.503 57.097 C 15.991 57.07 16.468 56.958 16.956 56.917 C 17.418 56.757 17.892 56.629 18.351 56.453 L 19.676 55.765 C 20.076 55.457 20.49 55.165 20.905 54.867 C 21.31 54.556 21.658 54.167 22.048 53.825 L 22.618 53.293 L 23.118 52.738 L 24.198 51.556 Z M 24.339 51.565 C 24.099 52.007 23.832 52.475 23.547 52.956 L 23.112 53.687 C 22.956 53.917 22.778 54.115 22.609 54.329 C 22.259 54.744 21.946 55.199 21.544 55.574 C 21.133 55.941 20.722 56.314 20.296 56.672 C 19.825 56.973 19.338 57.26 18.852 57.55 C 18.332 57.773 17.785 57.945 17.248 58.14 C 16.685 58.227 16.117 58.343 15.549 58.362 C 14.984 58.329 14.404 58.357 13.86 58.223 C 11.637 57.793 9.749 56.671 7.902 55.629 C 6.052 54.583 4.197 53.522 2.242 52.79 C 2.049 52.719 1.952 52.504 2.024 52.311 C 2.046 52.251 2.082 52.201 2.127 52.161 L 2.154 52.138 C 3.778 50.726 5.448 49.325 7.356 48.249 C 9.239 47.155 11.259 46.193 13.472 45.763 C 15.664 45.345 18.083 45.484 20.131 46.54 C 22.161 47.649 23.588 49.476 24.339 51.565 Z" fill="#000000" stroke="none"/><path d="M 13.331 52.003 C 12.798 51.859 12.368 51.619 11.974 51.346 C 11.581 51.072 11.223 50.766 10.907 50.421 C 10.587 50.079 10.311 49.698 10.07 49.284 C 9.83 48.869 9.626 48.42 9.527 47.876 C 10.061 48.019 10.492 48.259 10.886 48.532 C 11.278 48.806 11.637 49.112 11.952 49.458 C 12.269 49.802 12.546 50.183 12.787 50.597 C 13.027 51.012 13.231 51.46 13.331 52.003 Z" fill="#000000" stroke="none"/><path d="M 18.479 51.975 C 17.995 51.727 17.632 51.408 17.311 51.064 C 16.992 50.72 16.714 50.351 16.485 49.954 C 16.251 49.56 16.07 49.135 15.93 48.687 C 15.789 48.239 15.693 47.765 15.719 47.22 C 16.205 47.468 16.568 47.787 16.889 48.131 C 17.207 48.475 17.487 48.843 17.713 49.241 C 17.944 49.637 18.127 50.061 18.267 50.51 C 18.407 50.958 18.503 51.432 18.479 51.975 Z" fill="#000000" stroke="none"/><path d="M 29.149 57.023 C 31.483 67.729 22.728 67.622 17.636 69.682 C 17.636 69.682 22.385 61.492 29.149 57.023 Z" fill="#000000" stroke="none"/><path d="M 29.108 57.06 C 27.524 56.749 25.814 56.767 24.389 57.39 C 22.956 58.023 21.834 59.176 20.989 60.504 C 20.134 61.835 19.508 63.341 19.031 64.898 C 18.54 66.456 18.248 68.082 17.934 69.712 L 17.523 69.403 C 19.133 68.874 20.762 68.558 22.327 68.021 C 23.883 67.487 25.387 66.747 26.582 65.739 C 26.906 65.514 27.129 65.191 27.422 64.94 C 27.675 64.654 27.874 64.328 28.119 64.033 C 28.283 63.688 28.472 63.354 28.626 63.002 L 28.97 61.887 L 29.144 60.709 C 29.193 60.313 29.168 59.907 29.191 59.502 L 29.208 58.893 L 29.173 58.309 L 29.108 57.06 Z M 29.19 56.986 C 29.305 57.363 29.419 57.768 29.531 58.19 L 29.699 58.834 C 29.741 59.046 29.753 59.254 29.781 59.466 C 29.819 59.889 29.901 60.312 29.889 60.742 L 29.815 62.039 C 29.725 62.467 29.617 62.895 29.512 63.325 C 29.351 63.736 29.146 64.136 28.96 64.541 C 28.7 64.902 28.452 65.283 28.151 65.609 C 27.824 65.906 27.52 66.244 27.147 66.474 C 25.688 67.475 24.028 67.911 22.434 68.366 C 20.837 68.823 19.228 69.273 17.748 69.96 C 17.602 70.028 17.429 69.964 17.361 69.818 C 17.34 69.773 17.332 69.725 17.335 69.679 L 17.337 69.651 C 17.442 67.972 17.578 66.273 18.026 64.621 C 18.45 62.973 19.023 61.32 19.998 59.852 C 20.963 58.393 22.385 57.151 24.085 56.575 C 25.814 56.047 27.616 56.259 29.19 56.986 Z" fill="#000000" stroke="none"/><path d="M 23.395 63.354 C 22.649 63.768 21.915 63.842 21.184 63.836 C 20.453 63.795 19.726 63.673 19.01 63.208 C 19.755 62.792 20.489 62.718 21.221 62.726 C 21.951 62.77 22.679 62.892 23.395 63.354 Z" fill="#000000" stroke="none"/><path d="M 26.204 60.474 C 25.401 60.719 24.683 60.636 23.984 60.475 C 23.295 60.28 22.625 60.006 22.042 59.401 C 22.846 59.153 23.563 59.237 24.261 59.4 C 24.95 59.597 25.62 59.871 26.204 60.474 Z" fill="#000000" stroke="none"/><path d="M 104.933 58.946 C 109.333 68.981 100.729 70.603 96.142 73.626 C 96.142 73.626 99.183 64.661 104.933 58.946 Z" fill="#000000" stroke="none"/><path d="M 104.9 58.99 C 103.286 58.997 101.613 59.352 100.338 60.244 C 99.059 61.147 98.186 62.499 97.62 63.968 C 97.044 65.441 96.728 67.041 96.567 68.662 C 96.393 70.286 96.427 71.938 96.441 73.597 L 95.977 73.375 C 97.451 72.539 98.985 71.909 100.414 71.073 C 101.834 70.243 103.162 69.221 104.135 67.996 C 104.409 67.712 104.564 67.352 104.801 67.048 C 104.993 66.718 105.124 66.358 105.306 66.021 C 105.398 65.651 105.518 65.286 105.599 64.91 L 105.716 63.749 L 105.655 62.56 C 105.625 62.162 105.52 61.769 105.463 61.367 L 105.359 60.767 L 105.21 60.202 L 104.9 58.99 Z M 104.966 58.901 C 105.153 59.248 105.345 59.623 105.537 60.015 L 105.829 60.612 C 105.912 60.812 105.965 61.014 106.034 61.216 C 106.155 61.623 106.318 62.022 106.391 62.446 L 106.576 63.732 C 106.571 64.168 106.55 64.61 106.531 65.052 C 106.455 65.487 106.332 65.919 106.23 66.353 C 106.046 66.759 105.879 67.181 105.648 67.559 C 105.385 67.915 105.155 68.306 104.834 68.605 C 103.602 69.875 102.06 70.629 100.587 71.39 C 99.111 72.153 97.623 72.912 96.308 73.877 C 96.178 73.972 95.996 73.944 95.9 73.814 C 95.871 73.774 95.853 73.729 95.847 73.683 L 95.843 73.655 C 95.616 71.989 95.414 70.296 95.527 68.588 C 95.618 66.889 95.853 65.156 96.519 63.524 C 97.178 61.904 98.327 60.405 99.88 59.505 C 101.471 58.647 103.279 58.499 104.966 58.901 Z" fill="#000000" stroke="none"/><path d="M 100.54 66.288 C 99.891 66.84 99.186 67.057 98.468 67.196 C 97.744 67.3 97.006 67.323 96.212 67.009 C 96.861 66.454 97.566 66.237 98.285 66.101 C 99.01 65.999 99.747 65.976 100.54 66.288 Z" fill="#000000" stroke="none"/><path d="M 102.726 62.91 C 101.987 63.308 101.267 63.368 100.55 63.348 C 99.836 63.294 99.126 63.157 98.434 62.679 C 99.173 62.277 99.894 62.218 100.61 62.24 C 101.324 62.297 102.034 62.433 102.726 62.91 Z" fill="#000000" stroke="none"/><path d="M 109.319 59.379 C 117.304 61.348 114.336 67.21 114.04 71.323 C 114.04 71.323 110.093 65.414 109.319 59.379 Z" fill="#000000" stroke="none"/><path d="M 109.331 59.419 C 108.597 60.384 108.043 61.541 107.992 62.707 C 107.945 63.882 108.35 65.019 108.965 66.028 C 109.58 67.044 110.387 67.964 111.278 68.8 C 112.165 69.646 113.165 70.381 114.159 71.131 L 113.814 71.306 C 113.989 70.046 114.31 68.844 114.472 67.613 C 114.627 66.388 114.626 65.13 114.342 63.991 C 114.298 63.699 114.154 63.441 114.082 63.162 C 113.973 62.896 113.819 62.654 113.701 62.392 C 113.523 62.167 113.36 61.929 113.174 61.709 L 112.537 61.109 C 112.289 60.947 112.048 60.771 111.804 60.597 C 111.555 60.429 111.271 60.313 111.004 60.167 C 110.459 59.859 109.943 59.705 109.331 59.419 Z M 109.308 59.339 L 110.232 59.508 C 110.56 59.564 110.887 59.641 111.173 59.765 C 111.469 59.882 111.78 59.969 112.067 60.115 C 112.351 60.269 112.639 60.422 112.919 60.589 C 114.018 61.306 114.851 62.537 115.024 63.853 C 115.216 65.168 114.96 66.431 114.74 67.655 C 114.526 68.883 114.293 70.115 114.264 71.339 C 114.262 71.459 114.161 71.555 114.04 71.553 C 114.003 71.552 113.968 71.541 113.938 71.524 L 113.92 71.514 C 112.824 70.888 111.724 70.234 110.759 69.386 C 109.789 68.555 108.865 67.622 108.199 66.48 C 107.535 65.348 107.168 63.978 107.342 62.642 C 107.559 61.303 108.297 60.159 109.308 59.339 Z" fill="#000000" stroke="none"/><path d="M 111.682 65.35 C 111.713 65.989 111.521 66.508 111.275 66.999 C 111.006 67.478 110.682 67.927 110.133 68.256 C 110.1 67.617 110.291 67.097 110.54 66.607 C 110.81 66.129 111.134 65.68 111.682 65.35 Z" fill="#000000" stroke="none"/><path d="M 110.67 62.505 C 110.569 63.126 110.276 63.583 109.936 64 C 109.578 64.401 109.171 64.76 108.571 64.954 C 108.67 64.331 108.963 63.874 109.304 63.458 C 109.664 63.058 110.071 62.7 110.67 62.505 Z" fill="#000000" stroke="none"/><path d="M 55.832 65.75 C 58.527 78.107 48.421 77.984 42.543 80.36 C 42.543 80.36 48.025 70.908 55.832 65.75 Z" fill="#000000" stroke="none"/><path d="M 55.785 65.792 C 53.957 65.433 51.983 65.453 50.338 66.173 C 48.684 66.904 47.389 68.234 46.413 69.767 C 45.427 71.304 44.705 73.042 44.154 74.84 C 43.587 76.638 43.25 78.515 42.888 80.395 L 42.413 80.039 C 44.271 79.429 46.151 79.065 47.957 78.444 C 49.754 77.828 51.49 76.974 52.87 75.809 C 53.244 75.55 53.501 75.178 53.838 74.889 C 54.131 74.558 54.361 74.181 54.644 73.841 C 54.833 73.443 55.051 73.057 55.228 72.651 L 55.625 71.363 L 55.827 70.004 C 55.884 69.547 55.854 69.078 55.881 68.611 L 55.9 67.908 L 55.86 67.235 L 55.785 65.792 Z M 55.88 65.707 C 56.012 66.142 56.144 66.61 56.273 67.097 L 56.467 67.84 C 56.516 68.085 56.529 68.325 56.561 68.57 C 56.605 69.058 56.7 69.546 56.686 70.042 L 56.602 71.539 C 56.497 72.033 56.373 72.527 56.251 73.023 C 56.065 73.498 55.829 73.959 55.614 74.428 C 55.313 74.844 55.028 75.284 54.681 75.66 C 54.302 76.002 53.952 76.392 53.521 76.658 C 51.837 77.814 49.921 78.316 48.081 78.842 C 46.238 79.369 44.381 79.889 42.673 80.682 C 42.505 80.76 42.305 80.687 42.226 80.518 C 42.202 80.466 42.192 80.411 42.196 80.357 L 42.198 80.325 C 42.32 78.388 42.476 76.427 42.994 74.52 C 43.483 72.617 44.144 70.71 45.269 69.015 C 46.383 67.331 48.025 65.897 49.987 65.232 C 51.983 64.623 54.063 64.868 55.88 65.707 Z" fill="#000000" stroke="none"/><path d="M 49.19 73.058 C 48.33 73.535 47.482 73.62 46.638 73.614 C 46.217 73.588 45.796 73.547 45.377 73.431 C 44.959 73.323 44.541 73.169 44.129 72.889 C 44.559 72.636 44.986 72.511 45.411 72.431 C 45.836 72.343 46.259 72.33 46.681 72.333 C 47.524 72.383 48.364 72.524 49.19 73.058 Z" fill="#000000" stroke="none"/><path d="M 52.433 69.732 C 51.506 70.016 50.677 69.919 49.871 69.734 C 49.474 69.62 49.08 69.49 48.705 69.288 C 48.328 69.094 47.962 68.856 47.629 68.495 C 48.096 68.339 48.531 68.307 48.955 68.32 C 49.38 68.324 49.788 68.401 50.191 68.493 C 50.986 68.72 51.758 69.037 52.433 69.732 Z" fill="#000000" stroke="none"/><path d="M 83.67 63.893 C 90.328 75.915 79.771 78.939 74.394 83.246 C 74.394 83.246 77.152 71.697 83.67 63.893 Z" fill="#000000" stroke="none"/><path d="M 83.634 63.953 C 81.619 64.149 79.571 64.786 78.082 66.048 C 76.59 67.324 75.656 69.113 75.119 71.013 C 74.571 72.92 74.361 74.954 74.349 76.997 C 74.319 79.046 74.554 81.105 74.764 83.175 L 74.158 82.952 C 75.902 81.738 77.745 80.772 79.432 79.563 C 81.11 78.361 82.65 76.931 83.723 75.288 C 84.031 74.902 84.184 74.434 84.444 74.028 C 84.645 73.592 84.768 73.128 84.956 72.686 C 85.029 72.213 85.135 71.743 85.193 71.265 L 85.205 69.801 C 85.123 69.313 85.06 68.821 84.991 68.324 C 84.908 67.83 84.731 67.351 84.613 66.856 L 84.414 66.119 L 84.162 65.431 L 83.634 63.953 Z M 83.706 63.834 C 83.979 64.246 84.263 64.692 84.548 65.159 L 84.982 65.871 C 85.109 66.111 85.199 66.357 85.308 66.601 C 85.506 67.095 85.757 67.575 85.897 68.095 C 86.026 68.619 86.161 69.147 86.276 69.68 C 86.321 70.226 86.346 70.78 86.374 71.333 C 86.329 71.886 86.226 72.44 86.149 72.995 C 85.966 73.522 85.806 74.068 85.561 74.568 C 85.275 75.042 85.032 75.558 84.666 75.968 C 83.274 77.697 81.436 78.817 79.685 79.939 C 77.931 81.062 76.16 82.183 74.629 83.54 C 74.478 83.674 74.248 83.661 74.114 83.51 C 74.072 83.463 74.045 83.408 74.031 83.351 L 74.023 83.317 C 73.546 81.262 73.098 79.172 73.041 77.026 C 72.957 74.893 73.051 72.702 73.694 70.587 C 74.328 68.487 75.589 66.482 77.424 65.178 C 79.312 63.921 81.553 63.527 83.706 63.834 Z" fill="#000000" stroke="none"/><path d="M 79.036 73.572 C 78.665 73.967 78.261 74.23 77.843 74.446 C 77.426 74.662 76.996 74.83 76.552 74.946 C 76.11 75.067 75.652 75.13 75.183 75.149 C 74.713 75.167 74.231 75.138 73.714 74.975 C 74.084 74.577 74.489 74.314 74.906 74.098 C 75.324 73.884 75.753 73.713 76.197 73.6 C 76.641 73.482 77.098 73.417 77.567 73.399 C 78.037 73.381 78.519 73.41 79.036 73.572 Z" fill="#000000" stroke="none"/><path d="M 81.374 69.1 C 80.936 69.405 80.493 69.573 80.048 69.693 C 79.603 69.812 79.156 69.884 78.707 69.9 C 78.258 69.921 77.808 69.883 77.354 69.8 C 76.902 69.715 76.447 69.581 75.987 69.309 C 76.424 69.002 76.868 68.833 77.312 68.713 C 77.757 68.595 78.204 68.522 78.653 68.508 C 79.102 68.49 79.553 68.526 80.006 68.611 C 80.458 68.696 80.914 68.829 81.374 69.1 Z" fill="#000000" stroke="none"/><path d="M 27.091 39.575 C 38.697 44.563 40.496 34.63 43.942 29.317 C 43.942 29.317 33.632 32.898 27.091 39.575 Z" fill="#000000" stroke="none"/><path d="M 27.04 39.613 C 26.562 37.672 26.718 35.586 27.694 33.745 C 28.718 31.946 30.436 30.609 32.299 29.837 C 34.175 29.055 36.17 28.769 38.129 28.65 C 40.098 28.505 42.05 28.724 43.974 28.972 L 44.004 28.976 C 44.188 29 44.318 29.168 44.294 29.352 C 44.287 29.409 44.265 29.462 44.233 29.506 C 43.131 31.03 42.268 32.753 41.402 34.46 C 40.537 36.164 39.68 37.948 38.226 39.38 C 37.885 39.752 37.435 40.021 37.028 40.327 C 36.593 40.596 36.108 40.793 35.642 41.008 C 35.142 41.13 34.645 41.274 34.144 41.366 C 33.635 41.392 33.126 41.419 32.623 41.428 L 31.138 41.226 C 30.649 41.146 30.188 40.96 29.718 40.825 C 29.484 40.747 29.251 40.688 29.02 40.593 L 28.329 40.262 C 27.875 40.043 27.441 39.825 27.04 39.613 Z M 27.142 39.536 L 28.542 39.884 L 29.195 40.051 L 29.888 40.166 C 30.351 40.228 30.806 40.346 31.265 40.377 L 32.635 40.437 L 33.973 40.293 C 34.405 40.196 34.825 40.056 35.251 39.945 C 35.638 39.732 36.052 39.579 36.432 39.354 C 36.779 39.079 37.193 38.897 37.518 38.579 C 38.922 37.447 40.089 35.908 41.035 34.263 C 41.987 32.609 42.701 30.835 43.652 29.129 L 43.912 29.662 C 41.998 29.66 40.094 29.634 38.223 29.849 C 36.355 30.047 34.514 30.426 32.82 31.101 C 31.131 31.767 29.58 32.785 28.55 34.267 C 27.532 35.743 27.137 37.675 27.142 39.536 Z" fill="#000000" stroke="none"/><path d="M 35.519 34.449 C 35.153 33.537 35.173 32.687 35.285 31.85 C 35.362 31.436 35.455 31.024 35.622 30.624 C 35.781 30.222 35.985 29.828 36.314 29.454 C 36.511 29.912 36.582 30.35 36.609 30.781 C 36.643 31.213 36.604 31.634 36.549 32.052 C 36.395 32.881 36.15 33.696 35.519 34.449 Z" fill="#000000" stroke="none"/><path d="M 31.642 36.997 C 31.088 36.204 30.925 35.386 30.853 34.563 C 30.839 34.15 30.841 33.736 30.917 33.318 C 30.986 32.9 31.1 32.479 31.341 32.051 C 31.632 32.447 31.796 32.851 31.915 33.257 C 32.041 33.663 32.094 34.074 32.13 34.485 C 32.159 35.311 32.096 36.142 31.642 36.997 Z" fill="#000000" stroke="none"/><path d="M 66.167 61.562 C 74.388 51.971 65.443 47.293 61.398 42.42 C 61.398 42.42 61.744 53.329 66.167 61.562 Z" fill="#000000" stroke="none"/><path d="M 66.189 61.622 C 64.193 61.5 62.249 60.73 60.782 59.249 C 59.371 57.735 58.606 55.697 58.424 53.688 C 58.237 51.665 58.559 49.675 59.029 47.769 C 59.478 45.848 60.268 44.049 61.079 42.287 L 61.091 42.259 C 61.169 42.091 61.368 42.017 61.537 42.095 C 61.589 42.119 61.633 42.156 61.665 42.199 C 62.791 43.704 64.179 45.041 65.551 46.377 C 66.919 47.711 68.367 49.06 69.3 50.875 C 69.553 51.312 69.676 51.821 69.847 52.301 C 69.975 52.797 70.018 53.318 70.084 53.827 C 70.051 54.34 70.041 54.858 69.979 55.364 C 69.852 55.857 69.727 56.351 69.585 56.834 L 68.95 58.191 C 68.728 58.634 68.413 59.019 68.144 59.427 C 67.999 59.627 67.874 59.832 67.715 60.024 L 67.192 60.586 C 66.849 60.953 66.511 61.303 66.189 61.622 Z M 66.145 61.502 L 66.895 60.269 L 67.249 59.696 L 67.565 59.069 C 67.763 58.645 68.011 58.246 68.177 57.818 L 68.643 56.527 L 68.904 55.207 C 68.94 54.766 68.931 54.323 68.953 53.884 C 68.865 53.451 68.842 53.01 68.741 52.581 C 68.582 52.166 68.531 51.717 68.325 51.312 C 67.663 49.635 66.541 48.062 65.252 46.669 C 63.958 45.268 62.478 44.058 61.132 42.641 L 61.719 42.552 C 61.146 44.377 60.554 46.188 60.201 48.038 C 59.834 49.879 59.646 51.75 59.786 53.569 C 59.918 55.379 60.428 57.162 61.535 58.588 C 62.642 60 64.368 60.952 66.145 61.502 Z" fill="#000000" stroke="none"/><path d="M 63.787 51.99 C 62.807 52.067 62.001 51.794 61.236 51.439 C 60.864 51.242 60.499 51.03 60.166 50.751 C 59.83 50.48 59.514 50.168 59.255 49.742 C 59.751 49.69 60.191 49.753 60.61 49.856 C 61.033 49.952 61.423 50.115 61.805 50.292 C 62.551 50.686 63.256 51.163 63.787 51.99 Z" fill="#000000" stroke="none"/><path d="M 65.063 56.45 C 64.141 56.742 63.311 56.655 62.505 56.478 C 62.106 56.368 61.712 56.243 61.335 56.045 C 60.957 55.855 60.589 55.621 60.252 55.264 C 60.717 55.103 61.151 55.067 61.575 55.075 C 62 55.075 62.407 55.147 62.811 55.235 C 63.608 55.454 64.382 55.762 65.063 56.45 Z" fill="#000000" stroke="none"/><path d="M 44.282 58.837 C 54.437 54.26 49.048 47.175 47.645 41.77 C 47.645 41.77 43.834 50.607 44.282 58.837 Z" fill="#000000" stroke="none"/><path d="M 44.276 58.893 C 42.729 58.048 41.465 56.705 40.849 54.974 C 40.289 53.236 40.443 51.323 41.05 49.651 C 41.658 47.966 42.661 46.498 43.75 45.153 C 44.828 43.787 46.132 42.647 47.439 41.544 L 47.46 41.527 C 47.585 41.421 47.772 41.437 47.877 41.562 C 47.91 41.601 47.931 41.647 47.941 41.693 C 48.276 43.317 48.883 44.904 49.477 46.485 C 50.07 48.062 50.72 49.681 50.786 51.479 C 50.824 51.923 50.732 52.375 50.688 52.823 C 50.604 53.266 50.443 53.699 50.306 54.129 C 50.087 54.527 49.885 54.936 49.646 55.317 C 49.36 55.663 49.075 56.011 48.781 56.344 L 47.766 57.189 C 47.423 57.459 47.027 57.649 46.659 57.873 C 46.469 57.979 46.292 58.095 46.093 58.189 L 45.466 58.442 C 45.054 58.606 44.653 58.759 44.276 58.893 Z M 44.287 58.781 L 45.347 58.078 L 45.844 57.753 L 46.331 57.371 C 46.648 57.106 46.995 56.881 47.288 56.601 L 48.144 55.746 L 48.847 54.789 C 49.041 54.451 49.2 54.094 49.381 53.751 C 49.474 53.372 49.62 53.012 49.701 52.632 C 49.728 52.241 49.856 51.864 49.844 51.463 C 49.943 49.876 49.637 48.2 49.13 46.606 C 48.621 45.002 47.893 43.481 47.35 41.847 L 47.851 41.996 C 46.711 43.238 45.559 44.461 44.585 45.806 C 43.602 47.139 42.751 48.562 42.182 50.066 C 41.609 51.56 41.348 53.175 41.698 54.728 C 42.052 56.269 43.073 57.676 44.287 58.781 Z" fill="#000000" stroke="none"/><path d="M 45.967 50.304 C 45.156 49.999 44.615 49.479 44.137 48.909 C 43.687 48.317 43.304 47.672 43.191 46.812 C 44.004 47.115 44.545 47.635 45.021 48.207 C 45.469 48.801 45.853 49.445 45.967 50.304 Z" fill="#000000" stroke="none"/><path d="M 45.315 54.343 C 44.469 54.23 43.84 53.85 43.262 53.407 C 42.706 52.935 42.204 52.4 41.919 51.594 C 42.767 51.704 43.396 52.084 43.972 52.529 C 44.526 53.002 45.03 53.538 45.315 54.343 Z" fill="#000000" stroke="none"/><path d="M 89.805 58.066 C 95.987 48.8 87.661 45.652 83.605 41.813 C 83.605 41.813 85.061 51.327 89.805 58.066 Z" fill="#000000" stroke="none"/><path d="M 89.83 58.117 C 88.07 58.221 86.286 57.753 84.845 56.612 C 83.45 55.435 82.565 53.731 82.193 51.993 C 81.815 50.241 81.886 48.465 82.097 46.747 C 82.286 45.017 82.788 43.359 83.311 41.731 L 83.319 41.705 C 83.369 41.549 83.536 41.464 83.692 41.514 C 83.74 41.529 83.782 41.557 83.815 41.591 C 84.96 42.79 86.316 43.814 87.659 44.839 C 88.998 45.861 90.408 46.89 91.417 48.379 C 91.685 48.735 91.846 49.167 92.046 49.57 C 92.21 49.99 92.303 50.442 92.415 50.88 C 92.441 51.333 92.487 51.787 92.486 52.237 C 92.427 52.683 92.369 53.128 92.297 53.566 L 91.885 54.821 C 91.737 55.232 91.502 55.603 91.309 55.989 C 91.204 56.179 91.116 56.371 90.997 56.557 L 90.599 57.103 C 90.337 57.461 90.078 57.803 89.83 58.117 Z M 89.779 58.016 L 90.305 56.858 L 90.554 56.319 L 90.765 55.736 C 90.893 55.344 91.068 54.969 91.168 54.576 L 91.439 53.397 L 91.528 52.214 C 91.513 51.824 91.458 51.437 91.431 51.05 C 91.309 50.68 91.241 50.297 91.108 49.932 C 90.924 49.586 90.832 49.198 90.609 48.865 C 89.852 47.467 88.704 46.208 87.429 45.125 C 86.147 44.036 84.723 43.132 83.395 42.035 L 83.899 41.895 C 83.591 43.554 83.264 45.201 83.151 46.858 C 83.024 48.509 83.058 50.166 83.373 51.744 C 83.68 53.314 84.314 54.822 85.435 55.953 C 86.553 57.072 88.165 57.723 89.779 58.016 Z" fill="#000000" stroke="none"/><path d="M 86.708 49.938 C 85.859 50.11 85.124 49.956 84.417 49.726 C 83.722 49.462 83.055 49.12 82.503 48.45 C 83.353 48.276 84.087 48.43 84.794 48.662 C 85.488 48.928 86.156 49.27 86.708 49.938 Z" fill="#000000" stroke="none"/><path d="M 88.298 53.707 C 87.521 54.061 86.786 54.072 86.061 54.003 C 85.34 53.898 84.629 53.711 83.96 53.178 C 84.737 52.822 85.473 52.811 86.197 52.883 C 86.918 52.99 87.629 53.177 88.298 53.707 Z" fill="#000000" stroke="none"/><path d="M 22.057 30.646 C 14.779 37.01 11.133 30.2 7.372 27.142 C 7.372 27.142 15.723 27.324 22.057 30.646 Z" fill="#000000" stroke="none"/><path d="M 22.01 30.63 C 21.576 29.274 20.834 27.96 19.746 27.125 C 18.646 26.288 17.277 25.912 15.892 25.824 C 14.499 25.731 13.069 25.889 11.663 26.183 C 10.249 26.468 8.869 26.935 7.476 27.387 L 7.539 26.937 C 8.635 27.954 9.577 29.074 10.653 30.059 C 11.729 31.035 12.941 31.881 14.229 32.375 C 14.541 32.53 14.885 32.565 15.204 32.684 C 15.533 32.758 15.87 32.773 16.202 32.836 C 16.538 32.816 16.877 32.82 17.214 32.789 L 18.223 32.579 C 18.545 32.449 18.876 32.337 19.209 32.218 C 19.538 32.092 19.841 31.897 20.162 31.738 C 20.826 31.421 21.322 31.028 22.01 30.63 Z M 22.103 30.662 C 21.86 30.912 21.596 31.173 21.317 31.438 C 21.042 31.717 20.748 31.98 20.436 32.172 C 20.123 32.377 19.83 32.619 19.496 32.797 C 19.156 32.966 18.814 33.141 18.465 33.298 L 17.342 33.611 C 16.955 33.662 16.559 33.674 16.167 33.703 C 15.777 33.655 15.378 33.626 14.998 33.533 C 14.629 33.406 14.239 33.315 13.902 33.125 C 12.507 32.424 11.463 31.327 10.433 30.29 C 9.394 29.256 8.364 28.201 7.205 27.349 C 7.091 27.264 7.066 27.103 7.15 26.989 C 7.176 26.954 7.209 26.927 7.246 26.909 L 7.268 26.899 C 8.611 26.265 9.981 25.646 11.448 25.289 C 12.903 24.914 14.423 24.653 15.973 24.781 C 17.511 24.905 19.077 25.475 20.246 26.543 C 21.39 27.654 21.994 29.137 22.103 30.662 Z" fill="#000000" stroke="none"/><path d="M 14.714 28.897 C 14.077 28.497 13.707 27.962 13.4 27.394 C 13.12 26.812 12.905 26.198 12.959 25.447 C 13.598 25.846 13.968 26.382 14.273 26.95 C 14.551 27.533 14.766 28.147 14.714 28.897 Z" fill="#000000" stroke="none"/><path d="M 18.136 29.841 C 17.604 29.325 17.363 28.734 17.19 28.126 C 17.046 27.511 16.973 26.877 17.192 26.168 C 17.726 26.683 17.967 27.274 18.138 27.883 C 18.28 28.499 18.353 29.132 18.136 29.841 Z" fill="#000000" stroke="none"/><path d="M 181.083 46.632 C 178.25 46.407 175.306 46.458 172.41 46.394 C 169.502 46.342 166.593 46.317 163.684 46.231 C 157.867 46.057 152.048 45.742 146.248 45.125 C 143.347 44.818 140.457 44.396 137.581 43.869 C 134.709 43.327 131.835 42.733 129.02 41.865 C 126.21 40.995 123.419 39.972 120.777 38.537 C 118.157 37.091 115.625 35.249 113.717 32.673 C 113.283 32.086 113.406 31.259 113.993 30.824 C 114.58 30.39 115.407 30.513 115.842 31.1 C 115.87 31.138 115.895 31.177 115.919 31.216 L 115.927 31.229 C 117.263 33.508 119.367 35.413 121.741 36.9 C 124.117 38.404 126.747 39.575 129.46 40.501 C 134.893 42.386 140.625 43.416 146.361 44.174 C 149.234 44.54 152.121 44.829 155.013 45.057 C 157.906 45.265 160.806 45.403 163.707 45.505 C 166.608 45.604 169.511 45.673 172.417 45.678 C 175.331 45.717 178.208 45.633 181.174 45.84 C 181.393 45.855 181.559 46.046 181.543 46.265 C 181.528 46.484 181.337 46.65 181.118 46.634 L 181.115 46.634 L 181.083 46.632 Z" fill="#000000" stroke="none"/><path d="M 167.219 43.37 C 164.511 42.865 161.874 42.144 159.336 41.154 C 156.793 40.19 154.34 38.995 152.046 37.532 C 149.769 36.058 147.623 34.313 145.943 32.137 C 144.276 29.973 143.108 27.318 143.015 24.524 C 142.961 23.138 143.12 21.744 143.537 20.399 C 143.957 19.061 144.68 17.788 145.691 16.774 C 147.723 14.725 150.694 13.811 153.538 13.987 C 156.381 14.163 159.269 15.35 161.284 17.626 C 162.283 18.757 163.033 20.146 163.426 21.632 C 163.821 23.118 163.892 24.667 163.762 26.172 L 163.76 26.195 C 163.684 27.076 162.908 27.728 162.028 27.652 C 161.147 27.576 160.495 26.801 160.571 25.92 C 160.579 25.827 160.597 25.728 160.62 25.641 C 161.235 23.364 160.962 20.917 159.605 18.974 C 158.233 17.047 155.883 15.78 153.406 15.462 C 150.933 15.14 148.273 15.808 146.421 17.522 C 144.581 19.251 143.743 21.908 143.833 24.495 C 143.895 27.091 144.912 29.624 146.537 31.68 C 148.146 33.757 150.237 35.445 152.495 36.814 C 157.023 39.55 162.236 41.174 167.443 41.662 L 167.458 41.663 C 167.932 41.708 168.281 42.128 168.236 42.603 C 168.192 43.077 167.771 43.425 167.297 43.381 C 167.271 43.378 167.244 43.375 167.219 43.37 Z" fill="#000000" stroke="none"/><path d="M 147.988 56.972 C 144.166 57.202 140.434 58.352 136.983 59.982 C 133.532 61.623 130.33 63.803 127.644 66.46 C 124.973 69.11 122.802 72.31 121.899 75.834 C 120.963 79.354 121.578 83.067 123.326 86.222 C 123.693 86.884 123.454 87.717 122.792 88.084 C 122.13 88.451 121.296 88.211 120.93 87.55 C 120.919 87.531 120.91 87.513 120.9 87.494 L 120.896 87.485 C 119.976 85.611 119.336 83.568 119.124 81.464 C 118.908 79.364 119.12 77.224 119.728 75.232 C 120.942 71.224 123.483 67.871 126.426 65.179 C 129.392 62.482 132.814 60.365 136.457 58.813 C 140.098 57.276 143.991 56.25 147.962 56.176 C 148.183 56.171 148.364 56.346 148.368 56.566 C 148.372 56.78 148.207 56.958 147.995 56.971 L 147.988 56.972 Z" fill="#000000" stroke="none"/>
</svg>
