<?xml version="1.0" encoding="UTF-8"?>
<svg xmlns="http://www.w3.org/2000/svg" width="104.492" height="134.990" viewBox="0 0 104.492 134.990">
  <path d="M 44.133 96.265 C 46.233 93.934 48.735 91.88 51.671 90.599 C 54.591 89.32 57.919 88.859 61.102 89.428 C 64.292 89.961 67.294 91.432 69.795 93.468 C 72.317 95.495 74.332 98.126 75.747 101.041 C 77.159 103.96 77.927 107.218 77.866 110.503 C 77.8 113.784 76.867 117.063 75.185 119.893 C 73.508 122.732 71.169 125.124 68.543 127.03 C 65.931 128.924 63.044 130.47 59.958 131.521 C 53.804 133.659 46.776 133.495 40.762 130.815 C 34.726 128.202 29.768 123.338 26.851 117.473 C 23.865 111.616 23.102 104.726 24.408 98.334 C 25.055 95.144 26.164 92.028 27.792 89.183 C 29.406 86.352 31.405 83.766 33.706 81.493 C 38.313 76.946 44.05 73.639 50.161 71.742 C 56.277 69.798 62.727 69.26 69.042 69.597 C 72.207 69.769 75.346 70.163 78.454 70.761 C 81.559 71.369 84.631 72.202 87.577 73.427 C 89.048 74.043 90.487 74.771 91.812 75.727 C 92.47 76.21 93.102 76.757 93.634 77.443 C 93.891 77.795 94.128 78.182 94.275 78.641 C 94.423 79.092 94.452 79.651 94.256 80.148 C 93.835 81.168 92.909 81.591 92.133 81.868 C 91.321 82.13 90.505 82.245 89.696 82.303 C 88.078 82.41 86.484 82.287 84.912 82.078 C 81.767 81.65 78.705 80.866 75.698 79.942 C 72.692 79.015 69.727 77.964 66.812 76.796 C 61.01 74.393 55.272 71.955 49.421 69.739 C 43.59 67.491 37.675 65.463 31.702 63.669 C 28.714 62.778 25.707 61.958 22.677 61.265 C 19.651 60.578 16.594 59.994 13.539 59.733 C 12.014 59.602 10.486 59.553 9.008 59.682 C 7.548 59.807 6.065 60.134 5.09 60.881 C 4.601 61.246 4.3 61.712 4.144 62.26 C 4 62.816 4.009 63.461 4.138 64.127 C 4.205 64.46 4.293 64.796 4.404 65.133 C 4.514 65.458 4.652 65.842 4.77 66.077 C 5.035 66.596 5.441 67.021 5.969 67.357 C 7.036 68.029 8.484 68.313 9.939 68.429 C 11.405 68.543 12.921 68.488 14.435 68.354 C 17.47 68.078 20.514 67.51 23.537 66.84 C 29.586 65.488 35.57 63.717 41.538 61.894 C 47.507 60.067 53.454 58.132 59.418 56.22 C 65.383 54.312 71.36 52.408 77.427 50.711 C 80.463 49.868 83.521 49.075 86.642 48.432 C 89.775 47.821 92.922 47.228 96.378 47.408 C 97.246 47.47 98.143 47.594 99.087 47.917 C 100.006 48.232 101.079 48.817 101.775 49.899 C 102.478 50.965 102.559 52.254 102.454 53.179 C 102.369 54.178 102.027 55.197 101.494 56.068 C 100.394 57.829 98.719 58.862 97.129 59.553 C 95.512 60.243 93.869 60.634 92.24 60.905 C 85.71 61.89 79.312 61.258 73.039 60.28 C 66.767 59.249 60.607 57.688 54.599 55.65 C 48.602 53.59 42.739 51.044 37.292 47.648 C 34.584 45.932 31.971 43.992 29.705 41.596 C 28.579 40.395 27.544 39.071 26.717 37.582 C 25.887 36.052 25.356 34.556 24.883 32.963 C 23.041 26.656 23.726 19.619 26.937 13.867 C 28.54 11.002 30.746 8.456 33.418 6.545 C 36.075 4.616 39.146 3.296 42.324 2.631 C 45.511 1.973 48.738 1.819 51.961 2.219 C 55.168 2.614 58.343 3.697 61.037 5.548 C 63.739 7.385 65.878 10.003 67.197 12.952 C 68.534 15.9 69.107 19.138 69.031 22.325 C 68.89 28.721 66.167 34.927 61.751 39.416 C 61.693 39.475 61.598 39.476 61.539 39.419 C 61.481 39.362 61.479 39.27 61.532 39.211 C 65.712 34.602 68.142 28.465 68.096 22.318 C 68.075 19.254 67.428 16.194 66.092 13.473 C 64.761 10.755 62.731 8.404 60.218 6.767 C 55.151 3.449 48.582 3.171 42.736 4.47 C 39.803 5.146 37.027 6.415 34.653 8.213 C 32.261 9.993 30.326 12.34 28.919 14.952 C 26.079 20.186 25.536 26.584 27.274 32.262 C 28.696 38.139 33.584 42.11 38.748 45.299 C 43.973 48.464 49.716 50.832 55.563 52.788 C 61.421 54.732 67.447 56.215 73.535 57.171 C 76.578 57.645 79.64 57.983 82.693 58.118 C 85.74 58.253 88.8 58.209 91.722 57.741 C 93.177 57.503 94.6 57.154 95.864 56.613 C 97.124 56.076 98.205 55.321 98.771 54.394 C 99.049 53.929 99.227 53.429 99.276 52.868 C 99.338 52.249 99.257 51.887 99.092 51.629 C 98.835 51.098 97.519 50.653 96.146 50.583 C 93.336 50.402 90.249 50.905 87.255 51.477 C 84.239 52.073 81.229 52.826 78.228 53.632 C 72.225 55.257 66.256 57.104 60.284 58.961 C 48.331 62.651 36.418 66.614 24.053 69.248 C 20.958 69.887 17.827 70.428 14.623 70.674 C 13.02 70.791 11.396 70.832 9.742 70.68 C 8.101 70.517 6.373 70.194 4.782 69.168 C 3.999 68.652 3.296 67.901 2.871 67.008 C 2.655 66.535 2.546 66.175 2.411 65.758 C 2.286 65.348 2.184 64.925 2.107 64.49 C 1.961 63.619 1.936 62.661 2.211 61.704 C 2.487 60.75 3.131 59.862 3.912 59.314 C 5.496 58.2 7.239 57.957 8.864 57.83 C 10.509 57.725 12.119 57.817 13.707 57.987 C 20.051 58.735 26.119 60.467 32.11 62.349 C 38.097 64.251 43.968 66.464 49.813 68.726 C 55.654 70.986 61.424 73.484 67.169 75.91 C 72.935 78.247 78.903 80.269 85.04 81.083 C 86.569 81.274 88.113 81.373 89.619 81.259 C 90.369 81.2 91.112 81.082 91.789 80.856 C 92.453 80.629 93.069 80.246 93.235 79.763 C 93.428 79.299 93.168 78.664 92.748 78.118 C 92.315 77.569 91.752 77.08 91.146 76.646 C 89.924 75.782 88.545 75.094 87.127 74.517 C 84.283 73.352 81.25 72.645 78.207 72.112 C 75.156 71.599 72.062 71.285 68.973 71.191 C 62.803 71.008 56.585 71.686 50.792 73.673 C 45 75.619 39.666 78.875 35.454 83.228 C 33.333 85.383 31.497 87.819 30.046 90.443 C 28.593 93.051 27.624 95.922 27.022 98.857 C 25.83 104.725 26.595 110.941 29.227 116.298 C 31.83 121.657 36.31 126.127 41.763 128.543 C 47.197 131.019 53.537 131.238 59.225 129.327 C 62.079 128.393 64.77 126.955 67.26 125.232 C 69.732 123.521 71.902 121.384 73.471 118.86 C 75.042 116.341 75.944 113.424 76.073 110.448 C 76.194 107.47 75.562 104.456 74.309 101.714 C 73.064 98.97 71.208 96.492 68.925 94.506 C 66.649 92.519 63.886 91.044 60.912 90.441 C 57.945 89.804 54.791 90.122 51.942 91.252 C 49.085 92.386 46.53 94.25 44.352 96.47 C 44.294 96.529 44.199 96.531 44.139 96.473 C 44.082 96.416 44.08 96.325 44.133 96.265 Z" fill="#000000" stroke="none"/>
</svg>
