<?xml version="1.0" encoding="UTF-8"?>
<svg xmlns="http://www.w3.org/2000/svg" width="458.440" height="88.700" viewBox="0 0 458.440 88.700">
  <path d="M 287.549 77.89 C 287.397 75.769 287.753 73.593 288.507 71.565 C 289.249 69.527 290.359 67.642 291.581 65.865 C 294.077 62.331 297.08 59.254 300.005 56.209 C 302.912 53.147 305.835 50.138 308.109 46.762 C 310.39 43.42 311.902 39.638 311.738 35.758 C 311.699 35.276 311.719 34.79 311.643 34.31 L 311.419 32.866 C 311.169 31.917 310.964 30.955 310.578 30.033 C 309.913 28.16 308.973 26.458 307.671 25.155 C 306.385 23.857 304.728 22.978 302.9 22.847 C 301.083 22.661 299.177 23.134 297.467 24.012 C 294.062 25.792 291.391 29.327 291.181 33.299 C 291.054 35.274 291.616 37.279 292.6 39.076 C 293.593 40.879 295.004 42.473 296.579 43.894 C 294.818 42.718 293.167 41.298 291.911 39.507 C 290.653 37.732 289.822 35.56 289.742 33.287 C 289.696 31.022 290.332 28.736 291.51 26.786 C 292.704 24.848 294.357 23.177 296.351 22.014 C 298.329 20.845 300.669 20.111 303.092 20.284 C 305.516 20.375 307.88 21.512 309.607 23.164 C 311.358 24.817 312.482 26.94 313.26 29.028 C 314.075 31.113 314.621 33.367 314.667 35.675 C 314.722 37.977 314.317 40.287 313.54 42.424 C 312.762 44.563 311.671 46.546 310.385 48.337 C 307.783 51.903 304.715 54.944 301.61 57.828 C 298.534 60.747 295.381 63.536 292.72 66.735 C 290.049 69.882 287.865 73.607 287.549 77.89 Z" fill="#000000" stroke="none"/><path d="M 287.549 49.706 C 293.135 53.964 299.146 57.614 305.439 60.618 C 307.004 61.383 308.608 62.065 310.196 62.772 C 311.825 63.381 313.415 64.086 315.069 64.615 C 316.723 65.136 318.344 65.757 320.03 66.159 L 322.535 66.833 C 323.37 67.054 324.226 67.181 325.07 67.36 L 327.608 67.857 L 330.172 68.158 C 331.027 68.242 331.876 68.402 332.734 68.443 L 335.305 68.543 C 338.734 68.739 342.098 68.413 345.317 67.49 C 348.521 66.569 351.543 65.069 354.127 62.999 C 356.736 60.957 358.813 58.289 360.32 55.359 C 361.86 52.437 362.669 49.153 362.807 45.881 C 362.865 42.608 362.177 39.314 360.558 36.512 C 360.375 36.151 360.171 35.803 359.926 35.483 L 359.231 34.492 C 358.68 33.904 358.204 33.241 357.571 32.733 C 356.418 31.588 354.995 30.76 353.563 29.979 C 352.064 29.31 350.507 28.734 348.869 28.404 C 347.223 28.009 345.619 27.848 343.995 27.956 C 337.467 28.333 331.698 34.024 330.81 40.659 C 330.579 42.304 330.669 44.001 331.167 45.589 C 331.659 47.177 332.574 48.637 333.816 49.785 C 336.326 52.111 339.86 53.106 343.326 53.455 C 341.576 53.39 339.798 53.278 338.081 52.786 C 336.375 52.295 334.713 51.526 333.304 50.37 C 331.894 49.223 330.777 47.683 330.121 45.955 C 329.458 44.229 329.239 42.346 329.38 40.507 C 329.697 36.818 331.375 33.316 333.915 30.611 C 336.453 27.906 340.005 26.029 343.785 25.677 C 345.659 25.484 347.585 25.626 349.366 25.995 C 351.181 26.314 352.948 26.925 354.664 27.657 C 358.023 29.267 361.089 31.806 362.962 35.122 C 364.923 38.393 365.71 42.219 365.671 45.947 C 365.544 49.679 364.647 53.386 362.932 56.689 C 361.215 59.981 358.852 62.96 355.912 65.236 C 352.996 67.53 349.613 69.218 346.053 70.16 C 342.502 71.109 338.771 71.377 335.204 71.105 L 332.516 70.944 C 331.622 70.88 330.741 70.71 329.854 70.588 L 327.2 70.186 L 324.588 69.587 C 317.633 67.968 310.98 65.299 304.786 61.889 C 298.631 58.414 292.723 54.481 287.549 49.706 Z" fill="#000000" stroke="none"/><path d="M 325.899 74.709 C 331.093 75.576 336.35 76.006 341.511 75.422 C 346.675 74.905 351.668 73.443 356.438 71.439 C 361.203 69.408 365.802 66.935 370.413 64.407 C 375.035 61.897 379.725 59.418 384.572 57.218 C 389.438 55.067 394.461 53.21 399.642 51.85 C 400.938 51.514 402.256 51.254 403.563 50.959 C 404.89 50.75 406.202 50.464 407.54 50.32 C 410.201 49.934 412.906 49.829 415.601 49.885 C 420.986 50.041 426.421 51.236 431.182 53.811 C 435.898 56.383 439.968 60.302 442.128 65.142 C 439.395 60.633 435.201 57.208 430.535 55.104 C 425.858 52.956 420.692 52.14 415.577 52.18 C 410.45 52.307 405.326 53.103 400.359 54.539 C 395.377 55.923 390.51 57.756 385.768 59.891 C 381.005 61.989 376.381 64.427 371.707 66.85 C 367.021 69.239 362.301 71.706 357.274 73.553 C 352.275 75.442 346.959 76.657 341.61 76.846 C 336.257 77.044 330.947 76.201 325.899 74.709 Z" fill="#000000" stroke="none"/><path d="M 367.76 59.298 C 372.18 55.603 377.094 52.518 382.158 49.736 C 387.249 46.999 392.557 44.623 398.073 42.779 C 403.576 40.905 409.304 39.605 415.15 39.036 C 420.99 38.521 426.988 38.815 432.742 40.381 C 435.604 41.192 438.399 42.29 441.013 43.732 C 443.637 45.183 446.049 46.833 448.334 48.763 C 450.582 50.711 452.685 52.915 454.247 55.567 C 455.799 58.19 456.768 61.376 456.338 64.556 C 455.946 67.725 454.161 70.637 451.662 72.469 C 449.183 74.325 446.06 75.266 443.01 75.004 C 439.96 74.751 437.082 73.228 435.173 70.96 C 433.205 68.723 432.119 65.927 431.504 63.133 C 432.407 65.85 433.745 68.464 435.754 70.413 C 437.726 72.384 440.389 73.56 443.089 73.592 C 445.783 73.657 448.466 72.687 450.491 70.984 C 452.519 69.288 453.884 66.872 454.092 64.306 C 454.338 61.735 453.454 59.149 452.065 56.881 C 450.651 54.602 448.696 52.628 446.57 50.873 C 444.415 49.163 442.075 47.538 439.654 46.243 C 437.226 44.931 434.632 43.936 431.965 43.202 C 426.623 41.722 420.972 41.385 415.379 41.814 C 409.769 42.193 404.213 43.405 398.764 44.974 C 393.323 46.586 387.988 48.631 382.807 51.032 C 377.62 53.422 372.564 56.137 367.76 59.298 Z" fill="#000000" stroke="none"/><path d="M 302.954 65.479 C 306.337 69.21 310.244 72.374 314.457 75 C 316.554 76.328 318.734 77.516 320.976 78.556 C 323.208 79.611 325.504 80.527 327.847 81.277 C 337.194 84.344 347.331 84.756 356.744 82.135 C 361.503 80.844 366.143 79.074 370.603 76.97 C 375.064 74.844 379.273 72.228 383.438 69.448 C 387.589 66.676 391.79 63.707 396.554 61.746 C 398.935 60.793 401.42 60.089 403.947 59.756 C 406.471 59.404 409.017 59.406 411.524 59.616 C 409.008 59.695 406.507 59.965 404.083 60.516 C 401.663 61.08 399.323 61.903 397.116 62.999 C 392.68 65.171 388.789 68.306 384.705 71.262 C 380.655 74.268 376.368 77.083 371.803 79.398 C 369.533 80.578 367.181 81.599 364.793 82.512 C 362.406 83.442 359.986 84.228 357.516 84.935 C 352.538 86.364 347.312 86.866 342.152 86.654 C 336.987 86.378 331.885 85.29 327.075 83.499 C 324.67 82.6 322.331 81.541 320.079 80.331 C 317.834 79.105 315.675 77.734 313.619 76.232 C 309.536 73.199 305.807 69.645 302.954 65.479 Z" fill="#000000" stroke="none"/><path d="M 287.549 77.89 C 287.235 73.607 285.05 69.882 282.378 66.735 C 279.718 63.536 276.566 60.747 273.49 57.828 C 270.384 54.944 267.317 51.903 264.714 48.337 C 263.428 46.546 262.337 44.563 261.559 42.424 C 260.782 40.287 260.377 37.977 260.431 35.675 C 260.478 33.367 261.025 31.113 261.838 29.028 C 262.617 26.94 263.742 24.817 265.493 23.164 C 267.219 21.512 269.582 20.375 272.006 20.284 C 274.43 20.111 276.77 20.845 278.748 22.014 C 280.743 23.177 282.395 24.848 283.588 26.786 C 284.767 28.736 285.404 31.022 285.358 33.287 C 285.277 35.56 284.447 37.732 283.189 39.507 C 281.932 41.298 280.281 42.718 278.519 43.894 C 280.094 42.473 281.506 40.879 282.498 39.076 C 283.484 37.279 284.045 35.274 283.917 33.299 C 283.708 29.327 281.037 25.792 277.631 24.012 C 275.922 23.134 274.016 22.661 272.2 22.847 C 270.371 22.978 268.713 23.857 267.428 25.155 C 266.125 26.458 265.186 28.16 264.522 30.033 C 264.135 30.955 263.93 31.917 263.68 32.866 L 263.455 34.31 C 263.379 34.79 263.401 35.276 263.361 35.758 C 263.198 39.638 264.709 43.42 266.991 46.762 C 269.264 50.138 272.188 53.147 275.094 56.209 C 278.019 59.254 281.022 62.331 283.517 65.865 C 284.741 67.642 285.849 69.527 286.591 71.565 C 287.346 73.593 287.703 75.769 287.549 77.89 Z" fill="#000000" stroke="none"/><path d="M 287.549 49.706 C 282.376 54.481 276.468 58.414 270.314 61.889 C 264.119 65.299 257.466 67.968 250.511 69.587 L 247.9 70.186 L 245.245 70.588 C 244.359 70.71 243.477 70.88 242.583 70.944 L 239.896 71.105 C 236.329 71.377 232.596 71.109 229.046 70.16 C 225.486 69.218 222.102 67.53 219.186 65.236 C 216.247 62.96 213.884 59.981 212.167 56.689 C 210.453 53.386 209.555 49.679 209.427 45.947 C 209.389 42.219 210.175 38.393 212.136 35.122 C 214.009 31.806 217.076 29.267 220.434 27.657 C 222.152 26.925 223.918 26.314 225.733 25.995 C 227.514 25.626 229.441 25.484 231.315 25.677 C 235.094 26.029 238.647 27.906 241.183 30.611 C 243.724 33.316 245.403 36.818 245.719 40.507 C 245.861 42.346 245.641 44.229 244.978 45.955 C 244.322 47.683 243.205 49.223 241.794 50.37 C 240.386 51.526 238.724 52.295 237.018 52.786 C 235.3 53.278 233.524 53.39 231.774 53.455 C 235.24 53.106 238.774 52.111 241.283 49.785 C 242.525 48.637 243.441 47.177 243.932 45.589 C 244.43 44.001 244.521 42.304 244.289 40.659 C 243.402 34.024 237.631 28.333 231.105 27.956 C 229.481 27.848 227.876 28.009 226.231 28.404 C 224.591 28.734 223.036 29.31 221.537 29.979 C 220.104 30.76 218.68 31.588 217.528 32.733 C 216.895 33.241 216.419 33.904 215.869 34.492 L 215.173 35.483 C 214.928 35.803 214.724 36.151 214.54 36.512 C 212.922 39.314 212.235 42.608 212.292 45.881 C 212.43 49.153 213.239 52.437 214.78 55.359 C 216.287 58.289 218.364 60.957 220.972 62.999 C 223.555 65.069 226.578 66.569 229.783 67.49 C 233.001 68.413 236.366 68.739 239.794 68.543 L 242.366 68.443 C 243.223 68.402 244.072 68.242 244.927 68.158 L 247.492 67.857 L 250.03 67.36 C 250.873 67.181 251.73 67.054 252.565 66.833 L 255.07 66.159 C 256.754 65.757 258.376 65.136 260.031 64.615 C 261.684 64.086 263.275 63.381 264.904 62.772 C 266.492 62.065 268.095 61.383 269.661 60.618 C 275.954 57.614 281.964 53.964 287.549 49.706 Z" fill="#000000" stroke="none"/><path d="M 249.201 74.709 C 244.172 76.384 238.922 77.535 233.541 77.787 C 228.167 77.999 222.681 77.144 217.61 75.195 C 212.502 73.313 207.887 70.483 203.349 67.773 C 198.821 65.028 194.354 62.29 189.633 60.092 C 184.95 57.857 180.016 56.042 175.019 54.622 C 170.026 53.152 164.873 52.333 159.713 52.178 C 154.568 52.13 149.364 52.912 144.653 55.066 C 139.948 57.162 135.724 60.608 132.971 65.142 C 135.146 60.274 139.249 56.331 144.006 53.763 C 146.402 52.484 148.976 51.538 151.621 50.902 C 154.27 50.269 156.986 49.964 159.701 49.874 C 165.134 49.753 170.538 50.574 175.746 51.928 C 178.351 52.616 180.918 53.433 183.436 54.361 C 185.957 55.267 188.465 56.289 190.893 57.451 C 195.753 59.783 200.334 62.592 204.799 65.428 C 209.26 68.271 213.692 71.063 218.449 73.09 C 223.2 75.114 228.313 76.236 233.533 76.366 C 238.755 76.512 244.008 75.769 249.201 74.709 Z" fill="#000000" stroke="none"/><path d="M 207.338 59.298 C 202.535 56.137 197.48 53.422 192.292 51.032 C 187.112 48.631 181.777 46.586 176.334 44.974 C 170.886 43.405 165.329 42.193 159.719 41.814 C 154.127 41.385 148.476 41.722 143.134 43.202 C 140.467 43.936 137.872 44.931 135.445 46.243 C 133.024 47.538 130.684 49.163 128.53 50.873 C 126.403 52.628 124.449 54.602 123.035 56.881 C 121.646 59.149 120.761 61.735 121.007 64.306 C 121.215 66.872 122.58 69.288 124.609 70.984 C 126.633 72.687 129.317 73.657 132.01 73.592 C 134.709 73.56 137.373 72.384 139.345 70.413 C 141.354 68.464 142.693 65.85 143.595 63.133 C 142.981 65.927 141.893 68.723 139.925 70.96 C 138.017 73.228 135.139 74.751 132.088 75.004 C 129.039 75.266 125.915 74.325 123.436 72.469 C 120.938 70.637 119.154 67.725 118.761 64.556 C 118.331 61.376 119.3 58.19 120.851 55.567 C 122.414 52.915 124.517 50.711 126.764 48.763 C 129.05 46.833 131.461 45.183 134.085 43.732 C 136.701 42.29 139.495 41.192 142.358 40.381 C 148.112 38.815 154.11 38.521 159.95 39.036 C 165.795 39.605 171.524 40.905 177.027 42.779 C 182.542 44.623 187.85 46.999 192.942 49.736 C 198.004 52.518 202.919 55.603 207.338 59.298 Z" fill="#000000" stroke="none"/><path d="M 272.145 65.479 C 269.292 69.645 265.564 73.199 261.481 76.232 C 259.423 77.734 257.265 79.105 255.021 80.331 C 252.768 81.541 250.429 82.6 248.024 83.499 C 243.214 85.29 238.113 86.378 232.948 86.654 C 227.787 86.866 222.561 86.364 217.583 84.935 C 215.113 84.228 212.694 83.442 210.306 82.512 C 207.918 81.599 205.567 80.578 203.296 79.398 C 198.731 77.083 194.445 74.268 190.394 71.262 C 186.31 68.306 182.419 65.171 177.983 62.999 C 175.776 61.903 173.436 61.08 171.016 60.516 C 168.592 59.965 166.091 59.695 163.576 59.616 C 166.082 59.406 168.628 59.404 171.153 59.756 C 173.679 60.089 176.164 60.793 178.545 61.746 C 183.308 63.707 187.51 66.676 191.662 69.448 C 195.826 72.228 200.036 74.844 204.496 76.97 C 208.956 79.074 213.595 80.844 218.356 82.135 C 227.768 84.756 237.906 84.344 247.252 81.277 C 249.595 80.527 251.89 79.611 254.123 78.556 C 256.366 77.516 258.544 76.328 260.641 75 C 264.856 72.374 268.761 69.21 272.145 65.479 Z" fill="#000000" stroke="none"/><path d="M 65.118 65.545 C 61.504 59.253 56.574 53.793 50.785 49.989 C 47.895 48.1 44.783 46.654 41.622 45.869 C 38.464 45.079 35.278 44.977 32.342 45.619 C 30.181 46.092 28.044 44.724 27.572 42.562 C 27.098 40.4 28.468 38.264 30.629 37.791 C 30.853 37.741 31.077 37.712 31.298 37.702 L 31.434 37.696 C 35.749 37.519 39.952 38.46 43.647 40.098 C 47.358 41.736 50.606 44.03 53.424 46.648 C 59.046 51.914 63.072 58.429 65.61 65.318 C 65.662 65.458 65.59 65.614 65.449 65.666 C 65.323 65.713 65.183 65.657 65.118 65.545 Z" fill="#000000" stroke="none"/><path d="M 45.592 36.595 C 40.117 31.833 33.671 28.288 26.956 26.59 C 23.607 25.75 20.193 25.403 16.95 25.696 C 13.707 25.985 10.662 26.931 8.099 28.498 C 6.211 29.653 3.744 29.059 2.59 27.171 C 1.435 25.283 2.029 22.818 3.917 21.662 C 4.113 21.543 4.314 21.442 4.52 21.36 L 4.647 21.311 C 8.665 19.73 12.946 19.242 16.973 19.58 C 21.015 19.914 24.835 21.018 28.355 22.568 C 35.391 25.703 41.329 30.54 45.982 36.219 C 46.077 36.335 46.06 36.506 45.944 36.602 C 45.84 36.687 45.69 36.68 45.592 36.595 Z" fill="#000000" stroke="none"/><path d="M 55.74 44.098 C 54.062 41.212 52.294 38.393 50.548 35.528 C 48.808 32.658 47.08 29.741 45.621 26.568 C 44.17 23.404 42.995 19.923 42.625 16.153 C 42.224 12.388 42.78 8.453 43.964 4.843 L 43.991 4.76 C 44.682 2.656 46.946 1.511 49.049 2.201 C 51.152 2.892 52.298 5.155 51.608 7.259 C 51.532 7.491 51.425 7.731 51.313 7.938 C 49.928 10.462 48.984 13.164 48.741 16.069 C 48.474 18.969 48.86 22.05 49.636 25.147 C 50.408 28.247 51.532 31.361 52.705 34.475 C 53.883 37.59 55.113 40.715 56.232 43.871 C 56.283 44.013 56.208 44.168 56.067 44.218 C 55.941 44.263 55.805 44.209 55.74 44.098 Z" fill="#000000" stroke="none"/><path d="M 53.924 65.318 C 56.462 58.429 60.488 51.914 66.11 46.648 C 68.928 44.03 72.176 41.736 75.887 40.098 C 79.581 38.46 83.785 37.519 88.1 37.696 L 88.213 37.701 C 90.424 37.793 92.142 39.659 92.052 41.87 C 91.96 44.081 90.094 45.8 87.883 45.708 C 87.654 45.699 87.409 45.665 87.191 45.619 C 84.256 44.977 81.069 45.079 77.911 45.869 C 74.75 46.654 71.639 48.1 68.749 49.989 C 62.96 53.793 58.03 59.253 54.416 65.545 C 54.342 65.676 54.177 65.722 54.046 65.649 C 53.929 65.582 53.88 65.44 53.924 65.318 Z" fill="#000000" stroke="none"/><path d="M 73.552 36.219 C 78.205 30.54 84.142 25.703 91.179 22.568 C 94.699 21.018 98.518 19.914 102.561 19.58 C 106.588 19.242 110.869 19.73 114.887 21.311 L 114.993 21.352 C 117.052 22.162 118.065 24.488 117.255 26.547 C 116.445 28.607 114.119 29.619 112.059 28.81 C 111.846 28.726 111.625 28.613 111.435 28.498 C 108.871 26.931 105.827 25.985 102.584 25.696 C 99.341 25.403 95.927 25.75 92.578 26.59 C 85.863 28.288 79.417 31.833 73.942 36.595 C 73.829 36.694 73.658 36.684 73.558 36.571 C 73.469 36.471 73.47 36.32 73.552 36.219 Z" fill="#000000" stroke="none"/><path d="M 63.302 43.871 C 64.421 40.715 65.651 37.59 66.828 34.475 C 68.002 31.361 69.126 28.247 69.898 25.147 C 70.674 22.05 71.06 18.969 70.793 16.069 C 70.55 13.164 69.605 10.462 68.221 7.938 C 67.156 5.997 67.865 3.561 69.806 2.496 C 71.746 1.431 74.183 2.141 75.248 4.081 C 75.366 4.295 75.461 4.515 75.536 4.738 L 75.57 4.843 C 76.754 8.453 77.31 12.388 76.909 16.153 C 76.538 19.923 75.364 23.404 73.912 26.568 C 72.453 29.741 70.725 32.658 68.986 35.528 C 67.24 38.393 65.471 41.212 63.793 44.098 C 63.718 44.228 63.552 44.273 63.422 44.197 C 63.307 44.131 63.259 43.992 63.302 43.871 Z" fill="#000000" stroke="none"/>
</svg>
