<?xml version="1.0" encoding="UTF-8"?>
<svg xmlns="http://www.w3.org/2000/svg" width="384.126" height="539.176" viewBox="0 0 384.126 539.176">
  <path d="M 7.895 113.283 C 7.308 112.399 7.55 111.206 8.433 110.619 C 9.318 110.032 10.513 110.273 11.099 111.159 C 11.685 112.044 11.444 113.236 10.559 113.823 C 9.675 114.41 8.482 114.168 7.895 113.283 Z" fill="#414042" stroke="none"/><path d="M 14.896 429.389 C 14.896 430.229 14.696 431.038 14.369 431.712 C 13.625 433.235 12.211 434.36 10.486 434.796 C 8.689 435.254 6.748 434.906 5.293 433.868 C 1.827 431.396 1.993 427.601 2.03 427.11 L 2.03 318.986 C 2.03 318.523 2.405 318.149 2.866 318.149 C 3.329 318.149 3.701 318.523 3.701 318.986 L 3.701 427.145 C 3.701 427.173 3.701 427.201 3.698 427.228 C 3.686 427.357 3.435 430.49 6.265 432.508 C 7.324 433.264 8.748 433.515 10.076 433.177 C 11.323 432.861 12.339 432.06 12.866 430.98 C 13.366 429.953 13.437 428.361 12.416 427.281 C 11.762 426.589 11.01 426.242 10.301 426.301 C 9.863 426.34 9.483 426.539 9.286 426.835 C 9.029 427.219 8.51 427.323 8.126 427.066 C 7.742 426.81 7.638 426.291 7.894 425.908 C 8.378 425.182 9.204 424.718 10.159 424.637 C 11.385 424.531 12.617 425.064 13.63 426.132 C 14.535 427.088 14.896 428.263 14.896 429.389 Z" fill="#414042" stroke="none"/><path d="M 7.831 426.022 C 7.245 426.907 7.485 428.1 8.37 428.685 C 9.254 429.272 10.449 429.031 11.035 428.147 C 11.622 427.262 11.379 426.071 10.496 425.483 C 9.612 424.896 8.417 425.139 7.831 426.022 Z" fill="#414042" stroke="none"/><path d="M 382.109 111.679 C 382.109 111.866 382.102 111.999 382.096 112.069 L 382.096 318.986 C 382.096 319.447 381.722 319.82 381.26 319.82 C 380.798 319.82 380.425 319.447 380.425 318.986 L 380.425 112.034 C 380.425 112.006 380.427 111.978 380.428 111.951 C 380.439 111.82 380.69 108.686 377.863 106.669 C 376.802 105.912 375.38 105.661 374.052 105.998 C 372.805 106.315 371.787 107.116 371.259 108.197 C 370.761 109.222 370.687 110.818 371.712 111.898 C 372.366 112.59 373.117 112.938 373.827 112.877 C 374.264 112.84 374.645 112.64 374.84 112.343 C 375.098 111.959 375.615 111.856 376 112.112 C 376.383 112.366 376.489 112.885 376.232 113.27 C 375.747 113.998 374.923 114.461 373.967 114.542 C 372.743 114.648 371.509 114.117 370.496 113.046 C 368.919 111.381 368.99 109.043 369.76 107.465 C 370.5 105.941 371.916 104.817 373.641 104.378 C 375.439 103.922 377.38 104.269 378.832 105.308 C 381.813 107.434 382.109 110.538 382.109 111.679 Z" fill="#414042" stroke="none"/><path d="M 376.232 113.283 C 376.817 112.399 376.576 111.206 375.691 110.619 C 374.808 110.032 373.614 110.273 373.027 111.159 C 372.441 112.044 372.683 113.236 373.567 113.823 C 374.452 114.41 375.644 114.168 376.232 113.283 Z" fill="#414042" stroke="none"/><path d="M 382.109 427.498 C 382.109 428.64 381.813 431.742 378.832 433.868 C 377.378 434.906 375.437 435.254 373.641 434.796 C 371.916 434.361 370.5 433.235 369.76 431.712 C 368.99 430.135 368.919 427.799 370.496 426.133 C 371.509 425.064 372.743 424.531 373.967 424.637 C 374.923 424.718 375.747 425.182 376.232 425.908 C 376.489 426.292 376.383 426.811 376 427.068 C 375.617 427.323 375.098 427.219 374.84 426.835 C 374.645 426.539 374.264 426.34 373.827 426.301 C 373.117 426.242 372.366 426.589 371.708 427.281 C 370.687 428.362 370.761 429.955 371.259 430.98 C 371.787 432.06 372.805 432.861 374.052 433.177 C 375.38 433.514 376.802 433.264 377.863 432.508 C 380.718 430.471 380.434 427.261 380.428 427.228 C 380.427 427.201 380.425 427.173 380.425 427.145 L 380.425 318.986 C 380.425 318.523 380.798 318.149 381.26 318.149 C 381.722 318.149 382.096 318.523 382.096 318.986 L 382.096 427.11 C 382.102 427.18 382.109 427.313 382.109 427.498 Z" fill="#414042" stroke="none"/><path d="M 376.296 426.022 C 376.883 426.907 376.641 428.1 375.755 428.685 C 374.873 429.272 373.677 429.031 373.091 428.147 C 372.506 427.262 372.746 426.071 373.631 425.483 C 374.514 424.896 375.708 425.139 376.296 426.022 Z" fill="#414042" stroke="none"/><path d="M 176.229 2.848 C 176.229 3.31 175.855 3.685 175.393 3.685 L 109.86 3.685 C 109.831 3.685 109.804 3.683 109.776 3.68 C 109.647 3.669 106.513 3.417 104.494 6.247 C 103.738 7.305 103.488 8.73 103.824 10.056 C 104.141 11.304 104.942 12.32 106.022 12.848 C 107.048 13.347 108.645 13.42 109.724 12.399 C 110.416 11.743 110.765 10.988 110.703 10.283 C 110.665 9.844 110.466 9.465 110.169 9.267 C 109.785 9.011 109.682 8.491 109.937 8.108 C 110.194 7.724 110.712 7.62 111.096 7.875 C 111.823 8.36 112.287 9.186 112.368 10.141 C 112.477 11.368 111.942 12.599 110.873 13.613 C 109.207 15.189 106.869 15.12 105.29 14.35 C 103.766 13.607 102.641 12.192 102.204 10.467 C 101.749 8.67 102.096 6.729 103.134 5.275 C 105.607 1.81 109.4 1.975 109.893 2.013 L 175.393 2.013 C 175.855 2.013 176.229 2.387 176.229 2.848 Z" fill="#414042" stroke="none"/><path d="M 111.076 7.866 C 110.194 7.28 108.998 7.521 108.415 8.406 C 107.826 9.291 108.067 10.485 108.952 11.07 C 109.836 11.657 111.03 11.415 111.618 10.531 C 112.203 9.646 111.961 8.453 111.076 7.866 Z" fill="#414042" stroke="none"/><path d="M 282.113 8.885 C 282.113 9.414 282.05 9.947 281.916 10.467 C 281.478 12.192 280.354 13.607 278.83 14.35 C 277.253 15.12 274.916 15.189 273.251 13.613 C 272.182 12.599 271.651 11.363 271.756 10.141 C 271.838 9.186 272.302 8.36 273.03 7.876 C 273.413 7.62 273.931 7.724 274.186 8.107 C 274.443 8.492 274.34 9.011 273.955 9.267 C 273.66 9.465 273.459 9.844 273.423 10.283 C 273.361 10.99 273.71 11.743 274.401 12.399 C 275.479 13.42 277.074 13.347 278.1 12.848 C 279.179 12.32 279.981 11.304 280.297 10.056 C 280.634 8.729 280.384 7.305 279.626 6.248 C 277.611 3.417 274.476 3.669 274.344 3.68 C 274.32 3.683 274.289 3.685 274.265 3.685 L 175.393 3.685 C 174.931 3.685 174.558 3.31 174.558 2.848 C 174.558 2.387 174.931 2.013 175.393 2.013 L 274.229 2.013 C 274.724 1.975 278.515 1.81 280.987 5.276 C 281.724 6.308 282.113 7.586 282.113 8.885 Z" fill="#414042" stroke="none"/><path d="M 273.055 7.847 C 273.94 7.261 275.133 7.502 275.718 8.385 C 276.307 9.269 276.064 10.465 275.18 11.051 C 274.295 11.638 273.104 11.395 272.516 10.511 C 271.93 9.628 272.171 8.434 273.055 7.847 Z" fill="#414042" stroke="none"/><path d="M 176.229 536.327 C 176.229 536.789 175.855 537.163 175.393 537.163 L 109.893 537.163 C 109.4 537.2 105.607 537.366 103.134 533.9 C 102.096 532.447 101.747 530.506 102.204 528.709 C 102.642 526.984 103.766 525.568 105.29 524.826 C 106.868 524.057 109.206 523.986 110.872 525.564 C 111.942 526.576 112.473 527.808 112.368 529.035 C 112.286 529.99 111.822 530.814 111.096 531.299 C 110.711 531.556 110.193 531.45 109.937 531.067 C 109.68 530.682 109.786 530.165 110.169 529.907 C 110.466 529.711 110.665 529.331 110.703 528.893 C 110.765 528.182 110.416 527.433 109.724 526.776 C 108.644 525.756 107.048 525.828 106.022 526.33 C 104.942 526.856 104.141 527.874 103.824 529.119 C 103.487 530.447 103.739 531.87 104.494 532.928 C 106.513 535.757 109.647 535.507 109.78 535.495 C 109.805 535.494 109.834 535.492 109.86 535.492 L 175.393 535.492 C 175.855 535.492 176.229 535.865 176.229 536.327 Z" fill="#414042" stroke="none"/><path d="M 111.076 531.31 C 110.194 531.896 108.998 531.655 108.415 530.77 C 107.826 529.885 108.067 528.692 108.952 528.107 C 109.836 527.519 111.03 527.761 111.618 528.646 C 112.203 529.53 111.961 530.723 111.076 531.31 Z" fill="#414042" stroke="none"/><path d="M 282.113 530.291 C 282.115 531.589 281.724 532.867 280.987 533.9 C 278.515 537.366 274.724 537.2 274.229 537.163 L 175.393 537.163 C 174.931 537.163 174.558 536.789 174.558 536.327 C 174.558 535.865 174.931 535.492 175.393 535.492 L 274.265 535.492 C 274.294 535.492 274.32 535.494 274.348 535.495 C 274.476 535.507 277.611 535.757 279.626 532.929 C 280.384 531.869 280.634 530.446 280.297 529.119 C 279.981 527.872 279.179 526.856 278.1 526.33 C 277.074 525.828 275.479 525.756 274.401 526.776 C 273.71 527.433 273.362 528.184 273.423 528.893 C 273.459 529.331 273.66 529.711 273.955 529.907 C 274.34 530.165 274.443 530.683 274.186 531.067 C 273.931 531.45 273.413 531.556 273.03 531.299 C 272.302 530.814 271.838 529.99 271.756 529.035 C 271.651 527.814 272.182 526.576 273.251 525.564 C 274.918 523.986 277.255 524.057 278.83 524.827 C 280.354 525.568 281.478 526.984 281.916 528.708 C 282.05 529.228 282.113 529.761 282.113 530.291 Z" fill="#414042" stroke="none"/><path d="M 273.055 531.328 C 273.94 531.916 275.133 531.673 275.718 530.79 C 276.307 529.905 276.064 528.713 275.18 528.125 C 274.295 527.54 273.104 527.78 272.516 528.665 C 271.93 529.549 272.171 530.742 273.055 531.328 Z" fill="#414042" stroke="none"/><path d="M 33.766 36.185 C 32.528 36.184 31.526 35.182 31.526 33.944 C 31.526 32.709 32.528 31.707 33.766 31.707 C 35.001 31.707 36.003 32.709 36.003 33.944 C 36.003 35.182 35.001 36.184 33.766 36.185 Z" fill="#414042" stroke="none"/><path d="M 57.71 38.39 C 58.174 37.765 58.475 37.226 58.632 36.628 C 58.785 36.042 58.809 35.428 58.628 34.824 C 58.444 34.225 58.067 33.655 57.499 33.204 C 56.934 32.746 56.193 32.411 55.361 32.184 C 55.264 32.159 55.206 32.061 55.232 31.963 C 55.249 31.898 55.301 31.85 55.361 31.833 C 56.234 31.603 57.227 31.603 58.17 31.967 C 59.108 32.326 59.976 33.065 60.453 34.052 C 60.945 35.023 61.05 36.222 60.688 37.268 C 60.338 38.308 59.549 39.191 58.642 39.584 C 58.245 39.756 57.785 39.574 57.613 39.178 C 57.499 38.913 57.541 38.618 57.702 38.401 L 57.71 38.39 Z" fill="#414042" stroke="none"/><path d="M 69.266 45.369 C 69.266 46.586 68.847 47.773 68.005 48.799 L 66.539 47.596 C 67.674 46.211 67.637 44.426 66.438 42.82 C 64.574 40.319 60.267 38.803 55.642 40.742 C 48.987 43.533 43.76 43.821 40.111 41.595 L 41.098 39.975 C 44.199 41.866 48.847 41.536 54.909 38.994 C 60.688 36.57 65.725 38.69 67.959 41.685 C 68.83 42.854 69.266 44.129 69.266 45.369 Z" fill="#414042" stroke="none"/><path d="M 64.615 48.949 C 63.718 48.053 63.718 46.599 64.615 45.702 C 65.512 44.804 66.965 44.804 67.861 45.701 C 68.758 46.599 68.76 48.053 67.863 48.951 C 66.966 49.846 65.511 49.846 64.615 48.949 Z" fill="#414042" stroke="none"/><path d="M 30.283 44.718 C 30.283 48.754 29.165 52.906 26.872 56.374 C 23.992 60.732 20.411 63.265 16.62 65.947 C 14.994 67.097 13.314 68.286 11.66 69.649 C 7.019 73.471 1.424 81.689 5.034 88.665 C 7.779 93.967 12.235 93.801 14.207 92.974 C 17.131 91.746 18.295 89.218 17.243 86.372 C 16.648 84.762 15.184 84.083 14.012 83.986 C 13.087 83.907 11.895 84.179 11.323 85.177 C 10.572 86.485 10.991 87.37 11.632 87.763 C 12.078 88.036 12.219 88.619 11.946 89.067 C 11.672 89.514 11.088 89.654 10.642 89.38 C 9.245 88.524 8.348 86.55 9.677 84.233 C 10.527 82.754 12.249 81.934 14.171 82.096 C 16.406 82.283 18.266 83.67 19.021 85.715 C 20.417 89.492 18.777 93.112 14.941 94.722 C 12.41 95.784 6.73 96.067 3.35 89.536 C -0.342 82.403 4.129 73.396 10.454 68.185 C 12.162 66.779 13.871 65.569 15.525 64.4 C 19.166 61.823 22.605 59.389 25.29 55.329 C 29.985 48.23 29.307 38.02 23.808 33.034 C 18.559 28.267 11.62 27.928 6.934 32.209 C 5.095 33.889 4.019 36.185 3.906 38.675 C 3.791 41.157 4.657 43.549 6.336 45.386 C 7.639 46.813 9.423 47.635 11.363 47.701 C 13.237 47.764 14.989 47.113 16.293 45.865 C 18.568 43.686 18.212 40.665 16.723 38.927 C 15.589 37.606 13.26 37.038 11.725 38.336 C 11.012 38.942 10.625 39.899 10.739 40.776 C 10.796 41.217 11.007 41.812 11.687 42.134 C 12.161 42.359 12.361 42.925 12.137 43.397 C 11.913 43.87 11.348 44.071 10.874 43.847 C 9.759 43.318 9.025 42.288 8.859 41.021 C 8.66 39.496 9.289 37.915 10.501 36.889 C 12.918 34.843 16.413 35.654 18.162 37.694 C 20.248 40.124 20.608 44.358 17.604 47.236 C 15.926 48.839 13.687 49.677 11.298 49.595 C 8.844 49.511 6.585 48.471 4.937 46.666 C 2.915 44.453 1.877 41.583 2.012 38.589 C 2.148 35.594 3.442 32.83 5.657 30.808 C 11.092 25.843 19.08 26.18 25.083 31.629 C 28.51 34.739 30.282 39.636 30.283 44.718 Z" fill="#414042" stroke="none"/><path d="M 15.587 66.2 C 15.587 66.542 15.401 66.872 15.074 67.04 C 14.933 67.114 11.566 68.803 8.096 66.558 C 6.675 65.636 5.733 64.112 5.509 62.373 C 5.298 60.726 5.79 59.111 6.858 57.942 C 8.149 56.53 9.942 56.065 11.906 56.631 C 13.023 56.952 13.887 57.745 14.276 58.806 C 14.623 59.754 14.517 60.791 13.992 61.579 C 13.702 62.016 13.114 62.133 12.679 61.843 C 12.241 61.552 12.124 60.965 12.414 60.529 C 12.606 60.24 12.636 59.841 12.495 59.459 C 12.318 58.972 11.912 58.605 11.38 58.453 C 10.11 58.086 9.059 58.345 8.258 59.221 C 7.556 59.989 7.248 61.025 7.389 62.132 C 7.54 63.299 8.189 64.358 9.126 64.965 C 11.653 66.601 14.107 65.405 14.21 65.353 C 14.677 65.119 15.247 65.303 15.483 65.769 C 15.554 65.907 15.587 66.055 15.587 66.2 Z" fill="#414042" stroke="none"/><path d="M 32.436 70.854 C 32.436 71.842 32.14 72.833 31.552 73.668 C 30.639 74.967 29.137 75.814 27.431 75.992 C 25.641 76.178 23.897 75.615 22.648 74.451 C 19.105 71.141 20.523 66.309 21.057 64.49 C 21.733 62.183 23.315 58.382 25.727 54.631 C 26.011 54.19 26.598 54.063 27.038 54.346 C 27.478 54.629 27.605 55.217 27.323 55.656 C 25.019 59.237 23.516 62.843 22.876 65.025 C 22.074 67.759 21.573 70.851 23.942 73.065 C 24.79 73.855 25.99 74.236 27.235 74.106 C 28.394 73.985 29.403 73.428 30.002 72.576 C 30.567 71.773 30.821 70.459 30.113 69.335 C 29.668 68.625 29.059 68.406 28.736 68.34 C 28.243 68.238 27.854 68.349 27.654 68.488 C 27.223 68.785 26.633 68.676 26.335 68.244 C 26.037 67.812 26.147 67.223 26.578 66.926 C 27.265 66.452 28.19 66.292 29.119 66.484 C 30.188 66.703 31.111 67.357 31.719 68.325 C 32.198 69.087 32.436 69.968 32.436 70.854 Z" fill="#414042" stroke="none"/><path d="M 9.647 48.247 C 10.416 47.992 11.289 48.199 11.979 48.677 C 12.68 49.154 13.17 49.939 13.359 50.776 C 13.558 51.615 13.447 52.501 13.109 53.227 C 12.772 53.956 12.232 54.538 11.582 54.905 C 11.498 54.951 11.395 54.922 11.348 54.84 C 11.325 54.799 11.321 54.752 11.333 54.71 L 11.333 54.707 C 11.527 54.016 11.669 53.398 11.71 52.822 C 11.752 52.248 11.692 51.73 11.54 51.258 C 11.387 50.782 11.138 50.366 10.835 49.93 C 10.523 49.493 10.138 49.077 9.579 48.557 C 9.504 48.488 9.499 48.371 9.568 48.296 C 9.591 48.273 9.619 48.256 9.647 48.247 Z" fill="#414042" stroke="none"/><path d="M 27.365 53.878 C 27.401 54.741 26.904 55.586 26.179 56.128 C 25.453 56.683 24.461 56.912 23.521 56.756 C 22.577 56.608 21.731 56.055 21.214 55.353 C 20.689 54.651 20.446 53.834 20.448 53.039 C 20.448 52.946 20.523 52.87 20.618 52.87 C 20.667 52.87 20.712 52.892 20.744 52.926 L 20.745 52.929 C 21.256 53.499 21.739 53.99 22.247 54.329 C 22.753 54.669 23.262 54.848 23.771 54.891 C 24.285 54.93 24.796 54.83 25.334 54.656 C 25.88 54.472 26.419 54.195 27.08 53.736 C 27.163 53.679 27.276 53.699 27.333 53.781 C 27.353 53.81 27.364 53.844 27.365 53.878 Z" fill="#414042" stroke="none"/><path d="M 21.517 70.139 C 22.084 70.672 22.305 71.498 22.226 72.292 C 22.152 73.094 21.738 73.866 21.14 74.424 C 20.543 74.989 19.765 75.332 19.001 75.411 C 18.234 75.497 17.488 75.327 16.87 74.965 C 16.788 74.917 16.762 74.81 16.809 74.73 C 16.832 74.69 16.868 74.663 16.908 74.652 L 16.914 74.65 C 17.573 74.452 18.141 74.265 18.622 74.006 C 19.103 73.752 19.49 73.449 19.805 73.097 C 20.121 72.742 20.347 72.34 20.577 71.89 C 20.806 71.43 20.994 70.926 21.208 70.217 C 21.238 70.12 21.342 70.064 21.439 70.093 C 21.467 70.102 21.491 70.115 21.512 70.134 L 21.517 70.139 Z" fill="#414042" stroke="none"/><path d="M 9.617 66.631 C 8.87 66.727 8.327 66.834 7.822 66.991 C 7.327 67.151 6.882 67.319 6.48 67.588 C 6.079 67.855 5.723 68.207 5.409 68.665 C 5.089 69.123 4.836 69.682 4.566 70.331 L 4.564 70.337 C 4.527 70.423 4.427 70.464 4.34 70.428 C 4.297 70.411 4.265 70.377 4.248 70.338 C 3.958 69.669 3.875 68.89 4.059 68.121 C 4.236 67.353 4.692 66.602 5.354 66.079 C 6.008 65.551 6.855 65.252 7.675 65.3 C 8.487 65.343 9.289 65.689 9.741 66.339 L 9.744 66.344 C 9.802 66.428 9.783 66.542 9.698 66.599 C 9.674 66.617 9.645 66.628 9.617 66.631 Z" fill="#414042" stroke="none"/><path d="M 12.226 94.414 C 12.708 93.732 13.568 93.364 14.44 93.348 C 15.322 93.323 16.213 93.696 16.872 94.299 C 17.54 94.898 17.961 95.721 18.099 96.535 C 18.237 97.352 18.123 98.162 17.794 98.862 C 17.755 98.947 17.653 98.984 17.568 98.944 C 17.524 98.923 17.492 98.883 17.478 98.839 C 17.246 98.134 17.013 97.513 16.715 96.987 C 16.418 96.463 16.063 96.046 15.652 95.731 C 15.238 95.415 14.777 95.211 14.256 95.036 C 13.725 94.864 13.144 94.765 12.361 94.702 C 12.26 94.694 12.184 94.606 12.193 94.506 C 12.196 94.471 12.207 94.441 12.226 94.414 Z" fill="#414042" stroke="none"/><path d="M 11.677 44.088 C 10.647 44.04 9.852 43.167 9.9 42.138 C 9.948 41.106 10.823 40.313 11.851 40.361 C 12.88 40.409 13.675 41.282 13.627 42.313 C 13.579 43.342 12.706 44.136 11.677 44.088 Z" fill="#414042" stroke="none"/><path d="M 12.371 62.39 C 11.343 62.342 10.548 61.469 10.596 60.44 C 10.644 59.41 11.517 58.616 12.546 58.663 C 13.575 58.712 14.37 59.585 14.322 60.616 C 14.274 61.644 13.4 62.438 12.371 62.39 Z" fill="#414042" stroke="none"/><path d="M 27.528 70.342 C 26.499 70.294 25.704 69.421 25.751 68.393 C 25.801 67.364 26.674 66.567 27.704 66.615 C 28.731 66.663 29.527 67.537 29.479 68.565 C 29.43 69.596 28.557 70.391 27.528 70.342 Z" fill="#414042" stroke="none"/><path d="M 11.623 89.677 C 10.595 89.63 9.798 88.756 9.848 87.726 C 9.895 86.696 10.769 85.902 11.797 85.949 C 12.827 85.997 13.622 86.868 13.574 87.9 C 13.525 88.93 12.652 89.723 11.623 89.677 Z" fill="#414042" stroke="none"/><path d="M 95.129 12.022 C 95.129 13.249 94.874 14.334 94.545 15.118 C 92.934 18.955 89.314 20.595 85.538 19.198 C 83.492 18.442 82.106 16.583 81.919 14.348 C 81.758 12.417 82.577 10.706 84.056 9.855 C 86.371 8.525 88.347 9.422 89.204 10.819 C 89.477 11.265 89.336 11.85 88.89 12.122 C 88.444 12.396 87.86 12.256 87.586 11.81 C 87.193 11.168 86.307 10.749 85 11.5 C 84.004 12.072 83.73 13.262 83.808 14.189 C 83.906 15.361 84.585 16.825 86.196 17.42 C 89.04 18.472 91.569 17.309 92.797 14.385 C 93.625 12.412 93.789 7.955 88.487 5.211 C 81.513 1.601 73.294 7.195 69.472 11.837 C 68.109 13.492 66.92 15.172 65.769 16.798 C 63.088 20.589 60.554 24.17 56.197 27.05 C 48.364 32.23 37.032 31.41 31.452 25.26 C 26.003 19.26 25.665 11.271 30.631 5.834 C 32.654 3.621 35.417 2.325 38.412 2.19 C 41.407 2.053 44.276 3.092 46.489 5.116 C 48.295 6.763 49.335 9.021 49.418 11.476 C 49.502 13.866 48.662 16.104 47.058 17.781 C 44.181 20.787 39.947 20.425 37.516 18.339 C 35.477 16.59 34.666 13.095 36.711 10.679 C 37.737 9.467 39.321 8.838 40.844 9.037 C 42.111 9.202 43.14 9.936 43.669 11.051 C 43.894 11.525 43.692 12.091 43.22 12.314 C 42.746 12.54 42.182 12.338 41.956 11.865 C 41.634 11.187 41.04 10.975 40.599 10.917 C 39.722 10.802 38.763 11.19 38.159 11.905 C 36.862 13.437 37.429 15.768 38.751 16.9 C 40.512 18.411 43.588 18.664 45.688 16.471 C 46.935 15.166 47.587 13.417 47.524 11.541 C 47.457 9.601 46.636 7.816 45.21 6.515 C 43.37 4.835 40.987 3.971 38.498 4.084 C 36.008 4.197 33.712 5.273 32.032 7.113 C 27.751 11.796 28.09 18.736 32.856 23.986 C 37.844 29.483 48.053 30.162 55.152 25.468 C 59.212 22.784 61.645 19.345 64.222 15.703 C 65.391 14.049 66.6 12.339 68.008 10.632 C 73.217 4.306 82.224 -0.165 89.358 3.527 C 93.867 5.861 95.129 9.291 95.129 12.022 Z" fill="#414042" stroke="none"/><path d="M 67.541 12.153 C 67.541 13.905 66.908 15.166 66.863 15.252 C 66.624 15.718 66.052 15.9 65.587 15.661 C 65.121 15.421 64.938 14.849 65.177 14.383 C 65.227 14.285 66.423 11.831 64.787 9.304 C 64.181 8.367 63.122 7.717 61.954 7.567 C 60.847 7.425 59.812 7.733 59.043 8.436 C 58.167 9.236 57.91 10.286 58.275 11.559 C 58.429 12.089 58.796 12.495 59.283 12.673 C 59.665 12.813 60.064 12.783 60.35 12.592 C 60.787 12.302 61.374 12.42 61.665 12.856 C 61.956 13.291 61.837 13.88 61.402 14.17 C 60.614 14.694 59.578 14.801 58.632 14.455 C 57.57 14.065 56.776 13.203 56.454 12.084 C 55.887 10.119 56.352 8.327 57.764 7.036 C 58.934 5.967 60.55 5.475 62.197 5.686 C 63.935 5.91 65.46 6.853 66.38 8.273 C 67.268 9.647 67.541 11.005 67.541 12.153 Z" fill="#414042" stroke="none"/><path d="M 75.85 26.936 C 75.85 27.156 75.838 27.381 75.816 27.606 C 75.638 29.313 74.79 30.816 73.491 31.729 C 71.908 32.844 69.761 32.911 68.147 31.896 C 67.18 31.288 66.527 30.365 66.306 29.298 C 66.114 28.368 66.275 27.443 66.747 26.757 C 67.044 26.325 67.634 26.217 68.066 26.512 C 68.497 26.809 68.606 27.4 68.31 27.831 C 68.171 28.032 68.061 28.421 68.163 28.913 C 68.229 29.237 68.448 29.845 69.157 30.29 C 70.282 30.998 71.596 30.745 72.399 30.178 C 73.251 29.58 73.808 28.572 73.929 27.41 C 74.057 26.164 73.678 24.968 72.887 24.119 C 70.673 21.749 67.58 22.252 64.847 23.054 C 62.667 23.693 59.062 25.197 55.479 27.499 C 55.038 27.782 54.453 27.655 54.169 27.215 C 53.886 26.773 54.013 26.188 54.454 25.905 C 58.206 23.491 62.008 21.91 64.312 21.234 C 66.131 20.701 70.961 19.28 74.272 22.825 C 75.292 23.917 75.85 25.386 75.85 26.936 Z" fill="#414042" stroke="none"/><path d="M 48.38 9.756 C 48.899 10.315 49.316 10.7 49.753 11.012 C 50.188 11.316 50.605 11.564 51.079 11.718 C 51.553 11.871 52.072 11.931 52.645 11.889 C 53.221 11.848 53.839 11.704 54.531 11.511 L 54.532 11.51 C 54.624 11.485 54.719 11.539 54.745 11.628 C 54.757 11.675 54.75 11.721 54.728 11.759 C 54.362 12.41 53.779 12.95 53.049 13.287 C 52.323 13.625 51.438 13.736 50.599 13.537 C 49.761 13.347 48.975 12.858 48.498 12.156 C 48.022 11.466 47.815 10.593 48.069 9.823 C 48.101 9.727 48.205 9.674 48.302 9.707 C 48.332 9.716 48.359 9.734 48.38 9.756 Z" fill="#414042" stroke="none"/><path d="M 53.558 27.258 C 54.017 26.596 54.295 26.058 54.479 25.512 C 54.653 24.973 54.753 24.461 54.714 23.949 C 54.672 23.439 54.493 22.93 54.152 22.424 C 53.813 21.917 53.323 21.435 52.752 20.923 L 52.749 20.921 C 52.68 20.859 52.674 20.751 52.736 20.682 C 52.769 20.645 52.815 20.626 52.862 20.625 C 53.657 20.624 54.475 20.867 55.178 21.393 C 55.879 21.908 56.433 22.754 56.579 23.699 C 56.734 24.638 56.506 25.631 55.95 26.357 C 55.409 27.081 54.563 27.578 53.7 27.543 C 53.6 27.538 53.522 27.454 53.527 27.354 C 53.528 27.319 53.54 27.285 53.558 27.258 Z" fill="#414042" stroke="none"/><path d="M 70.039 21.387 C 70.748 21.172 71.253 20.984 71.712 20.756 C 72.162 20.525 72.565 20.299 72.92 19.982 C 73.272 19.668 73.575 19.28 73.829 18.799 C 74.088 18.319 74.275 17.75 74.474 17.092 L 74.475 17.086 C 74.502 16.994 74.599 16.943 74.689 16.97 C 74.732 16.983 74.766 17.012 74.788 17.048 C 75.15 17.665 75.32 18.413 75.235 19.179 C 75.154 19.943 74.811 20.721 74.246 21.317 C 73.689 21.915 72.917 22.331 72.114 22.405 C 71.321 22.482 70.494 22.262 69.962 21.694 L 69.958 21.689 C 69.887 21.616 69.891 21.499 69.966 21.429 C 69.987 21.408 70.013 21.394 70.039 21.387 Z" fill="#414042" stroke="none"/><path d="M 66.162 9.918 C 65.512 9.467 65.164 8.665 65.122 7.854 C 65.073 7.032 65.373 6.186 65.902 5.532 C 66.425 4.869 67.176 4.414 67.943 4.236 C 68.712 4.052 69.491 4.135 70.16 4.425 C 70.247 4.463 70.287 4.564 70.249 4.651 C 70.231 4.692 70.199 4.724 70.159 4.741 L 70.154 4.743 C 69.505 5.014 68.945 5.267 68.487 5.585 C 68.029 5.9 67.678 6.257 67.41 6.657 C 67.141 7.061 66.974 7.504 66.813 7.999 C 66.657 8.504 66.55 9.046 66.454 9.794 C 66.442 9.895 66.35 9.967 66.249 9.954 C 66.218 9.95 66.191 9.94 66.167 9.923 L 66.162 9.918 Z" fill="#414042" stroke="none"/><path d="M 94.524 12.538 C 94.587 13.321 94.686 13.903 94.859 14.433 C 95.033 14.954 95.238 15.415 95.553 15.83 C 95.868 16.24 96.286 16.596 96.809 16.892 C 97.336 17.19 97.956 17.422 98.663 17.655 C 98.753 17.683 98.802 17.779 98.774 17.869 C 98.76 17.916 98.725 17.952 98.684 17.972 C 97.986 18.301 97.176 18.414 96.358 18.275 C 95.543 18.138 94.721 17.717 94.121 17.049 C 93.519 16.392 93.145 15.499 93.171 14.617 C 93.186 13.746 93.555 12.886 94.237 12.403 C 94.319 12.345 94.433 12.365 94.491 12.447 C 94.511 12.474 94.522 12.507 94.524 12.538 Z" fill="#414042" stroke="none"/><path d="M 43.911 11.853 C 43.862 10.825 42.99 10.03 41.961 10.077 C 40.931 10.126 40.135 11 40.184 12.028 C 40.232 13.057 41.105 13.853 42.136 13.805 C 43.164 13.757 43.958 12.884 43.911 11.853 Z" fill="#414042" stroke="none"/><path d="M 62.212 12.549 C 62.165 11.52 61.292 10.725 60.264 10.773 C 59.233 10.821 58.438 11.694 58.486 12.725 C 58.535 13.753 59.408 14.548 60.438 14.499 C 61.466 14.451 62.26 13.579 62.212 12.549 Z" fill="#414042" stroke="none"/><path d="M 70.165 27.706 C 70.117 26.676 69.245 25.881 68.215 25.929 C 67.185 25.979 66.39 26.852 66.437 27.882 C 66.486 28.909 67.36 29.704 68.388 29.656 C 69.42 29.607 70.214 28.734 70.165 27.706 Z" fill="#414042" stroke="none"/><path d="M 89.499 11.8 C 89.452 10.773 88.578 9.977 87.548 10.025 C 86.518 10.072 85.726 10.946 85.772 11.975 C 85.821 13.005 86.692 13.8 87.722 13.751 C 88.753 13.702 89.547 12.829 89.499 11.8 Z" fill="#414042" stroke="none"/><path d="M 39.413 58.829 C 39.015 59.735 38.129 60.522 37.087 60.87 C 36.041 61.231 34.842 61.126 33.871 60.632 C 32.886 60.155 32.147 59.286 31.789 58.351 C 31.424 57.407 31.424 56.415 31.653 55.542 C 31.679 55.445 31.777 55.387 31.875 55.412 C 31.939 55.429 31.986 55.48 32.003 55.54 L 32.004 55.543 C 32.232 56.375 32.568 57.115 33.025 57.677 C 33.476 58.246 34.046 58.622 34.643 58.808 C 35.247 58.989 35.861 58.965 36.448 58.815 C 37.047 58.66 37.59 58.36 38.218 57.897 L 38.233 57.886 C 38.582 57.63 39.071 57.705 39.326 58.051 C 39.497 58.285 39.52 58.583 39.413 58.829 Z" fill="#414042" stroke="none"/><path d="M 48.618 68.187 C 46.546 69.884 43.822 69.867 41.505 68.14 C 38.51 65.907 36.389 60.868 38.812 55.089 C 41.356 49.024 41.686 44.377 39.794 41.28 L 41.413 40.291 C 43.64 43.939 43.353 49.164 40.561 55.822 C 38.621 60.448 40.139 64.757 42.64 66.62 C 44.246 67.817 46.031 67.856 47.416 66.721 L 48.618 68.187 Z" fill="#414042" stroke="none"/><path d="M 48.768 64.795 C 47.872 63.898 46.418 63.898 45.521 64.795 C 44.624 65.693 44.624 67.145 45.52 68.042 C 46.418 68.939 47.872 68.939 48.77 68.043 C 49.666 67.147 49.666 65.692 48.768 64.795 Z" fill="#414042" stroke="none"/><path d="M 43.873 44.055 C 44.345 45.267 44.666 46.541 44.969 47.735 C 45.255 48.861 45.524 49.924 45.881 50.835 C 47.571 55.138 50.816 58.279 55.805 60.435 C 56.368 60.678 57.027 60.929 57.725 61.196 C 59.448 61.852 61.516 62.64 63.683 63.863 C 62.46 61.697 61.672 59.63 61.016 57.909 C 60.749 57.21 60.497 56.549 60.254 55.986 C 58.098 50.996 54.957 47.75 50.652 46.062 C 49.743 45.705 48.681 45.435 47.556 45.151 C 46.36 44.847 45.086 44.525 43.873 44.055 Z M 69.444 68.676 C 69.444 68.918 69.351 69.161 69.167 69.346 C 68.981 69.532 68.739 69.625 68.495 69.625 C 68.254 69.625 68.011 69.532 67.826 69.346 C 64.154 65.675 60.049 64.11 57.051 62.968 C 56.332 62.694 55.653 62.436 55.053 62.176 C 49.577 59.808 45.999 56.325 44.116 51.528 C 43.714 50.506 43.432 49.386 43.131 48.202 C 42.54 45.864 41.927 43.449 40.384 41.906 C 40.014 41.535 40.014 40.935 40.384 40.564 C 40.569 40.38 40.812 40.287 41.054 40.287 C 41.297 40.287 41.539 40.38 41.725 40.564 C 43.268 42.108 45.684 42.72 48.022 43.312 C 49.206 43.612 50.324 43.897 51.345 44.297 C 56.145 46.179 59.628 49.757 61.995 55.233 C 62.255 55.836 62.513 56.514 62.788 57.233 C 63.93 60.23 65.495 64.335 69.167 68.005 C 69.351 68.19 69.444 68.433 69.444 68.676 Z" fill="#414042" stroke="none"/><path d="M 48.374 45.856 C 44.297 41.779 40.387 39.077 39.642 39.823 C 38.898 40.568 41.599 44.477 45.676 48.554 C 49.313 52.192 54.025 54.972 54.409 54.591 C 54.792 54.206 52.012 49.493 48.374 45.856 Z" fill="#414042" stroke="none"/><path d="M 13.177 16.351 C 7.767 10.941 9.191 9.364 9.192 9.367 C 9.184 9.367 10.764 7.945 16.173 13.357 C 20.53 17.715 23.495 23.679 23.494 23.671 C 23.501 23.675 17.533 20.707 13.177 16.351 Z" fill="#414042" stroke="none"/><path d="M 11.762 19.769 C 12.653 20.66 12.651 22.106 11.762 23 C 10.87 23.89 9.42 23.888 8.531 23 C 7.639 22.106 7.638 20.66 8.529 19.769 C 9.42 18.876 10.87 18.878 11.762 19.769 Z" fill="#414042" stroke="none"/><path d="M 19.588 11.939 C 20.479 12.831 21.929 12.833 22.82 11.941 C 23.711 11.049 23.711 9.603 22.82 8.711 C 21.927 7.821 20.478 7.82 19.587 8.711 C 18.696 9.603 18.697 11.049 19.588 11.939 Z" fill="#414042" stroke="none"/><path d="M 350.36 36.185 C 351.597 36.184 352.601 35.182 352.601 33.944 C 352.601 32.709 351.597 31.707 350.36 31.707 C 349.125 31.707 348.123 32.709 348.123 33.944 C 348.123 35.182 349.125 36.184 350.36 36.185 Z" fill="#414042" stroke="none"/><path d="M 325.476 39.593 C 324.573 39.196 323.785 38.31 323.437 37.268 C 323.076 36.221 323.181 35.023 323.677 34.052 C 324.153 33.066 325.021 32.327 325.958 31.969 C 326.902 31.604 327.893 31.604 328.766 31.833 C 328.863 31.858 328.921 31.958 328.894 32.055 C 328.878 32.119 328.828 32.167 328.767 32.183 L 328.766 32.184 C 327.933 32.412 327.193 32.748 326.631 33.206 C 326.06 33.656 325.685 34.226 325.499 34.824 C 325.318 35.428 325.342 36.042 325.492 36.629 C 325.647 37.227 325.949 37.771 326.41 38.4 L 326.421 38.415 C 326.677 38.763 326.602 39.252 326.255 39.508 C 326.021 39.679 325.724 39.701 325.476 39.593 Z" fill="#414042" stroke="none"/><path d="M 344.016 41.595 C 340.367 43.821 335.14 43.534 328.483 40.742 C 323.859 38.803 319.553 40.319 317.689 42.82 C 316.49 44.426 316.451 46.211 317.585 47.596 L 316.12 48.799 C 314.423 46.726 314.441 44.001 316.168 41.685 C 318.402 38.69 323.438 36.57 329.219 38.994 C 335.281 41.536 339.927 41.867 343.03 39.975 L 344.016 41.595 Z" fill="#414042" stroke="none"/><path d="M 319.512 48.949 C 320.409 48.053 320.409 46.599 319.512 45.702 C 318.614 44.804 317.162 44.804 316.264 45.701 C 315.369 46.599 315.369 48.053 316.264 48.951 C 317.16 49.846 318.614 49.846 319.512 48.949 Z" fill="#414042" stroke="none"/><path d="M 382.126 39.11 C 382.126 41.916 381.093 44.581 379.19 46.666 C 377.54 48.471 375.283 49.511 372.827 49.595 C 370.439 49.677 368.199 48.839 366.522 47.236 C 363.517 44.358 363.88 40.123 365.964 37.692 C 367.713 35.654 371.21 34.843 373.625 36.888 C 374.837 37.916 375.465 39.497 375.267 41.022 C 375.102 42.289 374.368 43.318 373.253 43.847 C 372.78 44.071 372.213 43.87 371.989 43.397 C 371.764 42.924 371.967 42.359 372.441 42.134 C 373.119 41.812 373.33 41.218 373.389 40.776 C 373.502 39.903 373.115 38.942 372.4 38.336 C 370.867 37.039 368.538 37.607 367.404 38.927 C 365.914 40.664 365.559 43.686 367.832 45.865 C 369.137 47.113 370.889 47.764 372.763 47.701 C 374.703 47.635 376.489 46.813 377.789 45.386 C 379.469 43.549 380.331 41.166 380.221 38.675 C 380.107 36.185 379.032 33.889 377.191 32.209 C 372.507 27.928 365.569 28.267 360.318 33.034 C 354.821 38.02 354.141 48.23 358.834 55.327 C 361.521 59.389 364.958 61.822 368.602 64.399 C 370.255 65.569 371.966 66.778 373.672 68.185 C 379.998 73.394 384.471 82.401 380.777 89.536 C 377.396 96.067 371.716 95.785 369.186 94.722 C 365.35 93.112 363.71 89.492 365.106 85.715 C 365.862 83.67 367.719 82.284 369.956 82.096 C 371.876 81.934 373.6 82.753 374.451 84.232 C 375.778 86.549 374.881 88.524 373.485 89.38 C 373.039 89.654 372.454 89.514 372.181 89.067 C 371.908 88.619 372.047 88.036 372.494 87.763 C 373.136 87.37 373.555 86.484 372.805 85.176 C 372.232 84.179 371.04 83.907 370.114 83.986 C 368.944 84.084 367.479 84.763 366.885 86.372 C 365.832 89.218 366.995 91.746 369.919 92.974 C 371.892 93.801 376.349 93.967 379.093 88.665 C 382.701 81.691 377.107 73.471 372.466 69.649 C 370.814 68.286 369.132 67.097 367.506 65.947 C 363.715 63.264 360.134 60.732 357.253 56.374 C 352.073 48.539 352.893 37.208 359.043 31.629 C 365.045 26.18 373.034 25.843 378.471 30.809 C 380.684 32.83 381.978 35.594 382.114 38.589 C 382.122 38.763 382.126 38.937 382.126 39.11 Z" fill="#414042" stroke="none"/><path d="M 378.664 61.624 C 378.664 61.871 378.65 62.121 378.618 62.373 C 378.394 64.112 377.452 65.636 376.033 66.556 C 372.562 68.803 369.194 67.114 369.051 67.04 C 368.586 66.801 368.404 66.229 368.644 65.763 C 368.883 65.298 369.455 65.114 369.921 65.355 C 370.019 65.405 372.472 66.601 375 64.965 C 375.937 64.358 376.588 63.299 376.737 62.131 C 376.878 61.02 376.57 59.989 375.869 59.221 C 375.067 58.345 374.016 58.086 372.746 58.453 C 372.216 58.605 371.81 58.972 371.631 59.459 C 371.49 59.841 371.519 60.242 371.713 60.529 C 372.004 60.964 371.885 61.552 371.449 61.843 C 371.014 62.133 370.425 62.016 370.134 61.579 C 369.609 60.79 369.502 59.753 369.851 58.806 C 370.239 57.745 371.104 56.952 372.222 56.631 C 374.184 56.064 375.978 56.53 377.268 57.941 C 378.175 58.933 378.664 60.244 378.664 61.624 Z" fill="#414042" stroke="none"/><path d="M 363.804 68.79 C 363.804 70.672 363.287 72.76 361.477 74.45 C 360.23 75.615 358.487 76.178 356.696 75.992 C 354.991 75.814 353.487 74.967 352.575 73.668 C 351.458 72.085 351.393 69.937 352.409 68.325 C 353.016 67.357 353.94 66.703 355.008 66.484 C 355.934 66.292 356.862 66.452 357.548 66.926 C 357.979 67.223 358.089 67.812 357.792 68.244 C 357.495 68.676 356.904 68.785 356.474 68.488 C 356.271 68.349 355.885 68.238 355.391 68.34 C 355.066 68.406 354.46 68.625 354.015 69.335 C 353.306 70.461 353.56 71.773 354.126 72.576 C 354.724 73.428 355.731 73.985 356.892 74.106 C 358.137 74.236 359.336 73.855 360.183 73.065 C 362.553 70.853 362.051 67.758 361.251 65.025 C 360.609 62.841 359.106 59.234 356.804 55.656 C 356.522 55.217 356.649 54.629 357.089 54.346 C 357.53 54.063 358.114 54.19 358.4 54.631 C 360.81 58.378 362.392 62.181 363.07 64.49 C 363.331 65.38 363.804 66.99 363.804 68.79 Z" fill="#414042" stroke="none"/><path d="M 374.547 48.557 C 373.988 49.077 373.603 49.493 373.291 49.93 C 372.988 50.366 372.741 50.782 372.586 51.258 C 372.434 51.73 372.372 52.248 372.416 52.822 C 372.457 53.398 372.6 54.016 372.792 54.707 L 372.792 54.709 C 372.82 54.801 372.766 54.895 372.676 54.92 C 372.631 54.933 372.581 54.926 372.545 54.905 C 371.893 54.538 371.356 53.956 371.019 53.227 C 370.68 52.501 370.568 51.615 370.767 50.777 C 370.957 49.939 371.447 49.154 372.146 48.677 C 372.837 48.199 373.709 47.992 374.48 48.247 C 374.577 48.278 374.629 48.384 374.598 48.48 C 374.586 48.509 374.569 48.537 374.547 48.557 Z" fill="#414042" stroke="none"/><path d="M 357.046 53.736 C 357.708 54.195 358.245 54.472 358.792 54.656 C 359.33 54.83 359.841 54.93 360.355 54.891 C 360.866 54.848 361.374 54.669 361.879 54.329 C 362.388 53.99 362.87 53.499 363.381 52.929 L 363.383 52.926 C 363.447 52.857 363.553 52.85 363.624 52.913 C 363.659 52.947 363.68 52.993 363.68 53.039 C 363.682 53.834 363.437 54.651 362.911 55.353 C 362.395 56.055 361.55 56.608 360.606 56.756 C 359.667 56.912 358.674 56.683 357.949 56.128 C 357.223 55.587 356.725 54.741 356.761 53.878 C 356.766 53.778 356.85 53.7 356.95 53.704 C 356.986 53.706 357.019 53.718 357.046 53.736 Z" fill="#414042" stroke="none"/><path d="M 362.919 70.217 C 363.132 70.926 363.321 71.43 363.55 71.89 C 363.778 72.34 364.005 72.742 364.321 73.097 C 364.635 73.449 365.024 73.752 365.505 74.006 C 365.985 74.265 366.553 74.452 367.211 74.65 L 367.218 74.652 C 367.309 74.679 367.361 74.774 367.333 74.866 C 367.321 74.909 367.292 74.944 367.256 74.965 C 366.64 75.327 365.891 75.497 365.125 75.411 C 364.36 75.332 363.582 74.989 362.988 74.424 C 362.39 73.866 361.974 73.094 361.9 72.292 C 361.822 71.498 362.041 70.672 362.61 70.139 L 362.614 70.135 C 362.689 70.065 362.807 70.069 362.876 70.144 C 362.897 70.165 362.91 70.191 362.919 70.217 Z" fill="#414042" stroke="none"/><path d="M 374.387 66.339 C 374.839 65.689 375.64 65.343 376.451 65.3 C 377.271 65.252 378.119 65.551 378.773 66.081 C 379.435 66.603 379.891 67.354 380.067 68.121 C 380.25 68.891 380.168 69.669 379.878 70.338 C 379.84 70.425 379.739 70.466 379.652 70.426 C 379.611 70.409 379.579 70.376 379.562 70.337 L 379.56 70.331 C 379.289 69.682 379.036 69.123 378.717 68.666 C 378.405 68.207 378.048 67.855 377.648 67.588 C 377.245 67.319 376.801 67.151 376.306 66.991 C 375.801 66.834 375.258 66.727 374.51 66.631 C 374.409 66.618 374.339 66.525 374.351 66.425 C 374.354 66.395 374.366 66.367 374.383 66.344 L 374.387 66.339 Z" fill="#414042" stroke="none"/><path d="M 371.764 94.702 C 370.982 94.765 370.402 94.864 369.871 95.036 C 369.349 95.211 368.888 95.416 368.474 95.731 C 368.064 96.046 367.71 96.464 367.412 96.987 C 367.115 97.513 366.881 98.134 366.649 98.839 C 366.62 98.93 366.524 98.979 366.433 98.951 C 366.39 98.937 366.352 98.902 366.331 98.862 C 366.002 98.162 365.89 97.352 366.029 96.535 C 366.167 95.721 366.588 94.899 367.253 94.299 C 367.913 93.697 368.806 93.323 369.686 93.348 C 370.558 93.364 371.419 93.732 371.899 94.414 C 371.957 94.497 371.939 94.611 371.856 94.669 C 371.828 94.688 371.797 94.699 371.764 94.702 Z" fill="#414042" stroke="none"/><path d="M 372.452 44.088 C 373.48 44.04 374.274 43.167 374.227 42.138 C 374.177 41.106 373.304 40.313 372.275 40.361 C 371.246 40.409 370.451 41.282 370.499 42.313 C 370.546 43.342 371.421 44.136 372.452 44.088 Z" fill="#414042" stroke="none"/><path d="M 371.755 62.39 C 372.784 62.342 373.579 61.469 373.529 60.44 C 373.483 59.41 372.611 58.616 371.58 58.663 C 370.552 58.712 369.757 59.585 369.806 60.616 C 369.852 61.644 370.725 62.438 371.755 62.39 Z" fill="#414042" stroke="none"/><path d="M 356.599 70.342 C 357.627 70.294 358.422 69.421 358.374 68.393 C 358.324 67.364 357.454 66.567 356.422 66.615 C 355.397 66.663 354.599 67.537 354.645 68.565 C 354.696 69.596 355.57 70.391 356.599 70.342 Z" fill="#414042" stroke="none"/><path d="M 372.503 89.677 C 373.532 89.63 374.326 88.756 374.28 87.726 C 374.231 86.696 373.358 85.902 372.33 85.949 C 371.3 85.997 370.506 86.868 370.554 87.9 C 370.602 88.93 371.475 89.723 372.503 89.677 Z" fill="#414042" stroke="none"/><path d="M 357.003 14.764 C 357.003 18.372 355.551 22.093 352.673 25.26 C 347.094 31.41 335.763 32.23 327.928 27.05 C 323.571 24.17 321.038 20.589 318.356 16.798 C 317.206 15.172 316.018 13.492 314.656 11.837 C 310.832 7.195 302.614 1.601 295.64 5.211 C 290.336 7.957 290.501 12.412 291.329 14.385 C 292.556 17.309 295.087 18.472 297.932 17.42 C 299.542 16.825 300.221 15.361 300.317 14.189 C 300.396 13.263 300.124 12.072 299.127 11.5 C 297.82 10.749 296.934 11.167 296.54 11.81 C 296.266 12.256 295.683 12.396 295.236 12.122 C 294.79 11.85 294.649 11.265 294.923 10.819 C 295.779 9.422 297.754 8.525 300.071 9.856 C 301.551 10.706 302.371 12.424 302.208 14.349 C 302.022 16.583 300.634 18.442 298.591 19.198 C 294.811 20.595 291.191 18.955 289.581 15.12 C 288.519 12.588 288.235 6.908 294.768 3.527 C 301.902 -0.165 310.909 4.306 316.12 10.632 C 317.526 12.339 318.734 14.049 319.904 15.703 C 322.481 19.345 324.914 22.784 328.975 25.468 C 336.073 30.162 346.283 29.483 351.269 23.986 C 356.036 18.737 356.376 11.798 352.096 7.113 C 350.416 5.273 348.119 4.197 345.628 4.084 C 343.14 3.971 340.755 4.835 338.915 6.515 C 337.49 7.816 336.67 9.601 336.602 11.541 C 336.537 13.417 337.191 15.166 338.439 16.471 C 340.617 18.746 343.638 18.391 345.376 16.9 C 346.697 15.768 347.266 13.437 345.968 11.904 C 345.363 11.19 344.405 10.802 343.528 10.917 C 343.087 10.975 342.492 11.187 342.171 11.865 C 341.946 12.338 341.38 12.54 340.907 12.314 C 340.434 12.09 340.234 11.523 340.456 11.051 C 340.987 9.936 342.016 9.202 343.281 9.037 C 344.805 8.838 346.389 9.467 347.415 10.678 C 349.46 13.095 348.65 16.59 346.61 18.339 C 344.179 20.425 339.946 20.787 337.068 17.783 C 335.463 16.104 334.628 13.859 334.709 11.477 C 334.791 9.023 335.832 6.764 337.638 5.115 C 339.85 3.092 342.72 2.053 345.714 2.19 C 348.709 2.325 351.474 3.621 353.496 5.834 C 355.841 8.401 357.003 11.538 357.003 14.764 Z" fill="#414042" stroke="none"/><path d="M 327.907 10.494 C 327.907 11.006 327.83 11.539 327.674 12.084 C 327.35 13.203 326.558 14.065 325.495 14.455 C 324.548 14.801 323.514 14.694 322.725 14.17 C 322.289 13.88 322.17 13.291 322.461 12.856 C 322.753 12.42 323.342 12.302 323.777 12.592 C 324.064 12.783 324.461 12.813 324.844 12.673 C 325.331 12.495 325.698 12.089 325.85 11.558 C 326.219 10.287 325.959 9.238 325.082 8.436 C 324.314 7.733 323.28 7.425 322.17 7.567 C 321.004 7.717 319.947 8.367 319.34 9.304 C 317.683 11.861 318.937 14.358 318.95 14.383 C 319.187 14.85 319.005 15.421 318.539 15.661 C 318.074 15.9 317.502 15.718 317.263 15.252 C 317.189 15.111 315.501 11.745 317.746 8.273 C 318.667 6.853 320.191 5.911 321.93 5.686 C 323.577 5.475 325.192 5.967 326.363 7.036 C 327.382 7.969 327.907 9.163 327.907 10.494 Z" fill="#414042" stroke="none"/><path d="M 330.109 26.704 C 330.109 26.878 330.059 27.055 329.958 27.215 C 329.674 27.655 329.088 27.782 328.649 27.499 C 325.063 25.197 321.459 23.693 319.28 23.054 C 316.546 22.252 313.453 21.749 311.241 24.119 C 310.448 24.967 310.068 26.169 310.198 27.41 C 310.318 28.57 310.875 29.58 311.726 30.178 C 312.531 30.745 313.845 30.998 314.971 30.29 C 315.679 29.845 315.898 29.237 315.963 28.913 C 316.064 28.424 315.954 28.032 315.818 27.831 C 315.519 27.4 315.629 26.809 316.06 26.512 C 316.492 26.217 317.081 26.324 317.378 26.756 C 317.851 27.442 318.012 28.369 317.819 29.297 C 317.601 30.364 316.946 31.288 315.98 31.896 C 314.366 32.911 312.218 32.845 310.635 31.729 C 309.337 30.816 308.489 29.312 308.311 27.605 C 308.127 25.812 308.688 24.072 309.854 22.825 C 313.166 19.282 317.995 20.701 319.815 21.235 C 322.119 21.91 325.92 23.491 329.672 25.905 C 329.954 26.086 330.109 26.391 330.109 26.704 Z" fill="#414042" stroke="none"/><path d="M 336.058 9.823 C 336.312 10.593 336.105 11.467 335.628 12.156 C 335.152 12.858 334.366 13.347 333.526 13.537 C 332.69 13.736 331.803 13.625 331.077 13.287 C 330.347 12.95 329.765 12.41 329.398 11.759 C 329.351 11.678 329.38 11.572 329.463 11.526 C 329.504 11.503 329.551 11.499 329.593 11.51 L 329.597 11.511 C 330.287 11.704 330.904 11.848 331.482 11.889 C 332.055 11.931 332.575 11.871 333.046 11.718 C 333.521 11.564 333.937 11.316 334.374 11.012 C 334.812 10.7 335.226 10.315 335.746 9.756 C 335.815 9.681 335.933 9.677 336.008 9.746 C 336.03 9.768 336.047 9.794 336.058 9.823 Z" fill="#414042" stroke="none"/><path d="M 330.426 27.543 C 329.562 27.578 328.717 27.081 328.175 26.357 C 327.62 25.631 327.391 24.638 327.547 23.699 C 327.695 22.754 328.248 21.908 328.949 21.393 C 329.652 20.867 330.469 20.624 331.264 20.625 C 331.357 20.626 331.434 20.702 331.433 20.795 C 331.433 20.845 331.412 20.89 331.379 20.92 L 331.373 20.923 C 330.804 21.435 330.312 21.917 329.974 22.424 C 329.633 22.93 329.454 23.439 329.412 23.948 C 329.372 24.461 329.473 24.973 329.648 25.512 C 329.832 26.058 330.109 26.596 330.569 27.258 C 330.624 27.34 330.604 27.453 330.521 27.51 C 330.494 27.53 330.459 27.541 330.426 27.543 Z" fill="#414042" stroke="none"/><path d="M 314.167 21.694 C 313.634 22.262 312.805 22.482 312.012 22.405 C 311.209 22.331 310.438 21.916 309.881 21.317 C 309.316 20.722 308.972 19.943 308.893 19.179 C 308.807 18.413 308.975 17.666 309.338 17.048 C 309.386 16.966 309.492 16.938 309.573 16.986 C 309.613 17.01 309.638 17.045 309.651 17.085 L 309.653 17.092 C 309.85 17.75 310.039 18.319 310.297 18.799 C 310.55 19.28 310.854 19.668 311.206 19.983 C 311.562 20.299 311.963 20.525 312.414 20.756 C 312.874 20.984 313.379 21.172 314.087 21.387 C 314.184 21.416 314.241 21.52 314.211 21.618 C 314.204 21.645 314.189 21.67 314.17 21.689 L 314.167 21.694 Z" fill="#414042" stroke="none"/><path d="M 317.672 9.794 C 317.577 9.046 317.471 8.504 317.313 7.999 C 317.153 7.504 316.986 7.061 316.716 6.657 C 316.45 6.257 316.098 5.9 315.639 5.585 C 315.182 5.267 314.622 5.014 313.974 4.743 L 313.967 4.741 C 313.881 4.704 313.841 4.604 313.876 4.517 C 313.895 4.474 313.926 4.442 313.965 4.425 C 314.636 4.135 315.413 4.052 316.183 4.236 C 316.952 4.414 317.703 4.869 318.224 5.532 C 318.752 6.186 319.051 7.033 319.003 7.854 C 318.962 8.665 318.614 9.467 317.964 9.918 L 317.96 9.923 C 317.876 9.98 317.761 9.96 317.703 9.877 C 317.685 9.852 317.675 9.822 317.672 9.794 Z" fill="#414042" stroke="none"/><path d="M 289.89 12.403 C 290.573 12.886 290.939 13.746 290.956 14.618 C 290.98 15.499 290.606 16.392 290.006 17.049 C 289.406 17.717 288.583 18.138 287.767 18.275 C 286.951 18.414 286.141 18.301 285.442 17.972 C 285.358 17.931 285.32 17.831 285.361 17.746 C 285.38 17.702 285.421 17.669 285.465 17.655 C 286.169 17.422 286.792 17.19 287.317 16.892 C 287.841 16.596 288.257 16.24 288.573 15.83 C 288.888 15.415 289.094 14.954 289.267 14.433 C 289.441 13.903 289.54 13.321 289.602 12.538 C 289.609 12.438 289.697 12.362 289.798 12.371 C 289.832 12.373 289.863 12.385 289.89 12.403 Z" fill="#414042" stroke="none"/><path d="M 340.217 11.853 C 340.264 10.825 341.135 10.03 342.164 10.077 C 343.196 10.126 343.991 11 343.944 12.028 C 343.894 13.057 343.021 13.853 341.992 13.805 C 340.962 13.757 340.168 12.884 340.217 11.853 Z" fill="#414042" stroke="none"/><path d="M 321.914 12.549 C 321.964 11.52 322.835 10.725 323.863 10.773 C 324.893 10.821 325.688 11.694 325.64 12.725 C 325.593 13.753 324.72 14.548 323.687 14.499 C 322.66 14.451 321.866 13.579 321.914 12.549 Z" fill="#414042" stroke="none"/><path d="M 313.962 27.706 C 314.009 26.676 314.883 25.881 315.91 25.929 C 316.941 25.979 317.738 26.852 317.689 27.882 C 317.641 28.909 316.767 29.704 315.739 29.656 C 314.706 29.607 313.914 28.734 313.962 27.706 Z" fill="#414042" stroke="none"/><path d="M 294.627 11.8 C 294.673 10.773 295.548 9.977 296.578 10.025 C 297.609 10.072 298.401 10.946 298.354 11.975 C 298.306 13.005 297.434 13.8 296.405 13.751 C 295.374 13.702 294.579 12.829 294.627 11.8 Z" fill="#414042" stroke="none"/><path d="M 345.919 57.891 C 346.543 58.353 347.08 58.655 347.679 58.812 C 348.265 58.964 348.88 58.989 349.484 58.809 C 350.08 58.624 350.652 58.248 351.103 57.678 C 351.561 57.116 351.896 56.375 352.121 55.543 C 352.146 55.446 352.246 55.388 352.343 55.412 C 352.409 55.429 352.457 55.482 352.474 55.542 C 352.704 56.415 352.704 57.407 352.34 58.352 C 351.98 59.287 351.242 60.156 350.256 60.632 C 349.286 61.126 348.085 61.23 347.039 60.867 C 345.998 60.517 345.118 59.729 344.724 58.822 C 344.553 58.426 344.734 57.964 345.132 57.793 C 345.396 57.677 345.69 57.721 345.907 57.883 L 345.919 57.891 Z" fill="#414042" stroke="none"/><path d="M 346.367 60.095 C 346.369 63.673 344.706 66.586 342.621 68.141 C 340.305 69.867 337.58 69.884 335.509 68.187 L 336.711 66.721 C 338.095 67.855 339.88 67.817 341.487 66.62 C 343.988 64.757 345.505 60.448 343.566 55.822 C 340.775 49.164 340.487 43.939 342.714 40.291 L 344.332 41.28 C 342.441 44.378 342.771 49.024 345.314 55.089 C 346.051 56.846 346.367 58.533 346.367 60.095 Z" fill="#414042" stroke="none"/><path d="M 335.358 64.795 C 336.255 63.898 337.709 63.898 338.606 64.795 C 339.503 65.693 339.503 67.145 338.606 68.042 C 337.709 68.939 336.255 68.939 335.357 68.043 C 334.461 67.147 334.461 65.692 335.358 64.795 Z" fill="#414042" stroke="none"/><path d="M 320.443 63.863 C 322.61 62.64 324.679 61.852 326.399 61.196 C 327.098 60.93 327.758 60.678 328.323 60.435 C 333.309 58.279 336.556 55.138 338.245 50.835 C 338.602 49.926 338.872 48.863 339.157 47.739 C 339.459 46.542 339.781 45.267 340.252 44.055 C 339.04 44.525 337.765 44.847 336.571 45.151 C 335.447 45.435 334.384 45.705 333.475 46.062 C 329.169 47.75 326.028 50.995 323.872 55.986 C 323.629 56.549 323.377 57.209 323.111 57.907 C 322.455 59.629 321.666 61.697 320.443 63.863 Z M 344.02 41.225 C 344.02 41.228 344.02 41.232 344.02 41.235 C 344.02 41.478 343.929 41.72 343.743 41.906 C 342.199 43.45 341.585 45.866 340.995 48.203 C 340.695 49.387 340.412 50.506 340.011 51.527 C 338.128 56.325 334.549 59.808 329.074 62.176 C 328.473 62.436 327.794 62.694 327.076 62.968 C 324.079 64.111 319.973 65.676 316.302 69.346 C 316.117 69.532 315.873 69.625 315.63 69.625 C 315.388 69.625 315.146 69.532 314.961 69.346 C 314.589 68.976 314.589 68.376 314.961 68.005 C 318.631 64.333 320.196 60.229 321.339 57.231 C 321.612 56.513 321.871 55.836 322.132 55.234 C 324.499 49.756 327.982 46.178 332.782 44.297 C 333.802 43.896 334.922 43.612 336.105 43.312 C 338.406 42.729 340.786 42.126 342.331 40.634 C 342.506 40.417 342.772 40.278 343.071 40.278 C 343.595 40.278 344.02 40.702 344.02 41.225 Z" fill="#414042" stroke="none"/><path d="M 335.751 45.856 C 339.829 41.779 343.74 39.077 344.484 39.823 C 345.23 40.568 342.53 44.477 338.451 48.554 C 334.813 52.192 330.1 54.972 329.717 54.591 C 329.334 54.206 332.115 49.493 335.751 45.856 Z" fill="#414042" stroke="none"/><path d="M 370.95 16.351 C 376.36 10.941 374.937 9.364 374.937 9.367 C 374.942 9.367 373.361 7.945 367.954 13.357 C 363.598 17.715 360.632 23.679 360.634 23.671 C 360.627 23.675 366.593 20.707 370.95 16.351 Z" fill="#414042" stroke="none"/><path d="M 372.366 19.769 C 371.475 20.66 371.475 22.106 372.363 23 C 373.255 23.89 374.706 23.888 375.598 23 C 376.486 22.106 376.49 20.66 375.598 19.769 C 374.706 18.876 373.255 18.878 372.366 19.769 Z" fill="#414042" stroke="none"/><path d="M 364.537 11.939 C 363.647 12.831 362.199 12.833 361.306 11.941 C 360.414 11.049 360.417 9.603 361.307 8.711 C 362.199 7.821 363.647 7.82 364.54 8.711 C 365.433 9.603 365.43 11.049 364.537 11.939 Z" fill="#414042" stroke="none"/><path d="M 350.36 502.99 C 351.597 502.99 352.601 503.994 352.601 505.231 C 352.601 506.467 351.597 507.47 350.36 507.47 C 349.125 507.47 348.123 506.466 348.123 505.231 C 348.123 503.996 349.125 502.991 350.36 502.99 Z" fill="#414042" stroke="none"/><path d="M 326.415 500.787 C 325.953 501.409 325.651 501.95 325.493 502.549 C 325.342 503.134 325.318 503.748 325.499 504.353 C 325.682 504.949 326.06 505.521 326.629 505.971 C 327.193 506.429 327.933 506.765 328.766 506.991 C 328.863 507.015 328.921 507.114 328.894 507.212 C 328.878 507.277 328.827 507.324 328.766 507.341 C 327.893 507.573 326.902 507.573 325.958 507.208 C 325.021 506.85 324.152 506.111 323.674 505.125 C 323.181 504.155 323.076 502.954 323.438 501.909 C 323.79 500.867 324.577 499.985 325.484 499.593 C 325.88 499.42 326.342 499.602 326.512 499.997 C 326.629 500.264 326.586 500.559 326.425 500.775 L 326.415 500.787 Z" fill="#414042" stroke="none"/><path d="M 344.016 497.582 L 343.03 499.202 C 339.928 497.31 335.282 497.64 329.219 500.183 C 323.438 502.607 318.402 500.486 316.167 497.49 C 314.441 495.174 314.424 492.449 316.12 490.378 L 317.585 491.58 C 316.453 492.964 316.49 494.75 317.687 496.358 C 319.553 498.857 323.859 500.373 328.483 498.434 C 335.142 495.643 340.368 495.357 344.016 497.582 Z" fill="#414042" stroke="none"/><path d="M 319.512 490.227 C 320.409 491.124 320.409 492.578 319.512 493.474 C 318.614 494.371 317.162 494.371 316.264 493.474 C 315.369 492.578 315.369 491.124 316.264 490.226 C 317.16 489.329 318.614 489.329 319.512 490.227 Z" fill="#414042" stroke="none"/><path d="M 382.126 500.065 C 382.126 500.24 382.122 500.413 382.114 500.587 C 381.978 503.583 380.684 506.346 378.471 508.368 C 373.034 513.334 365.045 512.997 359.043 507.548 C 352.895 501.968 352.073 490.636 357.253 482.801 C 360.134 478.445 363.715 475.911 367.506 473.23 C 369.132 472.078 370.814 470.89 372.466 469.527 C 377.109 465.704 382.703 457.487 379.093 450.511 C 376.349 445.208 371.892 445.374 369.919 446.201 C 366.995 447.43 365.833 449.96 366.885 452.803 C 367.479 454.414 368.944 455.093 370.114 455.192 C 371.04 455.268 372.232 454.996 372.805 453.998 C 373.555 452.691 373.136 451.807 372.494 451.413 C 372.047 451.138 371.908 450.556 372.181 450.109 C 372.454 449.662 373.039 449.521 373.485 449.796 C 374.882 450.65 375.78 452.626 374.451 454.943 C 373.6 456.423 371.876 457.242 369.956 457.081 C 367.719 456.893 365.862 455.506 365.106 453.461 C 363.71 449.685 365.348 446.064 369.186 444.454 C 371.716 443.391 377.396 443.106 380.777 449.64 C 384.471 456.774 379.998 465.783 373.672 470.991 C 371.966 472.397 370.255 473.606 368.602 474.778 C 364.961 477.353 361.521 479.786 358.834 483.847 C 354.144 490.946 354.821 501.156 360.318 506.143 C 365.566 510.908 372.506 511.248 377.191 506.968 C 379.032 505.288 380.107 502.99 380.221 500.501 C 380.334 498.013 379.471 495.628 377.789 493.791 C 376.489 492.364 374.703 491.541 372.763 491.475 C 370.889 491.411 369.137 492.064 367.832 493.311 C 365.639 495.409 365.891 498.485 367.404 500.247 C 368.538 501.569 370.867 502.137 372.4 500.84 C 373.115 500.236 373.504 499.277 373.389 498.4 C 373.33 497.958 373.119 497.365 372.441 497.042 C 371.967 496.818 371.764 496.251 371.989 495.779 C 372.213 495.306 372.78 495.105 373.253 495.329 C 374.368 495.858 375.102 496.889 375.267 498.155 C 375.465 499.678 374.837 501.262 373.625 502.287 C 371.208 504.332 367.713 503.521 365.964 501.48 C 363.878 499.051 363.517 494.817 366.522 491.94 C 368.199 490.337 370.439 489.499 372.829 489.58 C 375.283 489.663 377.54 490.705 379.19 492.511 C 381.093 494.594 382.126 497.26 382.126 500.065 Z" fill="#414042" stroke="none"/><path d="M 378.664 477.551 C 378.664 478.933 378.175 480.242 377.268 481.235 C 375.976 482.647 374.183 483.112 372.222 482.544 C 371.104 482.223 370.239 481.43 369.851 480.368 C 369.502 479.422 369.609 478.386 370.134 477.597 C 370.425 477.162 371.014 477.044 371.449 477.333 C 371.885 477.624 372.002 478.213 371.713 478.648 C 371.521 478.936 371.49 479.335 371.631 479.716 C 371.808 480.202 372.216 480.57 372.746 480.723 C 374.016 481.091 375.067 480.831 375.869 479.955 C 376.57 479.187 376.881 478.153 376.737 477.046 C 376.588 475.878 375.937 474.819 375 474.211 C 372.442 472.556 369.946 473.807 369.919 473.82 C 369.454 474.06 368.883 473.876 368.644 473.41 C 368.404 472.947 368.586 472.374 369.051 472.134 C 369.194 472.06 372.562 470.374 376.03 472.62 C 377.452 473.539 378.394 475.065 378.618 476.802 C 378.65 477.054 378.664 477.305 378.664 477.551 Z" fill="#414042" stroke="none"/><path d="M 363.804 470.386 C 363.804 472.185 363.331 473.796 363.07 474.686 C 362.393 476.993 360.811 480.795 358.4 484.546 C 358.114 484.985 357.53 485.112 357.089 484.83 C 356.647 484.548 356.52 483.96 356.804 483.519 C 359.106 479.94 360.611 476.333 361.251 474.153 C 362.051 471.417 362.553 468.324 360.183 466.113 C 359.336 465.321 358.137 464.942 356.892 465.07 C 355.731 465.19 354.724 465.748 354.126 466.599 C 353.56 467.403 353.306 468.716 354.013 469.842 C 354.46 470.552 355.066 470.768 355.39 470.836 C 355.883 470.937 356.273 470.826 356.474 470.689 C 356.904 470.392 357.495 470.501 357.792 470.932 C 358.089 471.365 357.979 471.955 357.546 472.251 C 356.86 472.724 355.933 472.884 355.005 472.693 C 353.938 472.472 353.016 471.817 352.409 470.851 C 351.378 469.214 351.443 467.116 352.575 465.508 C 353.487 464.208 354.991 463.361 356.696 463.185 C 358.487 462.999 360.23 463.56 361.477 464.727 C 363.287 466.416 363.804 468.506 363.804 470.386 Z" fill="#414042" stroke="none"/><path d="M 374.48 490.928 C 373.709 491.185 372.837 490.978 372.146 490.499 C 371.445 490.022 370.956 489.237 370.767 488.399 C 370.568 487.56 370.68 486.675 371.019 485.951 C 371.356 485.221 371.893 484.637 372.545 484.27 C 372.628 484.224 372.732 484.253 372.779 484.337 C 372.801 484.378 372.808 484.423 372.792 484.466 L 372.792 484.469 C 372.6 485.159 372.457 485.778 372.416 486.354 C 372.372 486.928 372.434 487.447 372.586 487.919 C 372.74 488.395 372.988 488.811 373.291 489.246 C 373.603 489.683 373.988 490.098 374.547 490.619 C 374.622 490.688 374.625 490.805 374.557 490.879 C 374.536 490.903 374.509 490.919 374.48 490.928 Z" fill="#414042" stroke="none"/><path d="M 356.761 485.299 C 356.725 484.436 357.223 483.591 357.946 483.048 C 358.672 482.492 359.665 482.264 360.604 482.419 C 361.55 482.567 362.395 483.12 362.911 483.821 C 363.437 484.523 363.682 485.34 363.68 486.136 C 363.68 486.23 363.603 486.305 363.509 486.305 C 363.459 486.305 363.414 486.283 363.385 486.25 L 363.381 486.247 C 362.87 485.675 362.388 485.186 361.879 484.846 C 361.374 484.507 360.866 484.327 360.355 484.285 C 359.841 484.244 359.33 484.346 358.792 484.52 C 358.245 484.704 357.708 484.981 357.046 485.441 C 356.963 485.497 356.85 485.476 356.793 485.394 C 356.773 485.366 356.764 485.333 356.761 485.299 Z" fill="#414042" stroke="none"/><path d="M 362.61 469.037 C 362.041 468.506 361.822 467.677 361.9 466.884 C 361.974 466.082 362.39 465.31 362.988 464.753 C 363.582 464.188 364.36 463.845 365.125 463.765 C 365.891 463.68 366.638 463.849 367.256 464.21 C 367.337 464.259 367.366 464.364 367.316 464.447 C 367.294 464.485 367.259 464.512 367.219 464.524 L 367.211 464.525 C 366.553 464.723 365.985 464.911 365.505 465.17 C 365.024 465.425 364.635 465.728 364.321 466.079 C 364.005 466.434 363.778 466.836 363.55 467.286 C 363.321 467.747 363.132 468.25 362.919 468.96 C 362.89 469.058 362.786 469.114 362.687 469.084 C 362.659 469.074 362.634 469.06 362.617 469.042 L 362.61 469.037 Z" fill="#414042" stroke="none"/><path d="M 374.51 472.545 C 375.258 472.45 375.801 472.343 376.306 472.185 C 376.801 472.025 377.245 471.858 377.648 471.589 C 378.048 471.322 378.405 470.97 378.717 470.511 C 379.036 470.054 379.289 469.494 379.56 468.846 L 379.562 468.842 C 379.6 468.752 379.7 468.713 379.787 468.748 C 379.829 468.766 379.861 468.8 379.878 468.837 C 380.168 469.508 380.25 470.286 380.067 471.056 C 379.891 471.823 379.435 472.573 378.773 473.096 C 378.119 473.625 377.271 473.925 376.451 473.876 C 375.64 473.835 374.837 473.488 374.387 472.837 L 374.383 472.833 C 374.325 472.749 374.345 472.634 374.428 472.576 C 374.454 472.558 374.482 472.549 374.51 472.545 Z" fill="#414042" stroke="none"/><path d="M 371.899 444.762 C 371.419 445.445 370.558 445.813 369.686 445.828 C 368.806 445.853 367.913 445.479 367.253 444.878 C 366.586 444.278 366.167 443.455 366.029 442.641 C 365.89 441.824 366.002 441.014 366.331 440.316 C 366.373 440.23 366.473 440.194 366.559 440.234 C 366.602 440.255 366.634 440.294 366.649 440.337 C 366.881 441.042 367.115 441.664 367.412 442.189 C 367.71 442.713 368.064 443.131 368.474 443.447 C 368.888 443.761 369.349 443.966 369.871 444.14 C 370.402 444.312 370.982 444.413 371.764 444.474 C 371.866 444.482 371.94 444.571 371.933 444.67 C 371.931 444.705 371.918 444.736 371.899 444.762 Z" fill="#414042" stroke="none"/><path d="M 372.452 495.089 C 373.48 495.136 374.274 496.007 374.227 497.039 C 374.177 498.069 373.304 498.863 372.275 498.817 C 371.246 498.767 370.451 497.893 370.499 496.863 C 370.546 495.834 371.421 495.039 372.452 495.089 Z" fill="#414042" stroke="none"/><path d="M 371.755 476.785 C 372.784 476.835 373.579 477.706 373.529 478.735 C 373.483 479.764 372.611 480.56 371.58 480.512 C 370.552 480.466 369.757 479.592 369.806 478.56 C 369.852 477.531 370.725 476.738 371.755 476.785 Z" fill="#414042" stroke="none"/><path d="M 356.599 468.833 C 357.627 468.882 358.422 469.754 358.374 470.782 C 358.324 471.814 357.454 472.609 356.422 472.562 C 355.397 472.513 354.599 471.638 354.645 470.61 C 354.696 469.579 355.57 468.787 356.599 468.833 Z" fill="#414042" stroke="none"/><path d="M 372.503 449.499 C 373.532 449.547 374.326 450.421 374.28 451.451 C 374.231 452.482 373.358 453.274 372.33 453.228 C 371.3 453.178 370.506 452.306 370.554 451.277 C 370.602 450.246 371.475 449.452 372.503 449.499 Z" fill="#414042" stroke="none"/><path d="M 357.003 524.413 C 357.003 527.639 355.841 530.776 353.496 533.342 C 351.474 535.557 348.709 536.851 345.714 536.987 C 342.72 537.123 339.85 536.085 337.636 534.061 C 335.832 532.414 334.791 530.154 334.709 527.699 C 334.629 525.306 335.463 523.072 337.068 521.395 C 339.946 518.389 344.179 518.751 346.61 520.838 C 348.65 522.585 349.46 526.08 347.415 528.498 C 346.389 529.71 344.805 530.338 343.284 530.139 C 342.017 529.975 340.987 529.241 340.456 528.125 C 340.234 527.651 340.434 527.086 340.907 526.862 C 341.38 526.638 341.946 526.839 342.171 527.312 C 342.492 527.99 343.087 528.202 343.528 528.258 C 344.405 528.374 345.363 527.987 345.968 527.273 C 347.264 525.74 346.697 523.409 345.376 522.277 C 343.638 520.786 340.617 520.43 338.437 522.706 C 337.191 524.01 336.537 525.757 336.602 527.635 C 336.67 529.575 337.49 531.36 338.915 532.66 C 340.755 534.341 343.14 535.205 345.628 535.093 C 348.119 534.979 350.416 533.904 352.096 532.064 C 356.376 527.378 356.038 520.441 351.269 515.19 C 346.283 509.693 336.073 509.015 328.975 513.708 C 324.916 516.393 322.481 519.832 319.908 523.472 C 318.735 525.126 317.526 526.837 316.118 528.544 C 310.91 534.869 301.903 539.341 294.768 535.651 C 288.233 532.267 288.517 526.588 289.581 524.057 C 291.191 520.22 294.811 518.581 298.591 519.977 C 300.634 520.734 302.019 522.591 302.208 524.828 C 302.371 526.746 301.551 528.472 300.071 529.322 C 297.754 530.652 295.779 529.753 294.923 528.359 C 294.65 527.911 294.79 527.328 295.236 527.054 C 295.683 526.78 296.266 526.921 296.54 527.368 C 296.934 528.009 297.82 528.427 299.125 527.677 C 300.124 527.103 300.396 525.911 300.317 524.987 C 300.221 523.815 299.542 522.351 297.932 521.756 C 295.087 520.704 292.556 521.867 291.329 524.792 C 290.501 526.764 290.335 531.219 295.64 533.965 C 302.614 537.574 310.832 531.98 314.656 527.338 C 316.019 525.684 317.208 524.003 318.358 522.376 C 321.04 518.586 323.574 515.007 327.928 512.127 C 335.763 506.946 347.096 507.766 352.677 513.917 C 355.551 517.084 357.003 520.806 357.003 524.413 Z" fill="#414042" stroke="none"/><path d="M 327.907 528.682 C 327.907 530.012 327.382 531.208 326.363 532.141 C 325.192 533.21 323.577 533.701 321.93 533.488 C 320.191 533.267 318.667 532.323 317.746 530.903 C 315.501 527.435 317.189 524.066 317.263 523.924 C 317.502 523.459 318.074 523.276 318.539 523.515 C 319.005 523.754 319.189 524.326 318.95 524.792 C 318.899 524.892 317.703 527.344 319.339 529.873 C 319.947 530.81 321.004 531.459 322.17 531.609 C 323.28 531.753 324.314 531.444 325.084 530.74 C 325.959 529.939 326.218 528.887 325.85 527.619 C 325.698 527.088 325.331 526.681 324.844 526.503 C 324.461 526.363 324.064 526.393 323.777 526.585 C 323.342 526.875 322.753 526.757 322.462 526.322 C 322.17 525.886 322.289 525.297 322.725 525.007 C 323.512 524.482 324.548 524.376 325.493 524.722 C 326.556 525.11 327.35 525.975 327.674 527.091 C 327.83 527.638 327.907 528.171 327.907 528.682 Z" fill="#414042" stroke="none"/><path d="M 330.109 512.473 C 330.109 512.783 329.954 513.09 329.672 513.272 C 325.923 515.682 322.122 517.264 319.813 517.942 C 317.993 518.476 313.162 519.892 309.854 516.351 C 308.688 515.101 308.127 513.358 308.311 511.567 C 308.489 509.863 309.337 508.36 310.635 507.447 C 312.218 506.332 314.366 506.266 315.98 507.281 C 316.946 507.889 317.601 508.811 317.819 509.88 C 318.012 510.807 317.851 511.733 317.378 512.42 C 317.081 512.852 316.492 512.96 316.06 512.664 C 315.629 512.367 315.519 511.777 315.818 511.346 C 315.954 511.145 316.064 510.756 315.963 510.262 C 315.898 509.941 315.679 509.333 314.971 508.885 C 313.845 508.177 312.531 508.431 311.727 508.998 C 310.875 509.596 310.318 510.604 310.198 511.764 C 310.068 513.008 310.448 514.209 311.241 515.056 C 313.452 517.424 316.545 516.924 319.28 516.122 C 321.461 515.482 325.068 513.979 328.649 511.676 C 329.088 511.393 329.674 511.52 329.958 511.962 C 330.059 512.119 330.109 512.297 330.109 512.473 Z" fill="#414042" stroke="none"/><path d="M 335.746 529.42 C 335.226 528.861 334.812 528.476 334.374 528.164 C 333.937 527.86 333.521 527.612 333.046 527.459 C 332.575 527.306 332.055 527.246 331.482 527.288 C 330.904 527.329 330.287 527.471 329.597 527.666 L 329.595 527.667 C 329.502 527.691 329.408 527.638 329.383 527.547 C 329.37 527.501 329.375 527.455 329.398 527.418 C 329.765 526.766 330.347 526.227 331.077 525.89 C 331.803 525.551 332.69 525.442 333.526 525.639 C 334.365 525.828 335.152 526.318 335.628 527.019 C 336.105 527.709 336.312 528.583 336.058 529.353 C 336.025 529.45 335.92 529.502 335.825 529.47 C 335.795 529.459 335.767 529.443 335.746 529.42 Z" fill="#414042" stroke="none"/><path d="M 330.569 511.917 C 330.109 512.579 329.832 513.119 329.648 513.664 C 329.473 514.204 329.372 514.714 329.412 515.227 C 329.454 515.737 329.633 516.246 329.974 516.752 C 330.312 517.261 330.804 517.742 331.373 518.254 L 331.376 518.256 C 331.446 518.318 331.454 518.426 331.389 518.495 C 331.357 518.532 331.31 518.55 331.264 518.551 C 330.469 518.553 329.652 518.309 328.949 517.784 C 328.248 517.268 327.695 516.422 327.547 515.477 C 327.391 514.537 327.62 513.545 328.175 512.82 C 328.717 512.095 329.562 511.596 330.426 511.632 C 330.526 511.636 330.604 511.721 330.6 511.821 C 330.598 511.857 330.587 511.89 330.569 511.917 Z" fill="#414042" stroke="none"/><path d="M 314.087 517.79 C 313.379 518.005 312.874 518.192 312.414 518.422 C 311.963 518.652 311.562 518.877 311.206 519.193 C 310.854 519.508 310.552 519.895 310.297 520.376 C 310.039 520.858 309.85 521.425 309.653 522.086 L 309.653 522.09 C 309.624 522.181 309.529 522.232 309.437 522.206 C 309.394 522.193 309.359 522.163 309.338 522.128 C 308.975 521.51 308.807 520.762 308.893 519.997 C 308.972 519.234 309.316 518.454 309.881 517.859 C 310.438 517.261 311.209 516.845 312.012 516.772 C 312.807 516.694 313.634 516.915 314.167 517.481 L 314.17 517.487 C 314.239 517.562 314.235 517.678 314.161 517.749 C 314.141 517.769 314.114 517.781 314.087 517.79 Z" fill="#414042" stroke="none"/><path d="M 317.964 529.258 C 318.614 529.71 318.962 530.511 319.003 531.324 C 319.051 532.145 318.752 532.991 318.224 533.644 C 317.703 534.306 316.952 534.765 316.183 534.94 C 315.413 535.124 314.636 535.041 313.965 534.751 C 313.88 534.713 313.839 534.613 313.878 534.524 C 313.895 534.484 313.929 534.452 313.967 534.435 L 313.974 534.433 C 314.622 534.161 315.182 533.909 315.639 533.59 C 316.098 533.278 316.45 532.921 316.716 532.521 C 316.986 532.118 317.153 531.672 317.313 531.177 C 317.471 530.673 317.577 530.13 317.672 529.382 C 317.685 529.282 317.777 529.211 317.878 529.223 C 317.908 529.227 317.933 529.238 317.957 529.254 L 317.964 529.258 Z" fill="#414042" stroke="none"/><path d="M 289.602 526.637 C 289.54 525.854 289.441 525.273 289.267 524.742 C 289.094 524.221 288.888 523.76 288.573 523.347 C 288.257 522.937 287.841 522.582 287.317 522.285 C 286.792 521.987 286.169 521.754 285.465 521.522 C 285.374 521.493 285.324 521.398 285.352 521.309 C 285.367 521.262 285.402 521.225 285.442 521.205 C 286.141 520.876 286.951 520.762 287.767 520.901 C 288.583 521.038 289.406 521.458 290.004 522.126 C 290.606 522.783 290.98 523.676 290.956 524.558 C 290.939 525.429 290.573 526.29 289.89 526.773 C 289.808 526.83 289.693 526.81 289.635 526.727 C 289.616 526.7 289.606 526.668 289.602 526.637 Z" fill="#414042" stroke="none"/><path d="M 340.217 527.322 C 340.264 528.352 341.135 529.147 342.164 529.098 C 343.196 529.05 343.991 528.177 343.944 527.148 C 343.894 526.118 343.021 525.323 341.992 525.371 C 340.962 525.42 340.168 526.292 340.217 527.322 Z" fill="#414042" stroke="none"/><path d="M 321.914 526.629 C 321.964 527.654 322.835 528.452 323.863 528.403 C 324.893 528.354 325.688 527.482 325.64 526.453 C 325.593 525.425 324.72 524.629 323.687 524.676 C 322.66 524.725 321.866 525.598 321.914 526.629 Z" fill="#414042" stroke="none"/><path d="M 313.962 511.469 C 314.009 512.498 314.883 513.294 315.91 513.247 C 316.941 513.198 317.738 512.325 317.689 511.297 C 317.641 510.268 316.767 509.473 315.739 509.52 C 314.706 509.568 313.914 510.441 313.962 511.469 Z" fill="#414042" stroke="none"/><path d="M 294.627 527.377 C 294.673 528.405 295.548 529.201 296.578 529.153 C 297.609 529.104 298.401 528.229 298.354 527.201 C 298.306 526.172 297.434 525.376 296.405 525.425 C 295.374 525.473 294.579 526.347 294.627 527.377 Z" fill="#414042" stroke="none"/><path d="M 344.715 480.345 C 345.113 479.441 345.996 478.654 347.039 478.306 C 348.085 477.945 349.286 478.05 350.256 478.545 C 351.242 479.02 351.98 479.89 352.336 480.827 C 352.702 481.768 352.702 482.762 352.474 483.634 C 352.448 483.73 352.349 483.788 352.251 483.764 C 352.187 483.747 352.139 483.697 352.121 483.636 L 352.121 483.634 C 351.893 482.801 351.559 482.061 351.101 481.496 C 350.651 480.93 350.08 480.553 349.484 480.368 C 348.88 480.186 348.266 480.211 347.679 480.361 C 347.079 480.515 346.537 480.816 345.909 481.278 L 345.893 481.29 C 345.546 481.547 345.056 481.471 344.801 481.123 C 344.63 480.891 344.608 480.594 344.715 480.345 Z" fill="#414042" stroke="none"/><path d="M 346.369 479.081 C 346.369 480.641 346.052 482.33 345.314 484.087 C 342.771 490.151 342.441 494.797 344.332 497.898 L 342.714 498.885 C 340.487 495.236 340.775 490.01 343.566 483.352 C 345.505 478.726 343.988 474.419 341.487 472.556 C 340.715 471.982 338.705 470.82 336.711 472.456 L 335.509 470.99 C 337.58 469.293 340.305 469.311 342.62 471.036 C 344.706 472.591 346.367 475.503 346.369 479.081 Z" fill="#414042" stroke="none"/><path d="M 335.358 474.381 C 336.255 475.278 337.709 475.278 338.606 474.381 C 339.503 473.484 339.503 472.03 338.606 471.134 C 337.709 470.238 336.255 470.235 335.357 471.134 C 334.461 472.03 334.461 473.485 335.358 474.381 Z" fill="#414042" stroke="none"/><path d="M 320.443 475.313 C 321.666 477.479 322.455 479.548 323.111 481.269 C 323.377 481.967 323.629 482.627 323.872 483.189 C 326.028 488.18 329.169 491.426 333.475 493.114 C 334.385 493.471 335.449 493.741 336.574 494.027 C 337.769 494.329 339.04 494.652 340.252 495.121 C 339.781 493.908 339.459 492.635 339.157 491.438 C 338.872 490.314 338.602 489.253 338.245 488.341 C 336.556 484.038 333.309 480.897 328.322 478.741 C 327.758 478.499 327.096 478.246 326.397 477.979 C 324.677 477.322 322.609 476.535 320.443 475.313 Z M 344.02 497.94 C 344.02 498.183 343.929 498.425 343.743 498.611 C 343.558 498.796 343.315 498.888 343.071 498.889 C 342.831 498.889 342.589 498.796 342.403 498.611 C 340.858 497.069 338.444 496.456 336.107 495.865 C 334.923 495.565 333.803 495.281 332.781 494.879 C 327.982 492.997 324.499 489.42 322.132 483.943 C 321.871 483.342 321.612 482.663 321.339 481.945 C 320.196 478.947 318.631 474.843 314.961 471.172 C 314.591 470.801 314.589 470.201 314.959 469.83 C 315.146 469.645 315.388 469.553 315.63 469.553 C 315.873 469.553 316.117 469.645 316.302 469.83 C 319.973 473.499 324.074 475.064 327.072 476.207 C 327.791 476.481 328.473 476.741 329.074 477.001 C 334.549 479.368 338.128 482.851 340.011 487.649 C 340.412 488.671 340.695 489.789 340.995 490.974 C 341.587 493.31 342.199 495.727 343.743 497.27 C 343.929 497.454 344.02 497.698 344.02 497.94 Z" fill="#414042" stroke="none"/><path d="M 335.751 493.322 C 339.829 497.398 343.74 500.098 344.484 499.353 C 345.23 498.609 342.53 494.698 338.451 490.62 C 334.813 486.982 330.1 484.203 329.717 484.588 C 329.334 484.97 332.115 489.683 335.751 493.322 Z" fill="#414042" stroke="none"/><path d="M 370.95 522.825 C 376.36 528.235 374.937 529.811 374.937 529.808 C 374.942 529.809 373.361 531.23 367.954 525.819 C 363.598 521.462 360.632 515.497 360.634 515.505 C 360.627 515.503 366.593 518.469 370.95 522.825 Z" fill="#414042" stroke="none"/><path d="M 372.366 519.407 C 371.475 518.515 371.475 517.071 372.363 516.178 C 373.255 515.286 374.706 515.288 375.598 516.178 C 376.486 517.07 376.49 518.517 375.598 519.407 C 374.706 520.299 373.255 520.299 372.366 519.407 Z" fill="#414042" stroke="none"/><path d="M 364.537 527.236 C 363.647 526.344 362.199 526.343 361.306 527.236 C 360.414 528.127 360.417 529.574 361.307 530.466 C 362.199 531.356 363.647 531.356 364.54 530.466 C 365.433 529.574 365.43 528.129 364.537 527.236 Z" fill="#414042" stroke="none"/><path d="M 33.766 502.99 C 32.528 502.99 31.526 503.994 31.526 505.231 C 31.526 506.467 32.528 507.47 33.766 507.47 C 35.002 507.47 36.003 506.466 36.003 505.231 C 36.003 503.996 35.002 502.991 33.766 502.99 Z" fill="#414042" stroke="none"/><path d="M 58.649 499.583 C 59.555 499.981 60.342 500.865 60.69 501.909 C 61.051 502.954 60.945 504.155 60.451 505.125 C 59.974 506.11 59.105 506.85 58.168 507.206 C 57.225 507.57 56.233 507.57 55.36 507.341 C 55.264 507.317 55.205 507.217 55.231 507.12 C 55.248 507.055 55.298 507.008 55.359 506.991 L 55.361 506.991 C 56.193 506.762 56.933 506.428 57.497 505.97 C 58.065 505.52 58.442 504.949 58.627 504.352 C 58.809 503.748 58.785 503.134 58.635 502.548 C 58.48 501.948 58.18 501.406 57.717 500.778 L 57.706 500.76 C 57.45 500.413 57.525 499.925 57.873 499.669 C 58.106 499.498 58.402 499.475 58.649 499.583 Z" fill="#414042" stroke="none"/><path d="M 69.266 493.807 C 69.266 495.049 68.831 496.322 67.959 497.49 C 65.725 500.486 60.688 502.607 54.909 500.182 C 48.844 497.64 44.197 497.31 41.098 499.202 L 40.11 497.582 C 43.759 495.357 48.985 495.643 55.641 498.434 C 60.267 500.373 64.575 498.857 66.438 496.358 C 67.637 494.75 67.674 492.965 66.54 491.58 L 68.007 490.378 C 68.847 491.404 69.266 492.59 69.266 493.807 Z" fill="#414042" stroke="none"/><path d="M 64.615 490.227 C 63.718 491.124 63.718 492.578 64.615 493.474 C 65.511 494.371 66.965 494.371 67.862 493.474 C 68.758 492.578 68.759 491.124 67.863 490.226 C 66.966 489.329 65.511 489.329 64.615 490.227 Z" fill="#414042" stroke="none"/><path d="M 30.283 494.458 C 30.283 499.541 28.511 504.437 25.083 507.548 C 19.081 512.997 11.092 513.334 5.657 508.368 C 3.442 506.346 2.148 503.583 2.013 500.587 C 1.874 497.597 2.915 494.723 4.938 492.51 C 6.585 490.705 8.844 489.663 11.297 489.58 C 13.686 489.499 15.926 490.337 17.604 491.938 C 20.61 494.818 20.248 499.052 18.162 501.483 C 16.413 503.523 12.918 504.334 10.501 502.288 C 9.289 501.262 8.66 499.678 8.859 498.155 C 9.025 496.889 9.759 495.858 10.874 495.329 C 11.347 495.105 11.912 495.305 12.137 495.779 C 12.362 496.251 12.161 496.818 11.687 497.042 C 11.008 497.365 10.796 497.958 10.74 498.4 C 10.624 499.278 11.012 500.236 11.726 500.841 C 13.26 502.137 15.589 501.57 16.723 500.248 C 18.234 498.485 18.486 495.409 16.293 493.31 C 14.989 492.062 13.237 491.411 11.363 491.475 C 9.423 491.541 7.639 492.364 6.337 493.789 C 4.658 495.628 3.79 498.016 3.906 500.501 C 4.019 502.989 5.095 505.288 6.934 506.968 C 11.62 511.248 18.56 510.908 23.808 506.144 C 29.306 501.156 29.985 490.947 25.291 483.847 C 22.605 479.786 19.166 477.353 15.525 474.776 C 13.871 473.606 12.162 472.397 10.454 470.991 C 4.127 465.781 -0.343 456.775 3.35 449.64 C 6.733 443.106 12.411 443.391 14.941 444.454 C 18.777 446.065 20.417 449.685 19.021 453.461 C 18.266 455.506 16.406 456.893 14.17 457.081 C 12.249 457.242 10.527 456.423 9.678 454.943 C 8.347 452.626 9.245 450.65 10.642 449.796 C 11.088 449.521 11.672 449.662 11.946 450.109 C 12.221 450.556 12.078 451.138 11.632 451.413 C 10.99 451.806 10.571 452.692 11.323 453.998 C 11.895 454.996 13.087 455.268 14.012 455.192 C 15.184 455.093 16.648 454.414 17.243 452.804 C 18.293 449.959 17.131 447.43 14.207 446.201 C 12.235 445.374 7.78 445.208 5.034 450.511 C 1.423 457.487 7.017 465.704 11.659 469.527 C 13.314 470.889 14.994 472.077 16.62 473.228 C 20.411 475.911 23.992 478.445 26.872 482.801 C 29.165 486.269 30.283 490.423 30.283 494.458 Z" fill="#414042" stroke="none"/><path d="M 15.588 472.978 C 15.588 473.125 15.555 473.273 15.484 473.41 C 15.244 473.876 14.671 474.06 14.206 473.82 C 14.108 473.771 11.653 472.574 9.126 474.211 C 8.189 474.819 7.54 475.878 7.389 477.045 C 7.248 478.155 7.556 479.187 8.258 479.957 C 9.059 480.831 10.11 481.091 11.379 480.723 C 11.912 480.57 12.318 480.202 12.496 479.716 C 12.635 479.335 12.605 478.936 12.414 478.648 C 12.124 478.213 12.241 477.624 12.679 477.333 C 13.114 477.044 13.703 477.162 13.992 477.597 C 14.517 478.384 14.624 479.422 14.277 480.368 C 13.888 481.43 13.023 482.223 11.906 482.544 C 9.943 483.112 8.151 482.647 6.859 481.235 C 5.789 480.064 5.298 478.447 5.509 476.802 C 5.733 475.064 6.675 473.539 8.095 472.62 C 11.565 470.374 14.933 472.06 15.074 472.134 C 15.401 472.302 15.588 472.634 15.588 472.978 Z" fill="#414042" stroke="none"/><path d="M 32.449 468.318 C 32.449 469.198 32.206 470.077 31.719 470.851 C 31.112 471.817 30.19 472.472 29.121 472.693 C 28.193 472.884 27.266 472.724 26.579 472.251 C 26.147 471.955 26.037 471.366 26.334 470.932 C 26.631 470.501 27.222 470.392 27.654 470.689 C 27.854 470.826 28.244 470.937 28.737 470.836 C 29.06 470.768 29.668 470.551 30.113 469.842 C 30.821 468.717 30.567 467.403 30.001 466.599 C 29.402 465.748 28.394 465.19 27.235 465.071 C 25.99 464.939 24.79 465.321 23.942 466.113 C 21.574 468.326 22.074 471.418 22.876 474.153 C 23.516 476.333 25.02 479.939 27.323 483.519 C 27.606 483.96 27.479 484.548 27.038 484.83 C 26.597 485.112 26.011 484.985 25.727 484.546 C 23.316 480.795 21.733 476.993 21.057 474.686 C 20.523 472.867 19.105 468.034 22.648 464.727 C 23.897 463.56 25.641 462.999 27.431 463.185 C 29.137 463.361 30.638 464.209 31.552 465.508 C 32.148 466.356 32.449 467.338 32.449 468.318 Z" fill="#414042" stroke="none"/><path d="M 9.579 490.619 C 10.138 490.098 10.524 489.683 10.835 489.246 C 11.138 488.811 11.387 488.395 11.54 487.919 C 11.692 487.447 11.752 486.928 11.71 486.354 C 11.669 485.778 11.526 485.159 11.333 484.469 L 11.333 484.467 C 11.307 484.375 11.361 484.28 11.452 484.255 C 11.497 484.242 11.544 484.249 11.582 484.27 C 12.232 484.637 12.772 485.221 13.108 485.951 C 13.447 486.675 13.558 487.56 13.359 488.399 C 13.17 489.237 12.68 490.022 11.979 490.499 C 11.289 490.978 10.416 491.185 9.646 490.928 C 9.55 490.898 9.497 490.793 9.529 490.697 C 9.539 490.666 9.558 490.64 9.579 490.619 Z" fill="#414042" stroke="none"/><path d="M 27.08 485.441 C 26.419 484.981 25.88 484.704 25.334 484.52 C 24.796 484.346 24.285 484.244 23.771 484.285 C 23.262 484.327 22.753 484.507 22.247 484.846 C 21.739 485.186 21.256 485.675 20.745 486.247 L 20.744 486.25 C 20.681 486.318 20.574 486.324 20.504 486.262 C 20.466 486.228 20.448 486.181 20.448 486.136 C 20.446 485.34 20.689 484.523 21.214 483.821 C 21.731 483.12 22.577 482.566 23.522 482.419 C 24.461 482.264 25.454 482.492 26.18 483.048 C 26.904 483.591 27.401 484.436 27.365 485.299 C 27.361 485.4 27.277 485.476 27.177 485.473 C 27.141 485.471 27.108 485.459 27.08 485.441 Z" fill="#414042" stroke="none"/><path d="M 21.207 468.96 C 20.993 468.25 20.806 467.747 20.577 467.286 C 20.347 466.836 20.121 466.434 19.805 466.079 C 19.49 465.728 19.103 465.425 18.622 465.17 C 18.141 464.911 17.573 464.723 16.914 464.525 L 16.908 464.524 C 16.817 464.498 16.766 464.401 16.794 464.31 C 16.807 464.267 16.835 464.232 16.87 464.21 C 17.488 463.849 18.235 463.68 19.001 463.765 C 19.766 463.845 20.543 464.188 21.14 464.753 C 21.738 465.31 22.152 466.082 22.226 466.884 C 22.305 467.677 22.084 468.506 21.517 469.037 L 21.512 469.041 C 21.437 469.111 21.319 469.107 21.25 469.033 C 21.23 469.011 21.216 468.985 21.207 468.96 Z" fill="#414042" stroke="none"/><path d="M 9.741 472.837 C 9.289 473.488 8.487 473.835 7.675 473.877 C 6.855 473.925 6.008 473.625 5.354 473.096 C 4.692 472.574 4.236 471.823 4.059 471.057 C 3.875 470.286 3.958 469.508 4.248 468.837 C 4.286 468.751 4.386 468.713 4.473 468.749 C 4.516 468.768 4.547 468.801 4.564 468.841 L 4.566 468.846 C 4.836 469.494 5.089 470.054 5.409 470.511 C 5.723 470.97 6.079 471.322 6.48 471.589 C 6.882 471.858 7.327 472.025 7.821 472.185 C 8.327 472.343 8.869 472.45 9.617 472.545 C 9.717 472.557 9.789 472.649 9.776 472.751 C 9.772 472.78 9.761 472.808 9.745 472.831 L 9.741 472.837 Z" fill="#414042" stroke="none"/><path d="M 12.361 444.474 C 13.144 444.413 13.725 444.312 14.256 444.14 C 14.777 443.966 15.238 443.761 15.652 443.447 C 16.063 443.132 16.418 442.713 16.715 442.19 C 17.013 441.664 17.246 441.042 17.478 440.337 C 17.506 440.246 17.602 440.197 17.691 440.224 C 17.738 440.239 17.774 440.275 17.794 440.316 C 18.123 441.014 18.237 441.824 18.099 442.641 C 17.961 443.457 17.54 444.278 16.872 444.879 C 16.214 445.479 15.322 445.853 14.44 445.828 C 13.568 445.813 12.708 445.445 12.226 444.762 C 12.167 444.679 12.187 444.566 12.27 444.509 C 12.297 444.488 12.329 444.477 12.361 444.474 Z" fill="#414042" stroke="none"/><path d="M 11.675 495.089 C 10.647 495.136 9.852 496.007 9.9 497.039 C 9.948 498.069 10.823 498.863 11.851 498.817 C 12.88 498.767 13.675 497.893 13.628 496.863 C 13.579 495.834 12.706 495.039 11.675 495.089 Z" fill="#414042" stroke="none"/><path d="M 12.371 476.785 C 11.343 476.835 10.548 477.706 10.596 478.735 C 10.644 479.764 11.517 480.56 12.546 480.512 C 13.575 480.466 14.37 479.592 14.322 478.56 C 14.274 477.531 13.4 476.738 12.371 476.785 Z" fill="#414042" stroke="none"/><path d="M 27.528 468.833 C 26.499 468.882 25.704 469.754 25.751 470.782 C 25.801 471.814 26.674 472.609 27.704 472.562 C 28.731 472.513 29.527 471.638 29.479 470.61 C 29.43 469.579 28.557 468.787 27.528 468.833 Z" fill="#414042" stroke="none"/><path d="M 11.623 449.499 C 10.595 449.547 9.799 450.421 9.848 451.451 C 9.895 452.482 10.769 453.274 11.797 453.228 C 12.827 453.178 13.622 452.306 13.574 451.277 C 13.525 450.246 12.651 449.452 11.623 449.499 Z" fill="#414042" stroke="none"/><path d="M 95.13 527.154 C 95.13 529.887 93.867 533.315 89.358 535.651 C 82.223 539.342 73.217 534.869 68.008 528.543 C 66.6 526.837 65.391 525.126 64.221 523.472 C 61.644 519.832 59.211 516.393 55.152 513.708 C 48.053 509.015 37.843 509.693 32.856 515.19 C 28.089 520.44 27.75 527.378 32.032 532.064 C 33.712 533.904 36.008 534.979 38.498 535.093 C 40.987 535.205 43.37 534.341 45.21 532.661 C 46.636 531.36 47.457 529.575 47.524 527.636 C 47.587 525.76 46.935 524.01 45.688 522.706 C 43.51 520.43 40.488 520.785 38.751 522.277 C 37.429 523.409 36.862 525.741 38.159 527.274 C 38.763 527.987 39.721 528.374 40.599 528.258 C 41.04 528.202 41.634 527.99 41.956 527.312 C 42.182 526.839 42.746 526.638 43.22 526.862 C 43.692 527.086 43.894 527.651 43.669 528.125 C 43.14 529.241 42.111 529.975 40.844 530.139 C 39.32 530.338 37.737 529.71 36.711 528.498 C 34.666 526.082 35.477 522.585 37.516 520.837 C 39.948 518.751 44.181 518.389 47.058 521.395 C 48.662 523.072 49.502 525.31 49.418 527.7 C 49.335 530.155 48.295 532.414 46.489 534.063 C 44.276 536.085 41.407 537.123 38.412 536.987 C 35.417 536.851 32.654 535.557 30.631 533.342 C 25.664 527.906 26.003 519.918 31.452 513.916 C 37.032 507.766 48.364 506.946 56.197 512.127 C 60.553 515.007 63.087 518.586 65.768 522.376 C 66.919 524.003 68.109 525.684 69.472 527.338 C 73.293 531.98 81.511 537.576 88.487 533.965 C 93.789 531.22 93.626 526.764 92.797 524.792 C 91.569 521.867 89.04 520.704 86.196 521.756 C 84.585 522.351 83.906 523.815 83.808 524.987 C 83.73 525.912 84.004 527.104 85 527.677 C 86.307 528.427 87.193 528.009 87.586 527.368 C 87.86 526.921 88.444 526.78 88.89 527.054 C 89.336 527.328 89.477 527.911 89.204 528.359 C 88.347 529.753 86.371 530.652 84.056 529.322 C 82.576 528.473 81.759 526.747 81.919 524.828 C 82.106 522.591 83.493 520.734 85.538 519.977 C 89.314 518.581 92.934 520.22 94.545 524.057 C 94.874 524.842 95.13 525.929 95.13 527.154 Z" fill="#414042" stroke="none"/><path d="M 67.541 527.024 C 67.541 528.173 67.268 529.529 66.38 530.903 C 65.46 532.324 63.935 533.267 62.197 533.488 C 60.55 533.701 58.934 533.21 57.764 532.141 C 56.352 530.849 55.886 529.056 56.454 527.092 C 56.776 525.975 57.57 525.11 58.632 524.722 C 59.579 524.376 60.615 524.482 61.402 525.007 C 61.838 525.297 61.956 525.886 61.664 526.322 C 61.373 526.757 60.786 526.875 60.35 526.585 C 60.063 526.393 59.665 526.363 59.285 526.503 C 58.796 526.681 58.429 527.088 58.275 527.619 C 57.908 528.888 58.167 529.94 59.044 530.742 C 59.812 531.444 60.847 531.753 61.954 531.609 C 63.122 531.459 64.181 530.81 64.787 529.873 C 66.442 527.314 65.191 524.817 65.177 524.792 C 64.937 524.326 65.121 523.754 65.587 523.515 C 66.052 523.276 66.624 523.459 66.863 523.924 C 66.908 524.01 67.541 525.273 67.541 527.024 Z" fill="#414042" stroke="none"/><path d="M 75.85 512.241 C 75.85 513.789 75.292 515.257 74.273 516.35 C 70.965 519.892 66.131 518.476 64.312 517.942 C 62.006 517.264 58.204 515.682 54.454 513.272 C 54.013 512.988 53.886 512.402 54.169 511.962 C 54.453 511.52 55.038 511.393 55.479 511.676 C 59.06 513.979 62.665 515.482 64.847 516.122 C 67.58 516.924 70.675 517.424 72.887 515.056 C 73.678 514.209 74.059 513.007 73.928 511.763 C 73.808 510.604 73.25 509.596 72.4 508.998 C 71.596 508.431 70.282 508.177 69.157 508.885 C 68.448 509.333 68.229 509.941 68.163 510.262 C 68.061 510.755 68.172 511.146 68.31 511.346 C 68.606 511.778 68.497 512.367 68.066 512.664 C 67.634 512.96 67.044 512.852 66.747 512.42 C 66.275 511.733 66.114 510.806 66.306 509.88 C 66.527 508.811 67.18 507.887 68.148 507.28 C 69.761 506.266 71.908 506.332 73.491 507.448 C 74.79 508.36 75.638 509.863 75.816 511.567 C 75.838 511.793 75.85 512.017 75.85 512.241 Z" fill="#414042" stroke="none"/><path d="M 48.069 529.353 C 47.815 528.583 48.022 527.709 48.498 527.019 C 48.975 526.319 49.761 525.828 50.599 525.639 C 51.438 525.442 52.323 525.551 53.049 525.89 C 53.779 526.227 54.362 526.766 54.728 527.418 C 54.774 527.5 54.745 527.605 54.663 527.65 C 54.621 527.673 54.576 527.677 54.533 527.667 L 54.531 527.666 C 53.839 527.471 53.22 527.329 52.645 527.288 C 52.072 527.246 51.553 527.306 51.079 527.459 C 50.605 527.612 50.188 527.86 49.753 528.164 C 49.316 528.476 48.899 528.861 48.38 529.42 C 48.31 529.494 48.194 529.499 48.119 529.43 C 48.095 529.409 48.078 529.381 48.069 529.353 Z" fill="#414042" stroke="none"/><path d="M 53.7 511.632 C 54.563 511.596 55.409 512.094 55.95 512.82 C 56.506 513.545 56.734 514.537 56.579 515.477 C 56.433 516.422 55.879 517.268 55.178 517.784 C 54.475 518.309 53.657 518.553 52.862 518.551 C 52.769 518.55 52.693 518.476 52.693 518.382 C 52.693 518.331 52.715 518.287 52.749 518.256 L 52.752 518.254 C 53.322 517.742 53.813 517.261 54.152 516.752 C 54.493 516.246 54.672 515.737 54.714 515.227 C 54.753 514.714 54.653 514.204 54.479 513.664 C 54.295 513.119 54.017 512.579 53.558 511.917 C 53.501 511.835 53.522 511.721 53.603 511.665 C 53.633 511.646 53.667 511.634 53.7 511.632 Z" fill="#414042" stroke="none"/><path d="M 69.962 517.481 C 70.494 516.915 71.32 516.694 72.114 516.772 C 72.917 516.845 73.689 517.261 74.246 517.859 C 74.811 518.454 75.154 519.234 75.235 519.997 C 75.32 520.763 75.15 521.51 74.788 522.128 C 74.741 522.21 74.634 522.236 74.553 522.189 C 74.515 522.166 74.487 522.131 74.475 522.09 L 74.474 522.086 C 74.275 521.425 74.088 520.858 73.829 520.376 C 73.575 519.895 73.272 519.508 72.92 519.193 C 72.564 518.877 72.162 518.652 71.713 518.422 C 71.253 518.192 70.748 518.005 70.039 517.79 C 69.941 517.76 69.886 517.656 69.915 517.56 C 69.924 517.531 69.938 517.507 69.957 517.487 L 69.962 517.481 Z" fill="#414042" stroke="none"/><path d="M 66.454 529.382 C 66.55 530.13 66.657 530.673 66.813 531.177 C 66.974 531.672 67.141 532.118 67.41 532.521 C 67.678 532.921 68.029 533.278 68.487 533.59 C 68.945 533.909 69.505 534.161 70.154 534.433 L 70.159 534.435 C 70.245 534.473 70.287 534.571 70.251 534.66 C 70.232 534.702 70.2 534.734 70.16 534.751 C 69.491 535.041 68.712 535.124 67.943 534.94 C 67.176 534.765 66.425 534.306 65.902 533.644 C 65.373 532.991 65.073 532.145 65.122 531.324 C 65.164 530.512 65.512 529.71 66.162 529.258 L 66.167 529.255 C 66.25 529.196 66.365 529.218 66.423 529.3 C 66.441 529.325 66.451 529.354 66.454 529.382 Z" fill="#414042" stroke="none"/><path d="M 94.237 526.773 C 93.555 526.29 93.186 525.429 93.171 524.558 C 93.145 523.676 93.519 522.783 94.121 522.126 C 94.722 521.458 95.543 521.038 96.358 520.901 C 97.177 520.762 97.986 520.876 98.684 521.205 C 98.769 521.246 98.806 521.346 98.766 521.433 C 98.745 521.475 98.705 521.508 98.663 521.522 C 97.956 521.754 97.336 521.987 96.809 522.285 C 96.286 522.582 95.869 522.937 95.553 523.347 C 95.238 523.76 95.034 524.221 94.859 524.742 C 94.686 525.273 94.586 525.854 94.524 526.637 C 94.516 526.737 94.429 526.813 94.328 526.804 C 94.294 526.802 94.263 526.789 94.237 526.773 Z" fill="#414042" stroke="none"/><path d="M 43.911 527.322 C 43.862 528.352 42.99 529.147 41.961 529.098 C 40.931 529.05 40.135 528.177 40.184 527.148 C 40.232 526.118 41.105 525.323 42.136 525.371 C 43.164 525.42 43.958 526.292 43.911 527.322 Z" fill="#414042" stroke="none"/><path d="M 62.212 526.629 C 62.165 527.654 61.292 528.452 60.264 528.403 C 59.233 528.354 58.438 527.482 58.486 526.453 C 58.535 525.425 59.408 524.629 60.438 524.676 C 61.466 524.725 62.26 525.598 62.212 526.629 Z" fill="#414042" stroke="none"/><path d="M 70.165 511.469 C 70.117 512.498 69.245 513.294 68.215 513.247 C 67.185 513.198 66.39 512.325 66.437 511.297 C 66.486 510.268 67.36 509.473 68.388 509.52 C 69.42 509.568 70.214 510.441 70.165 511.469 Z" fill="#414042" stroke="none"/><path d="M 89.499 527.377 C 89.452 528.405 88.578 529.201 87.548 529.153 C 86.518 529.104 85.726 528.229 85.772 527.201 C 85.821 526.172 86.692 525.376 87.722 525.425 C 88.753 525.473 89.547 526.347 89.499 527.377 Z" fill="#414042" stroke="none"/><path d="M 38.209 481.286 C 37.585 480.823 37.045 480.519 36.447 480.363 C 35.861 480.211 35.246 480.185 34.643 480.368 C 34.045 480.551 33.475 480.926 33.024 481.496 C 32.566 482.061 32.23 482.801 32.004 483.634 C 31.978 483.73 31.88 483.788 31.783 483.763 C 31.719 483.748 31.67 483.694 31.654 483.634 C 31.423 482.762 31.422 481.768 31.787 480.824 C 32.145 479.887 32.886 479.019 33.871 478.543 C 34.841 478.05 36.042 477.945 37.087 478.307 C 38.128 478.66 39.01 479.447 39.403 480.354 C 39.575 480.749 39.392 481.211 38.996 481.382 C 38.731 481.496 38.436 481.455 38.22 481.294 L 38.209 481.286 Z" fill="#414042" stroke="none"/><path d="M 48.618 470.99 L 47.416 472.456 C 45.421 470.82 43.411 471.982 42.64 472.556 C 40.139 474.42 38.621 478.727 40.56 483.353 C 43.353 490.009 43.641 495.236 41.414 498.885 L 39.794 497.898 C 41.686 494.797 41.356 490.151 38.812 484.087 C 36.388 478.306 38.509 473.268 41.506 471.036 C 43.822 469.311 46.547 469.293 48.618 470.99 Z" fill="#414042" stroke="none"/><path d="M 48.768 474.381 C 47.872 475.278 46.417 475.278 45.521 474.381 C 44.624 473.484 44.624 472.03 45.52 471.134 C 46.417 470.238 47.872 470.235 48.769 471.134 C 49.666 472.03 49.666 473.485 48.768 474.381 Z" fill="#414042" stroke="none"/><path d="M 43.873 495.121 C 45.086 494.652 46.358 494.329 47.554 494.026 C 48.679 493.741 49.742 493.471 50.652 493.114 C 54.956 491.426 58.098 488.179 60.254 483.189 C 60.497 482.627 60.749 481.967 61.015 481.269 C 61.671 479.548 62.46 477.479 63.682 475.314 C 61.516 476.535 59.449 477.323 57.729 477.979 C 57.029 478.246 56.369 478.499 55.805 478.741 C 50.816 480.897 47.571 484.038 45.881 488.343 C 45.524 489.253 45.255 490.317 44.969 491.442 C 44.665 492.636 44.345 493.91 43.873 495.121 Z M 69.444 470.491 C 69.445 470.493 69.445 470.497 69.444 470.501 C 69.444 470.744 69.351 470.987 69.167 471.172 C 65.494 474.843 63.93 478.947 62.787 481.945 C 62.513 482.663 62.255 483.342 61.995 483.943 C 59.627 489.419 56.144 492.997 51.345 494.88 C 50.324 495.281 49.204 495.565 48.02 495.864 C 45.684 496.456 43.267 497.069 41.725 498.611 C 41.539 498.796 41.297 498.889 41.054 498.889 C 40.811 498.888 40.569 498.796 40.384 498.611 C 40.014 498.24 40.014 497.64 40.384 497.27 C 41.927 495.727 42.539 493.312 43.131 490.976 C 43.432 489.79 43.714 488.671 44.116 487.649 C 45.999 482.851 49.577 479.368 55.053 477.001 C 55.654 476.741 56.334 476.482 57.053 476.208 C 60.029 475.072 64.1 473.52 67.751 469.905 C 67.925 469.684 68.194 469.543 68.495 469.543 C 69.019 469.543 69.444 469.968 69.444 470.491 Z" fill="#414042" stroke="none"/><path d="M 48.374 493.322 C 44.297 497.398 40.386 500.098 39.642 499.353 C 38.897 498.609 41.597 494.698 45.676 490.62 C 49.312 486.982 54.026 484.203 54.409 484.588 C 54.792 484.97 52.011 489.683 48.374 493.322 Z" fill="#414042" stroke="none"/><path d="M 13.177 522.825 C 7.767 528.235 9.19 529.811 9.192 529.808 C 9.184 529.809 10.764 531.23 16.173 525.819 C 20.53 521.462 23.495 515.497 23.494 515.505 C 23.501 515.503 17.533 518.469 13.177 522.825 Z" fill="#414042" stroke="none"/><path d="M 11.762 519.407 C 12.653 518.515 12.651 517.071 11.763 516.178 C 10.87 515.286 9.42 515.288 8.531 516.178 C 7.639 517.07 7.638 518.517 8.529 519.407 C 9.42 520.299 10.87 520.299 11.762 519.407 Z" fill="#414042" stroke="none"/><path d="M 19.588 527.236 C 20.479 526.344 21.929 526.343 22.82 527.236 C 23.711 528.127 23.711 529.574 22.82 530.466 C 21.928 531.356 20.478 531.356 19.587 530.466 C 18.696 529.574 18.697 528.129 19.588 527.236 Z" fill="#414042" stroke="none"/>
</svg>
