<?xml version="1.0" encoding="UTF-8"?>
<svg xmlns="http://www.w3.org/2000/svg" width="416.183" height="563.759" viewBox="0 0 416.183 563.759">
  <path d="M 317.271 30.243 C 317.271 30.243 317.27 30.243 317.27 30.243 C 317.269 30.243 317.269 30.243 317.269 30.243 L 317.234 30.243 L 317.258 30.244 C 317.251 30.245 317.244 30.247 317.234 30.247 L 317.27 30.245 L 317.306 30.247 C 317.295 30.247 317.289 30.245 317.282 30.244 L 317.306 30.243 L 317.271 30.243 Z" fill="#414042" stroke="none"/><path d="M 317.27 22.916 C 317.262 22.916 317.254 22.916 317.246 22.913 L 317.269 22.916 C 317.265 22.916 317.261 22.918 317.257 22.918 C 317.254 22.918 317.254 22.918 317.247 22.919 L 317.27 22.916 L 317.293 22.919 C 317.286 22.918 317.286 22.918 317.283 22.918 C 317.279 22.918 317.275 22.916 317.27 22.916 L 317.293 22.913 C 317.286 22.916 317.278 22.916 317.27 22.916 Z" fill="#414042" stroke="none"/><path d="M 30.9 535.831 L 33.692 535.831 L 33.692 534.782 L 31.215 534.782 L 28.971 534.782 L 27.921 534.782 L 26.872 534.782 L 23.2 534.782 L 23.2 535.831 L 26.872 535.831 L 27.921 535.831 L 28.971 535.831 L 30.9 535.831 Z" fill="#414042" stroke="none"/><path d="M 10.501 543.498 C 10.501 543.485 10.508 542.71 10.73 541.609 L 5.779 541.609 L 5.779 528.836 C 9.328 528.183 13.958 525.622 13.958 518.935 L 13.958 502.399 L 13.958 494.373 L 13.958 44.823 C 13.958 38.137 9.328 35.576 5.779 34.923 L 5.779 22.15 L 10.73 22.15 C 10.508 21.048 10.501 20.274 10.501 20.26 L 10.501 18.371 L 2 18.371 L 2 38.521 L 3.889 38.521 C 4.525 38.528 10.179 38.762 10.179 44.823 L 10.179 494.373 L 10.179 502.399 L 10.179 518.935 C 10.179 524.997 4.525 525.231 3.889 525.237 L 2 525.237 L 2 545.388 L 10.501 545.388 L 10.501 543.498 Z" fill="#414042" stroke="none"/><path d="M 12.6 551.153 L 11.55 551.153 L 10.501 551.153 L 3.359 551.153 L 3.359 560.394 L 12.6 560.394 L 12.6 553.252 L 11.55 553.252 L 11.55 559.344 L 4.408 559.344 L 4.408 552.202 L 10.501 552.202 L 11.55 552.202 L 12.6 552.202 L 14.21 552.202 L 17.321 552.202 L 17.321 551.153 L 14.21 551.153 L 12.6 551.153 Z" fill="#414042" stroke="none"/><path d="M 11.55 543.498 L 11.55 550.103 L 12.6 550.103 L 12.6 543.498 C 12.6 543.233 12.665 537.892 17.321 536.286 L 17.321 535.183 C 11.628 536.881 11.55 543.423 11.55 543.498 Z" fill="#414042" stroke="none"/><path d="M 38.521 525.237 L 30.021 525.237 L 30.021 529.017 L 34.742 529.017 L 34.742 541.609 L 30.021 541.609 L 30.021 543.492 C 30.021 544.172 29.97 544.802 29.877 545.388 L 38.521 545.388 L 38.521 525.237 Z" fill="#414042" stroke="none"/><path d="M 18.371 540.559 L 22.15 540.559 L 22.15 529.017 L 26.872 529.017 L 26.872 525.237 L 18.371 525.237 L 18.371 540.559 Z" fill="#414042" stroke="none"/><path d="M 10.501 558.295 L 10.501 553.252 L 5.458 553.252 L 5.458 558.295 L 10.501 558.295 Z" fill="#414042" stroke="none"/><path d="M 27.921 543.492 C 27.921 547.947 25.363 549.811 23.2 550.591 L 23.2 551.668 C 25.73 550.849 28.971 548.771 28.971 543.492 L 28.971 536.881 L 27.921 536.881 L 27.921 543.492 Z" fill="#414042" stroke="none"/><path d="M 22.15 545.388 L 22.699 545.388 L 26.671 545.388 C 26.804 544.806 26.872 544.175 26.872 543.492 L 26.872 541.609 L 23.749 541.609 L 22.15 541.609 L 18.371 541.609 L 16.867 541.609 L 13.925 541.609 C 13.655 542.643 13.65 543.449 13.65 543.498 L 13.65 545.388 L 17.321 545.388 L 18.371 545.388 L 22.15 545.388 Z" fill="#414042" stroke="none"/><path d="M 387.206 534.784 L 387.206 535.834 L 387.206 536.884 L 387.206 540.556 L 388.256 540.556 L 388.256 536.884 L 388.256 535.834 L 388.256 534.784 L 388.256 532.856 L 388.256 530.064 L 387.206 530.064 L 387.206 532.541 L 387.206 534.784 Z" fill="#414042" stroke="none"/><path d="M 392.984 541.606 L 381.441 541.606 L 381.441 536.884 L 377.662 536.884 L 377.662 545.385 L 392.984 545.385 L 392.984 541.606 Z" fill="#414042" stroke="none"/><path d="M 363.693 544.026 L 363.693 543.501 C 363.693 535.943 371.042 535.835 371.354 535.834 L 386.157 535.834 L 386.157 534.784 L 371.354 534.784 C 371.269 534.784 362.998 534.882 362.655 542.976 L 357.908 542.976 L 357.908 542.973 L 53.523 542.973 C 53.18 534.878 44.909 534.782 44.824 534.782 L 39.571 534.782 L 39.571 535.831 L 44.823 535.831 C 45.136 535.832 52.485 535.939 52.485 543.498 L 52.485 544.023 L 346.792 544.023 L 346.792 544.026 L 363.693 544.026 Z" fill="#414042" stroke="none"/><path d="M 405.677 553.255 L 405.677 558.298 L 410.72 558.298 L 410.72 553.255 L 405.677 553.255 Z" fill="#414042" stroke="none"/><path d="M 403.016 540.556 L 404.093 540.556 C 403.273 538.027 401.195 534.784 395.917 534.784 L 389.306 534.784 L 389.306 535.834 L 395.917 535.834 C 400.372 535.834 402.236 538.393 403.016 540.556 Z" fill="#414042" stroke="none"/><path d="M 405.677 552.205 L 411.769 552.205 L 411.769 559.347 L 404.627 559.347 L 404.627 553.255 L 404.627 552.205 L 404.627 551.156 L 404.627 549.546 L 404.627 546.435 L 403.578 546.435 L 403.578 549.546 L 403.578 551.156 L 403.578 552.205 L 403.578 553.255 L 403.578 560.397 L 412.819 560.397 L 412.819 551.156 L 405.677 551.156 L 405.677 552.205 Z" fill="#414042" stroke="none"/><path d="M 394.034 553.026 L 394.034 557.977 L 381.261 557.977 C 380.608 554.428 378.047 549.798 371.36 549.798 L 346.797 549.798 L 346.797 549.8 L 44.824 549.8 C 38.137 549.8 35.576 554.431 34.923 557.98 L 22.15 557.98 L 22.15 546.437 L 18.371 546.437 L 18.371 561.759 L 38.521 561.759 L 38.521 559.869 C 38.521 559.226 38.698 553.579 44.824 553.579 L 357.908 553.579 L 357.908 553.576 L 371.36 553.576 C 377.421 553.576 377.656 559.231 377.662 559.866 L 377.662 561.756 L 397.812 561.756 L 397.812 553.255 L 395.923 553.255 C 395.91 553.255 395.135 553.248 394.034 553.026 Z" fill="#414042" stroke="none"/><path d="M 394.034 536.884 L 394.034 540.007 L 394.034 541.606 L 394.034 545.385 L 394.034 546.889 L 394.034 549.83 C 395.068 550.101 395.874 550.106 395.923 550.106 L 397.812 550.106 L 397.812 546.435 L 397.812 545.385 L 397.812 541.606 L 397.812 541.056 L 397.812 537.085 C 397.231 536.952 396.6 536.884 395.917 536.884 L 394.034 536.884 Z" fill="#414042" stroke="none"/><path d="M 388.711 546.435 L 387.608 546.435 C 389.306 552.128 395.848 552.205 395.923 552.205 L 402.528 552.205 L 402.528 551.156 L 395.923 551.156 C 395.658 551.156 390.317 551.09 388.711 546.435 Z" fill="#414042" stroke="none"/><path d="M 395.917 533.735 C 396.597 533.735 397.227 533.786 397.812 533.879 L 397.812 525.235 L 377.662 525.235 L 377.662 533.735 L 381.441 533.735 L 381.441 529.014 L 394.034 529.014 L 394.034 533.735 L 395.917 533.735 Z" fill="#414042" stroke="none"/><path d="M 22.15 5.779 L 34.923 5.779 C 35.576 9.328 38.137 13.958 44.824 13.958 L 346.797 13.958 L 346.797 13.961 L 371.36 13.961 C 378.047 13.961 380.608 9.331 381.261 5.782 L 394.034 5.782 L 394.034 10.732 C 395.135 10.511 395.91 10.503 395.923 10.503 L 397.812 10.503 L 397.812 2.002 L 377.662 2.002 L 377.662 3.892 C 377.656 4.528 377.421 10.182 371.36 10.182 L 357.908 10.182 L 357.908 10.179 L 44.824 10.179 C 38.698 10.179 38.521 4.533 38.521 3.889 L 38.521 2 L 18.371 2 L 18.371 17.321 L 22.15 17.321 L 22.15 5.779 Z" fill="#414042" stroke="none"/><path d="M 17.321 27.473 C 12.665 25.866 12.6 20.526 12.6 20.26 L 12.6 13.656 L 11.55 13.656 L 11.55 20.26 C 11.55 20.336 11.628 26.877 17.321 28.576 L 17.321 27.473 Z" fill="#414042" stroke="none"/><path d="M 28.971 26.877 L 28.971 20.267 C 28.971 14.988 25.73 12.91 23.2 12.091 L 23.2 13.168 C 25.363 13.948 27.921 15.812 27.921 20.267 L 27.921 26.877 L 28.971 26.877 Z" fill="#414042" stroke="none"/><path d="M 23.2 27.927 L 23.2 28.977 L 26.872 28.977 L 27.921 28.977 L 28.971 28.977 L 31.215 28.977 L 33.692 28.977 L 33.692 27.927 L 30.9 27.927 L 28.971 27.927 L 27.921 27.927 L 26.872 27.927 L 23.2 27.927 Z" fill="#414042" stroke="none"/><path d="M 11.55 12.606 L 12.6 12.606 L 14.21 12.606 L 17.321 12.606 L 17.321 11.556 L 14.21 11.556 L 12.6 11.556 L 11.55 11.556 L 10.501 11.556 L 4.408 11.556 L 4.408 4.414 L 11.55 4.414 L 11.55 10.506 L 12.6 10.506 L 12.6 3.364 L 3.359 3.364 L 3.359 12.606 L 10.501 12.606 L 11.55 12.606 Z" fill="#414042" stroke="none"/><path d="M 13.65 18.371 L 13.65 20.26 C 13.65 20.31 13.655 21.116 13.925 22.15 L 16.867 22.15 L 18.371 22.15 L 22.15 22.15 L 23.749 22.15 L 26.872 22.15 L 26.872 20.267 C 26.872 19.585 26.804 18.952 26.671 18.371 L 22.699 18.371 L 22.15 18.371 L 18.371 18.371 L 17.321 18.371 L 13.65 18.371 Z" fill="#414042" stroke="none"/><path d="M 10.501 10.506 L 10.501 5.464 L 5.458 5.464 L 5.458 10.506 L 10.501 10.506 Z" fill="#414042" stroke="none"/><path d="M 38.521 18.371 L 29.877 18.371 C 29.97 18.957 30.021 19.587 30.021 20.267 L 30.021 22.15 L 34.742 22.15 L 34.742 34.742 L 30.021 34.742 L 30.021 38.521 L 38.521 38.521 L 38.521 18.371 Z" fill="#414042" stroke="none"/><path d="M 18.371 23.2 L 18.371 38.521 L 26.872 38.521 L 26.872 34.742 L 22.15 34.742 L 22.15 23.2 L 18.371 23.2 Z" fill="#414042" stroke="none"/><path d="M 20.779 494.366 L 20.779 53.529 C 28.874 53.186 28.971 44.915 28.971 44.829 L 28.971 30.027 L 27.921 30.027 L 27.921 44.829 C 27.921 45.142 27.814 52.49 20.255 52.49 L 19.73 52.49 L 19.73 494.366 L 19.73 502.405 L 19.73 511.269 L 20.255 511.269 C 27.814 511.269 27.921 518.617 27.921 518.929 L 27.921 533.732 L 28.971 533.732 L 28.971 518.929 C 28.971 518.844 28.874 510.573 20.779 510.23 L 20.779 502.405 L 20.779 494.366 Z" fill="#414042" stroke="none"/><path d="M 346.792 19.732 L 346.792 19.735 L 52.485 19.735 L 52.485 20.26 C 52.485 27.819 45.136 27.926 44.823 27.927 L 39.571 27.927 L 39.571 28.977 L 44.824 28.977 C 44.909 28.977 53.18 28.88 53.523 20.785 L 357.908 20.785 L 357.908 20.782 L 362.655 20.782 C 362.998 28.877 371.269 28.974 371.354 28.974 L 386.157 28.974 L 386.157 27.924 L 371.354 27.924 C 371.042 27.923 363.693 27.816 363.693 20.257 L 363.693 19.732 L 346.792 19.732 Z" fill="#414042" stroke="none"/><path d="M 405.677 5.461 L 405.677 10.503 L 410.72 10.503 L 410.72 5.461 L 405.677 5.461 Z" fill="#414042" stroke="none"/><path d="M 404.627 14.213 L 404.627 12.603 L 404.627 11.553 L 404.627 10.503 L 404.627 4.411 L 411.769 4.411 L 411.769 11.553 L 405.677 11.553 L 405.677 12.603 L 412.819 12.603 L 412.819 3.361 L 403.578 3.361 L 403.578 10.503 L 403.578 11.553 L 403.578 12.603 L 403.578 14.213 L 403.578 17.324 L 404.627 17.324 L 404.627 14.213 Z" fill="#414042" stroke="none"/><path d="M 403.016 23.202 C 402.236 25.366 400.372 27.924 395.917 27.924 L 389.306 27.924 L 389.306 28.974 L 395.917 28.974 C 401.195 28.974 403.273 25.732 404.093 23.202 L 403.016 23.202 Z" fill="#414042" stroke="none"/><path d="M 394.034 13.928 L 394.034 16.87 L 394.034 18.374 L 394.034 22.153 L 394.034 23.752 L 394.034 26.875 L 395.917 26.875 C 396.6 26.875 397.231 26.807 397.812 26.674 L 397.812 22.702 L 397.812 22.153 L 397.812 18.374 L 397.812 17.324 L 397.812 13.653 L 395.923 13.653 C 395.874 13.653 395.068 13.658 394.034 13.928 Z" fill="#414042" stroke="none"/><path d="M 402.528 11.553 L 395.923 11.553 C 395.848 11.553 389.306 11.631 387.608 17.324 L 388.711 17.324 C 390.317 12.668 395.658 12.603 395.923 12.603 L 402.528 12.603 L 402.528 11.553 Z" fill="#414042" stroke="none"/><path d="M 392.984 18.374 L 377.662 18.374 L 377.662 26.875 L 381.441 26.875 L 381.441 22.153 L 392.984 22.153 L 392.984 18.374 Z" fill="#414042" stroke="none"/><path d="M 397.812 29.88 C 397.227 29.973 396.597 30.024 395.917 30.024 L 394.034 30.024 L 394.034 34.745 L 381.441 34.745 L 381.441 30.024 L 377.662 30.024 L 377.662 38.524 L 397.812 38.524 L 397.812 29.88 Z" fill="#414042" stroke="none"/><path d="M 387.206 26.875 L 387.206 27.924 L 387.206 28.974 L 387.206 31.218 L 387.206 33.695 L 388.256 33.695 L 388.256 30.903 L 388.256 28.974 L 388.256 27.924 L 388.256 26.875 L 388.256 23.202 L 387.206 23.202 L 387.206 26.875 Z" fill="#414042" stroke="none"/><path d="M 406.004 494.37 L 406.004 44.826 C 406.004 38.701 411.65 38.524 412.294 38.524 L 414.183 38.524 L 414.183 18.374 L 398.862 18.374 L 398.862 22.153 L 410.405 22.153 L 410.405 34.926 C 406.856 35.579 402.225 38.14 402.225 44.826 L 402.225 494.37 L 402.225 502.402 L 402.225 518.933 C 402.225 525.619 406.856 528.18 410.405 528.833 L 410.405 541.606 L 398.862 541.606 L 398.862 545.385 L 414.183 545.385 L 414.183 525.235 L 412.294 525.235 C 411.65 525.235 406.004 525.058 406.004 518.933 L 406.004 502.402 L 406.004 494.37 Z" fill="#414042" stroke="none"/><path d="M 395.398 502.402 L 395.398 510.233 C 387.304 510.576 387.206 518.847 387.206 518.933 L 387.206 524.185 L 388.256 524.185 L 388.256 518.933 C 388.257 518.62 388.365 511.272 395.923 511.272 L 396.448 511.272 L 396.448 502.402 L 396.448 494.37 L 396.448 52.487 L 395.923 52.487 C 388.365 52.487 388.257 45.139 388.256 44.825 L 388.256 39.573 L 387.206 39.573 L 387.206 44.826 C 387.206 44.911 387.304 53.183 395.398 53.526 L 395.398 494.37 L 395.398 502.402 Z" fill="#414042" stroke="none"/>
</svg>
