<?xml version="1.0" encoding="UTF-8"?>
<svg xmlns="http://www.w3.org/2000/svg" width="438.319" height="577.753" viewBox="0 0 438.319 577.753">
  <path d="M 24.041 309.333 L 24.041 512.402 C 24.041 529.598 25.41 539.555 32.399 539.555 C 35.349 539.555 37.749 537.156 37.749 534.205 C 37.749 531.26 35.349 528.859 32.399 528.859 C 27.446 528.859 25.605 521.924 25.605 503.27 L 25.605 309.333 C 25.605 308.903 25.254 308.553 24.823 308.553 C 24.39 308.553 24.041 308.903 24.041 309.333 Z" fill="#414042" stroke="none"/><path d="M 32.169 37.864 C 31.909 37.872 31.669 37.923 31.429 37.96 C 31.389 37.966 31.349 37.966 31.309 37.974 C 25.277 39.001 24.041 48.762 24.041 65.012 L 24.041 278.079 C 24.041 278.511 24.39 278.86 24.823 278.86 C 25.254 278.86 25.605 278.511 25.605 278.079 L 25.605 74.143 C 25.605 55.489 27.446 48.553 32.399 48.553 C 35.349 48.553 37.749 46.155 37.749 43.206 C 37.749 40.362 35.509 38.054 32.709 37.892 C 32.619 37.851 32.509 37.829 32.399 37.829 C 32.319 37.829 32.249 37.841 32.169 37.864 Z" fill="#414042" stroke="none"/><path d="M 15.709 512.402 L 15.709 309.333 C 15.709 308.903 15.359 308.553 14.926 308.553 C 14.495 308.553 14.145 308.903 14.145 309.333 L 14.145 503.27 C 14.145 521.924 12.303 528.859 7.346 528.859 C 4.398 528.859 2 531.26 2 534.205 C 2 537.156 4.398 539.555 7.346 539.555 C 14.339 539.555 15.709 529.598 15.709 512.402 Z" fill="#414042" stroke="none"/><path d="M 15.709 278.079 L 15.709 65.012 C 15.709 47.815 14.339 37.86 7.346 37.86 C 4.398 37.86 2 40.259 2 43.206 C 2 46.155 4.398 48.553 7.346 48.553 C 12.303 48.553 14.145 55.489 14.145 74.143 L 14.145 278.079 C 14.145 278.511 14.495 278.86 14.926 278.86 C 15.359 278.86 15.709 278.511 15.709 278.079 Z" fill="#414042" stroke="none"/><path d="M 14.527 19.489 C 14.527 21.495 15.549 24.101 16.632 26.856 C 17.843 29.935 19.093 33.118 19.093 35.759 L 19.093 285.525 C 18.235 289.499 15.904 292.183 14.09 292.993 C 13.529 293.247 13.529 294.167 14.09 294.421 C 15.904 295.231 18.235 297.915 19.093 301.891 L 19.093 541.656 C 19.093 544.297 17.843 547.479 16.632 550.557 C 15.549 553.315 14.527 555.92 14.527 557.926 C 14.527 560.873 16.926 563.272 19.875 563.272 C 22.824 563.272 25.223 560.873 25.223 557.926 C 25.223 555.92 24.2 553.315 23.117 550.557 C 21.906 547.479 20.656 544.297 20.656 541.656 L 20.656 301.891 C 21.514 297.917 23.843 295.233 25.657 294.421 C 25.939 294.292 26.12 294.016 26.12 293.708 C 26.12 293.399 25.939 293.12 25.657 292.993 C 23.843 292.183 21.514 289.497 20.656 285.525 L 20.656 35.759 C 20.656 33.118 21.906 29.935 23.117 26.856 C 24.2 24.101 25.223 21.495 25.223 19.489 C 25.223 16.542 22.824 14.144 19.875 14.144 C 16.926 14.144 14.527 16.542 14.527 19.489 Z" fill="#414042" stroke="none"/><path d="M 38.359 8.323 C 38.369 8.36 38.369 8.399 38.379 8.438 C 39.399 14.473 49.169 15.709 65.419 15.709 L 203.479 15.709 C 203.909 15.709 204.259 15.359 204.259 14.927 C 204.259 14.495 203.909 14.145 203.479 14.145 L 74.549 14.145 C 55.889 14.145 48.959 12.304 48.959 7.346 C 48.959 4.398 46.559 2 43.609 2 C 40.769 2 38.459 4.237 38.289 7.041 C 38.249 7.134 38.229 7.237 38.229 7.346 C 38.229 7.428 38.239 7.504 38.269 7.578 C 38.279 7.84 38.329 8.078 38.359 8.323 Z" fill="#414042" stroke="none"/><path d="M 203.479 24.041 L 65.419 24.041 C 48.219 24.041 38.259 25.41 38.259 32.403 C 38.259 35.352 40.659 37.75 43.609 37.75 C 46.559 37.75 48.959 35.352 48.959 32.403 C 48.959 27.446 55.889 25.604 74.549 25.604 L 203.479 25.604 C 203.909 25.604 204.259 25.255 204.259 24.823 C 204.259 24.391 203.909 24.041 203.479 24.041 Z" fill="#414042" stroke="none"/><path d="M 234.909 15.709 L 372.969 15.709 C 389.219 15.709 398.979 14.473 400.009 8.438 C 400.019 8.399 400.019 8.36 400.019 8.323 C 400.059 8.078 400.109 7.84 400.119 7.578 C 400.139 7.504 400.149 7.428 400.149 7.346 C 400.149 7.237 400.129 7.134 400.089 7.041 C 399.929 4.237 397.619 2 394.779 2 C 391.829 2 389.429 4.398 389.429 7.346 C 389.429 12.304 382.489 14.145 363.839 14.145 L 234.909 14.145 C 234.479 14.145 234.129 14.495 234.129 14.927 C 234.129 15.359 234.479 15.709 234.909 15.709 Z" fill="#414042" stroke="none"/><path d="M 372.969 24.041 L 234.909 24.041 C 234.479 24.041 234.129 24.391 234.129 24.823 C 234.129 25.255 234.479 25.604 234.909 25.604 L 363.839 25.604 C 382.489 25.604 389.429 27.446 389.429 32.403 C 389.429 35.352 391.829 37.75 394.779 37.75 C 397.729 37.75 400.119 35.352 400.119 32.403 C 400.119 25.41 390.169 24.041 372.969 24.041 Z" fill="#414042" stroke="none"/><path d="M 418.489 14.526 C 416.489 14.526 413.879 15.55 411.129 16.633 C 408.049 17.844 404.869 19.094 402.229 19.094 L 227.459 19.094 C 223.489 18.235 220.809 15.906 219.999 14.093 C 219.869 13.811 219.589 13.63 219.279 13.63 C 219.249 13.63 219.219 13.64 219.189 13.643 C 219.159 13.64 219.139 13.63 219.109 13.63 C 218.799 13.63 218.519 13.811 218.389 14.093 C 217.579 15.906 214.899 18.235 210.919 19.094 L 36.159 19.094 C 33.519 19.094 30.337 17.844 27.258 16.633 C 24.503 15.55 21.897 14.526 19.891 14.526 C 16.944 14.526 14.546 16.926 14.546 19.875 C 14.546 22.823 16.944 25.223 19.891 25.223 C 21.897 25.223 24.503 24.2 27.258 23.117 C 30.337 21.906 33.519 20.656 36.159 20.656 L 210.919 20.656 C 214.899 21.515 217.579 23.846 218.389 25.659 C 218.529 25.969 218.869 26.096 219.189 26.064 C 219.519 26.096 219.859 25.969 219.999 25.659 C 220.809 23.846 223.489 21.515 227.459 20.656 L 402.229 20.656 C 404.869 20.656 408.049 21.906 411.129 23.117 C 413.879 24.2 416.489 25.223 418.489 25.223 C 421.439 25.223 423.839 22.823 423.839 19.875 C 423.839 16.926 421.439 14.526 418.489 14.526 Z" fill="#414042" stroke="none"/><path d="M 38.359 546.326 C 38.369 546.363 38.369 546.402 38.379 546.44 C 39.399 552.476 49.169 553.712 65.419 553.712 L 203.479 553.712 C 203.909 553.712 204.259 553.362 204.259 552.93 C 204.259 552.498 203.909 552.148 203.479 552.148 L 74.549 552.148 C 55.889 552.148 48.959 550.307 48.959 545.349 C 48.959 542.4 46.559 540.003 43.609 540.003 C 40.769 540.003 38.459 542.24 38.289 545.044 C 38.249 545.137 38.229 545.24 38.229 545.349 C 38.229 545.431 38.239 545.507 38.269 545.581 C 38.279 545.843 38.329 546.081 38.359 546.326 Z" fill="#414042" stroke="none"/><path d="M 203.479 562.044 L 65.419 562.044 C 48.219 562.044 38.259 563.413 38.259 570.406 C 38.259 573.355 40.659 575.753 43.609 575.753 C 46.559 575.753 48.959 573.355 48.959 570.406 C 48.959 565.449 55.889 563.607 74.549 563.607 L 203.479 563.607 C 203.909 563.607 204.259 563.258 204.259 562.826 C 204.259 562.394 203.909 562.044 203.479 562.044 Z" fill="#414042" stroke="none"/><path d="M 234.909 553.712 L 372.969 553.712 C 389.219 553.712 398.979 552.476 400.009 546.44 C 400.019 546.402 400.019 546.363 400.019 546.326 C 400.059 546.081 400.109 545.843 400.119 545.581 C 400.139 545.507 400.149 545.431 400.149 545.349 C 400.149 545.24 400.129 545.137 400.089 545.044 C 399.929 542.24 397.619 540.003 394.779 540.003 C 391.829 540.003 389.429 542.4 389.429 545.349 C 389.429 550.307 382.489 552.148 363.839 552.148 L 234.909 552.148 C 234.479 552.148 234.129 552.498 234.129 552.93 C 234.129 553.362 234.479 553.712 234.909 553.712 Z" fill="#414042" stroke="none"/><path d="M 372.969 562.044 L 234.909 562.044 C 234.479 562.044 234.129 562.394 234.129 562.826 C 234.129 563.258 234.479 563.607 234.909 563.607 L 363.839 563.607 C 382.489 563.607 389.429 565.449 389.429 570.406 C 389.429 573.355 391.829 575.753 394.779 575.753 C 397.729 575.753 400.119 573.355 400.119 570.406 C 400.119 563.413 390.169 562.044 372.969 562.044 Z" fill="#414042" stroke="none"/><path d="M 418.489 552.529 C 416.489 552.529 413.879 553.553 411.129 554.636 C 408.049 555.847 404.869 557.097 402.229 557.097 L 227.459 557.097 C 223.489 556.238 220.809 553.909 219.999 552.096 C 219.869 551.814 219.589 551.633 219.279 551.633 C 219.249 551.633 219.219 551.643 219.189 551.647 C 219.159 551.643 219.139 551.633 219.109 551.633 C 218.799 551.633 218.519 551.814 218.389 552.096 C 217.579 553.909 214.899 556.238 210.919 557.097 L 36.159 557.097 C 33.519 557.097 30.337 555.847 27.258 554.636 C 24.503 553.553 21.897 552.529 19.891 552.529 C 16.944 552.529 14.546 554.929 14.546 557.878 C 14.546 560.826 16.944 563.226 19.891 563.226 C 21.897 563.226 24.503 562.203 27.258 561.121 C 30.337 559.909 33.519 558.659 36.159 558.659 L 210.919 558.659 C 214.899 559.518 217.579 561.849 218.389 563.662 C 218.529 563.972 218.869 564.099 219.189 564.067 C 219.519 564.099 219.859 563.972 219.999 563.662 C 220.809 561.849 223.489 559.518 227.459 558.659 L 402.229 558.659 C 404.869 558.659 408.049 559.909 411.129 561.121 C 413.879 562.203 416.489 563.226 418.489 563.226 C 421.439 563.226 423.839 560.826 423.839 557.878 C 423.839 554.929 421.439 552.529 418.489 552.529 Z" fill="#414042" stroke="none"/><path d="M 422.609 309.333 L 422.609 512.402 C 422.609 529.598 423.979 539.555 430.979 539.555 C 433.919 539.555 436.319 537.156 436.319 534.205 C 436.319 531.26 433.919 528.859 430.979 528.859 C 426.019 528.859 424.179 521.924 424.179 503.27 L 424.179 309.333 C 424.179 308.903 423.829 308.553 423.389 308.553 C 422.959 308.553 422.609 308.903 422.609 309.333 Z" fill="#414042" stroke="none"/><path d="M 430.739 37.864 C 430.479 37.872 430.239 37.923 429.999 37.96 C 429.959 37.966 429.919 37.966 429.879 37.974 C 423.849 39.001 422.609 48.762 422.609 65.012 L 422.609 278.079 C 422.609 278.511 422.959 278.86 423.389 278.86 C 423.829 278.86 424.179 278.511 424.179 278.079 L 424.179 74.143 C 424.179 55.489 426.019 48.553 430.979 48.553 C 433.919 48.553 436.319 46.155 436.319 43.206 C 436.319 40.362 434.079 38.054 431.279 37.892 C 431.189 37.851 431.079 37.829 430.979 37.829 C 430.889 37.829 430.819 37.841 430.739 37.864 Z" fill="#414042" stroke="none"/><path d="M 414.279 512.402 L 414.279 309.333 C 414.279 308.903 413.929 308.553 413.499 308.553 C 413.069 308.553 412.719 308.903 412.719 309.333 L 412.719 503.27 C 412.719 521.924 410.869 528.859 405.919 528.859 C 402.969 528.859 400.569 531.26 400.569 534.205 C 400.569 537.156 402.969 539.555 405.919 539.555 C 412.909 539.555 414.279 529.598 414.279 512.402 Z" fill="#414042" stroke="none"/><path d="M 414.279 278.079 L 414.279 65.012 C 414.279 47.815 412.909 37.86 405.919 37.86 C 402.969 37.86 400.569 40.259 400.569 43.206 C 400.569 46.155 402.969 48.553 405.919 48.553 C 410.869 48.553 412.719 55.489 412.719 74.143 L 412.719 278.079 C 412.719 278.511 413.069 278.86 413.499 278.86 C 413.929 278.86 414.279 278.511 414.279 278.079 Z" fill="#414042" stroke="none"/><path d="M 413.099 19.489 C 413.099 21.495 414.119 24.101 415.199 26.856 C 416.409 29.935 417.659 33.118 417.659 35.759 L 417.659 285.525 C 416.809 289.499 414.479 292.183 412.659 292.993 C 412.099 293.247 412.099 294.167 412.659 294.421 C 414.479 295.231 416.809 297.915 417.659 301.891 L 417.659 541.656 C 417.659 544.297 416.409 547.479 415.199 550.557 C 414.119 553.315 413.099 555.92 413.099 557.926 C 413.099 560.873 415.499 563.272 418.449 563.272 C 421.399 563.272 423.789 560.873 423.789 557.926 C 423.789 555.92 422.769 553.315 421.689 550.557 C 420.479 547.479 419.229 544.297 419.229 541.656 L 419.229 301.891 C 420.089 297.917 422.409 295.233 424.229 294.421 C 424.509 294.292 424.689 294.016 424.689 293.708 C 424.689 293.399 424.509 293.12 424.229 292.993 C 422.409 292.183 420.089 289.497 419.229 285.525 L 419.229 35.759 C 419.229 33.118 420.479 29.935 421.689 26.856 C 422.769 24.101 423.789 21.495 423.789 19.489 C 423.789 16.542 421.399 14.144 418.449 14.144 C 415.499 14.144 413.099 16.542 413.099 19.489 Z" fill="#414042" stroke="none"/>
</svg>
