<?xml version="1.0" encoding="UTF-8"?>
<svg xmlns="http://www.w3.org/2000/svg" width="390.370" height="538.647" viewBox="0 0 390.370 538.647">
  <path d="M 354.422 28.022 C 354.541 28.148 354.73 28.174 354.877 28.085 C 355.024 27.999 355.089 27.82 355.042 27.658 C 354.86 27.097 354.67 26.221 354.67 25.435 C 354.67 24.889 354.764 24.465 354.945 24.212 C 355.316 23.69 355.901 23.355 356.594 23.266 C 357.455 23.158 358.371 23.453 359.11 24.074 C 359.622 24.509 360.234 25.302 360.234 26.62 C 360.234 27.966 359.567 30.239 356.391 33.415 C 356.386 33.42 356.384 33.428 356.378 33.433 C 356.348 33.466 356.325 33.5 356.307 33.542 C 356.306 33.547 356.306 33.551 356.304 33.555 C 356.29 33.594 356.272 33.632 356.272 33.676 C 356.272 33.786 356.322 33.871 356.395 33.934 C 356.457 34.008 356.544 34.057 356.651 34.057 C 356.696 34.057 356.735 34.039 356.774 34.025 C 356.779 34.023 356.782 34.023 356.785 34.022 C 356.828 34.005 356.863 33.979 356.898 33.949 C 356.901 33.943 356.908 33.942 356.914 33.937 C 360.09 30.762 362.361 30.094 363.708 30.094 C 365.026 30.094 365.818 30.705 366.254 31.219 C 366.876 31.957 367.171 32.874 367.061 33.734 C 366.973 34.427 366.637 35.014 366.116 35.384 C 365.863 35.564 365.442 35.66 364.893 35.66 C 364.108 35.66 363.232 35.468 362.672 35.287 C 362.508 35.239 362.329 35.305 362.243 35.451 C 362.156 35.598 362.181 35.787 362.306 35.906 C 364.297 37.794 366.744 38.655 368.176 38.655 C 368.365 38.655 368.543 38.641 368.703 38.612 C 368.333 40.39 369.27 41.819 370.109 43.099 C 370.659 43.943 371.182 44.742 371.317 45.573 C 371.502 46.707 370.966 49.879 368.607 50.638 C 368.46 50.686 368.358 50.82 368.352 50.975 C 368.346 51.129 368.437 51.271 368.583 51.33 C 369.032 51.511 369.521 51.603 370.033 51.603 C 372.556 51.603 375.149 49.448 376.408 47.32 C 377.132 46.095 380.504 39.558 375.778 30.973 C 373.652 27.109 369.736 25.732 366.781 25.732 C 365.789 25.732 364.897 25.886 364.164 26.164 C 364.442 25.431 364.595 24.54 364.595 23.549 C 364.595 20.593 363.219 16.677 359.356 14.549 C 350.771 9.824 344.233 13.195 343.008 13.92 C 340.881 15.179 338.726 17.774 338.726 20.294 C 338.726 20.808 338.818 21.296 338.999 21.745 C 339.057 21.891 339.199 21.983 339.353 21.975 C 339.508 21.972 339.642 21.869 339.69 21.722 C 340.448 19.36 343.621 18.827 344.755 19.012 C 345.587 19.146 346.386 19.669 347.229 20.222 C 348.51 21.059 349.939 21.996 351.716 21.625 C 351.687 21.787 351.673 21.962 351.673 22.153 C 351.673 23.584 352.533 26.031 354.422 28.022 Z" fill="#414042" stroke="none"/><path d="M 374.665 21.085 C 376.552 19.196 376.923 16.507 375.493 15.08 C 374.065 13.649 371.377 14.02 369.488 15.909 C 367.601 17.796 367.23 20.485 368.659 21.914 C 370.088 23.343 372.777 22.972 374.665 21.085 Z" fill="#414042" stroke="none"/><path d="M 312.03 16.93 C 311.234 10.306 306.123 5.679 299.603 5.679 C 293.465 5.679 290.135 10.11 290.019 14.488 C 289.919 18.71 292.661 21.82 296.655 22.037 C 298.241 22.121 299.593 21.445 300.366 20.181 C 301.402 18.478 301.016 16.42 300.352 15.651 C 299.916 15.144 299.282 14.854 298.613 14.854 C 297.349 14.854 296.32 15.883 296.32 17.146 C 296.32 17.635 296.48 18.106 296.783 18.511 L 297.492 19.458 L 296.321 19.289 C 293.579 18.892 292.679 16.504 292.717 14.561 C 292.797 11.584 294.986 8.38 299.603 8.38 C 305.31 8.38 309.451 12.724 309.451 18.71 C 309.451 22.062 308.086 24.916 305.607 26.746 C 302.341 29.151 297.589 29.561 292.226 27.9 C 286.22 26.038 279.692 22.036 273.348 16.326 L 273.348 16.326 L 272.964 15.98 L 258.997 15.98 L 258.946 15.547 C 258.047 7.824 251.502 2 243.72 2 L 146.65 2 C 138.868 2 132.322 7.824 131.423 15.547 L 131.373 15.98 L 117.406 15.98 L 117.022 16.326 L 117.022 16.326 C 110.678 22.036 104.15 26.038 98.144 27.9 C 92.781 29.561 88.028 29.151 84.763 26.746 C 82.284 24.916 80.919 22.062 80.919 18.71 C 80.919 12.724 85.06 8.38 90.767 8.38 C 95.383 8.38 97.572 11.584 97.653 14.561 C 97.691 16.504 96.791 18.892 94.049 19.289 L 92.878 19.458 L 93.587 18.511 C 93.89 18.106 94.05 17.635 94.05 17.146 C 94.05 15.883 93.021 14.854 91.757 14.854 C 91.088 14.854 90.454 15.144 90.018 15.651 C 89.354 16.42 88.967 18.478 90.004 20.181 C 90.777 21.445 92.13 22.121 93.715 22.037 C 97.709 21.82 100.451 18.71 100.351 14.488 C 100.235 10.11 96.904 5.679 90.767 5.679 C 84.247 5.679 79.136 10.306 78.34 16.93 L 78.288 17.361 L 64.368 17.361 C 64.561 18.234 64.688 19.138 64.745 20.059 L 78.278 20.059 L 78.331 20.489 C 78.76 23.992 80.43 26.906 83.162 28.918 C 87.134 31.847 92.739 32.401 98.944 30.478 C 105.142 28.557 111.836 24.519 118.3 18.803 L 118.439 18.68 L 134.02 18.68 L 134.02 17.33 C 134.02 10.366 139.686 4.7 146.65 4.7 L 156.918 4.7 L 233.452 4.7 L 243.72 4.7 C 250.684 4.7 256.35 10.366 256.35 17.33 L 256.35 18.68 L 271.931 18.68 L 272.07 18.803 C 278.534 24.519 285.228 28.557 291.426 30.478 C 297.63 32.401 303.235 31.847 307.208 28.918 C 309.94 26.906 311.609 23.992 312.039 20.489 L 312.091 20.059 L 325.625 20.059 C 325.683 19.138 325.809 18.234 326.002 17.361 L 312.082 17.361 L 312.03 16.93 Z" fill="#414042" stroke="none"/><path d="M 388.37 146.65 C 388.37 138.867 382.547 132.321 374.824 131.424 L 374.391 131.374 L 374.391 117.405 L 374.044 117.018 C 368.334 110.675 364.332 104.148 362.47 98.145 C 360.809 92.78 361.219 88.029 363.625 84.765 C 365.451 82.285 368.305 80.919 371.66 80.919 C 377.646 80.919 381.99 85.061 381.99 90.767 C 381.99 95.384 378.787 97.573 375.81 97.653 C 373.876 97.704 371.478 96.79 371.081 94.048 L 370.911 92.875 L 371.859 93.586 C 372.263 93.889 372.735 94.05 373.225 94.05 C 374.488 94.05 375.517 93.022 375.517 91.757 C 375.517 91.09 375.226 90.457 374.72 90.019 C 373.95 89.354 371.894 88.966 370.189 90.005 C 368.925 90.776 368.245 92.129 368.333 93.715 C 368.549 97.711 371.655 100.44 375.885 100.352 C 380.26 100.235 384.692 96.905 384.692 90.767 C 384.692 84.248 380.065 79.138 373.442 78.34 L 373.01 78.288 L 373.01 64.368 C 372.136 64.562 371.232 64.688 370.31 64.745 L 370.31 78.279 L 369.88 78.332 C 366.38 78.76 363.465 80.431 361.452 83.162 C 358.523 87.133 357.968 92.739 359.891 98.944 C 361.813 105.142 365.851 111.835 371.568 118.3 L 371.691 118.439 L 371.691 134.021 L 373.04 134.021 C 380.005 134.021 385.671 139.686 385.671 146.65 L 385.671 195.648 L 385.671 342.997 L 385.671 391.997 C 385.671 398.957 380.005 404.627 373.04 404.627 L 371.691 404.627 L 371.691 420.207 L 371.568 420.347 C 365.851 426.807 361.813 433.507 359.891 439.707 C 357.968 445.907 358.523 451.517 361.452 455.487 C 363.465 458.217 366.38 459.887 369.88 460.317 L 370.31 460.367 L 370.31 473.897 C 371.232 473.957 372.136 474.087 373.01 474.277 L 373.01 460.357 L 373.442 460.307 C 380.065 459.507 384.692 454.397 384.692 447.877 C 384.692 441.737 380.26 438.407 375.885 438.297 C 371.655 438.207 368.549 440.937 368.333 444.937 C 368.245 446.517 368.925 447.867 370.189 448.647 C 371.894 449.677 373.95 449.297 374.72 448.627 C 375.226 448.187 375.517 447.557 375.517 446.887 C 375.517 445.627 374.488 444.597 373.225 444.597 C 372.735 444.597 372.263 444.757 371.859 445.057 L 370.911 445.777 L 371.081 444.597 C 371.478 441.857 373.876 440.947 375.81 440.997 C 378.787 441.077 381.99 443.267 381.99 447.877 C 381.99 453.587 377.646 457.727 371.66 457.727 C 368.305 457.727 365.451 456.357 363.625 453.887 C 361.219 450.617 360.809 445.867 362.47 440.507 C 364.332 434.497 368.334 427.977 374.044 421.627 L 374.391 421.237 L 374.391 407.277 L 374.824 407.227 C 382.547 406.327 388.37 399.777 388.37 391.997 L 388.37 146.65 Z" fill="#414042" stroke="none"/><path d="M 343.137 37.038 C 346.05 37.233 348.933 36.664 350.834 34.965 C 352.348 33.612 353.027 31.37 352.389 29.378 C 351.816 27.385 350.02 26.144 348.085 25.661 C 346.15 25.176 343.575 25.499 342.404 27.318 C 342.345 27.41 341.319 29.15 342.657 30.306 C 343.052 30.646 343.652 30.761 344.255 30.687 C 345.411 30.546 346.25 29.626 346.126 28.635 C 346.04 27.917 345.471 27.365 344.726 27.164 C 346.185 26.931 347.856 27.586 348.738 28.705 C 350.053 30.369 349.176 32.689 347.195 33.469 C 342.494 35.317 338.021 33.097 336.493 31.911 C 332.243 28.611 331.882 23.641 332.526 20.06 C 333.46 14.866 340.057 5.922 358.368 9.715 C 359.727 9.996 361.074 10.32 362.444 10.538 C 366.986 11.258 371.676 11.288 376.144 10.091 C 378.672 9.413 381.263 8.308 383.532 6.801 C 382.012 9.061 380.892 11.645 380.198 14.17 C 378.974 18.63 378.976 23.32 379.669 27.867 C 379.878 29.238 380.194 30.587 380.467 31.948 C 384.15 50.281 375.166 56.825 369.966 57.727 C 366.381 58.349 361.414 57.958 358.14 53.688 C 356.964 52.154 354.77 47.666 356.647 42.978 C 357.438 41.001 359.764 40.138 361.42 41.462 C 362.533 42.353 363.178 44.027 362.936 45.484 C 362.74 44.738 362.191 44.165 361.474 44.075 C 360.483 43.945 359.558 44.779 359.41 45.935 C 359.333 46.537 359.443 47.137 359.782 47.534 C 360.929 48.879 362.676 47.864 362.768 47.805 C 364.594 46.645 364.933 44.072 364.46 42.135 C 363.987 40.197 362.757 38.393 360.768 37.808 C 358.78 37.158 356.534 37.823 355.172 39.329 C 353.462 41.22 352.875 44.1 353.054 47.014 C 353.868 60.314 366.036 64.294 375.636 60.591 C 378.759 59.267 381.401 56.93 383.342 54.148 C 384.613 52.328 389.172 44.756 385.108 29.363 C 384.808 28.229 383.284 22.032 383.59 15.138 C 383.699 12.69 383.961 10.255 384.858 7.97 C 385.885 5.354 387.255 3.835 387.305 3.408 C 387.32 3.283 387.28 3.198 387.216 3.14 C 387.159 3.076 387.073 3.035 386.948 3.049 C 386.521 3.097 384.993 4.457 382.372 5.469 C 380.081 6.353 377.644 6.599 375.196 6.693 C 368.301 6.958 362.113 5.396 360.981 5.09 C 345.612 0.933 338.013 5.446 336.185 6.706 C 333.392 8.631 331.039 11.258 329.696 14.373 C 325.936 23.951 329.842 36.143 343.137 37.038 Z" fill="#414042" stroke="none"/><path d="M 35.493 28.085 C 35.64 28.174 35.829 28.148 35.947 28.022 C 37.837 26.031 38.697 23.584 38.697 22.153 C 38.697 21.962 38.683 21.787 38.653 21.625 C 40.431 21.996 41.86 21.059 43.141 20.222 C 43.984 19.669 44.783 19.146 45.614 19.012 C 46.749 18.827 49.922 19.36 50.68 21.722 C 50.728 21.869 50.861 21.972 51.017 21.975 C 51.171 21.983 51.313 21.891 51.371 21.745 C 51.552 21.296 51.644 20.808 51.644 20.294 C 51.644 17.774 49.489 15.179 47.361 13.92 C 46.137 13.195 39.599 9.824 31.014 14.549 C 27.151 16.677 25.775 20.593 25.775 23.549 C 25.775 24.54 25.929 25.431 26.207 26.164 C 25.474 25.886 24.582 25.732 23.589 25.732 C 20.634 25.732 16.718 27.109 14.592 30.973 C 9.867 39.558 13.238 46.095 13.962 47.32 C 15.221 49.448 17.814 51.603 20.337 51.603 C 20.85 51.603 21.338 51.511 21.788 51.33 C 21.934 51.271 22.024 51.129 22.019 50.975 C 22.012 50.82 21.91 50.686 21.764 50.638 C 19.404 49.879 18.869 46.707 19.054 45.573 C 19.188 44.742 19.711 43.943 20.261 43.099 C 21.101 41.819 22.037 40.39 21.667 38.612 C 21.828 38.641 22.005 38.655 22.194 38.655 C 23.626 38.655 26.073 37.794 28.064 35.906 C 28.189 35.787 28.214 35.598 28.127 35.451 C 28.041 35.305 27.862 35.239 27.698 35.287 C 27.139 35.468 26.263 35.66 25.477 35.66 C 24.929 35.66 24.508 35.564 24.254 35.384 C 23.733 35.014 23.397 34.427 23.309 33.734 C 23.2 32.874 23.495 31.957 24.116 31.219 C 24.552 30.705 25.345 30.094 26.663 30.094 C 28.009 30.094 30.279 30.762 33.456 33.937 C 33.462 33.942 33.469 33.943 33.473 33.949 C 33.507 33.979 33.542 34.005 33.585 34.022 C 33.588 34.023 33.591 34.023 33.596 34.025 C 33.634 34.039 33.674 34.057 33.718 34.057 C 33.826 34.057 33.913 34.008 33.975 33.934 C 34.048 33.871 34.098 33.786 34.098 33.676 C 34.098 33.632 34.08 33.594 34.066 33.555 C 34.064 33.551 34.064 33.547 34.063 33.542 C 34.045 33.5 34.022 33.466 33.992 33.433 C 33.986 33.428 33.984 33.42 33.979 33.415 C 30.803 30.239 30.136 27.966 30.136 26.62 C 30.136 25.302 30.748 24.509 31.26 24.074 C 31.999 23.453 32.915 23.158 33.776 23.266 C 34.469 23.355 35.054 23.69 35.425 24.212 C 35.606 24.465 35.7 24.889 35.7 25.435 C 35.7 26.221 35.51 27.097 35.328 27.658 C 35.28 27.82 35.346 27.999 35.493 28.085 Z" fill="#414042" stroke="none"/><path d="M 21.711 21.914 C 23.14 20.485 22.769 17.796 20.882 15.909 C 18.994 14.02 16.306 13.649 14.877 15.08 C 13.447 16.507 13.818 19.196 15.706 21.085 C 17.593 22.972 20.282 23.343 21.711 21.914 Z" fill="#414042" stroke="none"/><path d="M 54.185 6.706 C 52.357 5.446 44.758 0.933 29.389 5.09 C 28.257 5.396 22.069 6.958 15.174 6.693 C 12.726 6.599 10.29 6.353 7.998 5.469 C 5.377 4.457 3.849 3.097 3.422 3.049 C 3.297 3.035 3.212 3.076 3.155 3.14 C 3.09 3.198 3.05 3.283 3.065 3.408 C 3.116 3.835 4.485 5.354 5.512 7.97 C 6.41 10.255 6.671 12.69 6.78 15.138 C 7.086 22.032 5.562 28.229 5.263 29.363 C 1.198 44.756 5.757 52.328 7.028 54.148 C 8.97 56.93 11.611 59.267 14.734 60.591 C 24.334 64.294 36.502 60.314 37.316 47.014 C 37.495 44.1 36.908 41.22 35.197 39.329 C 33.836 37.823 31.59 37.158 29.602 37.808 C 27.613 38.393 26.383 40.197 25.91 42.135 C 25.438 44.072 25.776 46.645 27.602 47.805 C 27.694 47.864 29.441 48.879 30.588 47.534 C 30.926 47.137 31.037 46.537 30.96 45.935 C 30.812 44.779 29.887 43.945 28.896 44.075 C 28.18 44.165 27.63 44.738 27.434 45.484 C 27.192 44.027 27.837 42.353 28.95 41.462 C 30.606 40.138 32.932 41.001 33.723 42.978 C 35.6 47.666 33.406 52.154 32.23 53.688 C 28.956 57.958 23.989 58.349 20.404 57.727 C 15.204 56.825 6.221 50.281 9.903 31.948 C 10.176 30.587 10.492 29.238 10.701 27.867 C 11.394 23.32 11.396 18.63 10.172 14.17 C 9.479 11.645 8.358 9.061 6.838 6.801 C 9.107 8.308 11.698 9.413 14.227 10.091 C 18.694 11.288 23.384 11.258 27.926 10.538 C 29.296 10.32 30.643 9.996 32.002 9.715 C 50.313 5.922 56.911 14.866 57.844 20.06 C 58.488 23.641 58.127 28.611 53.877 31.911 C 52.349 33.097 47.876 35.317 43.175 33.469 C 41.194 32.689 40.317 30.369 41.632 28.705 C 42.514 27.586 44.185 26.931 45.644 27.164 C 44.899 27.365 44.33 27.917 44.244 28.635 C 44.12 29.626 44.96 30.546 46.115 30.687 C 46.718 30.761 47.318 30.646 47.713 30.306 C 49.051 29.15 48.025 27.41 47.966 27.318 C 46.795 25.499 44.22 25.176 42.285 25.661 C 40.351 26.144 38.554 27.385 37.981 29.378 C 37.342 31.37 38.022 33.612 39.536 34.965 C 41.437 36.664 44.32 37.233 47.233 37.038 C 60.527 36.143 64.434 23.951 60.674 14.373 C 59.331 11.258 56.978 8.631 54.185 6.706 Z" fill="#414042" stroke="none"/><path d="M 354.877 510.557 C 354.73 510.477 354.541 510.497 354.422 510.627 C 352.533 512.617 351.673 515.067 351.673 516.497 C 351.673 516.687 351.687 516.857 351.716 517.027 C 349.939 516.647 348.51 517.587 347.229 518.427 C 346.386 518.977 345.587 519.497 344.755 519.637 C 343.621 519.817 340.448 519.287 339.69 516.927 C 339.642 516.777 339.508 516.677 339.353 516.667 C 339.199 516.667 339.057 516.757 338.999 516.897 C 338.818 517.347 338.726 517.837 338.726 518.357 C 338.726 520.877 340.881 523.467 343.008 524.727 C 344.233 525.447 350.771 528.827 359.356 524.097 C 363.219 521.967 364.595 518.057 364.595 515.097 C 364.595 514.107 364.442 513.217 364.164 512.487 C 364.897 512.757 365.789 512.917 366.781 512.917 C 369.736 512.917 373.652 511.537 375.778 507.677 C 380.504 499.087 377.132 492.557 376.408 491.327 C 375.149 489.197 372.556 487.047 370.033 487.047 C 369.521 487.047 369.032 487.137 368.583 487.317 C 368.437 487.377 368.346 487.517 368.352 487.667 C 368.358 487.827 368.46 487.957 368.607 488.007 C 370.966 488.767 371.502 491.937 371.317 493.077 C 371.182 493.907 370.659 494.707 370.109 495.547 C 369.27 496.827 368.333 498.257 368.703 500.037 C 368.543 500.007 368.365 499.987 368.176 499.987 C 366.744 499.987 364.297 500.857 362.306 502.737 C 362.181 502.857 362.156 503.047 362.243 503.197 C 362.329 503.347 362.508 503.407 362.672 503.357 C 363.232 503.177 364.108 502.987 364.893 502.987 C 365.442 502.987 365.863 503.087 366.116 503.267 C 366.637 503.637 366.973 504.217 367.061 504.917 C 367.171 505.777 366.876 506.687 366.254 507.427 C 365.818 507.937 365.026 508.557 363.708 508.557 C 362.361 508.557 360.09 507.887 356.914 504.707 C 356.908 504.707 356.901 504.707 356.898 504.697 C 356.863 504.667 356.828 504.647 356.785 504.627 C 356.782 504.627 356.779 504.627 356.774 504.617 C 356.735 504.607 356.696 504.587 356.651 504.587 C 356.544 504.587 356.457 504.637 356.395 504.717 C 356.322 504.777 356.272 504.857 356.272 504.967 C 356.272 505.017 356.29 505.057 356.304 505.097 C 356.306 505.097 356.306 505.097 356.307 505.107 C 356.325 505.147 356.348 505.177 356.378 505.217 C 356.384 505.217 356.386 505.227 356.391 505.227 C 359.567 508.407 360.234 510.677 360.234 512.027 C 360.234 513.347 359.622 514.137 359.11 514.577 C 358.371 515.197 357.455 515.487 356.594 515.377 C 355.901 515.287 355.316 514.957 354.945 514.437 C 354.764 514.177 354.67 513.757 354.67 513.207 C 354.67 512.427 354.86 511.547 355.042 510.987 C 355.089 510.827 355.024 510.647 354.877 510.557 Z" fill="#414042" stroke="none"/><path d="M 368.659 516.737 C 367.23 518.157 367.601 520.847 369.488 522.737 C 371.377 524.627 374.065 524.997 375.493 523.567 C 376.923 522.137 376.552 519.447 374.665 517.567 C 372.777 515.677 370.088 515.307 368.659 516.737 Z" fill="#414042" stroke="none"/><path d="M 312.091 518.587 L 312.039 518.157 C 311.609 514.657 309.94 511.737 307.208 509.727 C 303.235 506.797 297.63 506.247 291.426 508.167 C 285.228 510.087 278.534 514.127 272.07 519.847 L 271.931 519.967 L 256.35 519.967 L 256.35 521.317 C 256.35 528.277 250.684 533.947 243.72 533.947 L 233.452 533.947 L 156.918 533.947 L 146.65 533.947 C 139.686 533.947 134.02 528.277 134.02 521.317 L 134.02 519.967 L 118.439 519.967 L 118.3 519.847 C 111.836 514.127 105.142 510.087 98.944 508.167 C 92.739 506.247 87.134 506.797 83.162 509.727 C 80.43 511.737 78.76 514.657 78.331 518.157 L 78.278 518.587 L 64.745 518.587 C 64.688 519.507 64.561 520.417 64.368 521.287 L 78.288 521.287 L 78.34 521.717 C 79.136 528.337 84.247 532.967 90.767 532.967 C 96.904 532.967 100.235 528.537 100.351 524.157 C 100.451 519.937 97.709 516.827 93.715 516.607 C 92.13 516.527 90.777 517.197 90.004 518.467 C 88.967 520.167 89.354 522.227 90.018 522.997 C 90.454 523.507 91.088 523.797 91.757 523.797 C 93.021 523.797 94.05 522.767 94.05 521.497 C 94.05 521.017 93.89 520.537 93.587 520.137 L 92.878 519.187 L 94.049 519.357 C 96.791 519.757 97.691 522.147 97.653 524.087 C 97.572 527.067 95.383 530.267 90.767 530.267 C 85.06 530.267 80.919 525.927 80.919 519.937 C 80.919 516.587 82.284 513.727 84.763 511.897 C 88.028 509.497 92.781 509.087 98.144 510.747 C 104.15 512.607 110.678 516.607 117.022 522.317 L 117.022 522.317 L 117.406 522.667 L 131.373 522.667 L 131.423 523.097 C 132.322 530.827 138.868 536.647 146.65 536.647 L 243.72 536.647 C 251.502 536.647 258.047 530.827 258.946 523.097 L 258.997 522.667 L 272.964 522.667 L 273.348 522.317 L 273.348 522.317 C 279.692 516.607 286.22 512.607 292.226 510.747 C 297.589 509.087 302.341 509.497 305.607 511.897 C 308.086 513.727 309.451 516.587 309.451 519.937 C 309.451 525.927 305.31 530.267 299.603 530.267 C 294.986 530.267 292.797 527.067 292.717 524.087 C 292.679 522.147 293.579 519.757 296.321 519.357 L 297.492 519.187 L 296.783 520.137 C 296.48 520.537 296.32 521.017 296.32 521.497 C 296.32 522.767 297.349 523.797 298.613 523.797 C 299.282 523.797 299.916 523.507 300.352 522.997 C 301.016 522.227 301.402 520.167 300.366 518.467 C 299.593 517.197 298.241 516.527 296.655 516.607 C 292.661 516.827 289.919 519.937 290.019 524.157 C 290.135 528.537 293.465 532.967 299.603 532.967 C 306.123 532.967 311.234 528.337 312.03 521.717 L 312.082 521.287 L 326.002 521.287 C 325.809 520.417 325.683 519.507 325.625 518.587 L 312.091 518.587 Z" fill="#414042" stroke="none"/><path d="M 383.59 523.507 C 383.284 516.617 384.808 510.417 385.108 509.287 C 389.172 493.887 384.613 486.317 383.342 484.497 C 381.401 481.717 378.759 479.377 375.636 478.057 C 366.036 474.357 353.868 478.337 353.054 491.637 C 352.875 494.547 353.462 497.427 355.172 499.317 C 356.534 500.827 358.78 501.487 360.768 500.837 C 362.757 500.257 363.987 498.447 364.46 496.517 C 364.933 494.577 364.594 491.997 362.768 490.837 C 362.676 490.787 360.929 489.767 359.782 491.117 C 359.443 491.507 359.333 492.107 359.41 492.717 C 359.558 493.867 360.483 494.697 361.474 494.567 C 362.191 494.477 362.74 493.907 362.936 493.167 C 363.178 494.617 362.533 496.297 361.42 497.187 C 359.764 498.507 357.438 497.647 356.647 495.667 C 354.77 490.977 356.964 486.497 358.14 484.957 C 361.414 480.687 366.381 480.297 369.966 480.917 C 375.166 481.817 384.15 488.367 380.467 506.697 C 380.194 508.057 379.878 509.407 379.669 510.777 C 378.976 515.327 378.974 520.017 380.198 524.477 C 380.892 526.997 382.012 529.587 383.532 531.847 C 381.263 530.337 378.672 529.237 376.144 528.557 C 371.676 527.357 366.986 527.387 362.444 528.107 C 361.074 528.327 359.727 528.647 358.368 528.937 C 340.057 532.727 333.46 523.777 332.526 518.587 C 331.882 515.007 332.243 510.037 336.493 506.737 C 338.021 505.547 342.494 503.327 347.195 505.177 C 349.176 505.957 350.053 508.277 348.738 509.947 C 347.856 511.057 346.185 511.717 344.726 511.487 C 345.471 511.277 346.04 510.727 346.126 510.017 C 346.25 509.017 345.411 508.097 344.255 507.957 C 343.652 507.887 343.052 507.997 342.657 508.337 C 341.319 509.497 342.345 511.237 342.404 511.327 C 343.575 513.147 346.15 513.467 348.085 512.987 C 350.02 512.507 351.816 511.257 352.389 509.267 C 353.027 507.277 352.348 505.037 350.834 503.687 C 348.933 501.987 346.05 501.417 343.137 501.607 C 329.842 502.507 325.936 514.697 329.696 524.277 C 331.039 527.387 333.392 530.017 336.185 531.937 C 338.013 533.197 345.612 537.717 360.981 533.557 C 362.113 533.247 368.301 531.687 375.196 531.957 C 377.644 532.047 380.081 532.297 382.372 533.177 C 384.993 534.187 386.521 535.547 386.948 535.597 C 387.073 535.617 387.159 535.567 387.216 535.507 C 387.28 535.447 387.32 535.367 387.305 535.237 C 387.255 534.817 385.885 533.297 384.858 530.677 C 383.961 528.387 383.699 525.957 383.59 523.507 Z" fill="#414042" stroke="none"/><path d="M 35.947 510.627 C 35.829 510.497 35.64 510.477 35.493 510.557 C 35.346 510.647 35.28 510.827 35.328 510.987 C 35.51 511.547 35.7 512.427 35.7 513.207 C 35.7 513.757 35.606 514.177 35.425 514.437 C 35.054 514.957 34.469 515.287 33.776 515.377 C 32.915 515.487 31.999 515.197 31.26 514.577 C 30.748 514.137 30.136 513.347 30.136 512.027 C 30.136 510.677 30.803 508.407 33.979 505.227 C 33.984 505.227 33.986 505.217 33.992 505.217 C 34.022 505.177 34.045 505.147 34.063 505.107 C 34.064 505.097 34.064 505.097 34.066 505.097 C 34.08 505.057 34.098 505.017 34.098 504.967 C 34.098 504.857 34.048 504.777 33.975 504.717 C 33.913 504.637 33.826 504.587 33.718 504.587 C 33.674 504.587 33.634 504.607 33.596 504.617 C 33.591 504.627 33.588 504.627 33.585 504.627 C 33.542 504.647 33.507 504.667 33.473 504.697 C 33.469 504.707 33.462 504.707 33.456 504.707 C 30.279 507.887 28.009 508.557 26.663 508.557 C 25.345 508.557 24.552 507.937 24.116 507.427 C 23.495 506.687 23.2 505.777 23.309 504.917 C 23.397 504.217 23.733 503.637 24.254 503.267 C 24.508 503.087 24.929 502.987 25.477 502.987 C 26.263 502.987 27.139 503.177 27.698 503.357 C 27.862 503.407 28.041 503.347 28.127 503.197 C 28.214 503.047 28.189 502.857 28.064 502.737 C 26.073 500.857 23.626 499.987 22.194 499.987 C 22.005 499.987 21.828 500.007 21.667 500.037 C 22.037 498.257 21.101 496.827 20.261 495.547 C 19.711 494.707 19.188 493.907 19.054 493.077 C 18.869 491.937 19.404 488.767 21.764 488.007 C 21.91 487.957 22.012 487.827 22.019 487.667 C 22.024 487.517 21.934 487.377 21.788 487.317 C 21.338 487.137 20.85 487.047 20.337 487.047 C 17.814 487.047 15.221 489.197 13.962 491.327 C 13.238 492.557 9.867 499.087 14.592 507.677 C 16.718 511.537 20.634 512.917 23.589 512.917 C 24.582 512.917 25.474 512.757 26.207 512.487 C 25.929 513.217 25.775 514.107 25.775 515.097 C 25.775 518.057 27.151 521.967 31.014 524.097 C 39.599 528.827 46.137 525.447 47.361 524.727 C 49.489 523.467 51.644 520.877 51.644 518.357 C 51.644 517.837 51.552 517.347 51.371 516.897 C 51.313 516.757 51.171 516.667 51.017 516.667 C 50.861 516.677 50.728 516.777 50.68 516.927 C 49.922 519.287 46.749 519.817 45.614 519.637 C 44.783 519.497 43.984 518.977 43.141 518.427 C 41.86 517.587 40.431 516.647 38.653 517.027 C 38.683 516.857 38.697 516.687 38.697 516.497 C 38.697 515.067 37.837 512.617 35.947 510.627 Z" fill="#414042" stroke="none"/><path d="M 15.706 517.567 C 13.818 519.447 13.447 522.137 14.877 523.567 C 16.306 524.997 18.994 524.627 20.882 522.737 C 22.769 520.847 23.14 518.157 21.711 516.737 C 20.282 515.307 17.593 515.677 15.706 517.567 Z" fill="#414042" stroke="none"/><path d="M 15.546 407.227 L 15.979 407.277 L 15.979 421.237 L 16.327 421.627 C 22.037 427.977 26.038 434.497 27.9 440.507 C 29.561 445.867 29.151 450.617 26.746 453.887 C 24.919 456.357 22.066 457.727 18.711 457.727 C 12.725 457.727 8.38 453.587 8.38 447.877 C 8.38 443.267 11.584 441.077 14.561 440.997 C 16.494 440.947 18.892 441.857 19.29 444.597 L 19.459 445.777 L 18.511 445.057 C 18.107 444.757 17.635 444.597 17.145 444.597 C 15.882 444.597 14.853 445.627 14.853 446.887 C 14.853 447.557 15.144 448.187 15.65 448.627 C 16.42 449.297 18.476 449.677 20.181 448.647 C 21.445 447.867 22.125 446.517 22.037 444.937 C 21.821 440.937 18.715 438.207 14.485 438.297 C 10.11 438.407 5.679 441.737 5.679 447.877 C 5.679 454.397 10.305 459.507 16.929 460.307 L 17.36 460.357 L 17.36 474.277 C 18.234 474.087 19.138 473.957 20.06 473.897 L 20.06 460.367 L 20.49 460.317 C 23.99 459.887 26.905 458.217 28.918 455.487 C 31.847 451.517 32.402 445.907 30.479 439.707 C 28.557 433.507 24.519 426.807 18.803 420.347 L 18.68 420.207 L 18.68 404.627 L 17.33 404.627 C 10.366 404.627 4.7 398.957 4.7 391.997 L 4.7 342.997 L 4.7 195.648 L 4.7 146.65 C 4.7 139.686 10.366 134.021 17.33 134.021 L 18.68 134.021 L 18.68 118.439 L 18.803 118.3 C 24.519 111.835 28.557 105.142 30.479 98.944 C 32.402 92.739 31.847 87.133 28.918 83.162 C 26.905 80.431 23.99 78.76 20.49 78.332 L 20.06 78.279 L 20.06 64.745 C 19.138 64.688 18.234 64.562 17.36 64.368 L 17.36 78.288 L 16.929 78.34 C 10.305 79.138 5.679 84.248 5.679 90.767 C 5.679 96.905 10.11 100.235 14.485 100.352 C 18.715 100.44 21.821 97.711 22.037 93.715 C 22.125 92.129 21.445 90.776 20.181 90.005 C 18.476 88.966 16.42 89.354 15.65 90.019 C 15.144 90.457 14.853 91.09 14.853 91.757 C 14.853 93.022 15.882 94.05 17.145 94.05 C 17.635 94.05 18.107 93.889 18.511 93.586 L 19.459 92.875 L 19.29 94.048 C 18.892 96.79 16.494 97.704 14.561 97.653 C 11.584 97.573 8.38 95.384 8.38 90.767 C 8.38 85.061 12.725 80.919 18.711 80.919 C 22.066 80.919 24.919 82.285 26.746 84.765 C 29.151 88.029 29.561 92.78 27.9 98.145 C 26.038 104.148 22.037 110.675 16.327 117.018 L 15.979 117.405 L 15.979 131.374 L 15.546 131.424 C 7.824 132.321 2 138.867 2 146.65 L 2.009 391.317 C 2 399.777 7.824 406.327 15.546 407.227 Z" fill="#414042" stroke="none"/><path d="M 47.233 501.607 C 44.32 501.417 41.437 501.987 39.536 503.687 C 38.022 505.037 37.342 507.277 37.981 509.267 C 38.554 511.257 40.351 512.507 42.285 512.987 C 44.22 513.467 46.795 513.147 47.966 511.327 C 48.025 511.237 49.051 509.497 47.713 508.337 C 47.318 507.997 46.718 507.887 46.115 507.957 C 44.96 508.097 44.12 509.017 44.244 510.017 C 44.33 510.727 44.899 511.277 45.644 511.487 C 44.185 511.717 42.514 511.057 41.632 509.947 C 40.317 508.277 41.194 505.957 43.175 505.177 C 47.876 503.327 52.349 505.547 53.877 506.737 C 58.127 510.037 58.488 515.007 57.844 518.587 C 56.911 523.777 50.313 532.727 32.002 528.937 C 30.643 528.647 29.296 528.327 27.926 528.107 C 23.384 527.387 18.694 527.357 14.227 528.557 C 11.698 529.237 9.107 530.337 6.838 531.847 C 8.358 529.587 9.479 526.997 10.172 524.477 C 11.396 520.017 11.394 515.327 10.701 510.777 C 10.492 509.407 10.176 508.057 9.903 506.697 C 6.221 488.367 15.204 481.817 20.404 480.917 C 23.989 480.297 28.956 480.687 32.23 484.957 C 33.406 486.497 35.6 490.977 33.723 495.667 C 32.932 497.647 30.606 498.507 28.95 497.187 C 27.837 496.297 27.192 494.617 27.434 493.167 C 27.63 493.907 28.18 494.477 28.896 494.567 C 29.887 494.697 30.812 493.867 30.96 492.717 C 31.037 492.107 30.926 491.507 30.588 491.117 C 29.441 489.767 27.694 490.787 27.602 490.837 C 25.776 491.997 25.438 494.577 25.91 496.517 C 26.383 498.447 27.613 500.257 29.602 500.837 C 31.59 501.487 33.836 500.827 35.197 499.317 C 36.908 497.427 37.495 494.547 37.316 491.637 C 36.502 478.337 24.334 474.357 14.734 478.057 C 11.611 479.377 8.97 481.717 7.028 484.497 C 5.757 486.317 1.198 493.887 5.263 509.287 C 5.562 510.417 7.086 516.617 6.78 523.507 C 6.671 525.957 6.41 528.387 5.512 530.677 C 4.485 533.297 3.116 534.817 3.065 535.237 C 3.05 535.367 3.09 535.447 3.155 535.507 C 3.212 535.567 3.297 535.617 3.422 535.597 C 3.849 535.547 5.377 534.187 7.998 533.177 C 10.29 532.297 12.726 532.047 15.174 531.957 C 22.069 531.687 28.257 533.247 29.389 533.557 C 44.758 537.717 52.357 533.197 54.185 531.937 C 56.978 530.017 59.331 527.387 60.674 524.277 C 64.434 514.697 60.527 502.507 47.233 501.607 Z" fill="#414042" stroke="none"/>
</svg>
