<?xml version="1.0" encoding="UTF-8"?>
<svg xmlns="http://www.w3.org/2000/svg" width="416.052" height="610.061" viewBox="0 0 416.052 610.061">
  <path d="M 239.451 24.58 C 239.091 22.8 237.831 21.28 236.371 20.51 C 234.911 19.681 233.311 19.49 231.801 19.53 C 230.341 19.621 228.631 19.79 227.331 20.07 C 225.041 20.57 222.931 21.471 220.621 22.731 C 220.711 22.901 220.791 23.07 220.871 23.24 C 223.001 22.08 225.311 21.26 227.691 20.861 C 230.371 20.451 233.321 20.471 235.221 22.1 C 236.121 22.84 236.711 23.83 236.941 24.891 L 239.501 24.891 C 239.481 24.78 239.471 24.681 239.451 24.58 Z" fill="#414042" stroke="none"/><path d="M 208.281 13.07 C 208.041 12.29 207.851 11.5 207.751 10.701 C 207.581 9.361 207.701 7.941 208.201 6.79 C 208.691 5.611 209.631 4.641 210.741 4.211 C 211.301 3.981 211.851 3.891 212.401 3.911 C 213.001 3.931 213.581 4.05 214.081 4.25 C 215.121 4.661 215.781 5.481 216.061 6.35 C 216.141 6.56 216.181 6.82 216.201 6.971 C 216.221 7.07 216.211 7.3 216.221 7.461 C 216.211 7.411 216.201 7.671 216.181 7.75 C 216.111 8.24 215.961 8.691 215.711 9 C 215.461 9.31 215.221 9.6 214.851 9.75 L 214.601 9.871 L 214.501 9.921 L 214.251 9.961 C 214.111 10 213.851 10 213.631 10.01 C 212.771 9.951 211.591 9.431 210.971 8.02 C 210.381 9.421 211.201 11.481 212.971 12.171 C 213.411 12.371 213.841 12.451 214.371 12.471 L 214.631 12.49 L 215.031 12.461 C 215.301 12.431 215.521 12.401 215.761 12.31 C 216.671 12.02 217.541 11.421 218.051 10.6 C 218.591 9.81 218.841 8.901 218.921 8.04 C 218.941 7.79 218.951 7.691 218.951 7.32 C 218.941 7.141 218.941 7.01 218.911 6.77 C 218.841 6.26 218.741 5.84 218.571 5.421 C 217.951 3.691 216.301 2.55 214.711 2.181 C 213.901 1.99 213.091 1.951 212.311 2.06 C 211.491 2.161 210.691 2.461 210.031 2.881 C 208.701 3.74 207.761 5.04 207.311 6.461 C 206.761 8.721 207.031 10.931 207.691 13 C 207.891 13.02 208.081 13.03 208.281 13.07 Z" fill="#414042" stroke="none"/><path d="M 246.441 18.661 C 245.031 16.51 243.111 14.77 240.931 13.661 C 238.741 12.54 236.381 12 234.061 11.881 C 231.711 11.85 229.541 12.111 227.351 12.681 C 223.401 13.711 219.691 15.31 216.191 17.29 C 216.441 17.51 216.691 17.74 216.931 17.971 C 220.291 16.1 223.851 14.55 227.581 13.711 C 229.661 13.26 231.851 12.981 233.941 13.221 C 236.031 13.481 238.031 14.26 239.721 15.461 C 242.821 17.641 244.771 21.181 245.011 24.891 L 248.521 24.891 C 248.341 22.731 247.661 20.481 246.441 18.661 Z" fill="#414042" stroke="none"/><path d="M 191.341 22.441 C 189.251 21.33 187.281 20.53 185.171 20.07 C 183.881 19.79 182.161 19.621 180.701 19.53 C 179.201 19.49 177.601 19.681 176.141 20.51 C 174.671 21.28 173.411 22.8 173.061 24.58 C 173.031 24.681 173.021 24.78 173.011 24.891 L 175.571 24.891 C 175.801 23.83 176.391 22.84 177.281 22.1 C 179.191 20.471 182.141 20.451 184.811 20.861 C 187.001 21.231 189.131 21.951 191.121 22.971 C 191.191 22.79 191.261 22.611 191.341 22.441 Z" fill="#414042" stroke="none"/><path d="M 194.461 10.6 C 194.971 11.421 195.831 12.02 196.751 12.31 C 196.981 12.401 197.201 12.431 197.471 12.461 L 197.871 12.49 L 198.131 12.471 C 198.671 12.451 199.091 12.371 199.531 12.171 C 201.311 11.481 202.131 9.421 201.541 8.02 C 200.921 9.431 199.741 9.951 198.871 10.01 C 198.661 10 198.401 10 198.261 9.961 L 198.001 9.921 L 197.911 9.871 L 197.651 9.75 C 197.291 9.6 197.041 9.31 196.791 9 C 196.541 8.691 196.391 8.24 196.321 7.75 C 196.301 7.671 196.301 7.411 196.291 7.461 C 196.291 7.3 196.291 7.07 196.311 6.971 C 196.331 6.82 196.361 6.56 196.441 6.35 C 196.731 5.481 197.381 4.661 198.421 4.25 C 198.931 4.05 199.511 3.931 200.101 3.911 C 200.661 3.891 201.201 3.981 201.761 4.211 C 202.881 4.641 203.811 5.611 204.311 6.79 C 204.801 7.941 204.921 9.361 204.761 10.701 C 204.651 11.52 204.461 12.33 204.211 13.121 C 204.411 13.09 204.611 13.04 204.811 13.01 C 205.481 10.941 205.741 8.721 205.191 6.461 C 204.741 5.04 203.811 3.74 202.471 2.881 C 201.811 2.461 201.011 2.161 200.201 2.06 C 199.411 1.951 198.611 1.99 197.801 2.181 C 196.211 2.55 194.561 3.691 193.941 5.421 C 193.771 5.84 193.671 6.26 193.601 6.77 C 193.571 7.01 193.571 7.141 193.551 7.32 C 193.561 7.691 193.561 7.79 193.581 8.04 C 193.671 8.901 193.921 9.81 194.461 10.6 Z" fill="#414042" stroke="none"/><path d="M 195.901 17.06 C 192.521 15.191 188.951 13.671 185.151 12.681 C 182.971 12.111 180.791 11.85 178.441 11.881 C 176.131 12 173.761 12.54 171.581 13.661 C 169.391 14.77 167.471 16.51 166.071 18.661 C 164.851 20.481 164.171 22.731 163.981 24.891 L 167.501 24.891 C 167.741 21.181 169.691 17.641 172.781 15.461 C 174.471 14.26 176.481 13.481 178.571 13.221 C 180.661 12.981 182.851 13.26 184.921 13.711 C 188.481 14.51 191.881 15.951 195.091 17.711 C 195.361 17.481 195.631 17.27 195.901 17.06 Z" fill="#414042" stroke="none"/><path d="M 238.681 584.481 C 238.331 586.26 237.071 587.78 235.601 588.55 C 234.141 589.381 232.541 589.57 231.041 589.53 C 229.581 589.441 227.861 589.27 226.571 588.99 C 224.281 588.49 222.161 587.59 219.861 586.33 C 219.941 586.161 220.031 585.99 220.111 585.82 C 222.241 586.981 224.551 587.8 226.931 588.201 C 229.611 588.611 232.551 588.59 234.461 586.961 C 235.361 586.221 235.941 585.231 236.181 584.171 L 238.741 584.171 C 238.721 584.28 238.711 584.381 238.681 584.481 Z" fill="#414042" stroke="none"/><path d="M 207.521 596.99 C 207.271 597.77 207.091 598.56 206.981 599.361 C 206.821 600.701 206.941 602.121 207.431 603.27 C 207.931 604.451 208.861 605.421 209.981 605.85 C 210.541 606.08 211.081 606.171 211.641 606.151 C 212.231 606.131 212.821 606.01 213.321 605.81 C 214.361 605.401 215.011 604.58 215.301 603.711 C 215.381 603.5 215.411 603.24 215.441 603.09 C 215.451 602.99 215.451 602.76 215.451 602.6 C 215.441 602.651 215.441 602.391 215.421 602.31 C 215.351 601.82 215.201 601.371 214.951 601.06 C 214.701 600.75 214.451 600.461 214.091 600.31 L 213.831 600.191 L 213.741 600.141 L 213.481 600.1 C 213.341 600.06 213.081 600.06 212.871 600.05 C 212.001 600.111 210.821 600.631 210.201 602.04 C 209.611 600.641 210.441 598.58 212.211 597.891 C 212.651 597.691 213.071 597.611 213.611 597.59 L 213.871 597.57 L 214.271 597.6 C 214.531 597.631 214.761 597.661 214.991 597.75 C 215.911 598.05 216.781 598.641 217.281 599.451 C 217.821 600.25 218.071 601.161 218.161 602.02 C 218.181 602.27 218.181 602.371 218.191 602.74 C 218.171 602.931 218.171 603.05 218.141 603.29 C 218.071 603.8 217.981 604.221 217.811 604.641 C 217.181 606.371 215.531 607.51 213.941 607.881 C 213.141 608.07 212.331 608.111 211.541 608 C 210.731 607.901 209.931 607.6 209.271 607.181 C 207.941 606.32 207.001 605.02 206.551 603.6 C 206.001 601.35 206.261 599.131 206.931 597.06 C 207.121 597.04 207.321 597.03 207.521 596.99 Z" fill="#414042" stroke="none"/><path d="M 245.671 590.401 C 244.271 592.55 242.351 594.29 240.161 595.401 C 237.981 596.52 235.611 597.06 233.301 597.181 C 230.951 597.211 228.771 596.951 226.591 596.381 C 222.631 595.35 218.921 593.75 215.421 591.77 C 215.671 591.55 215.921 591.32 216.161 591.09 C 219.531 592.961 223.081 594.51 226.821 595.35 C 228.901 595.8 231.081 596.08 233.171 595.84 C 235.261 595.58 237.271 594.8 238.961 593.6 C 242.051 591.421 244.011 587.881 244.241 584.171 L 247.761 584.171 C 247.571 586.33 246.891 588.58 245.671 590.401 Z" fill="#414042" stroke="none"/><path d="M 190.581 586.621 C 188.481 587.731 186.521 588.53 184.411 588.99 C 183.111 589.27 181.401 589.441 179.941 589.53 C 178.431 589.57 176.831 589.381 175.371 588.55 C 173.911 587.78 172.651 586.26 172.291 584.481 C 172.271 584.381 172.261 584.28 172.241 584.171 L 174.801 584.171 C 175.041 585.231 175.621 586.221 176.521 586.961 C 178.421 588.59 181.371 588.611 184.051 588.201 C 186.241 587.83 188.371 587.111 190.351 586.1 C 190.421 586.27 190.501 586.451 190.581 586.621 Z" fill="#414042" stroke="none"/><path d="M 193.691 599.451 C 194.201 598.641 195.071 598.05 195.991 597.75 C 196.221 597.661 196.441 597.631 196.701 597.6 L 197.111 597.57 L 197.371 597.59 C 197.901 597.611 198.331 597.691 198.771 597.891 C 200.541 598.58 201.361 600.641 200.771 602.04 C 200.151 600.631 198.971 600.111 198.111 600.05 C 197.901 600.06 197.631 600.06 197.491 600.1 L 197.241 600.141 L 197.141 600.191 L 196.891 600.31 C 196.521 600.461 196.281 600.75 196.031 601.06 C 195.781 601.371 195.631 601.82 195.561 602.31 C 195.541 602.391 195.541 602.651 195.521 602.6 C 195.531 602.76 195.531 602.99 195.541 603.09 C 195.561 603.24 195.601 603.5 195.681 603.711 C 195.961 604.58 196.621 605.401 197.661 605.81 C 198.161 606.01 198.741 606.131 199.331 606.151 C 199.901 606.171 200.441 606.08 201.001 605.85 C 202.111 605.421 203.051 604.451 203.541 603.27 C 204.041 602.121 204.161 600.701 203.991 599.361 C 203.891 598.54 203.691 597.731 203.441 596.941 C 203.641 596.971 203.841 597.02 204.041 597.05 C 204.711 599.121 204.981 601.34 204.431 603.6 C 203.981 605.02 203.041 606.32 201.711 607.181 C 201.051 607.6 200.251 607.901 199.431 608 C 198.651 608.111 197.841 608.07 197.031 607.881 C 195.441 607.51 193.801 606.371 193.171 604.641 C 193.001 604.221 192.901 603.8 192.831 603.29 C 192.801 603.05 192.811 602.931 192.791 602.74 C 192.791 602.371 192.801 602.27 192.821 602.02 C 192.901 601.161 193.151 600.25 193.691 599.451 Z" fill="#414042" stroke="none"/><path d="M 195.141 592 C 191.761 593.871 188.191 595.391 184.391 596.381 C 182.201 596.951 180.031 597.211 177.681 597.181 C 175.361 597.06 173.001 596.52 170.821 595.401 C 168.631 594.29 166.711 592.55 165.311 590.401 C 164.091 588.58 163.401 586.33 163.221 584.171 L 166.741 584.171 C 166.971 587.881 168.921 591.421 172.021 593.6 C 173.711 594.8 175.711 595.58 177.811 595.84 C 179.891 596.08 182.081 595.8 184.161 595.35 C 187.721 594.55 191.111 593.111 194.331 591.35 C 194.601 591.58 194.871 591.8 195.141 592 Z" fill="#414042" stroke="none"/><path d="M 43.931 575.871 C 43.931 573.881 42.321 572.28 40.341 572.28 C 38.361 572.28 36.761 573.881 36.761 575.871 C 36.761 577.85 38.361 579.461 40.341 579.461 C 42.321 579.461 43.931 577.85 43.931 575.871 Z" fill="#414042" stroke="none"/><path d="M 209.771 579.941 C 209.771 577.461 207.761 575.451 205.291 575.451 C 202.801 575.451 200.801 577.461 200.801 579.941 C 200.801 582.411 202.801 584.431 205.291 584.421 C 207.761 584.431 209.771 582.411 209.771 579.941 Z" fill="#414042" stroke="none"/><path d="M 377.671 575.871 C 377.671 573.881 376.071 572.28 374.081 572.28 C 372.111 572.28 370.501 573.881 370.501 575.871 C 370.501 577.85 372.111 579.461 374.081 579.461 C 376.071 579.461 377.671 577.85 377.671 575.871 Z" fill="#414042" stroke="none"/><path d="M 221.781 574.681 L 370.501 574.681 C 371.151 574.681 371.691 575.211 371.691 575.871 C 371.691 576.52 371.151 577.06 370.501 577.06 L 222.971 577.06 L 222.971 579.461 C 222.971 589.211 215.041 597.141 205.291 597.141 C 195.531 597.141 187.601 589.211 187.601 579.461 L 187.601 577.06 L 43.931 577.06 C 43.281 577.06 42.741 576.52 42.741 575.871 C 42.741 575.211 43.281 574.681 43.931 574.681 L 188.791 574.681 C 189.451 574.681 189.981 575.211 189.981 575.871 L 189.981 579.461 C 189.981 587.901 196.851 594.76 205.291 594.76 C 213.721 594.76 220.591 587.901 220.591 579.461 L 220.591 575.871 C 220.591 575.211 221.121 574.681 221.781 574.681 Z" fill="#414042" stroke="none"/><path d="M 44.901 34.191 C 44.901 36.181 43.291 37.78 41.311 37.78 C 39.331 37.78 37.721 36.181 37.721 34.191 C 37.721 32.211 39.331 30.6 41.311 30.6 C 43.291 30.6 44.901 32.211 44.901 34.191 Z" fill="#414042" stroke="none"/><path d="M 210.741 30.121 C 210.741 32.6 208.731 34.611 206.251 34.611 C 203.771 34.611 201.771 32.6 201.771 30.121 C 201.771 27.651 203.771 25.631 206.251 25.641 C 208.731 25.631 210.741 27.651 210.741 30.121 Z" fill="#414042" stroke="none"/><path d="M 378.641 34.191 C 378.641 36.181 377.041 37.78 375.051 37.78 C 373.071 37.78 371.461 36.181 371.461 34.191 C 371.461 32.211 373.071 30.6 375.051 30.6 C 377.041 30.6 378.641 32.211 378.641 34.191 Z" fill="#414042" stroke="none"/><path d="M 222.751 35.391 L 371.461 35.391 C 372.121 35.391 372.651 34.85 372.651 34.191 C 372.651 33.54 372.121 33 371.461 33 L 223.941 33 L 223.941 30.6 C 223.941 20.85 216.011 12.921 206.251 12.921 C 196.501 12.921 188.571 20.85 188.571 30.6 L 188.571 33 L 44.901 33 C 44.241 33 43.711 33.54 43.711 34.191 C 43.711 34.85 44.241 35.391 44.901 35.391 L 189.761 35.391 C 190.421 35.391 190.951 34.85 190.951 34.191 L 190.951 30.6 C 190.951 22.161 197.821 15.3 206.251 15.3 C 214.691 15.3 221.561 22.161 221.561 30.6 L 221.561 34.191 C 221.561 34.85 222.091 35.391 222.751 35.391 Z" fill="#414042" stroke="none"/><path d="M 391.851 554.02 C 389.861 554.02 388.261 555.621 388.261 557.611 C 388.261 559.59 389.861 561.191 391.851 561.191 C 393.831 561.191 395.441 559.59 395.441 557.611 C 395.441 555.621 393.831 554.02 391.851 554.02 Z" fill="#414042" stroke="none"/><path d="M 395.921 299.981 C 393.431 299.981 391.431 301.99 391.431 304.461 C 391.431 306.941 393.431 308.951 395.921 308.951 C 398.391 308.951 400.401 306.941 400.401 304.461 C 400.401 301.99 398.391 299.981 395.921 299.981 Z" fill="#414042" stroke="none"/><path d="M 391.851 47.711 C 389.861 47.721 388.261 49.32 388.261 51.3 C 388.261 53.29 389.861 54.891 391.851 54.891 C 393.831 54.891 395.441 53.29 395.441 51.3 C 395.441 49.32 393.831 47.711 391.851 47.711 Z" fill="#414042" stroke="none"/><path d="M 390.661 320.961 C 390.661 320.3 391.191 319.77 391.851 319.77 L 395.441 319.77 C 403.871 319.77 410.741 312.901 410.741 304.471 C 410.741 296.02 403.871 289.161 395.441 289.161 L 391.851 289.161 C 391.191 289.161 390.661 288.621 390.661 287.971 L 390.661 54.891 C 390.661 54.231 391.191 53.701 391.851 53.701 C 392.501 53.701 393.041 54.231 393.041 54.891 L 393.041 286.78 L 395.441 286.78 C 405.191 286.78 413.121 294.711 413.121 304.471 C 413.121 314.221 405.191 322.151 395.441 322.151 L 393.041 322.151 L 393.041 554.02 C 393.041 554.671 392.501 555.211 391.851 555.211 C 391.191 555.211 390.661 554.671 390.661 554.02 L 390.661 320.961 Z" fill="#414042" stroke="none"/><path d="M 24.471 554.981 C 26.461 554.981 28.061 556.59 28.061 558.57 C 28.061 560.56 26.461 562.161 24.471 562.161 C 22.491 562.161 20.881 560.56 20.881 558.57 C 20.881 556.59 22.491 554.981 24.471 554.981 Z" fill="#414042" stroke="none"/><path d="M 20.401 300.941 C 22.891 300.941 24.891 302.961 24.891 305.431 C 24.891 307.911 22.891 309.921 20.401 309.921 C 17.931 309.921 15.921 307.911 15.921 305.431 C 15.921 302.961 17.931 300.941 20.401 300.941 Z" fill="#414042" stroke="none"/><path d="M 24.471 48.681 C 26.461 48.691 28.061 50.29 28.061 52.27 C 28.061 54.26 26.461 55.861 24.471 55.861 C 22.491 55.861 20.881 54.26 20.881 52.27 C 20.881 50.29 22.491 48.681 24.471 48.681 Z" fill="#414042" stroke="none"/><path d="M 25.661 321.931 C 25.661 321.27 25.131 320.74 24.471 320.74 L 20.881 320.74 C 12.441 320.74 5.581 313.871 5.581 305.431 C 5.581 296.99 12.441 290.121 20.881 290.121 L 24.471 290.121 C 25.131 290.121 25.661 289.59 25.661 288.931 L 25.661 55.861 C 25.661 55.201 25.131 54.671 24.471 54.671 C 23.821 54.671 23.281 55.201 23.281 55.861 L 23.281 287.74 L 20.881 287.74 C 11.131 287.74 3.201 295.681 3.201 305.431 C 3.201 315.181 11.131 323.121 20.881 323.121 L 23.281 323.121 L 23.281 554.981 C 23.281 555.641 23.821 556.181 24.471 556.181 C 25.131 556.181 25.661 555.641 25.661 554.981 L 25.661 321.931 Z" fill="#414042" stroke="none"/><path d="M 12.291 20.161 C 10.511 18.381 8.751 17.75 7.881 17.75 C 7.641 17.75 7.471 17.8 7.381 17.891 C 6.981 18.28 7.381 20.52 9.661 22.79 C 11.931 25.08 20.641 31.151 20.641 31.151 C 20.641 31.151 15.341 23.211 12.291 20.161 Z" fill="#414042" stroke="none"/><path d="M 2.261 39.84 C 2.331 39.83 2.391 39.8 2.431 39.74 C 3.391 38.171 4.531 36.931 5.821 35.971 C 6.151 35.721 6.491 35.51 6.841 35.33 C 7.181 35.1 7.511 34.931 7.871 34.76 C 8.251 34.611 8.601 34.461 8.961 34.33 C 9.331 34.211 9.701 34.08 10.091 34 C 11.261 33.711 12.601 33.5 13.971 33.5 C 14.291 33.5 14.611 33.51 14.931 33.53 C 16.661 33.641 18.361 34.04 20.121 34.51 L 20.141 34.51 C 20.151 34.51 20.171 34.51 20.181 34.51 C 20.271 34.51 20.371 34.451 20.401 34.35 C 20.421 34.26 20.391 34.181 20.321 34.111 C 17.321 31.721 13.761 30.76 11.021 30.76 C 10.991 30.76 10.951 30.76 10.921 30.76 C 10.901 30.76 10.881 30.76 10.861 30.76 C 10.611 30.76 10.391 30.78 10.111 30.81 L 9.741 30.861 L 9.351 30.941 C 8.821 31.06 8.331 31.191 7.841 31.411 C 7.361 31.59 6.891 31.83 6.461 32.1 C 6.001 32.381 5.571 32.671 5.181 33.01 C 4.781 33.34 4.411 33.721 4.071 34.1 C 3.731 34.481 3.441 34.911 3.171 35.34 C 2.911 35.77 2.691 36.24 2.511 36.691 C 2.141 37.641 1.951 38.641 2.011 39.611 L 2.021 39.631 C 2.021 39.76 2.131 39.84 2.261 39.84 Z" fill="#414042" stroke="none"/><path d="M 23.821 19.471 C 23.961 19.1 24.101 18.75 24.261 18.381 C 24.421 18.02 24.611 17.691 24.821 17.34 C 25.011 17 25.221 16.661 25.461 16.33 C 26.431 15.03 27.671 13.901 29.231 12.941 C 29.291 12.891 29.321 12.84 29.331 12.76 C 29.331 12.641 29.261 12.53 29.121 12.53 L 29.111 12.52 C 28.991 12.51 28.881 12.51 28.761 12.51 C 27.901 12.51 27.021 12.691 26.201 13.01 C 25.731 13.191 25.261 13.411 24.831 13.681 C 24.411 13.941 23.971 14.24 23.601 14.58 C 23.211 14.911 22.841 15.28 22.511 15.681 C 22.171 16.08 21.871 16.51 21.601 16.961 C 21.331 17.391 21.081 17.871 20.901 18.34 C 20.681 18.83 20.551 19.33 20.431 19.85 L 20.351 20.25 L 20.311 20.621 C 20.271 20.911 20.241 21.151 20.251 21.421 C 20.231 24.181 21.191 27.79 23.611 30.83 C 23.661 30.881 23.731 30.911 23.801 30.911 C 23.811 30.911 23.831 30.911 23.851 30.911 C 23.961 30.871 24.031 30.75 24.001 30.641 L 24.001 30.631 C 23.531 28.861 23.141 27.161 23.031 25.441 C 22.911 23.731 23.141 22.04 23.491 20.59 C 23.581 20.201 23.711 19.84 23.821 19.471 Z" fill="#414042" stroke="none"/><path d="M 10.741 41.911 C 11.901 41.231 13.231 40.81 14.611 40.57 C 15.571 40.411 16.551 40.32 17.521 40.32 C 17.941 40.32 18.361 40.34 18.781 40.371 C 20.191 40.5 21.581 40.81 22.901 41.27 C 24.221 41.731 25.461 42.391 26.601 43.201 C 27.741 44.01 28.711 44.971 29.461 46.121 L 30.271 45.57 C 29.491 44.29 28.461 43.171 27.271 42.211 C 26.101 41.27 24.781 40.471 23.391 39.861 C 21.981 39.26 20.501 38.79 18.961 38.54 C 17.981 38.391 16.971 38.3 15.951 38.3 C 15.411 38.3 14.871 38.33 14.331 38.381 C 13.551 38.441 12.791 38.54 11.991 38.711 C 11.211 38.871 10.421 39.121 9.641 39.451 C 8.121 40.08 6.691 41.1 5.541 42.431 C 4.431 43.76 3.601 45.421 3.371 47.161 C 3.291 47.611 3.281 48.02 3.291 48.51 L 3.331 49.141 C 3.351 49.361 3.391 49.59 3.441 49.81 C 3.631 50.721 3.981 51.56 4.441 52.31 C 5.361 53.8 6.731 54.941 8.311 55.51 C 9.131 55.81 10.001 55.961 10.851 55.961 C 11.641 55.961 12.411 55.83 13.141 55.55 C 14.651 55 15.881 53.871 16.621 52.49 C 17.031 51.82 17.281 51.06 17.401 50.26 C 17.431 50.161 17.441 50.06 17.441 49.961 L 17.471 49.691 C 17.471 49.441 17.471 49.24 17.451 49.01 C 17.401 48.58 17.281 48.141 17.071 47.731 C 16.661 46.921 15.951 46.231 15.081 45.911 C 14.631 45.721 14.181 45.641 13.681 45.641 C 13.671 45.641 13.661 45.641 13.651 45.641 C 13.211 45.641 12.721 45.721 12.291 45.931 C 11.401 46.3 10.681 47.111 10.471 48.04 C 10.351 48.49 10.381 48.99 10.481 49.411 C 10.591 49.861 10.871 50.26 11.211 50.5 C 11.251 50.53 11.311 50.54 11.361 50.54 C 11.461 50.54 11.551 50.5 11.591 50.431 C 11.641 50.371 11.661 50.3 11.651 50.24 L 11.661 50.191 C 11.641 49.81 11.711 49.54 11.801 49.3 L 11.821 49.25 C 11.821 49.26 11.831 49.27 11.831 49.27 C 11.841 49.27 11.841 49.231 11.851 49.221 L 11.871 49.151 L 11.901 49.121 C 11.921 49.08 11.951 49.01 11.981 48.971 C 12.051 48.861 12.131 48.76 12.201 48.681 C 12.491 48.371 12.821 48.191 13.171 48.09 C 13.331 48.03 13.481 48 13.681 48 C 13.691 48 13.701 48 13.711 48 C 13.741 48 13.771 48 13.791 48 C 13.941 48 14.131 48.02 14.291 48.07 C 14.691 48.171 15.081 48.381 15.401 48.721 C 16.031 49.34 16.151 50.84 15.601 51.951 C 15.341 52.52 14.891 53.01 14.391 53.371 C 13.901 53.77 13.301 54.02 12.701 54.131 C 12.441 54.181 12.171 54.211 11.911 54.211 C 10.961 54.211 10.051 53.891 9.311 53.401 C 8.371 52.75 7.661 51.81 7.271 50.84 C 6.531 49.04 6.611 46.52 7.961 44.5 C 8.621 43.471 9.591 42.58 10.741 41.911 Z" fill="#414042" stroke="none"/><path d="M 31.031 45.08 C 30.831 44.76 30.501 44.55 30.131 44.471 C 29.761 44.401 29.371 44.49 29.111 44.681 C 28.791 44.881 28.561 45.211 28.491 45.58 C 28.411 45.961 28.501 46.35 28.701 46.631 C 28.971 47.03 29.411 47.25 29.871 47.25 C 30.131 47.25 30.401 47.181 30.641 47.02 C 30.951 46.82 31.161 46.51 31.231 46.141 C 31.311 45.77 31.231 45.391 31.031 45.08 Z" fill="#414042" stroke="none"/><path d="M 38.161 22.701 C 38.251 22.631 38.351 22.56 38.451 22.49 C 38.511 22.451 38.571 22.431 38.621 22.401 L 38.641 22.371 L 38.711 22.35 C 38.721 22.34 38.781 22.34 38.751 22.32 L 38.791 22.31 C 39.001 22.211 39.241 22.151 39.581 22.151 C 39.621 22.151 39.651 22.151 39.691 22.151 L 39.741 22.151 C 39.751 22.151 39.761 22.161 39.771 22.161 C 39.821 22.161 39.871 22.141 39.921 22.111 C 40.051 22.02 40.071 21.83 40.001 21.711 C 39.751 21.381 39.351 21.1 38.901 20.99 C 38.671 20.931 38.431 20.901 38.181 20.901 C 37.971 20.901 37.751 20.921 37.541 20.981 C 36.611 21.181 35.801 21.911 35.431 22.79 C 35.211 23.231 35.131 23.74 35.141 24.181 C 35.131 24.681 35.211 25.141 35.391 25.59 C 35.721 26.461 36.411 27.161 37.231 27.57 C 37.641 27.78 38.081 27.911 38.501 27.951 C 38.741 27.971 38.941 27.971 39.181 27.981 L 39.451 27.941 C 39.561 27.931 39.651 27.931 39.751 27.911 C 40.551 27.78 41.321 27.53 41.991 27.131 C 43.371 26.391 44.491 25.161 45.051 23.641 C 45.631 22.131 45.581 20.401 45.001 18.81 C 44.431 17.24 43.301 15.861 41.811 14.941 C 41.061 14.481 40.221 14.131 39.311 13.941 C 39.091 13.901 38.861 13.861 38.631 13.84 L 38.001 13.8 C 37.891 13.79 37.791 13.79 37.681 13.79 C 37.331 13.79 37.001 13.81 36.661 13.871 C 34.901 14.111 33.251 14.931 31.931 16.04 C 30.601 17.191 29.581 18.621 28.941 20.151 C 28.621 20.931 28.361 21.711 28.211 22.49 C 28.041 23.29 27.951 24.06 27.871 24.83 C 27.741 26.371 27.801 27.961 28.041 29.471 C 28.291 31.01 28.751 32.481 29.361 33.891 C 29.961 35.29 30.771 36.611 31.701 37.78 C 32.661 38.961 33.791 40 35.071 40.78 L 35.611 39.961 C 34.471 39.221 33.501 38.24 32.691 37.1 C 31.881 35.971 31.221 34.721 30.751 33.401 C 30.311 32.08 29.991 30.691 29.871 29.29 C 29.771 27.891 29.841 26.49 30.071 25.111 C 30.301 23.731 30.721 22.401 31.401 21.25 C 32.071 20.09 32.981 19.121 34.001 18.471 C 35.191 17.671 36.561 17.31 37.861 17.31 C 38.741 17.31 39.601 17.481 40.331 17.78 C 41.301 18.161 42.251 18.871 42.901 19.81 C 43.531 20.76 43.861 22 43.631 23.211 C 43.501 23.81 43.261 24.401 42.871 24.901 C 42.501 25.391 42.011 25.84 41.441 26.1 C 40.961 26.34 40.401 26.461 39.881 26.461 C 39.191 26.461 38.561 26.27 38.211 25.901 C 37.881 25.59 37.671 25.191 37.561 24.79 C 37.501 24.6 37.481 24.381 37.491 24.221 C 37.491 24 37.511 23.85 37.571 23.671 C 37.691 23.32 37.861 23 38.161 22.701 Z" fill="#414042" stroke="none"/><path d="M 36.721 40.09 C 36.641 39.721 36.431 39.411 36.131 39.211 C 35.821 39 35.451 38.931 35.091 38.99 C 34.721 39.06 34.401 39.27 34.201 39.57 C 33.981 39.881 33.901 40.25 33.971 40.621 C 34.031 40.99 34.241 41.32 34.551 41.53 L 34.581 41.55 C 34.811 41.701 35.081 41.77 35.341 41.77 C 35.801 41.77 36.241 41.55 36.511 41.151 C 36.721 40.84 36.791 40.461 36.721 40.09 Z" fill="#414042" stroke="none"/><path d="M 20.641 578.981 C 20.641 578.981 11.931 585.05 9.661 587.33 C 7.381 589.611 6.981 591.85 7.381 592.24 C 7.471 592.33 7.641 592.381 7.881 592.381 C 8.751 592.381 10.511 591.75 12.291 589.971 C 15.341 586.921 20.641 578.981 20.641 578.981 Z" fill="#414042" stroke="none"/><path d="M 2.021 570.5 L 2.011 570.52 C 1.951 571.49 2.141 572.49 2.511 573.431 C 2.691 573.891 2.911 574.361 3.171 574.79 C 3.441 575.221 3.731 575.651 4.071 576.02 C 4.411 576.411 4.781 576.79 5.181 577.111 C 5.571 577.461 6.001 577.75 6.461 578.02 C 6.891 578.3 7.361 578.53 7.841 578.721 C 8.331 578.941 8.821 579.07 9.351 579.191 L 9.741 579.27 L 10.111 579.31 C 10.391 579.35 10.611 579.371 10.861 579.371 C 10.881 579.371 10.901 579.371 10.921 579.371 C 10.951 579.371 10.991 579.371 11.021 579.371 C 13.761 579.371 17.321 578.401 20.321 576.01 C 20.391 575.951 20.421 575.871 20.401 575.77 C 20.371 575.681 20.271 575.621 20.181 575.621 C 20.171 575.621 20.151 575.621 20.141 575.621 L 20.121 575.621 C 18.361 576.09 16.661 576.481 14.931 576.59 C 14.611 576.621 14.291 576.631 13.971 576.631 C 12.601 576.631 11.261 576.421 10.091 576.131 C 9.701 576.04 9.331 575.921 8.961 575.8 C 8.601 575.671 8.251 575.52 7.871 575.371 C 7.511 575.201 7.181 575.02 6.841 574.8 C 6.491 574.621 6.151 574.401 5.821 574.161 C 4.531 573.201 3.391 571.961 2.431 570.391 C 2.391 570.33 2.331 570.3 2.261 570.29 C 2.131 570.29 2.021 570.371 2.021 570.5 Z" fill="#414042" stroke="none"/><path d="M 23.491 589.53 C 23.141 588.09 22.911 586.391 23.031 584.681 C 23.141 582.971 23.531 581.26 24.001 579.5 L 24.001 579.481 C 24.031 579.381 23.961 579.26 23.851 579.221 C 23.831 579.221 23.811 579.221 23.801 579.221 C 23.731 579.221 23.661 579.25 23.611 579.3 C 21.191 582.34 20.231 585.951 20.251 588.711 C 20.241 588.981 20.271 589.221 20.311 589.51 L 20.351 589.881 L 20.431 590.27 C 20.551 590.8 20.681 591.3 20.901 591.78 C 21.081 592.26 21.331 592.731 21.601 593.171 C 21.871 593.621 22.171 594.05 22.511 594.451 C 22.841 594.85 23.211 595.211 23.601 595.55 C 23.971 595.891 24.411 596.191 24.831 596.451 C 25.261 596.721 25.731 596.941 26.201 597.121 C 27.021 597.431 27.901 597.621 28.761 597.621 C 28.881 597.621 28.991 597.621 29.111 597.611 L 29.121 597.6 C 29.261 597.6 29.331 597.49 29.331 597.371 C 29.321 597.29 29.291 597.231 29.231 597.191 C 27.671 596.231 26.431 595.1 25.461 593.8 C 25.221 593.471 25.011 593.131 24.821 592.78 C 24.611 592.441 24.421 592.1 24.261 591.75 C 24.101 591.381 23.961 591.02 23.821 590.661 C 23.711 590.29 23.581 589.931 23.491 589.53 Z" fill="#414042" stroke="none"/><path d="M 7.961 565.621 C 6.611 563.611 6.531 561.09 7.271 559.29 C 7.661 558.32 8.371 557.371 9.311 556.721 C 10.051 556.231 10.961 555.921 11.911 555.921 C 12.171 555.921 12.441 555.941 12.701 555.99 C 13.301 556.111 13.901 556.35 14.391 556.76 C 14.891 557.121 15.341 557.611 15.601 558.181 C 16.151 559.29 16.031 560.78 15.401 561.401 C 15.081 561.75 14.691 561.961 14.291 562.06 C 14.131 562.1 13.941 562.131 13.791 562.131 C 13.771 562.131 13.741 562.131 13.711 562.131 C 13.701 562.131 13.691 562.131 13.681 562.131 C 13.481 562.131 13.331 562.1 13.171 562.04 C 12.821 561.941 12.491 561.76 12.201 561.451 C 12.131 561.361 12.051 561.27 11.981 561.161 C 11.951 561.111 11.921 561.05 11.901 561 L 11.871 560.981 L 11.851 560.911 C 11.841 560.901 11.841 560.861 11.831 560.861 C 11.831 560.861 11.821 560.871 11.821 560.871 L 11.801 560.82 C 11.711 560.59 11.641 560.32 11.661 559.941 L 11.651 559.891 C 11.661 559.83 11.641 559.76 11.591 559.701 C 11.551 559.631 11.461 559.59 11.361 559.59 C 11.311 559.59 11.251 559.6 11.211 559.631 C 10.871 559.871 10.591 560.27 10.481 560.721 C 10.381 561.141 10.351 561.631 10.471 562.09 C 10.681 563.01 11.401 563.82 12.291 564.191 C 12.721 564.401 13.211 564.49 13.651 564.49 C 13.661 564.49 13.671 564.49 13.681 564.49 C 14.181 564.49 14.631 564.411 15.081 564.221 C 15.951 563.901 16.661 563.211 17.071 562.391 C 17.281 561.99 17.401 561.54 17.451 561.121 C 17.471 560.891 17.471 560.691 17.471 560.441 L 17.441 560.171 C 17.441 560.07 17.431 559.971 17.401 559.861 C 17.281 559.07 17.031 558.31 16.621 557.631 C 15.881 556.25 14.651 555.131 13.141 554.58 C 12.411 554.3 11.641 554.161 10.851 554.161 C 10.001 554.161 9.131 554.32 8.311 554.621 C 6.731 555.191 5.361 556.33 4.441 557.82 C 3.981 558.57 3.631 559.411 3.441 560.32 C 3.391 560.54 3.351 560.76 3.331 560.981 L 3.291 561.621 C 3.281 562.111 3.291 562.52 3.371 562.971 C 3.601 564.711 4.431 566.371 5.541 567.691 C 6.691 569.03 8.121 570.05 9.641 570.681 C 10.421 571 11.211 571.26 11.991 571.421 C 12.791 571.59 13.551 571.681 14.331 571.75 C 14.871 571.8 15.411 571.82 15.951 571.82 C 16.971 571.82 17.981 571.74 18.961 571.58 C 20.501 571.33 21.981 570.871 23.391 570.26 C 24.781 569.661 26.101 568.85 27.271 567.921 C 28.461 566.961 29.491 565.84 30.271 564.55 L 29.461 564 C 28.711 565.151 27.741 566.121 26.601 566.931 C 25.461 567.731 24.221 568.401 22.901 568.861 C 21.581 569.31 20.191 569.631 18.781 569.76 C 18.361 569.79 17.941 569.8 17.521 569.8 C 16.551 569.8 15.571 569.721 14.611 569.56 C 13.231 569.31 11.901 568.901 10.741 568.221 C 9.591 567.55 8.621 566.651 7.961 565.621 Z" fill="#414042" stroke="none"/><path d="M 31.031 565.05 C 30.831 565.361 30.501 565.58 30.131 565.651 C 29.761 565.721 29.371 565.641 29.111 565.451 C 28.791 565.25 28.561 564.921 28.491 564.54 C 28.411 564.171 28.501 563.78 28.701 563.5 C 28.971 563.1 29.411 562.881 29.871 562.881 C 30.131 562.881 30.401 562.951 30.641 563.111 C 30.951 563.31 31.161 563.621 31.231 563.99 C 31.311 564.35 31.231 564.74 31.031 565.05 Z" fill="#414042" stroke="none"/><path d="M 37.571 586.461 C 37.511 586.27 37.491 586.131 37.491 585.911 C 37.481 585.74 37.501 585.53 37.561 585.33 C 37.671 584.941 37.881 584.53 38.211 584.231 C 38.561 583.861 39.191 583.671 39.881 583.671 C 40.401 583.671 40.961 583.78 41.441 584.02 C 42.011 584.29 42.501 584.731 42.871 585.231 C 43.261 585.721 43.501 586.32 43.631 586.921 C 43.861 588.131 43.531 589.371 42.901 590.32 C 42.251 591.25 41.301 591.971 40.331 592.35 C 39.601 592.651 38.741 592.82 37.861 592.82 C 36.561 592.82 35.191 592.461 34.001 591.661 C 32.981 591 32.071 590.03 31.401 588.881 C 30.721 587.731 30.301 586.391 30.071 585.02 C 29.841 583.641 29.771 582.231 29.871 580.84 C 29.991 579.431 30.311 578.05 30.751 576.721 C 31.221 575.411 31.881 574.161 32.691 573.03 C 33.501 571.891 34.471 570.911 35.611 570.161 L 35.071 569.35 C 33.791 570.131 32.661 571.171 31.701 572.35 C 30.771 573.52 29.961 574.84 29.361 576.24 C 28.751 577.641 28.291 579.121 28.041 580.661 C 27.801 582.171 27.741 583.75 27.871 585.3 C 27.951 586.07 28.041 586.84 28.211 587.641 C 28.361 588.421 28.621 589.201 28.941 589.981 C 29.581 591.51 30.601 592.941 31.931 594.09 C 33.251 595.191 34.901 596.02 36.661 596.26 C 37.001 596.31 37.331 596.34 37.681 596.34 C 37.791 596.34 37.891 596.33 38.001 596.33 L 38.631 596.29 C 38.861 596.27 39.091 596.231 39.311 596.191 C 40.221 596 41.061 595.651 41.811 595.191 C 43.301 594.26 44.431 592.891 45.001 591.32 C 45.581 589.731 45.631 587.99 45.051 586.481 C 44.491 584.971 43.371 583.74 41.991 583 C 41.321 582.6 40.551 582.34 39.751 582.221 C 39.651 582.191 39.561 582.191 39.451 582.181 L 39.181 582.141 C 38.941 582.151 38.741 582.161 38.501 582.181 C 38.081 582.221 37.641 582.35 37.231 582.55 C 36.411 582.971 35.721 583.671 35.391 584.54 C 35.211 584.99 35.131 585.451 35.141 585.951 C 35.131 586.391 35.211 586.891 35.431 587.33 C 35.801 588.221 36.611 588.941 37.541 589.151 C 37.751 589.211 37.971 589.231 38.181 589.231 C 38.431 589.231 38.671 589.201 38.901 589.141 C 39.351 589.03 39.751 588.75 40.001 588.421 C 40.071 588.29 40.051 588.111 39.921 588.02 C 39.871 587.981 39.821 587.971 39.771 587.971 C 39.761 587.971 39.751 587.971 39.741 587.971 L 39.691 587.971 C 39.651 587.971 39.621 587.971 39.581 587.971 C 39.241 587.971 39.001 587.921 38.791 587.82 L 38.751 587.81 C 38.781 587.79 38.721 587.78 38.711 587.78 L 38.641 587.75 L 38.621 587.731 C 38.571 587.701 38.511 587.681 38.451 587.641 C 38.351 587.57 38.251 587.49 38.161 587.421 C 37.861 587.131 37.691 586.8 37.571 586.461 Z" fill="#414042" stroke="none"/><path d="M 36.721 570.03 C 36.641 570.401 36.431 570.721 36.131 570.911 C 35.821 571.121 35.451 571.201 35.091 571.141 C 34.721 571.06 34.401 570.85 34.201 570.56 C 33.981 570.25 33.901 569.881 33.971 569.5 C 34.031 569.131 34.241 568.81 34.551 568.6 L 34.581 568.58 C 34.811 568.431 35.081 568.361 35.341 568.361 C 35.801 568.361 36.241 568.58 36.511 568.971 C 36.721 569.29 36.791 569.661 36.721 570.03 Z" fill="#414042" stroke="none"/><path d="M 395.411 31.151 C 395.411 31.151 404.131 25.08 406.401 22.79 C 408.681 20.52 409.081 18.28 408.681 17.891 C 408.591 17.8 408.421 17.75 408.181 17.75 C 407.311 17.75 405.551 18.381 403.771 20.161 C 400.721 23.211 395.411 31.151 395.411 31.151 Z" fill="#414042" stroke="none"/><path d="M 414.031 39.631 L 414.041 39.611 C 414.101 38.641 413.921 37.641 413.551 36.691 C 413.371 36.24 413.151 35.77 412.881 35.34 C 412.611 34.911 412.331 34.481 411.981 34.1 C 411.651 33.721 411.281 33.34 410.881 33.01 C 410.491 32.671 410.061 32.381 409.601 32.1 C 409.171 31.83 408.691 31.59 408.211 31.411 C 407.731 31.191 407.231 31.06 406.711 30.941 L 406.321 30.861 L 405.941 30.81 C 405.671 30.78 405.451 30.76 405.191 30.76 C 405.171 30.76 405.151 30.76 405.131 30.76 C 405.101 30.76 405.071 30.76 405.041 30.76 C 402.301 30.76 398.731 31.721 395.741 34.111 C 395.661 34.181 395.641 34.26 395.661 34.35 C 395.681 34.451 395.781 34.51 395.881 34.51 C 395.891 34.51 395.901 34.51 395.921 34.51 L 395.931 34.51 C 397.691 34.04 399.401 33.641 401.121 33.53 C 401.451 33.51 401.771 33.5 402.091 33.5 C 403.461 33.5 404.801 33.711 405.971 34 C 406.351 34.08 406.731 34.211 407.091 34.33 C 407.461 34.461 407.811 34.611 408.181 34.76 C 408.551 34.931 408.881 35.1 409.221 35.33 C 409.571 35.51 409.911 35.721 410.241 35.971 C 411.531 36.931 412.671 38.171 413.621 39.74 C 413.671 39.8 413.731 39.83 413.801 39.84 C 413.931 39.84 414.031 39.76 414.031 39.631 Z" fill="#414042" stroke="none"/><path d="M 392.561 20.59 C 392.921 22.04 393.151 23.731 393.031 25.441 C 392.921 27.161 392.531 28.861 392.061 30.631 L 392.061 30.641 C 392.031 30.75 392.101 30.871 392.211 30.911 C 392.231 30.911 392.241 30.911 392.261 30.911 C 392.331 30.911 392.401 30.881 392.451 30.83 C 394.871 27.79 395.831 24.181 395.801 21.421 C 395.811 21.151 395.781 20.911 395.751 20.621 L 395.711 20.25 L 395.621 19.85 C 395.511 19.33 395.371 18.83 395.151 18.34 C 394.981 17.871 394.731 17.391 394.461 16.961 C 394.191 16.51 393.891 16.08 393.551 15.681 C 393.221 15.28 392.841 14.911 392.461 14.58 C 392.081 14.24 391.641 13.941 391.231 13.681 C 390.801 13.411 390.321 13.191 389.861 13.01 C 389.041 12.691 388.161 12.51 387.301 12.51 C 387.181 12.51 387.071 12.51 386.951 12.52 L 386.941 12.53 C 386.801 12.53 386.731 12.641 386.731 12.76 C 386.731 12.84 386.771 12.891 386.831 12.941 C 388.391 13.901 389.631 15.03 390.601 16.33 C 390.841 16.661 391.051 17 391.241 17.34 C 391.451 17.691 391.631 18.02 391.801 18.381 C 391.961 18.75 392.101 19.1 392.231 19.471 C 392.351 19.84 392.481 20.201 392.561 20.59 Z" fill="#414042" stroke="none"/><path d="M 408.101 44.5 C 409.441 46.52 409.531 49.04 408.791 50.84 C 408.401 51.81 407.691 52.75 406.751 53.401 C 406.011 53.891 405.091 54.211 404.151 54.211 C 403.881 54.211 403.621 54.181 403.351 54.131 C 402.761 54.02 402.161 53.77 401.661 53.371 C 401.171 53.01 400.721 52.52 400.461 51.951 C 399.901 50.84 400.031 49.34 400.661 48.721 C 400.971 48.381 401.371 48.171 401.771 48.07 C 401.931 48.02 402.111 48 402.261 48 C 402.291 48 402.321 48 402.341 48 C 402.361 48 402.371 48 402.381 48 C 402.581 48 402.731 48.03 402.891 48.09 C 403.241 48.191 403.561 48.371 403.861 48.681 C 403.931 48.76 404.001 48.861 404.081 48.971 C 404.111 49.01 404.141 49.08 404.161 49.121 L 404.191 49.151 L 404.211 49.221 C 404.221 49.231 404.221 49.27 404.231 49.27 C 404.231 49.27 404.231 49.26 404.241 49.25 L 404.251 49.3 C 404.351 49.54 404.421 49.81 404.401 50.191 L 404.401 50.24 C 404.401 50.3 404.411 50.371 404.471 50.431 C 404.511 50.5 404.601 50.54 404.691 50.54 C 404.751 50.54 404.801 50.53 404.851 50.5 C 405.191 50.26 405.471 49.861 405.571 49.411 C 405.681 48.99 405.711 48.49 405.581 48.04 C 405.381 47.111 404.661 46.3 403.771 45.931 C 403.341 45.721 402.841 45.641 402.411 45.641 C 402.401 45.641 402.391 45.641 402.381 45.641 C 401.881 45.641 401.431 45.721 400.971 45.911 C 400.111 46.231 399.401 46.921 398.991 47.731 C 398.781 48.141 398.651 48.58 398.611 49.01 C 398.591 49.24 398.591 49.441 398.591 49.691 L 398.621 49.961 C 398.621 50.06 398.631 50.161 398.651 50.26 C 398.781 51.06 399.031 51.82 399.441 52.49 C 400.181 53.871 401.401 55 402.921 55.55 C 403.651 55.83 404.421 55.961 405.211 55.961 C 406.061 55.961 406.931 55.81 407.751 55.51 C 409.321 54.941 410.701 53.8 411.621 52.31 C 412.071 51.56 412.431 50.721 412.621 49.81 C 412.671 49.59 412.711 49.361 412.721 49.141 L 412.771 48.51 C 412.781 48.02 412.771 47.611 412.691 47.161 C 412.461 45.421 411.631 43.76 410.521 42.431 C 409.371 41.1 407.941 40.08 406.421 39.451 C 405.641 39.121 404.851 38.871 404.071 38.711 C 403.271 38.54 402.501 38.441 401.731 38.381 C 401.191 38.33 400.651 38.3 400.111 38.3 C 399.091 38.3 398.081 38.391 397.091 38.54 C 395.561 38.79 394.071 39.26 392.671 39.861 C 391.281 40.471 389.951 41.27 388.791 42.211 C 387.601 43.171 386.571 44.29 385.791 45.57 L 386.601 46.121 C 387.341 44.971 388.321 44.01 389.461 43.201 C 390.601 42.391 391.841 41.731 393.161 41.27 C 394.481 40.81 395.871 40.5 397.271 40.371 C 397.691 40.34 398.121 40.32 398.531 40.32 C 399.511 40.32 400.491 40.411 401.451 40.57 C 402.831 40.81 404.161 41.231 405.311 41.911 C 406.461 42.58 407.431 43.471 408.101 44.5 Z" fill="#414042" stroke="none"/><path d="M 385.031 45.08 C 385.231 44.76 385.561 44.55 385.931 44.471 C 386.301 44.401 386.691 44.49 386.951 44.681 C 387.271 44.881 387.501 45.211 387.571 45.58 C 387.641 45.961 387.561 46.35 387.361 46.631 C 387.091 47.03 386.651 47.25 386.191 47.25 C 385.921 47.25 385.661 47.181 385.421 47.02 C 385.111 46.82 384.901 46.51 384.821 46.141 C 384.751 45.77 384.821 45.391 385.031 45.08 Z" fill="#414042" stroke="none"/><path d="M 378.481 23.671 C 378.541 23.85 378.571 24 378.571 24.221 C 378.581 24.381 378.551 24.6 378.501 24.79 C 378.391 25.191 378.181 25.59 377.851 25.901 C 377.491 26.27 376.861 26.461 376.181 26.461 C 375.651 26.461 375.101 26.34 374.611 26.1 C 374.051 25.84 373.551 25.391 373.191 24.901 C 372.801 24.401 372.551 23.81 372.431 23.211 C 372.191 22 372.531 20.76 373.151 19.81 C 373.811 18.871 374.761 18.161 375.731 17.78 C 376.461 17.481 377.311 17.31 378.201 17.31 C 379.501 17.31 380.871 17.671 382.061 18.471 C 383.071 19.121 383.991 20.09 384.661 21.25 C 385.341 22.401 385.761 23.731 385.991 25.111 C 386.221 26.49 386.291 27.891 386.191 29.29 C 386.071 30.691 385.751 32.08 385.301 33.401 C 384.831 34.721 384.181 35.971 383.361 37.1 C 382.561 38.24 381.591 39.221 380.451 39.961 L 380.991 40.78 C 382.271 40 383.391 38.961 384.351 37.78 C 385.291 36.611 386.101 35.29 386.691 33.891 C 387.311 32.481 387.771 31.01 388.021 29.471 C 388.261 27.961 388.321 26.371 388.191 24.83 C 388.111 24.06 388.021 23.29 387.851 22.49 C 387.701 21.711 387.441 20.931 387.121 20.151 C 386.481 18.621 385.461 17.191 384.131 16.04 C 382.811 14.931 381.151 14.111 379.401 13.871 C 379.051 13.81 378.731 13.79 378.371 13.79 C 378.271 13.79 378.161 13.79 378.051 13.8 L 377.431 13.84 C 377.201 13.861 376.971 13.901 376.751 13.941 C 375.841 14.131 374.991 14.481 374.251 14.941 C 372.761 15.861 371.631 17.24 371.061 18.81 C 370.481 20.401 370.431 22.131 371.011 23.641 C 371.571 25.161 372.691 26.391 374.071 27.131 C 374.741 27.53 375.501 27.78 376.311 27.911 C 376.401 27.931 376.501 27.931 376.611 27.941 L 376.881 27.981 C 377.121 27.971 377.321 27.971 377.561 27.951 C 377.981 27.911 378.421 27.78 378.831 27.57 C 379.651 27.161 380.341 26.461 380.661 25.59 C 380.851 25.141 380.931 24.681 380.921 24.181 C 380.931 23.74 380.851 23.231 380.621 22.79 C 380.261 21.911 379.451 21.181 378.521 20.981 C 378.311 20.921 378.091 20.901 377.881 20.901 C 377.631 20.901 377.391 20.931 377.161 20.99 C 376.711 21.1 376.311 21.381 376.061 21.711 C 375.991 21.83 376.011 22.02 376.141 22.111 C 376.191 22.141 376.241 22.161 376.291 22.161 C 376.301 22.161 376.311 22.151 376.321 22.151 L 376.361 22.151 C 376.401 22.151 376.441 22.151 376.481 22.151 C 376.811 22.151 377.051 22.211 377.271 22.31 L 377.301 22.32 C 377.271 22.34 377.331 22.34 377.351 22.35 L 377.411 22.371 L 377.441 22.401 C 377.491 22.431 377.551 22.451 377.601 22.49 C 377.711 22.56 377.801 22.631 377.901 22.701 C 378.201 23 378.371 23.32 378.481 23.671 Z" fill="#414042" stroke="none"/><path d="M 379.341 40.09 C 379.421 39.721 379.631 39.411 379.931 39.211 C 380.231 39 380.601 38.931 380.971 38.99 C 381.341 39.06 381.661 39.27 381.861 39.57 C 382.081 39.881 382.161 40.25 382.091 40.621 C 382.031 40.99 381.821 41.32 381.511 41.53 L 381.481 41.55 C 381.241 41.701 380.981 41.77 380.721 41.77 C 380.261 41.77 379.811 41.55 379.551 41.151 C 379.341 40.84 379.271 40.461 379.341 40.09 Z" fill="#414042" stroke="none"/><path d="M 403.771 589.971 C 405.551 591.75 407.311 592.381 408.181 592.381 C 408.421 592.381 408.591 592.33 408.681 592.24 C 409.081 591.85 408.681 589.611 406.401 587.33 C 404.131 585.05 395.411 578.981 395.411 578.981 C 395.411 578.981 400.721 586.921 403.771 589.971 Z" fill="#414042" stroke="none"/><path d="M 413.801 570.29 C 413.731 570.3 413.671 570.33 413.621 570.391 C 412.671 571.961 411.531 573.201 410.241 574.161 C 409.911 574.401 409.571 574.621 409.221 574.8 C 408.881 575.02 408.551 575.201 408.181 575.371 C 407.811 575.52 407.461 575.671 407.091 575.8 C 406.731 575.921 406.351 576.04 405.971 576.131 C 404.801 576.421 403.461 576.631 402.091 576.631 C 401.771 576.631 401.451 576.621 401.121 576.59 C 399.401 576.481 397.691 576.09 395.931 575.621 L 395.921 575.621 C 395.901 575.621 395.891 575.621 395.881 575.621 C 395.781 575.621 395.681 575.681 395.661 575.77 C 395.641 575.871 395.661 575.951 395.741 576.01 C 398.731 578.401 402.301 579.371 405.041 579.371 C 405.071 579.371 405.101 579.371 405.131 579.371 C 405.151 579.371 405.171 579.371 405.191 579.371 C 405.451 579.371 405.671 579.35 405.941 579.31 L 406.321 579.27 L 406.711 579.191 C 407.231 579.07 407.731 578.941 408.211 578.721 C 408.691 578.53 409.171 578.3 409.601 578.02 C 410.061 577.75 410.491 577.461 410.881 577.111 C 411.281 576.79 411.651 576.411 411.981 576.02 C 412.331 575.651 412.611 575.221 412.881 574.79 C 413.151 574.361 413.371 573.891 413.551 573.431 C 413.921 572.49 414.101 571.49 414.041 570.52 L 414.031 570.5 C 414.031 570.371 413.931 570.29 413.801 570.29 Z" fill="#414042" stroke="none"/><path d="M 392.231 590.661 C 392.101 591.02 391.961 591.381 391.801 591.75 C 391.631 592.1 391.451 592.441 391.241 592.78 C 391.051 593.131 390.841 593.471 390.601 593.8 C 389.631 595.1 388.391 596.231 386.831 597.191 C 386.771 597.231 386.731 597.29 386.731 597.371 C 386.731 597.49 386.801 597.6 386.941 597.6 L 386.951 597.611 C 387.071 597.621 387.181 597.621 387.301 597.621 C 388.161 597.621 389.041 597.431 389.861 597.121 C 390.321 596.941 390.801 596.721 391.231 596.451 C 391.641 596.191 392.081 595.891 392.461 595.55 C 392.841 595.211 393.221 594.85 393.551 594.451 C 393.891 594.05 394.191 593.621 394.461 593.171 C 394.731 592.731 394.981 592.26 395.151 591.78 C 395.371 591.3 395.511 590.8 395.621 590.27 L 395.711 589.881 L 395.751 589.51 C 395.781 589.221 395.811 588.981 395.801 588.711 C 395.831 585.951 394.871 582.34 392.451 579.3 C 392.401 579.25 392.331 579.221 392.261 579.221 C 392.241 579.221 392.231 579.221 392.211 579.221 C 392.101 579.26 392.031 579.381 392.061 579.481 L 392.061 579.5 C 392.531 581.26 392.921 582.971 393.031 584.681 C 393.151 586.391 392.921 588.09 392.561 589.53 C 392.481 589.931 392.351 590.29 392.231 590.661 Z" fill="#414042" stroke="none"/><path d="M 405.311 568.221 C 404.161 568.901 402.831 569.31 401.451 569.56 C 400.491 569.721 399.511 569.8 398.531 569.8 C 398.121 569.8 397.691 569.79 397.271 569.76 C 395.871 569.631 394.481 569.31 393.161 568.861 C 391.841 568.401 390.601 567.731 389.461 566.931 C 388.321 566.121 387.341 565.151 386.601 564 L 385.791 564.55 C 386.571 565.84 387.601 566.961 388.791 567.921 C 389.951 568.85 391.281 569.661 392.671 570.26 C 394.071 570.871 395.561 571.33 397.091 571.58 C 398.081 571.74 399.091 571.82 400.111 571.82 C 400.651 571.82 401.191 571.8 401.731 571.75 C 402.501 571.681 403.271 571.59 404.071 571.421 C 404.851 571.26 405.641 571 406.421 570.681 C 407.941 570.05 409.371 569.03 410.521 567.691 C 411.631 566.371 412.461 564.711 412.691 562.971 C 412.771 562.52 412.781 562.111 412.771 561.621 L 412.721 560.981 C 412.711 560.76 412.671 560.54 412.621 560.32 C 412.431 559.411 412.071 558.57 411.621 557.82 C 410.701 556.33 409.321 555.191 407.751 554.621 C 406.931 554.32 406.061 554.161 405.211 554.161 C 404.421 554.161 403.651 554.3 402.921 554.58 C 401.401 555.131 400.181 556.25 399.441 557.631 C 399.031 558.31 398.781 559.07 398.651 559.861 C 398.631 559.971 398.621 560.07 398.621 560.171 L 398.591 560.441 C 398.591 560.691 398.591 560.891 398.611 561.121 C 398.651 561.54 398.781 561.99 398.991 562.391 C 399.401 563.211 400.111 563.901 400.971 564.221 C 401.431 564.411 401.881 564.49 402.381 564.49 C 402.391 564.49 402.401 564.49 402.411 564.49 C 402.841 564.49 403.341 564.401 403.771 564.191 C 404.661 563.82 405.381 563.01 405.581 562.09 C 405.711 561.631 405.681 561.141 405.571 560.721 C 405.471 560.27 405.191 559.871 404.851 559.631 C 404.801 559.6 404.751 559.59 404.691 559.59 C 404.601 559.59 404.511 559.631 404.471 559.701 C 404.411 559.76 404.401 559.83 404.401 559.891 L 404.401 559.941 C 404.421 560.32 404.351 560.59 404.251 560.82 L 404.241 560.871 C 404.231 560.871 404.231 560.861 404.231 560.861 C 404.221 560.861 404.221 560.901 404.211 560.911 L 404.191 560.981 L 404.161 561 C 404.141 561.05 404.111 561.111 404.081 561.161 C 404.001 561.27 403.931 561.361 403.861 561.451 C 403.561 561.76 403.241 561.941 402.891 562.04 C 402.731 562.1 402.581 562.131 402.381 562.131 C 402.371 562.131 402.361 562.131 402.341 562.131 C 402.321 562.131 402.291 562.131 402.261 562.131 C 402.111 562.131 401.931 562.1 401.771 562.06 C 401.371 561.961 400.971 561.75 400.661 561.401 C 400.031 560.78 399.901 559.29 400.461 558.181 C 400.721 557.611 401.171 557.121 401.661 556.76 C 402.161 556.35 402.761 556.111 403.351 555.99 C 403.621 555.941 403.881 555.921 404.151 555.921 C 405.091 555.921 406.011 556.231 406.751 556.721 C 407.691 557.371 408.401 558.32 408.791 559.29 C 409.531 561.09 409.441 563.611 408.101 565.621 C 407.431 566.651 406.461 567.55 405.311 568.221 Z" fill="#414042" stroke="none"/><path d="M 385.031 565.05 C 385.231 565.361 385.561 565.58 385.931 565.651 C 386.301 565.721 386.691 565.641 386.951 565.451 C 387.271 565.25 387.501 564.921 387.571 564.54 C 387.641 564.171 387.561 563.78 387.361 563.5 C 387.091 563.1 386.651 562.881 386.191 562.881 C 385.921 562.881 385.661 562.951 385.421 563.111 C 385.111 563.31 384.901 563.621 384.821 563.99 C 384.751 564.35 384.821 564.74 385.031 565.05 Z" fill="#414042" stroke="none"/><path d="M 377.901 587.421 C 377.801 587.49 377.711 587.57 377.601 587.641 C 377.551 587.681 377.491 587.701 377.441 587.731 L 377.411 587.75 L 377.351 587.78 C 377.331 587.78 377.271 587.79 377.301 587.81 L 377.271 587.82 C 377.051 587.921 376.811 587.971 376.481 587.971 C 376.441 587.971 376.401 587.971 376.361 587.971 L 376.321 587.971 C 376.311 587.971 376.301 587.971 376.291 587.971 C 376.241 587.971 376.191 587.981 376.141 588.02 C 376.011 588.111 375.991 588.29 376.061 588.421 C 376.311 588.75 376.711 589.03 377.161 589.141 C 377.391 589.201 377.631 589.231 377.881 589.231 C 378.091 589.231 378.311 589.211 378.521 589.151 C 379.451 588.941 380.261 588.221 380.621 587.33 C 380.851 586.891 380.931 586.391 380.921 585.951 C 380.931 585.451 380.851 584.99 380.661 584.54 C 380.341 583.671 379.651 582.971 378.831 582.55 C 378.421 582.35 377.981 582.221 377.561 582.181 C 377.321 582.161 377.121 582.151 376.881 582.141 L 376.611 582.181 C 376.501 582.191 376.401 582.191 376.311 582.221 C 375.501 582.34 374.741 582.6 374.071 583 C 372.691 583.74 371.571 584.971 371.011 586.481 C 370.431 587.99 370.481 589.731 371.061 591.32 C 371.631 592.891 372.761 594.26 374.251 595.191 C 374.991 595.651 375.841 596 376.751 596.191 C 376.971 596.231 377.201 596.27 377.431 596.29 L 378.051 596.33 C 378.161 596.33 378.271 596.34 378.371 596.34 C 378.731 596.34 379.051 596.31 379.401 596.26 C 381.151 596.02 382.811 595.191 384.131 594.09 C 385.461 592.941 386.481 591.51 387.121 589.981 C 387.441 589.201 387.701 588.421 387.851 587.641 C 388.021 586.84 388.111 586.07 388.191 585.3 C 388.321 583.75 388.261 582.171 388.021 580.661 C 387.771 579.121 387.311 577.641 386.691 576.24 C 386.101 574.84 385.291 573.52 384.351 572.35 C 383.391 571.171 382.271 570.131 380.991 569.35 L 380.451 570.161 C 381.591 570.911 382.561 571.891 383.361 573.03 C 384.181 574.161 384.831 575.411 385.301 576.721 C 385.751 578.05 386.071 579.431 386.191 580.84 C 386.291 582.231 386.221 583.641 385.991 585.02 C 385.761 586.391 385.341 587.731 384.661 588.881 C 383.991 590.03 383.071 591 382.061 591.661 C 380.871 592.461 379.501 592.82 378.201 592.82 C 377.311 592.82 376.461 592.651 375.731 592.35 C 374.761 591.971 373.811 591.25 373.151 590.32 C 372.531 589.371 372.191 588.131 372.431 586.921 C 372.551 586.32 372.801 585.721 373.191 585.231 C 373.551 584.731 374.051 584.29 374.611 584.02 C 375.101 583.78 375.651 583.671 376.181 583.671 C 376.861 583.671 377.491 583.861 377.851 584.231 C 378.181 584.53 378.391 584.941 378.501 585.33 C 378.551 585.53 378.581 585.74 378.571 585.911 C 378.571 586.131 378.541 586.27 378.481 586.461 C 378.371 586.8 378.201 587.131 377.901 587.421 Z" fill="#414042" stroke="none"/><path d="M 379.341 570.03 C 379.421 570.401 379.631 570.721 379.931 570.911 C 380.231 571.121 380.601 571.201 380.971 571.141 C 381.341 571.06 381.661 570.85 381.861 570.56 C 382.081 570.25 382.161 569.881 382.091 569.5 C 382.031 569.131 381.821 568.81 381.511 568.6 L 381.481 568.58 C 381.241 568.431 380.981 568.361 380.721 568.361 C 380.261 568.361 379.811 568.58 379.551 568.971 C 379.341 569.29 379.271 569.661 379.341 570.03 Z" fill="#414042" stroke="none"/><path d="M 15.781 281.681 C 15.361 281.681 15.031 281.34 15.031 280.931 L 15.031 60.56 C 15.031 60.151 15.361 59.81 15.781 59.81 C 16.191 59.81 16.531 60.151 16.531 60.56 L 16.531 280.931 C 16.531 281.34 16.191 281.681 15.781 281.681 Z" fill="#414042" stroke="none"/><path d="M 398.281 281.681 C 397.871 281.681 397.531 281.34 397.531 280.931 L 397.531 60.56 C 397.531 60.151 397.871 59.81 398.281 59.81 C 398.691 59.81 399.031 60.151 399.031 60.56 L 399.031 280.931 C 399.031 281.34 398.691 281.681 398.281 281.681 Z" fill="#414042" stroke="none"/><path d="M 15.781 550.681 C 15.361 550.681 15.031 550.34 15.031 549.931 L 15.031 329.56 C 15.031 329.151 15.361 328.81 15.781 328.81 C 16.191 328.81 16.531 329.151 16.531 329.56 L 16.531 549.931 C 16.531 550.34 16.191 550.681 15.781 550.681 Z" fill="#414042" stroke="none"/><path d="M 398.281 550.681 C 397.871 550.681 397.531 550.34 397.531 549.931 L 397.531 329.56 C 397.531 329.151 397.871 328.81 398.281 328.81 C 398.691 328.81 399.031 329.151 399.031 329.56 L 399.031 549.931 C 399.031 550.34 398.691 550.681 398.281 550.681 Z" fill="#414042" stroke="none"/><path d="M 180.911 26.391 L 50.371 26.391 C 49.951 26.391 49.621 26.05 49.621 25.641 C 49.621 25.221 49.951 24.891 50.371 24.891 L 180.911 24.891 C 181.331 24.891 181.661 25.221 181.661 25.641 C 181.661 26.05 181.331 26.391 180.911 26.391 Z" fill="#414042" stroke="none"/><path d="M 364.241 26.391 L 230.201 26.391 C 229.791 26.391 229.451 26.05 229.451 25.641 C 229.451 25.221 229.791 24.891 230.201 24.891 L 364.241 24.891 C 364.651 24.891 364.991 25.221 364.991 25.641 C 364.991 26.05 364.651 26.391 364.241 26.391 Z" fill="#414042" stroke="none"/><path d="M 179.911 584.171 L 50.371 584.171 C 49.951 584.171 49.621 583.84 49.621 583.421 C 49.621 583.01 49.951 582.671 50.371 582.671 L 179.911 582.671 C 180.331 582.671 180.661 583.01 180.661 583.421 C 180.661 583.84 180.331 584.171 179.911 584.171 Z" fill="#414042" stroke="none"/><path d="M 364.241 584.171 L 230.201 584.171 C 229.791 584.171 229.451 583.84 229.451 583.421 C 229.451 583.01 229.791 582.671 230.201 582.671 L 364.241 582.671 C 364.651 582.671 364.991 583.01 364.991 583.421 C 364.991 583.84 364.651 584.171 364.241 584.171 Z" fill="#414042" stroke="none"/>
</svg>
