<?xml version="1.0" encoding="UTF-8"?>
<svg xmlns="http://www.w3.org/2000/svg" width="433.829" height="585.782" viewBox="0 0 433.829 585.782">
  <path d="M 32.254 496.914 C 32.254 494.954 31.254 492.404 30.194 489.714 C 29.004 486.704 27.786 483.594 27.786 481.014 L 27.786 301.168 C 28.624 297.285 29.904 294.659 31.674 293.867 C 31.954 293.743 32.124 293.47 32.124 293.169 C 32.124 293.139 32.114 293.112 32.114 293.083 C 32.114 293.054 32.124 293.027 32.124 292.998 C 32.124 292.696 31.954 292.423 31.674 292.299 C 29.904 291.507 28.624 288.881 27.786 284.998 L 27.786 105.156 C 27.786 102.575 29.004 99.463 30.194 96.454 C 31.254 93.76 32.254 91.213 32.254 89.252 C 32.254 86.371 29.904 84.026 27.022 84.026 C 24.14 84.026 21.795 86.371 21.795 89.252 C 21.795 91.213 22.795 93.76 23.853 96.454 C 25.037 99.463 26.259 102.575 26.259 105.156 L 26.259 284.998 C 25.42 288.883 24.141 291.507 22.368 292.299 C 22.065 292.436 21.941 292.769 21.972 293.083 C 21.941 293.398 22.065 293.731 22.368 293.867 C 24.141 294.659 25.42 297.283 26.259 301.168 L 26.259 481.014 C 26.259 483.594 25.037 486.704 23.853 489.714 C 22.795 492.404 21.795 494.954 21.795 496.914 C 21.795 499.794 24.14 502.144 27.022 502.144 C 29.904 502.144 32.254 499.794 32.254 496.914 Z" fill="#414042" stroke="none"/><path d="M 410.194 496.914 C 410.194 494.954 409.194 492.404 408.134 489.714 C 406.954 486.704 405.724 483.594 405.724 481.014 L 405.724 301.168 C 406.564 297.285 407.844 294.659 409.614 293.867 C 409.894 293.743 410.074 293.47 410.074 293.169 C 410.074 293.139 410.064 293.112 410.054 293.083 C 410.064 293.054 410.074 293.027 410.074 292.998 C 410.074 292.696 409.894 292.423 409.614 292.299 C 407.844 291.507 406.564 288.881 405.724 284.998 L 405.724 105.156 C 405.724 102.575 406.954 99.463 408.134 96.454 C 409.194 93.76 410.194 91.213 410.194 89.252 C 410.194 86.371 407.844 84.026 404.964 84.026 C 402.084 84.026 399.734 86.371 399.734 89.252 C 399.734 91.213 400.734 93.76 401.794 96.454 C 402.984 99.463 404.204 102.575 404.204 105.156 L 404.204 284.998 C 403.364 288.883 402.084 291.507 400.314 292.299 C 400.004 292.436 399.884 292.769 399.914 293.083 C 399.884 293.398 400.004 293.731 400.314 293.867 C 402.084 294.659 403.364 297.283 404.204 301.168 L 404.204 481.014 C 404.204 483.594 402.984 486.704 401.794 489.714 C 400.734 492.404 399.734 494.954 399.734 496.914 C 399.734 499.794 402.084 502.144 404.964 502.144 C 407.844 502.144 410.194 499.794 410.194 496.914 Z" fill="#414042" stroke="none"/><path d="M 344.744 19.903 C 342.784 19.903 340.234 20.904 337.544 21.963 C 334.534 23.147 331.414 24.369 328.834 24.369 L 225.004 24.369 C 221.114 23.529 218.494 22.253 217.704 20.48 C 217.574 20.204 217.304 20.027 217.004 20.027 C 216.974 20.027 216.944 20.037 216.914 20.04 C 216.884 20.037 216.864 20.027 216.834 20.027 C 216.524 20.027 216.254 20.204 216.134 20.48 C 215.334 22.253 212.714 23.529 208.834 24.369 L 104.994 24.369 C 102.414 24.369 99.304 23.147 96.294 21.963 C 93.594 20.904 91.054 19.903 89.084 19.903 C 86.204 19.903 83.864 22.249 83.864 25.132 C 83.864 28.014 86.204 30.36 89.084 30.36 C 91.054 30.36 93.594 29.36 96.294 28.302 C 99.304 27.118 102.414 25.896 104.994 25.896 L 208.834 25.896 C 212.714 26.735 215.334 28.014 216.134 29.787 C 216.264 30.089 216.604 30.214 216.914 30.182 C 217.234 30.214 217.564 30.089 217.704 29.787 C 218.494 28.014 221.114 26.735 225.004 25.896 L 328.834 25.896 C 331.414 25.896 334.534 27.118 337.544 28.302 C 340.234 29.36 342.784 30.36 344.744 30.36 C 347.624 30.36 349.964 28.014 349.964 25.132 C 349.964 22.249 347.624 19.903 344.744 19.903 Z" fill="#414042" stroke="none"/><path d="M 344.744 555.064 C 342.784 555.064 340.234 556.064 337.544 557.124 C 334.534 558.304 331.414 559.524 328.834 559.524 L 225.004 559.524 C 221.114 558.684 218.494 557.414 217.704 555.634 C 217.574 555.364 217.304 555.184 217.004 555.184 C 216.974 555.184 216.944 555.194 216.914 555.204 C 216.884 555.194 216.864 555.184 216.834 555.184 C 216.524 555.184 216.254 555.364 216.134 555.634 C 215.334 557.414 212.714 558.684 208.834 559.524 L 105.994 559.524 C 103.414 559.524 100.304 558.304 97.294 557.124 C 94.594 556.064 92.054 555.064 90.084 555.064 C 87.204 555.064 84.864 557.404 84.864 560.294 C 84.864 563.174 87.204 565.524 90.084 565.524 C 92.054 565.524 94.594 564.524 97.294 563.464 C 100.304 562.274 103.414 561.054 105.994 561.054 L 208.834 561.054 C 212.714 561.894 215.334 563.174 216.134 564.944 C 216.264 565.254 216.604 565.374 216.914 565.344 C 217.234 565.374 217.564 565.254 217.704 564.944 C 218.494 563.174 221.114 561.894 225.004 561.054 L 328.834 561.054 C 331.414 561.054 334.534 562.274 337.544 563.464 C 340.234 564.524 342.784 565.524 344.744 565.524 C 347.624 565.524 349.964 563.174 349.964 560.294 C 349.964 557.404 347.624 555.064 344.744 555.064 Z" fill="#414042" stroke="none"/><path d="M 14.869 526.934 C 14.455 526.934 14.119 526.594 14.119 526.184 L 14.119 59.28 C 14.119 58.866 14.455 58.53 14.869 58.53 C 15.283 58.53 15.619 58.866 15.619 59.28 L 15.619 526.184 C 15.619 526.594 15.283 526.934 14.869 526.934 Z" fill="#414042" stroke="none"/><path d="M 371.374 14.57 L 59.454 14.57 C 59.044 14.57 58.704 14.235 58.704 13.82 C 58.704 13.406 59.044 13.07 59.454 13.07 L 371.374 13.07 C 371.794 13.07 372.124 13.406 372.124 13.82 C 372.124 14.235 371.794 14.57 371.374 14.57 Z" fill="#414042" stroke="none"/><path d="M 371.374 573.714 L 59.454 573.714 C 59.044 573.714 58.704 573.374 58.704 572.964 C 58.704 572.544 59.044 572.214 59.454 572.214 L 371.374 572.214 C 371.794 572.214 372.124 572.544 372.124 572.964 C 372.124 573.374 371.794 573.714 371.374 573.714 Z" fill="#414042" stroke="none"/><path d="M 417.964 526.934 C 417.544 526.934 417.214 526.594 417.214 526.184 L 417.214 59.28 C 417.214 58.866 417.544 58.53 417.964 58.53 C 418.374 58.53 418.714 58.866 418.714 59.28 L 418.714 526.184 C 418.714 526.594 418.374 526.934 417.964 526.934 Z" fill="#414042" stroke="none"/><path d="M 35.194 4.185 C 33.414 2.532 30.944 1.877 28.554 2.019 C 22.687 2.368 19.316 7.185 19.099 12.735 C 18.967 16.212 20.163 19.229 22.074 21.84 C 19.528 19.842 16.553 18.546 13.073 18.563 C 7.519 18.592 2.592 21.799 2.046 27.652 C 1.824 30.035 2.395 32.529 3.988 34.364 C 5.692 36.326 8.598 37.198 10.972 35.902 C 12.508 35.061 14.914 31.196 11.786 30.813 C 9.503 30.533 7.475 34.235 10.296 34.828 C 7.437 36.371 4.496 33.75 4.33 30.866 C 4.146 27.673 6.596 24.696 9.347 23.358 C 11.277 22.422 13.871 22.026 16.006 22.2 C 19.6 22.493 22.52 24.652 24.886 27.228 C 25.663 26.352 26.422 25.465 26.972 24.433 C 24.659 22.058 22.8 19.198 22.637 15.788 C 22.534 13.649 23.017 11.069 24.018 9.172 C 25.447 6.467 28.504 4.119 31.694 4.41 C 34.564 4.672 37.084 7.7 35.454 10.505 C 34.954 7.667 31.184 9.568 31.384 11.86 C 31.664 14.999 35.604 12.724 36.504 11.217 C 37.874 8.888 37.104 5.954 35.194 4.185 Z" fill="#414042" stroke="none"/><path d="M 59.524 62.902 C 61.694 62.902 63.454 61.144 63.454 58.976 C 63.454 56.809 61.694 55.052 59.524 55.052 C 57.364 55.052 55.604 56.809 55.604 58.976 C 55.604 61.144 57.364 62.902 59.524 62.902 Z" fill="#414042" stroke="none"/><path d="M 14.868 17.198 C 16.352 17.198 17.558 15.994 17.558 14.509 C 17.558 13.024 16.352 11.82 14.868 11.82 C 13.384 11.82 12.18 13.024 12.18 14.509 C 12.18 15.994 13.384 17.198 14.868 17.198 Z" fill="#414042" stroke="none"/><path d="M 50.994 50.941 C 47.904 51.48 44.664 50.862 41.304 49.102 C 37.934 47.339 35.054 45.204 32.654 42.688 C 30.244 40.177 28.534 37.564 27.519 34.833 C 26.504 32.113 26.8 29.949 28.404 28.347 C 30.004 26.743 32.164 26.45 34.894 27.461 C 37.614 28.483 40.234 30.192 42.744 32.593 C 45.254 35 47.364 37.91 49.074 41.328 C 50.784 44.743 51.424 47.95 50.994 50.941 Z M 75.524 24.179 C 72.844 21.297 69.674 19.881 65.984 19.933 C 62.294 19.985 59.164 21.186 56.604 23.538 C 54.144 25.998 52.984 28.773 53.084 31.871 C 53.194 34.972 54.144 37.43 55.964 39.244 C 57.254 40.315 58.744 40.9 60.454 41.007 C 62.164 41.112 63.494 40.685 64.454 39.724 C 65.634 38.545 66.224 37.11 66.224 35.398 C 66.224 33.687 65.794 32.407 64.944 31.547 C 64.194 30.803 63.364 30.297 62.454 30.029 C 61.554 29.762 60.824 30.114 60.294 31.07 C 59.654 32.139 59.764 33.318 60.614 34.593 C 61.154 35.131 61.524 35.774 61.734 36.517 C 61.954 37.264 61.734 37.748 61.094 37.961 C 59.814 38.39 58.694 38.175 57.734 37.318 C 56.764 36.468 56.124 35.347 55.804 33.952 C 55.484 32.569 55.544 31.073 55.964 29.464 C 56.394 27.866 57.304 26.477 58.694 25.299 C 59.974 24.234 61.444 23.458 63.094 22.974 C 64.754 22.496 66.354 22.392 67.904 22.656 C 69.454 22.922 70.924 23.592 72.314 24.656 C 73.704 25.728 74.824 27.227 75.674 29.145 C 75.574 29.474 75.284 29.654 74.794 29.704 C 74.314 29.762 73.754 29.841 73.114 29.947 C 72.474 30.053 71.804 30.243 71.114 30.511 C 70.414 30.775 69.854 31.336 69.424 32.191 C 68.784 33.266 68.574 34.33 68.784 35.395 C 69.004 36.46 69.234 37.506 69.504 38.519 C 69.774 39.541 69.934 40.55 69.994 41.564 C 70.044 42.587 69.594 43.57 68.634 44.532 C 66.594 46.564 64.274 48.032 61.654 48.937 C 59.044 49.848 56.394 50.463 53.724 50.777 C 53.824 47.258 53.244 43.949 51.964 40.844 C 50.674 37.751 48.914 35.024 46.674 32.667 C 44.434 30.322 41.924 28.399 39.144 26.902 C 36.364 25.406 33.474 24.553 30.484 24.339 C 31.124 22.631 32.594 21.8 34.894 21.856 C 37.194 21.905 39.354 22.202 41.384 22.735 C 46.294 23.803 49.984 23.111 52.444 20.652 C 53.294 19.8 53.904 18.596 54.284 17.045 C 54.654 15.5 54.044 14.671 52.434 14.567 C 51.694 14.456 50.914 14.433 50.114 14.488 C 49.324 14.539 48.594 14.355 47.954 13.922 C 46.884 13.285 46.344 12.27 46.354 10.879 C 46.354 9.492 46.724 8.422 47.474 7.671 C 48.114 7.032 48.804 6.553 49.554 6.23 C 50.304 5.913 50.994 6.179 51.644 7.031 C 51.954 7.567 52.064 8.156 51.954 8.795 C 51.854 9.435 52.164 9.916 52.924 10.235 C 53.664 10.564 54.394 10.588 55.084 10.318 C 55.784 10.054 56.394 9.652 56.934 9.113 C 57.674 8.156 57.914 7.325 57.644 6.633 C 57.384 5.94 56.824 5.163 55.964 4.306 C 54.794 3.132 53.084 2.492 50.834 2.381 C 48.594 2.279 46.674 2.919 45.064 4.31 C 43.574 5.802 42.844 7.595 42.904 9.673 C 42.954 11.76 43.254 13.709 43.784 15.524 C 43.784 15.957 43.554 16.358 43.064 16.728 C 42.584 17.103 42.024 17.394 41.384 17.607 C 39.784 17.718 38.474 17.798 37.454 17.85 C 36.434 17.902 35.134 17.983 33.534 18.089 C 31.604 18.305 29.824 19.183 28.166 20.732 C 26.507 22.282 25.517 23.754 25.199 25.14 C 23.807 25.463 22.336 26.453 20.794 28.104 C 19.242 29.758 18.358 31.554 18.147 33.471 C 18.038 35.074 17.953 36.384 17.905 37.401 C 17.852 38.418 17.771 39.727 17.667 41.324 C 17.451 41.968 17.157 42.528 16.784 43.009 C 16.409 43.494 16.011 43.728 15.583 43.728 C 13.768 43.197 11.816 42.902 9.731 42.848 C 7.646 42.797 5.857 43.521 4.365 45.014 C 2.977 46.615 2.335 48.538 2.437 50.783 C 2.549 53.028 3.191 54.731 4.367 55.906 C 5.222 56.761 5.992 57.326 6.687 57.592 C 7.383 57.861 8.211 57.62 9.172 56.871 C 9.707 56.339 10.105 55.727 10.376 55.028 C 10.644 54.335 10.614 53.618 10.293 52.864 C 9.97 52.115 9.491 51.797 8.85 51.901 C 8.211 52.015 7.62 51.907 7.09 51.582 C 6.233 50.945 5.966 50.252 6.281 49.499 C 6.605 48.753 7.087 48.057 7.729 47.414 C 8.475 46.667 9.547 46.296 10.933 46.298 C 12.324 46.295 13.337 46.828 13.976 47.895 C 14.408 48.541 14.595 49.265 14.542 50.064 C 14.486 50.863 14.512 51.638 14.62 52.384 C 14.727 53.987 15.555 54.603 17.102 54.225 C 18.649 53.855 19.855 53.239 20.711 52.383 C 23.165 49.928 23.859 46.241 22.794 41.327 C 22.259 39.295 21.964 37.132 21.912 34.836 C 21.861 32.539 22.684 31.073 24.394 30.43 C 24.607 33.422 25.464 36.307 26.96 39.084 C 28.464 41.863 30.384 44.374 32.734 46.612 C 35.074 48.863 37.804 50.623 40.904 51.903 C 44.004 53.185 47.314 53.773 50.834 53.665 C 50.514 56.34 49.904 58.984 48.994 61.6 C 48.084 64.219 46.624 66.542 44.594 68.572 C 43.624 69.531 42.644 69.991 41.624 69.932 C 40.604 69.878 39.594 69.722 38.574 69.449 C 37.564 69.183 36.514 68.945 35.454 68.726 C 34.384 68.514 33.324 68.735 32.244 69.37 C 31.394 69.795 30.834 70.359 30.564 71.054 C 30.304 71.75 30.114 72.416 30.004 73.057 C 29.894 73.701 29.814 74.259 29.754 74.739 C 29.704 75.223 29.524 75.52 29.204 75.619 C 27.281 74.772 25.788 73.646 24.717 72.257 C 23.648 70.867 22.983 69.398 22.714 67.851 C 22.449 66.301 22.55 64.697 23.031 63.041 C 23.511 61.388 24.289 59.917 25.359 58.632 C 26.532 57.246 27.921 56.339 29.524 55.91 C 31.124 55.484 32.624 55.434 34.014 55.75 C 35.404 56.072 36.524 56.711 37.374 57.67 C 38.234 58.635 38.444 59.758 38.014 61.037 C 37.804 61.68 37.314 61.894 36.574 61.678 C 35.824 61.465 35.184 61.092 34.654 60.554 C 33.374 59.708 32.194 59.597 31.124 60.239 C 30.164 60.772 29.824 61.494 30.084 62.403 C 30.354 63.308 30.864 64.136 31.604 64.881 C 32.464 65.739 33.744 66.172 35.454 66.165 C 37.164 66.169 38.604 65.577 39.774 64.402 C 40.744 63.438 41.164 62.104 41.064 60.398 C 40.954 58.688 40.364 57.197 39.294 55.908 C 37.484 54.093 35.024 53.132 31.934 53.023 C 28.824 52.922 26.053 54.092 23.595 56.551 C 21.24 59.118 20.04 62.244 19.986 65.926 C 19.935 69.615 21.35 72.79 24.235 75.465 C 26.906 77.916 29.924 79.121 33.284 79.067 C 36.654 79.019 39.624 77.919 42.184 75.779 C 44.644 73.754 46.964 70.841 49.154 67.047 C 51.344 63.254 52.704 59.381 53.244 55.429 L 53.554 53.485 L 55.484 53.185 C 59.434 52.653 63.304 51.289 67.104 49.099 C 70.894 46.91 73.814 44.584 75.844 42.13 C 77.974 39.569 79.074 36.602 79.124 33.233 C 79.174 29.87 77.974 26.849 75.524 24.179 Z" fill="#414042" stroke="none"/><path d="M 398.634 4.185 C 400.414 2.532 402.884 1.877 405.274 2.019 C 411.144 2.368 414.514 7.185 414.734 12.735 C 414.864 16.212 413.664 19.229 411.754 21.84 C 414.304 19.842 417.274 18.546 420.754 18.563 C 426.314 18.592 431.244 21.799 431.784 27.652 C 432.004 30.035 431.434 32.529 429.844 34.364 C 428.134 36.326 425.234 37.198 422.854 35.902 C 421.324 35.061 418.914 31.196 422.044 30.813 C 424.324 30.533 426.354 34.235 423.534 34.828 C 426.394 36.371 429.334 33.75 429.504 30.866 C 429.684 27.673 427.234 24.696 424.484 23.358 C 422.554 22.422 419.954 22.026 417.824 22.2 C 414.234 22.493 411.314 24.652 408.944 27.228 C 408.164 26.352 407.404 25.465 406.854 24.433 C 409.174 22.058 411.034 19.198 411.194 15.788 C 411.294 13.649 410.814 11.069 409.814 9.172 C 408.384 6.467 405.324 4.119 402.144 4.41 C 399.264 4.672 396.744 7.7 398.384 10.505 C 398.874 7.667 402.644 9.568 402.444 11.86 C 402.164 14.999 398.224 12.724 397.334 11.217 C 395.954 8.888 396.734 5.954 398.634 4.185 Z" fill="#414042" stroke="none"/><path d="M 374.304 62.902 C 372.134 62.902 370.374 61.144 370.374 58.976 C 370.374 56.809 372.134 55.052 374.304 55.052 C 376.474 55.052 378.224 56.809 378.224 58.976 C 378.224 61.144 376.474 62.902 374.304 62.902 Z" fill="#414042" stroke="none"/><path d="M 418.964 17.198 C 417.474 17.198 416.274 15.994 416.274 14.509 C 416.274 13.024 417.474 11.82 418.964 11.82 C 420.444 11.82 421.654 13.024 421.654 14.509 C 421.654 15.994 420.444 17.198 418.964 17.198 Z" fill="#414042" stroke="none"/><path d="M 384.754 41.328 C 386.464 37.91 388.574 35 391.084 32.593 C 393.594 30.192 396.214 28.483 398.934 27.461 C 401.664 26.45 403.824 26.743 405.424 28.347 C 407.034 29.949 407.324 32.113 406.314 34.833 C 405.294 37.564 403.584 40.177 401.184 42.688 C 398.774 45.204 395.894 47.339 392.524 49.102 C 389.164 50.862 385.934 51.48 382.834 50.941 C 382.404 47.95 383.044 44.743 384.754 41.328 Z M 354.714 33.233 C 354.764 36.602 355.854 39.569 357.994 42.13 C 360.024 44.584 362.934 46.91 366.724 49.099 C 370.524 51.289 374.394 52.653 378.344 53.185 L 380.284 53.485 L 380.584 55.429 C 381.124 59.381 382.484 63.254 384.674 67.047 C 386.864 70.841 389.194 73.754 391.644 75.779 C 394.204 77.919 397.174 79.019 400.544 79.067 C 403.904 79.121 406.924 77.916 409.594 75.465 C 412.484 72.79 413.894 69.615 413.844 65.926 C 413.794 62.244 412.594 59.118 410.234 56.551 C 407.774 54.092 405.004 52.922 401.904 53.023 C 398.804 53.132 396.344 54.093 394.534 55.908 C 393.464 57.197 392.874 58.688 392.764 60.398 C 392.664 62.104 393.084 63.438 394.054 64.402 C 395.224 65.577 396.664 66.169 398.374 66.165 C 400.084 66.172 401.364 65.739 402.224 64.881 C 402.964 64.136 403.484 63.308 403.744 62.403 C 404.014 61.494 403.664 60.772 402.704 60.239 C 401.634 59.597 400.454 59.708 399.184 60.554 C 398.644 61.092 398.004 61.465 397.254 61.678 C 396.514 61.894 396.024 61.68 395.814 61.037 C 395.384 59.758 395.604 58.635 396.454 57.67 C 397.314 56.711 398.434 56.072 399.814 55.75 C 401.204 55.434 402.704 55.484 404.304 55.91 C 405.914 56.339 407.294 57.246 408.474 58.632 C 409.544 59.917 410.324 61.388 410.794 63.041 C 411.284 64.697 411.384 66.301 411.114 67.851 C 410.844 69.398 410.184 70.867 409.114 72.257 C 408.044 73.646 406.544 74.772 404.624 75.619 C 404.304 75.52 404.124 75.223 404.074 74.739 C 404.014 74.259 403.934 73.701 403.824 73.057 C 403.724 72.416 403.524 71.75 403.264 71.054 C 402.994 70.359 402.434 69.795 401.584 69.37 C 400.514 68.735 399.444 68.514 398.374 68.726 C 397.314 68.945 396.274 69.183 395.254 69.449 C 394.234 69.722 393.224 69.878 392.204 69.932 C 391.194 69.991 390.204 69.531 389.244 68.572 C 387.214 66.542 385.744 64.219 384.834 61.6 C 383.934 58.984 383.314 56.34 382.994 53.665 C 386.514 53.773 389.824 53.185 392.934 51.903 C 396.024 50.623 398.754 48.863 401.104 46.612 C 403.454 44.374 405.364 41.863 406.874 39.084 C 408.364 36.307 409.224 33.422 409.434 30.43 C 411.144 31.073 411.974 32.539 411.914 34.836 C 411.864 37.132 411.574 39.295 411.034 41.327 C 409.974 46.241 410.664 49.928 413.124 52.383 C 413.974 53.239 415.184 53.855 416.724 54.225 C 418.274 54.603 419.104 53.987 419.214 52.384 C 419.314 51.638 419.344 50.863 419.284 50.064 C 419.234 49.265 419.424 48.541 419.854 47.895 C 420.494 46.828 421.504 46.295 422.894 46.298 C 424.284 46.296 425.354 46.667 426.104 47.414 C 426.744 48.057 427.224 48.753 427.544 49.499 C 427.864 50.252 427.594 50.945 426.744 51.582 C 426.214 51.907 425.624 52.015 424.984 51.901 C 424.344 51.797 423.864 52.115 423.534 52.864 C 423.214 53.618 423.184 54.335 423.454 55.028 C 423.724 55.727 424.124 56.339 424.654 56.871 C 425.624 57.62 426.444 57.861 427.144 57.592 C 427.834 57.326 428.604 56.761 429.464 55.906 C 430.644 54.731 431.284 53.028 431.394 50.783 C 431.494 48.538 430.854 46.615 429.464 45.014 C 427.974 43.521 426.184 42.797 424.104 42.848 C 422.014 42.902 420.064 43.197 418.244 43.728 C 417.824 43.728 417.424 43.494 417.044 43.009 C 416.674 42.528 416.384 41.968 416.164 41.324 C 416.054 39.727 415.974 38.418 415.924 37.401 C 415.874 36.384 415.794 35.074 415.684 33.471 C 415.474 31.554 414.584 29.758 413.034 28.104 C 411.494 26.453 410.024 25.463 408.634 25.14 C 408.314 23.754 407.324 22.282 405.664 20.732 C 404.014 19.183 402.224 18.305 400.304 18.089 C 398.704 17.983 397.394 17.902 396.374 17.85 C 395.364 17.798 394.044 17.718 392.444 17.607 C 391.804 17.394 391.244 17.103 390.764 16.728 C 390.284 16.358 390.044 15.957 390.044 15.524 C 390.574 13.709 390.874 11.76 390.924 9.673 C 390.984 7.595 390.254 5.802 388.764 4.31 C 387.154 2.919 385.244 2.279 382.994 2.381 C 380.744 2.492 379.034 3.132 377.864 4.306 C 377.004 5.163 376.454 5.94 376.184 6.633 C 375.914 7.325 376.154 8.156 376.904 9.113 C 377.444 9.652 378.054 10.054 378.744 10.318 C 379.444 10.588 380.164 10.564 380.904 10.235 C 381.664 9.916 381.974 9.435 381.874 8.795 C 381.764 8.156 381.874 7.567 382.194 7.031 C 382.834 6.179 383.524 5.913 384.274 6.23 C 385.024 6.553 385.714 7.032 386.354 7.671 C 387.114 8.422 387.484 9.492 387.484 10.879 C 387.484 12.27 386.954 13.285 385.874 13.922 C 385.234 14.355 384.514 14.539 383.714 14.488 C 382.914 14.433 382.134 14.456 381.394 14.567 C 379.784 14.671 379.174 15.5 379.544 17.045 C 379.924 18.596 380.534 19.8 381.384 20.652 C 383.844 23.111 387.534 23.803 392.444 22.735 C 394.484 22.202 396.634 21.905 398.934 21.856 C 401.234 21.8 402.704 22.631 403.344 24.339 C 400.354 24.553 397.464 25.406 394.694 26.902 C 391.904 28.399 389.394 30.322 387.154 32.667 C 384.914 35.024 383.154 37.751 381.874 40.844 C 380.584 43.949 380.004 47.258 380.114 50.777 C 377.434 50.463 374.794 49.848 372.174 48.937 C 369.554 48.032 367.234 46.564 365.204 44.532 C 364.244 43.57 363.784 42.587 363.844 41.564 C 363.894 40.55 364.054 39.541 364.324 38.519 C 364.594 37.506 364.834 36.46 365.044 35.395 C 365.264 34.33 365.044 33.266 364.404 32.191 C 363.974 31.336 363.414 30.775 362.724 30.511 C 362.024 30.243 361.354 30.053 360.714 29.947 C 360.074 29.841 359.514 29.762 359.034 29.704 C 358.554 29.654 358.254 29.474 358.154 29.145 C 359.004 27.227 360.124 25.728 361.514 24.656 C 362.904 23.592 364.374 22.922 365.924 22.656 C 367.474 22.392 369.084 22.496 370.734 22.974 C 372.394 23.458 373.854 24.234 375.134 25.299 C 376.524 26.477 377.444 27.866 377.864 29.464 C 378.294 31.073 378.344 32.569 378.024 33.952 C 377.704 35.347 377.064 36.468 376.104 37.318 C 375.144 38.175 374.014 38.39 372.734 37.961 C 372.094 37.748 371.884 37.264 372.094 36.517 C 372.314 35.774 372.684 35.131 373.214 34.593 C 374.074 33.318 374.174 32.139 373.534 31.07 C 373.004 30.114 372.284 29.762 371.374 30.029 C 370.464 30.297 369.634 30.803 368.894 31.547 C 368.034 32.407 367.604 33.687 367.604 35.398 C 367.604 37.11 368.194 38.545 369.374 39.724 C 370.334 40.685 371.674 41.112 373.374 41.007 C 375.084 40.9 376.574 40.315 377.864 39.244 C 379.684 37.43 380.644 34.972 380.754 31.871 C 380.854 28.773 379.684 25.998 377.224 23.538 C 374.664 21.186 371.534 19.985 367.854 19.933 C 364.164 19.881 360.984 21.297 358.314 24.179 C 355.854 26.849 354.654 29.87 354.714 33.233 Z" fill="#414042" stroke="none"/><path d="M 35.194 581.594 C 33.414 583.254 30.944 583.904 28.554 583.764 C 22.687 583.414 19.316 578.594 19.099 573.044 C 18.967 569.574 20.163 566.554 22.074 563.944 C 19.528 565.934 16.553 567.234 13.073 567.214 C 7.519 567.184 2.592 563.984 2.046 558.134 C 1.824 555.744 2.395 553.254 3.988 551.414 C 5.692 549.454 8.598 548.584 10.972 549.884 C 12.508 550.724 14.914 554.584 11.786 554.964 C 9.503 555.244 7.475 551.544 10.296 550.954 C 7.437 549.414 4.496 552.034 4.33 554.914 C 4.146 558.104 6.596 561.084 9.347 562.424 C 11.277 563.364 13.871 563.754 16.006 563.584 C 19.6 563.294 22.52 561.134 24.886 558.554 C 25.663 559.434 26.422 560.314 26.972 561.344 C 24.659 563.724 22.8 566.584 22.637 569.994 C 22.534 572.134 23.017 574.714 24.018 576.614 C 25.447 579.314 28.504 581.664 31.694 581.374 C 34.564 581.104 37.084 578.084 35.454 575.274 C 34.954 578.114 31.184 576.214 31.384 573.924 C 31.664 570.784 35.604 573.054 36.504 574.564 C 37.874 576.894 37.104 579.824 35.194 581.594 Z" fill="#414042" stroke="none"/><path d="M 59.524 522.884 C 61.694 522.884 63.454 524.634 63.454 526.804 C 63.454 528.974 61.694 530.734 59.524 530.734 C 57.364 530.734 55.604 528.974 55.604 526.804 C 55.604 524.634 57.364 522.884 59.524 522.884 Z" fill="#414042" stroke="none"/><path d="M 14.868 568.584 C 16.352 568.584 17.558 569.784 17.558 571.274 C 17.558 572.754 16.352 573.964 14.868 573.964 C 13.384 573.964 12.18 572.754 12.18 571.274 C 12.18 569.784 13.384 568.584 14.868 568.584 Z" fill="#414042" stroke="none"/><path d="M 49.074 544.454 C 47.364 547.874 45.254 550.784 42.744 553.184 C 40.234 555.594 37.614 557.294 34.894 558.324 C 32.164 559.334 30.004 559.034 28.404 557.434 C 26.8 555.834 26.504 553.664 27.519 550.944 C 28.534 548.214 30.244 545.604 32.654 543.094 C 35.054 540.574 37.934 538.444 41.304 536.684 C 44.664 534.924 47.904 534.304 50.994 534.844 C 51.424 537.834 50.784 541.034 49.074 544.454 Z M 79.124 552.544 C 79.074 549.184 77.974 546.214 75.844 543.654 C 73.814 541.194 70.894 538.874 67.104 536.684 C 63.304 534.494 59.434 533.124 55.484 532.594 L 53.554 532.294 L 53.244 530.354 C 52.704 526.404 51.344 522.524 49.154 518.734 C 46.964 514.944 44.644 512.024 42.184 510.004 C 39.624 507.864 36.654 506.764 33.284 506.714 C 29.924 506.664 26.906 507.864 24.235 510.314 C 21.35 512.994 19.935 516.164 19.986 519.854 C 20.04 523.534 21.24 526.664 23.595 529.234 C 26.053 531.694 28.824 532.864 31.934 532.754 C 35.024 532.644 37.484 531.684 39.294 529.874 C 40.364 528.584 40.954 527.094 41.064 525.384 C 41.164 523.674 40.744 522.344 39.774 521.384 C 38.604 520.204 37.164 519.614 35.454 519.614 C 33.744 519.614 32.464 520.044 31.604 520.904 C 30.864 521.644 30.354 522.474 30.084 523.374 C 29.824 524.284 30.164 525.014 31.124 525.544 C 32.194 526.184 33.374 526.074 34.654 525.224 C 35.184 524.694 35.824 524.314 36.574 524.104 C 37.314 523.884 37.804 524.104 38.014 524.744 C 38.444 526.024 38.234 527.144 37.374 528.114 C 36.524 529.074 35.404 529.714 34.014 530.034 C 32.624 530.344 31.124 530.294 29.524 529.874 C 27.921 529.444 26.532 528.534 25.359 527.144 C 24.289 525.864 23.511 524.394 23.031 522.744 C 22.55 521.084 22.449 519.484 22.714 517.934 C 22.983 516.384 23.648 514.914 24.717 513.524 C 25.788 512.134 27.281 511.014 29.204 510.164 C 29.524 510.264 29.704 510.554 29.754 511.044 C 29.814 511.524 29.894 512.084 30.004 512.724 C 30.114 513.364 30.304 514.034 30.564 514.724 C 30.834 515.424 31.394 515.984 32.244 516.414 C 33.324 517.044 34.384 517.264 35.454 517.054 C 36.514 516.834 37.564 516.594 38.574 516.334 C 39.594 516.064 40.604 515.904 41.624 515.854 C 42.644 515.794 43.624 516.254 44.594 517.214 C 46.624 519.244 48.084 521.564 48.994 524.184 C 49.904 526.794 50.514 529.444 50.834 532.114 C 47.314 532.004 44.004 532.594 40.904 533.874 C 37.804 535.154 35.074 536.914 32.734 539.174 C 30.384 541.404 28.464 543.914 26.96 546.694 C 25.464 549.474 24.607 552.364 24.394 555.354 C 22.684 554.704 21.861 553.244 21.912 550.944 C 21.964 548.654 22.259 546.484 22.794 544.454 C 23.859 539.544 23.165 535.854 20.711 533.394 C 19.855 532.544 18.649 531.924 17.102 531.554 C 15.555 531.174 14.727 531.794 14.62 533.394 C 14.512 534.144 14.486 534.914 14.542 535.714 C 14.595 536.514 14.408 537.244 13.976 537.884 C 13.337 538.954 12.324 539.484 10.933 539.484 C 9.547 539.484 8.475 539.114 7.729 538.364 C 7.087 537.724 6.605 537.024 6.281 536.284 C 5.966 535.534 6.233 534.834 7.09 534.204 C 7.62 533.874 8.211 533.764 8.85 533.884 C 9.491 533.984 9.97 533.664 10.293 532.914 C 10.614 532.164 10.644 531.444 10.376 530.754 C 10.105 530.054 9.707 529.444 9.172 528.914 C 8.211 528.164 7.383 527.924 6.687 528.194 C 5.992 528.454 5.222 529.024 4.367 529.874 C 3.191 531.054 2.549 532.754 2.437 534.994 C 2.335 537.244 2.977 539.164 4.365 540.764 C 5.857 542.264 7.646 542.984 9.731 542.934 C 11.816 542.884 13.768 542.584 15.583 542.054 C 16.011 542.054 16.409 542.284 16.784 542.774 C 17.157 543.254 17.451 543.814 17.667 544.454 C 17.771 546.054 17.852 547.364 17.905 548.384 C 17.953 549.394 18.038 550.704 18.147 552.314 C 18.358 554.224 19.242 556.024 20.794 557.674 C 22.336 559.324 23.807 560.314 25.199 560.644 C 25.517 562.024 26.507 563.504 28.166 565.044 C 29.824 566.594 31.604 567.474 33.534 567.694 C 35.134 567.794 36.434 567.884 37.454 567.934 C 38.474 567.984 39.784 568.064 41.384 568.174 C 42.024 568.384 42.584 568.674 43.064 569.054 C 43.554 569.424 43.784 569.824 43.784 570.254 C 43.254 572.074 42.954 574.024 42.904 576.104 C 42.844 578.184 43.574 579.974 45.064 581.474 C 46.674 582.864 48.594 583.504 50.834 583.404 C 53.084 583.294 54.794 582.654 55.964 581.474 C 56.824 580.614 57.384 579.844 57.644 579.144 C 57.914 578.454 57.674 577.624 56.934 576.664 C 56.394 576.134 55.784 575.724 55.084 575.464 C 54.394 575.194 53.664 575.214 52.924 575.544 C 52.164 575.864 51.854 576.344 51.954 576.984 C 52.064 577.624 51.954 578.214 51.644 578.754 C 50.994 579.604 50.304 579.864 49.554 579.554 C 48.804 579.224 48.114 578.754 47.474 578.114 C 46.724 577.354 46.354 576.294 46.354 574.904 C 46.344 573.514 46.884 572.494 47.954 571.864 C 48.594 571.424 49.324 571.244 50.114 571.294 C 50.914 571.344 51.694 571.324 52.434 571.214 C 54.044 571.114 54.654 570.284 54.284 568.734 C 53.904 567.184 53.294 565.984 52.444 565.134 C 49.984 562.674 46.294 561.974 41.384 563.044 C 39.354 563.584 37.194 563.874 34.894 563.924 C 32.594 563.984 31.124 563.154 30.484 561.444 C 33.474 561.224 36.364 560.374 39.144 558.884 C 41.924 557.384 44.434 555.464 46.674 553.114 C 48.914 550.754 50.674 548.034 51.964 544.934 C 53.244 541.834 53.824 538.524 53.724 535.004 C 56.394 535.314 59.044 535.934 61.654 536.844 C 64.274 537.754 66.594 539.214 68.634 541.254 C 69.594 542.214 70.044 543.194 69.994 544.214 C 69.934 545.234 69.774 546.244 69.504 547.264 C 69.234 548.274 69.004 549.324 68.784 550.384 C 68.574 551.454 68.784 552.514 69.424 553.594 C 69.854 554.444 70.414 555.004 71.114 555.274 C 71.804 555.534 72.474 555.724 73.114 555.834 C 73.754 555.944 74.314 556.024 74.794 556.074 C 75.284 556.124 75.574 556.304 75.674 556.634 C 74.824 558.554 73.704 560.054 72.314 561.124 C 70.924 562.194 69.454 562.864 67.904 563.124 C 66.354 563.384 64.754 563.284 63.094 562.804 C 61.444 562.324 59.974 561.544 58.694 560.484 C 57.304 559.304 56.394 557.914 55.964 556.314 C 55.544 554.704 55.484 553.214 55.804 551.834 C 56.124 550.434 56.764 549.314 57.734 548.464 C 58.694 547.604 59.814 547.394 61.094 547.824 C 61.734 548.034 61.954 548.514 61.734 549.264 C 61.524 550.004 61.154 550.654 60.614 551.184 C 59.764 552.464 59.654 553.644 60.294 554.714 C 60.824 555.664 61.554 556.024 62.454 555.754 C 63.364 555.484 64.194 554.974 64.944 554.234 C 65.794 553.374 66.224 552.094 66.224 550.384 C 66.224 548.674 65.634 547.234 64.454 546.054 C 63.494 545.094 62.164 544.674 60.454 544.774 C 58.744 544.884 57.254 545.464 55.964 546.534 C 54.144 548.354 53.194 550.814 53.084 553.914 C 52.984 557.004 54.144 559.784 56.604 562.244 C 59.164 564.594 62.294 565.794 65.984 565.844 C 69.674 565.904 72.844 564.484 75.524 561.604 C 77.974 558.934 79.174 555.914 79.124 552.544 Z" fill="#414042" stroke="none"/><path d="M 398.634 581.594 C 400.414 583.254 402.884 583.904 405.274 583.764 C 411.144 583.414 414.514 578.594 414.734 573.044 C 414.864 569.574 413.664 566.554 411.754 563.944 C 414.304 565.934 417.274 567.234 420.754 567.214 C 426.314 567.184 431.244 563.984 431.784 558.134 C 432.004 555.744 431.434 553.254 429.844 551.414 C 428.134 549.454 425.234 548.584 422.854 549.884 C 421.324 550.724 418.914 554.584 422.044 554.964 C 424.324 555.244 426.354 551.544 423.534 550.954 C 426.394 549.414 429.334 552.034 429.504 554.914 C 429.684 558.104 427.234 561.084 424.484 562.424 C 422.554 563.364 419.954 563.754 417.824 563.584 C 414.234 563.294 411.314 561.134 408.944 558.554 C 408.164 559.434 407.404 560.314 406.854 561.344 C 409.174 563.724 411.034 566.584 411.194 569.994 C 411.294 572.134 410.814 574.714 409.814 576.614 C 408.384 579.314 405.324 581.664 402.144 581.374 C 399.264 581.104 396.744 578.084 398.384 575.274 C 398.874 578.114 402.644 576.214 402.444 573.924 C 402.164 570.784 398.224 573.054 397.334 574.564 C 395.954 576.894 396.734 579.824 398.634 581.594 Z" fill="#414042" stroke="none"/><path d="M 374.304 522.884 C 372.134 522.884 370.374 524.634 370.374 526.804 C 370.374 528.974 372.134 530.734 374.304 530.734 C 376.474 530.734 378.224 528.974 378.224 526.804 C 378.224 524.634 376.474 522.884 374.304 522.884 Z" fill="#414042" stroke="none"/><path d="M 418.964 568.584 C 417.474 568.584 416.274 569.784 416.274 571.274 C 416.274 572.754 417.474 573.964 418.964 573.964 C 420.444 573.964 421.654 572.754 421.654 571.274 C 421.654 569.784 420.444 568.584 418.964 568.584 Z" fill="#414042" stroke="none"/><path d="M 382.834 534.844 C 385.934 534.304 389.164 534.924 392.524 536.684 C 395.894 538.444 398.774 540.574 401.184 543.094 C 403.584 545.604 405.294 548.214 406.314 550.944 C 407.324 553.664 407.034 555.834 405.424 557.434 C 403.824 559.034 401.664 559.334 398.934 558.324 C 396.214 557.294 393.594 555.594 391.084 553.184 C 388.574 550.784 386.464 547.874 384.754 544.454 C 383.044 541.034 382.404 537.834 382.834 534.844 Z M 358.314 561.604 C 360.984 564.484 364.164 565.904 367.854 565.844 C 371.534 565.794 374.664 564.594 377.224 562.244 C 379.684 559.784 380.854 557.004 380.754 553.914 C 380.644 550.814 379.684 548.354 377.864 546.534 C 376.574 545.464 375.084 544.884 373.374 544.774 C 371.674 544.674 370.334 545.094 369.374 546.054 C 368.194 547.234 367.604 548.674 367.604 550.384 C 367.604 552.094 368.034 553.374 368.894 554.234 C 369.634 554.974 370.464 555.484 371.374 555.754 C 372.284 556.024 373.004 555.664 373.534 554.714 C 374.174 553.644 374.074 552.464 373.214 551.184 C 372.684 550.654 372.314 550.004 372.094 549.264 C 371.884 548.514 372.094 548.034 372.734 547.824 C 374.014 547.394 375.144 547.604 376.104 548.464 C 377.064 549.314 377.704 550.434 378.024 551.834 C 378.344 553.214 378.294 554.704 377.864 556.314 C 377.444 557.914 376.524 559.304 375.134 560.484 C 373.854 561.544 372.394 562.324 370.734 562.804 C 369.084 563.284 367.474 563.384 365.924 563.124 C 364.374 562.864 362.904 562.194 361.514 561.124 C 360.124 560.054 359.004 558.554 358.154 556.634 C 358.254 556.304 358.554 556.124 359.034 556.074 C 359.514 556.024 360.074 555.944 360.714 555.834 C 361.354 555.724 362.024 555.534 362.724 555.274 C 363.414 555.004 363.974 554.444 364.404 553.594 C 365.044 552.514 365.264 551.454 365.044 550.384 C 364.834 549.324 364.594 548.274 364.324 547.264 C 364.054 546.244 363.894 545.234 363.844 544.214 C 363.784 543.194 364.244 542.214 365.204 541.254 C 367.234 539.214 369.554 537.754 372.174 536.844 C 374.794 535.934 377.434 535.314 380.114 535.004 C 380.004 538.524 380.584 541.834 381.874 544.934 C 383.154 548.034 384.914 550.754 387.154 553.114 C 389.394 555.464 391.904 557.384 394.694 558.884 C 397.464 560.374 400.354 561.224 403.344 561.444 C 402.704 563.154 401.234 563.984 398.934 563.924 C 396.634 563.874 394.484 563.584 392.444 563.044 C 387.534 561.974 383.844 562.674 381.384 565.134 C 380.534 565.984 379.924 567.184 379.544 568.734 C 379.174 570.284 379.784 571.114 381.394 571.214 C 382.134 571.324 382.914 571.344 383.714 571.294 C 384.514 571.244 385.234 571.424 385.874 571.864 C 386.954 572.494 387.484 573.514 387.484 574.904 C 387.484 576.294 387.114 577.354 386.354 578.114 C 385.714 578.754 385.024 579.224 384.274 579.554 C 383.524 579.864 382.834 579.604 382.194 578.754 C 381.874 578.214 381.764 577.624 381.874 576.984 C 381.974 576.344 381.664 575.864 380.904 575.544 C 380.164 575.214 379.444 575.194 378.744 575.464 C 378.054 575.724 377.444 576.134 376.904 576.664 C 376.154 577.624 375.914 578.454 376.184 579.144 C 376.454 579.844 377.004 580.614 377.864 581.474 C 379.034 582.654 380.744 583.294 382.994 583.404 C 385.244 583.504 387.154 582.864 388.764 581.474 C 390.254 579.974 390.984 578.184 390.924 576.104 C 390.874 574.024 390.574 572.074 390.044 570.254 C 390.044 569.824 390.284 569.424 390.764 569.054 C 391.244 568.674 391.804 568.384 392.444 568.174 C 394.044 568.064 395.364 567.984 396.374 567.934 C 397.394 567.884 398.704 567.794 400.304 567.694 C 402.224 567.474 404.014 566.594 405.664 565.044 C 407.324 563.504 408.314 562.024 408.634 560.644 C 410.024 560.314 411.494 559.324 413.034 557.674 C 414.584 556.024 415.474 554.224 415.684 552.314 C 415.794 550.704 415.874 549.394 415.924 548.384 C 415.974 547.364 416.054 546.054 416.164 544.454 C 416.384 543.814 416.674 543.254 417.044 542.774 C 417.424 542.284 417.824 542.054 418.244 542.054 C 420.064 542.584 422.014 542.884 424.104 542.934 C 426.184 542.984 427.974 542.264 429.464 540.764 C 430.854 539.164 431.494 537.244 431.394 534.994 C 431.284 532.754 430.644 531.054 429.464 529.874 C 428.604 529.024 427.834 528.454 427.144 528.194 C 426.444 527.924 425.624 528.164 424.654 528.914 C 424.124 529.444 423.724 530.054 423.454 530.754 C 423.184 531.444 423.214 532.164 423.534 532.914 C 423.864 533.664 424.344 533.984 424.984 533.884 C 425.624 533.764 426.214 533.874 426.744 534.204 C 427.594 534.834 427.864 535.534 427.544 536.284 C 427.224 537.024 426.744 537.724 426.104 538.364 C 425.354 539.114 424.284 539.484 422.894 539.484 C 421.504 539.484 420.494 538.954 419.854 537.884 C 419.424 537.244 419.234 536.514 419.284 535.714 C 419.344 534.914 419.314 534.144 419.214 533.394 C 419.104 531.794 418.274 531.174 416.724 531.554 C 415.184 531.924 413.974 532.544 413.124 533.394 C 410.664 535.854 409.974 539.544 411.034 544.454 C 411.574 546.484 411.864 548.654 411.914 550.944 C 411.974 553.244 411.144 554.704 409.434 555.354 C 409.224 552.364 408.364 549.474 406.874 546.694 C 405.364 543.914 403.454 541.404 401.104 539.174 C 398.754 536.914 396.024 535.154 392.934 533.874 C 389.824 532.594 386.514 532.004 382.994 532.114 C 383.314 529.444 383.934 526.794 384.834 524.184 C 385.744 521.564 387.214 519.244 389.244 517.214 C 390.204 516.254 391.194 515.794 392.204 515.854 C 393.224 515.904 394.234 516.064 395.254 516.334 C 396.274 516.594 397.314 516.834 398.374 517.054 C 399.444 517.264 400.514 517.044 401.584 516.414 C 402.434 515.984 402.994 515.424 403.264 514.724 C 403.524 514.034 403.724 513.364 403.824 512.724 C 403.934 512.084 404.014 511.524 404.074 511.044 C 404.124 510.554 404.304 510.264 404.624 510.164 C 406.544 511.014 408.044 512.134 409.114 513.524 C 410.184 514.914 410.844 516.384 411.114 517.934 C 411.384 519.484 411.284 521.084 410.794 522.744 C 410.324 524.394 409.544 525.864 408.474 527.144 C 407.294 528.534 405.914 529.444 404.304 529.874 C 402.704 530.294 401.204 530.344 399.814 530.034 C 398.434 529.714 397.314 529.074 396.454 528.114 C 395.604 527.144 395.384 526.024 395.814 524.744 C 396.024 524.104 396.514 523.884 397.254 524.104 C 398.004 524.314 398.644 524.694 399.184 525.224 C 400.454 526.074 401.634 526.184 402.704 525.544 C 403.664 525.014 404.014 524.284 403.744 523.374 C 403.484 522.474 402.964 521.644 402.224 520.904 C 401.364 520.044 400.084 519.614 398.374 519.614 C 396.664 519.614 395.224 520.204 394.054 521.384 C 393.084 522.344 392.664 523.674 392.764 525.384 C 392.874 527.094 393.464 528.584 394.534 529.874 C 396.344 531.684 398.804 532.644 401.904 532.754 C 405.004 532.864 407.774 531.694 410.234 529.234 C 412.594 526.664 413.794 523.534 413.844 519.854 C 413.894 516.164 412.484 512.994 409.594 510.314 C 406.924 507.864 403.904 506.664 400.544 506.714 C 397.174 506.764 394.204 507.864 391.644 510.004 C 389.194 512.024 386.864 514.944 384.674 518.734 C 382.484 522.524 381.124 526.404 380.584 530.354 L 380.284 532.294 L 378.344 532.594 C 374.394 533.124 370.524 534.494 366.724 536.684 C 362.934 538.874 360.024 541.194 357.994 543.654 C 355.854 546.214 354.764 549.184 354.714 552.544 C 354.654 555.914 355.854 558.934 358.314 561.604 Z" fill="#414042" stroke="none"/>
</svg>
