<?xml version="1.0" encoding="UTF-8"?>
<svg xmlns="http://www.w3.org/2000/svg" width="401.478" height="563.560" viewBox="0 0 401.478 563.560">
  <path d="M 22.008 101.69 C 22.008 102.82 21.648 103.99 20.748 104.95 C 19.728 106.02 18.498 106.55 17.278 106.44 C 16.318 106.36 15.488 105.9 15.008 105.17 C 14.748 104.79 14.858 104.27 15.238 104.01 C 15.628 103.76 16.148 103.86 16.398 104.25 C 16.598 104.54 16.978 104.74 17.418 104.78 C 18.128 104.84 18.878 104.49 19.528 103.8 C 20.548 102.72 20.478 101.12 19.978 100.1 C 19.458 99.02 18.438 98.22 17.188 97.9 C 15.858 97.56 14.438 97.81 13.378 98.57 C 10.523 100.61 10.81 103.82 10.812 103.85 C 10.815 103.88 10.816 103.91 10.816 103.94 L 10.816 310.89 C 10.816 311.35 10.444 311.72 9.98 311.72 C 9.519 311.72 9.145 311.35 9.145 310.89 L 9.145 103.97 C 9.107 103.48 8.942 99.68 12.408 97.21 C 13.858 96.17 15.808 95.82 17.598 96.28 C 19.328 96.72 20.738 97.84 21.478 99.37 C 21.808 100.04 22.008 100.85 22.008 101.69 Z" fill="#414042" stroke="none"/><path d="M 15.008 105.19 C 14.418 104.3 14.668 103.11 15.548 102.52 C 16.428 101.94 17.628 102.18 18.218 103.06 C 18.798 103.95 18.558 105.14 17.678 105.73 C 16.788 106.31 15.598 106.07 15.008 105.19 Z" fill="#414042" stroke="none"/><path d="M 22.008 461.29 C 22.008 462.13 21.808 462.94 21.478 463.62 C 20.738 465.14 19.328 466.26 17.598 466.7 C 15.808 467.16 13.858 466.81 12.408 465.77 C 8.942 463.3 9.107 459.51 9.145 459.01 L 9.145 310.89 C 9.145 310.43 9.519 310.05 9.98 310.05 C 10.444 310.05 10.816 310.43 10.816 310.89 L 10.816 459.05 C 10.816 459.08 10.815 459.11 10.812 459.13 C 10.8 459.26 10.549 462.4 13.378 464.41 C 14.438 465.17 15.858 465.42 17.188 465.08 C 18.438 464.77 19.458 463.97 19.978 462.89 C 20.478 461.86 20.548 460.27 19.528 459.19 C 18.878 458.49 18.128 458.15 17.418 458.21 C 16.978 458.24 16.598 458.44 16.398 458.74 C 16.148 459.12 15.628 459.23 15.238 458.97 C 14.858 458.71 14.748 458.2 15.008 457.81 C 15.488 457.09 16.318 456.62 17.278 456.54 C 18.498 456.44 19.728 456.97 20.748 458.04 C 21.648 458.99 22.008 460.17 22.008 461.29 Z" fill="#414042" stroke="none"/><path d="M 14.948 457.93 C 14.358 458.81 14.598 460.01 15.488 460.59 C 16.368 461.18 17.568 460.94 18.148 460.05 C 18.738 459.17 18.498 457.98 17.608 457.39 C 16.728 456.8 15.528 457.04 14.948 457.93 Z" fill="#414042" stroke="none"/><path d="M 380.508 461.29 C 380.508 460.16 380.868 458.99 381.778 458.03 C 382.788 456.96 384.018 456.43 385.248 456.54 C 386.198 456.62 387.028 457.08 387.508 457.81 C 387.768 458.19 387.658 458.71 387.278 458.97 C 386.898 459.22 386.378 459.12 386.118 458.74 C 385.918 458.44 385.538 458.24 385.108 458.2 C 384.398 458.14 383.648 458.49 382.988 459.18 C 381.968 460.26 382.038 461.86 382.538 462.88 C 383.068 463.96 384.078 464.76 385.328 465.08 C 386.658 465.42 388.078 465.17 389.138 464.41 C 391.998 462.37 391.708 459.16 391.708 459.13 C 391.708 459.1 391.708 459.07 391.708 459.05 L 391.708 252.09 C 391.708 251.63 392.078 251.26 392.538 251.26 C 392.998 251.26 393.378 251.63 393.378 252.09 L 393.378 459.01 C 393.408 459.5 393.578 463.3 390.108 465.77 C 388.658 466.81 386.718 467.16 384.918 466.7 C 383.198 466.26 381.778 465.14 381.038 463.61 C 380.708 462.94 380.508 462.13 380.508 461.29 Z" fill="#414042" stroke="none"/><path d="M 387.508 457.8 C 388.098 458.68 387.858 459.87 386.968 460.46 C 386.088 461.05 384.888 460.81 384.308 459.92 C 383.718 459.04 383.958 457.84 384.848 457.26 C 385.728 456.67 386.928 456.91 387.508 457.8 Z" fill="#414042" stroke="none"/><path d="M 380.508 101.69 C 380.508 100.85 380.708 100.04 381.038 99.37 C 381.778 97.84 383.198 96.72 384.918 96.28 C 386.718 95.82 388.658 96.17 390.108 97.21 C 393.578 99.68 393.408 103.48 393.378 103.97 L 393.378 252.09 C 393.378 252.56 392.998 252.93 392.538 252.93 C 392.078 252.93 391.708 252.56 391.708 252.09 L 391.708 103.93 C 391.708 103.9 391.708 103.88 391.708 103.85 C 391.718 103.72 391.968 100.59 389.138 98.57 C 388.078 97.81 386.658 97.56 385.328 97.9 C 384.078 98.22 383.068 99.02 382.538 100.1 C 382.038 101.12 381.968 102.72 382.988 103.8 C 383.648 104.49 384.398 104.84 385.108 104.78 C 385.538 104.74 385.918 104.54 386.118 104.24 C 386.378 103.86 386.898 103.75 387.278 104.01 C 387.668 104.27 387.768 104.79 387.508 105.17 C 387.028 105.9 386.198 106.36 385.248 106.44 C 384.018 106.55 382.788 106.01 381.778 104.95 C 380.868 103.99 380.508 102.81 380.508 101.69 Z" fill="#414042" stroke="none"/><path d="M 387.578 105.06 C 388.158 104.17 387.918 102.98 387.038 102.39 C 386.148 101.81 384.958 102.05 384.368 102.93 C 383.778 103.82 384.028 105.01 384.908 105.59 C 385.798 106.18 386.988 105.94 387.578 105.06 Z" fill="#414042" stroke="none"/><path d="M 170.118 9.52 C 170.118 9.98 169.748 10.36 169.278 10.36 L 103.748 10.36 C 103.718 10.36 103.688 10.36 103.668 10.35 C 103.538 10.34 100.398 10.09 98.378 12.92 C 97.628 13.98 97.378 15.4 97.708 16.73 C 98.028 17.98 98.828 18.99 99.908 19.52 C 100.938 20.02 102.528 20.09 103.608 19.07 C 104.308 18.42 104.648 17.66 104.588 16.96 C 104.558 16.52 104.358 16.14 104.058 15.94 C 103.678 15.68 103.568 15.16 103.828 14.78 C 104.078 14.4 104.598 14.29 104.988 14.55 C 105.708 15.03 106.178 15.86 106.258 16.81 C 106.368 18.04 105.828 19.27 104.758 20.29 C 103.098 21.86 100.758 21.79 99.178 21.02 C 97.658 20.28 96.528 18.86 96.088 17.14 C 95.638 15.34 95.988 13.4 97.018 11.95 C 99.498 8.48 103.288 8.65 103.778 8.69 L 169.278 8.69 C 169.748 8.69 170.118 9.06 170.118 9.52 Z" fill="#414042" stroke="none"/><path d="M 104.968 14.54 C 104.078 13.95 102.888 14.19 102.308 15.08 C 101.718 15.96 101.958 17.16 102.838 17.74 C 103.728 18.33 104.918 18.09 105.508 17.2 C 106.088 16.32 105.848 15.13 104.968 14.54 Z" fill="#414042" stroke="none"/><path d="M 304.998 15.56 C 304.998 16.09 304.938 16.62 304.808 17.14 C 304.368 18.86 303.248 20.28 301.718 21.02 C 300.148 21.79 297.808 21.86 296.138 20.29 C 295.068 19.27 294.538 18.04 294.648 16.81 C 294.728 15.86 295.188 15.03 295.918 14.55 C 296.308 14.29 296.818 14.4 297.078 14.78 C 297.328 15.16 297.228 15.68 296.848 15.94 C 296.548 16.14 296.348 16.52 296.308 16.96 C 296.248 17.66 296.598 18.42 297.288 19.07 C 298.368 20.09 299.968 20.02 300.988 19.52 C 302.068 18.99 302.868 17.98 303.188 16.73 C 303.528 15.4 303.278 13.98 302.518 12.92 C 300.498 10.09 297.368 10.34 297.228 10.35 C 297.208 10.36 297.178 10.36 297.158 10.36 L 169.278 10.36 C 168.818 10.36 168.448 9.98 168.448 9.52 C 168.448 9.06 168.818 8.69 169.278 8.69 L 297.118 8.69 C 297.618 8.65 301.408 8.48 303.878 11.95 C 304.618 12.98 304.998 14.26 304.998 15.56 Z" fill="#414042" stroke="none"/><path d="M 295.948 14.52 C 296.828 13.93 298.028 14.17 298.608 15.06 C 299.198 15.94 298.958 17.14 298.068 17.72 C 297.188 18.31 295.998 18.07 295.408 17.18 C 294.818 16.3 295.058 15.11 295.948 14.52 Z" fill="#414042" stroke="none"/><path d="M 37.398 44.21 C 37.398 48.25 36.278 52.4 33.988 55.87 C 31.108 60.23 27.528 62.76 23.738 65.44 C 22.108 66.59 20.428 67.78 18.778 69.14 C 14.138 72.97 8.538 81.18 12.148 88.16 C 14.898 93.46 19.348 93.3 21.318 92.47 C 24.248 91.24 25.408 88.71 24.358 85.87 C 23.758 84.26 22.298 83.58 21.128 83.48 C 20.198 83.4 19.008 83.67 18.438 84.67 C 17.688 85.98 18.108 86.86 18.748 87.26 C 19.188 87.53 19.338 88.11 19.058 88.56 C 18.788 89.01 18.198 89.15 17.758 88.87 C 16.358 88.02 15.458 86.04 16.788 83.73 C 17.638 82.25 19.368 81.43 21.288 81.59 C 23.518 81.78 25.378 83.16 26.138 85.21 C 27.528 88.99 25.888 92.61 22.058 94.22 C 19.528 95.28 13.848 95.56 10.463 89.03 C 6.772 81.9 11.244 72.89 17.568 67.68 C 19.278 66.27 20.988 65.06 22.638 63.89 C 26.278 61.32 29.718 58.88 32.408 54.82 C 37.098 47.72 36.418 37.51 30.918 32.53 C 25.678 27.76 18.738 27.42 14.048 31.7 C 12.208 33.38 11.133 35.68 11.02 38.17 C 10.905 40.65 11.771 43.04 13.448 44.88 C 14.758 46.31 16.538 47.13 18.478 47.19 C 20.348 47.26 22.108 46.61 23.408 45.36 C 25.688 43.18 25.328 40.16 23.838 38.42 C 22.708 37.1 20.378 36.53 18.838 37.83 C 18.128 38.44 17.738 39.39 17.858 40.27 C 17.908 40.71 18.118 41.31 18.798 41.63 C 19.278 41.85 19.478 42.42 19.248 42.89 C 19.028 43.36 18.458 43.56 17.988 43.34 C 16.878 42.81 16.138 41.78 15.978 40.52 C 15.778 38.99 16.398 37.41 17.618 36.38 C 20.028 34.34 23.528 35.15 25.278 37.19 C 27.358 39.62 27.718 43.85 24.718 46.73 C 23.038 48.33 20.798 49.17 18.408 49.09 C 15.958 49.01 13.698 47.97 12.051 46.16 C 10.03 43.95 8.992 41.08 9.126 38.08 C 9.262 35.09 10.556 32.32 12.768 30.3 C 18.208 25.34 26.198 25.67 32.198 31.12 C 35.628 34.23 37.398 39.13 37.398 44.21 Z" fill="#414042" stroke="none"/><path d="M 22.698 65.69 C 22.698 66.04 22.518 66.37 22.188 66.53 C 22.048 66.61 18.678 68.3 15.208 66.05 C 13.788 65.13 12.848 63.61 12.628 61.87 C 12.408 60.22 12.908 58.61 13.968 57.44 C 15.268 56.02 17.058 55.56 19.018 56.12 C 20.138 56.45 20.998 57.24 21.388 58.3 C 21.738 59.25 21.628 60.28 21.108 61.07 C 20.818 61.51 20.228 61.63 19.788 61.34 C 19.358 61.05 19.238 60.46 19.528 60.02 C 19.718 59.73 19.748 59.33 19.608 58.95 C 19.428 58.47 19.028 58.1 18.498 57.95 C 17.228 57.58 16.178 57.84 15.368 58.72 C 14.668 59.48 14.358 60.52 14.508 61.63 C 14.658 62.79 15.308 63.85 16.238 64.46 C 18.768 66.1 21.218 64.9 21.328 64.85 C 21.788 64.61 22.358 64.8 22.598 65.26 C 22.668 65.4 22.698 65.55 22.698 65.69 Z" fill="#414042" stroke="none"/><path d="M 39.548 70.35 C 39.548 71.34 39.258 72.33 38.668 73.16 C 37.758 74.46 36.248 75.31 34.548 75.49 C 32.758 75.67 31.008 75.11 29.758 73.94 C 26.218 70.63 27.638 65.8 28.168 63.98 C 28.848 61.68 30.428 57.88 32.838 54.12 C 33.128 53.68 33.708 53.56 34.148 53.84 C 34.588 54.12 34.718 54.71 34.438 55.15 C 32.138 58.73 30.628 62.34 29.988 64.52 C 29.188 67.25 28.688 70.35 31.058 72.56 C 31.908 73.35 33.108 73.73 34.348 73.6 C 35.508 73.48 36.518 72.92 37.118 72.07 C 37.678 71.27 37.938 69.95 37.228 68.83 C 36.778 68.12 36.178 67.9 35.848 67.83 C 35.358 67.73 34.968 67.84 34.768 67.98 C 34.338 68.28 33.748 68.17 33.448 67.74 C 33.148 67.31 33.258 66.72 33.688 66.42 C 34.378 65.95 35.308 65.79 36.228 65.98 C 37.298 66.2 38.228 66.85 38.828 67.82 C 39.308 68.58 39.548 69.46 39.548 70.35 Z" fill="#414042" stroke="none"/><path d="M 16.758 47.74 C 17.528 47.49 18.408 47.69 19.098 48.17 C 19.798 48.65 20.288 49.43 20.478 50.27 C 20.668 51.11 20.558 51.99 20.228 52.72 C 19.888 53.45 19.348 54.03 18.698 54.4 C 18.608 54.44 18.508 54.42 18.458 54.33 C 18.438 54.29 18.438 54.25 18.448 54.2 L 18.448 54.2 C 18.638 53.51 18.788 52.89 18.828 52.32 C 18.868 51.74 18.808 51.22 18.658 50.75 C 18.498 50.28 18.248 49.86 17.948 49.42 C 17.638 48.99 17.248 48.57 16.688 48.05 C 16.618 47.98 16.618 47.86 16.688 47.79 C 16.708 47.77 16.728 47.75 16.758 47.74 Z" fill="#414042" stroke="none"/><path d="M 34.478 53.37 C 34.518 54.23 34.018 55.08 33.298 55.62 C 32.568 56.18 31.578 56.41 30.638 56.25 C 29.688 56.1 28.848 55.55 28.328 54.85 C 27.808 54.15 27.558 53.33 27.558 52.53 C 27.558 52.44 27.638 52.36 27.728 52.36 C 27.778 52.36 27.828 52.39 27.858 52.42 L 27.858 52.42 C 28.368 52.99 28.858 53.48 29.358 53.82 C 29.868 54.16 30.378 54.34 30.888 54.39 C 31.398 54.42 31.908 54.32 32.448 54.15 C 32.998 53.97 33.538 53.69 34.198 53.23 C 34.278 53.17 34.388 53.19 34.448 53.28 C 34.468 53.3 34.478 53.34 34.478 53.37 Z" fill="#414042" stroke="none"/><path d="M 28.628 69.63 C 29.198 70.17 29.418 70.99 29.338 71.79 C 29.268 72.59 28.848 73.36 28.258 73.92 C 27.658 74.48 26.878 74.83 26.118 74.91 C 25.348 74.99 24.598 74.82 23.988 74.46 C 23.898 74.41 23.878 74.3 23.928 74.22 C 23.948 74.18 23.978 74.16 24.018 74.15 L 24.028 74.14 C 24.688 73.95 25.258 73.76 25.738 73.5 C 26.218 73.25 26.608 72.94 26.918 72.59 C 27.238 72.24 27.458 71.83 27.688 71.38 C 27.918 70.92 28.108 70.42 28.318 69.71 C 28.348 69.61 28.458 69.56 28.558 69.59 C 28.578 69.6 28.608 69.61 28.628 69.63 L 28.628 69.63 Z" fill="#414042" stroke="none"/><path d="M 16.728 66.12 C 15.988 66.22 15.438 66.33 14.938 66.49 C 14.438 66.65 13.998 66.81 13.598 67.08 C 13.188 67.35 12.838 67.7 12.528 68.16 C 12.208 68.62 11.951 69.18 11.68 69.82 L 11.678 69.83 C 11.642 69.92 11.541 69.96 11.454 69.92 C 11.412 69.9 11.379 69.87 11.363 69.83 C 11.073 69.16 10.99 68.38 11.173 67.61 C 11.35 66.85 11.807 66.1 12.468 65.57 C 13.118 65.05 13.968 64.75 14.788 64.79 C 15.598 64.84 16.398 65.18 16.858 65.83 L 16.858 65.84 C 16.918 65.92 16.898 66.04 16.818 66.09 C 16.788 66.11 16.758 66.12 16.728 66.12 Z" fill="#414042" stroke="none"/><path d="M 19.338 93.91 C 19.818 93.23 20.678 92.86 21.558 92.84 C 22.438 92.82 23.328 93.19 23.988 93.79 C 24.658 94.39 25.078 95.21 25.208 96.03 C 25.348 96.85 25.238 97.66 24.908 98.36 C 24.868 98.44 24.768 98.48 24.678 98.44 C 24.638 98.42 24.608 98.38 24.588 98.33 C 24.358 97.63 24.128 97.01 23.828 96.48 C 23.528 95.96 23.178 95.54 22.768 95.23 C 22.358 94.91 21.888 94.7 21.368 94.53 C 20.838 94.36 20.258 94.26 19.478 94.2 C 19.378 94.19 19.298 94.1 19.308 94 C 19.308 93.97 19.318 93.94 19.338 93.91 Z" fill="#414042" stroke="none"/><path d="M 18.788 43.58 C 17.758 43.53 16.968 42.66 17.018 41.63 C 17.068 40.6 17.938 39.81 18.968 39.86 C 19.998 39.9 20.788 40.78 20.738 41.81 C 20.698 42.84 19.818 43.63 18.788 43.58 Z" fill="#414042" stroke="none"/><path d="M 19.488 61.88 C 18.458 61.84 17.658 60.96 17.708 59.93 C 17.758 58.9 18.628 58.11 19.658 58.16 C 20.688 58.21 21.488 59.08 21.438 60.11 C 21.388 61.14 20.518 61.93 19.488 61.88 Z" fill="#414042" stroke="none"/><path d="M 34.638 69.84 C 33.618 69.79 32.818 68.92 32.868 67.89 C 32.918 66.86 33.788 66.06 34.818 66.11 C 35.848 66.16 36.638 67.03 36.598 68.06 C 36.548 69.09 35.668 69.89 34.638 69.84 Z" fill="#414042" stroke="none"/><path d="M 18.738 89.17 C 17.708 89.12 16.908 88.25 16.958 87.22 C 17.008 86.19 17.888 85.4 18.908 85.44 C 19.938 85.49 20.738 86.36 20.688 87.39 C 20.638 88.42 19.768 89.22 18.738 89.17 Z" fill="#414042" stroke="none"/><path d="M 94.238 18.52 C 94.238 19.74 93.988 20.83 93.658 21.61 C 92.048 25.45 88.428 27.09 84.648 25.69 C 82.608 24.94 81.218 23.08 81.028 20.84 C 80.868 18.91 81.688 17.2 83.168 16.35 C 85.488 15.02 87.458 15.92 88.318 17.31 C 88.588 17.76 88.448 18.34 88.008 18.62 C 87.558 18.89 86.978 18.75 86.698 18.3 C 86.308 17.66 85.418 17.24 84.118 17.99 C 83.118 18.57 82.848 19.76 82.918 20.68 C 83.018 21.86 83.698 23.32 85.308 23.91 C 88.158 24.97 90.688 23.8 91.908 20.88 C 92.738 18.91 92.898 14.45 87.598 11.71 C 80.628 8.1 72.408 13.69 68.588 18.33 C 67.218 19.99 66.038 21.67 64.888 23.29 C 62.198 27.08 59.668 30.66 55.308 33.54 C 47.478 38.72 36.148 37.9 30.568 31.76 C 25.118 25.75 24.778 17.77 29.748 12.33 C 31.768 10.11 34.528 8.82 37.528 8.68 C 40.518 8.55 43.388 9.59 45.608 11.61 C 47.408 13.26 48.448 15.52 48.528 17.97 C 48.618 20.36 47.778 22.6 46.168 24.28 C 43.298 27.28 39.058 26.92 36.628 24.83 C 34.588 23.08 33.778 19.59 35.828 17.17 C 36.848 15.96 38.438 15.33 39.958 15.53 C 41.228 15.7 42.258 16.43 42.778 17.55 C 43.008 18.02 42.808 18.59 42.338 18.81 C 41.858 19.03 41.298 18.83 41.068 18.36 C 40.748 17.68 40.158 17.47 39.708 17.41 C 38.838 17.3 37.878 17.68 37.268 18.4 C 35.978 19.93 36.548 22.26 37.868 23.39 C 39.628 24.91 42.698 25.16 44.798 22.97 C 46.048 21.66 46.698 19.91 46.638 18.03 C 46.568 16.1 45.748 14.31 44.328 13.01 C 42.488 11.33 40.098 10.47 37.608 10.58 C 35.118 10.69 32.828 11.77 31.148 13.61 C 26.868 18.29 27.208 25.23 31.968 30.48 C 36.958 35.98 47.168 36.66 54.268 31.96 C 58.328 29.28 60.758 25.84 63.338 22.2 C 64.508 20.54 65.718 18.83 67.118 17.13 C 72.328 10.8 81.338 6.33 88.468 10.02 C 92.978 12.36 94.238 15.78 94.238 18.52 Z" fill="#414042" stroke="none"/><path d="M 66.658 18.65 C 66.658 20.4 66.018 21.66 65.978 21.75 C 65.738 22.21 65.168 22.39 64.698 22.15 C 64.238 21.92 64.048 21.34 64.288 20.88 C 64.338 20.78 65.538 18.33 63.898 15.8 C 63.298 14.86 62.238 14.21 61.068 14.06 C 59.958 13.92 58.928 14.23 58.158 14.93 C 57.278 15.73 57.028 16.78 57.388 18.05 C 57.538 18.58 57.908 18.99 58.398 19.17 C 58.778 19.31 59.178 19.28 59.468 19.09 C 59.898 18.8 60.488 18.91 60.778 19.35 C 61.068 19.79 60.948 20.37 60.518 20.66 C 59.728 21.19 58.688 21.3 57.748 20.95 C 56.688 20.56 55.888 19.7 55.568 18.58 C 54.998 16.61 55.468 14.82 56.878 13.53 C 58.048 12.46 59.668 11.97 61.308 12.18 C 63.048 12.4 64.578 13.35 65.498 14.77 C 66.378 16.14 66.658 17.5 66.658 18.65 Z" fill="#414042" stroke="none"/><path d="M 74.968 33.43 C 74.968 33.65 74.948 33.88 74.928 34.1 C 74.748 35.81 73.908 37.31 72.608 38.22 C 71.018 39.34 68.878 39.41 67.258 38.39 C 66.298 37.78 65.638 36.86 65.418 35.79 C 65.228 34.86 65.388 33.94 65.858 33.25 C 66.158 32.82 66.748 32.71 67.178 33.01 C 67.608 33.3 67.718 33.89 67.428 34.32 C 67.288 34.53 67.178 34.91 67.278 35.41 C 67.348 35.73 67.558 36.34 68.268 36.78 C 69.398 37.49 70.708 37.24 71.508 36.67 C 72.368 36.07 72.918 35.07 73.038 33.9 C 73.168 32.66 72.788 31.46 71.998 30.61 C 69.788 28.24 66.698 28.75 63.958 29.55 C 61.778 30.19 58.178 31.69 54.598 33.99 C 54.148 34.28 53.568 34.15 53.278 33.71 C 52.998 33.27 53.128 32.68 53.568 32.4 C 57.318 29.99 61.118 28.4 63.428 27.73 C 65.248 27.19 70.078 25.77 73.388 29.32 C 74.408 30.41 74.968 31.88 74.968 33.43 Z" fill="#414042" stroke="none"/><path d="M 47.498 16.25 C 48.018 16.81 48.428 17.19 48.868 17.51 C 49.298 17.81 49.718 18.06 50.188 18.21 C 50.668 18.36 51.188 18.43 51.758 18.38 C 52.338 18.34 52.948 18.2 53.648 18.01 L 53.648 18 C 53.738 17.98 53.828 18.03 53.858 18.12 C 53.868 18.17 53.868 18.22 53.838 18.25 C 53.478 18.9 52.888 19.44 52.168 19.78 C 51.438 20.12 50.548 20.23 49.708 20.03 C 48.878 19.84 48.088 19.35 47.608 18.65 C 47.138 17.96 46.928 17.09 47.188 16.32 C 47.218 16.22 47.318 16.17 47.418 16.2 C 47.448 16.21 47.478 16.23 47.498 16.25 Z" fill="#414042" stroke="none"/><path d="M 52.668 33.75 C 53.128 33.09 53.408 32.55 53.598 32.01 C 53.768 31.47 53.868 30.96 53.828 30.44 C 53.788 29.93 53.608 29.42 53.268 28.92 C 52.928 28.41 52.438 27.93 51.868 27.42 L 51.868 27.42 C 51.798 27.35 51.788 27.25 51.848 27.18 C 51.888 27.14 51.928 27.12 51.978 27.12 C 52.768 27.12 53.588 27.36 54.288 27.89 C 54.988 28.4 55.548 29.25 55.688 30.19 C 55.848 31.13 55.618 32.13 55.068 32.85 C 54.528 33.58 53.678 34.07 52.818 34.04 C 52.718 34.03 52.638 33.95 52.638 33.85 C 52.638 33.81 52.658 33.78 52.668 33.75 Z" fill="#414042" stroke="none"/><path d="M 69.148 27.88 C 69.858 27.67 70.368 27.48 70.828 27.25 C 71.278 27.02 71.678 26.79 72.038 26.48 C 72.388 26.16 72.688 25.77 72.938 25.29 C 73.198 24.81 73.388 24.24 73.588 23.59 L 73.588 23.58 C 73.618 23.49 73.708 23.44 73.798 23.46 C 73.848 23.48 73.878 23.51 73.898 23.54 C 74.268 24.16 74.438 24.91 74.348 25.67 C 74.268 26.44 73.928 27.22 73.358 27.81 C 72.808 28.41 72.028 28.82 71.228 28.9 C 70.438 28.98 69.608 28.76 69.078 28.19 L 69.068 28.18 C 68.998 28.11 69.008 27.99 69.078 27.92 C 69.098 27.9 69.128 27.89 69.148 27.88 Z" fill="#414042" stroke="none"/><path d="M 65.278 16.41 C 64.628 15.96 64.278 15.16 64.238 14.35 C 64.188 13.53 64.488 12.68 65.018 12.03 C 65.538 11.36 66.288 10.91 67.058 10.73 C 67.828 10.55 68.608 10.63 69.278 10.92 C 69.358 10.96 69.398 11.06 69.358 11.15 C 69.348 11.19 69.308 11.22 69.268 11.23 L 69.268 11.24 C 68.618 11.51 68.058 11.76 67.598 12.08 C 67.148 12.39 66.788 12.75 66.528 13.15 C 66.258 13.56 66.088 14 65.928 14.49 C 65.768 15 65.668 15.54 65.568 16.29 C 65.558 16.39 65.468 16.46 65.358 16.45 C 65.328 16.44 65.308 16.43 65.278 16.42 L 65.278 16.41 Z" fill="#414042" stroke="none"/><path d="M 93.638 19.03 C 93.698 19.81 93.798 20.4 93.978 20.93 C 94.148 21.45 94.348 21.91 94.668 22.32 C 94.978 22.73 95.398 23.09 95.928 23.39 C 96.448 23.68 97.068 23.92 97.778 24.15 C 97.868 24.18 97.918 24.27 97.888 24.36 C 97.878 24.41 97.838 24.45 97.798 24.47 C 97.098 24.8 96.288 24.91 95.468 24.77 C 94.658 24.63 93.838 24.21 93.238 23.54 C 92.638 22.89 92.258 21.99 92.288 21.11 C 92.298 20.24 92.668 19.38 93.348 18.9 C 93.438 18.84 93.548 18.86 93.608 18.94 C 93.628 18.97 93.638 19 93.638 19.03 Z" fill="#414042" stroke="none"/><path d="M 43.028 18.35 C 42.978 17.32 42.108 16.52 41.078 16.57 C 40.048 16.62 39.248 17.49 39.298 18.52 C 39.348 19.55 40.218 20.35 41.248 20.3 C 42.278 20.25 43.068 19.38 43.028 18.35 Z" fill="#414042" stroke="none"/><path d="M 61.328 19.04 C 61.278 18.02 60.408 17.22 59.378 17.27 C 58.348 17.31 57.548 18.19 57.598 19.22 C 57.648 20.25 58.518 21.04 59.548 20.99 C 60.578 20.95 61.378 20.07 61.328 19.04 Z" fill="#414042" stroke="none"/><path d="M 69.278 34.2 C 69.228 33.17 68.358 32.38 67.328 32.42 C 66.298 32.47 65.508 33.35 65.548 34.38 C 65.598 35.4 66.478 36.2 67.498 36.15 C 68.538 36.1 69.328 35.23 69.278 34.2 Z" fill="#414042" stroke="none"/><path d="M 88.618 18.29 C 88.568 17.27 87.688 16.47 86.658 16.52 C 85.628 16.57 84.838 17.44 84.888 18.47 C 84.938 19.5 85.808 20.29 86.838 20.24 C 87.868 20.2 88.658 19.32 88.618 18.29 Z" fill="#414042" stroke="none"/><path d="M 364.508 44.21 C 364.508 48.25 365.628 52.4 367.918 55.87 C 370.798 60.23 374.378 62.76 378.178 65.44 C 379.798 66.59 381.478 67.78 383.138 69.14 C 387.778 72.97 393.368 81.18 389.758 88.16 C 387.018 93.46 382.558 93.3 380.588 92.47 C 377.658 91.24 376.498 88.71 377.548 85.87 C 378.148 84.26 379.608 83.58 380.778 83.48 C 381.708 83.4 382.898 83.67 383.468 84.67 C 384.218 85.98 383.798 86.86 383.158 87.26 C 382.718 87.53 382.578 88.11 382.848 88.56 C 383.118 89.01 383.708 89.15 384.148 88.87 C 385.548 88.02 386.448 86.04 385.118 83.73 C 384.268 82.25 382.548 81.43 380.618 81.59 C 378.388 81.78 376.528 83.16 375.768 85.21 C 374.378 88.99 376.018 92.61 379.848 94.22 C 382.388 95.28 388.068 95.56 391.448 89.03 C 395.138 81.9 390.668 72.89 384.338 67.68 C 382.628 66.27 380.918 65.06 379.268 63.89 C 375.628 61.32 372.188 58.88 369.498 54.82 C 364.808 47.72 365.488 37.51 370.988 32.53 C 376.238 27.76 383.178 27.42 387.858 31.7 C 389.698 33.38 390.778 35.68 390.888 38.17 C 390.998 40.65 390.138 43.04 388.458 44.88 C 387.158 46.31 385.368 47.13 383.428 47.19 C 381.558 47.26 379.808 46.61 378.498 45.36 C 376.228 43.18 376.578 40.16 378.068 38.42 C 379.208 37.1 381.538 36.53 383.068 37.83 C 383.778 38.44 384.168 39.39 384.058 40.27 C 383.998 40.71 383.788 41.31 383.108 41.63 C 382.628 41.85 382.428 42.42 382.658 42.89 C 382.878 43.36 383.448 43.56 383.918 43.34 C 385.038 42.81 385.768 41.78 385.938 40.52 C 386.138 38.99 385.508 37.41 384.288 36.38 C 381.878 34.34 378.378 35.15 376.628 37.19 C 374.548 39.62 374.188 43.85 377.188 46.73 C 378.868 48.33 381.108 49.17 383.498 49.09 C 385.948 49.01 388.208 47.97 389.858 46.16 C 391.878 43.95 392.918 41.08 392.778 38.08 C 392.648 35.09 391.348 32.32 389.138 30.3 C 383.698 25.34 375.718 25.67 369.708 31.12 C 366.278 34.23 364.508 39.13 364.508 44.21 Z" fill="#414042" stroke="none"/><path d="M 379.208 65.69 C 379.208 66.04 379.398 66.37 379.718 66.53 C 379.858 66.61 383.228 68.3 386.698 66.05 C 388.118 65.13 389.058 63.61 389.288 61.87 C 389.498 60.22 389.008 58.61 387.938 57.44 C 386.648 56.02 384.848 55.56 382.888 56.12 C 381.768 56.45 380.908 57.24 380.518 58.3 C 380.168 59.25 380.278 60.28 380.798 61.07 C 381.088 61.51 381.678 61.63 382.118 61.34 C 382.548 61.05 382.668 60.46 382.378 60.02 C 382.188 59.73 382.158 59.33 382.298 58.95 C 382.478 58.47 382.878 58.1 383.408 57.95 C 384.688 57.58 385.738 57.84 386.538 58.72 C 387.238 59.48 387.548 60.52 387.408 61.63 C 387.258 62.79 386.608 63.85 385.668 64.46 C 383.138 66.1 380.688 64.9 380.588 64.85 C 380.118 64.61 379.548 64.8 379.308 65.26 C 379.238 65.4 379.208 65.55 379.208 65.69 Z" fill="#414042" stroke="none"/><path d="M 362.358 70.35 C 362.358 71.34 362.648 72.33 363.238 73.16 C 364.158 74.46 365.658 75.31 367.358 75.49 C 369.148 75.67 370.898 75.11 372.148 73.94 C 375.688 70.63 374.268 65.8 373.738 63.98 C 373.058 61.68 371.478 57.88 369.068 54.12 C 368.778 53.68 368.198 53.56 367.758 53.84 C 367.318 54.12 367.188 54.71 367.468 55.15 C 369.778 58.73 371.278 62.34 371.918 64.52 C 372.718 67.25 373.218 70.35 370.848 72.56 C 370.008 73.35 368.808 73.73 367.558 73.6 C 366.398 73.48 365.388 72.92 364.788 72.07 C 364.228 71.27 363.968 69.95 364.678 68.83 C 365.128 68.12 365.738 67.9 366.058 67.83 C 366.548 67.73 366.938 67.84 367.138 67.98 C 367.568 68.28 368.158 68.17 368.458 67.74 C 368.758 67.31 368.648 66.72 368.218 66.42 C 367.528 65.95 366.608 65.79 365.678 65.98 C 364.608 66.2 363.678 66.85 363.078 67.82 C 362.598 68.58 362.358 69.46 362.358 70.35 Z" fill="#414042" stroke="none"/><path d="M 385.148 47.74 C 384.378 47.49 383.508 47.69 382.818 48.17 C 382.108 48.65 381.628 49.43 381.438 50.27 C 381.238 51.11 381.348 51.99 381.688 52.72 C 382.018 53.45 382.558 54.03 383.208 54.4 C 383.298 54.44 383.398 54.42 383.448 54.33 C 383.468 54.29 383.468 54.25 383.458 54.2 L 383.458 54.2 C 383.268 53.51 383.128 52.89 383.088 52.32 C 383.038 51.74 383.098 51.22 383.258 50.75 C 383.408 50.28 383.658 49.86 383.958 49.42 C 384.268 48.99 384.658 48.57 385.218 48.05 C 385.288 47.98 385.298 47.86 385.228 47.79 C 385.198 47.77 385.178 47.75 385.148 47.74 Z" fill="#414042" stroke="none"/><path d="M 367.428 53.37 C 367.388 54.23 367.888 55.08 368.618 55.62 C 369.338 56.18 370.328 56.41 371.268 56.25 C 372.218 56.1 373.058 55.55 373.578 54.85 C 374.108 54.15 374.348 53.33 374.348 52.53 C 374.348 52.44 374.268 52.36 374.178 52.36 C 374.128 52.36 374.078 52.39 374.048 52.42 L 374.048 52.42 C 373.538 52.99 373.058 53.48 372.548 53.82 C 372.038 54.16 371.528 54.34 371.018 54.39 C 370.508 54.42 369.998 54.32 369.458 54.15 C 368.908 53.97 368.378 53.69 367.708 53.23 C 367.628 53.17 367.518 53.19 367.458 53.28 C 367.438 53.3 367.428 53.34 367.428 53.37 Z" fill="#414042" stroke="none"/><path d="M 373.278 69.63 C 372.708 70.17 372.488 70.99 372.568 71.79 C 372.638 72.59 373.058 73.36 373.658 73.92 C 374.248 74.48 375.028 74.83 375.788 74.91 C 376.558 74.99 377.308 74.82 377.928 74.46 C 378.008 74.41 378.028 74.3 377.988 74.22 C 377.958 74.18 377.928 74.16 377.888 74.15 L 377.878 74.14 C 377.218 73.95 376.648 73.76 376.168 73.5 C 375.688 73.25 375.308 72.94 374.988 72.59 C 374.668 72.24 374.448 71.83 374.218 71.38 C 373.988 70.92 373.798 70.42 373.588 69.71 C 373.558 69.61 373.448 69.56 373.358 69.59 C 373.328 69.6 373.298 69.61 373.278 69.63 L 373.278 69.63 Z" fill="#414042" stroke="none"/><path d="M 385.178 66.12 C 385.928 66.22 386.468 66.33 386.968 66.49 C 387.468 66.65 387.908 66.81 388.318 67.08 C 388.718 67.35 389.068 67.7 389.388 68.16 C 389.708 68.62 389.958 69.18 390.228 69.82 L 390.228 69.83 C 390.268 69.92 390.368 69.96 390.458 69.92 C 390.498 69.9 390.528 69.87 390.548 69.83 C 390.838 69.16 390.918 68.38 390.738 67.61 C 390.558 66.85 390.098 66.1 389.438 65.57 C 388.788 65.05 387.938 64.75 387.118 64.79 C 386.308 64.84 385.508 65.18 385.048 65.83 L 385.048 65.84 C 384.988 65.92 385.008 66.04 385.098 66.09 C 385.118 66.11 385.148 66.12 385.178 66.12 Z" fill="#414042" stroke="none"/><path d="M 382.568 93.91 C 382.088 93.23 381.228 92.86 380.358 92.84 C 379.468 92.82 378.578 93.19 377.918 93.79 C 377.258 94.39 376.828 95.21 376.698 96.03 C 376.558 96.85 376.668 97.66 376.998 98.36 C 377.038 98.44 377.138 98.48 377.228 98.44 C 377.268 98.42 377.298 98.38 377.318 98.33 C 377.548 97.63 377.778 97.01 378.078 96.48 C 378.378 95.96 378.728 95.54 379.138 95.23 C 379.558 94.91 380.018 94.7 380.538 94.53 C 381.068 94.36 381.648 94.26 382.428 94.2 C 382.528 94.19 382.608 94.1 382.598 94 C 382.598 93.97 382.588 93.94 382.568 93.91 Z" fill="#414042" stroke="none"/><path d="M 383.118 43.58 C 384.148 43.53 384.938 42.66 384.898 41.63 C 384.848 40.6 383.968 39.81 382.938 39.86 C 381.908 39.9 381.118 40.78 381.168 41.81 C 381.218 42.84 382.088 43.63 383.118 43.58 Z" fill="#414042" stroke="none"/><path d="M 382.418 61.88 C 383.448 61.84 384.248 60.96 384.198 59.93 C 384.148 58.9 383.278 58.11 382.248 58.16 C 381.218 58.21 380.418 59.08 380.468 60.11 C 380.518 61.14 381.398 61.93 382.418 61.88 Z" fill="#414042" stroke="none"/><path d="M 367.268 69.84 C 368.298 69.79 369.088 68.92 369.038 67.89 C 368.988 66.86 368.118 66.06 367.088 66.11 C 366.058 66.16 365.268 67.03 365.318 68.06 C 365.358 69.09 366.238 69.89 367.268 69.84 Z" fill="#414042" stroke="none"/><path d="M 383.168 89.17 C 384.198 89.12 384.998 88.25 384.948 87.22 C 384.898 86.19 384.028 85.4 382.998 85.44 C 381.968 85.49 381.168 86.36 381.218 87.39 C 381.268 88.42 382.138 89.22 383.168 89.17 Z" fill="#414042" stroke="none"/><path d="M 307.668 18.52 C 307.668 19.74 307.918 20.83 308.248 21.61 C 309.858 25.45 313.478 27.09 317.258 25.69 C 319.298 24.94 320.688 23.08 320.878 20.84 C 321.038 18.91 320.218 17.2 318.738 16.35 C 316.418 15.02 314.448 15.92 313.588 17.31 C 313.318 17.76 313.458 18.34 313.908 18.62 C 314.348 18.89 314.938 18.75 315.208 18.3 C 315.598 17.66 316.488 17.24 317.798 17.99 C 318.788 18.57 319.068 19.76 318.988 20.68 C 318.888 21.86 318.208 23.32 316.598 23.91 C 313.758 24.97 311.228 23.8 309.998 20.88 C 309.168 18.91 309.008 14.45 314.308 11.71 C 321.278 8.1 329.498 13.69 333.318 18.33 C 334.688 19.99 335.878 21.67 337.028 23.29 C 339.708 27.08 342.238 30.66 346.598 33.54 C 354.428 38.72 365.758 37.9 371.338 31.76 C 376.788 25.75 377.128 17.77 372.168 12.33 C 370.138 10.11 367.378 8.82 364.378 8.68 C 361.388 8.55 358.518 9.59 356.308 11.61 C 354.498 13.26 353.458 15.52 353.378 17.97 C 353.288 20.36 354.128 22.6 355.738 24.28 C 358.608 27.28 362.848 26.92 365.278 24.83 C 367.318 23.08 368.128 19.59 366.078 17.17 C 365.058 15.96 363.478 15.33 361.948 15.53 C 360.688 15.7 359.658 16.43 359.128 17.55 C 358.898 18.02 359.098 18.59 359.578 18.81 C 360.048 19.03 360.608 18.83 360.838 18.36 C 361.158 17.68 361.758 17.47 362.198 17.41 C 363.068 17.3 364.028 17.68 364.638 18.4 C 365.928 19.93 365.368 22.26 364.038 23.39 C 362.278 24.91 359.208 25.16 357.108 22.97 C 355.858 21.66 355.208 19.91 355.268 18.03 C 355.338 16.1 356.158 14.31 357.588 13.01 C 359.428 11.33 361.808 10.47 364.298 10.58 C 366.788 10.69 369.078 11.77 370.758 13.61 C 375.038 18.29 374.708 25.23 369.938 30.48 C 364.948 35.98 354.738 36.66 347.638 31.96 C 343.578 29.28 341.148 25.84 338.568 22.2 C 337.398 20.54 336.188 18.83 334.788 17.13 C 329.578 10.8 320.568 6.33 313.438 10.02 C 308.928 12.36 307.668 15.78 307.668 18.52 Z" fill="#414042" stroke="none"/><path d="M 335.258 18.65 C 335.258 20.4 335.888 21.66 335.928 21.75 C 336.168 22.21 336.738 22.39 337.208 22.15 C 337.678 21.92 337.858 21.34 337.618 20.88 C 337.568 20.78 336.368 18.33 338.008 15.8 C 338.608 14.86 339.668 14.21 340.838 14.06 C 341.948 13.92 342.978 14.23 343.748 14.93 C 344.628 15.73 344.888 16.78 344.518 18.05 C 344.368 18.58 343.998 18.99 343.508 19.17 C 343.128 19.31 342.728 19.28 342.448 19.09 C 342.008 18.8 341.418 18.91 341.128 19.35 C 340.838 19.79 340.958 20.37 341.388 20.66 C 342.178 21.19 343.218 21.3 344.158 20.95 C 345.228 20.56 346.018 19.7 346.338 18.58 C 346.908 16.61 346.438 14.82 345.028 13.53 C 343.858 12.46 342.248 11.97 340.598 12.18 C 338.858 12.4 337.338 13.35 336.418 14.77 C 335.528 16.14 335.258 17.5 335.258 18.65 Z" fill="#414042" stroke="none"/><path d="M 326.948 33.43 C 326.948 33.65 326.958 33.88 326.978 34.1 C 327.158 35.81 328.008 37.31 329.308 38.22 C 330.888 39.34 333.038 39.41 334.648 38.39 C 335.618 37.78 336.268 36.86 336.488 35.79 C 336.678 34.86 336.518 33.94 336.048 33.25 C 335.748 32.82 335.158 32.71 334.728 33.01 C 334.298 33.3 334.188 33.89 334.488 34.32 C 334.618 34.53 334.728 34.91 334.628 35.41 C 334.568 35.73 334.348 36.34 333.638 36.78 C 332.508 37.49 331.198 37.24 330.398 36.67 C 329.538 36.07 328.988 35.07 328.868 33.9 C 328.738 32.66 329.118 31.46 329.908 30.61 C 332.118 28.24 335.218 28.75 337.948 29.55 C 340.128 30.19 343.728 31.69 347.318 33.99 C 347.758 34.28 348.338 34.15 348.628 33.71 C 348.908 33.27 348.778 32.68 348.338 32.4 C 344.588 29.99 340.788 28.4 338.478 27.73 C 336.668 27.19 331.828 25.77 328.518 29.32 C 327.498 30.41 326.948 31.88 326.948 33.43 Z" fill="#414042" stroke="none"/><path d="M 354.418 16.25 C 353.898 16.81 353.478 17.19 353.038 17.51 C 352.608 17.81 352.188 18.06 351.718 18.21 C 351.238 18.36 350.718 18.43 350.148 18.38 C 349.568 18.34 348.958 18.2 348.268 18.01 L 348.258 18 C 348.168 17.98 348.078 18.03 348.048 18.12 C 348.038 18.17 348.048 18.22 348.068 18.25 C 348.428 18.9 349.018 19.44 349.748 19.78 C 350.468 20.12 351.358 20.23 352.198 20.03 C 353.028 19.84 353.818 19.35 354.298 18.65 C 354.768 17.96 354.978 17.09 354.728 16.32 C 354.688 16.22 354.588 16.17 354.488 16.2 C 354.458 16.21 354.438 16.23 354.418 16.25 Z" fill="#414042" stroke="none"/><path d="M 349.238 33.75 C 348.778 33.09 348.498 32.55 348.318 32.01 C 348.138 31.47 348.038 30.96 348.078 30.44 C 348.118 29.93 348.298 29.42 348.638 28.92 C 348.978 28.41 349.468 27.93 350.038 27.42 L 350.048 27.42 C 350.118 27.35 350.118 27.25 350.058 27.18 C 350.028 27.14 349.978 27.12 349.928 27.12 C 349.138 27.12 348.318 27.36 347.618 27.89 C 346.918 28.4 346.358 29.25 346.218 30.19 C 346.058 31.13 346.288 32.13 346.848 32.85 C 347.388 33.58 348.228 34.07 349.098 34.04 C 349.198 34.03 349.268 33.95 349.268 33.85 C 349.268 33.81 349.258 33.78 349.238 33.75 Z" fill="#414042" stroke="none"/><path d="M 332.758 27.88 C 332.048 27.67 331.538 27.48 331.078 27.25 C 330.628 27.02 330.228 26.79 329.878 26.48 C 329.518 26.16 329.218 25.77 328.968 25.29 C 328.708 24.81 328.518 24.24 328.318 23.59 L 328.318 23.58 C 328.288 23.49 328.198 23.44 328.108 23.46 C 328.058 23.48 328.028 23.51 328.008 23.54 C 327.648 24.16 327.478 24.91 327.558 25.67 C 327.638 26.44 327.978 27.22 328.548 27.81 C 329.108 28.41 329.878 28.82 330.678 28.9 C 331.478 28.98 332.298 28.76 332.828 28.19 L 332.838 28.18 C 332.908 28.11 332.898 27.99 332.828 27.92 C 332.808 27.9 332.778 27.89 332.758 27.88 Z" fill="#414042" stroke="none"/><path d="M 336.628 16.41 C 337.278 15.96 337.628 15.16 337.668 14.35 C 337.718 13.53 337.418 12.68 336.888 12.03 C 336.368 11.36 335.618 10.91 334.848 10.73 C 334.078 10.55 333.308 10.63 332.638 10.92 C 332.548 10.96 332.508 11.06 332.548 11.15 C 332.568 11.19 332.598 11.22 332.638 11.23 L 332.638 11.24 C 333.288 11.51 333.848 11.76 334.308 12.08 C 334.768 12.39 335.118 12.75 335.388 13.15 C 335.658 13.56 335.818 14 335.978 14.49 C 336.138 15 336.248 15.54 336.338 16.29 C 336.348 16.39 336.448 16.46 336.548 16.45 C 336.578 16.44 336.608 16.43 336.628 16.42 L 336.628 16.41 Z" fill="#414042" stroke="none"/><path d="M 308.268 19.03 C 308.208 19.81 308.108 20.4 307.938 20.93 C 307.758 21.45 307.558 21.91 307.238 22.32 C 306.928 22.73 306.508 23.09 305.988 23.39 C 305.458 23.68 304.838 23.92 304.128 24.15 C 304.038 24.18 303.988 24.27 304.018 24.36 C 304.038 24.41 304.068 24.45 304.108 24.47 C 304.808 24.8 305.618 24.91 306.438 24.77 C 307.248 24.63 308.068 24.21 308.668 23.54 C 309.278 22.89 309.648 21.99 309.618 21.11 C 309.608 20.24 309.238 19.38 308.558 18.9 C 308.478 18.84 308.358 18.86 308.298 18.94 C 308.278 18.97 308.268 19 308.268 19.03 Z" fill="#414042" stroke="none"/><path d="M 358.888 18.35 C 358.928 17.32 359.808 16.52 360.828 16.57 C 361.868 16.62 362.658 17.49 362.608 18.52 C 362.558 19.55 361.688 20.35 360.658 20.3 C 359.628 20.25 358.838 19.38 358.888 18.35 Z" fill="#414042" stroke="none"/><path d="M 340.578 19.04 C 340.628 18.02 341.498 17.22 342.528 17.27 C 343.558 17.31 344.358 18.19 344.308 19.22 C 344.258 20.25 343.388 21.04 342.358 20.99 C 341.328 20.95 340.538 20.07 340.578 19.04 Z" fill="#414042" stroke="none"/><path d="M 332.628 34.2 C 332.678 33.17 333.548 32.38 334.578 32.42 C 335.608 32.47 336.408 33.35 336.358 34.38 C 336.308 35.4 335.438 36.2 334.408 36.15 C 333.378 36.1 332.578 35.23 332.628 34.2 Z" fill="#414042" stroke="none"/><path d="M 313.298 18.29 C 313.338 17.27 314.218 16.47 315.248 16.52 C 316.278 16.57 317.068 17.44 317.018 18.47 C 316.978 19.5 316.098 20.29 315.068 20.24 C 314.038 20.2 313.248 19.32 313.298 18.29 Z" fill="#414042" stroke="none"/><path d="M 170.118 553.63 C 170.118 553.17 169.748 552.8 169.278 552.8 L 103.748 552.8 C 103.718 552.8 103.688 552.8 103.668 552.8 C 103.538 552.81 100.398 553.06 98.378 550.24 C 97.628 549.18 97.378 547.75 97.708 546.43 C 98.028 545.18 98.828 544.16 99.908 543.63 C 100.938 543.14 102.528 543.06 103.608 544.08 C 104.308 544.74 104.648 545.49 104.588 546.2 C 104.558 546.64 104.358 547.02 104.058 547.22 C 103.678 547.47 103.568 547.99 103.828 548.37 C 104.078 548.76 104.598 548.86 104.988 548.61 C 105.708 548.12 106.178 547.3 106.258 546.34 C 106.368 545.11 105.828 543.88 104.758 542.87 C 103.098 541.29 100.758 541.36 99.178 542.13 C 97.658 542.88 96.528 544.29 96.088 546.02 C 95.638 547.81 95.988 549.75 97.018 551.21 C 99.498 554.67 103.288 554.51 103.778 554.47 L 169.278 554.47 C 169.748 554.47 170.118 554.1 170.118 553.63 Z" fill="#414042" stroke="none"/><path d="M 104.968 548.62 C 104.078 549.2 102.888 548.96 102.308 548.08 C 101.718 547.19 101.958 546 102.838 545.41 C 103.728 544.83 104.918 545.07 105.508 545.95 C 106.088 546.84 105.848 548.03 104.968 548.62 Z" fill="#414042" stroke="none"/><path d="M 304.998 547.6 C 304.998 547.07 304.938 546.54 304.808 546.02 C 304.368 544.29 303.248 542.88 301.718 542.13 C 300.148 541.36 297.808 541.29 296.138 542.87 C 295.068 543.88 294.538 545.12 294.648 546.34 C 294.728 547.3 295.188 548.12 295.918 548.61 C 296.308 548.86 296.818 548.76 297.078 548.38 C 297.328 547.99 297.228 547.47 296.848 547.22 C 296.548 547.02 296.348 546.64 296.308 546.2 C 296.248 545.49 296.598 544.74 297.288 544.08 C 298.368 543.06 299.968 543.14 300.988 543.63 C 302.068 544.16 302.868 545.18 303.188 546.43 C 303.528 547.75 303.278 549.18 302.518 550.23 C 300.498 553.06 297.368 552.81 297.228 552.8 C 297.208 552.8 297.178 552.8 297.158 552.8 L 169.278 552.8 C 168.818 552.8 168.448 553.17 168.448 553.63 C 168.448 554.1 168.818 554.47 169.278 554.47 L 297.118 554.47 C 297.618 554.51 301.408 554.67 303.878 551.21 C 304.618 550.17 304.998 548.9 304.998 547.6 Z" fill="#414042" stroke="none"/><path d="M 295.948 548.64 C 296.828 549.22 298.028 548.98 298.608 548.1 C 299.198 547.21 298.958 546.02 298.068 545.43 C 297.188 544.85 295.998 545.09 295.408 545.97 C 294.818 546.86 295.058 548.05 295.948 548.64 Z" fill="#414042" stroke="none"/><path d="M 37.398 518.94 C 37.398 514.91 36.278 510.75 33.988 507.29 C 31.108 502.93 27.528 500.4 23.738 497.71 C 22.108 496.56 20.428 495.38 18.778 494.01 C 14.138 490.19 8.538 481.97 12.148 475 C 14.898 469.69 19.348 469.86 21.318 470.69 C 24.248 471.91 25.408 474.44 24.358 477.29 C 23.758 478.9 22.298 479.58 21.128 479.68 C 20.198 479.75 19.008 479.48 18.438 478.48 C 17.688 477.18 18.108 476.29 18.748 475.9 C 19.188 475.62 19.338 475.04 19.058 474.59 C 18.788 474.15 18.198 474.01 17.758 474.28 C 16.358 475.14 15.458 477.11 16.788 479.43 C 17.638 480.91 19.368 481.73 21.288 481.56 C 23.518 481.38 25.378 479.99 26.138 477.95 C 27.528 474.17 25.888 470.55 22.058 468.94 C 19.528 467.88 13.848 467.59 10.463 474.13 C 6.772 481.26 11.244 490.27 17.568 495.48 C 19.278 496.88 20.988 498.09 22.638 499.26 C 26.278 501.84 29.718 504.27 32.408 508.33 C 37.098 515.43 36.418 525.64 30.918 530.63 C 25.678 535.39 18.738 535.73 14.048 531.45 C 12.208 529.77 11.133 527.48 11.02 524.99 C 10.905 522.5 11.771 520.11 13.448 518.27 C 14.758 516.85 16.538 516.03 18.478 515.96 C 20.348 515.9 22.108 516.55 23.408 517.8 C 25.688 519.98 25.328 523 23.838 524.73 C 22.708 526.06 20.378 526.62 18.838 525.33 C 18.128 524.72 17.738 523.76 17.858 522.89 C 17.908 522.44 18.118 521.85 18.798 521.53 C 19.278 521.3 19.478 520.74 19.248 520.26 C 19.028 519.79 18.458 519.59 17.988 519.81 C 16.878 520.34 16.138 521.37 15.978 522.64 C 15.778 524.16 16.398 525.75 17.618 526.77 C 20.028 528.82 23.528 528.01 25.278 525.97 C 27.358 523.54 27.718 519.3 24.718 516.43 C 23.038 514.82 20.798 513.98 18.408 514.06 C 15.958 514.15 13.698 515.19 12.051 516.99 C 10.03 519.21 8.992 522.08 9.126 525.07 C 9.262 528.07 10.556 530.83 12.768 532.85 C 18.208 537.82 26.198 537.48 32.198 532.03 C 35.628 528.92 37.398 524.02 37.398 518.94 Z" fill="#414042" stroke="none"/><path d="M 22.698 497.46 C 22.698 497.12 22.518 496.79 22.188 496.62 C 22.048 496.55 18.678 494.86 15.208 497.1 C 13.788 498.02 12.848 499.55 12.628 501.29 C 12.408 502.94 12.908 504.55 13.968 505.72 C 15.268 507.13 17.058 507.6 19.018 507.03 C 20.138 506.71 20.998 505.92 21.388 504.86 C 21.738 503.91 21.628 502.87 21.108 502.08 C 20.818 501.65 20.228 501.53 19.788 501.82 C 19.358 502.11 19.238 502.7 19.528 503.13 C 19.718 503.42 19.748 503.82 19.608 504.2 C 19.428 504.69 19.028 505.06 18.498 505.21 C 17.228 505.58 16.178 505.32 15.368 504.44 C 14.668 503.67 14.358 502.64 14.508 501.53 C 14.658 500.36 15.308 499.3 16.238 498.7 C 18.768 497.06 21.218 498.26 21.328 498.31 C 21.788 498.54 22.358 498.36 22.598 497.89 C 22.668 497.75 22.698 497.61 22.698 497.46 Z" fill="#414042" stroke="none"/><path d="M 39.548 492.81 C 39.548 491.82 39.258 490.83 38.668 489.99 C 37.758 488.69 36.248 487.85 34.548 487.67 C 32.758 487.48 31.008 488.05 29.758 489.21 C 26.218 492.52 27.638 497.35 28.168 499.17 C 28.848 501.48 30.428 505.28 32.838 509.03 C 33.128 509.47 33.708 509.6 34.148 509.31 C 34.588 509.03 34.718 508.44 34.438 508 C 32.138 504.42 30.628 500.82 29.988 498.64 C 29.188 495.9 28.688 492.81 31.058 490.6 C 31.908 489.81 33.108 489.43 34.348 489.55 C 35.508 489.68 36.518 490.23 37.118 491.08 C 37.678 491.89 37.938 493.2 37.228 494.33 C 36.778 495.04 36.178 495.25 35.848 495.32 C 35.358 495.42 34.968 495.31 34.768 495.17 C 34.338 494.88 33.748 494.98 33.448 495.42 C 33.148 495.85 33.258 496.44 33.688 496.73 C 34.378 497.21 35.308 497.37 36.228 497.18 C 37.298 496.96 38.228 496.3 38.828 495.34 C 39.308 494.57 39.548 493.69 39.548 492.81 Z" fill="#414042" stroke="none"/><path d="M 16.758 515.41 C 17.528 515.67 18.408 515.46 19.098 514.98 C 19.798 514.51 20.288 513.72 20.478 512.89 C 20.668 512.05 20.558 511.16 20.228 510.43 C 19.888 509.7 19.348 509.12 18.698 508.76 C 18.608 508.71 18.508 508.74 18.458 508.82 C 18.438 508.86 18.438 508.91 18.448 508.95 L 18.448 508.95 C 18.638 509.65 18.788 510.26 18.828 510.84 C 18.868 511.41 18.808 511.93 18.658 512.4 C 18.498 512.88 18.248 513.3 17.948 513.73 C 17.638 514.17 17.248 514.58 16.688 515.1 C 16.618 515.17 16.618 515.29 16.688 515.36 C 16.708 515.39 16.728 515.4 16.758 515.41 Z" fill="#414042" stroke="none"/><path d="M 34.478 509.78 C 34.518 508.92 34.018 508.07 33.298 507.53 C 32.568 506.98 31.578 506.75 30.638 506.91 C 29.688 507.05 28.848 507.61 28.328 508.31 C 27.808 509.01 27.558 509.83 27.558 510.62 C 27.558 510.72 27.638 510.79 27.728 510.79 C 27.778 510.79 27.828 510.77 27.858 510.73 L 27.858 510.73 C 28.368 510.16 28.858 509.67 29.358 509.33 C 29.868 508.99 30.378 508.81 30.888 508.77 C 31.398 508.73 31.908 508.83 32.448 509 C 32.998 509.19 33.538 509.47 34.198 509.93 C 34.278 509.98 34.388 509.96 34.448 509.88 C 34.468 509.85 34.478 509.82 34.478 509.78 Z" fill="#414042" stroke="none"/><path d="M 28.628 493.52 C 29.198 492.99 29.418 492.16 29.338 491.37 C 29.268 490.57 28.848 489.79 28.258 489.24 C 27.658 488.67 26.878 488.33 26.118 488.25 C 25.348 488.16 24.598 488.33 23.988 488.7 C 23.898 488.74 23.878 488.85 23.928 488.93 C 23.948 488.97 23.978 489 24.018 489.01 L 24.028 489.01 C 24.688 489.21 25.258 489.4 25.738 489.65 C 26.218 489.91 26.608 490.21 26.918 490.56 C 27.238 490.92 27.458 491.32 27.688 491.77 C 27.918 492.23 28.108 492.73 28.318 493.44 C 28.348 493.54 28.458 493.6 28.558 493.57 C 28.578 493.56 28.608 493.55 28.628 493.53 L 28.628 493.52 Z" fill="#414042" stroke="none"/><path d="M 16.728 497.03 C 15.988 496.93 15.438 496.83 14.938 496.67 C 14.438 496.51 13.998 496.34 13.598 496.07 C 13.188 495.81 12.838 495.45 12.528 495 C 12.208 494.54 11.951 493.98 11.68 493.33 L 11.678 493.32 C 11.642 493.24 11.541 493.2 11.454 493.23 C 11.412 493.25 11.379 493.28 11.363 493.32 C 11.073 493.99 10.99 494.77 11.173 495.54 C 11.35 496.31 11.807 497.06 12.468 497.58 C 13.118 498.11 13.968 498.41 14.788 498.36 C 15.598 498.32 16.398 497.97 16.858 497.32 L 16.858 497.32 C 16.918 497.23 16.898 497.12 16.818 497.06 C 16.788 497.04 16.758 497.03 16.728 497.03 Z" fill="#414042" stroke="none"/><path d="M 19.338 469.25 C 19.818 469.93 20.678 470.3 21.558 470.31 C 22.438 470.34 23.328 469.96 23.988 469.36 C 24.658 468.76 25.078 467.94 25.208 467.13 C 25.348 466.31 25.238 465.5 24.908 464.8 C 24.868 464.71 24.768 464.68 24.678 464.72 C 24.638 464.74 24.608 464.78 24.588 464.82 C 24.358 465.53 24.128 466.15 23.828 466.67 C 23.528 467.2 23.178 467.61 22.768 467.93 C 22.358 468.25 21.888 468.45 21.368 468.62 C 20.838 468.8 20.258 468.9 19.478 468.96 C 19.378 468.97 19.298 469.05 19.308 469.15 C 19.308 469.19 19.318 469.22 19.338 469.25 Z" fill="#414042" stroke="none"/><path d="M 18.788 519.57 C 17.758 519.62 16.968 520.49 17.018 521.52 C 17.068 522.55 17.938 523.35 18.968 523.3 C 19.998 523.25 20.788 522.38 20.738 521.35 C 20.698 520.32 19.818 519.52 18.788 519.57 Z" fill="#414042" stroke="none"/><path d="M 19.488 501.27 C 18.458 501.32 17.658 502.19 17.708 503.22 C 17.758 504.25 18.628 505.05 19.658 505 C 20.688 504.95 21.488 504.08 21.438 503.04 C 21.388 502.02 20.518 501.22 19.488 501.27 Z" fill="#414042" stroke="none"/><path d="M 34.638 493.32 C 33.618 493.37 32.818 494.24 32.868 495.27 C 32.918 496.3 33.788 497.09 34.818 497.05 C 35.848 497 36.638 496.12 36.598 495.1 C 36.548 494.06 35.668 493.27 34.638 493.32 Z" fill="#414042" stroke="none"/><path d="M 18.738 473.98 C 17.708 474.03 16.908 474.91 16.958 475.94 C 17.008 476.97 17.888 477.76 18.908 477.71 C 19.938 477.66 20.738 476.79 20.688 475.76 C 20.638 474.73 19.768 473.94 18.738 473.98 Z" fill="#414042" stroke="none"/><path d="M 94.238 544.64 C 94.238 543.41 93.988 542.33 93.658 541.54 C 92.048 537.71 88.428 536.07 84.648 537.46 C 82.608 538.22 81.218 540.08 81.028 542.31 C 80.868 544.24 81.688 545.96 83.168 546.81 C 85.488 548.14 87.458 547.24 88.318 545.84 C 88.588 545.4 88.448 544.81 88.008 544.54 C 87.558 544.27 86.978 544.4 86.698 544.85 C 86.308 545.49 85.418 545.91 84.118 545.16 C 83.118 544.59 82.848 543.4 82.918 542.47 C 83.018 541.3 83.698 539.84 85.308 539.24 C 88.158 538.19 90.688 539.35 91.908 542.28 C 92.738 544.25 92.898 548.71 87.598 551.45 C 80.628 555.06 72.408 549.47 68.588 544.82 C 67.218 543.17 66.038 541.49 64.888 539.86 C 62.198 536.07 59.668 532.49 55.308 529.61 C 47.478 524.43 36.148 525.25 30.568 531.4 C 25.118 537.4 24.778 545.39 29.748 550.83 C 31.768 553.04 34.528 554.34 37.528 554.47 C 40.518 554.61 43.388 553.57 45.608 551.55 C 47.408 549.9 48.448 547.64 48.528 545.19 C 48.618 542.8 47.778 540.56 46.168 538.88 C 43.298 535.87 39.058 536.24 36.628 538.32 C 34.588 540.07 33.778 543.57 35.828 545.98 C 36.848 547.19 38.438 547.82 39.958 547.62 C 41.228 547.46 42.258 546.72 42.778 545.61 C 43.008 545.14 42.808 544.57 42.338 544.35 C 41.858 544.12 41.298 544.32 41.068 544.8 C 40.748 545.47 40.158 545.69 39.708 545.74 C 38.838 545.86 37.878 545.47 37.268 544.76 C 35.978 543.22 36.548 540.89 37.868 539.76 C 39.628 538.25 42.698 538 44.798 540.19 C 46.048 541.49 46.698 543.24 46.638 545.12 C 46.568 547.06 45.748 548.84 44.328 550.15 C 42.488 551.83 40.098 552.69 37.608 552.58 C 35.118 552.46 32.828 551.39 31.148 549.55 C 26.868 544.86 27.208 537.92 31.968 532.67 C 36.958 527.18 47.168 526.5 54.268 531.19 C 58.328 533.88 60.758 537.32 63.338 540.96 C 64.508 542.61 65.718 544.32 67.118 546.03 C 72.328 552.36 81.338 556.83 88.468 553.13 C 92.978 550.8 94.238 547.37 94.238 544.64 Z" fill="#414042" stroke="none"/><path d="M 66.658 544.51 C 66.658 542.76 66.018 541.49 65.978 541.41 C 65.738 540.94 65.168 540.76 64.698 541 C 64.238 541.24 64.048 541.81 64.288 542.28 C 64.338 542.38 65.538 544.83 63.898 547.36 C 63.298 548.29 62.238 548.94 61.068 549.09 C 59.958 549.24 58.928 548.93 58.158 548.22 C 57.278 547.42 57.028 546.37 57.388 545.1 C 57.538 544.57 57.908 544.17 58.398 543.99 C 58.778 543.85 59.178 543.88 59.468 544.07 C 59.898 544.36 60.488 544.24 60.778 543.81 C 61.068 543.37 60.948 542.78 60.518 542.49 C 59.728 541.97 58.688 541.86 57.748 542.21 C 56.688 542.6 55.888 543.46 55.568 544.58 C 54.998 546.54 55.468 548.33 56.878 549.62 C 58.048 550.69 59.668 551.19 61.308 550.97 C 63.048 550.75 64.578 549.81 65.498 548.39 C 66.378 547.01 66.658 545.65 66.658 544.51 Z" fill="#414042" stroke="none"/><path d="M 74.968 529.73 C 74.968 529.5 74.948 529.28 74.928 529.05 C 74.748 527.35 73.908 525.85 72.608 524.93 C 71.018 523.82 68.878 523.75 67.258 524.76 C 66.298 525.37 65.638 526.3 65.418 527.36 C 65.228 528.29 65.388 529.22 65.858 529.9 C 66.158 530.34 66.748 530.44 67.178 530.15 C 67.608 529.85 67.718 529.26 67.428 528.83 C 67.288 528.63 67.178 528.24 67.278 527.75 C 67.348 527.42 67.558 526.82 68.268 526.37 C 69.398 525.66 70.708 525.92 71.508 526.48 C 72.368 527.08 72.918 528.09 73.038 529.25 C 73.168 530.5 72.788 531.69 71.998 532.54 C 69.788 534.91 66.698 534.41 63.958 533.61 C 61.778 532.97 58.178 531.46 54.598 529.16 C 54.148 528.88 53.568 529.01 53.278 529.45 C 52.998 529.89 53.128 530.47 53.568 530.76 C 57.318 533.17 61.118 534.75 63.428 535.43 C 65.248 535.96 70.078 537.38 73.388 533.84 C 74.408 532.74 74.968 531.27 74.968 529.73 Z" fill="#414042" stroke="none"/><path d="M 47.498 546.9 C 48.018 546.35 48.428 545.96 48.868 545.65 C 49.298 545.35 49.718 545.1 50.188 544.94 C 50.668 544.79 51.188 544.73 51.758 544.77 C 52.338 544.81 52.948 544.96 53.648 545.15 L 53.648 545.15 C 53.738 545.18 53.828 545.12 53.858 545.03 C 53.868 544.99 53.868 544.94 53.838 544.9 C 53.478 544.25 52.888 543.71 52.168 543.37 C 51.438 543.04 50.548 542.93 49.708 543.12 C 48.878 543.31 48.088 543.8 47.608 544.5 C 47.138 545.19 46.928 546.07 47.188 546.84 C 47.218 546.93 47.318 546.99 47.418 546.95 C 47.448 546.94 47.478 546.93 47.498 546.9 Z" fill="#414042" stroke="none"/><path d="M 52.668 529.4 C 53.128 530.06 53.408 530.6 53.598 531.15 C 53.768 531.69 53.868 532.2 53.828 532.71 C 53.788 533.22 53.608 533.73 53.268 534.24 C 52.928 534.74 52.438 535.23 51.868 535.74 L 51.868 535.74 C 51.798 535.8 51.788 535.91 51.848 535.98 C 51.888 536.02 51.928 536.03 51.978 536.04 C 52.768 536.04 53.588 535.79 54.288 535.27 C 54.988 534.75 55.548 533.91 55.688 532.96 C 55.848 532.02 55.618 531.03 55.068 530.3 C 54.528 529.58 53.678 529.08 52.818 529.12 C 52.718 529.12 52.638 529.21 52.638 529.31 C 52.638 529.34 52.658 529.37 52.668 529.4 Z" fill="#414042" stroke="none"/><path d="M 69.148 535.27 C 69.858 535.49 70.368 535.68 70.828 535.9 C 71.278 536.14 71.678 536.36 72.038 536.68 C 72.388 536.99 72.688 537.38 72.938 537.86 C 73.198 538.34 73.388 538.91 73.588 539.57 L 73.588 539.57 C 73.618 539.67 73.708 539.72 73.798 539.69 C 73.848 539.68 73.878 539.65 73.898 539.61 C 74.268 539 74.438 538.25 74.348 537.48 C 74.268 536.72 73.928 535.94 73.358 535.34 C 72.808 534.75 72.028 534.33 71.228 534.26 C 70.438 534.18 69.608 534.4 69.078 534.97 L 69.068 534.97 C 68.998 535.04 69.008 535.16 69.078 535.23 C 69.098 535.25 69.128 535.27 69.148 535.27 Z" fill="#414042" stroke="none"/><path d="M 65.278 546.74 C 64.628 547.19 64.278 548 64.238 548.81 C 64.188 549.63 64.488 550.48 65.018 551.13 C 65.538 551.79 66.288 552.25 67.058 552.42 C 67.828 552.61 68.608 552.52 69.278 552.24 C 69.358 552.2 69.398 552.1 69.358 552.01 C 69.348 551.97 69.308 551.94 69.268 551.92 L 69.268 551.92 C 68.618 551.65 68.058 551.39 67.598 551.07 C 67.148 550.76 66.788 550.4 66.528 550 C 66.258 549.6 66.088 549.16 65.928 548.66 C 65.768 548.16 65.668 547.61 65.568 546.87 C 65.558 546.77 65.468 546.69 65.358 546.71 C 65.328 546.71 65.308 546.72 65.278 546.74 L 65.278 546.74 Z" fill="#414042" stroke="none"/><path d="M 93.638 544.12 C 93.698 543.34 93.798 542.76 93.978 542.23 C 94.148 541.71 94.348 541.25 94.668 540.83 C 94.978 540.42 95.398 540.06 95.928 539.77 C 96.448 539.47 97.068 539.24 97.778 539.01 C 97.868 538.98 97.918 538.88 97.888 538.79 C 97.878 538.75 97.838 538.71 97.798 538.69 C 97.098 538.36 96.288 538.25 95.468 538.39 C 94.658 538.52 93.838 538.94 93.238 539.61 C 92.638 540.27 92.258 541.16 92.288 542.04 C 92.298 542.91 92.668 543.77 93.348 544.26 C 93.438 544.32 93.548 544.3 93.608 544.21 C 93.628 544.19 93.638 544.15 93.638 544.12 Z" fill="#414042" stroke="none"/><path d="M 43.028 544.81 C 42.978 545.84 42.108 546.63 41.078 546.58 C 40.048 546.53 39.248 545.66 39.298 544.63 C 39.348 543.6 40.218 542.81 41.248 542.86 C 42.278 542.9 43.068 543.78 43.028 544.81 Z" fill="#414042" stroke="none"/><path d="M 61.328 544.11 C 61.278 545.14 60.408 545.94 59.378 545.89 C 58.348 545.84 57.548 544.97 57.598 543.94 C 57.648 542.91 58.518 542.11 59.548 542.16 C 60.578 542.21 61.378 543.08 61.328 544.11 Z" fill="#414042" stroke="none"/><path d="M 69.278 528.95 C 69.228 529.98 68.358 530.78 67.328 530.73 C 66.298 530.68 65.508 529.81 65.548 528.78 C 65.598 527.75 66.478 526.96 67.498 527 C 68.538 527.05 69.328 527.93 69.278 528.95 Z" fill="#414042" stroke="none"/><path d="M 88.618 544.86 C 88.568 545.89 87.688 546.68 86.658 546.64 C 85.628 546.59 84.838 545.71 84.888 544.69 C 84.938 543.66 85.808 542.86 86.838 542.91 C 87.868 542.96 88.658 543.83 88.618 544.86 Z" fill="#414042" stroke="none"/><path d="M 364.508 518.94 C 364.508 514.91 365.628 510.75 367.918 507.29 C 370.798 502.93 374.378 500.4 378.178 497.71 C 379.798 496.56 381.478 495.38 383.138 494.01 C 387.778 490.19 393.368 481.97 389.758 475 C 387.018 469.69 382.558 469.86 380.588 470.69 C 377.658 471.91 376.498 474.44 377.548 477.29 C 378.148 478.9 379.608 479.58 380.778 479.68 C 381.708 479.75 382.898 479.48 383.468 478.48 C 384.218 477.18 383.798 476.29 383.158 475.9 C 382.718 475.62 382.578 475.04 382.848 474.59 C 383.118 474.15 383.708 474.01 384.148 474.28 C 385.548 475.14 386.448 477.11 385.118 479.43 C 384.268 480.91 382.548 481.73 380.618 481.56 C 378.388 481.38 376.528 479.99 375.768 477.95 C 374.378 474.17 376.018 470.55 379.848 468.94 C 382.388 467.88 388.068 467.59 391.448 474.13 C 395.138 481.26 390.668 490.27 384.338 495.48 C 382.628 496.88 380.918 498.09 379.268 499.26 C 375.628 501.84 372.188 504.27 369.498 508.33 C 364.808 515.43 365.488 525.64 370.988 530.63 C 376.238 535.39 383.178 535.73 387.858 531.45 C 389.698 529.77 390.778 527.48 390.888 524.99 C 390.998 522.5 390.138 520.11 388.458 518.27 C 387.158 516.85 385.368 516.03 383.428 515.96 C 381.558 515.9 379.808 516.55 378.498 517.8 C 376.228 519.98 376.578 523 378.068 524.73 C 379.208 526.06 381.538 526.62 383.068 525.33 C 383.778 524.72 384.168 523.76 384.058 522.89 C 383.998 522.44 383.788 521.85 383.108 521.53 C 382.628 521.3 382.428 520.74 382.658 520.26 C 382.878 519.79 383.448 519.59 383.918 519.81 C 385.038 520.34 385.768 521.37 385.938 522.64 C 386.138 524.16 385.508 525.75 384.288 526.77 C 381.878 528.82 378.378 528.01 376.628 525.97 C 374.548 523.54 374.188 519.3 377.188 516.43 C 378.868 514.82 381.108 513.98 383.498 514.06 C 385.948 514.15 388.208 515.19 389.858 516.99 C 391.878 519.21 392.918 522.08 392.778 525.07 C 392.648 528.07 391.348 530.83 389.138 532.85 C 383.698 537.82 375.718 537.48 369.708 532.03 C 366.278 528.92 364.508 524.02 364.508 518.94 Z" fill="#414042" stroke="none"/><path d="M 379.208 497.46 C 379.208 497.12 379.398 496.79 379.718 496.62 C 379.858 496.55 383.228 494.86 386.698 497.1 C 388.118 498.02 389.058 499.55 389.288 501.29 C 389.498 502.94 389.008 504.55 387.938 505.72 C 386.648 507.13 384.848 507.6 382.888 507.03 C 381.768 506.71 380.908 505.92 380.518 504.86 C 380.168 503.91 380.278 502.87 380.798 502.08 C 381.088 501.65 381.678 501.53 382.118 501.82 C 382.548 502.11 382.668 502.7 382.378 503.13 C 382.188 503.42 382.158 503.82 382.298 504.2 C 382.478 504.69 382.878 505.06 383.408 505.21 C 384.688 505.58 385.738 505.32 386.538 504.44 C 387.238 503.67 387.548 502.64 387.408 501.53 C 387.258 500.36 386.608 499.3 385.668 498.7 C 383.138 497.06 380.688 498.26 380.588 498.31 C 380.118 498.54 379.548 498.36 379.308 497.89 C 379.238 497.75 379.208 497.61 379.208 497.46 Z" fill="#414042" stroke="none"/><path d="M 362.358 492.81 C 362.358 491.82 362.648 490.83 363.238 489.99 C 364.158 488.69 365.658 487.85 367.358 487.67 C 369.148 487.48 370.898 488.05 372.148 489.21 C 375.688 492.52 374.268 497.35 373.738 499.17 C 373.058 501.48 371.478 505.28 369.068 509.03 C 368.778 509.47 368.198 509.6 367.758 509.31 C 367.318 509.03 367.188 508.44 367.468 508 C 369.778 504.42 371.278 500.82 371.918 498.64 C 372.718 495.9 373.218 492.81 370.848 490.6 C 370.008 489.81 368.808 489.43 367.558 489.55 C 366.398 489.68 365.388 490.23 364.788 491.08 C 364.228 491.89 363.968 493.2 364.678 494.33 C 365.128 495.04 365.738 495.25 366.058 495.32 C 366.548 495.42 366.938 495.31 367.138 495.17 C 367.568 494.88 368.158 494.98 368.458 495.42 C 368.758 495.85 368.648 496.44 368.218 496.73 C 367.528 497.21 366.608 497.37 365.678 497.18 C 364.608 496.96 363.678 496.3 363.078 495.34 C 362.598 494.57 362.358 493.69 362.358 492.81 Z" fill="#414042" stroke="none"/><path d="M 385.148 515.41 C 384.378 515.67 383.508 515.46 382.818 514.98 C 382.108 514.51 381.628 513.72 381.438 512.89 C 381.238 512.05 381.348 511.16 381.688 510.43 C 382.018 509.7 382.558 509.12 383.208 508.76 C 383.298 508.71 383.398 508.74 383.448 508.82 C 383.468 508.86 383.468 508.91 383.458 508.95 L 383.458 508.95 C 383.268 509.65 383.128 510.26 383.088 510.84 C 383.038 511.41 383.098 511.93 383.258 512.4 C 383.408 512.88 383.658 513.3 383.958 513.73 C 384.268 514.17 384.658 514.58 385.218 515.1 C 385.288 515.17 385.298 515.29 385.228 515.36 C 385.198 515.39 385.178 515.4 385.148 515.41 Z" fill="#414042" stroke="none"/><path d="M 367.428 509.78 C 367.388 508.92 367.888 508.07 368.618 507.53 C 369.338 506.98 370.328 506.75 371.268 506.91 C 372.218 507.05 373.058 507.61 373.578 508.31 C 374.108 509.01 374.348 509.83 374.348 510.62 C 374.348 510.72 374.268 510.79 374.178 510.79 C 374.128 510.79 374.078 510.77 374.048 510.73 L 374.048 510.73 C 373.538 510.16 373.058 509.67 372.548 509.33 C 372.038 508.99 371.528 508.81 371.018 508.77 C 370.508 508.73 369.998 508.83 369.458 509 C 368.908 509.19 368.378 509.47 367.708 509.93 C 367.628 509.98 367.518 509.96 367.458 509.88 C 367.438 509.85 367.428 509.82 367.428 509.78 Z" fill="#414042" stroke="none"/><path d="M 373.278 493.52 C 372.708 492.99 372.488 492.16 372.568 491.37 C 372.638 490.57 373.058 489.79 373.658 489.24 C 374.248 488.67 375.028 488.33 375.788 488.25 C 376.558 488.16 377.308 488.33 377.928 488.7 C 378.008 488.74 378.028 488.85 377.988 488.93 C 377.958 488.97 377.928 489 377.888 489.01 L 377.878 489.01 C 377.218 489.21 376.648 489.4 376.168 489.65 C 375.688 489.91 375.308 490.21 374.988 490.56 C 374.668 490.92 374.448 491.32 374.218 491.77 C 373.988 492.23 373.798 492.73 373.588 493.44 C 373.558 493.54 373.448 493.6 373.358 493.57 C 373.328 493.56 373.298 493.55 373.278 493.53 L 373.278 493.52 Z" fill="#414042" stroke="none"/><path d="M 385.178 497.03 C 385.928 496.93 386.468 496.83 386.968 496.67 C 387.468 496.51 387.908 496.34 388.318 496.07 C 388.718 495.81 389.068 495.45 389.388 495 C 389.708 494.54 389.958 493.98 390.228 493.33 L 390.228 493.32 C 390.268 493.24 390.368 493.2 390.458 493.23 C 390.498 493.25 390.528 493.28 390.548 493.32 C 390.838 493.99 390.918 494.77 390.738 495.54 C 390.558 496.31 390.098 497.06 389.438 497.58 C 388.788 498.11 387.938 498.41 387.118 498.36 C 386.308 498.32 385.508 497.97 385.048 497.32 L 385.048 497.32 C 384.988 497.23 385.008 497.12 385.098 497.06 C 385.118 497.04 385.148 497.03 385.178 497.03 Z" fill="#414042" stroke="none"/><path d="M 382.568 469.25 C 382.088 469.93 381.228 470.3 380.358 470.31 C 379.468 470.34 378.578 469.96 377.918 469.36 C 377.258 468.76 376.828 467.94 376.698 467.13 C 376.558 466.31 376.668 465.5 376.998 464.8 C 377.038 464.71 377.138 464.68 377.228 464.72 C 377.268 464.74 377.298 464.78 377.318 464.82 C 377.548 465.53 377.778 466.15 378.078 466.67 C 378.378 467.2 378.728 467.61 379.138 467.93 C 379.558 468.25 380.018 468.45 380.538 468.62 C 381.068 468.8 381.648 468.9 382.428 468.96 C 382.528 468.97 382.608 469.05 382.598 469.15 C 382.598 469.19 382.588 469.22 382.568 469.25 Z" fill="#414042" stroke="none"/><path d="M 383.118 519.57 C 384.148 519.62 384.938 520.49 384.898 521.52 C 384.848 522.55 383.968 523.35 382.938 523.3 C 381.908 523.25 381.118 522.38 381.168 521.35 C 381.218 520.32 382.088 519.52 383.118 519.57 Z" fill="#414042" stroke="none"/><path d="M 382.418 501.27 C 383.448 501.32 384.248 502.19 384.198 503.22 C 384.148 504.25 383.278 505.05 382.248 505 C 381.218 504.95 380.418 504.08 380.468 503.04 C 380.518 502.02 381.398 501.22 382.418 501.27 Z" fill="#414042" stroke="none"/><path d="M 367.268 493.32 C 368.298 493.37 369.088 494.24 369.038 495.27 C 368.988 496.3 368.118 497.09 367.088 497.05 C 366.058 497 365.268 496.12 365.318 495.1 C 365.358 494.06 366.238 493.27 367.268 493.32 Z" fill="#414042" stroke="none"/><path d="M 383.168 473.98 C 384.198 474.03 384.998 474.91 384.948 475.94 C 384.898 476.97 384.028 477.76 382.998 477.71 C 381.968 477.66 381.168 476.79 381.218 475.76 C 381.268 474.73 382.138 473.94 383.168 473.98 Z" fill="#414042" stroke="none"/><path d="M 307.668 544.64 C 307.668 543.41 307.918 542.33 308.248 541.54 C 309.858 537.71 313.478 536.07 317.258 537.46 C 319.298 538.22 320.688 540.08 320.878 542.31 C 321.038 544.24 320.218 545.96 318.738 546.81 C 316.418 548.14 314.448 547.24 313.588 545.84 C 313.318 545.4 313.458 544.81 313.908 544.54 C 314.348 544.27 314.938 544.4 315.208 544.85 C 315.598 545.49 316.488 545.91 317.798 545.16 C 318.788 544.59 319.068 543.4 318.988 542.47 C 318.888 541.3 318.208 539.84 316.598 539.24 C 313.758 538.19 311.228 539.35 309.998 542.28 C 309.168 544.25 309.008 548.71 314.308 551.45 C 321.278 555.06 329.498 549.47 333.318 544.82 C 334.688 543.17 335.878 541.49 337.028 539.86 C 339.708 536.07 342.238 532.49 346.598 529.61 C 354.428 524.43 365.758 525.25 371.338 531.4 C 376.788 537.4 377.128 545.39 372.168 550.83 C 370.138 553.04 367.378 554.34 364.378 554.47 C 361.388 554.61 358.518 553.57 356.308 551.55 C 354.498 549.9 353.458 547.64 353.378 545.19 C 353.288 542.8 354.128 540.56 355.738 538.88 C 358.608 535.87 362.848 536.24 365.278 538.32 C 367.318 540.07 368.128 543.57 366.078 545.98 C 365.058 547.19 363.478 547.82 361.948 547.62 C 360.688 547.46 359.658 546.72 359.128 545.61 C 358.898 545.14 359.098 544.57 359.578 544.35 C 360.048 544.12 360.608 544.32 360.838 544.8 C 361.158 545.47 361.758 545.69 362.198 545.74 C 363.068 545.86 364.028 545.47 364.638 544.76 C 365.928 543.22 365.368 540.89 364.038 539.76 C 362.278 538.25 359.208 538 357.108 540.19 C 355.858 541.49 355.208 543.24 355.268 545.12 C 355.338 547.06 356.158 548.84 357.588 550.15 C 359.428 551.83 361.808 552.69 364.298 552.58 C 366.788 552.46 369.078 551.39 370.758 549.55 C 375.038 544.86 374.708 537.92 369.938 532.67 C 364.948 527.18 354.738 526.5 347.638 531.19 C 343.578 533.88 341.148 537.32 338.568 540.96 C 337.398 542.61 336.188 544.32 334.788 546.03 C 329.578 552.36 320.568 556.83 313.438 553.13 C 308.928 550.8 307.668 547.37 307.668 544.64 Z" fill="#414042" stroke="none"/><path d="M 335.258 544.51 C 335.258 542.76 335.888 541.49 335.928 541.41 C 336.168 540.94 336.738 540.76 337.208 541 C 337.678 541.24 337.858 541.81 337.618 542.28 C 337.568 542.38 336.368 544.83 338.008 547.36 C 338.608 548.29 339.668 548.94 340.838 549.09 C 341.948 549.24 342.978 548.93 343.748 548.22 C 344.628 547.42 344.888 546.37 344.518 545.1 C 344.368 544.57 343.998 544.17 343.508 543.99 C 343.128 543.85 342.728 543.88 342.448 544.07 C 342.008 544.36 341.418 544.24 341.128 543.81 C 340.838 543.37 340.958 542.78 341.388 542.49 C 342.178 541.97 343.218 541.86 344.158 542.21 C 345.228 542.6 346.018 543.46 346.338 544.58 C 346.908 546.54 346.438 548.33 345.028 549.62 C 343.858 550.69 342.248 551.19 340.598 550.97 C 338.858 550.75 337.338 549.81 336.418 548.39 C 335.528 547.01 335.258 545.65 335.258 544.51 Z" fill="#414042" stroke="none"/><path d="M 326.948 529.73 C 326.948 529.5 326.958 529.28 326.978 529.05 C 327.158 527.35 328.008 525.85 329.308 524.93 C 330.888 523.82 333.038 523.75 334.648 524.76 C 335.618 525.37 336.268 526.3 336.488 527.36 C 336.678 528.29 336.518 529.22 336.048 529.9 C 335.748 530.34 335.158 530.44 334.728 530.15 C 334.298 529.85 334.188 529.26 334.488 528.83 C 334.618 528.63 334.728 528.24 334.628 527.75 C 334.568 527.42 334.348 526.82 333.638 526.37 C 332.508 525.66 331.198 525.92 330.398 526.48 C 329.538 527.08 328.988 528.09 328.868 529.25 C 328.738 530.5 329.118 531.69 329.908 532.54 C 332.118 534.91 335.218 534.41 337.948 533.61 C 340.128 532.97 343.728 531.46 347.318 529.16 C 347.758 528.88 348.338 529.01 348.628 529.45 C 348.908 529.89 348.778 530.47 348.338 530.76 C 344.588 533.17 340.788 534.75 338.478 535.43 C 336.668 535.96 331.828 537.38 328.518 533.84 C 327.498 532.74 326.948 531.27 326.948 529.73 Z" fill="#414042" stroke="none"/><path d="M 354.418 546.9 C 353.898 546.35 353.478 545.96 353.038 545.65 C 352.608 545.35 352.188 545.1 351.718 544.94 C 351.238 544.79 350.718 544.73 350.148 544.77 C 349.568 544.81 348.958 544.96 348.268 545.15 L 348.258 545.15 C 348.168 545.18 348.078 545.12 348.048 545.03 C 348.038 544.99 348.048 544.94 348.068 544.9 C 348.428 544.25 349.018 543.71 349.748 543.37 C 350.468 543.04 351.358 542.93 352.198 543.12 C 353.028 543.31 353.818 543.8 354.298 544.5 C 354.768 545.19 354.978 546.07 354.728 546.84 C 354.688 546.93 354.588 546.99 354.488 546.95 C 354.458 546.94 354.438 546.93 354.418 546.9 Z" fill="#414042" stroke="none"/><path d="M 349.238 529.4 C 348.778 530.06 348.498 530.6 348.318 531.15 C 348.138 531.69 348.038 532.2 348.078 532.71 C 348.118 533.22 348.298 533.73 348.638 534.24 C 348.978 534.74 349.468 535.23 350.038 535.74 L 350.048 535.74 C 350.118 535.8 350.118 535.91 350.058 535.98 C 350.028 536.02 349.978 536.03 349.928 536.04 C 349.138 536.04 348.318 535.79 347.618 535.27 C 346.918 534.75 346.358 533.91 346.218 532.96 C 346.058 532.02 346.288 531.03 346.848 530.3 C 347.388 529.58 348.228 529.08 349.098 529.12 C 349.198 529.12 349.268 529.21 349.268 529.31 C 349.268 529.34 349.258 529.37 349.238 529.4 Z" fill="#414042" stroke="none"/><path d="M 332.758 535.27 C 332.048 535.49 331.538 535.68 331.078 535.9 C 330.628 536.14 330.228 536.36 329.878 536.68 C 329.518 536.99 329.218 537.38 328.968 537.86 C 328.708 538.34 328.518 538.91 328.318 539.57 L 328.318 539.57 C 328.288 539.67 328.198 539.72 328.108 539.69 C 328.058 539.68 328.028 539.65 328.008 539.61 C 327.648 539 327.478 538.25 327.558 537.48 C 327.638 536.72 327.978 535.94 328.548 535.34 C 329.108 534.75 329.878 534.33 330.678 534.26 C 331.478 534.18 332.298 534.4 332.828 534.97 L 332.838 534.97 C 332.908 535.04 332.898 535.16 332.828 535.23 C 332.808 535.25 332.778 535.27 332.758 535.27 Z" fill="#414042" stroke="none"/><path d="M 336.628 546.74 C 337.278 547.19 337.628 548 337.668 548.81 C 337.718 549.63 337.418 550.48 336.888 551.13 C 336.368 551.79 335.618 552.25 334.848 552.42 C 334.078 552.61 333.308 552.52 332.638 552.24 C 332.548 552.2 332.508 552.1 332.548 552.01 C 332.568 551.97 332.598 551.94 332.638 551.92 L 332.638 551.92 C 333.288 551.65 333.848 551.39 334.308 551.07 C 334.768 550.76 335.118 550.4 335.388 550 C 335.658 549.6 335.818 549.16 335.978 548.66 C 336.138 548.16 336.248 547.61 336.338 546.87 C 336.348 546.77 336.448 546.69 336.548 546.71 C 336.578 546.71 336.608 546.72 336.628 546.74 L 336.628 546.74 Z" fill="#414042" stroke="none"/><path d="M 308.268 544.12 C 308.208 543.34 308.108 542.76 307.938 542.23 C 307.758 541.71 307.558 541.25 307.238 540.83 C 306.928 540.42 306.508 540.06 305.988 539.77 C 305.458 539.47 304.838 539.24 304.128 539.01 C 304.038 538.98 303.988 538.88 304.018 538.79 C 304.038 538.75 304.068 538.71 304.108 538.69 C 304.808 538.36 305.618 538.25 306.438 538.39 C 307.248 538.52 308.068 538.94 308.668 539.61 C 309.278 540.27 309.648 541.16 309.618 542.04 C 309.608 542.91 309.238 543.77 308.558 544.26 C 308.478 544.32 308.358 544.3 308.298 544.21 C 308.278 544.19 308.268 544.15 308.268 544.12 Z" fill="#414042" stroke="none"/><path d="M 358.888 544.81 C 358.928 545.84 359.808 546.63 360.828 546.58 C 361.868 546.53 362.658 545.66 362.608 544.63 C 362.558 543.6 361.688 542.81 360.658 542.86 C 359.628 542.9 358.838 543.78 358.888 544.81 Z" fill="#414042" stroke="none"/><path d="M 340.578 544.11 C 340.628 545.14 341.498 545.94 342.528 545.89 C 343.558 545.84 344.358 544.97 344.308 543.94 C 344.258 542.91 343.388 542.11 342.358 542.16 C 341.328 542.21 340.538 543.08 340.578 544.11 Z" fill="#414042" stroke="none"/><path d="M 332.628 528.95 C 332.678 529.98 333.548 530.78 334.578 530.73 C 335.608 530.68 336.408 529.81 336.358 528.78 C 336.308 527.75 335.438 526.96 334.408 527 C 333.378 527.05 332.578 527.93 332.628 528.95 Z" fill="#414042" stroke="none"/><path d="M 313.298 544.86 C 313.338 545.89 314.218 546.68 315.248 546.64 C 316.278 546.59 317.068 545.71 317.018 544.69 C 316.978 543.66 316.098 542.86 315.068 542.91 C 314.038 542.96 313.248 543.83 313.298 544.86 Z" fill="#414042" stroke="none"/><path d="M 2.084 12.13 L 3.141 12.13 C 8.046 12.13 12.038 8.14 12.038 3.24 L 12.038 2.17 L 2.084 2.17 L 2.084 12.13 Z" fill="#414042" stroke="none"/><path d="M 17.788 3.09 L 17.788 2 L 15.788 2 L 15.788 3.09 C 15.788 10.15 10.052 15.89 2.998 15.89 L 2.082 15.89 L 2.082 17.88 L 2.998 17.88 C 11.154 17.88 17.788 11.25 17.788 3.09 Z" fill="#414042" stroke="none"/><path d="M 3.996 161.35 L 2 161.35 L 2 20.99 L 2.998 20.99 C 12.878 20.99 20.898 12.98 20.898 3.09 L 20.898 2.09 L 212.438 2.09 L 212.438 4.09 L 22.868 4.09 C 22.358 14.27 14.168 22.45 3.996 22.96 L 3.996 161.35 Z" fill="#414042" stroke="none"/><path d="M 399.398 12.13 L 398.338 12.13 C 393.428 12.13 389.438 8.14 389.438 3.24 L 389.438 2.17 L 399.398 2.17 L 399.398 12.13 Z" fill="#414042" stroke="none"/><path d="M 383.688 3.09 L 383.688 2 L 385.688 2 L 385.688 3.09 C 385.688 10.15 391.428 15.89 398.478 15.89 L 399.398 15.89 L 399.398 17.88 L 398.478 17.88 C 390.328 17.88 383.688 11.25 383.688 3.09 Z" fill="#414042" stroke="none"/><path d="M 397.478 161.35 L 399.478 161.35 L 399.478 20.99 L 398.478 20.99 C 388.608 20.99 380.578 12.96 380.578 3.09 L 380.578 2.09 L 206.018 2.09 L 206.018 4.09 L 378.608 4.09 C 379.118 14.27 387.308 22.45 397.478 22.96 L 397.478 161.35 Z" fill="#414042" stroke="none"/><path d="M 2.084 551.43 L 3.141 551.43 C 8.046 551.43 12.038 555.42 12.038 560.32 L 12.038 561.39 L 2.084 561.39 L 2.084 551.43 Z" fill="#414042" stroke="none"/><path d="M 17.788 560.47 L 17.788 561.56 L 15.788 561.56 L 15.788 560.47 C 15.788 553.41 10.052 547.67 2.998 547.67 L 2.082 547.67 L 2.082 545.68 L 2.998 545.68 C 11.154 545.68 17.788 552.31 17.788 560.47 Z" fill="#414042" stroke="none"/><path d="M 3.996 142.2 L 2 142.2 L 2 542.57 L 2.998 542.57 C 12.878 542.57 20.898 550.58 20.898 560.47 L 20.898 561.47 L 212.438 561.47 L 212.438 559.47 L 22.868 559.47 C 22.358 549.29 14.168 541.11 3.996 540.6 L 3.996 142.2 Z" fill="#414042" stroke="none"/><path d="M 399.398 551.43 L 398.338 551.43 C 393.428 551.43 389.438 555.42 389.438 560.32 L 389.438 561.39 L 399.398 561.39 L 399.398 551.43 Z" fill="#414042" stroke="none"/><path d="M 383.688 560.47 L 383.688 561.56 L 385.688 561.56 L 385.688 560.47 C 385.688 553.41 391.428 547.67 398.478 547.67 L 399.398 547.67 L 399.398 545.68 L 398.478 545.68 C 390.328 545.68 383.688 552.31 383.688 560.47 Z" fill="#414042" stroke="none"/><path d="M 397.478 142.2 L 399.478 142.2 L 399.478 542.57 L 398.478 542.57 C 388.608 542.57 380.578 550.6 380.578 560.47 L 380.578 561.47 L 206.018 561.47 L 206.018 559.47 L 378.608 559.47 C 379.118 549.29 387.308 541.11 397.478 540.6 L 397.478 142.2 Z" fill="#414042" stroke="none"/>
</svg>
