<?xml version="1.0" encoding="UTF-8"?>
<svg xmlns="http://www.w3.org/2000/svg" width="431.748" height="594.578" viewBox="0 0 431.748 594.578">
  <path d="M 14.096 544.016 C 13.487 544.016 12.993 543.526 12.993 542.916 L 12.993 50.566 C 12.993 49.956 13.487 49.456 14.096 49.456 C 14.704 49.456 15.199 49.956 15.199 50.566 L 15.199 542.916 C 15.199 543.526 14.704 544.016 14.096 544.016 Z" fill="#414042" stroke="none"/><path d="M 52.311 581.806 C 51.703 581.806 51.208 581.306 51.208 580.696 C 51.208 580.096 51.703 579.596 52.311 579.596 L 381.371 579.596 C 381.979 579.596 382.474 580.096 382.474 580.696 C 382.474 581.306 381.979 581.806 381.371 581.806 L 52.311 581.806 Z" fill="#414042" stroke="none"/><path d="M 417.653 545.326 C 417.044 545.326 416.549 544.836 416.549 544.226 L 416.549 51.376 C 416.549 50.766 417.044 50.266 417.653 50.266 C 418.261 50.266 418.756 50.766 418.756 51.376 L 418.756 544.226 C 418.756 544.836 418.261 545.326 417.653 545.326 Z" fill="#414042" stroke="none"/><path d="M 51.001 14.976 C 50.392 14.976 49.897 14.476 49.897 13.876 C 49.897 13.266 50.392 12.766 51.001 12.766 L 381.092 12.766 C 381.7 12.766 382.195 13.266 382.195 13.876 C 382.195 14.476 381.7 14.976 381.092 14.976 L 51.001 14.976 Z" fill="#414042" stroke="none"/><path d="M 33.003 498.756 C 30.288 498.186 28.3 496.866 27.18 495.526 L 27.18 302.326 C 27.921 300.466 28.931 298.656 32.708 297.856 C 32.954 297.806 33.13 297.586 33.137 297.336 C 33.13 297.086 32.954 296.876 32.708 296.816 C 28.931 296.026 27.921 294.216 27.18 292.356 L 27.18 99.146 C 28.3 97.816 30.288 96.496 33.003 95.926 C 33.252 95.876 33.432 95.656 33.432 95.396 C 33.432 95.136 33.252 94.916 33.003 94.866 C 29.526 94.126 27.222 92.176 26.437 90.526 L 26.437 89.176 C 27.524 88.926 28.336 87.956 28.336 86.796 C 28.336 85.706 27.611 84.786 26.619 84.476 C 26.805 83.676 27.166 83.016 27.876 81.976 C 28.805 80.616 30.838 79.436 32.703 78.456 C 32.881 78.356 32.994 78.176 32.994 77.976 C 32.995 77.776 32.884 77.586 32.707 77.496 C 30.123 76.116 26.991 70.336 26.437 63.416 C 26.413 63.136 26.179 62.926 25.894 62.926 C 25.613 62.926 25.378 63.136 25.354 63.416 C 24.801 70.336 21.667 76.116 19.083 77.496 C 18.906 77.586 18.794 77.776 18.794 77.976 C 18.797 78.176 18.909 78.356 19.087 78.456 C 20.953 79.436 22.986 80.616 23.912 81.976 C 24.622 83.016 24.985 83.676 25.169 84.476 C 24.177 84.786 23.452 85.706 23.452 86.796 C 23.452 87.956 24.266 88.926 25.351 89.176 L 25.351 90.526 C 24.569 92.176 22.263 94.126 18.786 94.866 C 18.535 94.916 18.356 95.136 18.356 95.396 C 18.356 95.656 18.535 95.876 18.786 95.926 C 21.501 96.496 23.489 97.816 24.609 99.146 L 24.609 292.356 C 23.868 294.216 22.857 296.026 19.081 296.816 C 18.835 296.876 18.659 297.086 18.653 297.336 C 18.659 297.586 18.835 297.806 19.081 297.856 C 22.857 298.656 23.868 300.466 24.609 302.326 L 24.609 495.526 C 23.489 496.866 21.501 498.186 18.786 498.756 C 18.535 498.806 18.356 499.026 18.356 499.286 C 18.356 499.536 18.535 499.766 18.786 499.816 C 22.263 500.546 24.569 502.506 25.351 504.146 L 25.351 505.506 C 24.266 505.746 23.452 506.716 23.452 507.876 C 23.452 508.976 24.177 509.886 25.169 510.196 C 24.985 510.996 24.622 511.656 23.912 512.696 C 22.986 514.066 20.953 515.246 19.087 516.226 C 18.909 516.316 18.797 516.496 18.794 516.706 C 18.794 516.906 18.906 517.086 19.083 517.186 C 21.667 518.566 24.801 524.336 25.354 531.256 C 25.378 531.546 25.613 531.756 25.894 531.756 C 26.179 531.756 26.413 531.546 26.437 531.256 C 26.991 524.336 30.123 518.566 32.707 517.186 C 32.884 517.086 32.995 516.906 32.994 516.706 C 32.994 516.496 32.881 516.316 32.703 516.226 C 30.838 515.246 28.805 514.066 27.876 512.696 C 27.166 511.656 26.805 510.996 26.619 510.196 C 27.611 509.886 28.336 508.976 28.336 507.876 C 28.336 506.716 27.524 505.746 26.437 505.506 L 26.437 504.146 C 27.222 502.506 29.526 500.546 33.003 499.816 C 33.252 499.766 33.432 499.536 33.432 499.286 C 33.432 499.026 33.252 498.806 33.003 498.756 Z" fill="#414042" stroke="none"/><path d="M 412.962 498.756 C 410.247 498.186 408.259 496.866 407.139 495.526 L 407.139 302.326 C 407.88 300.466 408.89 298.656 412.667 297.856 C 412.913 297.806 413.089 297.586 413.095 297.336 C 413.089 297.086 412.913 296.876 412.667 296.816 C 408.89 296.026 407.88 294.216 407.139 292.356 L 407.139 99.146 C 408.259 97.816 410.247 96.496 412.962 95.926 C 413.211 95.876 413.391 95.656 413.391 95.396 C 413.391 95.136 413.211 94.916 412.962 94.866 C 409.485 94.126 407.181 92.176 406.396 90.526 L 406.396 89.176 C 407.483 88.926 408.295 87.956 408.295 86.796 C 408.295 85.706 407.57 84.786 406.577 84.476 C 406.764 83.676 407.125 83.016 407.835 81.976 C 408.763 80.616 410.797 79.436 412.662 78.456 C 412.84 78.356 412.953 78.176 412.953 77.976 C 412.954 77.776 412.842 77.586 412.666 77.496 C 410.082 76.116 406.949 70.336 406.396 63.416 C 406.372 63.136 406.137 62.926 405.853 62.926 C 405.571 62.926 405.337 63.136 405.313 63.416 C 404.759 70.336 401.626 76.116 399.042 77.496 C 398.864 77.586 398.753 77.776 398.753 77.976 C 398.756 78.176 398.868 78.356 399.046 78.456 C 400.912 79.436 402.944 80.616 403.871 81.976 C 404.581 83.016 404.944 83.676 405.128 84.476 C 404.136 84.786 403.41 85.706 403.41 86.796 C 403.41 87.956 404.225 88.926 405.31 89.176 L 405.31 90.526 C 404.528 92.176 402.222 94.126 398.745 94.866 C 398.494 94.916 398.315 95.136 398.315 95.396 C 398.315 95.656 398.494 95.876 398.745 95.926 C 401.46 96.496 403.448 97.816 404.568 99.146 L 404.568 292.356 C 403.827 294.216 402.816 296.026 399.04 296.816 C 398.794 296.876 398.618 297.086 398.611 297.336 C 398.618 297.586 398.794 297.806 399.04 297.856 C 402.816 298.656 403.827 300.466 404.568 302.326 L 404.568 495.526 C 403.448 496.866 401.46 498.186 398.745 498.756 C 398.494 498.806 398.315 499.026 398.315 499.286 C 398.315 499.536 398.494 499.766 398.745 499.816 C 402.222 500.546 404.528 502.506 405.31 504.146 L 405.31 505.506 C 404.225 505.746 403.41 506.716 403.41 507.876 C 403.41 508.976 404.136 509.886 405.128 510.196 C 404.944 510.996 404.581 511.656 403.871 512.696 C 402.944 514.066 400.912 515.246 399.046 516.226 C 398.868 516.316 398.756 516.496 398.753 516.706 C 398.753 516.906 398.864 517.086 399.042 517.186 C 401.626 518.566 404.759 524.336 405.313 531.256 C 405.337 531.546 405.571 531.756 405.853 531.756 C 406.137 531.756 406.372 531.546 406.396 531.256 C 406.949 524.336 410.082 518.566 412.666 517.186 C 412.842 517.086 412.954 516.906 412.953 516.706 C 412.953 516.496 412.84 516.316 412.662 516.226 C 410.797 515.246 408.763 514.066 407.835 512.696 C 407.125 511.656 406.764 510.996 406.577 510.196 C 407.57 509.886 408.295 508.976 408.295 507.876 C 408.295 506.716 407.483 505.746 406.396 505.506 L 406.396 504.146 C 407.181 502.506 409.485 500.546 412.962 499.816 C 413.211 499.766 413.391 499.536 413.391 499.286 C 413.391 499.026 413.211 498.806 412.962 498.756 Z" fill="#414042" stroke="none"/><path d="M 381.084 47.426 C 381.084 48.916 382.295 50.126 383.789 50.126 C 385.282 50.126 386.494 48.916 386.494 47.426 C 386.494 45.926 385.282 44.716 383.789 44.716 C 382.295 44.716 381.084 45.926 381.084 47.426 Z M 415.775 15.966 C 416.143 15.156 416.493 14.296 416.823 13.376 C 417.155 12.456 417.653 11.586 418.316 10.776 C 418.759 10.336 419.198 10.036 419.639 9.896 C 420.083 9.746 420.597 9.966 421.186 10.556 C 421.775 11.146 421.996 11.666 421.849 12.106 C 421.703 12.546 421.407 12.986 420.965 13.426 C 420.159 14.086 419.29 14.586 418.369 14.916 C 417.45 15.246 416.587 15.596 415.775 15.966 Z M 404.456 32.696 C 403.241 35.026 401.77 37.006 400.036 38.666 C 398.305 40.316 396.505 41.496 394.623 42.196 C 392.748 42.896 391.257 42.696 390.153 41.596 C 389.047 40.486 388.845 38.996 389.542 37.116 C 390.246 35.246 391.424 33.436 393.079 31.706 C 394.738 29.976 396.743 28.526 399.099 27.346 C 401.452 26.166 403.662 25.726 405.723 26.016 C 406.095 28.156 405.669 30.386 404.456 32.696 Z M 429.692 22.376 C 429.546 21.046 429.141 20.056 428.475 19.396 C 428.109 19.026 427.482 18.726 426.599 18.506 C 425.713 18.286 424.684 18.136 423.507 18.066 C 422.326 17.996 421.095 17.976 419.806 18.016 C 418.517 18.046 417.283 18.136 416.105 18.286 C 416.919 17.476 418.02 16.886 419.42 16.526 C 420.817 16.156 422.147 15.706 423.395 15.196 C 425.384 14.386 426.378 13.316 426.38 11.996 C 426.375 10.666 425.601 9.226 424.057 7.686 C 422.511 6.136 421.075 5.366 419.752 5.366 C 418.424 5.366 417.358 6.366 416.549 8.346 C 416.034 9.596 415.591 10.926 415.221 12.326 C 414.853 13.726 414.27 14.826 413.456 15.636 C 413.604 14.456 413.696 13.226 413.734 11.936 C 413.769 10.646 413.75 9.416 413.676 8.236 C 413.604 7.056 413.455 6.026 413.236 5.146 C 413.014 4.266 412.721 3.636 412.349 3.266 C 411.687 2.606 410.696 2.206 409.368 2.056 C 408.046 1.906 407.017 2.056 406.276 2.496 C 407.454 3.966 407.677 5.296 406.937 6.466 L 404.842 4.376 C 403.735 5.036 403.295 6.136 403.519 7.686 C 403.737 9.236 404.251 10.626 405.058 11.886 C 405.358 12.326 405.706 12.606 406.109 12.706 C 406.519 12.826 406.72 12.736 406.718 12.436 C 406.716 11.116 406.866 10.006 407.159 9.126 C 407.384 8.606 407.937 8.386 408.817 8.456 C 409.7 8.526 410.365 8.936 410.804 9.676 C 411.909 12.106 412.091 14.456 411.359 16.736 C 410.621 19.026 409.26 21.086 407.27 22.926 C 406.903 20.206 405.964 17.536 404.454 14.916 C 402.945 12.306 401.342 10.296 399.651 8.896 C 397.886 7.426 395.841 6.676 393.52 6.636 C 391.202 6.596 389.12 7.426 387.28 9.116 C 385.294 10.966 384.318 13.156 384.354 15.696 C 384.39 18.236 385.218 20.386 386.839 22.156 C 388.534 23.846 390.446 24.656 392.581 24.586 C 394.718 24.506 396.413 23.846 397.663 22.596 C 398.4 21.706 398.803 20.676 398.878 19.506 C 398.95 18.326 398.655 17.406 397.993 16.746 C 397.18 15.926 396.192 15.526 395.012 15.526 C 393.833 15.526 392.951 15.816 392.358 16.416 C 391.845 16.926 391.497 17.496 391.312 18.126 C 391.128 18.746 391.37 19.246 392.029 19.616 C 392.766 20.056 393.578 19.976 394.457 19.396 C 394.828 19.026 395.271 18.766 395.783 18.616 C 396.298 18.476 396.632 18.616 396.778 19.066 C 397.074 19.946 396.926 20.716 396.335 21.376 C 395.749 22.046 394.977 22.486 394.015 22.706 C 393.062 22.926 392.031 22.886 390.922 22.596 C 389.821 22.306 388.864 21.676 388.052 20.716 C 387.318 19.836 386.783 18.826 386.45 17.686 C 386.121 16.546 386.049 15.436 386.231 14.366 C 386.414 13.296 386.876 12.286 387.61 11.326 C 388.348 10.366 389.381 9.596 390.702 9.016 C 390.929 9.086 391.053 9.286 391.088 9.616 C 391.128 9.946 391.183 10.336 391.256 10.776 C 391.328 11.216 391.46 11.676 391.644 12.156 C 391.826 12.636 392.213 13.026 392.801 13.316 C 393.543 13.756 394.276 13.906 395.01 13.756 C 395.744 13.616 396.465 13.446 397.163 13.266 C 397.867 13.076 398.563 12.966 399.261 12.926 C 399.966 12.896 400.644 13.206 401.307 13.866 C 402.707 15.266 403.718 16.866 404.342 18.676 C 404.97 20.476 405.394 22.296 405.611 24.146 C 403.185 24.066 400.905 24.476 398.765 25.356 C 396.633 26.236 394.754 27.456 393.13 29.006 C 391.514 30.546 390.189 32.276 389.156 34.196 C 388.126 36.106 387.538 38.096 387.39 40.156 C 386.213 39.716 385.641 38.696 385.679 37.116 C 385.714 35.536 385.918 34.046 386.285 32.646 C 387.022 29.256 386.544 26.716 384.85 25.026 C 384.263 24.436 383.433 24.016 382.363 23.756 C 381.299 23.496 380.728 23.926 380.655 25.026 C 380.579 25.536 380.563 26.076 380.601 26.626 C 380.637 27.176 380.51 27.676 380.212 28.116 C 379.772 28.856 379.072 29.226 378.114 29.226 C 377.158 29.226 376.421 28.966 375.903 28.446 C 375.464 28.006 375.133 27.526 374.91 27.016 C 374.692 26.496 374.876 26.016 375.463 25.576 C 375.831 25.356 376.238 25.286 376.678 25.356 C 377.119 25.426 377.451 25.216 377.67 24.696 C 377.897 24.176 377.913 23.686 377.728 23.196 C 377.546 22.726 377.269 22.306 376.898 21.936 C 376.238 21.416 375.665 21.246 375.189 21.436 C 374.71 21.616 374.175 22.006 373.585 22.596 C 372.776 23.406 372.334 24.576 372.258 26.126 C 372.188 27.676 372.629 29.006 373.587 30.106 C 374.615 31.136 375.851 31.636 377.283 31.596 C 378.722 31.556 380.065 31.356 381.316 30.986 C 381.614 30.996 381.89 31.156 382.145 31.486 C 382.403 31.816 382.604 32.206 382.751 32.646 C 382.828 33.746 382.883 34.656 382.919 35.356 C 382.954 36.056 383.01 36.956 383.083 38.056 C 383.232 39.386 383.837 40.616 384.905 41.756 C 385.973 42.896 386.987 43.576 387.943 43.796 C 388.165 44.756 388.848 45.776 389.985 46.836 C 391.126 47.906 392.363 48.516 393.684 48.656 C 394.789 48.736 395.692 48.796 396.392 48.826 C 397.093 48.866 397.995 48.916 399.096 48.986 C 399.54 49.136 399.926 49.346 400.257 49.596 C 400.591 49.856 400.753 50.136 400.753 50.426 C 400.387 51.676 400.183 53.026 400.146 54.456 C 400.111 55.896 400.61 57.126 401.639 58.156 C 402.742 59.116 404.068 59.556 405.615 59.486 C 407.162 59.406 408.336 58.966 409.145 58.156 C 409.735 57.566 410.124 57.036 410.307 56.556 C 410.493 56.076 410.327 55.506 409.811 54.846 C 409.444 54.476 409.022 54.196 408.541 54.016 C 408.063 53.826 407.569 53.846 407.049 54.076 C 406.533 54.296 406.314 54.626 406.385 55.066 C 406.464 55.506 406.389 55.916 406.166 56.276 C 405.727 56.866 405.248 57.056 404.73 56.836 C 404.215 56.616 403.736 56.276 403.293 55.836 C 402.778 55.326 402.522 54.586 402.524 53.626 C 402.521 52.676 402.889 51.976 403.625 51.536 C 404.069 51.236 404.569 51.106 405.119 51.146 C 405.67 51.186 406.204 51.166 406.718 51.086 C 407.822 51.016 408.247 50.446 407.987 49.376 C 407.732 48.316 407.307 47.486 406.717 46.896 C 405.026 45.206 402.485 44.726 399.098 45.456 C 397.698 45.826 396.207 46.026 394.625 46.066 C 393.042 46.096 392.031 45.536 391.588 44.356 C 393.65 44.206 395.639 43.616 397.552 42.586 C 399.467 41.556 401.198 40.226 402.74 38.606 C 404.291 36.986 405.505 35.116 406.387 32.976 C 407.27 30.836 407.675 28.556 407.601 26.136 C 409.444 26.346 411.267 26.776 413.069 27.396 C 414.874 28.026 416.475 29.036 417.875 30.436 C 418.535 31.096 418.852 31.776 418.811 32.476 C 418.775 33.176 418.667 33.876 418.479 34.576 C 418.295 35.276 418.132 35.996 417.98 36.736 C 417.835 37.466 417.986 38.206 418.424 38.946 C 418.717 39.526 419.106 39.916 419.585 40.106 C 420.064 40.286 420.524 40.416 420.965 40.486 C 421.409 40.566 421.794 40.616 422.124 40.656 C 422.458 40.696 422.663 40.816 422.731 41.036 C 422.147 42.366 421.371 43.396 420.414 44.136 C 419.456 44.866 418.444 45.326 417.377 45.516 C 416.309 45.696 415.204 45.626 414.062 45.296 C 412.923 44.966 411.91 44.426 411.025 43.686 C 410.069 42.876 409.444 41.926 409.148 40.816 C 408.855 39.716 408.819 38.686 409.037 37.726 C 409.26 36.766 409.7 35.996 410.361 35.406 C 411.027 34.816 411.8 34.666 412.681 34.966 C 413.125 35.116 413.272 35.446 413.123 35.956 C 412.977 36.476 412.719 36.916 412.349 37.286 C 411.765 38.166 411.689 38.976 412.132 39.716 C 412.499 40.376 412.996 40.616 413.623 40.436 C 414.246 40.246 414.818 39.896 415.33 39.386 C 415.922 38.796 416.22 37.916 416.215 36.736 C 416.218 35.556 415.81 34.566 415 33.756 C 414.336 33.086 413.417 32.796 412.241 32.866 C 411.063 32.936 410.035 33.346 409.147 34.086 C 407.896 35.336 407.234 37.026 407.159 39.156 C 407.089 41.296 407.895 43.206 409.59 44.906 C 411.359 46.526 413.513 47.356 416.051 47.396 C 418.593 47.426 420.781 46.446 422.625 44.466 C 424.314 42.626 425.144 40.546 425.107 38.226 C 425.073 35.906 424.316 33.856 422.841 32.096 C 421.446 30.406 419.438 28.796 416.823 27.286 C 414.209 25.776 411.541 24.846 408.817 24.466 C 410.659 22.486 412.721 21.116 415.002 20.386 C 417.281 19.646 419.64 19.836 422.069 20.936 C 422.808 21.376 423.213 22.046 423.285 22.926 C 423.36 23.806 423.142 24.366 422.623 24.586 C 421.74 24.876 420.632 25.026 419.308 25.026 C 419.015 25.026 418.922 25.226 419.031 25.636 C 419.145 26.036 419.42 26.386 419.86 26.686 C 421.116 27.496 422.513 28.006 424.058 28.226 C 425.605 28.446 426.707 28.006 427.372 26.906 L 425.272 24.806 C 426.453 24.066 427.775 24.286 429.246 25.466 C 429.694 24.726 429.841 23.696 429.692 22.376 Z" fill="#414042" stroke="none"/><path d="M 47.959 44.716 C 46.466 44.716 45.254 45.926 45.254 47.426 C 45.254 48.916 46.466 50.126 47.959 50.126 C 49.453 50.126 50.664 48.916 50.664 47.426 C 50.664 45.926 49.453 44.716 47.959 44.716 Z M 13.379 14.916 C 12.459 14.586 11.589 14.086 10.783 13.426 C 10.341 12.986 10.046 12.546 9.899 12.106 C 9.752 11.666 9.973 11.146 10.562 10.556 C 11.151 9.966 11.665 9.746 12.109 9.896 C 12.55 10.036 12.99 10.336 13.432 10.776 C 14.095 11.586 14.593 12.456 14.925 13.376 C 15.255 14.296 15.605 15.156 15.974 15.966 C 15.161 15.596 14.298 15.246 13.379 14.916 Z M 26.025 26.016 C 28.086 25.726 30.296 26.166 32.649 27.346 C 35.005 28.526 37.011 29.976 38.669 31.706 C 40.324 33.436 41.502 35.246 42.206 37.116 C 42.903 38.996 42.701 40.486 41.596 41.596 C 40.492 42.696 39 42.896 37.125 42.196 C 35.244 41.496 33.443 40.316 31.713 38.666 C 29.978 37.006 28.507 35.026 27.292 32.696 C 26.079 30.386 25.653 28.156 26.025 26.016 Z M 2.502 25.466 C 3.973 24.286 5.295 24.066 6.476 24.806 L 4.376 26.906 C 5.041 28.006 6.143 28.446 7.69 28.226 C 9.235 28.006 10.632 27.496 11.888 26.686 C 12.328 26.386 12.603 26.036 12.718 25.636 C 12.826 25.226 12.734 25.026 12.44 25.026 C 11.117 25.026 10.008 24.876 9.126 24.586 C 8.606 24.366 8.389 23.806 8.463 22.926 C 8.536 22.046 8.94 21.376 9.68 20.936 C 12.108 19.836 14.467 19.646 16.746 20.386 C 19.027 21.116 21.089 22.486 22.931 24.466 C 20.207 24.846 17.539 25.776 14.925 27.286 C 12.31 28.796 10.303 30.406 8.907 32.096 C 7.432 33.856 6.675 35.906 6.641 38.226 C 6.604 40.546 7.435 42.626 9.123 44.466 C 10.967 46.446 13.155 47.426 15.698 47.396 C 18.235 47.356 20.389 46.526 22.158 44.906 C 23.853 43.206 24.659 41.296 24.59 39.156 C 24.514 37.026 23.852 35.336 22.601 34.086 C 21.713 33.346 20.686 32.936 19.507 32.866 C 18.331 32.796 17.412 33.086 16.748 33.756 C 15.938 34.566 15.53 35.556 15.533 36.736 C 15.528 37.916 15.826 38.796 16.418 39.386 C 16.931 39.896 17.502 40.246 18.125 40.436 C 18.752 40.616 19.25 40.376 19.617 39.716 C 20.059 38.976 19.983 38.166 19.399 37.286 C 19.029 36.916 18.771 36.476 18.625 35.956 C 18.476 35.446 18.624 35.116 19.067 34.966 C 19.948 34.666 20.722 34.816 21.387 35.406 C 22.048 35.996 22.489 36.766 22.711 37.726 C 22.929 38.686 22.893 39.716 22.6 40.816 C 22.305 41.926 21.68 42.876 20.724 43.686 C 19.838 44.426 18.825 44.966 17.686 45.296 C 16.544 45.626 15.439 45.696 14.371 45.516 C 13.305 45.326 12.292 44.866 11.334 44.136 C 10.377 43.396 9.601 42.366 9.017 41.036 C 9.086 40.816 9.29 40.696 9.624 40.656 C 9.954 40.616 10.339 40.566 10.783 40.486 C 11.225 40.416 11.684 40.286 12.163 40.106 C 12.642 39.916 13.032 39.526 13.324 38.946 C 13.762 38.206 13.914 37.466 13.768 36.736 C 13.617 35.996 13.453 35.276 13.269 34.576 C 13.081 33.876 12.974 33.176 12.937 32.476 C 12.896 31.776 13.213 31.096 13.874 30.436 C 15.273 29.036 16.874 28.026 18.679 27.396 C 20.481 26.776 22.304 26.346 24.147 26.136 C 24.073 28.556 24.478 30.836 25.361 32.976 C 26.244 35.116 27.457 36.986 29.008 38.606 C 30.55 40.226 32.281 41.556 34.196 42.586 C 36.11 43.616 38.098 44.206 40.16 44.356 C 39.717 45.536 38.706 46.096 37.123 46.066 C 35.541 46.026 34.051 45.826 32.65 45.456 C 29.264 44.726 26.723 45.206 25.031 46.896 C 24.441 47.486 24.016 48.316 23.761 49.376 C 23.501 50.446 23.926 51.016 25.03 51.086 C 25.544 51.166 26.078 51.186 26.629 51.146 C 27.18 51.106 27.679 51.236 28.124 51.536 C 28.859 51.976 29.227 52.676 29.224 53.626 C 29.226 54.586 28.97 55.326 28.455 55.836 C 28.012 56.276 27.533 56.616 27.018 56.836 C 26.5 57.056 26.022 56.866 25.582 56.276 C 25.359 55.916 25.284 55.506 25.363 55.066 C 25.435 54.626 25.216 54.296 24.699 54.076 C 24.18 53.846 23.686 53.826 23.207 54.016 C 22.726 54.196 22.305 54.476 21.938 54.846 C 21.421 55.506 21.255 56.076 21.441 56.556 C 21.625 57.036 22.013 57.566 22.603 58.156 C 23.413 58.966 24.586 59.406 26.133 59.486 C 27.681 59.556 29.006 59.116 30.109 58.156 C 31.138 57.126 31.637 55.896 31.602 54.456 C 31.565 53.026 31.362 51.676 30.995 50.426 C 30.995 50.136 31.157 49.856 31.491 49.596 C 31.822 49.346 32.208 49.136 32.652 48.986 C 33.753 48.916 34.655 48.866 35.356 48.826 C 36.056 48.796 36.959 48.736 38.064 48.656 C 39.386 48.516 40.623 47.906 41.763 46.836 C 42.901 45.776 43.583 44.756 43.806 43.796 C 44.761 43.576 45.775 42.896 46.844 41.756 C 47.911 40.616 48.516 39.386 48.665 38.056 C 48.738 36.956 48.794 36.056 48.829 35.356 C 48.865 34.656 48.92 33.746 48.997 32.646 C 49.144 32.206 49.344 31.816 49.603 31.486 C 49.858 31.156 50.134 30.996 50.432 30.986 C 51.683 31.356 53.027 31.556 54.465 31.596 C 55.897 31.636 57.133 31.136 58.161 30.106 C 59.119 29.006 59.561 27.676 59.49 26.126 C 59.414 24.576 58.973 23.406 58.163 22.596 C 57.573 22.006 57.038 21.616 56.56 21.436 C 56.083 21.246 55.51 21.416 54.851 21.936 C 54.479 22.306 54.202 22.726 54.02 23.196 C 53.835 23.686 53.851 24.176 54.078 24.696 C 54.297 25.216 54.629 25.426 55.07 25.356 C 55.51 25.286 55.917 25.356 56.286 25.576 C 56.873 26.016 57.056 26.496 56.838 27.016 C 56.615 27.526 56.285 28.006 55.844 28.446 C 55.327 28.966 54.59 29.226 53.634 29.226 C 52.675 29.226 51.976 28.856 51.537 28.116 C 51.238 27.676 51.111 27.176 51.147 26.626 C 51.185 26.076 51.169 25.536 51.092 25.026 C 51.02 23.926 50.449 23.496 49.384 23.756 C 48.316 24.016 47.485 24.436 46.898 25.026 C 45.204 26.716 44.727 29.256 45.463 32.646 C 45.83 34.046 46.035 35.536 46.069 37.116 C 46.107 38.696 45.535 39.716 44.358 40.156 C 44.21 38.096 43.622 36.106 42.592 34.196 C 41.559 32.276 40.234 30.546 38.618 29.006 C 36.994 27.456 35.115 26.236 32.983 25.356 C 30.843 24.476 28.563 24.066 26.138 24.146 C 26.354 22.296 26.778 20.476 27.406 18.676 C 28.03 16.866 29.041 15.266 30.441 13.866 C 31.104 13.206 31.782 12.896 32.487 12.926 C 33.186 12.966 33.881 13.076 34.585 13.266 C 35.284 13.446 36.004 13.616 36.739 13.756 C 37.472 13.906 38.205 13.756 38.947 13.316 C 39.535 13.026 39.922 12.636 40.104 12.156 C 40.289 11.676 40.42 11.216 40.493 10.776 C 40.566 10.336 40.62 9.946 40.66 9.616 C 40.695 9.286 40.819 9.086 41.046 9.016 C 42.368 9.596 43.4 10.366 44.139 11.326 C 44.872 12.286 45.334 13.296 45.517 14.366 C 45.699 15.436 45.628 16.546 45.298 17.686 C 44.965 18.826 44.431 19.836 43.696 20.716 C 42.884 21.676 41.927 22.306 40.826 22.596 C 39.717 22.886 38.686 22.926 37.733 22.706 C 36.771 22.486 35.999 22.046 35.413 21.376 C 34.822 20.716 34.674 19.946 34.97 19.066 C 35.117 18.616 35.45 18.476 35.965 18.616 C 36.477 18.766 36.92 19.026 37.291 19.396 C 38.17 19.976 38.982 20.056 39.719 19.616 C 40.378 19.246 40.62 18.746 40.436 18.126 C 40.252 17.496 39.903 16.926 39.39 16.416 C 38.798 15.816 37.915 15.526 36.737 15.526 C 35.556 15.526 34.568 15.926 33.755 16.746 C 33.093 17.406 32.798 18.326 32.871 19.506 C 32.945 20.676 33.348 21.706 34.085 22.596 C 35.335 23.846 37.03 24.506 39.167 24.586 C 41.302 24.656 43.215 23.846 44.91 22.156 C 46.531 20.386 47.358 18.236 47.394 15.696 C 47.43 13.156 46.454 10.966 44.468 9.116 C 42.628 7.426 40.546 6.596 38.228 6.636 C 35.907 6.676 33.862 7.426 32.097 8.896 C 30.406 10.296 28.803 12.306 27.294 14.916 C 25.785 17.536 24.845 20.206 24.478 22.926 C 22.489 21.086 21.127 19.026 20.389 16.736 C 19.657 14.456 19.84 12.106 20.944 9.676 C 21.383 8.936 22.048 8.526 22.931 8.456 C 23.811 8.386 24.364 8.606 24.59 9.126 C 24.882 10.006 25.032 11.116 25.03 12.436 C 25.028 12.736 25.229 12.826 25.639 12.706 C 26.042 12.606 26.39 12.326 26.691 11.886 C 27.497 10.626 28.011 9.236 28.229 7.686 C 28.453 6.136 28.013 5.036 26.906 4.376 L 24.811 6.466 C 24.071 5.296 24.294 3.966 25.473 2.496 C 24.731 2.056 23.702 1.906 22.38 2.056 C 21.052 2.206 20.061 2.606 19.399 3.266 C 19.027 3.636 18.734 4.266 18.513 5.146 C 18.293 6.026 18.144 7.056 18.072 8.236 C 17.998 9.416 17.979 10.646 18.014 11.936 C 18.052 13.226 18.144 14.456 18.292 15.636 C 17.478 14.826 16.895 13.726 16.527 12.326 C 16.157 10.926 15.714 9.596 15.199 8.346 C 14.39 6.366 13.324 5.366 11.996 5.366 C 10.674 5.366 9.237 6.136 7.691 7.686 C 6.147 9.226 5.374 10.666 5.369 11.996 C 5.37 13.316 6.364 14.386 8.353 15.196 C 9.601 15.706 10.931 16.156 12.328 16.526 C 13.728 16.886 14.829 17.476 15.643 18.286 C 14.465 18.136 13.231 18.046 11.942 18.016 C 10.653 17.976 9.422 17.996 8.241 18.066 C 7.064 18.136 6.035 18.286 5.149 18.506 C 4.266 18.726 3.639 19.026 3.274 19.396 C 2.608 20.056 2.202 21.046 2.056 22.376 C 1.907 23.696 2.054 24.726 2.502 25.466 Z" fill="#414042" stroke="none"/><path d="M 383.789 549.856 C 385.282 549.856 386.494 548.646 386.494 547.146 C 386.494 545.656 385.282 544.446 383.789 544.446 C 382.295 544.446 381.084 545.656 381.084 547.146 C 381.084 548.646 382.295 549.856 383.789 549.856 Z M 418.369 579.656 C 419.29 579.986 420.159 580.486 420.965 581.146 C 421.407 581.586 421.703 582.026 421.849 582.466 C 421.996 582.906 421.775 583.426 421.186 584.016 C 420.597 584.606 420.083 584.826 419.639 584.676 C 419.198 584.536 418.759 584.236 418.316 583.796 C 417.653 582.986 417.155 582.116 416.823 581.196 C 416.493 580.276 416.143 579.416 415.775 578.606 C 416.587 578.976 417.45 579.326 418.369 579.656 Z M 405.723 568.556 C 403.662 568.846 401.452 568.406 399.099 567.226 C 396.743 566.046 394.738 564.596 393.079 562.866 C 391.424 561.136 390.246 559.326 389.542 557.456 C 388.845 555.576 389.047 554.086 390.153 552.986 C 391.257 551.876 392.748 551.676 394.623 552.376 C 396.505 553.076 398.305 554.256 400.036 555.906 C 401.77 557.566 403.241 559.546 404.456 561.876 C 405.669 564.186 406.095 566.416 405.723 568.556 Z M 429.246 569.106 C 427.775 570.286 426.453 570.506 425.272 569.766 L 427.372 567.666 C 426.707 566.566 425.605 566.126 424.058 566.346 C 422.513 566.566 421.116 567.076 419.86 567.886 C 419.42 568.186 419.145 568.526 419.031 568.936 C 418.922 569.346 419.015 569.546 419.308 569.546 C 420.632 569.546 421.74 569.696 422.623 569.986 C 423.142 570.216 423.36 570.766 423.285 571.646 C 423.213 572.526 422.808 573.196 422.069 573.636 C 419.64 574.736 417.281 574.926 415.002 574.186 C 412.721 573.456 410.659 572.086 408.817 570.106 C 411.541 569.736 414.209 568.796 416.823 567.286 C 419.438 565.776 421.446 564.176 422.841 562.476 C 424.316 560.716 425.073 558.666 425.107 556.346 C 425.144 554.026 424.314 551.946 422.625 550.106 C 420.781 548.116 418.593 547.146 416.051 547.186 C 413.513 547.216 411.359 548.046 409.59 549.666 C 407.895 551.366 407.089 553.276 407.159 555.416 C 407.234 557.546 407.896 559.236 409.147 560.486 C 410.035 561.226 411.063 561.636 412.241 561.706 C 413.417 561.776 414.336 561.486 415 560.816 C 415.81 560.006 416.218 559.016 416.215 557.836 C 416.22 556.656 415.922 555.776 415.33 555.186 C 414.818 554.676 414.246 554.326 413.623 554.136 C 412.996 553.956 412.499 554.196 412.132 554.856 C 411.689 555.596 411.765 556.406 412.349 557.286 C 412.719 557.656 412.977 558.096 413.123 558.616 C 413.272 559.126 413.125 559.466 412.681 559.606 C 411.8 559.906 411.027 559.756 410.361 559.166 C 409.7 558.576 409.26 557.806 409.037 556.846 C 408.819 555.886 408.855 554.856 409.148 553.756 C 409.444 552.646 410.069 551.696 411.025 550.886 C 411.91 550.146 412.923 549.606 414.062 549.276 C 415.204 548.946 416.309 548.876 417.377 549.056 C 418.444 549.246 419.456 549.706 420.414 550.446 C 421.371 551.176 422.147 552.206 422.731 553.536 C 422.663 553.756 422.458 553.886 422.124 553.916 C 421.794 553.956 421.409 554.006 420.965 554.086 C 420.524 554.156 420.064 554.286 419.585 554.476 C 419.106 554.656 418.717 555.046 418.424 555.626 C 417.986 556.366 417.835 557.106 417.98 557.836 C 418.132 558.576 418.295 559.296 418.479 559.996 C 418.667 560.696 418.775 561.396 418.811 562.096 C 418.852 562.796 418.535 563.476 417.875 564.136 C 416.475 565.536 414.874 566.546 413.069 567.176 C 411.267 567.796 409.444 568.226 407.601 568.436 C 407.675 566.016 407.27 563.736 406.387 561.596 C 405.505 559.466 404.291 557.576 402.74 555.966 C 401.198 554.346 399.467 553.026 397.552 551.986 C 395.639 550.956 393.65 550.366 391.588 550.216 C 392.031 549.036 393.042 548.476 394.625 548.506 C 396.207 548.546 397.698 548.746 399.098 549.116 C 402.485 549.846 405.026 549.366 406.717 547.676 C 407.307 547.086 407.732 546.256 407.987 545.196 C 408.247 544.126 407.822 543.556 406.718 543.486 C 406.204 543.406 405.67 543.386 405.119 543.426 C 404.569 543.466 404.069 543.336 403.625 543.036 C 402.889 542.596 402.521 541.896 402.524 540.946 C 402.522 539.986 402.778 539.246 403.293 538.736 C 403.736 538.296 404.215 537.956 404.73 537.736 C 405.248 537.516 405.727 537.706 406.166 538.296 C 406.389 538.656 406.464 539.066 406.385 539.506 C 406.314 539.946 406.533 540.276 407.049 540.496 C 407.569 540.726 408.063 540.746 408.541 540.556 C 409.022 540.376 409.444 540.096 409.811 539.726 C 410.327 539.066 410.493 538.496 410.307 538.016 C 410.124 537.536 409.735 537.006 409.145 536.416 C 408.336 535.606 407.162 535.166 405.615 535.086 C 404.068 535.016 402.742 535.456 401.639 536.416 C 400.61 537.446 400.111 538.676 400.146 540.116 C 400.183 541.546 400.387 542.896 400.753 544.146 C 400.753 544.446 400.591 544.716 400.257 544.976 C 399.926 545.236 399.54 545.436 399.096 545.586 C 397.995 545.656 397.093 545.706 396.392 545.746 C 395.692 545.776 394.789 545.836 393.684 545.916 C 392.363 546.056 391.126 546.666 389.985 547.736 C 388.848 548.796 388.165 549.816 387.943 550.776 C 386.987 550.996 385.973 551.676 384.905 552.816 C 383.837 553.956 383.232 555.186 383.083 556.516 C 383.01 557.616 382.954 558.516 382.919 559.216 C 382.883 559.916 382.828 560.826 382.751 561.926 C 382.604 562.366 382.403 562.756 382.145 563.086 C 381.89 563.416 381.614 563.576 381.316 563.586 C 380.065 563.216 378.722 563.016 377.283 562.976 C 375.851 562.936 374.615 563.436 373.587 564.466 C 372.629 565.566 372.188 566.896 372.258 568.446 C 372.334 569.996 372.776 571.166 373.585 571.976 C 374.175 572.566 374.71 572.956 375.189 573.136 C 375.665 573.326 376.238 573.156 376.898 572.646 C 377.269 572.266 377.546 571.846 377.728 571.376 C 377.913 570.896 377.897 570.396 377.67 569.876 C 377.451 569.356 377.119 569.146 376.678 569.216 C 376.238 569.286 375.831 569.216 375.463 568.996 C 374.876 568.556 374.692 568.076 374.91 567.556 C 375.133 567.046 375.464 566.566 375.903 566.126 C 376.421 565.606 377.158 565.346 378.114 565.346 C 379.072 565.346 379.772 565.716 380.212 566.456 C 380.51 566.896 380.637 567.396 380.601 567.946 C 380.563 568.496 380.579 569.036 380.655 569.546 C 380.728 570.656 381.299 571.076 382.363 570.816 C 383.433 570.556 384.263 570.136 384.85 569.546 C 386.544 567.856 387.022 565.316 386.285 561.926 C 385.918 560.526 385.714 559.036 385.679 557.456 C 385.641 555.876 386.213 554.856 387.39 554.416 C 387.538 556.476 388.126 558.466 389.156 560.386 C 390.189 562.296 391.514 564.026 393.13 565.566 C 394.754 567.116 396.633 568.336 398.765 569.216 C 400.905 570.096 403.185 570.506 405.611 570.426 C 405.394 572.276 404.97 574.096 404.342 575.896 C 403.718 577.706 402.707 579.306 401.307 580.706 C 400.644 581.366 399.966 581.676 399.261 581.646 C 398.563 581.606 397.867 581.496 397.163 581.306 C 396.465 581.126 395.744 580.956 395.01 580.816 C 394.276 580.666 393.543 580.816 392.801 581.256 C 392.213 581.546 391.826 581.936 391.644 582.416 C 391.46 582.896 391.328 583.356 391.256 583.796 C 391.183 584.236 391.128 584.626 391.088 584.956 C 391.053 585.286 390.929 585.486 390.702 585.566 C 389.381 584.976 388.348 584.206 387.61 583.246 C 386.876 582.286 386.414 581.276 386.231 580.206 C 386.049 579.136 386.121 578.026 386.45 576.896 C 386.783 575.746 387.318 574.736 388.052 573.856 C 388.864 572.896 389.821 572.266 390.922 571.976 C 392.031 571.686 393.062 571.646 394.015 571.866 C 394.977 572.086 395.749 572.526 396.335 573.196 C 396.926 573.856 397.074 574.626 396.778 575.506 C 396.632 575.956 396.298 576.096 395.783 575.956 C 395.271 575.806 394.828 575.546 394.457 575.176 C 393.578 574.596 392.766 574.516 392.029 574.956 C 391.37 575.326 391.128 575.826 391.312 576.446 C 391.497 577.076 391.845 577.646 392.358 578.156 C 392.951 578.756 393.833 579.046 395.012 579.046 C 396.192 579.046 397.18 578.646 397.993 577.826 C 398.655 577.166 398.95 576.246 398.878 575.066 C 398.803 573.896 398.4 572.866 397.663 571.976 C 396.413 570.726 394.718 570.066 392.581 569.986 C 390.446 569.916 388.534 570.726 386.839 572.416 C 385.218 574.186 384.39 576.336 384.354 578.876 C 384.318 581.426 385.294 583.606 387.28 585.456 C 389.12 587.146 391.202 587.976 393.52 587.936 C 395.841 587.896 397.886 587.146 399.651 585.676 C 401.342 584.276 402.945 582.266 404.454 579.656 C 405.964 577.036 406.903 574.366 407.27 571.646 C 409.26 573.486 410.621 575.556 411.359 577.836 C 412.091 580.116 411.909 582.466 410.804 584.896 C 410.365 585.636 409.7 586.046 408.817 586.116 C 407.937 586.186 407.384 585.966 407.159 585.446 C 406.866 584.566 406.716 583.466 406.718 582.136 C 406.72 581.846 406.519 581.746 406.109 581.866 C 405.706 581.976 405.358 582.246 405.058 582.686 C 404.251 583.946 403.737 585.336 403.519 586.886 C 403.295 588.436 403.735 589.536 404.842 590.196 L 406.937 588.106 C 407.677 589.276 407.454 590.606 406.276 592.076 C 407.017 592.526 408.046 592.666 409.368 592.526 C 410.696 592.366 411.687 591.966 412.349 591.306 C 412.721 590.936 413.014 590.316 413.236 589.426 C 413.455 588.546 413.604 587.516 413.676 586.336 C 413.75 585.156 413.769 583.926 413.734 582.636 C 413.696 581.346 413.604 580.116 413.456 578.936 C 414.27 579.746 414.853 580.846 415.221 582.246 C 415.591 583.646 416.034 584.976 416.549 586.226 C 417.358 588.206 418.424 589.206 419.752 589.206 C 421.075 589.206 422.511 588.436 424.057 586.886 C 425.601 585.346 426.375 583.906 426.38 582.576 C 426.378 581.256 425.384 580.186 423.395 579.376 C 422.147 578.866 420.817 578.416 419.42 578.046 C 418.02 577.686 416.919 577.096 416.105 576.286 C 417.283 576.436 418.517 576.526 419.806 576.566 C 421.095 576.596 422.326 576.576 423.507 576.506 C 424.684 576.436 425.713 576.286 426.599 576.066 C 427.482 575.846 428.109 575.546 428.475 575.176 C 429.141 574.516 429.546 573.526 429.692 572.196 C 429.841 570.876 429.694 569.846 429.246 569.106 Z" fill="#414042" stroke="none"/><path d="M 50.664 547.146 C 50.664 545.656 49.453 544.446 47.959 544.446 C 46.466 544.446 45.254 545.656 45.254 547.146 C 45.254 548.646 46.466 549.856 47.959 549.856 C 49.453 549.856 50.664 548.646 50.664 547.146 Z M 15.974 578.606 C 15.605 579.416 15.255 580.276 14.925 581.196 C 14.593 582.116 14.095 582.986 13.432 583.796 C 12.99 584.236 12.55 584.536 12.109 584.676 C 11.665 584.826 11.151 584.606 10.562 584.016 C 9.973 583.426 9.752 582.906 9.899 582.466 C 10.046 582.026 10.341 581.586 10.783 581.146 C 11.589 580.486 12.459 579.986 13.379 579.656 C 14.298 579.326 15.161 578.976 15.974 578.606 Z M 27.292 561.876 C 28.507 559.546 29.978 557.566 31.713 555.906 C 33.443 554.256 35.244 553.076 37.125 552.376 C 39 551.676 40.492 551.876 41.596 552.986 C 42.701 554.086 42.903 555.576 42.206 557.456 C 41.502 559.326 40.324 561.136 38.669 562.866 C 37.011 564.596 35.005 566.046 32.649 567.226 C 30.296 568.406 28.086 568.846 26.025 568.556 C 25.653 566.416 26.079 564.186 27.292 561.876 Z M 2.056 572.196 C 2.202 573.526 2.608 574.516 3.274 575.176 C 3.639 575.546 4.266 575.846 5.149 576.066 C 6.035 576.286 7.064 576.436 8.241 576.506 C 9.422 576.576 10.653 576.596 11.942 576.566 C 13.231 576.526 14.465 576.436 15.643 576.286 C 14.829 577.096 13.728 577.686 12.328 578.046 C 10.931 578.416 9.601 578.866 8.353 579.376 C 6.364 580.186 5.37 581.256 5.369 582.576 C 5.374 583.906 6.147 585.346 7.691 586.886 C 9.237 588.436 10.674 589.206 11.996 589.206 C 13.324 589.206 14.39 588.206 15.199 586.226 C 15.714 584.976 16.157 583.646 16.527 582.246 C 16.895 580.846 17.478 579.746 18.292 578.936 C 18.144 580.116 18.052 581.346 18.014 582.636 C 17.979 583.926 17.998 585.156 18.072 586.336 C 18.144 587.516 18.293 588.546 18.513 589.426 C 18.734 590.316 19.027 590.936 19.399 591.306 C 20.061 591.966 21.052 592.366 22.38 592.526 C 23.702 592.666 24.731 592.526 25.473 592.076 C 24.294 590.606 24.071 589.276 24.811 588.106 L 26.906 590.196 C 28.013 589.536 28.453 588.436 28.229 586.886 C 28.011 585.336 27.497 583.946 26.691 582.686 C 26.39 582.246 26.042 581.976 25.639 581.866 C 25.229 581.746 25.028 581.846 25.03 582.136 C 25.032 583.466 24.882 584.566 24.59 585.446 C 24.364 585.966 23.811 586.186 22.931 586.116 C 22.048 586.046 21.383 585.636 20.944 584.896 C 19.84 582.466 19.657 580.116 20.389 577.836 C 21.127 575.556 22.489 573.486 24.478 571.646 C 24.845 574.366 25.785 577.036 27.294 579.656 C 28.803 582.266 30.406 584.276 32.097 585.676 C 33.862 587.146 35.907 587.896 38.228 587.936 C 40.546 587.976 42.628 587.146 44.468 585.456 C 46.454 583.606 47.43 581.426 47.394 578.876 C 47.358 576.336 46.531 574.186 44.91 572.416 C 43.215 570.726 41.302 569.916 39.167 569.986 C 37.03 570.066 35.335 570.726 34.085 571.976 C 33.348 572.866 32.945 573.896 32.871 575.066 C 32.798 576.246 33.093 577.166 33.755 577.826 C 34.568 578.646 35.556 579.046 36.737 579.046 C 37.915 579.046 38.798 578.756 39.39 578.156 C 39.903 577.646 40.252 577.076 40.436 576.446 C 40.62 575.826 40.378 575.326 39.719 574.956 C 38.982 574.516 38.17 574.596 37.291 575.176 C 36.92 575.546 36.477 575.806 35.965 575.956 C 35.45 576.096 35.117 575.956 34.97 575.506 C 34.674 574.626 34.822 573.856 35.413 573.196 C 35.999 572.526 36.771 572.086 37.733 571.866 C 38.686 571.646 39.717 571.686 40.826 571.976 C 41.927 572.266 42.884 572.896 43.696 573.856 C 44.431 574.736 44.965 575.746 45.298 576.896 C 45.628 578.026 45.699 579.136 45.517 580.206 C 45.334 581.276 44.872 582.286 44.139 583.246 C 43.4 584.206 42.368 584.976 41.046 585.566 C 40.819 585.486 40.695 585.286 40.66 584.956 C 40.62 584.626 40.566 584.236 40.493 583.796 C 40.42 583.356 40.289 582.896 40.104 582.416 C 39.922 581.936 39.535 581.546 38.947 581.256 C 38.205 580.816 37.472 580.666 36.739 580.816 C 36.004 580.956 35.284 581.126 34.585 581.306 C 33.881 581.496 33.186 581.606 32.487 581.646 C 31.782 581.676 31.104 581.366 30.441 580.706 C 29.041 579.306 28.03 577.706 27.406 575.896 C 26.778 574.096 26.354 572.276 26.138 570.426 C 28.563 570.506 30.843 570.096 32.983 569.216 C 35.115 568.336 36.994 567.116 38.618 565.566 C 40.234 564.026 41.559 562.296 42.592 560.386 C 43.622 558.466 44.21 556.476 44.358 554.416 C 45.535 554.856 46.107 555.876 46.069 557.456 C 46.035 559.036 45.83 560.526 45.463 561.926 C 44.727 565.316 45.204 567.856 46.898 569.546 C 47.485 570.136 48.316 570.556 49.384 570.816 C 50.449 571.076 51.02 570.656 51.092 569.546 C 51.169 569.036 51.185 568.496 51.147 567.946 C 51.111 567.396 51.238 566.896 51.537 566.456 C 51.976 565.716 52.675 565.346 53.634 565.346 C 54.59 565.346 55.327 565.606 55.844 566.126 C 56.285 566.566 56.615 567.046 56.838 567.556 C 57.056 568.076 56.873 568.556 56.286 568.996 C 55.917 569.216 55.51 569.286 55.07 569.216 C 54.629 569.146 54.297 569.356 54.078 569.876 C 53.851 570.396 53.835 570.896 54.02 571.376 C 54.202 571.846 54.479 572.266 54.851 572.646 C 55.51 573.156 56.083 573.326 56.56 573.136 C 57.038 572.956 57.573 572.566 58.163 571.976 C 58.973 571.166 59.414 569.996 59.49 568.446 C 59.561 566.896 59.119 565.566 58.161 564.466 C 57.133 563.436 55.897 562.936 54.465 562.976 C 53.027 563.016 51.683 563.216 50.432 563.586 C 50.134 563.576 49.858 563.416 49.603 563.086 C 49.344 562.756 49.144 562.366 48.997 561.926 C 48.92 560.826 48.865 559.916 48.829 559.216 C 48.794 558.516 48.738 557.616 48.665 556.516 C 48.516 555.186 47.911 553.956 46.844 552.816 C 45.775 551.676 44.761 550.996 43.806 550.776 C 43.583 549.816 42.901 548.796 41.763 547.736 C 40.623 546.666 39.386 546.056 38.064 545.916 C 36.959 545.836 36.056 545.776 35.356 545.746 C 34.655 545.706 33.753 545.656 32.652 545.586 C 32.208 545.436 31.822 545.236 31.491 544.976 C 31.157 544.716 30.995 544.446 30.995 544.146 C 31.362 542.896 31.565 541.546 31.602 540.116 C 31.637 538.676 31.138 537.446 30.109 536.416 C 29.006 535.456 27.681 535.016 26.133 535.086 C 24.586 535.166 23.413 535.606 22.603 536.416 C 22.013 537.006 21.625 537.536 21.441 538.016 C 21.255 538.496 21.421 539.066 21.938 539.726 C 22.305 540.096 22.726 540.376 23.207 540.556 C 23.686 540.746 24.18 540.726 24.699 540.496 C 25.216 540.276 25.435 539.946 25.363 539.506 C 25.284 539.066 25.359 538.656 25.582 538.296 C 26.022 537.706 26.5 537.516 27.018 537.736 C 27.533 537.956 28.012 538.296 28.455 538.736 C 28.97 539.246 29.226 539.986 29.224 540.946 C 29.227 541.896 28.859 542.596 28.124 543.036 C 27.679 543.336 27.18 543.466 26.629 543.426 C 26.078 543.386 25.544 543.406 25.03 543.486 C 23.926 543.556 23.501 544.126 23.761 545.196 C 24.016 546.256 24.441 547.086 25.031 547.676 C 26.723 549.366 29.264 549.846 32.65 549.116 C 34.051 548.746 35.541 548.546 37.123 548.506 C 38.706 548.476 39.717 549.036 40.16 550.216 C 38.098 550.366 36.11 550.956 34.196 551.986 C 32.281 553.026 30.55 554.346 29.008 555.966 C 27.457 557.576 26.244 559.466 25.361 561.596 C 24.478 563.736 24.073 566.016 24.147 568.436 C 22.304 568.226 20.481 567.796 18.679 567.176 C 16.874 566.546 15.273 565.536 13.874 564.136 C 13.213 563.476 12.896 562.796 12.937 562.096 C 12.974 561.396 13.081 560.696 13.269 559.996 C 13.453 559.296 13.617 558.576 13.768 557.836 C 13.914 557.106 13.762 556.366 13.324 555.626 C 13.032 555.046 12.642 554.656 12.163 554.476 C 11.684 554.286 11.225 554.156 10.783 554.086 C 10.339 554.006 9.954 553.956 9.624 553.916 C 9.29 553.886 9.086 553.756 9.017 553.536 C 9.601 552.206 10.377 551.176 11.334 550.446 C 12.292 549.706 13.305 549.246 14.371 549.056 C 15.439 548.876 16.544 548.946 17.686 549.276 C 18.825 549.606 19.838 550.146 20.724 550.886 C 21.68 551.696 22.305 552.646 22.6 553.756 C 22.893 554.856 22.929 555.886 22.711 556.846 C 22.489 557.806 22.048 558.576 21.387 559.166 C 20.722 559.756 19.948 559.906 19.067 559.606 C 18.624 559.466 18.476 559.126 18.625 558.616 C 18.771 558.096 19.029 557.656 19.399 557.286 C 19.983 556.406 20.059 555.596 19.617 554.856 C 19.25 554.196 18.752 553.956 18.125 554.136 C 17.502 554.326 16.931 554.676 16.418 555.186 C 15.826 555.776 15.528 556.656 15.533 557.836 C 15.53 559.016 15.938 560.006 16.748 560.816 C 17.412 561.486 18.331 561.776 19.507 561.706 C 20.686 561.636 21.713 561.226 22.601 560.486 C 23.852 559.236 24.514 557.546 24.59 555.416 C 24.659 553.276 23.853 551.366 22.158 549.666 C 20.389 548.046 18.235 547.216 15.698 547.186 C 13.155 547.146 10.967 548.116 9.123 550.106 C 7.435 551.946 6.604 554.026 6.641 556.346 C 6.675 558.666 7.432 560.716 8.907 562.476 C 10.303 564.176 12.31 565.776 14.925 567.286 C 17.539 568.796 20.207 569.736 22.931 570.106 C 21.089 572.086 19.027 573.456 16.746 574.186 C 14.467 574.926 12.108 574.736 9.68 573.636 C 8.94 573.196 8.536 572.526 8.463 571.646 C 8.389 570.766 8.606 570.216 9.126 569.986 C 10.008 569.696 11.117 569.546 12.44 569.546 C 12.734 569.546 12.826 569.346 12.718 568.936 C 12.603 568.526 12.328 568.186 11.888 567.886 C 10.632 567.076 9.235 566.566 7.69 566.346 C 6.143 566.126 5.041 566.566 4.376 567.666 L 6.476 569.766 C 5.295 570.506 3.973 570.286 2.502 569.106 C 2.054 569.846 1.907 570.876 2.056 572.196 Z" fill="#414042" stroke="none"/><path d="M 366.44 24.836 C 359.519 24.286 353.744 21.146 352.361 18.566 C 352.267 18.386 352.082 18.276 351.881 18.276 C 351.68 18.276 351.497 18.396 351.405 18.566 C 350.424 20.436 349.24 22.466 347.88 23.396 C 346.84 24.106 346.18 24.466 345.38 24.656 C 345.067 23.666 344.153 22.936 343.059 22.936 C 341.898 22.936 340.929 23.746 340.682 24.836 L 339.328 24.836 C 337.685 24.056 335.73 21.746 334.994 18.266 C 334.942 18.026 334.719 17.836 334.464 17.836 C 334.206 17.836 333.986 18.026 333.933 18.266 C 333.36 20.986 332.042 22.976 330.708 24.096 L 220.359 24.096 C 218.496 23.356 216.69 22.346 215.893 18.566 C 215.842 18.316 215.625 18.146 215.374 18.136 C 215.123 18.146 214.906 18.316 214.855 18.566 C 214.058 22.346 212.252 23.356 210.389 24.096 L 101.041 24.096 C 99.707 22.976 98.388 20.986 97.815 18.266 C 97.762 18.026 97.542 17.836 97.284 17.836 C 97.029 17.836 96.807 18.026 96.754 18.266 C 96.019 21.746 94.063 24.056 92.42 24.836 L 91.066 24.836 C 90.819 23.746 89.85 22.936 88.689 22.936 C 87.595 22.936 86.681 23.666 86.369 24.656 C 85.568 24.466 84.908 24.106 83.868 23.396 C 82.508 22.466 81.324 20.436 80.343 18.566 C 80.251 18.396 80.068 18.276 79.867 18.276 C 79.666 18.276 79.482 18.386 79.387 18.566 C 78.004 21.146 72.229 24.286 65.309 24.836 C 65.028 24.856 64.812 25.096 64.812 25.376 C 64.812 25.656 65.028 25.896 65.309 25.916 C 72.229 26.476 78.004 29.606 79.387 32.196 C 79.482 32.366 79.666 32.476 79.867 32.476 C 80.068 32.476 80.251 32.366 80.343 32.186 C 81.324 30.316 82.508 28.286 83.868 27.366 C 84.908 26.656 85.568 26.286 86.369 26.106 C 86.681 27.096 87.595 27.826 88.689 27.826 C 89.85 27.826 90.819 27.006 91.066 25.926 L 92.42 25.926 C 94.063 26.706 96.019 29.006 96.754 32.486 C 96.807 32.736 97.029 32.916 97.284 32.916 C 97.542 32.916 97.762 32.736 97.815 32.486 C 98.388 29.776 99.706 27.786 101.04 26.666 L 210.39 26.666 C 212.252 27.406 214.058 28.416 214.855 32.196 C 214.906 32.436 215.123 32.616 215.374 32.616 C 215.625 32.616 215.842 32.436 215.893 32.196 C 216.69 28.416 218.496 27.406 220.359 26.666 L 330.708 26.666 C 332.042 27.786 333.361 29.776 333.933 32.486 C 333.986 32.736 334.206 32.916 334.464 32.916 C 334.719 32.916 334.942 32.736 334.994 32.486 C 335.73 29.006 337.685 26.706 339.328 25.926 L 340.682 25.926 C 340.929 27.006 341.898 27.826 343.059 27.826 C 344.153 27.826 345.067 27.096 345.38 26.106 C 346.18 26.286 346.84 26.656 347.88 27.366 C 349.24 28.286 350.424 30.316 351.405 32.186 C 351.497 32.366 351.68 32.476 351.881 32.476 C 352.082 32.476 352.267 32.366 352.361 32.196 C 353.744 29.606 359.519 26.476 366.44 25.916 C 366.72 25.896 366.936 25.656 366.936 25.376 C 366.936 25.096 366.72 24.856 366.44 24.836 Z" fill="#414042" stroke="none"/><path d="M 366.44 568.096 C 359.519 567.546 353.744 564.416 352.361 561.826 C 352.267 561.656 352.082 561.536 351.881 561.546 C 351.68 561.546 351.497 561.656 351.405 561.836 C 350.424 563.696 349.24 565.736 347.88 566.656 C 346.84 567.366 346.18 567.736 345.38 567.916 C 345.067 566.926 344.153 566.196 343.059 566.196 C 341.898 566.196 340.929 567.016 340.682 568.096 L 339.328 568.096 C 337.685 567.316 335.73 565.006 334.994 561.536 C 334.942 561.286 334.719 561.106 334.464 561.106 C 334.206 561.106 333.986 561.286 333.933 561.536 C 333.36 564.246 332.042 566.236 330.708 567.356 L 220.359 567.356 C 218.496 566.616 216.69 565.606 215.893 561.826 C 215.842 561.586 215.625 561.406 215.374 561.396 C 215.123 561.406 214.906 561.586 214.855 561.826 C 214.058 565.606 212.252 566.616 210.39 567.356 L 101.04 567.356 C 99.706 566.236 98.388 564.246 97.815 561.536 C 97.762 561.286 97.542 561.106 97.284 561.106 C 97.029 561.106 96.807 561.286 96.754 561.536 C 96.019 565.006 94.063 567.316 92.42 568.096 L 91.066 568.096 C 90.819 567.016 89.85 566.196 88.689 566.196 C 87.595 566.196 86.681 566.926 86.369 567.916 C 85.568 567.736 84.908 567.366 83.868 566.656 C 82.508 565.736 81.324 563.696 80.343 561.836 C 80.251 561.656 80.068 561.546 79.867 561.546 C 79.666 561.536 79.482 561.656 79.387 561.826 C 78.004 564.416 72.229 567.546 65.309 568.096 C 65.028 568.126 64.812 568.356 64.812 568.646 C 64.812 568.926 65.028 569.156 65.309 569.186 C 72.229 569.736 78.004 572.866 79.387 575.456 C 79.482 575.626 79.666 575.746 79.867 575.746 C 80.068 575.736 80.251 575.626 80.343 575.446 C 81.324 573.586 82.508 571.546 83.868 570.626 C 84.908 569.916 85.568 569.556 86.369 569.366 C 86.681 570.356 87.595 571.086 88.689 571.086 C 89.85 571.086 90.819 570.266 91.066 569.186 L 92.42 569.186 C 94.063 569.966 96.019 572.276 96.754 575.746 C 96.807 575.996 97.029 576.176 97.284 576.176 C 97.542 576.176 97.762 575.996 97.815 575.746 C 98.388 573.036 99.706 571.046 101.04 569.926 L 210.389 569.926 C 212.252 570.666 214.058 571.676 214.855 575.456 C 214.906 575.696 215.123 575.876 215.374 575.886 C 215.625 575.876 215.842 575.696 215.893 575.456 C 216.69 571.676 218.496 570.666 220.359 569.926 L 330.708 569.926 C 332.042 571.046 333.36 573.036 333.933 575.746 C 333.986 575.996 334.206 576.176 334.464 576.176 C 334.719 576.176 334.942 575.996 334.994 575.746 C 335.73 572.276 337.685 569.966 339.328 569.186 L 340.682 569.186 C 340.929 570.266 341.898 571.086 343.059 571.086 C 344.153 571.086 345.067 570.356 345.38 569.366 C 346.18 569.556 346.84 569.916 347.88 570.626 C 349.24 571.546 350.424 573.586 351.405 575.446 C 351.497 575.626 351.68 575.736 351.881 575.746 C 352.082 575.746 352.267 575.626 352.361 575.456 C 353.744 572.866 359.519 569.736 366.44 569.186 C 366.72 569.156 366.936 568.926 366.936 568.646 C 366.936 568.356 366.72 568.126 366.44 568.096 Z" fill="#414042" stroke="none"/>
</svg>
