<?xml version="1.0" encoding="UTF-8"?>
<svg xmlns="http://www.w3.org/2000/svg" width="444.192" height="607.465" viewBox="0 0 444.192 607.465">
  <path d="M 368.501 585.512 L 75.689 585.512 L 75.689 584.482 L 368.501 584.482 L 368.501 585.512 Z" fill="#414042" stroke="none"/><path d="M 421.753 532.192 L 420.728 532.192 L 420.728 75.012 L 421.753 75.012 L 421.753 532.192 Z" fill="#414042" stroke="none"/><path d="M 369.248 23.172 L 75.028 23.172 L 75.028 22.142 L 369.248 22.142 L 369.248 23.172 Z" fill="#414042" stroke="none"/><path d="M 23.463 531.972 L 22.438 531.972 L 22.438 75.192 L 23.463 75.192 L 23.463 531.972 Z" fill="#414042" stroke="none"/><path d="M 84.396 49.852 C 82.721 48.882 81.005 47.842 79.166 46.682 C 77.305 45.482 75.456 44.252 73.673 43.022 C 71.739 41.682 69.971 40.662 68.255 39.912 C 68.838 39.522 69.464 39.192 70.12 38.922 C 71.974 38.162 74.046 37.892 76.12 38.142 C 78.348 38.422 80.269 39.232 81.673 40.492 C 82.377 41.132 83.01 42.002 83.551 43.072 C 84.057 44.082 84.393 45.152 84.551 46.262 C 84.727 47.442 84.674 48.672 84.396 49.852 Z M 83.179 52.692 C 82.718 53.402 82.15 54.062 81.491 54.652 C 81.206 54.452 80.917 54.262 80.624 54.082 C 78.728 52.952 76.752 51.962 74.574 51.072 C 72.378 50.242 70.22 49.672 68.16 49.362 C 66.851 49.152 65.478 49.032 64.076 48.992 C 63.914 47.962 63.924 46.972 64.105 46.022 C 64.301 44.982 64.721 43.922 65.32 42.952 C 65.638 42.432 66.008 41.942 66.42 41.492 C 66.653 41.572 66.885 41.652 67.116 41.742 C 69.051 42.502 70.947 43.482 72.753 44.652 C 74.713 45.872 76.567 46.992 78.421 48.072 C 79.931 48.972 81.908 50.122 83.949 51.232 C 83.736 51.752 83.477 52.242 83.179 52.692 Z M 82.997 58.892 C 83.186 59.372 83.241 59.842 83.154 60.252 C 83.11 60.472 83.028 60.682 82.936 60.792 C 82.843 60.922 82.679 61.062 82.478 61.182 C 82.096 61.412 81.636 61.582 81.111 61.702 C 80.185 61.902 79.138 61.932 78.036 61.802 C 76.23 61.572 74.43 60.942 72.671 59.902 C 74.831 59.442 76.859 58.752 78.703 57.872 C 79.587 57.452 80.399 56.982 81.122 56.472 C 81.535 56.842 81.889 57.202 82.197 57.582 C 82.57 58.042 82.831 58.462 82.997 58.892 Z M 71.099 58.902 C 69.624 57.882 68.295 56.662 67.148 55.282 C 65.871 53.722 64.965 52.132 64.454 50.552 L 64.542 50.552 C 65.718 50.552 66.876 50.622 67.979 50.752 C 70.153 51.032 72.221 51.562 74.124 52.342 C 75.06 52.722 76.013 53.172 77.034 53.732 C 78.104 54.312 79.011 54.862 79.807 55.432 C 79.92 55.512 80.033 55.592 80.144 55.672 C 79.609 56.022 79.001 56.362 78.225 56.732 C 76.328 57.632 74.258 58.302 72.069 58.732 C 71.747 58.792 71.423 58.852 71.099 58.902 Z M 65.662 59.222 C 63.363 59.122 61.168 58.712 59.135 58.002 C 58.434 56.172 57.513 54.462 56.359 52.932 C 56.037 52.502 55.691 52.082 55.332 51.672 C 58.192 51.042 60.761 50.682 63.174 50.582 C 63.706 52.462 64.726 54.332 66.207 56.142 C 67.101 57.232 68.116 58.242 69.231 59.142 C 68.034 59.252 66.844 59.282 65.662 59.222 Z M 60.045 72.672 C 61.08 74.432 61.717 76.232 61.946 78.042 C 62.078 79.142 62.04 80.192 61.84 81.112 C 61.722 81.642 61.548 82.102 61.323 82.482 C 61.201 82.682 61.064 82.842 60.936 82.942 C 60.817 83.032 60.611 83.112 60.394 83.152 C 59.983 83.242 59.513 83.192 59.031 83.002 C 58.607 82.832 58.179 82.572 57.721 82.202 C 57.344 81.892 56.978 81.542 56.61 81.122 C 57.123 80.402 57.593 79.592 58.008 78.702 C 58.892 76.862 59.578 74.832 60.045 72.672 Z M 55.816 80.152 C 55.733 80.032 55.651 79.922 55.571 79.812 C 55.007 79.012 54.451 78.102 53.87 77.042 C 53.315 76.012 52.86 75.062 52.478 74.132 C 51.705 72.222 51.169 70.152 50.889 67.982 C 50.758 66.882 50.692 65.722 50.692 64.542 L 50.692 64.452 C 52.271 64.972 53.859 65.872 55.419 67.152 C 56.798 68.302 58.018 69.632 59.043 71.102 C 58.991 71.422 58.933 71.752 58.869 72.072 C 58.444 74.262 57.773 76.332 56.875 78.232 C 56.5 79.002 56.165 79.612 55.816 80.152 Z M 52.833 83.182 C 52.38 83.482 51.892 83.742 51.376 83.952 C 50.267 81.912 49.11 79.932 48.216 78.422 C 47.134 76.572 46.015 74.712 44.79 72.752 C 43.623 70.952 42.645 69.052 41.886 67.122 C 41.797 66.892 41.709 66.652 41.627 66.422 C 42.08 66.012 42.571 65.642 43.091 65.322 C 44.06 64.722 45.123 64.302 46.165 64.112 C 47.11 63.932 48.106 63.922 49.129 64.082 C 49.17 65.482 49.296 66.852 49.501 68.162 C 49.812 70.222 50.386 72.382 51.21 74.582 C 52.107 76.752 53.09 78.732 54.223 80.632 C 54.404 80.922 54.592 81.212 54.789 81.492 C 54.201 82.152 53.545 82.722 52.833 83.182 Z M 46.404 84.552 C 45.296 84.392 44.223 84.062 43.211 83.552 C 42.139 83.012 41.269 82.382 40.631 81.672 C 39.372 80.272 38.56 78.352 38.286 76.122 C 38.036 74.052 38.306 71.972 39.062 70.122 C 39.329 69.472 39.66 68.842 40.05 68.262 C 40.798 69.972 41.818 71.742 43.164 73.672 C 44.39 75.462 45.622 77.312 46.824 79.172 C 47.986 81.012 49.023 82.722 49.989 84.402 C 48.815 84.682 47.583 84.732 46.404 84.552 Z M 40.691 56.202 C 41.391 55.972 42.095 55.742 42.778 55.502 L 49.037 53.392 C 49.254 53.332 49.472 53.262 49.688 53.192 C 49.824 53.362 49.976 53.522 50.125 53.682 C 50.038 54.122 49.942 54.562 49.866 54.992 C 49.371 57.822 49.124 60.392 49.115 62.842 C 48.027 62.702 46.928 62.732 45.914 62.922 C 44.686 63.162 43.499 63.632 42.383 64.332 C 41.98 64.582 41.59 64.862 41.219 65.162 C 40.827 63.822 40.57 62.472 40.456 61.162 C 40.395 60.582 40.366 60.002 40.366 59.422 C 40.366 58.332 40.475 57.252 40.691 56.202 Z M 42.185 52.372 C 42.782 51.422 43.492 50.662 44.298 50.102 C 45.216 49.452 46.236 49.062 47.248 48.952 C 47.394 48.932 47.543 48.932 47.691 48.932 C 47.796 49.582 47.984 50.222 48.253 50.842 C 48.308 50.972 48.366 51.102 48.426 51.222 C 46.485 51.752 44.424 52.382 42.14 53.142 L 41.698 53.282 C 41.852 52.972 42.003 52.662 42.185 52.372 Z M 48.947 47.102 C 49.056 46.092 49.454 45.072 50.098 44.162 C 50.658 43.352 51.423 42.642 52.373 42.042 C 52.73 41.812 53.116 41.622 53.512 41.432 L 53.285 42.142 C 52.523 44.422 51.893 46.492 51.362 48.432 C 51.238 48.372 51.111 48.312 50.982 48.252 C 50.316 47.962 49.623 47.782 48.925 47.682 C 48.926 47.492 48.927 47.292 48.947 47.102 Z M 53.683 55.102 C 53.201 54.722 52.686 54.292 52.174 53.822 C 52.293 53.352 52.423 52.852 52.558 52.362 C 52.984 52.252 53.41 52.132 53.824 52.032 C 54.344 52.592 54.83 53.162 55.245 53.682 C 56.089 54.792 56.8 56.012 57.393 57.302 C 56.068 56.702 54.821 55.972 53.683 55.102 Z M 49.747 50.872 C 49.639 50.672 49.539 50.462 49.45 50.252 C 49.282 49.862 49.165 49.452 49.075 49.052 C 49.519 49.142 49.962 49.272 50.392 49.452 C 50.6 49.542 50.808 49.642 51.013 49.752 C 50.936 50.052 50.877 50.332 50.806 50.622 C 50.451 50.702 50.11 50.782 49.747 50.872 Z M 51.816 55.312 C 52.179 55.622 52.546 55.932 52.926 56.222 C 54.488 57.392 56.233 58.332 58.104 59.032 C 58.834 61.102 59.264 63.322 59.364 65.662 C 59.418 66.852 59.389 68.032 59.279 69.232 C 58.378 68.122 57.373 67.102 56.286 66.212 C 54.475 64.732 52.604 63.712 50.721 63.182 C 50.82 60.762 51.179 58.182 51.816 55.312 Z M 55.642 42.782 C 55.899 42.042 56.151 41.282 56.402 40.512 C 57.385 40.322 58.395 40.222 59.423 40.222 C 59.994 40.222 60.577 40.252 61.159 40.312 C 62.474 40.432 63.818 40.682 65.16 41.082 C 64.857 41.452 64.58 41.842 64.331 42.242 C 63.631 43.362 63.158 44.542 62.923 45.772 C 62.725 46.792 62.698 47.892 62.84 48.972 C 60.388 48.982 57.817 49.232 54.988 49.722 C 54.553 49.802 54.107 49.902 53.668 49.992 C 53.556 49.892 53.445 49.782 53.331 49.692 C 53.4 49.472 53.468 49.262 53.538 49.042 L 55.642 42.782 Z M 85.661 46.082 C 85.488 44.842 85.114 43.642 84.548 42.502 C 83.925 41.262 83.227 40.302 82.412 39.562 C 80.825 38.132 78.755 37.242 76.26 36.922 C 74.009 36.642 71.752 36.922 69.709 37.752 C 68.703 38.152 67.759 38.692 66.903 39.372 C 64.998 38.672 63.13 38.232 61.346 38.072 C 59.843 37.972 58.436 38.052 57.114 38.292 C 57.831 35.992 58.477 33.202 59.22 31.012 C 60.629 26.842 63.312 22.382 67.602 20.712 C 69.414 20.012 72.013 19.562 73.61 20.972 C 75.206 22.362 75.281 24.852 74.555 26.702 C 73.844 28.512 72.209 30.512 70.167 30.812 C 69.822 30.862 69.471 30.862 69.183 30.712 C 69.685 30.752 70.253 30.552 70.706 30.122 C 71.463 29.412 71.62 28.342 71.05 27.742 C 70.482 27.142 69.411 27.222 68.653 27.942 C 67.856 28.692 67.475 30.562 68.786 31.322 C 69.577 31.772 70.656 31.532 71.442 31.192 C 73.313 30.372 74.758 28.612 75.491 26.742 C 76.235 24.842 76.391 22.462 75.393 20.622 C 74.591 19.142 73.261 18.122 71.704 17.562 C 67.687 16.102 63.717 18.462 61.477 21.782 C 60.598 23.082 59.949 24.512 59.424 25.992 C 59.521 22.692 59.111 19.382 58.192 16.252 C 57.505 13.952 56.561 11.852 55.386 9.992 C 54.057 7.902 52.463 6.152 50.646 4.812 C 48.589 3.292 46.231 2.342 43.829 2.082 C 42.633 1.942 41.354 1.982 40.03 2.192 C 38.762 2.402 37.538 2.822 36.392 3.452 C 34.367 4.572 32.655 6.282 31.304 8.522 C 30.186 10.382 29.393 12.492 28.943 14.792 C 28.537 16.882 28.431 19.072 28.623 21.272 C 28.82 23.502 29.34 25.622 30.17 27.562 C 31.106 29.742 32.37 31.602 33.927 33.102 C 35.255 34.372 37.453 35.972 40.374 36.342 C 41.728 36.512 43.063 36.392 44.237 36.002 C 45.405 35.612 46.523 34.932 47.469 34.032 C 49.096 32.492 50.244 30.442 50.875 27.952 C 51.413 25.822 51.508 23.522 51.155 21.232 C 50.782 18.862 49.973 16.742 48.752 14.912 C 48.053 13.872 47.244 13.002 46.346 12.312 C 45.28 11.492 44.081 10.972 42.882 10.802 C 41.597 10.612 40.209 10.812 38.976 11.382 C 37.847 11.902 36.835 12.782 36.127 13.872 C 35.528 14.782 35.097 15.842 34.808 17.092 C 34.598 18.052 34.496 19.032 34.496 20.122 L 34.498 20.422 C 34.529 21.682 34.671 22.732 34.942 23.712 C 35.258 24.872 35.781 25.912 36.495 26.792 C 37.081 27.522 38.1 28.472 39.619 28.882 C 40.245 29.062 40.989 29.112 41.656 29.042 C 42.379 28.942 43.043 28.692 43.633 28.292 C 44.649 27.582 45.371 26.532 45.774 25.152 C 45.863 24.822 45.92 24.522 45.952 24.232 C 45.996 23.892 46.016 23.622 46.016 23.372 L 46.015 23.302 C 46.015 23.302 46.015 23.302 46.015 23.302 C 46.015 22.982 45.99 22.682 45.963 22.382 C 45.942 22.212 45.921 22.052 45.888 21.892 L 45.812 21.472 C 45.706 20.832 45.048 20.402 44.346 20.522 C 43.652 20.632 43.169 21.252 43.276 21.892 C 43.303 22.042 43.363 22.192 43.447 22.312 L 43.497 22.392 C 43.553 22.472 43.614 22.562 43.647 22.622 C 43.718 22.732 43.769 22.822 43.816 22.922 C 43.916 23.102 43.991 23.302 44.065 23.562 C 44.207 24.012 44.253 24.472 44.208 24.922 C 44.156 25.902 43.654 26.812 42.897 27.322 C 42.504 27.592 42.021 27.772 41.536 27.822 C 40.969 27.882 40.479 27.842 40 27.712 C 39.079 27.462 38.202 26.872 37.528 26.052 C 36.924 25.302 36.474 24.412 36.189 23.392 C 35.949 22.522 35.815 21.542 35.779 20.372 L 35.776 20.082 C 35.776 19.082 35.868 18.172 36.057 17.322 C 36.3 16.232 36.686 15.272 37.205 14.482 C 37.801 13.562 38.602 12.862 39.52 12.442 C 40.518 11.982 41.636 11.812 42.669 11.972 C 43.657 12.112 44.654 12.552 45.555 13.232 C 46.343 13.832 47.066 14.612 47.705 15.552 C 48.836 17.242 49.591 19.212 49.944 21.412 C 50.277 23.542 50.196 25.702 49.7 27.702 C 49.117 29.992 48.081 31.862 46.623 33.242 C 45.804 34.012 44.845 34.592 43.847 34.922 C 42.856 35.252 41.717 35.352 40.551 35.202 C 38.536 34.952 36.502 33.912 34.828 32.282 C 33.378 30.882 32.207 29.142 31.345 27.112 C 30.564 25.272 30.079 23.262 29.905 21.152 C 29.723 19.072 29.834 16.982 30.225 14.982 C 30.659 12.812 31.409 10.832 32.455 9.102 C 33.674 7.102 35.266 5.512 37.057 4.542 C 38.033 4.002 39.126 3.622 40.218 3.452 C 41.343 3.272 42.489 3.262 43.624 3.402 C 45.756 3.672 47.844 4.552 49.663 5.962 C 51.269 7.182 52.677 8.822 53.851 10.832 C 54.88 12.602 55.683 14.592 56.238 16.752 C 56.757 18.782 57.056 20.912 57.124 23.082 C 57.172 25.162 57.032 27.312 56.696 29.492 C 56.197 32.722 55.248 35.942 54.253 39.102 C 52.613 39.762 50.496 41.002 48.961 43.272 C 48.206 44.392 47.746 45.682 47.631 46.972 C 47.608 47.182 47.61 47.402 47.607 47.612 C 47.441 47.622 47.273 47.612 47.108 47.632 C 45.818 47.752 44.538 48.212 43.409 48.962 C 41.238 50.432 40.008 52.432 39.323 54.042 C 36.098 55.062 32.796 56.042 29.485 56.552 C 27.31 56.892 25.16 57.032 23.083 56.982 C 20.904 56.912 18.774 56.612 16.752 56.102 C 14.591 55.542 12.597 54.742 10.827 53.712 C 8.815 52.542 7.177 51.132 5.956 49.522 C 4.553 47.702 3.669 45.612 3.401 43.482 C 3.255 42.352 3.271 41.202 3.448 40.082 C 3.621 38.982 3.996 37.892 4.534 36.912 C 5.514 35.122 7.094 33.532 9.103 32.312 C 10.832 31.272 12.809 30.522 14.98 30.082 C 16.98 29.692 19.068 29.582 21.146 29.762 C 23.261 29.942 25.266 30.422 27.105 31.202 C 29.14 32.062 30.88 33.242 32.279 34.692 C 33.907 36.362 34.946 38.392 35.204 40.412 C 35.348 41.572 35.25 42.712 34.919 43.702 C 34.591 44.702 34.009 45.662 33.234 46.482 C 31.857 47.942 29.994 48.972 27.698 49.562 C 25.7 50.052 23.538 50.132 21.414 49.802 C 19.209 49.452 17.236 48.692 15.55 47.562 C 14.612 46.922 13.832 46.202 13.231 45.412 C 12.544 44.512 12.107 43.512 11.965 42.532 C 11.81 41.492 11.977 40.382 12.437 39.382 C 12.856 38.462 13.562 37.662 14.481 37.062 C 15.271 36.542 16.226 36.162 17.317 35.912 C 18.171 35.732 19.075 35.632 20.078 35.632 L 20.371 35.642 C 21.537 35.672 22.522 35.812 23.384 36.052 C 24.407 36.332 25.302 36.782 26.044 37.392 C 26.871 38.062 27.46 38.942 27.705 39.862 C 27.839 40.342 27.876 40.832 27.821 41.392 C 27.765 41.882 27.588 42.362 27.322 42.752 C 26.811 43.512 25.896 44.012 24.92 44.072 C 24.464 44.112 24.01 44.062 23.56 43.922 C 23.296 43.852 23.103 43.772 22.92 43.672 C 22.822 43.632 22.73 43.582 22.622 43.512 C 22.56 43.472 22.469 43.412 22.387 43.352 L 22.313 43.312 C 22.186 43.222 22.042 43.162 21.889 43.132 C 21.245 43.032 20.631 43.512 20.517 44.202 C 20.403 44.912 20.83 45.562 21.464 45.672 L 21.884 45.752 C 22.052 45.782 22.212 45.802 22.378 45.822 C 22.678 45.852 22.981 45.872 23.299 45.872 C 23.3 45.872 23.3 45.872 23.3 45.872 L 23.374 45.872 C 23.623 45.872 23.888 45.852 24.229 45.812 C 24.523 45.782 24.822 45.722 25.153 45.632 C 26.525 45.232 27.579 44.512 28.286 43.492 C 28.69 42.902 28.942 42.242 29.034 41.512 C 29.114 40.852 29.058 40.102 28.88 39.482 C 28.467 37.962 27.516 36.942 26.791 36.352 C 25.909 35.642 24.872 35.122 23.711 34.802 C 22.729 34.532 21.683 34.392 20.417 34.362 L 20.119 34.352 C 19.034 34.352 18.044 34.462 17.092 34.672 C 15.834 34.952 14.781 35.392 13.872 35.982 C 12.781 36.692 11.895 37.712 11.375 38.832 C 10.81 40.072 10.604 41.452 10.797 42.742 C 10.971 43.942 11.494 45.142 12.308 46.202 C 12.995 47.102 13.869 47.912 14.908 48.612 C 16.737 49.832 18.863 50.642 21.229 51.012 C 23.516 51.372 25.819 51.272 27.95 50.732 C 30.439 50.102 32.485 48.952 34.031 47.332 C 34.928 46.382 35.607 45.262 35.995 44.092 C 36.386 42.922 36.504 41.592 36.339 40.232 C 35.972 37.312 34.372 35.112 33.095 33.782 C 31.599 32.232 29.735 30.962 27.556 30.032 C 25.619 29.202 23.502 28.682 21.265 28.482 C 19.07 28.292 16.877 28.392 14.785 28.802 C 12.488 29.252 10.378 30.042 8.515 31.162 C 6.276 32.512 4.573 34.222 3.45 36.252 C 2.818 37.402 2.395 38.622 2.192 39.892 C 1.98 41.212 1.943 42.492 2.082 43.692 C 2.342 46.092 3.284 48.452 4.806 50.502 C 6.153 52.322 7.894 53.922 9.984 55.242 C 11.845 56.422 13.951 57.362 16.246 58.052 C 19.394 58.972 22.729 59.392 26.048 59.282 C 24.615 59.802 23.234 60.432 21.967 61.292 C 18.646 63.532 16.29 67.502 17.746 71.522 C 18.308 73.072 19.331 74.402 20.806 75.212 C 22.646 76.202 25.029 76.052 26.926 75.302 C 28.796 74.572 30.559 73.132 31.376 71.262 C 31.719 70.472 31.961 69.392 31.507 68.602 C 30.752 67.292 28.874 67.672 28.123 68.472 C 27.411 69.222 27.323 70.302 27.927 70.862 C 28.531 71.432 29.598 71.282 30.309 70.522 C 30.736 70.072 30.934 69.502 30.898 69.002 C 31.045 69.282 31.045 69.642 30.994 69.982 C 30.693 72.022 28.703 73.662 26.886 74.372 C 25.033 75.092 22.552 75.022 21.152 73.422 C 19.748 71.832 20.192 69.232 20.898 67.422 C 22.566 63.122 27.028 60.442 31.194 59.032 C 33.387 58.292 36.165 57.652 38.464 56.932 C 38.202 58.312 38.105 59.772 38.216 61.352 C 38.375 63.132 38.81 65.002 39.509 66.902 C 38.835 67.762 38.29 68.702 37.888 69.712 C 37.067 71.752 36.787 74.012 37.058 76.262 C 37.38 78.762 38.271 80.832 39.705 82.412 C 40.443 83.232 41.403 83.932 42.638 84.552 C 43.779 85.112 44.984 85.492 46.218 85.662 C 47.485 85.842 48.803 85.802 50.027 85.552 C 50.208 85.512 51.339 85.312 51.93 84.972 C 51.927 84.972 51.925 84.972 51.923 84.962 C 52.475 84.732 53.009 84.452 53.512 84.132 C 54.231 83.672 54.906 83.112 55.521 82.452 C 55.835 82.832 56.157 83.162 56.498 83.482 C 57.068 83.992 57.648 84.372 58.275 84.642 C 59.091 84.992 59.989 85.092 60.804 84.922 C 61.027 84.882 61.251 84.822 61.465 84.732 C 61.588 84.682 61.655 84.662 61.807 84.582 C 61.823 84.572 61.879 84.542 61.977 84.472 C 62.037 84.442 62.081 84.412 62.127 84.372 C 62.574 84.022 62.81 83.682 63.004 83.362 C 63.331 82.812 63.548 82.202 63.687 81.452 C 63.777 80.972 63.82 80.492 63.82 79.962 C 63.82 79.312 63.754 78.632 63.612 77.832 C 63.399 76.722 63.032 75.602 62.52 74.492 C 62.301 73.992 62.039 73.462 61.746 72.942 C 61.441 72.392 61.149 71.902 60.854 71.462 C 60.709 71.222 60.554 70.982 60.393 70.742 C 60.643 69.032 60.738 67.312 60.67 65.612 C 60.589 63.492 60.24 61.472 59.665 59.562 C 61.546 60.112 63.534 60.452 65.606 60.532 C 67.306 60.602 69.027 60.502 70.74 60.252 C 70.978 60.412 71.218 60.572 71.454 60.712 C 71.897 61.012 72.384 61.302 72.939 61.602 C 73.461 61.902 73.985 62.162 74.492 62.382 C 75.603 62.892 76.724 63.262 77.827 63.472 C 78.633 63.612 79.313 63.682 79.963 63.682 C 80.487 63.682 80.974 63.632 81.452 63.552 C 82.2 63.412 82.805 63.192 83.36 62.862 C 83.679 62.672 84.019 62.432 84.369 61.982 C 84.405 61.942 84.438 61.892 84.473 61.832 C 84.539 61.742 84.567 61.682 84.575 61.662 C 84.656 61.512 84.682 61.452 84.729 61.322 C 84.815 61.112 84.881 60.892 84.923 60.662 C 85.091 59.852 84.988 58.952 84.636 58.132 C 84.37 57.512 83.991 56.932 83.476 56.362 C 83.162 56.012 82.825 55.692 82.453 55.382 C 83.106 54.762 83.667 54.092 84.125 53.372 C 84.448 52.872 84.728 52.332 84.96 51.782 C 84.989 51.802 85.429 50.432 85.419 50.432 C 85.467 50.252 85.509 50.072 85.546 49.892 C 85.8 48.662 85.84 47.342 85.661 46.082 Z" fill="#414042" stroke="none"/><path d="M 359.64 46.262 C 359.798 45.152 360.134 44.082 360.64 43.072 C 361.181 42.002 361.813 41.132 362.517 40.492 C 363.921 39.232 365.843 38.422 368.071 38.142 C 370.145 37.892 372.217 38.162 374.071 38.922 C 374.727 39.192 375.352 39.522 375.936 39.912 C 374.22 40.662 372.452 41.682 370.518 43.022 C 368.735 44.252 366.886 45.482 365.025 46.682 C 363.186 47.842 361.47 48.882 359.795 49.852 C 359.517 48.672 359.463 47.442 359.64 46.262 Z M 360.242 51.232 C 362.282 50.122 364.26 48.972 365.77 48.072 C 367.624 46.992 369.478 45.872 371.438 44.652 C 373.244 43.482 375.14 42.502 377.075 41.742 C 377.306 41.652 377.538 41.572 377.771 41.492 C 378.183 41.942 378.553 42.432 378.871 42.952 C 379.47 43.922 379.89 44.982 380.085 46.022 C 380.267 46.972 380.277 47.962 380.115 48.992 C 378.712 49.032 377.34 49.152 376.031 49.362 C 373.971 49.672 371.813 50.242 369.617 51.072 C 367.439 51.962 365.463 52.952 363.566 54.082 C 363.273 54.262 362.984 54.452 362.7 54.652 C 362.041 54.062 361.473 53.402 361.012 52.692 C 360.713 52.242 360.455 51.752 360.242 51.232 Z M 361.994 57.582 C 362.302 57.202 362.656 56.842 363.069 56.472 C 363.792 56.982 364.604 57.452 365.488 57.872 C 367.331 58.752 369.359 59.442 371.52 59.902 C 369.761 60.942 367.96 61.572 366.155 61.802 C 365.053 61.932 364.006 61.902 363.08 61.702 C 362.555 61.582 362.095 61.412 361.712 61.182 C 361.512 61.062 361.348 60.922 361.254 60.792 C 361.163 60.682 361.08 60.472 361.037 60.252 C 360.95 59.842 361.005 59.372 361.194 58.892 C 361.359 58.462 361.621 58.042 361.994 57.582 Z M 372.122 58.732 C 369.933 58.302 367.863 57.632 365.966 56.732 C 365.19 56.362 364.582 56.022 364.046 55.672 C 364.158 55.592 364.271 55.512 364.384 55.432 C 365.179 54.862 366.087 54.312 367.157 53.732 C 368.178 53.172 369.13 52.722 370.067 52.342 C 371.97 51.562 374.038 51.032 376.212 50.752 C 377.315 50.622 378.473 50.552 379.649 50.552 L 379.737 50.552 C 379.226 52.132 378.32 53.722 377.042 55.282 C 375.896 56.662 374.567 57.882 373.092 58.902 C 372.767 58.852 372.444 58.792 372.122 58.732 Z M 374.959 59.142 C 376.075 58.242 377.09 57.232 377.984 56.142 C 379.465 54.332 380.484 52.462 381.017 50.582 C 383.43 50.682 385.999 51.042 388.858 51.672 C 388.5 52.082 388.154 52.502 387.832 52.932 C 386.677 54.462 385.757 56.172 385.055 58.002 C 383.022 58.712 380.828 59.122 378.528 59.222 C 377.347 59.282 376.157 59.252 374.959 59.142 Z M 386.183 78.702 C 386.598 79.592 387.068 80.402 387.58 81.122 C 387.212 81.542 386.847 81.892 386.47 82.202 C 386.012 82.572 385.584 82.832 385.16 83.002 C 384.678 83.192 384.208 83.242 383.796 83.152 C 383.58 83.112 383.374 83.032 383.254 82.942 C 383.126 82.842 382.989 82.682 382.868 82.482 C 382.643 82.102 382.469 81.642 382.351 81.112 C 382.15 80.192 382.113 79.142 382.245 78.042 C 382.474 76.232 383.111 74.432 384.146 72.672 C 384.613 74.832 385.299 76.862 386.183 78.702 Z M 387.315 78.232 C 386.418 76.332 385.747 74.262 385.322 72.072 C 385.258 71.752 385.2 71.422 385.147 71.102 C 386.173 69.632 387.393 68.302 388.771 67.152 C 390.331 65.872 391.92 64.972 393.499 64.452 L 393.499 64.542 C 393.499 65.722 393.433 66.882 393.302 67.982 C 393.021 70.152 392.485 72.222 391.712 74.132 C 391.331 75.062 390.875 76.012 390.321 77.042 C 389.74 78.102 389.184 79.012 388.62 79.812 C 388.54 79.922 388.458 80.032 388.375 80.152 C 388.025 79.612 387.691 79.002 387.315 78.232 Z M 389.401 81.492 C 389.599 81.212 389.787 80.922 389.968 80.632 C 391.101 78.732 392.084 76.752 392.98 74.582 C 393.805 72.382 394.379 70.222 394.689 68.162 C 394.895 66.852 395.02 65.482 395.061 64.082 C 396.084 63.922 397.081 63.932 398.026 64.112 C 399.068 64.302 400.131 64.722 401.1 65.322 C 401.62 65.642 402.111 66.012 402.563 66.422 C 402.481 66.652 402.394 66.892 402.305 67.122 C 401.545 69.052 400.568 70.952 399.401 72.752 C 398.176 74.712 397.056 76.572 395.975 78.422 C 395.081 79.932 393.924 81.912 392.815 83.952 C 392.299 83.742 391.811 83.482 391.358 83.182 C 390.646 82.722 389.989 82.152 389.401 81.492 Z M 394.202 84.402 C 395.168 82.722 396.205 81.012 397.367 79.172 C 398.569 77.312 399.801 75.462 401.027 73.672 C 402.373 71.742 403.393 69.972 404.141 68.262 C 404.531 68.842 404.862 69.472 405.129 70.122 C 405.885 71.972 406.155 74.052 405.905 76.122 C 405.631 78.352 404.819 80.272 403.56 81.672 C 402.921 82.382 402.052 83.012 400.979 83.552 C 399.968 84.062 398.895 84.392 397.787 84.552 C 396.607 84.732 395.375 84.682 394.202 84.402 Z M 403.825 59.422 C 403.825 60.002 403.795 60.582 403.735 61.162 C 403.621 62.472 403.364 63.822 402.972 65.162 C 402.601 64.862 402.21 64.582 401.808 64.332 C 400.691 63.632 399.504 63.162 398.277 62.922 C 397.263 62.732 396.164 62.702 395.076 62.842 C 395.066 60.392 394.82 57.822 394.325 54.992 C 394.249 54.562 394.152 54.122 394.066 53.682 C 394.215 53.522 394.367 53.362 394.502 53.192 C 394.719 53.262 394.937 53.332 395.154 53.392 L 401.413 55.502 C 402.096 55.742 402.8 55.972 403.5 56.202 C 403.716 57.252 403.825 58.332 403.825 59.422 Z M 402.493 53.282 L 402.051 53.142 C 399.767 52.382 397.706 51.752 395.765 51.222 C 395.825 51.102 395.883 50.972 395.938 50.842 C 396.207 50.222 396.395 49.582 396.5 48.932 C 396.648 48.932 396.797 48.932 396.943 48.952 C 397.955 49.062 398.975 49.452 399.893 50.102 C 400.699 50.662 401.409 51.422 402.006 52.372 C 402.188 52.662 402.338 52.972 402.493 53.282 Z M 395.266 47.682 C 394.567 47.782 393.875 47.962 393.209 48.252 C 393.08 48.312 392.953 48.372 392.829 48.432 C 392.298 46.492 391.667 44.422 390.906 42.142 L 390.679 41.432 C 391.075 41.622 391.461 41.812 391.818 42.042 C 392.768 42.642 393.533 43.352 394.093 44.162 C 394.737 45.072 395.135 46.092 395.244 47.102 C 395.264 47.292 395.265 47.492 395.266 47.682 Z M 386.797 57.302 C 387.391 56.012 388.102 54.792 388.946 53.682 C 389.361 53.162 389.847 52.592 390.367 52.032 C 390.781 52.132 391.206 52.252 391.633 52.362 C 391.768 52.852 391.898 53.352 392.017 53.822 C 391.505 54.292 390.99 54.722 390.508 55.102 C 389.37 55.972 388.123 56.702 386.797 57.302 Z M 393.385 50.622 C 393.313 50.332 393.254 50.052 393.178 49.752 C 393.383 49.642 393.591 49.542 393.799 49.452 C 394.229 49.272 394.671 49.142 395.115 49.052 C 395.026 49.452 394.909 49.862 394.741 50.252 C 394.652 50.462 394.552 50.672 394.444 50.872 C 394.081 50.782 393.74 50.702 393.385 50.622 Z M 393.47 63.182 C 391.587 63.712 389.716 64.732 387.905 66.212 C 386.817 67.102 385.813 68.122 384.911 69.232 C 384.802 68.032 384.772 66.852 384.827 65.662 C 384.926 63.322 385.357 61.102 386.086 59.032 C 387.958 58.332 389.703 57.392 391.265 56.222 C 391.645 55.932 392.012 55.622 392.375 55.312 C 393.012 58.182 393.371 60.762 393.47 63.182 Z M 390.653 49.042 C 390.723 49.262 390.791 49.472 390.859 49.692 C 390.746 49.782 390.635 49.892 390.523 49.992 C 390.084 49.902 389.638 49.802 389.203 49.722 C 386.374 49.232 383.803 48.982 381.351 48.972 C 381.493 47.892 381.466 46.792 381.268 45.772 C 381.033 44.542 380.56 43.362 379.859 42.242 C 379.611 41.842 379.334 41.452 379.031 41.082 C 380.373 40.682 381.717 40.432 383.032 40.312 C 383.614 40.252 384.197 40.222 384.768 40.222 C 385.795 40.222 386.806 40.322 387.789 40.512 C 388.04 41.282 388.292 42.042 388.549 42.782 L 390.653 49.042 Z M 358.645 49.892 C 358.682 50.072 358.724 50.252 358.771 50.432 C 358.761 50.432 359.202 51.802 359.23 51.782 C 359.462 52.332 359.743 52.872 360.066 53.372 C 360.523 54.092 361.084 54.762 361.738 55.382 C 361.366 55.692 361.029 56.012 360.715 56.362 C 360.2 56.932 359.821 57.512 359.555 58.132 C 359.203 58.952 359.1 59.852 359.268 60.662 C 359.31 60.892 359.375 61.112 359.461 61.322 C 359.508 61.452 359.535 61.512 359.616 61.662 C 359.624 61.682 359.651 61.742 359.718 61.832 C 359.752 61.892 359.786 61.942 359.822 61.982 C 360.172 62.432 360.512 62.672 360.831 62.862 C 361.386 63.192 361.991 63.412 362.739 63.552 C 363.217 63.632 363.704 63.682 364.227 63.682 C 364.878 63.682 365.558 63.612 366.364 63.472 C 367.467 63.262 368.588 62.892 369.699 62.382 C 370.205 62.162 370.729 61.902 371.251 61.602 C 371.807 61.302 372.293 61.012 372.737 60.712 C 372.973 60.572 373.212 60.412 373.45 60.252 C 375.164 60.502 376.884 60.602 378.584 60.532 C 380.657 60.452 382.645 60.112 384.526 59.562 C 383.951 61.472 383.602 63.492 383.521 65.612 C 383.453 67.312 383.548 69.032 383.797 70.742 C 383.637 70.982 383.482 71.222 383.336 71.462 C 383.042 71.902 382.75 72.392 382.445 72.942 C 382.152 73.462 381.89 73.992 381.67 74.492 C 381.159 75.602 380.792 76.722 380.579 77.832 C 380.436 78.632 380.371 79.312 380.371 79.962 C 380.371 80.492 380.414 80.972 380.503 81.452 C 380.643 82.202 380.86 82.812 381.187 83.362 C 381.381 83.682 381.617 84.022 382.063 84.372 C 382.109 84.412 382.154 84.442 382.214 84.472 C 382.312 84.542 382.368 84.572 382.384 84.582 C 382.536 84.662 382.603 84.682 382.726 84.732 C 382.94 84.822 383.164 84.882 383.387 84.922 C 384.202 85.092 385.1 84.992 385.916 84.642 C 386.542 84.372 387.123 83.992 387.692 83.482 C 388.034 83.162 388.356 82.832 388.669 82.452 C 389.285 83.112 389.959 83.672 390.679 84.132 C 391.182 84.452 391.716 84.732 392.268 84.962 C 392.266 84.972 392.263 84.972 392.261 84.972 C 392.852 85.312 393.982 85.512 394.164 85.552 C 395.388 85.802 396.706 85.842 397.973 85.662 C 399.207 85.492 400.412 85.112 401.553 84.552 C 402.788 83.932 403.748 83.232 404.486 82.412 C 405.919 80.832 406.811 78.762 407.133 76.262 C 407.404 74.012 407.124 71.752 406.302 69.712 C 405.901 68.702 405.355 67.762 404.682 66.902 C 405.38 65.002 405.815 63.132 405.974 61.352 C 406.085 59.772 405.989 58.312 405.727 56.932 C 408.025 57.652 410.804 58.292 412.997 59.032 C 417.163 60.442 421.625 63.122 423.292 67.422 C 423.999 69.232 424.442 71.832 423.039 73.422 C 421.639 75.022 419.158 75.092 417.305 74.372 C 415.488 73.662 413.498 72.022 413.197 69.982 C 413.146 69.642 413.146 69.282 413.292 69.002 C 413.257 69.502 413.455 70.072 413.882 70.522 C 414.593 71.282 415.66 71.432 416.264 70.862 C 416.868 70.302 416.78 69.222 416.068 68.472 C 415.316 67.672 413.438 67.292 412.684 68.602 C 412.23 69.392 412.472 70.472 412.815 71.262 C 413.632 73.132 415.395 74.572 417.265 75.302 C 419.162 76.052 421.545 76.202 423.385 75.212 C 424.86 74.402 425.883 73.072 426.445 71.522 C 427.9 67.502 425.544 63.532 422.223 61.292 C 420.957 60.432 419.576 59.802 418.143 59.282 C 421.461 59.392 424.796 58.972 427.945 58.052 C 430.24 57.362 432.346 56.422 434.207 55.242 C 436.296 53.922 438.038 52.322 439.385 50.502 C 440.907 48.452 441.849 46.092 442.109 43.692 C 442.248 42.492 442.211 41.212 441.999 39.892 C 441.796 38.622 441.373 37.402 440.741 36.252 C 439.618 34.222 437.915 32.512 435.676 31.162 C 433.813 30.042 431.703 29.252 429.406 28.802 C 427.313 28.392 425.121 28.292 422.926 28.482 C 420.689 28.682 418.572 29.202 416.635 30.032 C 414.456 30.962 412.591 32.232 411.096 33.782 C 409.819 35.112 408.219 37.312 407.852 40.232 C 407.687 41.592 407.805 42.922 408.196 44.092 C 408.584 45.262 409.263 46.382 410.16 47.332 C 411.706 48.952 413.751 50.102 416.241 50.732 C 418.371 51.272 420.675 51.372 422.962 51.012 C 425.328 50.642 427.454 49.832 429.283 48.612 C 430.322 47.912 431.196 47.102 431.882 46.202 C 432.697 45.142 433.22 43.942 433.394 42.742 C 433.586 41.452 433.381 40.072 432.815 38.832 C 432.296 37.712 431.41 36.692 430.319 35.982 C 429.41 35.392 428.356 34.952 427.099 34.672 C 426.147 34.462 425.157 34.352 424.072 34.352 L 423.774 34.362 C 422.508 34.392 421.461 34.532 420.479 34.802 C 419.318 35.122 418.282 35.642 417.4 36.352 C 416.675 36.942 415.724 37.962 415.31 39.482 C 415.133 40.102 415.077 40.852 415.157 41.512 C 415.249 42.242 415.5 42.902 415.905 43.492 C 416.612 44.512 417.666 45.232 419.038 45.632 C 419.368 45.722 419.668 45.782 419.961 45.812 C 420.303 45.852 420.568 45.872 420.817 45.872 L 420.891 45.872 C 420.891 45.872 420.891 45.872 420.892 45.872 C 421.209 45.872 421.513 45.852 421.812 45.822 C 421.979 45.802 422.139 45.782 422.306 45.752 L 422.727 45.672 C 423.361 45.562 423.788 44.912 423.674 44.202 C 423.56 43.512 422.946 43.032 422.301 43.132 C 422.149 43.162 422.004 43.222 421.878 43.312 L 421.804 43.352 C 421.722 43.412 421.631 43.472 421.569 43.512 C 421.461 43.582 421.369 43.632 421.271 43.672 C 421.088 43.772 420.895 43.852 420.631 43.922 C 420.181 44.062 419.726 44.112 419.271 44.072 C 418.295 44.012 417.379 43.512 416.869 42.752 C 416.603 42.362 416.426 41.882 416.37 41.392 C 416.314 40.832 416.352 40.342 416.486 39.862 C 416.73 38.942 417.32 38.062 418.146 37.392 C 418.889 36.782 419.783 36.332 420.807 36.052 C 421.668 35.812 422.654 35.672 423.82 35.642 L 424.113 35.632 C 425.116 35.632 426.02 35.732 426.874 35.912 C 427.965 36.162 428.919 36.542 429.709 37.062 C 430.628 37.662 431.334 38.462 431.753 39.382 C 432.213 40.382 432.381 41.492 432.226 42.532 C 432.084 43.512 431.646 44.512 430.96 45.412 C 430.358 46.202 429.578 46.922 428.641 47.562 C 426.955 48.692 424.981 49.452 422.777 49.802 C 420.653 50.132 418.491 50.052 416.493 49.562 C 414.197 48.972 412.334 47.942 410.957 46.482 C 410.182 45.662 409.6 44.702 409.271 43.702 C 408.94 42.712 408.843 41.572 408.987 40.412 C 409.245 38.392 410.284 36.362 411.912 34.692 C 413.311 33.242 415.051 32.062 417.085 31.202 C 418.925 30.422 420.93 29.942 423.044 29.762 C 425.123 29.582 427.21 29.692 429.211 30.082 C 431.382 30.522 433.359 31.272 435.087 32.312 C 437.097 33.532 438.677 35.122 439.657 36.912 C 440.195 37.892 440.57 38.982 440.743 40.082 C 440.92 41.202 440.935 42.352 440.79 43.482 C 440.521 45.612 439.638 47.702 438.235 49.522 C 437.014 51.132 435.375 52.542 433.364 53.712 C 431.593 54.742 429.6 55.542 427.438 56.102 C 425.417 56.612 423.287 56.912 421.107 56.982 C 419.031 57.032 416.881 56.892 414.706 56.552 C 411.395 56.042 408.093 55.062 404.868 54.042 C 404.183 52.432 402.953 50.432 400.782 48.962 C 399.653 48.212 398.373 47.752 397.083 47.632 C 396.917 47.612 396.75 47.622 396.584 47.612 C 396.581 47.402 396.583 47.182 396.56 46.972 C 396.445 45.682 395.984 44.392 395.229 43.272 C 393.695 41.002 391.578 39.762 389.938 39.102 C 388.943 35.942 387.994 32.722 387.495 29.492 C 387.159 27.312 387.019 25.162 387.067 23.082 C 387.135 20.912 387.434 18.782 387.953 16.752 C 388.508 14.592 389.311 12.602 390.34 10.832 C 391.514 8.822 392.922 7.182 394.528 5.962 C 396.347 4.552 398.435 3.672 400.567 3.402 C 401.702 3.262 402.848 3.272 403.973 3.452 C 405.064 3.622 406.158 4.002 407.134 4.542 C 408.925 5.512 410.517 7.102 411.736 9.102 C 412.781 10.832 413.532 12.812 413.966 14.982 C 414.356 16.982 414.468 19.072 414.286 21.152 C 414.111 23.262 413.627 25.272 412.846 27.112 C 411.983 29.142 410.813 30.882 409.363 32.282 C 407.688 33.912 405.655 34.952 403.64 35.202 C 402.474 35.352 401.335 35.252 400.344 34.922 C 399.346 34.592 398.386 34.012 397.567 33.242 C 396.109 31.862 395.074 29.992 394.491 27.702 C 393.995 25.702 393.914 23.542 394.247 21.412 C 394.6 19.212 395.354 17.242 396.486 15.552 C 397.125 14.612 397.848 13.832 398.636 13.232 C 399.537 12.552 400.533 12.112 401.521 11.972 C 402.555 11.812 403.672 11.982 404.67 12.442 C 405.589 12.862 406.39 13.562 406.986 14.482 C 407.504 15.272 407.891 16.232 408.134 17.322 C 408.322 18.172 408.415 19.082 408.415 20.082 L 408.412 20.372 C 408.376 21.542 408.242 22.522 408.002 23.392 C 407.717 24.412 407.267 25.302 406.663 26.052 C 405.989 26.872 405.111 27.462 404.19 27.712 C 403.712 27.842 403.222 27.882 402.655 27.822 C 402.169 27.772 401.687 27.592 401.294 27.322 C 400.537 26.812 400.035 25.902 399.982 24.922 C 399.938 24.472 399.984 24.012 400.125 23.562 C 400.2 23.302 400.275 23.102 400.374 22.922 C 400.421 22.822 400.472 22.732 400.543 22.622 C 400.577 22.562 400.638 22.472 400.693 22.392 L 400.743 22.312 C 400.828 22.192 400.888 22.042 400.915 21.892 C 401.022 21.252 400.539 20.632 399.845 20.522 C 399.142 20.402 398.485 20.832 398.379 21.472 L 398.303 21.892 C 398.27 22.052 398.249 22.212 398.227 22.382 C 398.201 22.682 398.176 22.982 398.176 23.302 C 398.176 23.302 398.176 23.302 398.176 23.302 L 398.175 23.372 C 398.175 23.622 398.195 23.892 398.239 24.232 C 398.271 24.522 398.328 24.822 398.417 25.152 C 398.82 26.532 399.542 27.582 400.558 28.292 C 401.147 28.692 401.811 28.942 402.535 29.042 C 403.202 29.112 403.946 29.062 404.572 28.882 C 406.091 28.472 407.109 27.522 407.696 26.792 C 408.41 25.912 408.933 24.872 409.249 23.712 C 409.52 22.732 409.662 21.682 409.692 20.422 L 409.695 20.122 C 409.695 19.032 409.593 18.052 409.383 17.092 C 409.094 15.842 408.663 14.782 408.064 13.872 C 407.355 12.782 406.344 11.902 405.215 11.382 C 403.981 10.812 402.594 10.612 401.309 10.802 C 400.109 10.972 398.911 11.492 397.845 12.312 C 396.947 13.002 396.138 13.872 395.439 14.912 C 394.218 16.742 393.409 18.862 393.036 21.232 C 392.683 23.522 392.778 25.822 393.316 27.952 C 393.947 30.442 395.095 32.492 396.722 34.032 C 397.668 34.932 398.786 35.612 399.954 36.002 C 401.127 36.392 402.462 36.512 403.816 36.342 C 406.738 35.972 408.935 34.372 410.264 33.102 C 411.82 31.602 413.085 29.742 414.021 27.562 C 414.851 25.622 415.371 23.502 415.567 21.272 C 415.76 19.072 415.654 16.882 415.248 14.792 C 414.798 12.492 414.005 10.382 412.887 8.522 C 411.536 6.282 409.824 4.572 407.799 3.452 C 406.653 2.822 405.429 2.402 404.161 2.192 C 402.837 1.982 401.558 1.942 400.362 2.082 C 397.96 2.342 395.602 3.292 393.544 4.812 C 391.727 6.152 390.133 7.902 388.805 9.992 C 387.63 11.852 386.686 13.952 385.999 16.252 C 385.08 19.382 384.669 22.692 384.767 25.992 C 384.242 24.512 383.593 23.082 382.713 21.782 C 380.474 18.462 376.503 16.102 372.487 17.562 C 370.93 18.122 369.599 19.142 368.798 20.622 C 367.8 22.462 367.956 24.842 368.7 26.742 C 369.432 28.612 370.877 30.372 372.749 31.192 C 373.535 31.532 374.613 31.772 375.405 31.322 C 376.716 30.562 376.335 28.692 375.538 27.942 C 374.78 27.222 373.709 27.142 373.141 27.742 C 372.571 28.342 372.728 29.412 373.485 30.122 C 373.938 30.552 374.505 30.752 375.008 30.712 C 374.72 30.862 374.369 30.862 374.023 30.812 C 371.981 30.512 370.347 28.512 369.636 26.702 C 368.91 24.852 368.984 22.362 370.581 20.972 C 372.177 19.562 374.777 20.012 376.588 20.712 C 380.879 22.382 383.562 26.842 384.971 31.012 C 385.713 33.202 386.359 35.992 387.076 38.292 C 385.754 38.052 384.348 37.972 382.845 38.072 C 381.061 38.232 379.193 38.672 377.288 39.372 C 376.432 38.692 375.488 38.152 374.482 37.752 C 372.439 36.922 370.182 36.642 367.931 36.922 C 365.436 37.242 363.366 38.132 361.779 39.562 C 360.964 40.302 360.266 41.262 359.643 42.502 C 359.077 43.642 358.703 44.842 358.529 46.082 C 358.351 47.342 358.391 48.662 358.645 49.892 Z" fill="#414042" stroke="none"/><path d="M 84.551 561.202 C 84.393 562.312 84.057 563.382 83.551 564.392 C 83.01 565.462 82.377 566.332 81.673 566.972 C 80.269 568.232 78.348 569.042 76.12 569.322 C 74.046 569.572 71.974 569.302 70.12 568.542 C 69.464 568.272 68.838 567.942 68.255 567.552 C 69.971 566.812 71.739 565.792 73.673 564.442 C 75.456 563.212 77.305 561.982 79.166 560.782 C 81.005 559.622 82.721 558.582 84.396 557.612 C 84.674 558.792 84.727 560.022 84.551 561.202 Z M 83.949 556.232 C 81.908 557.342 79.931 558.492 78.421 559.392 C 76.567 560.472 74.713 561.592 72.753 562.812 C 70.947 563.982 69.051 564.962 67.116 565.722 C 66.885 565.812 66.653 565.892 66.42 565.972 C 66.008 565.522 65.638 565.032 65.32 564.512 C 64.721 563.542 64.301 562.482 64.105 561.442 C 63.924 560.492 63.914 559.502 64.076 558.472 C 65.478 558.432 66.851 558.312 68.16 558.102 C 70.22 557.792 72.378 557.222 74.574 556.392 C 76.752 555.502 78.728 554.512 80.624 553.382 C 80.917 553.202 81.206 553.012 81.491 552.812 C 82.15 553.402 82.718 554.062 83.179 554.772 C 83.477 555.222 83.736 555.712 83.949 556.232 Z M 82.197 549.882 C 81.889 550.262 81.535 550.622 81.122 550.992 C 80.399 550.482 79.587 550.012 78.703 549.602 C 76.859 548.712 74.831 548.022 72.671 547.562 C 74.43 546.522 76.23 545.892 78.036 545.662 C 79.138 545.532 80.185 545.562 81.111 545.762 C 81.636 545.882 82.096 546.062 82.478 546.282 C 82.679 546.402 82.843 546.542 82.936 546.672 C 83.028 546.792 83.11 546.992 83.154 547.212 C 83.241 547.622 83.186 548.092 82.997 548.572 C 82.831 549.002 82.57 549.422 82.197 549.882 Z M 72.069 548.732 C 74.258 549.162 76.328 549.832 78.225 550.732 C 79.001 551.102 79.609 551.442 80.144 551.792 C 80.033 551.872 79.92 551.952 79.807 552.032 C 79.011 552.602 78.104 553.152 77.034 553.732 C 76.013 554.292 75.06 554.742 74.124 555.122 C 72.221 555.902 70.153 556.432 67.979 556.712 C 66.876 556.852 65.718 556.912 64.542 556.912 L 64.454 556.912 C 64.965 555.332 65.871 553.742 67.148 552.182 C 68.295 550.812 69.624 549.592 71.099 548.562 C 71.423 548.612 71.747 548.672 72.069 548.732 Z M 69.231 548.322 C 68.116 549.222 67.101 550.232 66.207 551.322 C 64.726 553.132 63.706 555.002 63.174 556.882 C 60.761 556.782 58.192 556.432 55.332 555.792 C 55.691 555.382 56.037 554.962 56.359 554.532 C 57.513 553.002 58.434 551.292 59.135 549.462 C 61.168 548.752 63.363 548.342 65.662 548.242 C 66.844 548.182 68.034 548.212 69.231 548.322 Z M 58.008 528.762 C 57.593 527.872 57.123 527.062 56.61 526.342 C 56.978 525.932 57.344 525.572 57.721 525.262 C 58.179 524.892 58.607 524.632 59.031 524.462 C 59.513 524.272 59.983 524.222 60.394 524.312 C 60.611 524.352 60.817 524.432 60.936 524.522 C 61.064 524.622 61.201 524.782 61.323 524.982 C 61.548 525.362 61.722 525.822 61.84 526.352 C 62.04 527.272 62.078 528.322 61.946 529.422 C 61.717 531.232 61.08 533.032 60.045 534.792 C 59.578 532.632 58.892 530.602 58.008 528.762 Z M 56.875 529.232 C 57.773 531.132 58.444 533.202 58.869 535.392 C 58.933 535.712 58.991 536.042 59.043 536.362 C 58.018 537.842 56.798 539.162 55.419 540.312 C 53.859 541.592 52.271 542.492 50.692 543.012 L 50.692 542.922 C 50.692 541.742 50.758 540.582 50.889 539.482 C 51.169 537.312 51.705 535.242 52.478 533.342 C 52.86 532.402 53.315 531.452 53.87 530.432 C 54.451 529.362 55.007 528.452 55.571 527.652 C 55.651 527.542 55.733 527.432 55.816 527.312 C 56.165 527.852 56.5 528.462 56.875 529.232 Z M 54.789 525.972 C 54.592 526.252 54.404 526.542 54.223 526.842 C 53.09 528.732 52.107 530.712 51.21 532.892 C 50.386 535.082 49.812 537.242 49.501 539.302 C 49.296 540.612 49.17 541.982 49.129 543.382 C 48.106 543.552 47.11 543.542 46.165 543.352 C 45.123 543.162 44.06 542.742 43.091 542.142 C 42.571 541.822 42.08 541.452 41.627 541.042 C 41.709 540.812 41.797 540.572 41.886 540.342 C 42.645 538.412 43.623 536.512 44.79 534.712 C 46.015 532.752 47.134 530.892 48.216 529.042 C 49.11 527.532 50.267 525.552 51.376 523.512 C 51.892 523.722 52.38 523.982 52.833 524.282 C 53.545 524.742 54.201 525.312 54.789 525.972 Z M 49.989 523.062 C 49.023 524.742 47.986 526.452 46.824 528.292 C 45.622 530.152 44.39 532.002 43.164 533.792 C 41.818 535.722 40.798 537.492 40.05 539.202 C 39.66 538.622 39.329 538.002 39.062 537.342 C 38.306 535.492 38.036 533.412 38.286 531.342 C 38.56 529.112 39.372 527.192 40.631 525.792 C 41.269 525.082 42.139 524.452 43.211 523.912 C 44.223 523.402 45.296 523.072 46.404 522.912 C 47.583 522.732 48.815 522.792 49.989 523.062 Z M 40.366 548.042 C 40.366 547.472 40.395 546.882 40.456 546.302 C 40.57 544.992 40.827 543.642 41.219 542.302 C 41.59 542.602 41.98 542.882 42.383 543.132 C 43.499 543.832 44.686 544.302 45.914 544.542 C 46.928 544.732 48.027 544.762 49.115 544.622 C 49.124 547.072 49.371 549.642 49.866 552.472 C 49.942 552.902 50.038 553.342 50.125 553.782 C 49.976 553.942 49.824 554.102 49.688 554.272 C 49.472 554.202 49.254 554.142 49.037 554.062 L 42.778 551.962 C 42.095 551.722 41.391 551.492 40.691 551.262 C 40.475 550.222 40.366 549.142 40.366 548.042 Z M 41.698 554.182 L 42.14 554.322 C 44.424 555.082 46.485 555.712 48.426 556.242 C 48.366 556.362 48.308 556.492 48.253 556.622 C 47.984 557.242 47.796 557.882 47.691 558.532 C 47.543 558.532 47.394 558.532 47.248 558.512 C 46.236 558.402 45.216 558.012 44.298 557.362 C 43.492 556.802 42.782 556.042 42.185 555.092 C 42.003 554.802 41.852 554.492 41.698 554.182 Z M 48.925 559.782 C 49.623 559.682 50.316 559.502 50.982 559.212 C 51.111 559.152 51.238 559.092 51.362 559.032 C 51.893 560.972 52.523 563.042 53.285 565.322 L 53.512 566.032 C 53.116 565.842 52.73 565.642 52.373 565.422 C 51.423 564.822 50.658 564.112 50.098 563.312 C 49.454 562.392 49.056 561.372 48.947 560.352 C 48.927 560.172 48.926 559.972 48.925 559.782 Z M 57.393 550.162 C 56.8 551.452 56.089 552.672 55.245 553.782 C 54.83 554.312 54.344 554.872 53.824 555.432 C 53.41 555.332 52.984 555.222 52.558 555.102 C 52.423 554.612 52.293 554.112 52.174 553.642 C 52.686 553.172 53.201 552.742 53.683 552.362 C 54.821 551.492 56.068 550.762 57.393 550.162 Z M 50.806 556.842 C 50.877 557.142 50.936 557.412 51.013 557.712 C 50.808 557.822 50.6 557.922 50.392 558.012 C 49.962 558.192 49.519 558.322 49.075 558.412 C 49.165 558.012 49.282 557.602 49.45 557.212 C 49.539 557.002 49.639 556.802 49.747 556.592 C 50.11 556.682 50.451 556.762 50.806 556.842 Z M 50.721 544.292 C 52.604 543.752 54.475 542.732 56.286 541.252 C 57.373 540.362 58.378 539.342 59.279 538.232 C 59.389 539.432 59.418 540.622 59.364 541.802 C 59.264 544.142 58.834 546.372 58.104 548.432 C 56.233 549.132 54.488 550.072 52.926 551.242 C 52.546 551.532 52.179 551.842 51.816 552.152 C 51.179 549.282 50.82 546.712 50.721 544.292 Z M 53.538 558.422 C 53.468 558.212 53.4 557.992 53.331 557.772 C 53.445 557.682 53.556 557.572 53.668 557.472 C 54.107 557.562 54.553 557.662 54.988 557.742 C 57.817 558.232 60.388 558.482 62.84 558.492 C 62.698 559.582 62.725 560.682 62.923 561.692 C 63.158 562.922 63.631 564.102 64.331 565.222 C 64.58 565.622 64.857 566.012 65.16 566.382 C 63.818 566.782 62.474 567.032 61.159 567.152 C 60.577 567.212 59.994 567.242 59.423 567.242 C 58.395 567.242 57.385 567.142 56.402 566.952 C 56.151 566.182 55.899 565.422 55.642 564.682 L 53.538 558.422 Z M 85.546 557.582 C 85.509 557.392 85.467 557.212 85.419 557.032 C 85.429 557.032 84.989 555.662 84.96 555.682 C 84.728 555.132 84.448 554.592 84.125 554.092 C 83.667 553.372 83.106 552.702 82.453 552.082 C 82.825 551.772 83.162 551.452 83.476 551.102 C 83.991 550.532 84.37 549.952 84.636 549.332 C 84.988 548.512 85.091 547.612 84.923 546.802 C 84.881 546.582 84.815 546.352 84.729 546.142 C 84.682 546.012 84.656 545.952 84.575 545.802 C 84.567 545.782 84.539 545.722 84.473 545.632 C 84.438 545.572 84.405 545.522 84.369 545.482 C 84.019 545.032 83.679 544.792 83.36 544.602 C 82.805 544.272 82.2 544.062 81.452 543.922 C 80.974 543.832 80.487 543.782 79.963 543.782 C 79.313 543.782 78.633 543.852 77.827 543.992 C 76.724 544.202 75.603 544.572 74.492 545.082 C 73.985 545.302 73.461 545.562 72.939 545.862 C 72.384 546.162 71.897 546.452 71.454 546.752 C 71.218 546.892 70.978 547.052 70.74 547.212 C 69.027 546.962 67.306 546.872 65.606 546.932 C 63.534 547.012 61.546 547.352 59.665 547.902 C 60.24 545.992 60.589 543.972 60.67 541.852 C 60.738 540.152 60.643 538.432 60.393 536.722 C 60.554 536.482 60.709 536.242 60.854 536.012 C 61.149 535.562 61.441 535.082 61.746 534.522 C 62.039 534.002 62.301 533.472 62.52 532.972 C 63.032 531.862 63.399 530.742 63.612 529.632 C 63.754 528.832 63.82 528.152 63.82 527.502 C 63.82 526.972 63.777 526.492 63.687 526.012 C 63.548 525.262 63.331 524.652 63.004 524.102 C 62.81 523.782 62.574 523.442 62.127 523.092 C 62.081 523.062 62.037 523.022 61.977 522.992 C 61.879 522.922 61.823 522.892 61.807 522.892 C 61.655 522.802 61.588 522.782 61.465 522.732 C 61.251 522.642 61.027 522.582 60.804 522.542 C 59.989 522.372 59.091 522.472 58.275 522.822 C 57.648 523.092 57.068 523.472 56.498 523.982 C 56.157 524.302 55.835 524.632 55.521 525.012 C 54.906 524.352 54.231 523.792 53.512 523.332 C 53.009 523.012 52.475 522.732 51.923 522.502 C 51.925 522.502 51.927 522.492 51.93 522.492 C 51.339 522.152 50.208 521.952 50.027 521.912 C 48.803 521.662 47.485 521.622 46.218 521.802 C 44.984 521.972 43.779 522.352 42.638 522.912 C 41.403 523.532 40.443 524.232 39.705 525.052 C 38.271 526.642 37.38 528.702 37.058 531.202 C 36.787 533.452 37.067 535.712 37.888 537.752 C 38.29 538.762 38.835 539.702 39.509 540.562 C 38.81 542.462 38.375 544.332 38.216 546.112 C 38.105 547.692 38.202 549.162 38.464 550.532 C 36.165 549.812 33.387 549.172 31.194 548.432 C 27.028 547.022 22.566 544.342 20.898 540.052 C 20.192 538.232 19.748 535.632 21.152 534.042 C 22.552 532.442 25.033 532.372 26.886 533.092 C 28.703 533.802 30.693 535.442 30.994 537.482 C 31.045 537.832 31.045 538.182 30.898 538.472 C 30.934 537.962 30.736 537.392 30.309 536.942 C 29.598 536.182 28.531 536.032 27.927 536.602 C 27.323 537.172 27.411 538.242 28.123 538.992 C 28.874 539.792 30.752 540.172 31.507 538.862 C 31.961 538.072 31.719 536.992 31.376 536.212 C 30.559 534.332 28.796 532.892 26.926 532.162 C 25.029 531.412 22.646 531.262 20.806 532.262 C 19.331 533.062 18.308 534.392 17.746 535.942 C 16.29 539.962 18.646 543.932 21.967 546.172 C 23.234 547.032 24.615 547.662 26.048 548.182 C 22.729 548.082 19.394 548.492 16.246 549.412 C 13.951 550.102 11.845 551.042 9.984 552.222 C 7.894 553.552 6.153 555.142 4.806 556.962 C 3.284 559.012 2.342 561.372 2.082 563.772 C 1.943 564.972 1.98 566.252 2.192 567.572 C 2.395 568.842 2.818 570.062 3.45 571.212 C 4.573 573.242 6.276 574.952 8.515 576.302 C 10.378 577.422 12.488 578.212 14.785 578.662 C 16.877 579.072 19.07 579.172 21.265 578.982 C 23.502 578.782 25.619 578.262 27.556 577.432 C 29.735 576.502 31.599 575.232 33.095 573.682 C 34.372 572.352 35.972 570.152 36.339 567.232 C 36.504 565.872 36.386 564.542 35.995 563.372 C 35.607 562.202 34.928 561.082 34.031 560.132 C 32.485 558.512 30.439 557.362 27.95 556.732 C 25.819 556.192 23.516 556.102 21.229 556.452 C 18.863 556.822 16.737 557.632 14.908 558.852 C 13.869 559.552 12.995 560.362 12.308 561.262 C 11.494 562.322 10.971 563.522 10.797 564.722 C 10.604 566.012 10.81 567.392 11.375 568.632 C 11.895 569.762 12.781 570.772 13.872 571.482 C 14.781 572.082 15.834 572.512 17.092 572.802 C 18.044 573.012 19.034 573.112 20.119 573.112 L 20.417 573.102 C 21.683 573.072 22.729 572.932 23.711 572.662 C 24.872 572.352 25.909 571.822 26.791 571.112 C 27.516 570.522 28.467 569.502 28.88 567.982 C 29.058 567.362 29.114 566.612 29.034 565.952 C 28.942 565.222 28.69 564.562 28.286 563.972 C 27.579 562.952 26.525 562.232 25.153 561.832 C 24.822 561.742 24.523 561.682 24.229 561.652 C 23.888 561.612 23.623 561.592 23.374 561.592 L 23.3 561.592 C 23.3 561.592 23.3 561.592 23.299 561.592 C 22.981 561.592 22.678 561.612 22.378 561.642 C 22.212 561.662 22.052 561.682 21.884 561.722 L 21.464 561.792 C 20.83 561.902 20.403 562.552 20.517 563.262 C 20.631 563.952 21.245 564.432 21.889 564.332 C 22.042 564.302 22.186 564.242 22.313 564.162 L 22.387 564.112 C 22.469 564.052 22.56 563.992 22.622 563.962 C 22.73 563.882 22.822 563.832 22.92 563.792 C 23.103 563.692 23.296 563.612 23.56 563.542 C 24.01 563.402 24.464 563.352 24.92 563.392 C 25.896 563.452 26.811 563.952 27.322 564.712 C 27.588 565.102 27.765 565.582 27.821 566.072 C 27.876 566.632 27.839 567.122 27.705 567.602 C 27.46 568.522 26.871 569.402 26.044 570.082 C 25.302 570.682 24.407 571.132 23.384 571.412 C 22.522 571.652 21.537 571.792 20.371 571.822 L 20.078 571.832 C 19.075 571.832 18.171 571.732 17.317 571.552 C 16.226 571.302 15.271 570.922 14.481 570.402 C 13.562 569.802 12.856 569.002 12.437 568.082 C 11.977 567.082 11.81 565.972 11.965 564.932 C 12.107 563.952 12.544 562.952 13.231 562.052 C 13.832 561.262 14.612 560.542 15.55 559.902 C 17.236 558.772 19.209 558.012 21.414 557.662 C 23.538 557.332 25.7 557.412 27.698 557.902 C 29.994 558.492 31.857 559.522 33.234 560.982 C 34.009 561.802 34.591 562.762 34.919 563.762 C 35.25 564.752 35.348 565.892 35.204 567.052 C 34.946 569.072 33.907 571.102 32.279 572.772 C 30.88 574.222 29.14 575.402 27.105 576.262 C 25.266 577.042 23.261 577.522 21.146 577.702 C 19.068 577.882 16.98 577.772 14.98 577.382 C 12.809 576.942 10.832 576.192 9.103 575.152 C 7.094 573.932 5.514 572.342 4.534 570.552 C 3.996 569.572 3.621 568.482 3.448 567.392 C 3.271 566.262 3.255 565.112 3.401 563.982 C 3.669 561.852 4.553 559.762 5.956 557.942 C 7.177 556.332 8.815 554.932 10.827 553.752 C 12.597 552.722 14.591 551.922 16.752 551.372 C 18.774 550.852 20.904 550.552 23.083 550.482 C 25.16 550.432 27.31 550.572 29.485 550.912 C 32.796 551.422 36.098 552.402 39.323 553.422 C 40.008 555.032 41.238 557.032 43.409 558.502 C 44.538 559.252 45.818 559.712 47.108 559.832 C 47.273 559.852 47.441 559.842 47.607 559.852 C 47.61 560.062 47.608 560.282 47.631 560.492 C 47.746 561.782 48.206 563.072 48.961 564.192 C 50.496 566.472 52.613 567.702 54.253 568.372 C 55.248 571.522 56.197 574.742 56.696 577.972 C 57.032 580.152 57.172 582.302 57.124 584.382 C 57.056 586.562 56.757 588.682 56.238 590.712 C 55.683 592.872 54.88 594.862 53.851 596.632 C 52.677 598.642 51.269 600.282 49.663 601.502 C 47.844 602.912 45.756 603.792 43.624 604.062 C 42.489 604.202 41.343 604.192 40.218 604.012 C 39.126 603.842 38.033 603.462 37.057 602.932 C 35.266 601.952 33.674 600.372 32.455 598.362 C 31.409 596.632 30.659 594.652 30.225 592.482 C 29.834 590.482 29.723 588.392 29.905 586.312 C 30.079 584.202 30.564 582.192 31.345 580.352 C 32.207 578.322 33.378 576.582 34.828 575.182 C 36.502 573.552 38.536 572.512 40.551 572.262 C 41.717 572.112 42.856 572.212 43.847 572.542 C 44.845 572.872 45.804 573.452 46.623 574.222 C 48.081 575.602 49.117 577.472 49.7 579.762 C 50.196 581.762 50.277 583.922 49.944 586.052 C 49.591 588.252 48.836 590.222 47.705 591.912 C 47.066 592.852 46.343 593.632 45.555 594.232 C 44.654 594.922 43.657 595.352 42.669 595.492 C 41.636 595.652 40.518 595.482 39.52 595.022 C 38.602 594.602 37.801 593.902 37.205 592.982 C 36.686 592.192 36.3 591.232 36.057 590.142 C 35.868 589.292 35.776 588.392 35.776 587.382 L 35.779 587.092 C 35.815 585.922 35.949 584.942 36.189 584.082 C 36.474 583.052 36.924 582.162 37.528 581.422 C 38.202 580.592 39.079 580.002 40 579.762 C 40.479 579.622 40.969 579.582 41.536 579.642 C 42.021 579.692 42.504 579.872 42.897 580.142 C 43.654 580.652 44.156 581.562 44.208 582.542 C 44.253 583.002 44.207 583.452 44.065 583.902 C 43.991 584.162 43.916 584.362 43.816 584.542 C 43.769 584.642 43.718 584.732 43.647 584.842 C 43.614 584.902 43.553 584.992 43.497 585.072 L 43.447 585.152 C 43.363 585.272 43.303 585.422 43.276 585.572 C 43.169 586.212 43.652 586.832 44.346 586.942 C 45.048 587.062 45.706 586.632 45.812 586.002 L 45.888 585.582 C 45.921 585.412 45.942 585.252 45.963 585.082 C 45.99 584.782 46.015 584.482 46.015 584.162 L 46.015 584.162 L 46.016 584.092 C 46.016 583.842 45.996 583.572 45.952 583.232 C 45.92 582.942 45.863 582.642 45.774 582.312 C 45.371 580.932 44.649 579.882 43.633 579.172 C 43.043 578.772 42.379 578.522 41.656 578.432 C 40.989 578.352 40.245 578.402 39.619 578.582 C 38.1 578.992 37.081 579.942 36.495 580.672 C 35.781 581.552 35.258 582.592 34.942 583.752 C 34.671 584.732 34.529 585.782 34.498 587.042 L 34.496 587.342 C 34.496 588.432 34.598 589.422 34.808 590.372 C 35.097 591.632 35.528 592.682 36.127 593.592 C 36.835 594.682 37.847 595.562 38.976 596.082 C 40.209 596.652 41.597 596.852 42.882 596.662 C 44.081 596.492 45.28 595.972 46.346 595.152 C 47.244 594.472 48.053 593.592 48.752 592.552 C 49.973 590.722 50.782 588.602 51.155 586.232 C 51.508 583.942 51.413 581.642 50.875 579.512 C 50.244 577.022 49.096 574.972 47.469 573.432 C 46.523 572.532 45.405 571.852 44.237 571.472 C 43.063 571.072 41.728 570.962 40.374 571.122 C 37.453 571.492 35.255 573.092 33.927 574.362 C 32.37 575.862 31.106 577.722 30.17 579.902 C 29.34 581.842 28.82 583.962 28.623 586.192 C 28.431 588.392 28.537 590.582 28.943 592.682 C 29.393 594.972 30.186 597.082 31.304 598.942 C 32.655 601.182 34.367 602.892 36.392 604.012 C 37.538 604.642 38.762 605.062 40.03 605.272 C 41.354 605.482 42.633 605.522 43.829 605.382 C 46.231 605.122 48.589 604.182 50.646 602.652 C 52.463 601.312 54.057 599.562 55.386 597.472 C 56.561 595.612 57.505 593.512 58.192 591.212 C 59.111 588.092 59.521 584.772 59.424 581.472 C 59.949 582.952 60.598 584.382 61.477 585.682 C 63.717 589.002 67.687 591.362 71.704 589.902 C 73.261 589.342 74.591 588.322 75.393 586.842 C 76.391 585.002 76.235 582.622 75.491 580.722 C 74.758 578.852 73.313 577.092 71.442 576.272 C 70.656 575.932 69.577 575.692 68.786 576.142 C 67.475 576.902 67.856 578.772 68.653 579.522 C 69.411 580.242 70.482 580.322 71.05 579.722 C 71.62 579.122 71.463 578.052 70.706 577.342 C 70.253 576.912 69.685 576.712 69.183 576.752 C 69.471 576.602 69.822 576.602 70.167 576.652 C 72.209 576.952 73.844 578.952 74.555 580.762 C 75.281 582.622 75.206 585.102 73.61 586.502 C 72.013 587.902 69.414 587.462 67.602 586.752 C 63.312 585.082 60.629 580.622 59.22 576.452 C 58.477 574.262 57.831 571.472 57.114 569.172 C 58.436 569.412 59.843 569.492 61.346 569.392 C 63.13 569.232 64.998 568.792 66.903 568.092 C 67.759 568.772 68.703 569.312 69.709 569.712 C 71.752 570.542 74.009 570.822 76.26 570.552 C 78.755 570.222 80.825 569.332 82.412 567.902 C 83.227 567.162 83.925 566.202 84.548 564.962 C 85.114 563.822 85.488 562.622 85.661 561.382 C 85.84 560.122 85.8 558.802 85.546 557.582 Z" fill="#414042" stroke="none"/><path d="M 359.795 557.612 C 361.47 558.582 363.186 559.622 365.025 560.782 C 366.886 561.982 368.735 563.212 370.518 564.442 C 372.452 565.792 374.22 566.812 375.936 567.552 C 375.352 567.942 374.727 568.272 374.071 568.542 C 372.217 569.302 370.145 569.572 368.071 569.322 C 365.843 569.042 363.921 568.232 362.517 566.972 C 361.813 566.332 361.181 565.462 360.64 564.392 C 360.134 563.382 359.798 562.312 359.64 561.202 C 359.463 560.022 359.517 558.792 359.795 557.612 Z M 361.012 554.772 C 361.473 554.062 362.041 553.402 362.7 552.812 C 362.984 553.012 363.273 553.202 363.566 553.382 C 365.463 554.512 367.439 555.502 369.617 556.392 C 371.813 557.222 373.971 557.792 376.031 558.102 C 377.34 558.312 378.712 558.432 380.115 558.472 C 380.277 559.502 380.267 560.492 380.085 561.442 C 379.89 562.482 379.47 563.542 378.871 564.512 C 378.553 565.032 378.183 565.522 377.771 565.972 C 377.538 565.892 377.306 565.812 377.075 565.722 C 375.14 564.962 373.244 563.982 371.438 562.812 C 369.478 561.592 367.624 560.472 365.77 559.392 C 364.26 558.492 362.282 557.342 360.242 556.232 C 360.455 555.712 360.713 555.222 361.012 554.772 Z M 361.194 548.572 C 361.005 548.092 360.95 547.622 361.037 547.212 C 361.08 546.992 361.163 546.792 361.254 546.672 C 361.348 546.542 361.512 546.402 361.712 546.282 C 362.095 546.062 362.555 545.882 363.08 545.762 C 364.006 545.562 365.053 545.532 366.155 545.662 C 367.96 545.892 369.761 546.522 371.52 547.562 C 369.359 548.022 367.331 548.712 365.488 549.602 C 364.604 550.012 363.792 550.482 363.069 550.992 C 362.656 550.622 362.302 550.262 361.994 549.882 C 361.621 549.422 361.359 549.002 361.194 548.572 Z M 373.092 548.562 C 374.567 549.592 375.896 550.812 377.042 552.182 C 378.32 553.742 379.226 555.332 379.737 556.912 L 379.649 556.912 C 378.473 556.912 377.315 556.852 376.212 556.712 C 374.038 556.432 371.97 555.902 370.067 555.122 C 369.13 554.742 368.178 554.292 367.157 553.732 C 366.087 553.152 365.179 552.602 364.384 552.032 C 364.271 551.952 364.158 551.872 364.046 551.792 C 364.582 551.442 365.19 551.102 365.966 550.732 C 367.863 549.832 369.933 549.162 372.122 548.732 C 372.444 548.672 372.767 548.612 373.092 548.562 Z M 378.528 548.242 C 380.828 548.342 383.022 548.752 385.055 549.462 C 385.757 551.292 386.677 553.002 387.832 554.532 C 388.154 554.962 388.5 555.382 388.858 555.792 C 385.999 556.432 383.43 556.782 381.017 556.882 C 380.484 555.002 379.465 553.132 377.984 551.322 C 377.09 550.232 376.075 549.222 374.959 548.322 C 376.157 548.212 377.347 548.182 378.528 548.242 Z M 384.146 534.792 C 383.111 533.032 382.474 531.232 382.245 529.422 C 382.113 528.322 382.15 527.272 382.351 526.352 C 382.469 525.822 382.643 525.362 382.868 524.982 C 382.989 524.782 383.126 524.622 383.254 524.522 C 383.374 524.432 383.58 524.352 383.796 524.312 C 384.208 524.222 384.678 524.272 385.16 524.462 C 385.584 524.632 386.012 524.892 386.47 525.262 C 386.847 525.572 387.212 525.932 387.58 526.342 C 387.068 527.062 386.598 527.872 386.183 528.762 C 385.299 530.602 384.613 532.632 384.146 534.792 Z M 388.375 527.312 C 388.458 527.432 388.54 527.542 388.62 527.652 C 389.184 528.452 389.74 529.362 390.321 530.432 C 390.875 531.452 391.331 532.402 391.712 533.342 C 392.485 535.242 393.021 537.312 393.302 539.482 C 393.433 540.582 393.499 541.742 393.499 542.922 L 393.499 543.012 C 391.92 542.492 390.331 541.592 388.771 540.312 C 387.393 539.162 386.173 537.842 385.147 536.362 C 385.2 536.042 385.258 535.712 385.322 535.392 C 385.747 533.202 386.418 531.132 387.315 529.232 C 387.691 528.462 388.025 527.852 388.375 527.312 Z M 391.358 524.282 C 391.811 523.982 392.299 523.722 392.815 523.512 C 393.924 525.552 395.081 527.532 395.975 529.042 C 397.056 530.892 398.176 532.752 399.401 534.712 C 400.568 536.512 401.545 538.412 402.305 540.342 C 402.394 540.572 402.481 540.812 402.563 541.042 C 402.111 541.452 401.62 541.822 401.1 542.142 C 400.131 542.742 399.068 543.162 398.026 543.352 C 397.081 543.542 396.084 543.552 395.061 543.382 C 395.02 541.982 394.895 540.612 394.689 539.302 C 394.379 537.242 393.805 535.082 392.98 532.892 C 392.084 530.712 391.101 528.732 389.968 526.842 C 389.787 526.542 389.599 526.252 389.401 525.972 C 389.989 525.312 390.646 524.742 391.358 524.282 Z M 397.787 522.912 C 398.895 523.072 399.968 523.402 400.979 523.912 C 402.052 524.452 402.921 525.082 403.56 525.792 C 404.819 527.192 405.631 529.112 405.905 531.342 C 406.155 533.412 405.885 535.492 405.129 537.342 C 404.862 538.002 404.531 538.622 404.141 539.202 C 403.393 537.492 402.373 535.722 401.027 533.792 C 399.801 532.002 398.569 530.152 397.367 528.292 C 396.205 526.452 395.168 524.742 394.202 523.062 C 395.375 522.792 396.607 522.732 397.787 522.912 Z M 403.5 551.262 C 402.8 551.492 402.096 551.722 401.413 551.962 L 395.154 554.062 C 394.937 554.142 394.719 554.202 394.502 554.272 C 394.367 554.102 394.215 553.942 394.066 553.782 C 394.152 553.342 394.249 552.902 394.325 552.472 C 394.82 549.642 395.066 547.072 395.076 544.622 C 396.164 544.762 397.263 544.732 398.277 544.542 C 399.504 544.302 400.691 543.832 401.808 543.132 C 402.21 542.882 402.601 542.602 402.972 542.302 C 403.364 543.642 403.621 544.992 403.735 546.302 C 403.795 546.882 403.825 547.472 403.825 548.042 C 403.825 549.142 403.716 550.222 403.5 551.262 Z M 402.006 555.092 C 401.409 556.042 400.699 556.802 399.893 557.362 C 398.975 558.012 397.955 558.402 396.943 558.512 C 396.797 558.532 396.648 558.532 396.5 558.532 C 396.395 557.882 396.207 557.242 395.938 556.622 C 395.883 556.492 395.825 556.362 395.765 556.242 C 397.706 555.712 399.767 555.082 402.051 554.322 L 402.493 554.182 C 402.338 554.492 402.188 554.802 402.006 555.092 Z M 395.244 560.352 C 395.135 561.372 394.737 562.392 394.093 563.312 C 393.533 564.112 392.768 564.822 391.818 565.422 C 391.461 565.642 391.075 565.842 390.679 566.032 L 390.906 565.322 C 391.667 563.042 392.298 560.972 392.829 559.032 C 392.953 559.092 393.08 559.152 393.209 559.212 C 393.875 559.502 394.567 559.682 395.266 559.782 C 395.265 559.972 395.264 560.172 395.244 560.352 Z M 390.508 552.362 C 390.99 552.742 391.505 553.172 392.017 553.642 C 391.898 554.112 391.768 554.612 391.633 555.102 C 391.206 555.222 390.781 555.332 390.367 555.432 C 389.847 554.872 389.361 554.312 388.946 553.782 C 388.102 552.672 387.391 551.452 386.797 550.162 C 388.123 550.762 389.37 551.492 390.508 552.362 Z M 394.444 556.592 C 394.552 556.802 394.652 557.002 394.741 557.212 C 394.909 557.602 395.026 558.012 395.115 558.412 C 394.671 558.322 394.229 558.192 393.799 558.012 C 393.591 557.922 393.383 557.822 393.178 557.712 C 393.254 557.412 393.313 557.142 393.385 556.842 C 393.74 556.762 394.081 556.682 394.444 556.592 Z M 392.375 552.152 C 392.012 551.842 391.645 551.532 391.265 551.242 C 389.703 550.072 387.958 549.132 386.086 548.432 C 385.357 546.372 384.926 544.142 384.827 541.802 C 384.772 540.622 384.802 539.432 384.911 538.232 C 385.813 539.342 386.817 540.362 387.905 541.252 C 389.716 542.732 391.587 543.752 393.47 544.292 C 393.371 546.712 393.012 549.282 392.375 552.152 Z M 388.549 564.682 C 388.292 565.422 388.04 566.182 387.789 566.952 C 386.806 567.142 385.795 567.242 384.768 567.242 C 384.197 567.242 383.614 567.212 383.032 567.152 C 381.717 567.032 380.373 566.782 379.031 566.382 C 379.334 566.012 379.611 565.622 379.859 565.222 C 380.56 564.102 381.033 562.922 381.268 561.692 C 381.466 560.682 381.493 559.582 381.351 558.492 C 383.803 558.482 386.374 558.232 389.203 557.742 C 389.638 557.662 390.084 557.562 390.523 557.472 C 390.635 557.572 390.746 557.682 390.859 557.772 C 390.791 557.992 390.723 558.212 390.653 558.422 L 388.549 564.682 Z M 358.529 561.382 C 358.703 562.622 359.077 563.822 359.643 564.962 C 360.266 566.202 360.964 567.162 361.779 567.902 C 363.366 569.332 365.436 570.222 367.931 570.552 C 370.182 570.822 372.439 570.542 374.482 569.712 C 375.488 569.312 376.432 568.772 377.288 568.092 C 379.193 568.792 381.061 569.232 382.845 569.392 C 384.348 569.492 385.754 569.412 387.076 569.172 C 386.359 571.472 385.713 574.262 384.971 576.452 C 383.562 580.622 380.879 585.082 376.588 586.752 C 374.777 587.462 372.177 587.902 370.581 586.502 C 368.984 585.102 368.91 582.622 369.636 580.762 C 370.347 578.952 371.981 576.952 374.023 576.652 C 374.369 576.602 374.72 576.602 375.008 576.752 C 374.505 576.712 373.938 576.912 373.485 577.342 C 372.728 578.052 372.571 579.122 373.141 579.722 C 373.709 580.322 374.78 580.242 375.538 579.522 C 376.335 578.772 376.716 576.902 375.405 576.142 C 374.613 575.692 373.535 575.932 372.749 576.272 C 370.877 577.092 369.432 578.852 368.7 580.722 C 367.956 582.622 367.8 585.002 368.798 586.842 C 369.599 588.322 370.93 589.342 372.487 589.902 C 376.503 591.362 380.474 589.002 382.713 585.682 C 383.593 584.382 384.242 582.952 384.767 581.472 C 384.669 584.772 385.08 588.092 385.999 591.212 C 386.686 593.512 387.63 595.612 388.805 597.472 C 390.133 599.562 391.727 601.312 393.544 602.652 C 395.602 604.182 397.96 605.122 400.362 605.382 C 401.558 605.522 402.837 605.482 404.161 605.272 C 405.429 605.062 406.653 604.642 407.799 604.012 C 409.824 602.892 411.536 601.182 412.887 598.942 C 414.005 597.082 414.798 594.972 415.248 592.682 C 415.654 590.582 415.76 588.392 415.567 586.192 C 415.371 583.962 414.851 581.842 414.021 579.902 C 413.085 577.722 411.82 575.862 410.264 574.362 C 408.935 573.092 406.738 571.492 403.816 571.122 C 402.462 570.962 401.127 571.072 399.954 571.472 C 398.786 571.852 397.668 572.532 396.722 573.432 C 395.095 574.972 393.947 577.022 393.316 579.512 C 392.778 581.642 392.683 583.942 393.036 586.232 C 393.409 588.602 394.218 590.722 395.439 592.552 C 396.138 593.592 396.947 594.472 397.845 595.152 C 398.911 595.972 400.109 596.492 401.309 596.662 C 402.594 596.852 403.981 596.652 405.215 596.082 C 406.344 595.562 407.355 594.682 408.064 593.592 C 408.663 592.682 409.094 591.632 409.383 590.372 C 409.593 589.422 409.695 588.432 409.695 587.342 L 409.692 587.042 C 409.662 585.782 409.52 584.732 409.249 583.752 C 408.933 582.592 408.41 581.552 407.696 580.672 C 407.109 579.942 406.091 578.992 404.572 578.582 C 403.946 578.402 403.202 578.352 402.535 578.432 C 401.811 578.522 401.147 578.772 400.558 579.172 C 399.542 579.882 398.82 580.932 398.417 582.312 C 398.328 582.642 398.271 582.942 398.239 583.232 C 398.195 583.572 398.175 583.842 398.175 584.092 L 398.176 584.162 L 398.176 584.162 C 398.176 584.482 398.201 584.782 398.227 585.082 C 398.249 585.252 398.27 585.412 398.303 585.582 L 398.379 586.002 C 398.485 586.632 399.142 587.062 399.845 586.942 C 400.539 586.832 401.022 586.212 400.915 585.572 C 400.888 585.422 400.828 585.272 400.743 585.152 L 400.693 585.072 C 400.638 584.992 400.577 584.902 400.543 584.842 C 400.472 584.732 400.421 584.642 400.374 584.542 C 400.275 584.362 400.2 584.162 400.125 583.902 C 399.984 583.452 399.938 583.002 399.982 582.542 C 400.035 581.562 400.537 580.652 401.294 580.142 C 401.687 579.872 402.169 579.692 402.655 579.642 C 403.222 579.582 403.712 579.622 404.19 579.762 C 405.111 580.002 405.989 580.592 406.663 581.422 C 407.267 582.162 407.717 583.052 408.002 584.082 C 408.242 584.942 408.376 585.922 408.412 587.092 L 408.415 587.382 C 408.415 588.392 408.322 589.292 408.134 590.142 C 407.891 591.232 407.504 592.192 406.986 592.982 C 406.39 593.902 405.589 594.602 404.67 595.022 C 403.672 595.482 402.555 595.652 401.521 595.492 C 400.533 595.352 399.537 594.922 398.636 594.232 C 397.848 593.632 397.125 592.852 396.486 591.912 C 395.354 590.222 394.6 588.252 394.247 586.052 C 393.914 583.922 393.995 581.762 394.491 579.762 C 395.074 577.472 396.109 575.602 397.567 574.222 C 398.386 573.452 399.346 572.872 400.344 572.542 C 401.335 572.212 402.474 572.112 403.64 572.262 C 405.655 572.512 407.688 573.552 409.363 575.182 C 410.813 576.582 411.983 578.322 412.846 580.352 C 413.627 582.192 414.111 584.202 414.286 586.312 C 414.468 588.392 414.356 590.482 413.966 592.482 C 413.532 594.652 412.781 596.632 411.736 598.362 C 410.517 600.372 408.925 601.952 407.134 602.932 C 406.158 603.462 405.064 603.842 403.973 604.012 C 402.848 604.192 401.702 604.202 400.567 604.062 C 398.435 603.792 396.347 602.912 394.528 601.502 C 392.922 600.282 391.514 598.642 390.34 596.632 C 389.311 594.862 388.508 592.872 387.953 590.712 C 387.434 588.682 387.135 586.562 387.067 584.382 C 387.019 582.302 387.159 580.152 387.495 577.972 C 387.994 574.742 388.943 571.522 389.938 568.372 C 391.578 567.702 393.695 566.472 395.229 564.192 C 395.984 563.072 396.445 561.782 396.56 560.492 C 396.583 560.282 396.581 560.062 396.584 559.852 C 396.75 559.842 396.917 559.852 397.083 559.832 C 398.373 559.712 399.653 559.252 400.782 558.502 C 402.953 557.032 404.183 555.032 404.868 553.422 C 408.093 552.402 411.395 551.422 414.706 550.912 C 416.881 550.572 419.031 550.432 421.107 550.482 C 423.287 550.552 425.417 550.852 427.438 551.372 C 429.6 551.922 431.593 552.722 433.364 553.752 C 435.375 554.932 437.014 556.332 438.235 557.942 C 439.638 559.762 440.521 561.852 440.79 563.982 C 440.935 565.112 440.92 566.262 440.743 567.392 C 440.57 568.482 440.195 569.572 439.657 570.552 C 438.677 572.342 437.097 573.932 435.087 575.152 C 433.359 576.192 431.382 576.942 429.211 577.382 C 427.21 577.772 425.123 577.882 423.044 577.702 C 420.93 577.522 418.925 577.042 417.085 576.262 C 415.051 575.402 413.311 574.222 411.912 572.772 C 410.284 571.102 409.245 569.072 408.987 567.052 C 408.843 565.892 408.94 564.752 409.271 563.762 C 409.6 562.762 410.182 561.802 410.957 560.982 C 412.334 559.522 414.197 558.492 416.493 557.902 C 418.491 557.412 420.653 557.332 422.777 557.662 C 424.981 558.012 426.955 558.772 428.641 559.902 C 429.578 560.542 430.358 561.262 430.96 562.052 C 431.646 562.952 432.084 563.952 432.226 564.932 C 432.381 565.972 432.213 567.082 431.753 568.082 C 431.334 569.002 430.628 569.802 429.709 570.402 C 428.919 570.922 427.965 571.302 426.874 571.552 C 426.02 571.732 425.116 571.832 424.113 571.832 L 423.82 571.822 C 422.654 571.792 421.668 571.652 420.807 571.412 C 419.783 571.132 418.889 570.682 418.146 570.082 C 417.32 569.402 416.73 568.522 416.486 567.602 C 416.352 567.122 416.314 566.632 416.37 566.072 C 416.426 565.582 416.603 565.102 416.869 564.712 C 417.379 563.952 418.295 563.452 419.271 563.392 C 419.726 563.352 420.181 563.402 420.631 563.542 C 420.895 563.612 421.088 563.692 421.271 563.792 C 421.369 563.832 421.461 563.882 421.569 563.962 C 421.631 563.992 421.722 564.052 421.804 564.112 L 421.878 564.162 C 422.004 564.242 422.149 564.302 422.301 564.332 C 422.946 564.432 423.56 563.952 423.674 563.262 C 423.788 562.552 423.361 561.902 422.727 561.792 L 422.306 561.722 C 422.139 561.682 421.979 561.662 421.812 561.642 C 421.513 561.612 421.209 561.592 420.892 561.592 C 420.891 561.592 420.891 561.592 420.891 561.592 L 420.817 561.592 C 420.568 561.592 420.303 561.612 419.961 561.652 C 419.668 561.682 419.368 561.742 419.038 561.832 C 417.666 562.232 416.612 562.952 415.905 563.972 C 415.5 564.562 415.249 565.222 415.157 565.952 C 415.077 566.612 415.133 567.362 415.31 567.982 C 415.724 569.502 416.675 570.522 417.4 571.112 C 418.282 571.822 419.318 572.352 420.479 572.662 C 421.461 572.932 422.508 573.072 423.774 573.102 L 424.072 573.112 C 425.157 573.112 426.147 573.012 427.099 572.802 C 428.356 572.512 429.41 572.082 430.319 571.482 C 431.41 570.772 432.296 569.762 432.815 568.632 C 433.381 567.392 433.586 566.012 433.394 564.722 C 433.22 563.522 432.697 562.322 431.882 561.262 C 431.196 560.362 430.322 559.552 429.283 558.852 C 427.454 557.632 425.328 556.822 422.962 556.452 C 420.675 556.102 418.371 556.192 416.241 556.732 C 413.751 557.362 411.706 558.512 410.16 560.132 C 409.263 561.082 408.584 562.202 408.196 563.372 C 407.805 564.542 407.687 565.872 407.852 567.232 C 408.219 570.152 409.819 572.352 411.096 573.682 C 412.591 575.232 414.456 576.502 416.635 577.432 C 418.572 578.262 420.689 578.782 422.926 578.982 C 425.121 579.172 427.313 579.072 429.406 578.662 C 431.703 578.212 433.813 577.422 435.676 576.302 C 437.915 574.952 439.618 573.242 440.741 571.212 C 441.373 570.062 441.796 568.842 441.999 567.572 C 442.211 566.252 442.248 564.972 442.109 563.772 C 441.849 561.372 440.907 559.012 439.385 556.962 C 438.038 555.142 436.296 553.552 434.207 552.222 C 432.346 551.042 430.24 550.102 427.945 549.412 C 424.796 548.492 421.461 548.082 418.143 548.182 C 419.576 547.662 420.957 547.032 422.223 546.172 C 425.544 543.932 427.9 539.962 426.445 535.942 C 425.883 534.392 424.86 533.062 423.385 532.262 C 421.545 531.262 419.162 531.412 417.265 532.162 C 415.395 532.892 413.632 534.332 412.815 536.212 C 412.472 536.992 412.23 538.072 412.684 538.862 C 413.438 540.172 415.316 539.792 416.068 538.992 C 416.78 538.242 416.868 537.172 416.264 536.602 C 415.66 536.032 414.593 536.182 413.882 536.942 C 413.455 537.392 413.257 537.962 413.292 538.472 C 413.146 538.182 413.146 537.832 413.197 537.482 C 413.498 535.442 415.488 533.802 417.305 533.092 C 419.158 532.372 421.639 532.442 423.039 534.042 C 424.442 535.632 423.999 538.232 423.292 540.052 C 421.625 544.342 417.163 547.022 412.997 548.432 C 410.804 549.172 408.025 549.812 405.727 550.532 C 405.989 549.162 406.085 547.692 405.974 546.112 C 405.815 544.332 405.38 542.462 404.682 540.562 C 405.355 539.702 405.901 538.762 406.302 537.752 C 407.124 535.712 407.404 533.452 407.133 531.202 C 406.811 528.702 405.919 526.642 404.486 525.052 C 403.748 524.232 402.788 523.532 401.553 522.912 C 400.412 522.352 399.207 521.972 397.973 521.802 C 396.706 521.622 395.388 521.662 394.164 521.912 C 393.982 521.952 392.852 522.152 392.261 522.492 C 392.263 522.492 392.266 522.502 392.268 522.502 C 391.716 522.732 391.182 523.012 390.679 523.332 C 389.959 523.792 389.285 524.352 388.669 525.012 C 388.356 524.632 388.034 524.302 387.692 523.982 C 387.123 523.472 386.542 523.092 385.916 522.822 C 385.1 522.472 384.202 522.372 383.387 522.542 C 383.164 522.582 382.94 522.642 382.726 522.732 C 382.603 522.782 382.536 522.802 382.384 522.892 C 382.368 522.892 382.312 522.922 382.214 522.992 C 382.154 523.022 382.109 523.062 382.063 523.092 C 381.617 523.442 381.381 523.782 381.187 524.102 C 380.86 524.652 380.643 525.262 380.503 526.012 C 380.414 526.492 380.371 526.972 380.371 527.502 C 380.371 528.152 380.436 528.832 380.579 529.632 C 380.792 530.742 381.159 531.862 381.67 532.972 C 381.89 533.472 382.152 534.002 382.445 534.522 C 382.75 535.082 383.042 535.562 383.336 536.012 C 383.482 536.242 383.637 536.482 383.797 536.722 C 383.548 538.432 383.453 540.152 383.521 541.852 C 383.602 543.972 383.951 545.992 384.526 547.902 C 382.645 547.352 380.657 547.012 378.584 546.932 C 376.884 546.872 375.164 546.962 373.45 547.212 C 373.212 547.052 372.973 546.892 372.737 546.752 C 372.293 546.452 371.807 546.162 371.251 545.862 C 370.729 545.562 370.205 545.302 369.699 545.082 C 368.588 544.572 367.467 544.202 366.364 543.992 C 365.558 543.852 364.878 543.782 364.227 543.782 C 363.704 543.782 363.217 543.832 362.739 543.922 C 361.991 544.062 361.386 544.272 360.831 544.602 C 360.512 544.792 360.172 545.032 359.822 545.482 C 359.786 545.522 359.752 545.572 359.718 545.632 C 359.651 545.722 359.624 545.782 359.616 545.802 C 359.535 545.952 359.508 546.012 359.461 546.142 C 359.375 546.352 359.31 546.582 359.268 546.802 C 359.1 547.612 359.203 548.512 359.555 549.332 C 359.821 549.952 360.2 550.532 360.715 551.102 C 361.029 551.452 361.366 551.772 361.738 552.082 C 361.084 552.702 360.523 553.372 360.066 554.092 C 359.743 554.592 359.462 555.132 359.23 555.682 C 359.202 555.662 358.761 557.032 358.771 557.032 C 358.724 557.212 358.682 557.392 358.645 557.582 C 358.391 558.802 358.351 560.122 358.529 561.382 Z" fill="#414042" stroke="none"/><path d="M 365.227 28.462 C 364 28.462 362.403 29.082 360.715 29.752 C 360.073 30.002 359.196 30.262 358.043 30.482 L 86.147 30.482 C 84.995 30.262 84.118 30.002 83.476 29.752 C 81.788 29.082 80.191 28.462 78.964 28.462 C 77.159 28.462 75.69 29.932 75.69 31.732 C 75.69 33.542 77.159 35.012 78.964 35.012 C 80.191 35.012 81.788 34.382 83.476 33.722 C 84.118 33.462 84.995 33.212 86.148 32.982 L 358.043 32.982 C 359.196 33.212 360.072 33.462 360.715 33.722 C 362.403 34.382 364 35.012 365.227 35.012 C 367.031 35.012 368.501 33.542 368.501 31.732 C 368.501 29.932 367.031 28.462 365.227 28.462 Z" fill="#414042" stroke="none"/><path d="M 365.227 572.292 C 364 572.292 362.403 572.922 360.715 573.582 C 360.072 573.832 359.196 574.092 358.042 574.322 L 86.148 574.322 C 84.995 574.092 84.119 573.832 83.476 573.582 C 81.788 572.922 80.191 572.292 78.964 572.292 C 77.159 572.292 75.69 573.762 75.69 575.572 C 75.69 577.372 77.159 578.842 78.964 578.842 C 80.191 578.842 81.788 578.222 83.476 577.552 C 84.118 577.302 84.995 577.042 86.147 576.822 L 358.043 576.822 C 359.196 577.042 360.073 577.302 360.715 577.552 C 362.403 578.222 364 578.842 365.227 578.842 C 367.031 578.842 368.501 577.372 368.501 575.572 C 368.501 573.762 367.031 572.292 365.227 572.292 Z" fill="#414042" stroke="none"/><path d="M 33.453 456.732 L 33.453 133.922 C 33.68 105.482 33.935 83.922 34.187 83.282 C 34.85 81.592 35.477 79.992 35.477 78.772 C 35.477 76.962 34.007 75.492 32.203 75.492 C 30.397 75.492 28.928 76.962 28.928 78.772 C 28.928 79.992 29.555 81.592 30.218 83.282 C 30.471 83.922 30.726 105.482 30.953 133.912 L 30.953 456.752 C 30.726 493.602 30.471 523.542 30.218 524.182 C 29.555 525.872 28.928 527.472 28.928 528.692 C 28.928 530.502 30.397 531.972 32.203 531.972 C 34.007 531.972 35.477 530.502 35.477 528.692 C 35.477 527.472 34.85 525.872 34.187 524.182 C 33.935 523.542 33.68 493.592 33.453 456.732 Z" fill="#414042" stroke="none"/><path d="M 414.071 456.752 L 414.071 133.912 C 414.298 105.482 414.553 83.922 414.806 83.282 C 415.47 81.592 416.096 79.992 416.096 78.772 C 416.096 76.962 414.627 75.492 412.821 75.492 C 411.017 75.492 409.547 76.962 409.547 78.772 C 409.547 79.992 410.174 81.592 410.836 83.282 C 411.089 83.922 411.345 105.492 411.571 133.932 L 411.571 456.722 C 411.345 493.582 411.089 523.542 410.836 524.182 C 410.174 525.872 409.547 527.472 409.547 528.692 C 409.547 530.502 411.017 531.972 412.821 531.972 C 414.627 531.972 416.096 530.502 416.096 528.692 C 416.096 527.472 415.47 525.872 414.806 524.182 C 414.553 523.542 414.298 493.602 414.071 456.752 Z" fill="#414042" stroke="none"/>
</svg>
