<?xml version="1.0" encoding="UTF-8"?>
<svg xmlns="http://www.w3.org/2000/svg" width="433.422" height="598.415" viewBox="0 0 433.422 598.415">
  <path d="M 83.093 47.824 C 83.063 48.034 82.993 48.298 82.893 48.522 C 82.473 49.457 81.483 50.183 80.403 50.644 C 78.203 51.584 75.593 51.619 73.143 51.289 C 69.443 50.795 65.903 49.266 62.973 46.958 C 64.673 46.191 66.363 45.433 68.083 44.766 C 70.473 43.801 72.963 43.302 75.473 43.439 C 77.933 43.59 80.563 44.234 82.263 45.799 C 82.663 46.191 82.953 46.643 83.063 47.102 C 83.113 47.346 83.123 47.525 83.093 47.824 Z M 53.433 49.874 C 52.863 50.053 52.283 50.216 51.703 50.364 C 52.003 48.889 52.213 47.393 52.283 45.879 C 52.523 43.25 51.803 40.41 50.143 38.272 C 48.983 36.734 47.353 35.482 45.503 34.855 C 46.063 33.476 46.663 32.107 47.283 30.74 C 47.933 31.437 48.603 32.11 49.323 32.734 C 50.883 34.086 52.603 35.27 54.443 36.237 C 54.603 36.966 54.793 37.687 55.033 38.392 C 55.903 40.949 57.353 43.268 59.103 45.284 C 59.623 45.879 60.173 46.435 60.753 46.972 C 58.343 48.056 55.933 49.097 53.433 49.874 Z M 51.373 45.845 C 51.303 47.437 51.073 49.021 50.723 50.585 C 49.143 50.937 47.543 51.179 45.933 51.248 C 43.393 51.475 40.893 50.808 38.913 49.29 C 38.323 48.845 37.793 48.326 37.323 47.761 C 37.593 47.954 37.873 48.13 38.163 48.28 C 39.423 48.917 40.913 49.039 42.263 48.644 C 43.593 48.267 44.803 47.329 45.513 46.139 C 45.613 45.97 45.693 45.795 45.773 45.615 C 45.923 45.547 46.083 45.471 46.223 45.384 C 47.413 44.678 48.353 43.469 48.733 42.13 C 49.123 40.787 49.003 39.292 48.363 38.039 C 48.223 37.75 48.043 37.475 47.863 37.21 C 48.433 37.688 48.963 38.227 49.423 38.822 C 50.933 40.804 51.603 43.312 51.373 45.845 Z M 50.003 53.352 C 49.223 55.853 48.183 58.262 47.103 60.669 C 46.563 60.092 46.003 59.534 45.413 59.019 C 43.403 57.27 41.083 55.819 38.523 54.948 C 37.763 54.685 36.983 54.489 36.193 54.326 C 35.243 52.51 34.073 50.805 32.733 49.264 C 32.113 48.547 31.443 47.875 30.743 47.227 C 32.143 46.598 33.543 45.983 34.953 45.407 C 35.583 47.244 36.833 48.86 38.353 50.015 C 40.493 51.676 43.333 52.399 45.963 52.156 C 47.503 52.089 49.013 51.872 50.503 51.561 C 50.353 52.162 50.183 52.76 50.003 53.352 Z M 51.413 73.058 C 51.743 75.51 51.713 78.115 50.773 80.315 C 50.313 81.396 49.583 82.385 48.653 82.808 C 48.423 82.912 48.163 82.982 47.953 83.007 C 47.653 83.037 47.473 83.029 47.233 82.976 C 46.773 82.872 46.323 82.573 45.923 82.175 C 44.363 80.478 43.713 77.844 43.563 75.391 C 43.433 72.876 43.923 70.387 44.893 68 C 45.563 66.279 46.323 64.586 47.083 62.891 C 49.393 65.822 50.923 69.36 51.413 73.058 Z M 35.423 43.321 C 35.413 43.235 35.393 43.152 35.393 43.065 C 35.273 41.137 35.943 39.194 37.163 37.708 C 38.703 36.084 40.963 35.169 43.193 35.306 C 43.343 35.313 43.493 35.339 43.643 35.355 C 43.793 35.39 43.933 35.44 44.083 35.486 C 43.593 36.722 43.133 37.971 42.733 39.25 C 42.703 39.352 42.683 39.458 42.643 39.56 C 42.633 39.559 42.623 39.554 42.613 39.553 C 42.583 39.549 40.473 39.108 39.723 41.208 L 39.723 41.201 C 39.713 41.206 39.713 41.211 39.713 41.216 C 39.663 41.412 39.623 41.615 39.613 41.829 C 39.613 41.832 39.613 41.835 39.613 41.839 C 39.613 41.854 39.613 41.868 39.613 41.885 C 39.613 41.918 39.623 41.949 39.623 41.981 C 39.613 42.149 39.613 42.316 39.643 42.484 C 39.643 42.511 39.653 42.536 39.653 42.562 C 39.523 42.602 39.383 42.637 39.253 42.679 C 38.013 43.066 36.803 43.513 35.603 43.982 C 35.533 43.764 35.463 43.545 35.423 43.321 Z M 42.413 44.965 C 41.933 44.768 41.473 44.47 41.093 44.099 C 41.373 44.217 41.683 44.284 42.013 44.284 C 43.333 44.284 44.413 43.209 44.413 41.885 C 44.413 41.581 44.343 41.294 44.243 41.027 C 44.603 41.407 44.903 41.855 45.093 42.325 C 45.473 43.207 45.443 44.133 45.133 44.974 C 44.273 45.307 43.313 45.352 42.413 44.965 Z M 42.133 45.629 C 42.913 45.967 43.783 46.069 44.623 45.943 C 44.013 46.84 43.083 47.543 42.023 47.825 C 40.883 48.159 39.613 48.053 38.553 47.511 C 37.473 46.955 36.593 46.073 36.023 45 C 36.023 44.997 36.013 44.993 36.013 44.99 C 37.193 44.532 38.373 44.097 39.583 43.723 C 39.713 43.68 39.853 43.648 39.993 43.606 C 40.433 44.498 41.213 45.23 42.133 45.629 Z M 45.753 42.051 C 45.353 41.11 44.603 40.319 43.693 39.884 C 43.723 39.781 43.743 39.677 43.773 39.575 C 44.163 38.331 44.613 37.109 45.093 35.895 C 46.163 36.468 47.043 37.345 47.593 38.423 C 48.143 39.483 48.243 40.75 47.913 41.893 C 47.633 42.93 46.953 43.853 46.083 44.467 C 46.193 43.648 46.083 42.803 45.753 42.051 Z M 42.073 15.782 C 41.673 12.822 41.713 9.676 42.843 7.02 C 43.403 5.715 44.283 4.52 45.413 4.009 C 45.683 3.884 46.003 3.798 46.253 3.769 C 46.613 3.732 46.833 3.74 47.123 3.805 C 47.683 3.931 48.223 4.291 48.703 4.772 C 50.593 6.82 51.363 10.002 51.553 12.963 C 51.713 16 51.113 19.005 49.943 21.888 C 49.143 23.967 48.223 26.01 47.303 28.056 C 44.513 24.519 42.663 20.246 42.073 15.782 Z M 21.893 49.891 C 19.013 51.058 16.003 51.659 12.963 51.494 C 10.003 51.312 6.823 50.533 4.773 48.645 C 4.293 48.171 3.933 47.626 3.803 47.072 C 3.743 46.776 3.733 46.561 3.773 46.201 C 3.803 45.947 3.883 45.628 4.013 45.357 C 4.523 44.228 5.713 43.351 7.023 42.794 C 9.673 41.66 12.823 41.617 15.783 42.014 C 20.253 42.61 24.523 44.456 28.063 47.244 C 26.013 48.171 23.973 49.086 21.893 49.891 Z M 83.193 44.808 C 82.093 43.827 80.803 43.284 79.503 42.909 C 78.193 42.54 76.853 42.366 75.513 42.331 C 72.843 42.244 70.163 42.936 67.763 43.926 C 65.883 44.656 64.043 45.482 62.223 46.308 C 61.503 45.689 60.823 45.037 60.203 44.324 C 58.553 42.437 57.203 40.282 56.393 37.924 C 55.583 35.572 55.283 33.044 55.513 30.563 C 55.943 25.598 58.583 20.845 62.663 17.981 C 64.663 16.517 67.053 15.652 69.503 15.496 C 71.953 15.337 74.453 15.894 76.603 17.087 C 78.763 18.277 80.563 20.067 81.793 22.229 C 82.973 24.329 83.433 26.878 83.053 29.286 C 82.683 31.701 81.503 33.985 79.713 35.638 C 77.943 37.314 75.553 38.286 73.143 38.043 C 70.753 37.85 68.483 36.512 67.113 34.523 C 65.703 32.584 65.423 29.913 66.393 27.72 C 67.333 25.542 69.523 23.792 71.883 23.96 C 73.053 24.018 74.193 24.498 75.063 25.292 C 75.493 25.691 75.863 26.148 76.143 26.685 C 76.403 27.173 76.573 27.744 76.623 28.318 C 76.713 29.47 76.323 30.66 75.553 31.516 C 74.773 32.381 73.673 32.919 72.523 32.72 C 71.403 32.554 70.343 31.748 69.923 30.655 C 69.513 29.553 69.833 28.152 70.853 27.316 C 69.693 27.911 68.983 29.435 69.363 30.823 C 69.713 32.216 70.923 33.324 72.363 33.589 C 73.803 33.913 75.373 33.273 76.303 32.198 C 77.273 31.137 77.773 29.672 77.663 28.24 C 77.423 25.266 74.813 23.017 71.953 22.847 C 70.533 22.751 69.073 23.194 67.933 24.028 C 66.793 24.838 65.883 25.964 65.313 27.244 C 64.153 29.791 64.453 32.951 66.083 35.234 C 67.633 37.526 70.243 39.104 73.023 39.351 C 75.813 39.665 78.663 38.533 80.633 36.638 C 82.663 34.775 83.993 32.205 84.413 29.496 C 84.833 26.781 84.353 23.952 82.993 21.525 C 81.663 19.18 79.663 17.171 77.283 15.859 C 74.903 14.534 72.143 13.911 69.413 14.083 C 66.703 14.245 64.023 15.221 61.833 16.818 C 57.403 19.923 54.543 25.072 54.083 30.432 C 53.973 31.632 53.993 32.842 54.103 34.041 C 52.823 33.276 51.603 32.398 50.483 31.41 C 49.623 30.658 48.833 29.831 48.083 28.97 C 49.083 26.767 50.083 24.554 50.963 22.282 C 52.153 19.386 52.993 16.149 52.883 12.917 C 52.843 11.297 52.633 9.685 52.183 8.105 C 51.733 6.535 51.083 4.969 49.893 3.642 C 49.293 2.995 48.523 2.401 47.553 2.136 C 47.093 2.002 46.513 1.971 46.093 2.025 C 45.573 2.083 45.133 2.213 44.693 2.41 C 42.933 3.226 41.893 4.789 41.223 6.317 C 39.893 9.469 39.883 12.822 40.283 16.024 C 40.943 21.115 43.173 25.94 46.493 29.839 C 45.783 31.405 45.083 32.979 44.433 34.577 C 44.173 34.526 43.913 34.479 43.643 34.454 C 41.583 34.031 39.333 34.552 37.723 35.914 C 37.233 36.301 36.793 36.75 36.403 37.236 C 36.283 37.37 36.153 37.498 36.043 37.64 C 34.813 39.085 34.283 41.056 34.493 42.939 C 34.503 42.997 34.493 43.055 34.493 43.114 C 34.513 43.533 34.573 43.944 34.653 44.349 C 33.033 45.009 31.433 45.718 29.843 46.437 C 25.943 43.123 21.113 40.886 16.023 40.23 C 12.823 39.824 9.473 39.837 6.323 41.17 C 4.793 41.844 3.223 42.883 2.413 44.638 C 2.213 45.08 2.083 45.523 2.023 46.045 C 1.973 46.461 2.003 47.04 2.143 47.501 C 2.403 48.472 3.003 49.243 3.643 49.841 C 4.973 51.025 6.543 51.68 8.113 52.134 C 9.683 52.58 11.303 52.789 12.923 52.831 C 16.153 52.937 19.393 52.102 22.283 50.907 C 24.553 50.025 26.773 49.028 28.973 48.029 C 29.833 48.777 30.663 49.563 31.413 50.424 C 32.393 51.54 33.253 52.746 34.023 54.011 C 32.873 53.911 31.713 53.892 30.563 53.999 C 25.203 54.462 20.053 57.318 16.943 61.749 C 15.353 63.932 14.373 66.612 14.213 69.329 C 14.043 72.05 14.663 74.814 15.983 77.195 C 17.293 79.578 19.303 81.579 21.653 82.906 C 24.083 84.262 26.903 84.749 29.623 84.326 C 32.333 83.912 34.903 82.578 36.763 80.552 C 38.663 78.576 39.793 75.734 39.483 72.941 C 39.233 70.159 37.653 67.554 35.363 66.002 C 33.083 64.368 29.923 64.067 27.373 65.231 C 26.093 65.794 24.963 66.708 24.163 67.848 C 23.323 68.986 22.883 70.443 22.973 71.864 C 23.143 74.726 25.393 77.336 28.363 77.579 C 29.803 77.684 31.263 77.19 32.323 76.215 C 33.403 75.29 34.043 73.722 33.713 72.283 C 33.453 70.839 32.343 69.634 30.953 69.28 C 29.563 68.899 28.043 69.6 27.443 70.768 C 28.283 69.75 29.683 69.432 30.783 69.841 C 31.873 70.26 32.683 71.323 32.853 72.437 C 33.043 73.586 32.503 74.689 31.643 75.464 C 30.783 76.238 29.593 76.63 28.443 76.535 C 27.873 76.489 27.303 76.318 26.813 76.059 C 26.273 75.775 25.813 75.408 25.423 74.973 C 24.623 74.108 24.143 72.967 24.083 71.801 C 23.923 69.435 25.673 67.242 27.853 66.312 C 30.043 65.339 32.713 65.614 34.653 67.027 C 36.643 68.402 37.983 70.666 38.173 73.063 C 38.413 75.47 37.443 77.864 35.763 79.628 C 34.113 81.419 31.823 82.602 29.413 82.968 C 27.003 83.346 24.453 82.886 22.353 81.709 C 20.193 80.48 18.403 78.677 17.213 76.518 C 16.023 74.365 15.463 71.869 15.623 69.418 C 15.783 66.961 16.643 64.577 18.113 62.578 C 20.973 58.495 25.733 55.857 30.693 55.431 C 33.173 55.201 35.703 55.495 38.053 56.313 C 40.413 57.115 42.563 58.464 44.453 60.115 C 45.163 60.737 45.813 61.422 46.433 62.135 C 45.613 63.959 44.783 65.793 44.053 67.673 C 43.063 70.073 42.373 72.753 42.463 75.429 C 42.493 76.771 42.663 78.106 43.033 79.415 C 43.413 80.715 43.953 82.012 44.933 83.111 C 45.433 83.646 46.073 84.139 46.873 84.359 C 47.253 84.47 47.733 84.495 48.083 84.45 C 48.513 84.403 48.883 84.295 49.243 84.133 C 50.703 83.457 51.563 82.162 52.113 80.897 C 53.223 78.287 53.233 75.511 52.893 72.859 C 52.353 68.642 50.503 64.645 47.753 61.415 C 48.903 58.878 50.023 56.315 50.863 53.621 C 51.103 52.872 51.303 52.111 51.483 51.346 C 52.233 51.165 52.973 50.968 53.703 50.739 C 56.403 49.899 58.963 48.774 61.503 47.627 C 64.733 50.371 68.723 52.223 72.943 52.767 C 75.593 53.103 78.373 53.093 80.983 51.99 C 82.243 51.43 83.543 50.572 84.213 49.118 C 84.383 48.752 84.493 48.386 84.533 47.952 C 84.583 47.607 84.553 47.129 84.443 46.746 C 84.223 45.942 83.733 45.304 83.193 44.808 Z" fill="#414042" stroke="none"/><path d="M 429.613 47.072 C 429.493 47.626 429.133 48.171 428.653 48.645 C 426.603 50.533 423.423 51.312 420.453 51.494 C 417.423 51.659 414.413 51.058 411.533 49.891 C 409.453 49.086 407.413 48.171 405.363 47.244 C 408.903 44.456 413.173 42.61 417.643 42.014 C 420.603 41.617 423.743 41.66 426.403 42.794 C 427.703 43.351 428.903 44.228 429.413 45.357 C 429.543 45.628 429.623 45.947 429.653 46.201 C 429.693 46.561 429.683 46.776 429.613 47.072 Z M 400.693 49.264 C 399.353 50.805 398.183 52.51 397.223 54.326 C 396.443 54.489 395.663 54.685 394.903 54.948 C 392.343 55.819 390.023 57.27 388.013 59.019 C 387.413 59.534 386.863 60.092 386.323 60.669 C 385.243 58.262 384.203 55.853 383.423 53.352 C 383.233 52.76 383.073 52.162 382.913 51.561 C 384.413 51.872 385.923 52.089 387.463 52.156 C 390.093 52.399 392.923 51.676 395.063 50.015 C 396.593 48.86 397.843 47.244 398.473 45.407 C 399.883 45.983 401.283 46.598 402.683 47.227 C 401.983 47.875 401.313 48.547 400.693 49.264 Z M 388.533 68 C 389.493 70.387 389.993 72.876 389.853 75.391 C 389.703 77.844 389.063 80.478 387.503 82.175 C 387.103 82.573 386.653 82.872 386.193 82.976 C 385.953 83.029 385.773 83.037 385.473 83.007 C 385.263 82.982 385.003 82.912 384.773 82.808 C 383.843 82.385 383.113 81.396 382.653 80.315 C 381.713 78.115 381.673 75.51 382.003 73.058 C 382.503 69.36 384.033 65.822 386.343 62.891 C 387.103 64.586 387.863 66.279 388.533 68 Z M 382.053 45.845 C 381.823 43.312 382.493 40.804 384.003 38.822 C 384.463 38.227 384.983 37.688 385.563 37.21 C 385.373 37.475 385.203 37.75 385.053 38.039 C 384.423 39.292 384.303 40.787 384.693 42.13 C 385.073 43.469 386.013 44.678 387.203 45.384 C 387.343 45.471 387.493 45.547 387.653 45.615 C 387.723 45.795 387.813 45.97 387.913 46.139 C 388.613 47.329 389.823 48.267 391.163 48.644 C 392.503 49.039 394.003 48.917 395.253 48.28 C 395.553 48.13 395.833 47.954 396.103 47.761 C 395.633 48.326 395.103 48.845 394.513 49.29 C 392.533 50.808 390.023 51.475 387.493 51.248 C 385.883 51.179 384.283 50.937 382.703 50.585 C 382.353 49.021 382.113 47.437 382.053 45.845 Z M 381.143 45.879 C 381.203 47.393 381.423 48.889 381.723 50.364 C 381.143 50.216 380.563 50.053 379.983 49.874 C 377.483 49.097 375.073 48.056 372.673 46.972 C 373.243 46.435 373.803 45.879 374.323 45.284 C 376.073 43.268 377.523 40.949 378.393 38.392 C 378.633 37.687 378.823 36.966 378.983 36.237 C 380.823 35.271 382.543 34.086 384.103 32.734 C 384.823 32.11 385.493 31.437 386.143 30.74 C 386.763 32.107 387.363 33.476 387.923 34.855 C 386.073 35.482 384.443 36.734 383.283 38.272 C 381.623 40.41 380.893 43.25 381.143 45.879 Z M 383.483 21.888 C 382.313 19.005 381.713 16 381.873 12.963 C 382.063 10.002 382.833 6.82 384.723 4.772 C 385.203 4.291 385.743 3.931 386.303 3.805 C 386.593 3.74 386.813 3.732 387.173 3.769 C 387.423 3.798 387.743 3.884 388.013 4.009 C 389.143 4.52 390.023 5.715 390.573 7.02 C 391.713 9.676 391.753 12.822 391.353 15.782 C 390.763 20.246 388.913 24.519 386.123 28.056 C 385.203 26.01 384.283 23.967 383.483 21.888 Z M 391.283 45.629 C 392.213 45.23 392.993 44.498 393.433 43.606 C 393.573 43.648 393.713 43.68 393.843 43.723 C 395.053 44.097 396.233 44.532 397.403 44.99 C 397.403 44.993 397.403 44.997 397.403 45 C 396.833 46.073 395.953 46.955 394.873 47.511 C 393.813 48.053 392.543 48.159 391.403 47.825 C 390.343 47.543 389.413 46.84 388.793 45.943 C 389.633 46.069 390.513 45.967 391.283 45.629 Z M 388.333 42.325 C 388.523 41.855 388.813 41.407 389.183 41.027 C 389.073 41.294 389.013 41.581 389.013 41.885 C 389.013 43.209 390.093 44.284 391.413 44.284 C 391.743 44.284 392.053 44.217 392.333 44.099 C 391.953 44.47 391.493 44.768 391.013 44.965 C 390.103 45.352 389.153 45.307 388.293 44.974 C 387.983 44.133 387.953 43.207 388.333 42.325 Z M 387.343 44.467 C 386.473 43.853 385.793 42.93 385.513 41.893 C 385.183 40.75 385.283 39.483 385.823 38.423 C 386.383 37.345 387.263 36.468 388.333 35.895 C 388.813 37.109 389.263 38.331 389.643 39.575 C 389.683 39.677 389.703 39.781 389.733 39.884 C 388.823 40.319 388.073 41.11 387.663 42.051 C 387.343 42.803 387.233 43.648 387.343 44.467 Z M 389.783 35.355 C 389.933 35.339 390.083 35.313 390.233 35.306 C 392.463 35.169 394.723 36.084 396.263 37.708 C 397.483 39.194 398.153 41.137 398.033 43.065 C 398.023 43.152 398.013 43.235 398.003 43.321 C 397.963 43.545 397.893 43.764 397.823 43.982 C 396.623 43.513 395.413 43.066 394.173 42.679 C 394.043 42.637 393.903 42.602 393.773 42.562 C 393.773 42.536 393.783 42.511 393.783 42.484 C 393.813 42.316 393.803 42.149 393.803 41.981 C 393.803 41.949 393.813 41.918 393.813 41.885 C 393.813 41.868 393.813 41.854 393.813 41.839 C 393.813 41.835 393.803 41.832 393.803 41.829 C 393.803 41.615 393.763 41.412 393.703 41.216 C 393.703 41.211 393.703 41.206 393.703 41.201 L 393.703 41.208 C 392.953 39.108 390.833 39.549 390.813 39.553 C 390.803 39.554 390.793 39.559 390.773 39.56 C 390.743 39.458 390.723 39.352 390.693 39.25 C 390.293 37.971 389.833 36.722 389.343 35.486 C 389.493 35.44 389.633 35.39 389.783 35.355 Z M 360.283 51.289 C 357.833 51.619 355.223 51.584 353.023 50.644 C 351.943 50.183 350.953 49.457 350.533 48.522 C 350.423 48.298 350.353 48.034 350.333 47.824 C 350.303 47.525 350.313 47.346 350.363 47.102 C 350.463 46.643 350.763 46.191 351.163 45.799 C 352.863 44.234 355.493 43.59 357.943 43.439 C 360.463 43.302 362.953 43.801 365.343 44.766 C 367.063 45.433 368.753 46.191 370.443 46.958 C 367.513 49.266 363.983 50.795 360.283 51.289 Z M 431.393 46.045 C 431.343 45.523 431.213 45.08 431.013 44.638 C 430.193 42.883 428.633 41.844 427.103 41.17 C 423.953 39.837 420.603 39.824 417.403 40.23 C 412.303 40.886 407.483 43.123 403.583 46.437 C 401.993 45.718 400.393 45.009 398.763 44.349 C 398.853 43.944 398.913 43.533 398.923 43.114 C 398.933 43.055 398.923 42.997 398.923 42.939 C 399.143 41.056 398.613 39.085 397.383 37.64 C 397.273 37.498 397.143 37.37 397.023 37.236 C 396.633 36.75 396.193 36.301 395.703 35.914 C 394.093 34.552 391.843 34.031 389.783 34.454 C 389.513 34.479 389.253 34.526 388.993 34.577 C 388.343 32.979 387.643 31.405 386.933 29.839 C 390.243 25.94 392.483 21.115 393.143 16.024 C 393.543 12.822 393.533 9.469 392.203 6.317 C 391.523 4.789 390.493 3.226 388.733 2.41 C 388.293 2.213 387.853 2.083 387.323 2.025 C 386.913 1.971 386.333 2.002 385.873 2.136 C 384.903 2.401 384.133 2.995 383.533 3.642 C 382.343 4.969 381.693 6.535 381.233 8.105 C 380.793 9.685 380.583 11.297 380.543 12.917 C 380.433 16.149 381.273 19.386 382.463 22.282 C 383.343 24.554 384.343 26.767 385.343 28.97 C 384.593 29.831 383.803 30.658 382.943 31.41 C 381.813 32.398 380.593 33.276 379.313 34.041 C 379.433 32.842 379.453 31.632 379.343 30.432 C 378.873 25.072 376.023 19.923 371.593 16.818 C 369.403 15.221 366.723 14.245 364.003 14.083 C 361.283 13.911 358.523 14.534 356.143 15.859 C 353.763 17.171 351.763 19.18 350.433 21.525 C 349.073 23.952 348.593 26.781 349.013 29.496 C 349.423 32.205 350.763 34.775 352.783 36.638 C 354.763 38.533 357.603 39.665 360.403 39.351 C 363.183 39.104 365.783 37.526 367.343 35.234 C 368.973 32.951 369.273 29.791 368.103 27.244 C 367.543 25.964 366.633 24.838 365.493 24.028 C 364.353 23.194 362.893 22.751 361.473 22.847 C 358.613 23.017 356.003 25.266 355.763 28.24 C 355.653 29.672 356.153 31.137 357.123 32.198 C 358.053 33.273 359.623 33.913 361.053 33.589 C 362.503 33.324 363.703 32.216 364.063 30.823 C 364.443 29.435 363.733 27.911 362.563 27.316 C 363.583 28.152 363.903 29.553 363.503 30.655 C 363.083 31.748 362.013 32.554 360.903 32.72 C 359.753 32.919 358.653 32.381 357.873 31.516 C 357.103 30.66 356.713 29.47 356.803 28.318 C 356.853 27.744 357.023 27.173 357.283 26.685 C 357.563 26.148 357.933 25.691 358.363 25.292 C 359.233 24.498 360.373 24.018 361.533 23.96 C 363.903 23.792 366.093 25.542 367.023 27.72 C 368.003 29.913 367.723 32.584 366.313 34.523 C 364.943 36.512 362.673 37.85 360.273 38.043 C 357.873 38.286 355.473 37.314 353.713 35.638 C 351.923 33.985 350.733 31.701 350.373 29.286 C 349.993 26.878 350.453 24.329 351.633 22.229 C 352.853 20.067 354.663 18.277 356.823 17.087 C 358.973 15.894 361.463 15.337 363.923 15.496 C 366.373 15.652 368.763 16.517 370.763 17.981 C 374.843 20.845 377.483 25.598 377.903 30.563 C 378.133 33.044 377.843 35.572 377.023 37.924 C 376.223 40.282 374.873 42.437 373.223 44.324 C 372.603 45.037 371.913 45.689 371.203 46.308 C 369.383 45.482 367.543 44.656 365.663 43.926 C 363.263 42.936 360.583 42.244 357.913 42.331 C 356.563 42.366 355.233 42.54 353.923 42.909 C 352.623 43.284 351.323 43.827 350.223 44.808 C 349.693 45.304 349.203 45.942 348.983 46.746 C 348.873 47.129 348.843 47.607 348.883 47.952 C 348.933 48.386 349.043 48.752 349.203 49.118 C 349.883 50.572 351.173 51.43 352.443 51.99 C 355.053 53.093 357.833 53.103 360.483 52.767 C 364.693 52.223 368.693 50.371 371.923 47.627 C 374.463 48.774 377.023 49.899 379.713 50.739 C 380.453 50.968 381.193 51.165 381.943 51.346 C 382.123 52.111 382.323 52.872 382.553 53.621 C 383.393 56.315 384.523 58.878 385.673 61.415 C 382.923 64.645 381.073 68.642 380.533 72.859 C 380.193 75.511 380.203 78.287 381.303 80.897 C 381.863 82.162 382.723 83.457 384.183 84.133 C 384.543 84.295 384.913 84.403 385.343 84.45 C 385.693 84.495 386.173 84.47 386.553 84.359 C 387.353 84.139 387.993 83.646 388.493 83.111 C 389.473 82.012 390.013 80.715 390.383 79.415 C 390.753 78.106 390.933 76.771 390.963 75.429 C 391.053 72.753 390.363 70.073 389.373 67.673 C 388.643 65.793 387.813 63.959 386.983 62.135 C 387.603 61.422 388.263 60.737 388.973 60.115 C 390.853 58.464 393.013 57.115 395.373 56.313 C 397.723 55.495 400.253 55.201 402.733 55.431 C 407.693 55.857 412.453 58.495 415.313 62.578 C 416.773 64.577 417.643 66.961 417.803 69.418 C 417.963 71.869 417.403 74.365 416.213 76.518 C 415.023 78.677 413.233 80.48 411.073 81.709 C 408.973 82.886 406.423 83.346 404.013 82.968 C 401.593 82.602 399.313 81.419 397.663 79.628 C 395.983 77.864 395.013 75.47 395.253 73.063 C 395.443 70.666 396.783 68.402 398.773 67.027 C 400.713 65.614 403.383 65.339 405.573 66.312 C 407.753 67.242 409.503 69.435 409.333 71.801 C 409.283 72.967 408.803 74.108 408.003 74.973 C 407.603 75.408 407.153 75.775 406.613 76.059 C 406.123 76.318 405.553 76.489 404.983 76.535 C 403.823 76.63 402.633 76.238 401.783 75.464 C 400.913 74.689 400.383 73.586 400.573 72.437 C 400.743 71.323 401.543 70.26 402.643 69.841 C 403.743 69.432 405.143 69.75 405.983 70.768 C 405.383 69.6 403.853 68.899 402.473 69.28 C 401.083 69.634 399.973 70.839 399.703 72.283 C 399.383 73.722 400.023 75.29 401.103 76.215 C 402.163 77.19 403.623 77.684 405.063 77.579 C 408.033 77.336 410.283 74.726 410.453 71.864 C 410.543 70.443 410.103 68.986 409.263 67.848 C 408.453 66.708 407.333 65.794 406.053 65.231 C 403.503 64.067 400.343 64.368 398.063 66.002 C 395.773 67.554 394.193 70.159 393.943 72.941 C 393.633 75.734 394.763 78.576 396.663 80.552 C 398.523 82.578 401.093 83.912 403.803 84.326 C 406.523 84.749 409.343 84.262 411.773 82.906 C 414.123 81.579 416.123 79.578 417.443 77.195 C 418.763 74.814 419.383 72.05 419.213 69.329 C 419.053 66.612 418.073 63.932 416.473 61.749 C 413.373 57.318 408.223 54.462 402.863 53.999 C 401.713 53.892 400.553 53.911 399.403 54.011 C 400.173 52.746 401.033 51.54 402.013 50.424 C 402.763 49.563 403.593 48.777 404.453 48.029 C 406.653 49.028 408.863 50.025 411.133 50.907 C 414.033 52.102 417.273 52.937 420.503 52.831 C 422.123 52.789 423.733 52.58 425.313 52.134 C 426.883 51.68 428.453 51.025 429.783 49.841 C 430.423 49.243 431.023 48.472 431.283 47.501 C 431.423 47.04 431.453 46.461 431.393 46.045 Z" fill="#414042" stroke="none"/><path d="M 49.323 565.682 C 48.603 566.302 47.933 566.982 47.283 567.682 C 46.663 566.312 46.063 564.942 45.503 563.562 C 47.353 562.932 48.983 561.682 50.143 560.142 C 51.803 558.002 52.523 555.162 52.283 552.542 C 52.213 551.022 52.003 549.532 51.703 548.052 C 52.283 548.202 52.863 548.362 53.433 548.542 C 55.933 549.322 58.343 550.362 60.753 551.442 C 60.173 551.982 59.623 552.542 59.103 553.132 C 57.353 555.152 55.903 557.472 55.033 560.022 C 54.793 560.732 54.603 561.452 54.443 562.182 C 52.603 563.142 50.883 564.332 49.323 565.682 Z M 49.943 576.532 C 51.113 579.412 51.713 582.412 51.553 585.452 C 51.363 588.412 50.593 591.602 48.703 593.642 C 48.223 594.122 47.683 594.482 47.123 594.612 C 46.833 594.672 46.613 594.682 46.253 594.652 C 46.003 594.622 45.683 594.532 45.413 594.412 C 44.283 593.902 43.403 592.702 42.843 591.402 C 41.713 588.742 41.673 585.592 42.073 582.632 C 42.663 578.172 44.513 573.902 47.303 570.362 C 48.223 572.412 49.143 574.452 49.943 576.532 Z M 43.643 563.062 C 43.493 563.082 43.343 563.102 43.193 563.112 C 40.963 563.252 38.703 562.332 37.163 560.712 C 35.943 559.222 35.273 557.282 35.393 555.352 C 35.393 555.262 35.413 555.182 35.423 555.092 C 35.463 554.872 35.533 554.652 35.603 554.432 C 36.803 554.902 38.013 555.352 39.253 555.742 C 39.383 555.782 39.523 555.812 39.653 555.852 C 39.653 555.882 39.643 555.902 39.643 555.932 C 39.613 556.102 39.613 556.272 39.623 556.432 C 39.623 556.472 39.613 556.502 39.613 556.532 C 39.613 556.552 39.613 556.562 39.613 556.582 C 39.613 556.582 39.613 556.582 39.613 556.592 C 39.623 556.802 39.663 557.002 39.713 557.202 C 39.713 557.202 39.713 557.212 39.723 557.212 L 39.723 557.212 C 40.473 559.312 42.583 558.872 42.613 558.862 C 42.623 558.862 42.633 558.862 42.643 558.852 C 42.683 558.962 42.703 559.062 42.733 559.172 C 43.133 560.442 43.593 561.692 44.083 562.932 C 43.933 562.972 43.793 563.032 43.643 563.062 Z M 30.743 551.192 C 31.443 550.542 32.113 549.872 32.733 549.152 C 34.073 547.612 35.243 545.912 36.193 544.092 C 36.983 543.932 37.763 543.732 38.523 543.472 C 41.083 542.602 43.403 541.152 45.413 539.402 C 46.003 538.882 46.563 538.322 47.103 537.752 C 48.183 540.152 49.223 542.562 50.003 545.062 C 50.183 545.662 50.353 546.252 50.503 546.852 C 49.013 546.542 47.503 546.332 45.963 546.262 C 43.333 546.022 40.493 546.742 38.353 548.402 C 36.833 549.562 35.583 551.172 34.953 553.012 C 33.543 552.432 32.143 551.822 30.743 551.192 Z M 44.893 530.422 C 43.923 528.032 43.433 525.542 43.563 523.022 C 43.713 520.572 44.363 517.942 45.923 516.242 C 46.323 515.842 46.773 515.542 47.233 515.442 C 47.473 515.392 47.653 515.382 47.953 515.412 C 48.163 515.432 48.423 515.502 48.653 515.612 C 49.583 516.032 50.313 517.022 50.773 518.102 C 51.713 520.302 51.743 522.912 51.413 525.362 C 50.923 529.062 49.393 532.592 47.083 535.522 C 46.323 533.832 45.563 532.142 44.893 530.422 Z M 42.133 552.792 C 41.213 553.192 40.433 553.922 39.993 554.812 C 39.853 554.772 39.713 554.742 39.583 554.692 C 38.373 554.322 37.193 553.882 36.013 553.432 C 36.013 553.422 36.023 553.422 36.023 553.412 C 36.593 552.342 37.473 551.462 38.553 550.902 C 39.613 550.362 40.883 550.262 42.023 550.592 C 43.083 550.872 44.013 551.572 44.623 552.472 C 43.783 552.352 42.913 552.452 42.133 552.792 Z M 42.013 554.132 C 41.683 554.132 41.373 554.202 41.093 554.322 C 41.473 553.952 41.933 553.652 42.413 553.452 C 43.313 553.062 44.273 553.112 45.133 553.442 C 45.443 554.282 45.473 555.212 45.093 556.092 C 44.903 556.562 44.603 557.012 44.243 557.392 C 44.343 557.122 44.413 556.832 44.413 556.532 C 44.413 555.212 43.333 554.132 42.013 554.132 Z M 43.773 558.842 C 43.743 558.742 43.723 558.632 43.693 558.532 C 44.603 558.102 45.353 557.312 45.753 556.362 C 46.083 555.612 46.193 554.772 46.083 553.952 C 46.953 554.562 47.633 555.492 47.913 556.522 C 48.243 557.662 48.143 558.932 47.593 559.992 C 47.043 561.072 46.163 561.952 45.093 562.522 C 44.613 561.312 44.163 560.082 43.773 558.842 Z M 51.373 552.572 C 51.603 555.102 50.933 557.612 49.423 559.592 C 48.963 560.192 48.433 560.732 47.863 561.202 C 48.043 560.942 48.223 560.662 48.363 560.382 C 49.003 559.122 49.123 557.632 48.733 556.282 C 48.353 554.952 47.413 553.742 46.223 553.032 C 46.083 552.942 45.923 552.872 45.773 552.802 C 45.693 552.622 45.613 552.442 45.513 552.282 C 44.803 551.092 43.593 550.152 42.263 549.772 C 40.913 549.382 39.423 549.502 38.163 550.142 C 37.873 550.282 37.593 550.462 37.323 550.662 C 37.793 550.092 38.323 549.572 38.913 549.122 C 40.893 547.612 43.393 546.942 45.933 547.172 C 47.543 547.242 49.143 547.482 50.723 547.832 C 51.073 549.392 51.303 550.982 51.373 552.572 Z M 15.783 556.402 C 12.823 556.802 9.673 556.752 7.023 555.622 C 5.713 555.062 4.523 554.192 4.013 553.062 C 3.883 552.792 3.803 552.472 3.773 552.212 C 3.733 551.852 3.743 551.642 3.803 551.342 C 3.933 550.792 4.293 550.242 4.773 549.772 C 6.823 547.882 10.003 547.102 12.963 546.922 C 16.003 546.762 19.013 547.362 21.893 548.522 C 23.973 549.332 26.013 550.242 28.063 551.172 C 24.523 553.962 20.253 555.802 15.783 556.402 Z M 73.143 547.132 C 75.593 546.802 78.203 546.832 80.403 547.772 C 81.483 548.232 82.473 548.962 82.893 549.892 C 82.993 550.122 83.063 550.382 83.093 550.592 C 83.123 550.892 83.113 551.072 83.063 551.312 C 82.953 551.772 82.663 552.222 82.263 552.622 C 80.563 554.182 77.933 554.822 75.473 554.982 C 72.963 555.112 70.473 554.612 68.083 553.652 C 66.363 552.982 64.673 552.222 62.973 551.462 C 65.903 549.152 69.443 547.622 73.143 547.132 Z M 84.413 568.922 C 83.993 566.212 82.663 563.642 80.633 561.782 C 78.663 559.882 75.813 558.752 73.023 559.062 C 70.243 559.312 67.633 560.892 66.083 563.182 C 64.453 565.462 64.153 568.622 65.313 571.172 C 65.883 572.452 66.793 573.582 67.933 574.392 C 69.073 575.222 70.533 575.662 71.953 575.572 C 74.813 575.402 77.423 573.152 77.663 570.182 C 77.773 568.742 77.273 567.282 76.303 566.222 C 75.373 565.142 73.803 564.502 72.363 564.832 C 70.923 565.092 69.713 566.202 69.363 567.592 C 68.983 568.982 69.693 570.502 70.853 571.102 C 69.833 570.262 69.513 568.862 69.923 567.762 C 70.343 566.672 71.403 565.862 72.523 565.692 C 73.673 565.502 74.773 566.032 75.553 566.902 C 76.323 567.752 76.713 568.942 76.623 570.102 C 76.573 570.672 76.403 571.242 76.143 571.732 C 75.863 572.272 75.493 572.722 75.063 573.122 C 74.193 573.922 73.053 574.402 71.883 574.462 C 69.523 574.622 67.333 572.872 66.393 570.702 C 65.423 568.502 65.703 565.832 67.113 563.892 C 68.483 561.902 70.753 560.572 73.143 560.372 C 75.553 560.132 77.943 561.102 79.713 562.782 C 81.503 564.432 82.683 566.712 83.053 569.132 C 83.433 571.542 82.973 574.092 81.793 576.192 C 80.563 578.352 78.763 580.142 76.603 581.332 C 74.453 582.522 71.953 583.082 69.503 582.922 C 67.053 582.762 64.663 581.902 62.663 580.432 C 58.583 577.572 55.943 572.822 55.513 567.852 C 55.283 565.372 55.583 562.842 56.393 560.492 C 57.203 558.132 58.553 555.982 60.203 554.092 C 60.823 553.382 61.503 552.732 62.223 552.112 C 64.043 552.932 65.883 553.762 67.763 554.492 C 70.163 555.482 72.843 556.172 75.513 556.082 C 76.853 556.052 78.193 555.882 79.503 555.512 C 80.803 555.132 82.093 554.592 83.193 553.612 C 83.733 553.112 84.223 552.472 84.443 551.672 C 84.553 551.292 84.583 550.812 84.533 550.462 C 84.493 550.032 84.383 549.662 84.213 549.302 C 83.543 547.842 82.243 546.982 80.983 546.432 C 78.373 545.322 75.593 545.312 72.943 545.652 C 68.723 546.192 64.733 548.042 61.503 550.792 C 58.963 549.642 56.403 548.522 53.703 547.682 C 52.973 547.452 52.233 547.252 51.483 547.072 C 51.303 546.302 51.103 545.542 50.863 544.792 C 50.023 542.102 48.903 539.542 47.753 537.002 C 50.503 533.772 52.353 529.772 52.893 525.562 C 53.233 522.912 53.223 520.132 52.113 517.522 C 51.563 516.252 50.703 514.962 49.243 514.282 C 48.883 514.122 48.513 514.012 48.083 513.962 C 47.733 513.922 47.253 513.952 46.873 514.062 C 46.073 514.282 45.433 514.772 44.933 515.302 C 43.953 516.402 43.413 517.702 43.033 519.002 C 42.663 520.312 42.493 521.642 42.463 522.992 C 42.373 525.662 43.063 528.342 44.053 530.742 C 44.783 532.622 45.613 534.462 46.433 536.282 C 45.813 536.992 45.163 537.682 44.453 538.302 C 42.563 539.952 40.413 541.302 38.053 542.102 C 35.703 542.922 33.173 543.212 30.693 542.982 C 25.733 542.562 20.973 539.922 18.113 535.842 C 16.643 533.842 15.783 531.452 15.623 529.002 C 15.463 526.552 16.023 524.052 17.213 521.902 C 18.403 519.742 20.193 517.942 22.353 516.712 C 24.453 515.532 27.003 515.072 29.413 515.452 C 31.823 515.812 34.113 517.002 35.763 518.792 C 37.443 520.552 38.413 522.952 38.173 525.352 C 37.983 527.752 36.643 530.012 34.653 531.392 C 32.713 532.802 30.043 533.082 27.853 532.102 C 25.673 531.172 23.923 528.982 24.083 526.612 C 24.143 525.452 24.623 524.312 25.423 523.442 C 25.813 523.012 26.273 522.642 26.813 522.362 C 27.303 522.102 27.873 521.932 28.443 521.882 C 29.593 521.792 30.783 522.182 31.643 522.952 C 32.503 523.732 33.043 524.832 32.853 525.982 C 32.683 527.092 31.873 528.162 30.783 528.572 C 29.683 528.982 28.283 528.672 27.443 527.652 C 28.043 528.822 29.563 529.522 30.953 529.142 C 32.343 528.782 33.453 527.582 33.713 526.132 C 34.043 524.692 33.403 523.122 32.323 522.202 C 31.263 521.232 29.803 520.732 28.363 520.842 C 25.393 521.082 23.143 523.692 22.973 526.552 C 22.883 527.972 23.323 529.432 24.163 530.572 C 24.963 531.712 26.093 532.622 27.373 533.182 C 29.923 534.352 33.083 534.052 35.363 532.412 C 37.653 530.862 39.233 528.262 39.483 525.472 C 39.793 522.682 38.663 519.842 36.763 517.862 C 34.903 515.842 32.333 514.502 29.623 514.092 C 26.903 513.672 24.083 514.152 21.653 515.512 C 19.303 516.842 17.293 518.842 15.983 521.222 C 14.663 523.602 14.043 526.362 14.213 529.092 C 14.373 531.802 15.353 534.482 16.943 536.672 C 20.053 541.102 25.203 543.952 30.563 544.422 C 31.713 544.522 32.873 544.502 34.023 544.402 C 33.253 545.672 32.393 546.882 31.413 547.992 C 30.663 548.852 29.833 549.642 28.973 550.392 C 26.773 549.392 24.553 548.392 22.283 547.512 C 19.393 546.312 16.153 545.482 12.923 545.582 C 11.303 545.632 9.683 545.842 8.113 546.282 C 6.543 546.742 4.973 547.392 3.643 548.572 C 3.003 549.172 2.403 549.942 2.143 550.912 C 2.003 551.382 1.973 551.952 2.023 552.372 C 2.083 552.892 2.213 553.332 2.413 553.782 C 3.223 555.532 4.793 556.572 6.323 557.242 C 9.473 558.582 12.823 558.592 16.023 558.192 C 21.113 557.532 25.943 555.292 29.843 551.982 C 31.433 552.702 33.033 553.412 34.653 554.072 C 34.573 554.472 34.513 554.882 34.493 555.302 C 34.493 555.362 34.503 555.422 34.493 555.482 C 34.283 557.362 34.813 559.332 36.043 560.772 C 36.153 560.922 36.283 561.042 36.403 561.182 C 36.793 561.672 37.233 562.112 37.723 562.502 C 39.333 563.862 41.583 564.382 43.643 563.962 C 43.913 563.942 44.173 563.892 44.433 563.842 C 45.083 565.442 45.783 567.012 46.493 568.582 C 43.173 572.482 40.943 577.302 40.283 582.392 C 39.883 585.592 39.893 588.952 41.223 592.102 C 41.893 593.632 42.933 595.192 44.693 596.012 C 45.133 596.202 45.573 596.332 46.093 596.392 C 46.513 596.442 47.093 596.412 47.553 596.282 C 48.523 596.012 49.293 595.422 49.893 594.772 C 51.083 593.452 51.733 591.882 52.183 590.312 C 52.633 588.732 52.843 587.122 52.883 585.502 C 52.993 582.272 52.153 579.032 50.963 576.132 C 50.083 573.862 49.083 571.652 48.083 569.452 C 48.833 568.582 49.623 567.762 50.483 567.002 C 51.603 566.022 52.823 565.142 54.103 564.372 C 53.993 565.572 53.973 566.782 54.083 567.982 C 54.543 573.342 57.403 578.492 61.833 581.602 C 64.023 583.192 66.703 584.172 69.413 584.332 C 72.143 584.502 74.903 583.882 77.283 582.562 C 79.663 581.242 81.663 579.242 82.993 576.892 C 84.353 574.462 84.833 571.632 84.413 568.922 Z" fill="#414042" stroke="none"/><path d="M 429.653 552.212 C 429.623 552.472 429.543 552.792 429.413 553.062 C 428.903 554.192 427.703 555.062 426.403 555.622 C 423.743 556.752 420.603 556.802 417.643 556.402 C 413.173 555.802 408.903 553.962 405.363 551.172 C 407.413 550.242 409.453 549.332 411.533 548.522 C 414.413 547.362 417.423 546.762 420.453 546.922 C 423.423 547.102 426.603 547.882 428.653 549.772 C 429.133 550.242 429.493 550.792 429.613 551.342 C 429.683 551.642 429.693 551.852 429.653 552.212 Z M 398.473 553.012 C 397.843 551.172 396.593 549.562 395.063 548.402 C 392.923 546.742 390.093 546.022 387.463 546.262 C 385.923 546.332 384.413 546.542 382.913 546.852 C 383.073 546.252 383.233 545.662 383.423 545.062 C 384.203 542.562 385.243 540.152 386.323 537.752 C 386.863 538.322 387.413 538.882 388.013 539.402 C 390.023 541.152 392.343 542.602 394.903 543.472 C 395.663 543.732 396.443 543.932 397.223 544.092 C 398.183 545.912 399.353 547.612 400.693 549.152 C 401.313 549.872 401.983 550.542 402.683 551.192 C 401.283 551.822 399.883 552.432 398.473 553.012 Z M 398.003 555.092 C 398.013 555.182 398.023 555.262 398.033 555.352 C 398.153 557.282 397.483 559.222 396.263 560.712 C 394.723 562.332 392.463 563.252 390.233 563.112 C 390.083 563.102 389.933 563.082 389.783 563.062 C 389.633 563.032 389.493 562.972 389.343 562.932 C 389.833 561.692 390.293 560.442 390.693 559.172 C 390.723 559.062 390.743 558.962 390.773 558.852 C 390.793 558.862 390.803 558.862 390.813 558.862 C 390.833 558.872 392.953 559.312 393.703 557.212 L 393.703 557.212 C 393.703 557.212 393.703 557.202 393.703 557.202 C 393.763 557.002 393.803 556.802 393.803 556.592 C 393.803 556.582 393.813 556.582 393.813 556.582 C 393.813 556.562 393.813 556.552 393.813 556.532 C 393.813 556.502 393.803 556.472 393.803 556.432 C 393.803 556.272 393.813 556.102 393.783 555.932 C 393.783 555.902 393.773 555.882 393.773 555.852 C 393.903 555.812 394.043 555.782 394.173 555.742 C 395.413 555.352 396.623 554.902 397.823 554.432 C 397.893 554.652 397.963 554.872 398.003 555.092 Z M 386.143 567.682 C 385.493 566.982 384.823 566.302 384.103 565.682 C 382.543 564.332 380.823 563.142 378.983 562.182 C 378.823 561.452 378.633 560.732 378.393 560.022 C 377.523 557.472 376.073 555.152 374.323 553.132 C 373.803 552.542 373.243 551.982 372.673 551.442 C 375.073 550.362 377.483 549.322 379.983 548.542 C 380.563 548.362 381.143 548.202 381.723 548.052 C 381.423 549.532 381.203 551.022 381.143 552.542 C 380.893 555.162 381.623 558.002 383.283 560.142 C 384.443 561.682 386.073 562.932 387.923 563.562 C 387.363 564.942 386.763 566.312 386.143 567.682 Z M 391.353 582.632 C 391.753 585.592 391.713 588.742 390.573 591.402 C 390.023 592.702 389.143 593.902 388.013 594.412 C 387.743 594.532 387.423 594.622 387.173 594.652 C 386.813 594.682 386.593 594.672 386.303 594.612 C 385.743 594.482 385.203 594.122 384.723 593.642 C 382.833 591.602 382.063 588.412 381.873 585.452 C 381.713 582.412 382.313 579.412 383.483 576.532 C 384.283 574.452 385.203 572.412 386.123 570.362 C 388.913 573.902 390.763 578.172 391.353 582.632 Z M 391.283 552.792 C 390.513 552.452 389.633 552.352 388.793 552.472 C 389.413 551.572 390.343 550.872 391.403 550.592 C 392.543 550.262 393.813 550.362 394.873 550.902 C 395.953 551.462 396.833 552.342 397.403 553.412 C 397.403 553.422 397.403 553.422 397.403 553.432 C 396.233 553.882 395.053 554.322 393.843 554.692 C 393.713 554.742 393.573 554.772 393.433 554.812 C 392.993 553.922 392.213 553.192 391.283 552.792 Z M 391.413 554.132 C 390.093 554.132 389.013 555.212 389.013 556.532 C 389.013 556.832 389.073 557.122 389.183 557.392 C 388.813 557.012 388.523 556.562 388.333 556.092 C 387.953 555.212 387.983 554.282 388.293 553.442 C 389.153 553.112 390.103 553.062 391.013 553.452 C 391.493 553.652 391.953 553.952 392.333 554.322 C 392.053 554.202 391.743 554.132 391.413 554.132 Z M 388.333 562.522 C 387.263 561.952 386.383 561.072 385.823 559.992 C 385.283 558.932 385.183 557.662 385.513 556.522 C 385.793 555.492 386.473 554.562 387.343 553.952 C 387.233 554.772 387.343 555.612 387.663 556.362 C 388.073 557.312 388.823 558.102 389.733 558.532 C 389.703 558.632 389.683 558.742 389.643 558.842 C 389.263 560.082 388.813 561.312 388.333 562.522 Z M 382.053 552.572 C 382.113 550.982 382.353 549.392 382.703 547.832 C 384.283 547.482 385.883 547.242 387.493 547.172 C 390.023 546.942 392.533 547.612 394.513 549.122 C 395.103 549.572 395.633 550.092 396.103 550.662 C 395.833 550.462 395.553 550.282 395.253 550.142 C 394.003 549.502 392.503 549.382 391.163 549.772 C 389.823 550.152 388.613 551.092 387.913 552.282 C 387.813 552.442 387.723 552.622 387.653 552.802 C 387.493 552.872 387.343 552.942 387.203 553.032 C 386.013 553.742 385.073 554.952 384.693 556.282 C 384.303 557.632 384.423 559.122 385.053 560.382 C 385.203 560.662 385.373 560.942 385.563 561.202 C 384.983 560.732 384.463 560.192 384.003 559.592 C 382.493 557.612 381.823 555.102 382.053 552.572 Z M 382.003 525.362 C 381.673 522.912 381.713 520.302 382.653 518.102 C 383.113 517.022 383.843 516.032 384.773 515.612 C 385.003 515.502 385.263 515.432 385.473 515.412 C 385.773 515.382 385.953 515.392 386.193 515.442 C 386.653 515.542 387.103 515.842 387.503 516.242 C 389.063 517.942 389.703 520.572 389.853 523.022 C 389.993 525.542 389.493 528.032 388.533 530.422 C 387.863 532.142 387.103 533.832 386.343 535.522 C 384.033 532.592 382.503 529.062 382.003 525.362 Z M 365.343 553.652 C 362.953 554.612 360.463 555.112 357.943 554.982 C 355.493 554.822 352.863 554.182 351.163 552.622 C 350.763 552.222 350.463 551.772 350.363 551.312 C 350.313 551.072 350.303 550.892 350.333 550.592 C 350.353 550.382 350.423 550.122 350.533 549.892 C 350.953 548.962 351.943 548.232 353.023 547.772 C 355.223 546.832 357.833 546.802 360.283 547.132 C 363.983 547.622 367.513 549.152 370.443 551.462 C 368.753 552.222 367.063 552.982 365.343 553.652 Z M 431.283 550.912 C 431.023 549.942 430.423 549.172 429.783 548.572 C 428.453 547.392 426.883 546.742 425.313 546.282 C 423.733 545.842 422.123 545.632 420.503 545.582 C 417.273 545.482 414.033 546.312 411.133 547.512 C 408.863 548.392 406.653 549.392 404.453 550.392 C 403.593 549.642 402.763 548.852 402.013 547.992 C 401.033 546.882 400.173 545.672 399.403 544.402 C 400.553 544.502 401.713 544.522 402.863 544.422 C 408.223 543.952 413.373 541.102 416.473 536.672 C 418.073 534.482 419.053 531.802 419.213 529.092 C 419.383 526.362 418.763 523.602 417.443 521.222 C 416.123 518.842 414.123 516.842 411.773 515.512 C 409.343 514.152 406.523 513.672 403.803 514.092 C 401.093 514.502 398.523 515.842 396.663 517.862 C 394.763 519.842 393.633 522.682 393.943 525.472 C 394.193 528.262 395.773 530.862 398.063 532.412 C 400.343 534.052 403.503 534.352 406.053 533.182 C 407.333 532.622 408.453 531.712 409.263 530.572 C 410.103 529.432 410.543 527.972 410.453 526.552 C 410.283 523.692 408.033 521.082 405.063 520.842 C 403.623 520.732 402.163 521.232 401.103 522.202 C 400.023 523.122 399.383 524.692 399.703 526.132 C 399.973 527.582 401.083 528.782 402.473 529.142 C 403.853 529.522 405.383 528.822 405.983 527.652 C 405.143 528.672 403.743 528.982 402.643 528.572 C 401.543 528.162 400.743 527.092 400.573 525.982 C 400.383 524.832 400.913 523.732 401.783 522.952 C 402.633 522.182 403.823 521.792 404.983 521.882 C 405.553 521.932 406.123 522.102 406.613 522.362 C 407.153 522.642 407.603 523.012 408.003 523.442 C 408.803 524.312 409.283 525.452 409.333 526.612 C 409.503 528.982 407.753 531.172 405.573 532.102 C 403.383 533.082 400.713 532.802 398.773 531.392 C 396.783 530.012 395.443 527.752 395.253 525.352 C 395.013 522.952 395.983 520.552 397.663 518.792 C 399.313 517.002 401.593 515.812 404.013 515.452 C 406.423 515.072 408.973 515.532 411.073 516.712 C 413.233 517.942 415.023 519.742 416.213 521.902 C 417.403 524.052 417.963 526.552 417.803 529.002 C 417.643 531.452 416.773 533.842 415.313 535.842 C 412.453 539.922 407.693 542.562 402.733 542.982 C 400.253 543.212 397.723 542.922 395.373 542.102 C 393.013 541.302 390.853 539.952 388.973 538.302 C 388.263 537.682 387.603 536.992 386.983 536.282 C 387.813 534.462 388.643 532.622 389.373 530.742 C 390.363 528.342 391.053 525.662 390.963 522.992 C 390.933 521.642 390.753 520.312 390.383 519.002 C 390.013 517.702 389.473 516.402 388.493 515.302 C 387.993 514.772 387.353 514.282 386.553 514.062 C 386.173 513.952 385.693 513.922 385.343 513.962 C 384.913 514.012 384.543 514.122 384.183 514.282 C 382.723 514.962 381.863 516.252 381.303 517.522 C 380.203 520.132 380.193 522.912 380.533 525.562 C 381.073 529.772 382.923 533.772 385.673 537.002 C 384.523 539.542 383.393 542.102 382.553 544.792 C 382.323 545.542 382.123 546.302 381.943 547.072 C 381.193 547.252 380.453 547.452 379.713 547.682 C 377.023 548.522 374.463 549.642 371.923 550.792 C 368.693 548.042 364.693 546.192 360.483 545.652 C 357.833 545.312 355.053 545.322 352.443 546.432 C 351.173 546.982 349.883 547.842 349.203 549.302 C 349.043 549.662 348.933 550.032 348.883 550.462 C 348.843 550.812 348.873 551.292 348.983 551.672 C 349.203 552.472 349.693 553.112 350.223 553.612 C 351.323 554.592 352.623 555.132 353.923 555.512 C 355.233 555.882 356.563 556.052 357.913 556.082 C 360.583 556.172 363.263 555.482 365.663 554.492 C 367.543 553.762 369.383 552.932 371.203 552.112 C 371.913 552.732 372.603 553.382 373.223 554.092 C 374.873 555.982 376.223 558.132 377.023 560.492 C 377.843 562.842 378.133 565.372 377.903 567.852 C 377.483 572.822 374.843 577.572 370.763 580.432 C 368.763 581.902 366.373 582.762 363.923 582.922 C 361.463 583.082 358.973 582.522 356.823 581.332 C 354.663 580.142 352.853 578.352 351.633 576.192 C 350.453 574.092 349.993 571.542 350.373 569.132 C 350.733 566.712 351.923 564.432 353.713 562.782 C 355.473 561.102 357.873 560.132 360.273 560.372 C 362.673 560.572 364.943 561.902 366.313 563.892 C 367.723 565.832 368.003 568.502 367.023 570.702 C 366.093 572.872 363.903 574.622 361.533 574.462 C 360.373 574.402 359.233 573.922 358.363 573.122 C 357.933 572.722 357.563 572.272 357.283 571.732 C 357.023 571.242 356.853 570.672 356.803 570.102 C 356.713 568.942 357.103 567.752 357.873 566.902 C 358.653 566.032 359.753 565.502 360.903 565.692 C 362.013 565.862 363.083 566.672 363.503 567.762 C 363.903 568.862 363.583 570.262 362.563 571.102 C 363.733 570.502 364.443 568.982 364.063 567.592 C 363.703 566.202 362.503 565.092 361.053 564.832 C 359.623 564.502 358.053 565.142 357.123 566.222 C 356.153 567.282 355.653 568.742 355.763 570.182 C 356.003 573.152 358.613 575.402 361.473 575.572 C 362.893 575.662 364.353 575.222 365.493 574.392 C 366.633 573.582 367.543 572.452 368.103 571.172 C 369.273 568.622 368.973 565.462 367.343 563.182 C 365.783 560.892 363.183 559.312 360.403 559.062 C 357.603 558.752 354.763 559.882 352.783 561.782 C 350.763 563.642 349.423 566.212 349.013 568.922 C 348.593 571.632 349.073 574.462 350.433 576.892 C 351.763 579.242 353.763 581.242 356.143 582.562 C 358.523 583.882 361.283 584.502 364.003 584.332 C 366.723 584.172 369.403 583.192 371.593 581.602 C 376.023 578.492 378.873 573.342 379.343 567.982 C 379.453 566.782 379.433 565.572 379.313 564.372 C 380.593 565.142 381.813 566.022 382.943 567.002 C 383.803 567.762 384.593 568.582 385.343 569.452 C 384.343 571.652 383.343 573.862 382.463 576.132 C 381.273 579.032 380.433 582.272 380.543 585.502 C 380.583 587.122 380.793 588.732 381.233 590.312 C 381.693 591.882 382.343 593.452 383.533 594.772 C 384.133 595.422 384.903 596.012 385.873 596.282 C 386.333 596.412 386.913 596.442 387.323 596.392 C 387.853 596.332 388.293 596.202 388.733 596.012 C 390.493 595.192 391.523 593.632 392.203 592.102 C 393.533 588.952 393.543 585.592 393.143 582.392 C 392.483 577.302 390.243 572.482 386.933 568.582 C 387.643 567.012 388.343 565.442 388.993 563.842 C 389.253 563.892 389.513 563.942 389.783 563.962 C 391.843 564.382 394.093 563.862 395.703 562.502 C 396.193 562.112 396.633 561.672 397.023 561.182 C 397.143 561.042 397.273 560.922 397.383 560.772 C 398.613 559.332 399.143 557.362 398.923 555.482 C 398.923 555.422 398.933 555.362 398.923 555.302 C 398.913 554.882 398.853 554.472 398.763 554.072 C 400.393 553.412 401.993 552.702 403.583 551.982 C 407.483 555.292 412.303 557.532 417.403 558.192 C 420.603 558.592 423.953 558.582 427.103 557.242 C 428.633 556.572 430.193 555.532 431.013 553.782 C 431.213 553.332 431.343 552.892 431.393 552.372 C 431.453 551.952 431.423 551.382 431.283 550.912 Z" fill="#414042" stroke="none"/><path d="M 26.803 514.962 L 24.803 514.962 L 24.803 83.149 L 26.803 83.149 L 26.803 514.962 Z" fill="#414042" stroke="none"/><path d="M 55.763 573.512 L 44.253 573.512 C 33.533 573.512 24.803 564.782 24.803 554.062 L 24.803 542.522 L 26.803 542.522 L 26.803 554.062 C 26.803 563.682 34.633 571.512 44.253 571.512 L 55.763 571.512 L 55.763 573.512 Z" fill="#414042" stroke="none"/><path d="M 349.563 573.512 L 83.843 573.512 L 83.843 571.512 L 349.563 571.512 L 349.563 573.512 Z" fill="#414042" stroke="none"/><path d="M 389.163 573.512 L 377.613 573.512 L 377.613 571.512 L 389.163 571.512 C 398.783 571.512 406.603 563.682 406.603 554.062 L 406.603 542.762 L 408.603 542.762 L 408.603 554.062 C 408.603 564.782 399.883 573.512 389.163 573.512 Z" fill="#414042" stroke="none"/><path d="M 408.603 514.612 L 406.603 514.612 L 406.603 83.678 L 408.603 83.678 L 408.603 514.612 Z" fill="#414042" stroke="none"/><path d="M 408.603 55.807 L 406.603 55.807 L 406.603 44.356 C 406.603 34.734 398.783 26.906 389.163 26.906 L 377.633 26.906 L 377.633 24.906 L 389.163 24.906 C 399.883 24.906 408.603 33.631 408.603 44.356 L 408.603 55.807 Z" fill="#414042" stroke="none"/><path d="M 349.673 26.906 L 83.823 26.906 L 83.823 24.906 L 349.673 24.906 L 349.673 26.906 Z" fill="#414042" stroke="none"/><path d="M 26.803 55.744 L 24.803 55.744 L 24.803 44.356 C 24.803 33.631 33.533 24.906 44.253 24.906 L 55.853 24.906 L 55.853 26.906 L 44.253 26.906 C 34.633 26.906 26.803 34.734 26.803 44.356 L 26.803 55.744 Z" fill="#414042" stroke="none"/>
</svg>
