<?xml version="1.0" encoding="UTF-8"?>
<svg xmlns="http://www.w3.org/2000/svg" width="548.550" height="395.124" viewBox="0 0 548.550 395.124">
  <path d="M 50.64 340.706 L 157.1 340.706 L 158.46 341.821 C 191.1 368.458 232.23 383.124 274.28 383.124 C 316.32 383.124 357.45 368.458 390.09 341.821 L 391.45 340.706 L 497.91 340.706 L 497.91 325.706 C 497.91 312.463 508.6 301.689 521.75 301.689 L 536.63 301.689 L 536.63 93.439 L 521.75 93.439 C 508.6 93.439 497.91 82.664 497.91 69.421 L 497.91 54.421 L 391.45 54.421 L 390.09 53.307 C 357.45 26.67 316.32 12 274.28 12 C 232.23 12 191.1 26.67 158.46 53.307 L 157.1 54.421 L 50.64 54.421 L 50.64 69.421 C 50.64 82.664 39.95 93.439 26.81 93.439 L 11.92 93.439 L 11.92 301.689 L 26.81 301.689 C 39.95 301.689 50.64 312.463 50.64 325.706 L 50.64 340.706 Z M 274.28 393.124 C 230.56 393.124 187.77 378.074 153.6 350.706 L 40.72 350.706 L 40.72 325.706 C 40.72 317.977 34.48 311.689 26.81 311.689 L 2 311.689 L 2 83.439 L 26.81 83.439 C 34.48 83.439 40.72 77.151 40.72 69.421 L 40.72 44.421 L 153.6 44.421 C 187.77 17.053 230.56 2 274.28 2 C 317.99 2 360.78 17.053 394.96 44.421 L 507.84 44.421 L 507.84 69.421 C 507.84 77.151 514.08 83.439 521.75 83.439 L 546.55 83.439 L 546.55 311.689 L 521.75 311.689 C 514.08 311.689 507.84 317.977 507.84 325.706 L 507.84 350.706 L 394.96 350.706 C 360.78 378.074 317.99 393.124 274.28 393.124 Z" fill="#000000" stroke="none"/><path d="M 66.5 324.706 L 162.96 324.706 L 163.24 324.955 C 193.94 352.151 233.37 367.128 274.28 367.128 C 315.18 367.128 354.61 352.151 385.31 324.955 L 385.59 324.706 L 482.05 324.706 C 482.57 303.432 499.64 286.225 520.75 285.701 L 520.75 109.427 C 499.64 108.903 482.57 91.695 482.05 70.421 L 385.59 70.421 L 385.31 70.172 C 354.61 42.977 315.18 28 274.28 28 C 233.37 28 193.94 42.977 163.24 70.172 L 162.96 70.421 L 66.5 70.421 C 65.98 91.695 48.91 108.903 27.8 109.427 L 27.8 285.701 C 48.91 286.225 65.98 303.432 66.5 324.706 Z M 274.28 369.128 C 233.02 369.128 193.24 354.067 162.22 326.706 L 64.53 326.706 L 64.53 325.706 C 64.53 304.744 47.61 287.689 26.81 287.689 L 25.81 287.689 L 25.81 107.439 L 26.81 107.439 C 47.61 107.439 64.53 90.384 64.53 69.421 L 64.53 68.421 L 162.22 68.421 C 193.24 41.061 233.02 26 274.28 26 C 315.54 26 355.32 41.061 386.34 68.421 L 484.02 68.421 L 484.02 69.421 C 484.02 90.384 500.94 107.439 521.75 107.439 L 522.74 107.439 L 522.74 287.689 L 521.75 287.689 C 500.94 287.689 484.02 304.744 484.02 325.706 L 484.02 326.706 L 386.34 326.706 C 355.32 354.067 315.54 369.128 274.28 369.128 Z" fill="#000000" stroke="none"/><path d="M 274.35 27 C 274.39 27 274.42 27 274.45 27 C 274.42 27 274.39 27 274.35 27 Z M 274.2 27 C 274.17 27 274.14 27 274.1 27 C 274.13 27 274.17 27 274.2 27 Z M 274.51 27 C 274.51 27 274.51 27 274.52 27 C 274.51 27 274.51 27 274.51 27 Z M 274.05 27 C 274.04 27 274.04 27 274.04 27 C 274.04 27 274.04 27 274.05 27 Z M 274.64 27.001 L 274.64 27.001 L 274.64 27.001 Z M 273.92 27.001 L 273.92 27.001 L 273.92 27.001 Z M 385.96 69.421 L 385.95 69.409 C 385.95 69.413 385.96 69.416 385.96 69.421 L 385.96 69.421 Z M 483.02 69.421 L 483.04 70.221 C 483.03 69.955 483.03 69.688 483.03 69.421 L 483.02 69.421 Z M 65.52 69.421 C 65.52 69.688 65.52 69.955 65.52 70.221 L 65.53 69.421 L 65.52 69.421 Z M 26.81 108.439 L 26.81 108.451 L 27.77 108.427 C 47.93 107.927 64.21 91.998 65.45 71.88 C 64.18 92.253 47.34 108.439 26.81 108.439 Z M 483.11 71.898 C 484.35 92.007 500.62 107.927 520.78 108.427 L 521.75 108.451 L 521.75 286.677 L 520.78 286.701 C 500.62 287.201 484.35 303.12 483.11 323.23 C 484.38 302.864 501.22 286.689 521.75 286.689 L 521.75 108.439 C 501.22 108.439 484.38 92.264 483.11 71.898 Z M 26.81 286.689 C 47.34 286.689 64.18 302.875 65.45 323.248 C 64.21 303.13 47.93 287.201 27.77 286.701 L 26.81 286.677 L 26.81 286.689 Z M 65.52 325.706 L 162.59 325.706 L 65.53 325.706 L 65.52 324.907 C 65.52 325.172 65.52 325.44 65.52 325.706 Z M 385.96 325.706 L 483.03 325.706 C 483.03 325.44 483.03 325.172 483.04 324.907 L 483.02 325.706 L 385.96 325.706 Z M 67.46 323.706 L 163.34 323.706 L 163.9 324.204 C 194.42 351.239 233.61 366.128 274.28 366.128 C 314.94 366.128 354.14 351.239 384.65 324.204 L 385.22 323.706 L 481.09 323.706 C 482.1 302.605 498.82 285.749 519.76 284.737 L 519.76 110.391 C 498.82 109.379 482.1 92.522 481.09 71.421 L 385.22 71.421 L 384.65 70.923 C 354.14 43.889 314.94 29 274.28 29 C 233.61 29 194.42 43.889 163.9 70.923 L 163.34 71.421 L 67.46 71.421 C 66.46 92.522 49.73 109.379 28.79 110.391 L 28.79 284.737 C 49.73 285.749 66.46 302.605 67.46 323.706 Z M 274.64 368.127 L 274.64 368.127 L 274.64 368.127 Z M 273.92 368.127 L 273.92 368.127 L 273.92 368.127 Z M 274.04 368.128 C 274.04 368.128 274.04 368.128 274.05 368.128 C 274.04 368.128 274.04 368.128 274.04 368.128 Z M 274.52 368.128 C 274.51 368.128 274.51 368.128 274.51 368.128 C 274.51 368.128 274.51 368.128 274.52 368.128 Z M 274.45 368.128 C 274.42 368.128 274.39 368.128 274.35 368.128 C 274.39 368.128 274.42 368.128 274.45 368.128 Z M 274.1 368.128 C 274.13 368.128 274.17 368.128 274.2 368.128 C 274.17 368.128 274.13 368.128 274.1 368.128 Z M 274.28 370.128 C 232.91 370.128 193 355.066 161.84 327.706 L 63.54 327.706 L 63.54 325.706 C 63.54 305.295 47.06 288.689 26.81 288.689 L 24.82 288.689 L 24.82 106.439 L 26.81 106.439 C 47.06 106.439 63.54 89.833 63.54 69.421 L 63.54 67.421 L 161.84 67.421 C 193 40.062 232.91 25 274.28 25 C 315.64 25 355.55 40.062 386.71 67.421 L 485.01 67.421 L 485.01 69.421 C 485.01 89.833 501.49 106.439 521.75 106.439 L 523.73 106.439 L 523.73 288.689 L 521.75 288.689 C 501.49 288.689 485.01 305.295 485.01 325.706 L 485.01 327.706 L 386.71 327.706 C 355.55 355.066 315.64 370.128 274.28 370.128 Z" fill="#000000" stroke="none"/>
</svg>
