<?xml version="1.0" encoding="UTF-8"?>
<svg xmlns="http://www.w3.org/2000/svg" width="548.550" height="310.280" viewBox="0 0 548.550 310.280">
  <path d="M 72.09 298.28 L 476.46 298.28 L 536.63 237.65 L 536.63 72.63 L 476.46 12 L 72.09 12 L 11.92 72.63 L 11.92 237.65 L 72.09 298.28 Z M 480.58 308.28 L 67.98 308.28 L 2 241.79 L 2 68.49 L 67.98 2 L 480.58 2 L 546.55 68.49 L 546.55 241.79 L 480.58 308.28 Z" fill="#000000" stroke="none"/><path d="M 78.66 282.28 L 469.89 282.28 L 520.75 231.02 L 520.75 79.26 L 469.89 28 L 78.66 28 L 27.8 79.26 L 27.8 231.02 L 78.66 282.28 Z M 470.71 284.28 L 77.84 284.28 L 25.81 231.85 L 25.81 78.43 L 77.84 26 L 470.71 26 L 522.74 78.43 L 522.74 231.85 L 470.71 284.28 Z" fill="#000000" stroke="none"/><path d="M 521.75 78.85 L 521.75 231.44 L 521.75 78.85 Z M 79.07 281.28 L 469.48 281.28 L 519.76 230.61 L 519.76 79.67 L 469.48 29 L 79.07 29 L 28.79 79.67 L 28.79 230.61 L 79.07 281.28 Z M 78.25 283.28 L 470.3 283.28 L 78.25 283.28 Z M 471.12 285.28 L 77.43 285.28 L 24.82 232.27 L 24.82 78.02 L 77.43 25 L 471.12 25 L 523.73 78.02 L 523.73 232.27 L 471.12 285.28 Z" fill="#000000" stroke="none"/>
</svg>
