<?xml version="1.0" encoding="UTF-8"?>
<svg xmlns="http://www.w3.org/2000/svg" width="592.826" height="356.196" viewBox="0 0 592.826 356.196">
  <path d="M 80.013 321.241 L 151.029 321.241 L 151.802 321.504 C 195.386 336.35 245.386 344.196 296.416 344.196 C 347.436 344.196 397.436 336.35 441.016 321.504 L 441.796 321.241 L 512.806 321.241 L 512.806 308.503 L 530.016 308.503 L 530.016 273.676 L 531.766 272.178 C 563.906 244.706 580.896 212.174 580.896 178.098 C 580.896 144.022 563.906 111.49 531.766 84.019 L 530.016 82.521 L 530.016 47.694 L 512.806 47.694 L 512.806 34.956 L 441.796 34.956 L 441.016 34.693 C 397.446 19.847 347.436 12 296.416 12 C 245.386 12 195.376 19.847 151.802 34.693 L 151.029 34.956 L 80.013 34.956 L 80.013 47.694 L 62.805 47.694 L 62.805 82.521 L 61.053 84.019 C 28.912 111.491 11.923 144.023 11.923 178.098 C 11.923 212.173 28.912 244.706 61.053 272.178 L 62.805 273.676 L 62.805 308.503 L 80.013 308.503 L 80.013 321.241 Z M 296.416 354.196 C 244.616 354.196 193.806 346.26 149.401 331.241 L 70.09 331.241 L 70.09 318.503 L 52.883 318.503 L 52.883 278.29 C 19.583 249.169 2 214.569 2 178.098 C 2 141.628 19.583 107.028 52.883 77.907 L 52.883 37.694 L 70.09 37.694 L 70.09 24.956 L 149.401 24.956 C 193.806 9.937 244.616 2 296.416 2 C 348.206 2 399.016 9.937 443.426 24.956 L 522.736 24.956 L 522.736 37.694 L 539.936 37.694 L 539.936 77.907 C 573.236 107.027 590.826 141.627 590.826 178.098 C 590.826 214.569 573.236 249.169 539.936 278.29 L 539.936 318.503 L 522.736 318.503 L 522.736 331.241 L 443.426 331.241 C 399.016 346.26 348.206 354.196 296.416 354.196 Z" fill="#000000" stroke="none"/><path d="M 95.89 305.241 L 153.691 305.241 L 153.85 305.296 C 196.536 320.278 245.826 328.196 296.416 328.196 C 346.986 328.196 396.286 320.278 438.976 305.296 L 439.126 305.241 L 496.936 305.241 L 496.936 292.503 L 514.136 292.503 L 514.136 265.953 L 514.526 265.652 C 547.566 240.009 565.026 209.733 565.026 178.098 C 565.026 146.463 547.566 116.188 514.526 90.544 L 514.136 90.244 L 514.136 63.694 L 496.936 63.694 L 496.936 50.956 L 439.126 50.956 L 438.976 50.9 C 396.286 35.919 346.996 28 296.416 28 C 245.826 28 196.536 35.919 153.85 50.9 L 153.691 50.956 L 95.89 50.956 L 95.89 63.694 L 78.682 63.694 L 78.682 90.244 L 78.295 90.544 C 45.261 116.188 27.8 146.463 27.8 178.098 C 27.8 209.733 45.261 240.009 78.295 265.652 L 78.682 265.953 L 78.682 292.503 L 95.89 292.503 L 95.89 305.241 Z M 296.416 330.196 C 245.676 330.196 196.206 322.259 153.356 307.241 L 93.905 307.241 L 93.905 294.503 L 76.697 294.503 L 76.697 266.936 C 43.407 240.963 25.815 210.253 25.815 178.098 C 25.815 145.944 43.407 115.233 76.697 89.261 L 76.697 61.694 L 93.905 61.694 L 93.905 48.956 L 153.356 48.956 C 196.206 33.937 245.676 26 296.416 26 C 347.146 26 396.616 33.937 439.466 48.956 L 498.916 48.956 L 498.916 61.694 L 516.126 61.694 L 516.126 89.261 C 549.416 115.233 567.006 145.943 567.006 178.098 C 567.006 210.253 549.416 240.963 516.126 266.936 L 516.126 294.503 L 498.916 294.503 L 498.916 307.241 L 439.466 307.241 C 396.606 322.259 347.146 330.196 296.416 330.196 Z" fill="#000000" stroke="none"/><path d="M 296.626 27 C 296.656 27 296.676 27 296.706 27 C 296.676 27 296.656 27 296.626 27 Z M 296.196 27 C 296.166 27 296.146 27 296.116 27 C 296.146 27 296.166 27 296.196 27 Z M 296.726 27 C 296.766 27 296.816 27 296.856 27 C 296.816 27 296.766 27 296.726 27 Z M 296.096 27 C 296.056 27 296.006 27 295.966 27 C 296.006 27 296.056 27 296.096 27 Z M 296.976 27.001 C 296.986 27.001 296.996 27.001 297.006 27.001 C 296.996 27.001 296.986 27.001 296.976 27.001 Z M 295.846 27.001 C 295.836 27.001 295.826 27.001 295.816 27.001 C 295.826 27.001 295.836 27.001 295.846 27.001 Z M 297.116 27.001 C 297.126 27.001 297.136 27.001 297.156 27.001 C 297.136 27.001 297.126 27.001 297.116 27.001 Z M 295.706 27.001 C 295.696 27.001 295.686 27.001 295.666 27.001 C 295.686 27.001 295.696 27.001 295.706 27.001 Z M 297.576 27.002 C 297.586 27.002 297.586 27.002 297.596 27.002 C 297.596 27.002 297.576 27.002 297.576 27.002 Z M 295.246 27.002 C 295.246 27.002 295.226 27.002 295.226 27.002 C 295.236 27.002 295.236 27.002 295.246 27.002 Z M 297.686 27.002 C 297.706 27.002 297.726 27.002 297.746 27.002 C 297.726 27.002 297.706 27.002 297.686 27.002 Z M 295.136 27.002 C 295.116 27.002 295.096 27.002 295.076 27.002 C 295.096 27.002 295.116 27.002 295.136 27.002 Z M 294.816 27.003 C 294.806 27.003 294.796 27.003 294.776 27.003 C 294.796 27.003 294.806 27.003 294.816 27.003 Z M 298.006 27.003 C 298.016 27.003 298.026 27.003 298.046 27.003 C 298.026 27.003 298.016 27.003 298.006 27.003 Z M 166.396 45.711 C 166.396 45.712 166.386 45.714 166.386 45.715 C 166.386 45.714 166.396 45.712 166.396 45.711 Z M 166.266 45.752 C 166.266 45.753 166.266 45.753 166.256 45.754 C 166.266 45.753 166.266 45.753 166.266 45.752 Z M 166.156 45.788 C 166.146 45.79 166.136 45.793 166.126 45.795 C 166.136 45.793 166.146 45.791 166.156 45.788 Z M 166.026 45.826 C 166.016 45.829 166.006 45.832 165.996 45.835 C 166.006 45.832 166.016 45.829 166.026 45.826 Z M 165.916 45.861 C 165.896 45.866 165.886 45.872 165.866 45.876 C 165.886 45.872 165.896 45.866 165.916 45.861 Z M 165.786 45.902 C 165.766 45.907 165.756 45.911 165.736 45.916 C 165.756 45.912 165.776 45.906 165.786 45.902 Z M 165.666 45.94 C 165.646 45.946 165.626 45.951 165.606 45.957 C 165.626 45.951 165.646 45.946 165.666 45.94 Z M 165.546 45.977 C 165.526 45.983 165.496 45.991 165.476 45.998 C 165.496 45.991 165.526 45.983 165.546 45.977 Z M 165.426 46.014 C 165.396 46.022 165.376 46.03 165.346 46.039 C 165.376 46.03 165.396 46.022 165.426 46.014 Z M 165.306 46.052 C 165.276 46.061 165.246 46.069 165.216 46.078 C 165.246 46.07 165.276 46.06 165.306 46.052 Z M 165.176 46.091 C 165.146 46.1 165.116 46.11 165.086 46.12 C 165.116 46.11 165.146 46.101 165.176 46.091 Z M 165.066 46.126 C 165.026 46.138 164.996 46.149 164.956 46.161 C 164.996 46.149 165.026 46.138 165.066 46.126 Z M 164.946 46.164 C 164.866 46.189 164.776 46.216 164.696 46.242 C 164.776 46.215 164.866 46.19 164.946 46.164 Z M 153.523 49.956 L 153.523 49.956 C 157.196 48.666 160.926 47.428 164.696 46.242 C 160.976 47.41 157.306 48.63 153.682 49.9 L 153.523 49.956 Z M 439.296 49.956 L 439.286 49.952 C 439.286 49.953 439.296 49.955 439.296 49.956 L 439.296 49.956 Z M 497.926 62.694 L 497.926 49.956 L 497.926 62.694 Z M 77.69 89.751 L 77.494 89.904 C 77.557 89.855 77.627 89.801 77.69 89.752 L 77.69 89.751 Z M 515.136 89.752 L 515.136 89.752 C 518.336 92.236 521.386 94.764 524.296 97.332 C 521.506 94.867 518.576 92.439 515.516 90.051 L 515.136 89.751 L 515.136 62.694 L 515.136 89.752 Z M 524.306 97.338 C 524.306 97.345 524.316 97.351 524.326 97.358 C 524.316 97.351 524.306 97.345 524.306 97.338 Z M 566.016 177.958 C 566.016 177.962 566.016 177.963 566.016 177.967 C 566.016 177.963 566.016 177.962 566.016 177.958 Z M 26.807 177.958 C 26.807 177.962 26.807 177.964 26.807 177.968 C 26.807 177.964 26.807 177.962 26.807 177.958 Z M 26.807 178.229 C 26.807 178.233 26.807 178.234 26.807 178.238 C 26.807 178.234 26.807 178.233 26.807 178.229 Z M 566.016 178.228 C 566.016 178.232 566.016 178.234 566.016 178.238 C 566.016 178.234 566.016 178.232 566.016 178.228 Z M 524.936 258.298 C 524.926 258.303 524.926 258.305 524.916 258.31 C 524.926 258.305 524.926 258.303 524.936 258.298 Z M 68.201 258.576 C 68.202 258.578 68.205 258.581 68.207 258.582 C 68.205 258.581 68.202 258.578 68.201 258.576 Z M 68.225 258.598 C 71.107 261.154 74.135 263.672 77.305 266.145 L 77.69 266.446 L 77.69 266.444 C 74.378 263.874 71.224 261.259 68.225 258.598 Z M 77.69 293.503 L 94.897 293.503 L 77.69 293.503 Z M 439.296 306.241 L 439.296 306.241 C 433.496 308.278 427.566 310.185 421.536 311.96 C 427.506 310.202 433.386 308.312 439.136 306.296 L 439.296 306.241 L 497.926 306.241 L 497.926 293.503 L 515.136 293.503 L 515.136 266.446 L 515.516 266.145 C 518.806 263.581 521.936 260.972 524.906 258.318 C 521.816 261.074 518.556 263.785 515.136 266.444 L 515.136 293.503 L 497.926 293.503 L 497.926 306.241 L 439.296 306.241 Z M 421.516 311.963 C 421.486 311.973 421.456 311.982 421.426 311.992 C 421.456 311.982 421.486 311.973 421.516 311.963 Z M 421.386 312.002 C 421.356 312.01 421.336 312.018 421.306 312.026 C 421.336 312.018 421.356 312.01 421.386 312.002 Z M 421.256 312.041 C 421.236 312.046 421.216 312.052 421.196 312.058 C 421.216 312.052 421.236 312.046 421.256 312.041 Z M 421.126 312.08 C 421.116 312.083 421.106 312.084 421.096 312.086 C 421.106 312.085 421.116 312.082 421.126 312.08 Z M 420.986 312.119 L 420.986 312.12 L 420.986 312.119 Z M 94.897 306.241 L 153.523 306.241 L 153.682 306.296 C 160.316 308.62 167.096 310.772 174.026 312.753 C 167.046 310.756 160.206 308.585 153.523 306.241 L 94.897 306.241 Z M 174.046 312.759 C 174.086 312.769 174.116 312.779 174.156 312.79 C 174.116 312.779 174.086 312.769 174.046 312.759 Z M 174.176 312.796 C 174.206 312.803 174.226 312.811 174.256 312.818 C 174.226 312.811 174.206 312.803 174.176 312.796 Z M 174.316 312.835 C 174.326 312.838 174.336 312.841 174.346 312.844 C 174.336 312.841 174.326 312.838 174.316 312.835 Z M 174.446 312.873 L 174.446 312.873 L 174.446 312.873 Z M 96.882 304.241 L 153.859 304.241 L 154.175 304.352 C 196.756 319.297 245.936 327.196 296.416 327.196 C 346.886 327.196 396.066 319.297 438.646 304.352 L 438.966 304.241 L 495.936 304.241 L 495.936 291.503 L 513.146 291.503 L 513.146 265.461 L 513.916 264.86 C 546.706 239.414 564.026 209.412 564.026 178.098 C 564.026 146.785 546.706 116.783 513.916 91.336 L 513.146 90.736 L 513.146 64.694 L 495.936 64.694 L 495.936 51.956 L 438.966 51.956 L 438.646 51.845 C 396.066 36.9 346.886 29 296.416 29 C 245.936 29 196.756 36.9 154.176 51.845 L 153.86 51.956 L 96.882 51.956 L 96.882 64.694 L 79.674 64.694 L 79.674 90.736 L 78.901 91.336 C 46.119 116.783 28.792 146.785 28.792 178.098 C 28.792 209.412 46.119 239.414 78.901 264.86 L 79.674 265.461 L 79.674 291.503 L 96.882 291.503 L 96.882 304.241 Z M 294.776 329.193 C 294.796 329.193 294.806 329.194 294.816 329.194 C 294.806 329.194 294.796 329.193 294.776 329.193 Z M 298.046 329.193 C 298.026 329.193 298.016 329.194 298.006 329.194 C 298.016 329.194 298.026 329.193 298.046 329.193 Z M 297.896 329.194 L 297.896 329.194 L 297.896 329.194 Z M 295.076 329.194 C 295.096 329.194 295.116 329.194 295.136 329.195 C 295.116 329.194 295.096 329.194 295.076 329.194 Z M 297.746 329.194 C 297.726 329.194 297.706 329.194 297.686 329.195 C 297.706 329.194 297.726 329.194 297.746 329.194 Z M 295.226 329.195 C 295.226 329.195 295.246 329.195 295.246 329.195 C 295.236 329.195 295.236 329.195 295.226 329.195 Z M 297.596 329.195 C 297.586 329.195 297.586 329.195 297.576 329.195 C 297.586 329.195 297.586 329.195 297.596 329.195 Z M 295.666 329.196 C 295.686 329.196 295.696 329.196 295.706 329.196 C 295.696 329.196 295.686 329.196 295.666 329.196 Z M 297.156 329.196 C 297.136 329.196 297.126 329.196 297.116 329.196 C 297.126 329.196 297.136 329.196 297.156 329.196 Z M 295.816 329.196 C 295.826 329.196 295.836 329.196 295.846 329.196 C 295.836 329.196 295.826 329.196 295.816 329.196 Z M 297.006 329.196 C 296.996 329.196 296.986 329.196 296.966 329.196 C 296.986 329.196 296.996 329.196 297.006 329.196 Z M 295.966 329.196 C 296.006 329.196 296.056 329.196 296.096 329.196 C 296.056 329.196 296.006 329.196 295.966 329.196 Z M 296.856 329.196 C 296.816 329.196 296.766 329.196 296.726 329.196 C 296.766 329.196 296.816 329.196 296.856 329.196 Z M 296.116 329.196 C 296.146 329.196 296.166 329.196 296.196 329.196 C 296.166 329.196 296.146 329.196 296.116 329.196 Z M 296.706 329.196 C 296.676 329.196 296.656 329.196 296.626 329.196 C 296.656 329.196 296.676 329.196 296.706 329.196 Z M 296.416 331.196 C 245.626 331.196 196.106 323.259 153.188 308.241 L 92.913 308.241 L 92.913 295.503 L 75.705 295.503 L 75.705 267.426 C 42.416 241.323 24.823 210.442 24.823 178.098 C 24.823 145.754 42.416 114.874 75.705 88.771 L 75.705 60.694 L 92.913 60.694 L 92.913 47.956 L 153.188 47.956 C 196.106 32.938 245.626 25 296.416 25 C 347.196 25 396.716 32.938 439.636 47.956 L 499.906 47.956 L 499.906 60.694 L 517.116 60.694 L 517.116 88.771 C 550.406 114.874 567.996 145.755 567.996 178.098 C 567.996 210.442 550.406 241.322 517.116 267.426 L 517.116 295.503 L 499.906 295.503 L 499.906 308.241 L 439.636 308.241 C 396.716 323.259 347.196 331.196 296.416 331.196 Z" fill="#000000" stroke="none"/>
</svg>
