<?xml version="1.0" encoding="UTF-8"?>
<svg xmlns="http://www.w3.org/2000/svg" width="129.755" height="118.032" viewBox="102.527 39.301 129.755 118.032">
  <path d="M 128.509 80.341 C 124.872 79.399 121.437 77.714 118.249 75.638 C 115.07 73.541 112.111 70.999 109.653 67.866 C 107.217 64.753 105.261 60.917 104.774 56.548 C 104.527 54.381 104.668 52.128 105.175 49.973 C 105.678 47.814 106.53 45.763 107.579 43.867 L 107.602 43.826 C 108.628 41.972 110.963 41.301 112.817 42.327 C 114.67 43.354 115.341 45.688 114.315 47.542 C 114.214 47.724 114.087 47.911 113.963 48.069 C 112.052 50.477 110.782 53.24 110.63 56.293 C 110.451 59.338 111.392 62.6 113.048 65.601 C 114.704 68.611 117.01 71.388 119.657 73.818 C 122.319 76.236 125.321 78.374 128.673 79.847 L 128.68 79.85 C 128.812 79.908 128.872 80.062 128.814 80.194 C 128.762 80.313 128.631 80.373 128.509 80.341 Z" fill="#000000" stroke="none"/>
  <path d="M 131.842 80.443 C 129.372 79.307 127.157 77.63 125.19 75.699 C 123.23 73.754 121.505 71.507 120.222 68.922 C 118.947 66.35 118.128 63.372 118.272 60.24 C 118.391 57.11 119.562 53.993 121.323 51.383 C 122.246 50.012 124.108 49.648 125.48 50.572 C 126.852 51.496 127.215 53.357 126.291 54.729 C 126.199 54.866 126.082 55.008 125.973 55.125 C 124.449 56.719 123.299 58.603 122.809 60.783 C 122.304 62.955 122.472 65.384 123.167 67.752 C 123.861 70.124 125.04 72.436 126.535 74.549 C 128.039 76.655 129.843 78.61 132.018 80.116 L 132.025 80.121 C 132.11 80.179 132.13 80.295 132.072 80.38 C 132.02 80.455 131.922 80.48 131.842 80.443 Z" fill="#000000" stroke="none"/>
  <path d="M 138.598 80.688 C 136.829 79.751 135.247 78.461 133.841 76.993 C 132.441 75.515 131.206 73.832 130.305 71.894 C 129.413 69.969 128.86 67.714 129.146 65.353 C 129.408 62.989 130.605 60.73 132.186 58.992 L 132.198 58.979 C 133.047 58.045 134.492 57.977 135.426 58.826 C 136.36 59.675 136.428 61.12 135.579 62.054 C 135.491 62.15 135.388 62.244 135.289 62.322 C 134.03 63.299 133.04 64.513 132.563 66.028 C 132.074 67.536 132.119 69.317 132.574 71.069 C 133.028 72.825 133.849 74.555 134.893 76.153 C 135.946 77.747 137.212 79.242 138.745 80.453 L 138.749 80.456 C 138.81 80.504 138.821 80.591 138.773 80.652 C 138.731 80.705 138.657 80.719 138.598 80.688 Z" fill="#000000" stroke="none"/>
  <path d="M 156.079 138.605 C 157.153 139.925 157.529 141.767 157.211 143.473 C 156.9 145.19 156.044 146.759 154.989 148.125 C 152.842 150.853 149.848 152.87 146.544 154.019 C 143.235 155.171 139.538 155.333 136.094 154.401 C 132.657 153.458 129.5 151.57 127.067 148.895 C 124.635 146.227 123.086 142.785 122.547 139.239 C 121.998 135.684 122.357 132.042 123.424 128.64 C 124.494 125.238 126.287 122.05 128.725 119.407 C 131.15 116.757 134.226 114.67 137.638 113.449 C 141.051 112.231 144.75 111.907 148.288 112.368 C 151.838 112.813 155.222 113.965 158.373 115.477 C 164.399 118.375 170.558 121.007 176.948 122.895 C 183.311 124.781 189.934 126.062 196.543 125.672 C 199.831 125.459 203.123 124.819 206.134 123.424 C 209.134 122.029 211.807 119.887 213.84 117.181 C 212.961 118.624 211.905 119.974 210.67 121.158 C 209.429 122.335 208.028 123.35 206.524 124.19 C 203.502 125.852 200.112 126.825 196.69 127.23 C 189.806 128.041 182.891 126.969 176.281 125.265 C 169.673 123.47 163.275 121.001 157.131 118.059 C 154.195 116.674 151.095 115.651 147.933 115.276 C 144.778 114.903 141.574 115.173 138.612 116.201 C 135.655 117.24 132.971 119.028 130.823 121.346 C 128.677 123.665 127.03 126.464 126.011 129.48 C 125.001 132.496 124.625 135.739 125.051 138.874 C 125.473 141.999 126.692 145.024 128.749 147.419 C 130.775 149.819 133.602 151.601 136.619 152.596 C 139.658 153.578 143.002 153.57 146.128 152.687 C 149.253 151.82 152.211 150.098 154.406 147.642 C 155.491 146.414 156.38 144.978 156.791 143.383 C 157.224 141.804 157.035 140.018 156.079 138.605 Z" fill="#000000" stroke="none"/>
  <path d="M 153.775 120.796 C 154.608 121.454 155.5 122.023 156.407 122.566 C 157.304 123.121 158.223 123.639 159.15 124.141 C 161.008 125.138 162.89 126.081 164.811 126.938 C 168.631 128.694 172.572 130.156 176.559 131.389 C 180.565 132.561 184.624 133.523 188.734 133.968 C 192.831 134.433 196.973 134.482 200.983 133.796 C 204.986 133.183 208.873 131.756 212.404 129.776 C 215.927 127.801 219.018 125.047 221.101 121.65 C 222.119 119.95 222.874 118.073 223.137 116.137 C 223.288 115.168 223.265 114.195 223.141 113.242 C 222.978 112.298 222.643 111.399 222.132 110.611 C 221.134 108.997 219.189 108.127 217.169 108.122 C 215.134 108.069 213.065 108.699 211.13 109.551 C 212.922 108.427 214.92 107.494 217.141 107.303 C 219.315 107.04 221.834 107.839 223.3 109.75 C 224.03 110.679 224.519 111.773 224.803 112.899 C 225.046 114.029 225.153 115.189 225.066 116.329 C 224.928 118.62 224.147 120.794 223.112 122.781 C 221.003 126.778 217.58 129.888 213.822 132.19 C 211.915 133.308 209.922 134.283 207.852 135.013 C 205.784 135.765 203.635 136.378 201.458 136.711 C 192.7 138.078 183.897 136.457 175.837 133.57 C 171.792 132.111 167.887 130.316 164.157 128.226 C 162.302 127.164 160.475 126.054 158.723 124.835 C 156.979 123.611 155.257 122.325 153.775 120.796 Z" fill="#000000" stroke="none"/>
  <path d="M 186.171 140.969 C 191.021 142.316 195.967 142.584 200.821 142.219 C 203.243 141.997 205.651 141.666 207.99 141.066 C 210.331 140.496 212.624 139.748 214.78 138.728 C 219.119 136.775 222.978 133.798 225.596 129.84 C 228.242 125.88 229.416 121.017 229.745 116.001 C 230.202 118.478 230.282 121.047 229.965 123.609 C 229.622 126.162 228.846 128.708 227.577 131.022 C 226.346 133.361 224.6 135.412 222.635 137.172 C 220.64 138.908 218.378 140.301 216.012 141.413 C 211.235 143.561 206.041 144.56 200.903 144.516 C 195.788 144.469 190.578 143.468 186.171 140.969 Z" fill="#000000" stroke="none"/>
</svg>