<?xml version="1.0" encoding="UTF-8"?>
<svg xmlns="http://www.w3.org/2000/svg" width="150.457" height="182.988" viewBox="0 0 150.457 182.988">
  <path d="M 125.991 86.856 C 124.27 85.665 122.651 84.203 121.608 82.294 C 120.547 80.412 120.225 78.048 120.857 75.919 C 121.462 73.777 122.847 71.938 124.538 70.55 C 126.241 69.159 128.288 68.2 130.456 67.765 C 132.619 67.317 134.922 67.406 137.057 68.108 C 139.198 68.793 141.127 70.085 142.649 71.706 C 144.185 73.324 145.338 75.24 146.215 77.235 C 146.651 78.236 147.019 79.26 147.334 80.296 C 147.486 80.82 147.605 81.368 147.74 81.904 C 147.844 82.449 147.92 82.999 148.009 83.546 C 148.535 87.977 147.486 92.43 145.644 96.351 C 143.777 100.29 141.122 103.755 138.139 106.83 C 135.136 109.895 131.748 112.554 128.115 114.79 C 124.502 117.062 120.622 118.885 116.62 120.327 C 108.606 123.19 100.012 124.399 91.564 123.749 C 87.34 123.441 83.161 122.64 79.13 121.391 C 75.085 120.184 71.208 118.469 67.538 116.414 C 60.181 112.312 53.77 106.657 48.41 100.202 C 45.739 96.961 43.298 93.533 41.052 89.984 C 38.833 86.427 36.784 82.712 35.229 78.77 C 34.41 76.816 33.775 74.783 33.203 72.735 C 32.67 70.672 32.277 68.569 32.03 66.44 C 31.597 62.18 31.839 57.793 33.03 53.62 C 34.185 49.444 36.191 45.501 38.853 42.078 C 41.52 38.654 44.82 35.762 48.455 33.434 C 52.095 31.109 56.086 29.343 60.266 28.217 C 64.445 27.102 68.834 26.606 73.229 27.069 C 77.58 27.542 82.095 29.094 85.445 32.37 C 87.126 33.971 88.385 36.009 89.204 38.16 C 89.418 38.697 89.557 39.255 89.734 39.802 C 89.855 40.363 89.993 40.906 90.09 41.485 C 90.282 42.663 90.298 43.845 90.196 44.995 C 89.735 49.61 87.687 53.683 85.056 57.192 C 83.716 58.941 82.189 60.558 80.397 61.932 C 79.499 62.614 78.533 63.239 77.461 63.735 C 76.416 64.201 75.394 64.575 74.331 64.893 C 70.096 66.141 65.699 66.378 61.416 66.019 C 57.125 65.655 52.921 64.652 48.917 63.151 C 40.937 60.142 33.672 54.873 28.963 47.71 C 26.606 44.149 25.008 40.099 24.269 35.927 C 23.524 31.752 23.615 27.471 24.397 23.356 C 24.412 23.274 24.49 23.221 24.572 23.236 C 24.65 23.251 24.702 23.324 24.693 23.402 C 24.186 27.528 24.309 31.723 25.224 35.733 C 26.143 39.74 27.876 43.523 30.227 46.852 C 34.951 53.548 42.09 58.223 49.727 60.935 C 53.566 62.278 57.577 63.14 61.612 63.392 C 65.638 63.643 69.715 63.314 73.474 62.11 C 74.406 61.813 75.337 61.443 76.188 61.04 C 77.001 60.64 77.799 60.128 78.554 59.539 C 80.066 58.36 81.421 56.907 82.6 55.334 C 84.933 52.191 86.693 48.463 87.011 44.727 C 87.084 43.798 87.056 42.88 86.918 41.997 C 86.843 41.548 86.723 41.077 86.629 40.619 C 86.48 40.175 86.372 39.714 86.199 39.282 C 85.533 37.546 84.553 35.938 83.207 34.657 C 80.551 32.035 76.746 30.665 72.869 30.181 C 68.959 29.718 64.908 30.11 61.022 31.1 C 57.131 32.097 53.382 33.7 49.964 35.826 C 46.544 37.949 43.466 40.617 40.935 43.729 C 38.406 46.843 36.48 50.437 35.327 54.282 C 34.148 58.126 33.824 62.207 34.085 66.254 C 34.254 68.277 34.562 70.295 35.009 72.289 C 35.495 74.274 36.042 76.254 36.776 78.175 C 38.174 82.047 40.071 85.725 42.167 89.308 C 44.263 92.885 46.605 96.32 49.228 99.531 C 54.439 105.958 60.707 111.63 68.01 115.564 C 75.267 119.547 83.443 121.777 91.662 122.073 C 99.885 122.426 108.126 120.935 115.749 117.978 C 123.372 115.042 130.492 110.694 136.253 104.969 C 139.097 102.089 141.609 98.854 143.354 95.252 C 145.114 91.679 146.107 87.705 145.717 83.798 C 145.644 83.315 145.589 82.828 145.506 82.347 C 145.393 81.87 145.302 81.395 145.174 80.915 C 144.906 79.948 144.601 78.994 144.231 78.069 C 143.49 76.225 142.508 74.483 141.212 73.028 C 139.926 71.569 138.312 70.417 136.492 69.768 C 134.678 69.107 132.676 68.956 130.743 69.292 C 128.806 69.615 126.947 70.428 125.348 71.588 C 123.764 72.76 122.446 74.348 121.818 76.215 C 121.168 78.07 121.33 80.176 122.226 81.978 C 123.099 83.798 124.544 85.336 126.167 86.613 C 126.233 86.664 126.245 86.758 126.195 86.823 C 126.146 86.887 126.056 86.9 125.991 86.856 Z" fill="#000000" stroke="none"/><path d="M 94.068 114.957 C 85.206 114.05 76.319 113.926 67.535 114.663 C 58.77 115.444 50.055 117.12 42.029 120.487 C 38.023 122.152 34.193 124.319 30.975 127.234 C 29.355 128.677 27.92 130.322 26.681 132.112 C 25.487 133.929 24.488 135.891 23.806 137.97 C 21.112 146.265 22.337 156.051 27.784 162.816 C 33.181 169.594 41.921 173.198 50.36 172.922 C 54.576 172.78 58.765 171.591 62.147 169.243 C 65.525 166.907 68.045 163.468 69.2 159.488 C 69.83 157.52 70.138 155.433 70.236 153.325 C 70.346 151.23 70.143 149.158 69.6 147.196 C 68.551 143.261 65.702 139.931 61.889 138.338 C 58.129 136.742 53.52 136.643 49.814 138.632 C 47.977 139.615 46.415 141.132 45.466 143.038 C 44.525 144.947 44.22 147.174 44.383 149.373 C 44.389 149.456 44.327 149.528 44.244 149.534 C 44.168 149.54 44.1 149.486 44.086 149.413 C 43.647 147.211 43.729 144.835 44.569 142.646 C 45.404 140.462 47.014 138.545 49.038 137.31 C 53.085 134.803 58.276 134.459 62.767 136.121 C 65.019 136.945 67.111 138.298 68.784 140.077 C 70.455 141.858 71.676 144.045 72.407 146.349 C 73.154 148.654 73.394 151.079 73.324 153.429 C 73.259 155.767 72.958 158.132 72.274 160.423 C 70.925 164.997 67.945 169.221 63.888 171.826 C 59.863 174.481 55.091 175.682 50.425 175.735 C 41.087 175.86 31.756 171.405 26.465 163.797 C 23.784 160.044 22.246 155.591 21.721 151.099 C 21.228 146.6 21.544 142.016 22.883 137.673 C 24.212 133.339 26.622 129.314 29.823 126.041 C 33.017 122.75 36.904 120.193 41.009 118.214 C 45.139 116.26 49.517 114.918 53.949 114.002 C 58.386 113.087 62.881 112.553 67.379 112.341 C 76.373 111.922 85.398 112.682 94.117 114.661 C 94.198 114.68 94.248 114.76 94.23 114.841 C 94.213 114.916 94.142 114.965 94.068 114.957 Z" fill="#000000" stroke="none"/><path d="M 21.131 105.879 C 36.49 105.127 42.437 114.721 50.751 110.889 C 49.789 110.786 48.685 110.541 47.539 110.152 C 44.399 109.081 42.152 107.335 42.522 106.25 C 42.892 105.165 45.737 105.153 48.878 106.223 C 51.14 106.994 52.933 108.115 53.623 109.088 C 53.646 109.07 53.668 109.056 53.69 109.037 C 42.108 93.669 33.165 104.087 21.131 105.879 Z" fill="#000000" stroke="none"/><path d="M 133.126 104.956 C 131.098 94.556 123.428 92.554 124.716 86.222 C 124.947 86.842 125.301 87.528 125.763 88.213 C 127.03 90.089 128.62 91.23 129.314 90.761 C 130.008 90.292 129.544 88.392 128.277 86.516 C 127.364 85.163 126.285 84.197 125.493 83.937 C 125.502 83.918 125.508 83.901 125.517 83.881 C 138.146 88.459 132.375 96.561 133.126 104.956 Z" fill="#000000" stroke="none"/><path d="M 58.349 159.484 C 56.322 149.082 48.651 147.081 49.94 140.749 C 50.17 141.369 50.525 142.056 50.986 142.74 C 52.254 144.616 53.843 145.757 54.537 145.288 C 55.232 144.819 54.767 142.919 53.501 141.043 C 52.587 139.691 51.509 138.725 50.716 138.464 C 50.725 138.444 50.732 138.428 50.74 138.408 C 63.37 142.986 57.598 151.088 58.349 159.484 Z" fill="#000000" stroke="none"/><path d="M 17.306 2 C 23.374 13.997 17.83 22.161 23.85 27.436 C 23.589 26.631 23.392 25.663 23.295 24.609 C 23.032 21.72 23.627 19.305 24.625 19.213 C 25.622 19.123 26.645 21.391 26.909 24.279 C 27.099 26.36 26.841 28.191 26.31 29.088 C 26.333 29.1 26.352 29.113 26.375 29.125 C 34.524 14.404 23.021 10.972 17.306 2 Z" fill="#000000" stroke="none"/><path d="M 47.149 17.22 C 39.543 28.305 29.718 27.365 27.984 35.179 C 28.565 34.564 29.319 33.925 30.197 33.335 C 32.604 31.715 35.008 31.077 35.568 31.908 C 36.127 32.74 34.629 34.726 32.222 36.345 C 30.488 37.512 28.759 38.165 27.717 38.131 C 27.717 38.156 27.715 38.179 27.716 38.204 C 44.542 38.28 42.026 26.542 47.149 17.22 Z" fill="#000000" stroke="none"/><path d="M 49.708 167.295 C 45.036 156.698 50.177 149.928 45.24 145.116 C 45.427 145.82 45.553 146.662 45.587 147.573 C 45.683 150.07 45.061 152.121 44.198 152.153 C 43.336 152.187 42.559 150.189 42.464 147.693 C 42.396 145.893 42.701 144.33 43.199 143.582 C 43.18 143.571 43.164 143.56 43.145 143.549 C 35.463 155.839 45.202 159.317 49.708 167.295 Z" fill="#000000" stroke="none"/><path d="M 27.583 143.889 C 35.418 140.46 40.407 144.271 43.97 140.635 C 43.45 140.771 42.828 140.862 42.155 140.886 C 40.311 140.951 38.798 140.487 38.775 139.851 C 38.753 139.214 40.23 138.645 42.073 138.579 C 43.402 138.532 44.556 138.761 45.107 139.13 C 45.115 139.116 45.124 139.105 45.132 139.091 C 36.072 133.393 33.484 140.577 27.583 143.889 Z" fill="#000000" stroke="none"/><path d="M 148.457 98.692 L 148.442 98.75 C 148.442 98.752 148.439 98.754 148.437 98.753 C 148.435 98.752 148.433 98.75 148.434 98.748 L 148.434 98.747 L 148.457 98.692 Z" fill="#000000" stroke="none"/><path d="M 147.032 102.963 L 147.009 103.02 C 146.951 103.163 146.786 103.233 146.642 103.174 C 146.498 103.115 146.43 102.951 146.488 102.808 C 146.492 102.798 146.496 102.788 146.502 102.778 L 146.531 102.726 C 146.604 102.591 146.772 102.541 146.907 102.613 C 147.033 102.682 147.084 102.833 147.032 102.963 Z" fill="#000000" stroke="none"/><path d="M 145.082 107.048 L 145.052 107.103 C 144.918 107.348 144.611 107.438 144.367 107.304 C 144.121 107.169 144.032 106.862 144.166 106.617 C 144.173 106.604 144.181 106.59 144.19 106.577 L 144.224 106.527 C 144.379 106.296 144.691 106.235 144.922 106.39 C 145.138 106.535 145.204 106.823 145.082 107.048 Z" fill="#000000" stroke="none"/><path d="M 142.701 110.917 L 142.665 110.968 C 142.446 111.284 142.012 111.363 141.696 111.145 C 141.38 110.926 141.301 110.491 141.52 110.176 C 141.529 110.162 141.54 110.148 141.55 110.135 L 141.588 110.088 C 141.828 109.788 142.265 109.74 142.564 109.98 C 142.849 110.209 142.904 110.62 142.701 110.917 Z" fill="#000000" stroke="none"/><path d="M 139.944 114.537 L 139.904 114.586 C 139.602 114.948 139.064 114.997 138.702 114.696 C 138.34 114.395 138.29 113.857 138.592 113.494 C 138.604 113.479 138.619 113.463 138.633 113.448 L 138.675 113.404 C 139 113.065 139.539 113.053 139.878 113.378 C 140.202 113.689 140.224 114.197 139.944 114.537 Z" fill="#000000" stroke="none"/><path d="M 136.858 117.895 L 136.813 117.94 C 136.429 118.321 135.807 118.319 135.425 117.935 C 135.043 117.551 135.045 116.929 135.43 116.547 C 135.441 116.536 135.455 116.523 135.467 116.513 L 135.513 116.472 C 135.915 116.11 136.535 116.143 136.896 116.545 C 137.246 116.934 137.223 117.529 136.858 117.895 Z" fill="#000000" stroke="none"/><path d="M 133.485 120.977 L 133.436 121.018 C 132.973 121.406 132.283 121.347 131.894 120.884 C 131.505 120.421 131.565 119.732 132.028 119.342 C 132.041 119.331 132.058 119.318 132.072 119.307 L 132.121 119.27 C 132.601 118.905 133.287 118.999 133.652 119.48 C 134.005 119.944 133.925 120.605 133.485 120.977 Z" fill="#000000" stroke="none"/><path d="M 129.841 123.746 L 129.789 123.783 C 129.257 124.152 128.526 124.02 128.157 123.487 C 127.788 122.955 127.921 122.225 128.453 121.856 C 128.462 121.85 128.475 121.841 128.484 121.835 L 128.535 121.802 C 129.077 121.449 129.803 121.603 130.156 122.145 C 130.502 122.677 130.358 123.387 129.841 123.746 Z" fill="#000000" stroke="none"/><path d="M 125.969 126.199 L 125.913 126.232 C 125.32 126.573 124.561 126.369 124.219 125.776 C 123.877 125.182 124.081 124.423 124.675 124.081 C 124.684 124.075 124.7 124.068 124.709 124.062 L 124.763 124.033 C 125.366 123.709 126.118 123.935 126.442 124.538 C 126.76 125.129 126.545 125.865 125.969 126.199 Z" fill="#000000" stroke="none"/><path d="M 121.887 128.298 L 121.828 128.324 C 121.184 128.618 120.423 128.334 120.13 127.69 C 119.836 127.045 120.12 126.284 120.765 125.99 L 120.778 125.985 L 120.834 125.959 C 121.481 125.672 122.239 125.963 122.527 126.61 C 122.813 127.253 122.525 128.006 121.887 128.298 Z" fill="#000000" stroke="none"/><path d="M 117.628 130.023 L 117.568 130.044 C 116.888 130.285 116.142 129.93 115.901 129.25 C 115.66 128.571 116.015 127.825 116.695 127.584 L 116.709 127.579 L 116.766 127.56 C 117.448 127.324 118.191 127.687 118.426 128.367 C 118.659 129.044 118.301 129.783 117.628 130.023 Z" fill="#000000" stroke="none"/><path d="M 113.23 131.368 L 113.168 131.384 C 112.457 131.56 111.739 131.126 111.563 130.416 C 111.389 129.71 111.818 128.995 112.52 128.814 L 112.579 128.799 C 113.288 128.614 114.012 129.04 114.195 129.749 C 114.379 130.457 113.953 131.181 113.245 131.364 L 113.23 131.368 Z" fill="#000000" stroke="none"/><path d="M 108.72 132.276 L 108.656 132.285 C 107.945 132.395 107.28 131.907 107.171 131.196 C 107.062 130.49 107.545 129.829 108.248 129.713 L 108.308 129.703 C 109.018 129.585 109.689 130.066 109.806 130.776 C 109.924 131.485 109.444 132.155 108.735 132.274 L 108.72 132.276 Z" fill="#000000" stroke="none"/><path d="M 104.147 132.774 L 104.083 132.777 C 103.377 132.822 102.77 132.286 102.725 131.581 C 102.681 130.88 103.213 130.276 103.911 130.225 L 103.973 130.22 C 104.677 130.168 105.291 130.696 105.344 131.402 C 105.396 132.107 104.867 132.721 104.161 132.773 L 104.147 132.774 Z" fill="#000000" stroke="none"/><path d="M 99.551 132.833 L 99.486 132.83 C 98.807 132.805 98.277 132.234 98.302 131.555 C 98.327 130.889 98.881 130.366 99.542 130.369 L 99.604 130.37 C 100.285 130.374 100.833 130.929 100.829 131.609 C 100.825 132.289 100.27 132.838 99.59 132.834 C 99.579 132.834 99.562 132.833 99.551 132.833 Z" fill="#000000" stroke="none"/><path d="M 94.975 132.462 L 94.911 132.454 C 94.274 132.373 93.824 131.792 93.904 131.155 C 93.983 130.53 94.548 130.085 95.169 130.144 L 95.231 130.15 C 95.87 130.21 96.34 130.777 96.28 131.417 C 96.219 132.057 95.652 132.527 95.012 132.466 C 95.002 132.465 94.986 132.463 94.975 132.462 Z" fill="#000000" stroke="none"/><path d="M 90.461 131.679 L 90.398 131.665 C 89.818 131.534 89.454 130.958 89.584 130.378 C 89.711 129.817 90.26 129.458 90.82 129.554 L 90.881 129.564 C 91.468 129.665 91.862 130.223 91.762 130.81 C 91.66 131.397 91.103 131.791 90.516 131.69 C 90.499 131.687 90.478 131.683 90.461 131.679 Z" fill="#000000" stroke="none"/><path d="M 86.051 130.495 L 85.989 130.476 C 85.481 130.317 85.199 129.777 85.358 129.269 C 85.512 128.778 86.027 128.499 86.519 128.625 L 86.58 128.641 C 87.096 128.774 87.406 129.3 87.273 129.816 C 87.14 130.332 86.614 130.642 86.098 130.509 C 86.083 130.505 86.065 130.5 86.051 130.495 Z" fill="#000000" stroke="none"/><path d="M 81.767 128.945 L 81.712 128.922 C 81.29 128.747 81.09 128.263 81.265 127.841 C 81.432 127.44 81.883 127.241 82.289 127.373 L 82.345 127.392 C 82.78 127.535 83.016 128.004 82.873 128.439 C 82.73 128.874 82.262 129.11 81.826 128.968 C 81.806 128.961 81.785 128.953 81.767 128.945 Z" fill="#000000" stroke="none"/><path d="M 77.638 127.063 L 77.584 127.035 C 77.254 126.869 77.121 126.467 77.287 126.137 C 77.445 125.822 77.821 125.689 78.141 125.82 L 78.196 125.843 C 78.539 125.985 78.702 126.377 78.56 126.72 C 78.419 127.063 78.027 127.226 77.684 127.084 C 77.669 127.078 77.653 127.07 77.638 127.063 Z" fill="#000000" stroke="none"/><path d="M 73.683 124.864 L 73.63 124.832 C 73.408 124.697 73.337 124.409 73.471 124.188 C 73.598 123.979 73.863 123.904 74.078 124.008 L 74.133 124.034 C 74.368 124.149 74.466 124.431 74.353 124.665 C 74.239 124.901 73.957 124.998 73.722 124.885 C 73.709 124.879 73.696 124.871 73.683 124.864 Z" fill="#000000" stroke="none"/><path d="M 69.911 122.391 L 69.86 122.354 C 69.753 122.278 69.728 122.131 69.804 122.025 C 69.873 121.926 70.007 121.898 70.111 121.955 L 70.166 121.985 C 70.282 122.049 70.324 122.194 70.26 122.311 C 70.196 122.427 70.05 122.469 69.934 122.404 C 69.926 122.401 69.919 122.396 69.911 122.391 Z" fill="#000000" stroke="none"/><path d="M 28.363 53.131 L 28.308 53.098 C 28.304 53.096 28.303 53.091 28.305 53.087 C 28.307 53.084 28.312 53.083 28.316 53.085 L 28.317 53.086 L 28.363 53.131 Z" fill="#000000" stroke="none"/><path d="M 24.729 50.4 L 24.681 50.355 C 24.494 50.179 24.485 49.885 24.662 49.698 C 24.837 49.512 25.131 49.503 25.318 49.679 C 25.336 49.695 25.353 49.715 25.368 49.734 L 25.406 49.783 C 25.562 49.984 25.526 50.272 25.326 50.428 C 25.146 50.568 24.891 50.551 24.729 50.4 Z" fill="#000000" stroke="none"/><path d="M 21.694 46.941 L 21.655 46.887 C 21.402 46.533 21.483 46.042 21.836 45.788 C 22.188 45.534 22.68 45.615 22.934 45.968 C 22.952 45.993 22.971 46.025 22.986 46.052 L 23.016 46.107 C 23.225 46.485 23.087 46.961 22.708 47.17 C 22.358 47.362 21.922 47.256 21.694 46.941 Z" fill="#000000" stroke="none"/><path d="M 19.343 42.953 L 19.314 42.893 C 19.069 42.384 19.283 41.774 19.791 41.529 C 20.299 41.284 20.91 41.498 21.155 42.006 C 21.168 42.034 21.181 42.064 21.191 42.091 L 21.213 42.15 C 21.413 42.675 21.149 43.264 20.623 43.463 C 20.127 43.652 19.572 43.42 19.343 42.953 Z" fill="#000000" stroke="none"/><path d="M 17.647 38.654 L 17.627 38.591 C 17.428 37.97 17.772 37.305 18.394 37.107 C 19.016 36.909 19.68 37.253 19.879 37.874 C 19.884 37.894 19.891 37.917 19.896 37.936 L 19.912 37.996 C 20.077 38.626 19.701 39.272 19.07 39.437 C 18.462 39.597 17.838 39.245 17.647 38.654 Z" fill="#000000" stroke="none"/><path d="M 16.465 34.223 L 16.451 34.159 C 16.303 33.467 16.744 32.787 17.436 32.639 C 18.128 32.492 18.808 32.933 18.956 33.625 C 18.957 33.63 18.96 33.642 18.961 33.648 L 18.973 33.71 C 19.108 34.403 18.656 35.076 17.962 35.212 C 17.277 35.346 16.611 34.903 16.465 34.223 Z" fill="#000000" stroke="none"/><path d="M 15.609 29.776 L 15.597 29.713 C 15.468 28.995 15.945 28.308 16.664 28.178 C 17.381 28.049 18.068 28.526 18.198 29.244 C 18.199 29.25 18.201 29.262 18.202 29.268 L 18.212 29.331 C 18.328 30.051 17.839 30.729 17.119 30.845 C 16.407 30.96 15.736 30.482 15.609 29.776 Z" fill="#000000" stroke="none"/><path d="M 14.848 25.396 L 14.836 25.335 C 14.698 24.634 15.154 23.956 15.855 23.818 C 16.546 23.682 17.218 24.13 17.366 24.816 L 17.38 24.88 C 17.529 25.578 17.084 26.264 16.386 26.414 C 15.689 26.563 15.002 26.118 14.853 25.42 C 14.851 25.414 14.849 25.401 14.848 25.396 Z" fill="#000000" stroke="none"/><path d="M 13.811 21.219 L 13.792 21.161 L 13.789 21.153 C 13.576 20.517 13.92 19.829 14.555 19.616 C 15.169 19.411 15.833 19.727 16.069 20.321 L 16.095 20.385 C 16.342 21.01 16.036 21.716 15.412 21.963 C 14.787 22.211 14.081 21.905 13.834 21.28 C 13.826 21.261 13.817 21.238 13.811 21.219 Z" fill="#000000" stroke="none"/><path d="M 11.978 17.483 L 11.944 17.433 L 11.939 17.424 C 11.614 16.928 11.753 16.262 12.249 15.938 C 12.716 15.631 13.337 15.74 13.679 16.169 L 13.721 16.222 C 14.092 16.687 14.015 17.365 13.549 17.735 C 13.084 18.106 12.406 18.029 12.036 17.564 C 12.016 17.539 11.995 17.509 11.978 17.483 Z" fill="#000000" stroke="none"/><path d="M 9.247 14.204 L 9.203 14.16 L 9.198 14.156 C 8.862 13.822 8.86 13.278 9.194 12.942 C 9.502 12.632 9.989 12.607 10.327 12.867 L 10.379 12.908 C 10.757 13.198 10.828 13.739 10.538 14.117 C 10.248 14.495 9.707 14.566 9.329 14.276 C 9.301 14.255 9.271 14.228 9.247 14.204 Z" fill="#000000" stroke="none"/><path d="M 5.896 11.4 L 5.845 11.363 C 5.596 11.186 5.538 10.84 5.715 10.592 C 5.875 10.367 6.174 10.299 6.413 10.418 L 6.472 10.447 C 6.748 10.585 6.859 10.921 6.722 11.196 C 6.584 11.472 6.248 11.584 5.972 11.446 C 5.946 11.433 5.919 11.416 5.896 11.4 Z" fill="#000000" stroke="none"/><path d="M 2.127 9.035 L 2.07 9.004 C 2.005 8.968 1.981 8.887 2.016 8.822 C 2.046 8.766 2.111 8.741 2.17 8.757 L 2.233 8.775 C 2.308 8.796 2.352 8.874 2.331 8.949 C 2.31 9.025 2.232 9.068 2.157 9.047 C 2.147 9.045 2.136 9.04 2.127 9.035 Z" fill="#000000" stroke="none"/><path d="M 49.741 66.503 L 49.789 66.524 C 49.792 66.525 49.793 66.527 49.792 66.53 C 49.791 66.533 49.788 66.534 49.785 66.533 L 49.784 66.532 L 49.741 66.503 Z" fill="#000000" stroke="none"/><path d="M 53.875 68.223 L 53.921 68.238 C 54.104 68.304 54.2 68.506 54.134 68.689 C 54.069 68.872 53.868 68.968 53.684 68.902 C 53.665 68.896 53.644 68.886 53.626 68.876 L 53.584 68.851 C 53.417 68.755 53.36 68.542 53.457 68.376 C 53.542 68.229 53.72 68.167 53.875 68.223 Z" fill="#000000" stroke="none"/><path d="M 58.074 69.668 L 58.117 69.68 C 58.449 69.771 58.644 70.112 58.553 70.444 C 58.463 70.775 58.121 70.97 57.789 70.88 C 57.758 70.871 57.724 70.859 57.696 70.846 L 57.653 70.826 C 57.342 70.685 57.205 70.319 57.346 70.008 C 57.473 69.728 57.786 69.589 58.074 69.668 Z" fill="#000000" stroke="none"/><path d="M 62.338 70.757 L 62.399 70.77 C 62.849 70.86 63.141 71.299 63.05 71.749 C 62.96 72.199 62.521 72.491 62.071 72.401 C 62.047 72.396 62.021 72.389 61.998 72.382 L 61.935 72.363 C 61.496 72.234 61.246 71.772 61.377 71.333 C 61.499 70.92 61.923 70.675 62.338 70.757 Z" fill="#000000" stroke="none"/><path d="M 66.667 71.401 L 66.729 71.406 C 67.278 71.454 67.683 71.939 67.635 72.488 C 67.586 73.037 67.102 73.443 66.553 73.395 C 66.533 73.393 66.509 73.39 66.489 73.387 L 66.424 73.376 C 65.88 73.293 65.507 72.784 65.591 72.24 C 65.671 71.72 66.149 71.357 66.667 71.401 Z" fill="#000000" stroke="none"/><path d="M 70.997 71.487 L 71.058 71.485 C 71.684 71.456 72.214 71.94 72.243 72.566 C 72.271 73.191 71.787 73.721 71.162 73.749 C 71.149 73.75 71.13 73.75 71.117 73.751 L 71.05 73.751 C 70.425 73.755 69.915 73.251 69.911 72.625 C 69.908 72.016 70.393 71.516 70.997 71.487 Z" fill="#000000" stroke="none"/><path d="M 75.247 70.946 L 75.306 70.933 C 75.965 70.789 76.617 71.206 76.761 71.865 C 76.905 72.525 76.488 73.176 75.828 73.319 C 75.815 73.322 75.795 73.326 75.781 73.329 L 75.715 73.341 C 75.051 73.459 74.418 73.016 74.3 72.353 C 74.185 71.706 74.603 71.088 75.239 70.948 L 75.247 70.946 Z" fill="#000000" stroke="none"/><path d="M 79.301 69.689 L 79.359 69.665 C 80.014 69.394 80.764 69.705 81.035 70.36 C 81.306 71.014 80.995 71.765 80.34 72.035 C 80.337 72.036 80.326 72.041 80.323 72.042 L 80.258 72.069 C 79.599 72.329 78.854 72.008 78.593 71.35 C 78.334 70.696 78.654 69.955 79.301 69.689 Z" fill="#000000" stroke="none"/><path d="M 83.03 67.705 L 83.079 67.672 C 83.68 67.267 84.495 67.426 84.9 68.027 C 85.306 68.627 85.147 69.443 84.546 69.848 C 84.544 69.849 84.533 69.857 84.53 69.859 L 84.473 69.895 C 83.867 70.291 83.055 70.12 82.659 69.514 C 82.266 68.912 82.435 68.105 83.03 67.705 Z" fill="#000000" stroke="none"/><path d="M 86.296 65.043 L 86.337 65.002 C 86.852 64.491 87.682 64.494 88.193 65.009 C 88.699 65.519 88.696 66.344 88.195 66.856 L 88.149 66.902 C 87.639 67.418 86.808 67.423 86.293 66.913 C 85.777 66.403 85.772 65.572 86.281 65.057 C 86.284 65.055 86.293 65.045 86.296 65.043 Z" fill="#000000" stroke="none"/><path d="M 89.008 61.799 L 89.041 61.751 C 89.439 61.165 90.236 61.013 90.823 61.41 C 91.404 61.805 91.556 62.597 91.171 63.181 L 91.135 63.235 C 90.743 63.825 89.947 63.986 89.356 63.595 C 88.765 63.202 88.605 62.406 88.997 61.816 C 88.999 61.813 89.006 61.802 89.008 61.799 Z" fill="#000000" stroke="none"/><path d="M 91.105 58.102 L 91.13 58.049 L 91.132 58.044 C 91.414 57.431 92.139 57.163 92.752 57.445 C 93.348 57.721 93.617 58.418 93.37 59.02 L 93.346 59.079 C 93.088 59.704 92.374 60.001 91.749 59.744 C 91.125 59.487 90.827 58.773 91.085 58.149 C 91.091 58.134 91.099 58.115 91.105 58.102 Z" fill="#000000" stroke="none"/><path d="M 92.552 54.077 L 92.567 54.02 C 92.725 53.415 93.344 53.052 93.95 53.21 C 94.539 53.363 94.897 53.962 94.769 54.552 L 94.755 54.614 C 94.62 55.226 94.014 55.611 93.403 55.476 C 92.791 55.34 92.405 54.734 92.541 54.123 C 92.544 54.109 92.549 54.091 92.552 54.077 Z" fill="#000000" stroke="none"/><path d="M 93.354 49.852 L 93.36 49.792 C 93.417 49.245 93.906 48.848 94.452 48.904 C 94.976 48.958 95.363 49.416 95.346 49.934 L 95.343 49.998 C 95.321 50.549 94.857 50.978 94.306 50.956 C 93.756 50.934 93.327 50.47 93.349 49.919 C 93.35 49.898 93.352 49.873 93.354 49.852 Z" fill="#000000" stroke="none"/><path d="M 93.487 45.523 L 93.484 45.462 C 93.463 45.006 93.815 44.618 94.271 44.597 C 94.701 44.576 95.07 44.895 95.13 45.312 L 95.139 45.375 C 95.201 45.829 94.883 46.248 94.429 46.31 C 93.974 46.372 93.556 46.054 93.494 45.6 C 93.49 45.574 93.488 45.548 93.487 45.523 Z" fill="#000000" stroke="none"/><path d="M 92.957 41.189 L 92.946 41.129 C 92.879 40.796 93.095 40.473 93.427 40.406 C 93.735 40.345 94.036 40.529 94.131 40.821 L 94.151 40.882 C 94.255 41.206 94.077 41.554 93.752 41.658 C 93.427 41.762 93.079 41.584 92.975 41.259 C 92.969 41.237 92.962 41.211 92.957 41.189 Z" fill="#000000" stroke="none"/><path d="M 91.775 36.94 L 91.754 36.881 C 91.689 36.704 91.781 36.509 91.957 36.444 C 92.119 36.386 92.297 36.458 92.375 36.606 L 92.405 36.663 C 92.494 36.831 92.43 37.04 92.261 37.129 C 92.092 37.218 91.883 37.153 91.794 36.985 C 91.787 36.971 91.78 36.955 91.775 36.94 Z" fill="#000000" stroke="none"/><path d="M 22.593 128.163 L 22.548 128.208 C 22.546 128.21 22.543 128.21 22.541 128.208 C 22.539 128.206 22.539 128.203 22.541 128.2 L 22.541 128.2 L 22.593 128.163 Z" fill="#000000" stroke="none"/><path d="M 19.774 131.604 L 19.739 131.656 C 19.634 131.818 19.419 131.862 19.258 131.757 C 19.097 131.652 19.051 131.437 19.157 131.276 C 19.165 131.263 19.176 131.248 19.186 131.237 L 19.228 131.189 C 19.353 131.046 19.57 131.03 19.713 131.155 C 19.844 131.27 19.866 131.463 19.774 131.604 Z" fill="#000000" stroke="none"/><path d="M 17.729 135.484 L 17.705 135.541 C 17.578 135.856 17.219 136.007 16.905 135.88 C 16.59 135.752 16.438 135.394 16.566 135.079 C 16.575 135.057 16.585 135.035 16.596 135.016 L 16.627 134.958 C 16.789 134.662 17.16 134.553 17.456 134.714 C 17.732 134.864 17.844 135.199 17.729 135.484 Z" fill="#000000" stroke="none"/><path d="M 16.419 139.638 L 16.405 139.698 C 16.306 140.143 15.865 140.423 15.421 140.323 C 14.977 140.225 14.696 139.783 14.796 139.339 C 14.801 139.316 14.808 139.29 14.815 139.268 L 14.835 139.205 C 14.973 138.773 15.436 138.534 15.868 138.673 C 16.275 138.803 16.509 139.229 16.419 139.638 Z" fill="#000000" stroke="none"/><path d="M 15.771 143.936 L 15.766 143.993 C 15.724 144.539 15.247 144.947 14.701 144.905 C 14.155 144.863 13.747 144.386 13.79 143.841 C 13.791 143.819 13.794 143.794 13.797 143.773 L 13.806 143.712 C 13.885 143.171 14.387 142.797 14.928 142.876 C 15.445 142.952 15.809 143.422 15.771 143.936 Z" fill="#000000" stroke="none"/><path d="M 15.715 148.274 L 15.718 148.333 C 15.745 148.955 15.263 149.483 14.64 149.51 C 14.017 149.537 13.49 149.055 13.463 148.432 C 13.462 148.418 13.462 148.4 13.462 148.386 L 13.462 148.322 C 13.46 147.7 13.963 147.194 14.586 147.192 C 15.192 147.191 15.689 147.673 15.715 148.274 Z" fill="#000000" stroke="none"/><path d="M 16.166 152.584 L 16.176 152.644 C 16.288 153.306 15.841 153.933 15.18 154.044 C 14.518 154.155 13.891 153.709 13.779 153.048 C 13.776 153.033 13.774 153.014 13.772 152.999 L 13.764 152.936 C 13.679 152.271 14.15 151.662 14.815 151.578 C 15.463 151.495 16.058 151.946 16.166 152.584 Z" fill="#000000" stroke="none"/><path d="M 17.11 156.815 L 17.127 156.873 C 17.316 157.554 16.919 158.26 16.237 158.45 C 15.556 158.64 14.85 158.242 14.66 157.561 C 14.659 157.558 14.656 157.546 14.655 157.543 L 14.639 157.481 C 14.459 156.797 14.867 156.097 15.55 155.917 C 16.228 155.738 16.923 156.142 17.11 156.815 Z" fill="#000000" stroke="none"/><path d="M 18.507 160.913 L 18.53 160.969 C 18.805 161.637 18.485 162.402 17.816 162.677 C 17.148 162.951 16.383 162.632 16.108 161.963 C 16.107 161.96 16.102 161.949 16.101 161.945 L 16.077 161.886 C 15.813 161.213 16.143 160.453 16.815 160.189 C 17.482 159.926 18.236 160.252 18.507 160.913 Z" fill="#000000" stroke="none"/><path d="M 20.359 164.816 L 20.387 164.868 C 20.735 165.506 20.5 166.305 19.862 166.652 C 19.23 166.997 18.438 166.766 18.085 166.141 L 18.054 166.084 C 17.699 165.45 17.925 164.649 18.559 164.294 C 19.193 163.939 19.995 164.165 20.35 164.799 C 20.351 164.802 20.357 164.813 20.359 164.816 Z" fill="#000000" stroke="none"/><path d="M 22.652 168.466 L 22.687 168.514 C 23.106 169.087 22.98 169.892 22.406 170.311 C 21.837 170.726 21.039 170.603 20.617 170.042 L 20.579 169.991 C 20.154 169.422 20.271 168.615 20.84 168.19 C 21.409 167.765 22.215 167.881 22.641 168.45 C 22.643 168.453 22.65 168.463 22.652 168.466 Z" fill="#000000" stroke="none"/><path d="M 25.398 171.774 L 25.437 171.816 C 25.907 172.308 25.888 173.088 25.396 173.558 C 24.916 174.015 24.159 174.005 23.686 173.55 L 23.641 173.506 C 23.152 173.03 23.141 172.249 23.616 171.761 C 24.091 171.273 24.873 171.262 25.361 171.736 C 25.372 171.747 25.387 171.762 25.398 171.774 Z" fill="#000000" stroke="none"/><path d="M 28.581 174.646 L 28.626 174.681 C 29.129 175.063 29.228 175.781 28.845 176.285 C 28.473 176.776 27.777 176.877 27.276 176.53 L 27.225 176.495 C 26.707 176.132 26.581 175.416 26.944 174.898 C 27.308 174.379 28.023 174.254 28.542 174.617 C 28.553 174.625 28.569 174.637 28.581 174.646 Z" fill="#000000" stroke="none"/><path d="M 32.177 176.982 L 32.231 177.011 L 32.235 177.013 C 32.731 177.278 32.918 177.895 32.653 178.391 C 32.399 178.865 31.818 179.056 31.335 178.838 L 31.275 178.811 C 30.761 178.577 30.534 177.973 30.767 177.46 C 31 176.947 31.604 176.72 32.117 176.952 C 32.136 176.961 32.158 176.972 32.177 176.982 Z" fill="#000000" stroke="none"/><path d="M 36.14 178.675 L 36.198 178.694 C 36.65 178.841 36.897 179.327 36.749 179.779 C 36.61 180.204 36.162 180.446 35.734 180.35 L 35.67 180.335 C 35.206 180.226 34.918 179.761 35.026 179.297 C 35.135 178.832 35.6 178.544 36.064 178.653 C 36.089 178.659 36.116 178.667 36.14 178.675 Z" fill="#000000" stroke="none"/><path d="M 40.371 179.669 L 40.428 179.679 C 40.788 179.734 41.035 180.069 40.98 180.43 C 40.929 180.762 40.634 180.998 40.306 180.988 L 40.245 180.986 C 39.879 180.974 39.592 180.668 39.605 180.302 C 39.617 179.936 39.923 179.65 40.289 179.661 C 40.316 179.662 40.345 179.665 40.371 179.669 Z" fill="#000000" stroke="none"/><path d="M 44.755 179.972 L 44.816 179.972 C 45.037 179.971 45.216 180.15 45.217 180.37 C 45.218 180.571 45.068 180.738 44.875 180.767 L 44.813 180.776 C 44.592 180.808 44.387 180.654 44.356 180.434 C 44.323 180.213 44.477 180.008 44.697 179.976 C 44.716 179.974 44.737 179.972 44.755 179.972 Z" fill="#000000" stroke="none"/><path d="M 49.201 179.65 L 49.264 179.641 C 49.3 179.636 49.333 179.66 49.338 179.696 C 49.342 179.728 49.322 179.758 49.293 179.768 L 49.232 179.786 C 49.194 179.798 49.155 179.777 49.143 179.74 C 49.132 179.703 49.152 179.663 49.19 179.652 C 49.193 179.651 49.197 179.65 49.201 179.65 Z" fill="#000000" stroke="none"/>
</svg>
