<?xml version="1.0" encoding="UTF-8"?>
<svg xmlns="http://www.w3.org/2000/svg" width="153.642" height="79.330" viewBox="0 0 153.642 79.330">
  <path d="M 58.376 20.835 C 67.648 27.895 66.414 36.362 73.105 38.198 C 72.598 37.669 72.077 36.988 71.603 36.203 C 70.305 34.05 69.854 31.94 70.598 31.492 C 71.342 31.043 72.998 32.425 74.297 34.578 C 75.232 36.13 75.725 37.655 75.649 38.555 C 75.672 38.556 75.691 38.558 75.714 38.559 C 76.499 23.994 66.228 25.67 58.376 20.835 Z" fill="#000000" stroke="none"/><path d="M 95.563 18.004 C 86.29 25.064 87.525 33.53 80.834 35.366 C 81.341 34.838 81.862 34.156 82.336 33.371 C 83.635 31.218 84.084 29.108 83.341 28.66 C 82.597 28.211 80.941 29.594 79.643 31.747 C 78.706 33.298 78.215 34.823 78.289 35.724 C 78.267 35.724 78.247 35.727 78.226 35.727 C 77.439 21.163 87.711 22.839 95.563 18.004 Z" fill="#000000" stroke="none"/><path d="M 74.701 2 C 76.729 11.285 85.698 15.849 77.898 26.404 C 77.959 25.675 77.935 24.817 77.807 23.909 C 77.458 21.419 76.478 19.498 75.617 19.618 C 74.757 19.739 74.343 21.855 74.691 24.345 C 74.943 26.139 75.522 27.634 76.148 28.287 C 76.132 28.301 76.118 28.315 76.102 28.33 C 66.311 17.517 71.652 10.703 74.701 2 Z" fill="#000000" stroke="none"/><path d="M 70.996 48.353 C 70.859 48.056 70.744 47.76 70.633 47.472 C 70.555 47.154 70.477 46.846 70.444 46.535 C 70.397 45.903 70.475 45.285 70.676 44.762 C 71.071 43.7 71.753 42.963 72.446 42.338 C 73.874 41.128 75.511 40.345 77.252 39.912 C 78.994 39.503 80.851 39.474 82.63 39.971 C 84.422 40.44 86.017 41.559 87.26 42.924 C 88.505 44.303 89.388 45.954 89.978 47.654 C 90.148 48.077 90.271 48.507 90.382 48.941 C 90.493 49.375 90.627 49.807 90.697 50.245 L 90.948 51.555 C 90.996 52.007 91.014 52.469 91.046 52.925 C 91.056 53.383 91.116 53.839 91.057 54.296 L 90.875 55.658 L 90.774 56.333 L 90.589 56.991 L 90.216 58.296 C 89.88 59.132 89.556 59.969 89.187 60.777 C 88.749 61.549 88.436 62.396 87.911 63.113 C 86.013 66.114 83.415 68.589 80.544 70.596 C 77.667 72.612 74.484 74.172 71.154 75.289 C 64.517 77.516 57.143 78.122 50.195 76.092 C 46.749 75.068 43.442 73.315 40.792 70.814 C 38.131 68.331 36.154 65.183 34.993 61.833 C 33.817 58.464 33.373 54.983 33.301 51.524 C 33.261 49.79 33.356 48.05 33.608 46.327 C 33.724 45.466 33.945 44.618 34.11 43.764 C 34.371 42.931 34.593 42.085 34.916 41.274 C 36.19 38.027 38.277 35.054 41.098 32.951 C 43.891 30.84 47.349 29.577 50.9 29.537 C 52.676 29.519 54.477 29.867 56.128 30.637 C 57.777 31.396 59.256 32.65 60.211 34.257 C 61.184 35.858 61.589 37.727 61.646 39.543 C 61.793 41.39 61.522 43.146 61.635 45.119 C 61.697 46.227 60.85 47.176 59.742 47.239 C 58.634 47.302 57.685 46.454 57.622 45.346 C 57.594 44.849 57.749 44.384 58.029 44.016 L 58.073 43.959 C 58.562 43.318 59.035 42.605 59.276 41.857 C 59.412 41.484 59.523 41.1 59.628 40.714 C 59.703 40.328 59.731 39.936 59.765 39.544 C 59.81 37.983 59.523 36.422 58.794 35.074 C 58.073 33.724 56.907 32.623 55.51 31.898 C 54.114 31.159 52.499 30.827 50.887 30.799 C 49.269 30.768 47.643 31.04 46.09 31.547 C 44.53 32.053 43.099 32.895 41.783 33.86 C 39.131 35.811 37.216 38.636 36.071 41.711 C 34.894 44.795 34.602 48.165 34.789 51.463 C 34.881 52.289 34.928 53.116 35.054 53.935 L 35.491 56.386 L 36.158 58.754 C 36.366 59.545 36.75 60.271 37.033 61.028 C 38.342 63.988 40.285 66.604 42.745 68.577 C 45.197 70.558 48.078 71.962 51.142 72.829 C 54.21 73.692 57.442 74.023 60.681 73.975 C 63.917 73.894 67.182 73.487 70.34 72.615 C 73.496 71.754 76.568 70.509 79.367 68.801 C 82.152 67.09 84.664 64.884 86.46 62.181 C 86.963 61.538 87.267 60.785 87.648 60.074 C 87.851 59.722 87.92 59.317 88.057 58.941 C 88.174 58.558 88.308 58.178 88.375 57.786 C 88.64 56.209 88.718 54.634 88.531 53.083 C 88.471 51.546 88.121 49.895 87.718 48.384 C 87.285 46.859 86.686 45.386 85.773 44.141 C 84.863 42.907 83.649 41.873 82.182 41.346 C 80.732 40.768 79.077 40.714 77.517 41.052 C 75.976 41.419 74.43 42.14 73.444 43.334 C 72.948 43.901 72.619 44.609 72.626 45.206 C 72.625 45.808 72.935 46.191 73.425 46.387 C 74.325 46.747 74.763 47.768 74.403 48.669 C 74.043 49.569 73.021 50.007 72.122 49.647 C 71.688 49.473 71.362 49.147 71.181 48.755 L 70.996 48.353 Z" fill="#000000" stroke="none"/><path d="M 36.026 35.067 C 36.802 33.727 37.42 32.311 37.649 30.84 C 37.895 29.377 37.768 27.87 37.22 26.521 C 36.703 25.165 35.778 23.965 34.593 23.124 C 33.411 22.287 31.912 21.862 30.481 22.136 C 29.052 22.416 27.813 23.394 27.013 24.649 C 26.186 25.86 25.846 27.389 26.368 28.678 L 26.564 29.148 C 26.651 29.294 26.758 29.429 26.85 29.57 C 27.011 29.869 27.299 30.071 27.517 30.316 C 28.048 30.699 28.618 31.068 29.232 31.12 C 30.449 31.359 31.476 30.607 31.745 29.435 C 31.931 28.632 32.731 28.131 33.535 28.316 C 34.339 28.501 34.84 29.303 34.654 30.106 C 34.586 30.403 34.434 30.659 34.228 30.854 L 34.206 30.874 C 33.821 31.239 33.5 31.61 33.104 31.93 C 32.66 32.218 32.274 32.541 31.761 32.693 C 30.811 33.124 29.725 33.098 28.815 32.832 C 27.868 32.593 27.131 31.985 26.491 31.361 C 26.223 30.996 25.902 30.675 25.727 30.256 C 25.627 30.055 25.519 29.861 25.434 29.658 L 25.247 29.018 C 24.741 27.288 25.351 25.476 26.318 24.164 C 27.278 22.845 28.66 21.732 30.32 21.37 C 31.97 20.975 33.74 21.384 35.153 22.275 C 36.597 23.151 37.665 24.557 38.277 26.112 C 38.892 27.68 38.938 29.428 38.567 31.027 C 38.17 32.629 37.356 34.077 36.315 35.277 C 36.25 35.351 36.138 35.359 36.062 35.295 C 35.997 35.238 35.984 35.14 36.026 35.067 Z" fill="#000000" stroke="none"/><path d="M 79.88 46.387 C 80.37 46.191 80.68 45.808 80.679 45.206 C 80.686 44.609 80.356 43.901 79.86 43.334 C 78.874 42.14 77.329 41.419 75.788 41.052 C 74.228 40.714 72.572 40.768 71.122 41.346 C 69.655 41.873 68.441 42.907 67.531 44.141 C 66.618 45.386 66.019 46.859 65.587 48.384 C 65.184 49.895 64.833 51.546 64.773 53.083 C 64.586 54.634 64.664 56.209 64.93 57.786 C 64.997 58.178 65.131 58.558 65.248 58.941 C 65.385 59.317 65.453 59.722 65.656 60.074 C 66.037 60.785 66.342 61.538 66.845 62.181 C 68.641 64.884 71.152 67.09 73.937 68.801 C 76.736 70.509 79.809 71.754 82.965 72.615 C 86.123 73.487 89.387 73.894 92.624 73.975 C 95.862 74.023 99.094 73.692 102.163 72.829 C 105.226 71.962 108.106 70.558 110.56 68.577 C 113.019 66.604 114.963 63.988 116.271 61.028 C 116.555 60.271 116.938 59.545 117.146 58.754 L 117.812 56.386 L 118.251 53.935 C 118.377 53.116 118.424 52.289 118.515 51.463 C 118.703 48.165 118.41 44.795 117.233 41.711 C 116.089 38.636 114.173 35.811 111.521 33.86 C 110.205 32.895 108.773 32.053 107.215 31.547 C 105.661 31.04 104.034 30.768 102.418 30.799 C 100.806 30.827 99.19 31.159 97.795 31.898 C 96.397 32.623 95.231 33.724 94.51 35.074 C 93.781 36.422 93.495 37.983 93.54 39.544 C 93.573 39.936 93.602 40.328 93.677 40.714 C 93.781 41.1 93.893 41.484 94.028 41.857 C 94.269 42.605 94.742 43.318 95.231 43.959 L 95.273 44.013 C 95.946 44.896 95.777 46.157 94.894 46.83 C 94.013 47.504 92.752 47.334 92.078 46.452 C 91.776 46.055 91.644 45.58 91.67 45.119 C 91.781 43.146 91.511 41.39 91.658 39.543 C 91.716 37.727 92.12 35.858 93.093 34.257 C 94.048 32.65 95.527 31.396 97.177 30.637 C 98.828 29.867 100.629 29.519 102.403 29.537 C 105.955 29.577 109.413 30.84 112.207 32.951 C 115.026 35.054 117.114 38.027 118.389 41.274 C 118.712 42.085 118.934 42.931 119.194 43.764 C 119.359 44.618 119.58 45.466 119.696 46.327 C 119.947 48.05 120.043 49.79 120.004 51.524 C 119.931 54.983 119.487 58.464 118.311 61.833 C 117.15 65.183 115.174 68.331 112.512 70.814 C 109.862 73.315 106.556 75.068 103.109 76.092 C 96.162 78.122 88.788 77.516 82.15 75.289 C 78.82 74.172 75.638 72.612 72.761 70.596 C 69.89 68.589 67.292 66.114 65.393 63.113 C 64.869 62.396 64.556 61.549 64.117 60.777 C 63.749 59.969 63.425 59.132 63.089 58.296 L 62.715 56.991 L 62.53 56.333 L 62.43 55.658 L 62.248 54.296 C 62.188 53.839 62.249 53.383 62.258 52.925 C 62.291 52.469 62.308 52.007 62.356 51.555 L 62.607 50.245 C 62.678 49.807 62.811 49.375 62.923 48.941 C 63.032 48.507 63.156 48.077 63.326 47.654 C 63.917 45.954 64.799 44.303 66.045 42.924 C 67.288 41.559 68.883 40.44 70.675 39.971 C 72.454 39.474 74.31 39.503 76.053 39.912 C 77.793 40.345 79.431 41.128 80.857 42.338 C 81.552 42.963 82.233 43.7 82.629 44.762 C 82.83 45.285 82.907 45.903 82.86 46.535 C 82.828 46.846 82.75 47.154 82.672 47.472 C 82.561 47.76 82.445 48.056 82.309 48.353 L 82.126 48.751 C 81.721 49.632 80.679 50.017 79.798 49.612 C 78.917 49.207 78.531 48.164 78.936 47.284 C 79.132 46.859 79.478 46.549 79.88 46.387 Z" fill="#000000" stroke="none"/><path d="M 116.989 35.277 C 115.947 34.077 115.135 32.629 114.737 31.027 C 114.366 29.428 114.413 27.68 115.026 26.112 C 115.64 24.557 116.707 23.151 118.15 22.275 C 119.563 21.384 121.335 20.975 122.984 21.37 C 124.644 21.732 126.026 22.845 126.985 24.164 C 127.954 25.476 128.563 27.288 128.057 29.018 L 127.871 29.658 C 127.786 29.861 127.677 30.055 127.578 30.256 C 127.401 30.675 127.082 30.996 126.813 31.361 C 126.174 31.985 125.436 32.593 124.488 32.832 C 123.58 33.098 122.493 33.124 121.544 32.693 C 121.03 32.541 120.644 32.218 120.2 31.93 C 119.805 31.61 119.483 31.239 119.099 30.874 L 119.077 30.853 C 118.478 30.286 118.454 29.341 119.021 28.743 C 119.589 28.145 120.534 28.12 121.132 28.688 C 121.353 28.898 121.496 29.159 121.56 29.435 C 121.829 30.607 122.854 31.359 124.072 31.12 C 124.686 31.068 125.257 30.699 125.787 30.316 C 126.005 30.071 126.294 29.869 126.455 29.57 C 126.547 29.429 126.652 29.294 126.739 29.148 L 126.936 28.678 C 127.459 27.389 127.119 25.86 126.291 24.649 C 125.49 23.394 124.253 22.416 122.822 22.136 C 121.393 21.862 119.893 22.287 118.711 23.124 C 117.526 23.965 116.602 25.165 116.084 26.521 C 115.537 27.87 115.408 29.377 115.655 30.84 C 115.885 32.311 116.503 33.727 117.277 35.067 C 117.328 35.152 117.301 35.262 117.217 35.313 C 117.142 35.358 117.046 35.34 116.989 35.277 Z" fill="#000000" stroke="none"/><path d="M 114.208 72.395 C 115.97 71.78 117.647 71.014 119.089 69.891 C 120.504 68.743 121.756 67.419 122.866 65.946 C 125.084 63.021 126.943 59.612 129.995 56.974 C 131.526 55.687 133.315 54.657 135.243 54.039 C 137.17 53.435 139.271 53.326 141.253 53.723 C 143.244 54.093 145.098 54.989 146.628 56.231 C 148.198 57.428 149.427 59.002 150.353 60.727 C 151.217 62.486 151.734 64.454 151.628 66.483 C 151.566 68.513 150.734 70.511 149.486 72.151 C 148.202 73.774 146.487 74.998 144.664 75.836 C 143.75 76.275 142.82 76.595 141.845 76.875 C 140.847 77.146 139.795 77.299 138.727 77.276 C 136.59 77.225 134.399 76.335 132.937 74.749 C 131.467 73.186 130.65 71.102 130.667 69 C 130.637 66.916 131.662 64.689 133.531 63.55 C 134.439 62.969 135.436 62.595 136.458 62.287 C 137.491 61.97 138.528 61.827 139.642 61.525 L 139.732 61.501 C 140.804 61.211 141.906 61.844 142.196 62.915 C 142.486 63.985 141.853 65.089 140.782 65.379 C 140.219 65.531 139.641 65.424 139.183 65.136 C 137.671 64.178 135.773 64.073 134.354 64.878 C 133.658 65.29 133.093 65.886 132.722 66.602 C 132.363 67.326 132.204 68.154 132.227 68.982 C 132.293 70.648 133.103 72.266 134.315 73.342 C 135.522 74.461 137.142 74.902 138.752 74.911 C 139.566 74.874 140.392 74.767 141.209 74.539 C 142.035 74.281 142.901 74.019 143.698 73.671 C 145.307 72.984 146.806 72.091 148.017 70.88 C 149.175 69.647 150.054 68.09 150.289 66.35 C 150.586 64.622 150.243 62.783 149.481 61.156 C 148.696 59.539 147.486 58.099 145.982 57.115 C 144.479 56.127 142.755 55.535 141.01 55.401 C 137.524 55.136 134.017 56.32 131.283 58.515 C 128.529 60.761 126.541 63.987 124.011 66.88 C 122.739 68.318 121.342 69.706 119.691 70.754 C 118.026 71.786 116.179 72.446 114.304 72.801 C 114.19 72.822 114.081 72.748 114.061 72.635 C 114.041 72.532 114.101 72.432 114.196 72.399 L 114.208 72.395 Z" fill="#000000" stroke="none"/><path d="M 39.338 72.801 C 37.463 72.446 35.615 71.786 33.95 70.754 C 32.3 69.706 30.901 68.318 29.631 66.88 C 27.101 63.987 25.112 60.761 22.358 58.515 C 19.624 56.32 16.117 55.136 12.631 55.401 C 10.887 55.535 9.162 56.127 7.659 57.115 C 6.155 58.099 4.945 59.539 4.16 61.156 C 3.398 62.783 3.056 64.622 3.353 66.35 C 3.588 68.09 4.467 69.647 5.625 70.88 C 6.836 72.091 8.335 72.984 9.943 73.671 C 10.74 74.019 11.606 74.281 12.432 74.539 C 13.25 74.767 14.074 74.874 14.89 74.911 C 16.5 74.902 18.119 74.461 19.325 73.342 C 20.539 72.266 21.349 70.648 21.415 68.982 C 21.437 68.154 21.278 67.326 20.92 66.602 C 20.548 65.886 19.982 65.29 19.287 64.878 C 17.868 64.073 15.971 64.178 14.459 65.136 C 13.522 65.73 12.281 65.452 11.687 64.515 C 11.093 63.578 11.371 62.337 12.309 61.743 C 12.802 61.43 13.379 61.359 13.901 61.499 L 13.999 61.525 C 15.113 61.827 16.15 61.97 17.184 62.287 C 18.204 62.595 19.202 62.969 20.11 63.55 C 21.979 64.689 23.004 66.916 22.974 69 C 22.991 71.102 22.175 73.186 20.703 74.749 C 19.242 76.335 17.051 77.225 14.915 77.276 C 13.847 77.299 12.795 77.146 11.797 76.875 C 10.82 76.595 9.891 76.275 8.978 75.836 C 7.154 74.998 5.438 73.774 4.155 72.151 C 2.907 70.511 2.075 68.513 2.014 66.483 C 1.907 64.454 2.425 62.486 3.289 60.727 C 4.215 59.002 5.443 57.428 7.014 56.231 C 8.544 54.989 10.397 54.093 12.389 53.723 C 14.37 53.326 16.472 53.435 18.398 54.039 C 20.326 54.657 22.115 55.687 23.646 56.974 C 26.698 59.612 28.558 63.021 30.774 65.946 C 31.886 67.419 33.138 68.743 34.552 69.891 C 35.993 71.014 37.672 71.78 39.433 72.395 L 39.445 72.399 C 39.554 72.437 39.611 72.556 39.573 72.665 C 39.539 72.763 39.437 72.819 39.338 72.801 Z" fill="#000000" stroke="none"/>
</svg>
