<?xml version="1.0" encoding="UTF-8"?>
<svg xmlns="http://www.w3.org/2000/svg" width="274.710" height="89.435" viewBox="0.000 0.000 274.710 89.435">
  <path d="M 249.201 74.709 C 244.172 76.384 238.922 77.535 233.541 77.787 C 228.167 77.999 222.681 77.144 217.61 75.195 C 212.502 73.313 207.887 70.483 203.349 67.773 C 198.821 65.028 194.354 62.29 189.633 60.092 C 184.95 57.857 180.016 56.042 175.019 54.622 C 170.026 53.152 164.873 52.333 159.713 52.178 C 154.568 52.13 149.364 52.912 144.653 55.066 C 139.948 57.162 135.724 60.608 132.971 65.142 C 135.146 60.274 139.249 56.331 144.006 53.763 C 146.402 52.484 148.976 51.538 151.621 50.902 C 154.27 50.269 156.986 49.964 159.701 49.874 C 165.134 49.753 170.538 50.574 175.746 51.928 C 178.351 52.616 180.918 53.433 183.436 54.361 C 185.957 55.267 188.465 56.289 190.893 57.451 C 195.753 59.783 200.334 62.592 204.799 65.428 C 209.26 68.271 213.692 71.063 218.449 73.09 C 223.2 75.114 228.313 76.236 233.533 76.366 C 238.755 76.512 244.008 75.769 249.201 74.709 Z" fill="#000000" stroke="none"/>
  <path d="M 207.338 59.298 C 202.535 56.137 197.48 53.422 192.292 51.032 C 187.112 48.631 181.777 46.586 176.334 44.974 C 170.886 43.405 165.329 42.193 159.719 41.814 C 154.127 41.385 148.476 41.722 143.134 43.202 C 140.467 43.936 137.872 44.931 135.445 46.243 C 133.024 47.538 130.684 49.163 128.53 50.873 C 126.403 52.628 124.449 54.602 123.035 56.881 C 121.646 59.149 120.761 61.735 121.007 64.306 C 121.215 66.872 122.58 69.288 124.609 70.984 C 126.633 72.687 129.317 73.657 132.01 73.592 C 134.709 73.56 137.373 72.384 139.345 70.413 C 141.354 68.464 142.693 65.85 143.595 63.133 C 142.981 65.927 141.893 68.723 139.925 70.96 C 138.017 73.228 135.139 74.751 132.088 75.004 C 129.039 75.266 125.915 74.325 123.436 72.469 C 120.938 70.637 119.154 67.725 118.761 64.556 C 118.331 61.376 119.3 58.19 120.851 55.567 C 122.414 52.915 124.517 50.711 126.764 48.763 C 129.05 46.833 131.461 45.183 134.085 43.732 C 136.701 42.29 139.495 41.192 142.358 40.381 C 148.112 38.815 154.11 38.521 159.95 39.036 C 165.795 39.605 171.524 40.905 177.027 42.779 C 182.542 44.623 187.85 46.999 192.942 49.736 C 198.004 52.518 202.919 55.603 207.338 59.298 Z" fill="#000000" stroke="none"/>
  <path d="M 272.145 65.479 C 269.292 69.645 265.564 73.199 261.481 76.232 C 259.423 77.734 257.265 79.105 255.021 80.331 C 252.768 81.541 250.429 82.6 248.024 83.499 C 243.214 85.29 238.113 86.378 232.948 86.654 C 227.787 86.866 222.561 86.364 217.583 84.935 C 215.113 84.228 212.694 83.442 210.306 82.512 C 207.918 81.599 205.567 80.578 203.296 79.398 C 198.731 77.083 194.445 74.268 190.394 71.262 C 186.31 68.306 182.419 65.171 177.983 62.999 C 175.776 61.903 173.436 61.08 171.016 60.516 C 168.592 59.965 166.091 59.695 163.576 59.616 C 166.082 59.406 168.628 59.404 171.153 59.756 C 173.679 60.089 176.164 60.793 178.545 61.746 C 183.308 63.707 187.51 66.676 191.662 69.448 C 195.826 72.228 200.036 74.844 204.496 76.97 C 208.956 79.074 213.595 80.844 218.356 82.135 C 227.768 84.756 237.906 84.344 247.252 81.277 C 249.595 80.527 251.89 79.611 254.123 78.556 C 256.366 77.516 258.544 76.328 260.641 75 C 264.856 72.374 268.761 69.21 272.145 65.479 Z" fill="#000000" stroke="none"/>
  <path d="M 65.118 65.545 C 61.504 59.253 56.574 53.793 50.785 49.989 C 47.895 48.1 44.783 46.654 41.622 45.869 C 38.464 45.079 35.278 44.977 32.342 45.619 C 30.181 46.092 28.044 44.724 27.572 42.562 C 27.098 40.4 28.468 38.264 30.629 37.791 C 30.853 37.741 31.077 37.712 31.298 37.702 L 31.434 37.696 C 35.749 37.519 39.952 38.46 43.647 40.098 C 47.358 41.736 50.606 44.03 53.424 46.648 C 59.046 51.914 63.072 58.429 65.61 65.318 C 65.662 65.458 65.59 65.614 65.449 65.666 C 65.323 65.713 65.183 65.657 65.118 65.545 Z" fill="#000000" stroke="none"/>
  <path d="M 45.592 36.595 C 40.117 31.833 33.671 28.288 26.956 26.59 C 23.607 25.75 20.193 25.403 16.95 25.696 C 13.707 25.985 10.662 26.931 8.099 28.498 C 6.211 29.653 3.744 29.059 2.59 27.171 C 1.435 25.283 2.029 22.818 3.917 21.662 C 4.113 21.543 4.314 21.442 4.52 21.36 L 4.647 21.311 C 8.665 19.73 12.946 19.242 16.973 19.58 C 21.015 19.914 24.835 21.018 28.355 22.568 C 35.391 25.703 41.329 30.54 45.982 36.219 C 46.077 36.335 46.06 36.506 45.944 36.602 C 45.84 36.687 45.69 36.68 45.592 36.595 Z" fill="#000000" stroke="none"/>
  <path d="M 55.74 44.098 C 54.062 41.212 52.294 38.393 50.548 35.528 C 48.808 32.658 47.08 29.741 45.621 26.568 C 44.17 23.404 42.995 19.923 42.625 16.153 C 42.224 12.388 42.78 8.453 43.964 4.843 L 43.991 4.76 C 44.682 2.656 46.946 1.511 49.049 2.201 C 51.152 2.892 52.298 5.155 51.608 7.259 C 51.532 7.491 51.425 7.731 51.313 7.938 C 49.928 10.462 48.984 13.164 48.741 16.069 C 48.474 18.969 48.86 22.05 49.636 25.147 C 50.408 28.247 51.532 31.361 52.705 34.475 C 53.883 37.59 55.113 40.715 56.232 43.871 C 56.283 44.013 56.208 44.168 56.067 44.218 C 55.941 44.263 55.805 44.209 55.74 44.098 Z" fill="#000000" stroke="none"/>
  <path d="M 53.924 65.318 C 56.462 58.429 60.488 51.914 66.11 46.648 C 68.928 44.03 72.176 41.736 75.887 40.098 C 79.581 38.46 83.785 37.519 88.1 37.696 L 88.213 37.701 C 90.424 37.793 92.142 39.659 92.052 41.87 C 91.96 44.081 90.094 45.8 87.883 45.708 C 87.654 45.699 87.409 45.665 87.191 45.619 C 84.256 44.977 81.069 45.079 77.911 45.869 C 74.75 46.654 71.639 48.1 68.749 49.989 C 62.96 53.793 58.03 59.253 54.416 65.545 C 54.342 65.676 54.177 65.722 54.046 65.649 C 53.929 65.582 53.88 65.44 53.924 65.318 Z" fill="#000000" stroke="none"/>
  <path d="M 73.552 36.219 C 78.205 30.54 84.142 25.703 91.179 22.568 C 94.699 21.018 98.518 19.914 102.561 19.58 C 106.588 19.242 110.869 19.73 114.887 21.311 L 114.993 21.352 C 117.052 22.162 118.065 24.488 117.255 26.547 C 116.445 28.607 114.119 29.619 112.059 28.81 C 111.846 28.726 111.625 28.613 111.435 28.498 C 108.871 26.931 105.827 25.985 102.584 25.696 C 99.341 25.403 95.927 25.75 92.578 26.59 C 85.863 28.288 79.417 31.833 73.942 36.595 C 73.829 36.694 73.658 36.684 73.558 36.571 C 73.469 36.471 73.47 36.32 73.552 36.219 Z" fill="#000000" stroke="none"/>
  <path d="M 63.302 43.871 C 64.421 40.715 65.651 37.59 66.828 34.475 C 68.002 31.361 69.126 28.247 69.898 25.147 C 70.674 22.05 71.06 18.969 70.793 16.069 C 70.55 13.164 69.605 10.462 68.221 7.938 C 67.156 5.997 67.865 3.561 69.806 2.496 C 71.746 1.431 74.183 2.141 75.248 4.081 C 75.366 4.295 75.461 4.515 75.536 4.738 L 75.57 4.843 C 76.754 8.453 77.31 12.388 76.909 16.153 C 76.538 19.923 75.364 23.404 73.912 26.568 C 72.453 29.741 70.725 32.658 68.986 35.528 C 67.24 38.393 65.471 41.212 63.793 44.098 C 63.718 44.228 63.552 44.273 63.422 44.197 C 63.307 44.131 63.259 43.992 63.302 43.871 Z" fill="#000000" stroke="none"/>
</svg>