<?xml version="1.0" encoding="UTF-8"?>
<svg xmlns="http://www.w3.org/2000/svg" width="325.916" height="72.439" viewBox="0 0 325.916 72.439">
  <path d="M 185.797 9.548 C 184.657 8.954 183.354 8.487 181.903 8.43 C 180.463 8.366 178.938 8.536 177.433 8.966 C 174.419 9.809 171.492 11.386 168.858 13.356 C 163.565 17.31 159.279 22.722 156.414 28.747 C 155.01 31.775 153.97 34.978 153.46 38.262 C 152.941 41.54 152.986 44.911 153.75 48.123 C 154.5 51.334 155.958 54.369 157.998 56.968 C 160.029 59.578 162.576 61.774 165.405 63.549 C 168.207 65.35 171.231 66.801 174.425 67.647 C 177.619 68.499 180.959 68.679 184.227 68.291 C 190.805 67.506 196.933 64.451 202.466 60.723 C 208.025 56.96 213.064 52.416 217.907 47.686 C 222.735 42.926 227.379 37.957 232.105 33.011 C 234.487 30.549 236.841 28.073 239.414 25.726 C 240.726 24.568 241.998 23.363 243.435 22.346 C 244.14 21.823 244.821 21.267 245.548 20.774 L 247.778 19.355 C 248.507 18.858 249.294 18.455 250.081 18.051 C 250.871 17.656 251.632 17.202 252.449 16.858 L 254.907 15.842 C 255.718 15.483 256.594 15.287 257.436 15.003 C 260.839 14.001 264.402 13.369 267.989 13.461 C 275.148 13.544 282.289 15.961 287.978 20.376 C 293.643 24.76 297.968 31.167 299.152 38.461 C 299.749 42.085 299.467 45.88 298.332 49.395 C 297.215 52.926 295.212 56.108 292.777 58.784 C 290.356 61.437 287.666 63.792 284.515 65.668 C 281.383 67.501 277.75 68.848 273.906 68.865 C 271.991 68.917 270.075 68.549 268.246 67.975 C 266.418 67.359 264.734 66.401 263.207 65.264 C 260.188 62.926 257.934 59.727 256.669 56.173 C 255.406 52.627 255.103 48.662 256.113 44.929 C 257.06 41.169 259.457 37.855 262.435 35.509 C 263.324 34.809 264.613 34.961 265.313 35.85 C 266.013 36.739 265.86 38.027 264.971 38.728 L 264.97 38.728 L 264.938 38.754 C 262.571 40.616 260.748 43.094 259.998 45.978 C 259.195 48.834 259.393 51.987 260.392 54.858 C 261.389 57.736 263.209 60.339 265.576 62.199 C 266.776 63.1 268.08 63.86 269.49 64.345 C 270.905 64.79 272.377 65.102 273.882 65.065 C 276.89 65.081 279.904 64.023 282.637 62.451 C 285.367 60.862 287.889 58.698 290.071 56.335 C 292.233 53.995 293.965 51.273 294.932 48.288 C 295.914 45.314 296.181 42.116 295.693 39 C 294.734 32.741 290.979 26.987 285.915 23.018 C 280.834 19.017 274.421 16.788 267.944 16.663 C 264.699 16.551 261.452 17.107 258.324 18.002 C 257.549 18.26 256.745 18.425 255.994 18.755 L 253.716 19.677 C 252.959 19.988 252.248 20.41 251.51 20.769 C 250.776 21.139 250.041 21.506 249.355 21.97 L 247.258 23.282 C 246.572 23.739 245.926 24.262 245.257 24.749 C 243.897 25.693 242.682 26.833 241.427 27.921 C 238.943 30.152 236.571 32.606 234.194 35.029 C 229.451 39.905 224.766 44.9 219.793 49.635 C 214.815 54.357 209.614 58.925 203.807 62.736 C 198.023 66.501 191.507 69.589 184.442 70.296 C 180.933 70.646 177.348 70.355 173.952 69.415 C 170.552 68.469 167.378 66.891 164.474 64.972 C 158.619 61.259 153.818 55.392 152.236 48.478 C 151.431 45.049 151.369 41.48 151.865 38.023 C 152.366 34.56 153.42 31.202 154.848 28.03 C 156.249 24.842 158.043 21.837 160.111 19.032 C 162.157 16.206 164.542 13.626 167.185 11.287 C 169.856 8.987 172.822 6.926 176.26 5.532 C 177.098 5.137 178.02 4.905 178.926 4.626 C 179.375 4.471 179.867 4.434 180.34 4.336 C 180.821 4.271 181.288 4.126 181.79 4.127 L 183.288 4.058 C 183.789 4.031 184.301 4.133 184.813 4.17 C 185.848 4.203 186.852 4.57 187.882 4.833 C 189.278 5.189 190.121 6.608 189.764 8.004 C 189.409 9.399 187.989 10.242 186.594 9.886 C 186.4 9.836 186.216 9.766 186.046 9.678 L 185.797 9.548 Z" fill="#000000" stroke="none"/><path d="M 295.847 22.086 C 295.847 22.086 308.736 47.444 317.954 47.626 C 327.826 47.82 322.461 36.466 322.461 36.466 C 322.461 36.466 318.382 43.978 316.236 41.832 C 314.09 39.685 316.666 34.954 316.666 34.954 C 316.666 34.954 308.347 37.937 307.866 34.954 C 307.636 33.528 310.425 30.9 309.717 29.169 C 308.296 25.694 304.217 31.744 295.847 22.086 Z" fill="#000000" stroke="none"/><path d="M 303.178 37.957 C 303.178 37.957 296.576 69.776 314.423 60.791 C 314.423 60.791 306.721 59.43 307.204 55.098 C 307.364 53.663 311.44 52.854 311.687 51.001 C 312.182 47.279 305.635 50.499 303.178 37.957 Z" fill="#000000" stroke="none"/><path d="M 262.266 67.633 C 262.266 67.633 239.512 44.431 237.038 64.259 C 237.038 64.259 242.458 58.62 245.787 61.433 C 246.89 62.364 245.292 66.201 246.694 67.437 C 249.509 69.921 250.481 62.69 262.266 67.633 Z" fill="#000000" stroke="none"/><path d="M 138.034 4.833 C 139.064 4.57 140.068 4.203 141.103 4.17 C 141.615 4.133 142.127 4.031 142.629 4.058 L 144.127 4.127 C 144.629 4.126 145.095 4.271 145.577 4.336 C 146.049 4.434 146.542 4.471 146.99 4.626 C 147.896 4.905 148.818 5.137 149.656 5.532 C 153.094 6.926 156.06 8.987 158.731 11.287 C 161.375 13.626 163.759 16.206 165.805 19.032 C 167.874 21.837 169.668 24.842 171.068 28.03 C 172.497 31.202 173.55 34.56 174.051 38.023 C 174.547 41.48 174.485 45.049 173.68 48.478 C 172.098 55.392 167.298 61.259 161.442 64.972 C 158.539 66.891 155.364 68.469 151.965 69.415 C 148.568 70.355 144.983 70.646 141.474 70.296 C 134.41 69.589 127.893 66.501 122.109 62.736 C 116.302 58.925 111.101 54.357 106.123 49.635 C 101.149 44.9 96.465 39.905 91.722 35.029 C 89.345 32.606 86.973 30.152 84.489 27.921 C 83.234 26.833 82.019 25.693 80.659 24.749 C 79.99 24.262 79.344 23.739 78.658 23.282 L 76.561 21.97 C 75.876 21.506 75.14 21.139 74.406 20.769 C 73.669 20.41 72.958 19.988 72.2 19.677 L 69.923 18.755 C 69.172 18.425 68.367 18.26 67.592 18.002 C 64.465 17.107 61.217 16.551 57.972 16.663 C 51.496 16.788 45.083 19.017 40.001 23.018 C 34.937 26.987 31.183 32.741 30.224 39 C 29.735 42.116 30.003 45.314 30.984 48.288 C 31.95 51.273 33.683 53.995 35.845 56.335 C 38.027 58.698 40.549 60.862 43.279 62.451 C 46.012 64.023 49.026 65.081 52.034 65.065 C 53.54 65.102 55.011 64.79 56.426 64.345 C 57.836 63.86 59.14 63.1 60.34 62.199 C 62.708 60.339 64.527 57.736 65.524 54.858 C 66.523 51.987 66.721 48.834 65.919 45.978 C 65.169 43.094 63.345 40.616 60.978 38.754 L 60.946 38.728 C 60.056 38.029 59.903 36.741 60.602 35.852 C 61.302 34.962 62.59 34.808 63.479 35.508 L 63.481 35.509 C 66.459 37.855 68.856 41.169 69.803 44.929 C 70.813 48.662 70.51 52.627 69.248 56.173 C 67.982 59.727 65.728 62.926 62.71 65.264 C 61.182 66.401 59.498 67.359 57.671 67.975 C 55.841 68.549 53.925 68.917 52.01 68.865 C 48.167 68.848 44.533 67.501 41.401 65.668 C 38.25 63.792 35.56 61.437 33.139 58.784 C 30.705 56.108 28.701 52.926 27.584 49.395 C 26.449 45.88 26.168 42.085 26.765 38.461 C 27.948 31.167 32.273 24.76 37.938 20.376 C 43.627 15.961 50.768 13.544 57.927 13.461 C 61.514 13.369 65.078 14.001 68.48 15.003 C 69.322 15.287 70.198 15.483 71.009 15.842 L 73.467 16.858 C 74.284 17.202 75.046 17.656 75.836 18.051 C 76.623 18.455 77.41 18.858 78.137 19.355 L 80.368 20.774 C 81.095 21.267 81.776 21.823 82.481 22.346 C 83.919 23.363 85.19 24.568 86.503 25.726 C 89.074 28.073 91.429 30.549 93.811 33.011 C 98.538 37.957 103.181 42.926 108.009 47.686 C 112.852 52.416 117.891 56.96 123.45 60.723 C 128.983 64.451 135.111 67.506 141.689 68.291 C 144.958 68.679 148.298 68.499 151.491 67.647 C 154.685 66.801 157.71 65.35 160.51 63.549 C 163.34 61.774 165.887 59.578 167.919 56.968 C 169.959 54.369 171.417 51.334 172.167 48.123 C 172.93 44.911 172.975 41.54 172.457 38.262 C 171.946 34.978 170.906 31.775 169.503 28.747 C 166.637 22.722 162.351 17.31 157.058 13.356 C 154.424 11.386 151.498 9.809 148.483 8.966 C 146.978 8.536 145.454 8.366 144.013 8.43 C 142.562 8.487 141.259 8.954 140.12 9.548 L 139.883 9.672 C 138.606 10.337 137.031 9.842 136.366 8.564 C 135.7 7.288 136.196 5.713 137.473 5.047 C 137.651 4.955 137.847 4.882 138.034 4.833 Z" fill="#000000" stroke="none"/><path d="M 30.069 22.086 C 30.069 22.086 17.18 47.444 7.963 47.626 C -1.91 47.82 3.456 36.466 3.456 36.466 C 3.456 36.466 7.533 43.978 9.68 41.832 C 11.826 39.685 9.251 34.954 9.251 34.954 C 9.251 34.954 17.568 37.937 18.05 34.954 C 18.28 33.528 15.49 30.9 16.199 29.169 C 17.621 25.694 21.698 31.744 30.069 22.086 Z" fill="#000000" stroke="none"/><path d="M 22.738 37.957 C 22.738 37.957 29.34 69.776 11.493 60.791 C 11.493 60.791 19.194 59.43 18.713 55.098 C 18.553 53.663 14.476 52.854 14.229 51.001 C 13.734 47.279 20.281 50.499 22.738 37.957 Z" fill="#000000" stroke="none"/><path d="M 63.65 67.633 C 63.65 67.633 86.403 44.431 88.879 64.259 C 88.879 64.259 83.459 58.62 80.129 61.433 C 79.026 62.364 80.625 66.201 79.222 67.437 C 76.407 69.921 75.435 62.69 63.65 67.633 Z" fill="#000000" stroke="none"/><path d="M 155.008 60.104 C 155.008 60.104 142.324 34.644 133.109 34.388 C 123.238 34.114 128.512 45.512 128.512 45.512 C 128.512 45.512 132.65 38.033 134.779 40.196 C 136.908 42.36 134.295 47.07 134.295 47.07 C 134.295 47.07 142.636 44.154 143.094 47.142 C 143.312 48.569 140.502 51.174 141.196 52.911 C 142.59 56.396 146.716 50.38 155.008 60.104 Z" fill="#000000" stroke="none"/><path d="M 170.964 60.104 C 170.964 60.104 183.648 34.644 192.864 34.388 C 202.734 34.114 197.461 45.512 197.461 45.512 C 197.461 45.512 193.322 38.033 191.193 40.196 C 189.064 42.36 191.678 47.07 191.678 47.07 C 191.678 47.07 183.337 44.154 182.879 47.142 C 182.66 48.569 185.47 51.174 184.776 52.911 C 183.382 56.396 179.257 50.38 170.964 60.104 Z" fill="#000000" stroke="none"/><path d="M 159.798 5.16 C 159.798 6.905 161.214 8.319 162.958 8.319 C 164.703 8.319 166.118 6.905 166.118 5.16 C 166.118 3.415 164.703 2 162.958 2 C 161.214 2 159.798 3.415 159.798 5.16 Z" fill="#000000" stroke="none"/><path d="M 159.798 50.174 C 159.798 51.919 161.214 53.333 162.958 53.333 C 164.703 53.333 166.118 51.919 166.118 50.174 C 166.118 48.429 164.703 47.014 162.958 47.014 C 161.214 47.014 159.798 48.429 159.798 50.174 Z" fill="#000000" stroke="none"/><path d="M 159.798 41.117 C 159.798 42.862 161.214 44.276 162.958 44.276 C 164.703 44.276 166.118 42.862 166.118 41.117 C 166.118 39.372 164.703 37.957 162.958 37.957 C 161.214 37.957 159.798 39.372 159.798 41.117 Z" fill="#000000" stroke="none"/><path d="M 268.061 31.698 C 268.061 33.443 269.476 34.857 271.22 34.857 C 272.965 34.857 274.381 33.443 274.381 31.698 C 274.381 29.953 272.965 28.538 271.22 28.538 C 269.476 28.538 268.061 29.953 268.061 31.698 Z" fill="#000000" stroke="none"/><path d="M 246.493 51.34 C 246.493 53.085 247.907 54.499 249.652 54.499 C 251.397 54.499 252.812 53.085 252.812 51.34 C 252.812 49.595 251.397 48.18 249.652 48.18 C 247.907 48.18 246.493 49.595 246.493 51.34 Z" fill="#000000" stroke="none"/><path d="M 73.104 51.34 C 73.104 53.085 74.519 54.499 76.264 54.499 C 78.009 54.499 79.423 53.085 79.423 51.34 C 79.423 49.595 78.009 48.18 76.264 48.18 C 74.519 48.18 73.104 49.595 73.104 51.34 Z" fill="#000000" stroke="none"/><path d="M 54.026 31.698 C 54.026 33.443 55.441 34.857 57.186 34.857 C 58.931 34.857 60.345 33.443 60.345 31.698 C 60.345 29.953 58.931 28.538 57.186 28.538 C 55.441 28.538 54.026 29.953 54.026 31.698 Z" fill="#000000" stroke="none"/><path d="M 159.798 5.16 C 159.798 6.905 161.214 8.319 162.958 8.319 C 164.703 8.319 166.118 6.905 166.118 5.16 C 166.118 3.415 164.703 2 162.958 2 C 161.214 2 159.798 3.415 159.798 5.16 Z" fill="#000000" stroke="none"/>
</svg>
