<?xml version="1.0" encoding="UTF-8"?>
<svg xmlns="http://www.w3.org/2000/svg" width="166.802" height="156.762" viewBox="0.000 0.000 166.802 156.762">
  <path d="M 148.046 131.746 C 150.367 132.189 152.786 132.073 154.956 131.271 C 157.137 130.493 159.016 129.019 160.377 127.184 C 161.731 125.342 162.589 123.146 162.821 120.907 C 163.032 118.681 162.662 116.378 161.458 114.576 C 160.29 112.756 158.364 111.548 156.228 111.028 C 154.087 110.495 151.781 110.522 149.523 110.872 C 147.256 111.201 145.018 111.856 142.83 112.642 C 140.619 113.433 138.54 114.374 136.337 115.402 C 127.549 119.355 118.54 122.611 109.478 125.718 C 100.411 128.805 91.24 131.575 81.99 134.054 C 72.723 136.472 63.394 138.663 53.983 140.45 C 49.278 141.347 44.55 142.125 39.803 142.774 C 35.059 143.443 30.286 143.926 25.491 144.169 C 20.703 144.364 15.855 144.348 11.087 143.317 C 8.735 142.76 6.317 141.927 4.427 140.168 C 3.502 139.298 2.752 138.151 2.414 136.918 C 2.034 135.717 1.873 134.398 2.114 133.099 C 2.355 131.8 3.058 130.605 3.973 129.692 C 4.893 128.773 6.001 128.103 7.154 127.609 C 9.476 126.642 11.952 126.269 14.393 126.177 C 19.296 126.006 24.129 126.909 28.785 128.23 C 31.121 128.897 33.396 129.731 35.636 130.549 L 42.358 133.045 C 46.833 134.703 51.286 136.389 55.788 137.908 C 60.285 139.439 64.819 140.833 69.396 141.99 C 73.968 143.162 78.596 144.078 83.24 144.535 C 87.873 144.961 92.56 144.965 96.994 143.978 C 101.42 143.039 105.561 140.994 109.126 138.192 C 116.307 132.576 121.123 124.152 123.41 115.273 C 124.549 110.818 125.035 106.182 124.688 101.625 C 124.334 97.082 123.162 92.585 120.875 88.72 C 119.747 86.782 118.316 85.042 116.672 83.534 C 115.001 82.058 113.123 80.8 111.063 79.887 C 109.011 78.959 106.824 78.304 104.562 77.931 C 102.286 77.546 99.982 77.346 97.696 77.424 C 93.14 77.576 88.587 78.83 84.924 81.544 C 81.24 84.204 78.545 88.191 77.211 92.604 C 75.897 97.007 75.765 101.882 77.335 106.267 C 78.12 108.445 79.354 110.481 81.048 112.078 C 82.728 113.684 84.87 114.816 87.181 115.316 C 87.27 115.336 87.326 115.424 87.307 115.513 C 87.288 115.599 87.204 115.653 87.119 115.641 C 84.734 115.259 82.42 114.226 80.566 112.613 C 78.703 111.011 77.296 108.912 76.361 106.645 C 74.5 102.082 74.358 96.912 75.635 92.153 C 76.902 87.39 79.669 82.939 83.648 79.858 C 87.601 76.738 92.622 75.115 97.581 74.883 C 100.067 74.747 102.551 74.914 104.989 75.275 C 107.447 75.631 109.889 76.301 112.209 77.294 C 114.537 78.273 116.707 79.651 118.644 81.3 C 120.556 82.978 122.227 84.937 123.549 87.101 C 126.229 91.424 127.618 96.398 128.029 101.354 C 128.453 106.322 127.97 111.317 126.791 116.12 C 125.622 120.931 123.692 125.55 121.112 129.789 C 118.518 134.016 115.241 137.876 111.265 140.945 C 107.294 143.998 102.627 146.241 97.685 147.228 C 92.76 148.256 87.771 148.173 82.919 147.671 C 73.194 146.58 63.913 143.715 54.894 140.451 C 50.383 138.808 45.919 137.064 41.498 135.247 L 34.869 132.545 C 32.651 131.655 30.464 130.774 28.227 130.059 C 23.757 128.627 19.094 127.651 14.431 127.682 C 12.11 127.703 9.774 128.003 7.655 128.82 C 5.548 129.608 3.7 131.192 3.281 133.33 C 3.075 134.385 3.189 135.507 3.517 136.578 C 3.801 137.658 4.404 138.586 5.2 139.361 C 6.816 140.908 9.073 141.749 11.326 142.3 C 15.9 143.373 20.71 143.352 25.438 143.119 C 34.935 142.574 44.336 140.802 53.625 138.723 C 62.917 136.622 72.125 134.149 81.26 131.439 C 90.408 128.778 99.502 125.933 108.544 122.939 C 113.064 121.44 117.564 119.882 122.031 118.242 C 126.495 116.603 130.95 114.926 135.295 113.051 C 139.627 111.074 144.301 109.282 149.234 108.693 C 151.693 108.396 154.264 108.426 156.746 109.128 C 159.217 109.803 161.584 111.372 162.935 113.649 C 164.315 115.902 164.675 118.609 164.296 121.096 C 163.908 123.597 162.842 125.947 161.269 127.88 C 159.69 129.804 157.572 131.293 155.202 132.007 C 152.838 132.752 150.303 132.664 147.974 132.067 C 147.886 132.046 147.832 131.956 147.855 131.867 C 147.876 131.782 147.961 131.731 148.046 131.746 Z" fill="#000000" stroke="none"/>
  <path d="M 131.955 108.011 L 131.987 107.941 C 131.99 107.936 131.996 107.934 132.001 107.936 C 132.007 107.939 132.009 107.944 132.007 107.95 C 132.006 107.951 132.006 107.952 132.005 107.953 L 131.955 108.011 Z" fill="#000000" stroke="none"/>
  <path d="M 133.046 102.679 L 133.048 102.604 C 133.057 102.268 133.336 102.003 133.671 102.011 C 134.007 102.02 134.272 102.299 134.264 102.634 C 134.263 102.669 134.258 102.707 134.252 102.74 L 134.236 102.818 C 134.17 103.144 133.853 103.354 133.528 103.288 C 133.238 103.23 133.039 102.971 133.046 102.685 L 133.046 102.679 Z" fill="#000000" stroke="none"/>
  <path d="M 132.606 97.297 L 132.593 97.225 C 132.49 96.668 132.858 96.133 133.415 96.03 C 133.973 95.928 134.507 96.297 134.61 96.854 C 134.618 96.899 134.624 96.953 134.626 96.998 L 134.629 97.076 C 134.653 97.639 134.217 98.115 133.654 98.139 C 133.139 98.161 132.697 97.798 132.607 97.305 L 132.606 97.297 Z" fill="#000000" stroke="none"/>
  <path d="M 131.272 92.091 L 131.248 92.021 C 131.012 91.33 131.38 90.579 132.07 90.343 C 132.76 90.106 133.511 90.474 133.747 91.164 C 133.761 91.205 133.774 91.25 133.784 91.291 L 133.802 91.369 C 133.969 92.077 133.531 92.786 132.823 92.953 C 132.16 93.109 131.495 92.734 131.277 92.104 L 131.272 92.091 Z" fill="#000000" stroke="none"/>
  <path d="M 129.226 87.15 L 129.193 87.084 C 128.816 86.34 129.115 85.432 129.859 85.055 C 130.602 84.679 131.511 84.977 131.887 85.721 C 131.9 85.746 131.914 85.776 131.925 85.803 L 131.957 85.877 C 132.288 86.641 131.938 87.528 131.174 87.859 C 130.439 88.178 129.59 87.865 129.232 87.16 L 129.226 87.15 Z" fill="#000000" stroke="none"/>
  <path d="M 126.496 82.598 L 126.453 82.537 C 125.931 81.808 126.099 80.793 126.829 80.271 C 127.559 79.749 128.574 79.917 129.096 80.648 C 129.104 80.658 129.117 80.677 129.125 80.689 L 129.17 80.757 C 129.669 81.502 129.47 82.51 128.724 83.009 C 127.994 83.498 127.009 83.315 126.501 82.606 L 126.496 82.598 Z" fill="#000000" stroke="none"/>
  <path d="M 123.115 78.562 L 123.063 78.51 L 123.059 78.506 C 122.419 77.863 122.421 76.823 123.063 76.184 C 123.701 75.547 124.732 75.545 125.374 76.175 L 125.432 76.232 C 126.079 76.868 126.089 77.908 125.452 78.556 C 124.817 79.203 123.777 79.212 123.129 78.576 L 123.115 78.562 Z" fill="#000000" stroke="none"/>
  <path d="M 119.087 75.217 L 119.027 75.176 L 119.02 75.172 C 118.295 74.683 118.103 73.698 118.592 72.973 C 119.071 72.261 120.03 72.064 120.751 72.518 L 120.821 72.562 C 121.561 73.029 121.783 74.008 121.316 74.749 C 120.848 75.489 119.869 75.711 119.129 75.244 C 119.118 75.236 119.098 75.225 119.087 75.217 Z" fill="#000000" stroke="none"/>
  <path d="M 114.487 72.698 L 114.419 72.67 L 114.411 72.666 C 113.682 72.363 113.338 71.527 113.641 70.8 C 113.932 70.099 114.721 69.755 115.428 69.999 L 115.506 70.026 C 116.252 70.285 116.647 71.101 116.388 71.847 C 116.128 72.593 115.313 72.987 114.567 72.729 C 114.541 72.72 114.512 72.708 114.487 72.698 Z" fill="#000000" stroke="none"/>
  <path d="M 109.43 71.101 L 109.356 71.085 L 109.348 71.084 C 108.708 70.948 108.3 70.319 108.435 69.681 C 108.562 69.081 109.128 68.685 109.724 68.749 L 109.806 68.759 C 110.458 68.83 110.928 69.417 110.856 70.069 C 110.784 70.721 110.198 71.191 109.545 71.119 C 109.507 71.115 109.466 71.108 109.43 71.101 Z" fill="#000000" stroke="none"/>
  <path d="M 104.08 70.395 L 104.003 70.391 C 103.543 70.371 103.186 69.983 103.205 69.524 C 103.223 69.103 103.556 68.767 103.965 68.729 L 104.045 68.722 C 104.507 68.681 104.913 69.022 104.954 69.482 C 104.995 69.944 104.655 70.351 104.193 70.392 C 104.157 70.395 104.116 70.396 104.08 70.395 Z" fill="#000000" stroke="none"/>
  <path d="M 98.576 70.429 L 98.498 70.434 C 98.319 70.445 98.164 70.311 98.152 70.131 C 98.141 69.976 98.244 69.837 98.388 69.796 L 98.463 69.774 C 98.64 69.725 98.825 69.828 98.875 70.005 C 98.925 70.183 98.822 70.366 98.644 70.417 C 98.622 70.423 98.598 70.427 98.576 70.429 Z" fill="#000000" stroke="none"/>
  <path d="M 15.834 130.413 L 15.913 130.42 C 15.916 130.42 15.917 130.423 15.917 130.426 C 15.917 130.428 15.915 130.43 15.912 130.43 L 15.912 130.43 L 15.834 130.413 Z" fill="#000000" stroke="none"/>
  <path d="M 21.353 131.35 L 21.431 131.367 C 21.607 131.408 21.717 131.585 21.676 131.762 C 21.635 131.939 21.459 132.049 21.282 132.008 C 21.271 132.005 21.26 132.002 21.25 131.998 L 21.175 131.973 C 21.006 131.915 20.915 131.731 20.973 131.562 C 21.026 131.402 21.193 131.314 21.353 131.35 Z" fill="#000000" stroke="none"/>
  <path d="M 26.772 132.766 L 26.849 132.788 C 27.164 132.879 27.346 133.208 27.255 133.523 C 27.164 133.838 26.835 134.02 26.52 133.929 C 26.504 133.925 26.488 133.919 26.473 133.913 L 26.399 133.885 C 26.094 133.77 25.941 133.428 26.057 133.123 C 26.167 132.835 26.481 132.683 26.772 132.766 Z" fill="#000000" stroke="none"/>
  <path d="M 32.129 134.378 L 32.206 134.401 C 32.641 134.536 32.884 134.999 32.749 135.435 C 32.614 135.869 32.151 136.112 31.716 135.978 C 31.694 135.971 31.672 135.963 31.651 135.955 L 31.578 135.925 C 31.157 135.755 30.954 135.276 31.124 134.856 C 31.284 134.456 31.726 134.254 32.129 134.378 Z" fill="#000000" stroke="none"/>
  <path d="M 37.443 136.107 L 37.519 136.133 C 38.046 136.307 38.333 136.876 38.159 137.404 C 37.985 137.933 37.416 138.219 36.888 138.045 C 36.868 138.038 36.845 138.03 36.826 138.023 L 36.752 137.992 C 36.238 137.785 35.989 137.2 36.197 136.686 C 36.396 136.192 36.945 135.945 37.443 136.107 Z" fill="#000000" stroke="none"/>
  <path d="M 42.736 137.878 L 42.811 137.904 C 43.423 138.113 43.75 138.779 43.541 139.391 C 43.332 140.003 42.666 140.33 42.053 140.12 C 42.037 140.115 42.018 140.107 42.002 140.102 L 41.928 140.072 C 41.327 139.835 41.033 139.155 41.27 138.555 C 41.5 137.973 42.149 137.679 42.736 137.878 Z" fill="#000000" stroke="none"/>
  <path d="M 48.013 139.675 L 48.088 139.7 C 48.77 139.931 49.135 140.67 48.905 141.352 C 48.675 142.032 47.936 142.398 47.254 142.168 C 47.236 142.161 47.214 142.153 47.197 142.147 L 47.123 142.117 C 46.454 141.856 46.124 141.102 46.386 140.433 C 46.64 139.784 47.36 139.455 48.013 139.675 Z" fill="#000000" stroke="none"/>
  <path d="M 53.289 141.455 L 53.365 141.481 C 54.105 141.732 54.501 142.537 54.25 143.278 C 53.998 144.019 53.193 144.415 52.452 144.163 C 52.442 144.159 52.425 144.153 52.415 144.149 L 52.34 144.122 C 51.607 143.85 51.234 143.034 51.507 142.302 C 51.774 141.583 52.567 141.211 53.289 141.455 Z" fill="#000000" stroke="none"/>
  <path d="M 58.563 143.216 L 58.639 143.24 C 59.424 143.497 59.852 144.342 59.596 145.127 C 59.339 145.912 58.495 146.341 57.71 146.084 C 57.699 146.08 57.681 146.074 57.669 146.07 L 57.594 146.043 C 56.817 145.765 56.413 144.909 56.692 144.132 C 56.965 143.369 57.798 142.967 58.563 143.216 Z" fill="#000000" stroke="none"/>
  <path d="M 63.853 144.898 L 63.929 144.922 C 64.76 145.178 65.226 146.059 64.97 146.89 C 64.714 147.722 63.833 148.188 63.002 147.932 C 62.99 147.928 62.971 147.922 62.959 147.918 L 62.883 147.892 C 62.06 147.612 61.62 146.719 61.899 145.897 C 62.174 145.088 63.043 144.649 63.853 144.898 Z" fill="#000000" stroke="none"/>
  <path d="M 69.151 146.521 L 69.226 146.543 C 70.076 146.792 70.563 147.683 70.314 148.532 C 70.065 149.382 69.174 149.869 68.325 149.62 L 68.309 149.615 L 68.233 149.592 C 67.386 149.335 66.908 148.439 67.165 147.593 C 67.421 146.75 68.308 146.273 69.151 146.521 Z" fill="#000000" stroke="none"/>
  <path d="M 74.476 148 L 74.552 148.02 C 75.423 148.246 75.946 149.135 75.72 150.006 C 75.494 150.877 74.604 151.4 73.733 151.174 L 73.718 151.17 L 73.64 151.149 C 72.772 150.914 72.258 150.021 72.492 149.151 C 72.725 148.288 73.612 147.775 74.476 148 Z" fill="#000000" stroke="none"/>
  <path d="M 79.829 149.29 L 79.906 149.308 C 80.791 149.505 81.348 150.383 81.151 151.269 C 80.954 152.148 80.083 152.704 79.203 152.517 L 79.124 152.499 C 78.237 152.31 77.672 151.436 77.862 150.549 C 78.053 149.661 78.926 149.097 79.813 149.287 L 79.829 149.29 Z" fill="#000000" stroke="none"/>
  <path d="M 85.202 150.333 L 85.279 150.346 C 86.161 150.484 86.763 151.312 86.624 152.193 C 86.486 153.069 85.665 153.669 84.789 153.54 L 84.709 153.528 C 83.826 153.397 83.217 152.574 83.348 151.69 C 83.48 150.808 84.303 150.199 85.186 150.33 L 85.202 150.333 Z" fill="#000000" stroke="none"/>
  <path d="M 90.584 150.943 L 90.661 150.947 C 91.537 150.997 92.208 151.747 92.159 152.624 C 92.11 153.495 91.364 154.162 90.494 154.122 L 90.412 154.118 C 89.535 154.075 88.859 153.33 88.901 152.453 C 88.944 151.576 89.69 150.899 90.567 150.942 L 90.584 150.943 Z" fill="#000000" stroke="none"/>
  <path d="M 95.88 150.871 L 95.953 150.863 L 95.962 150.862 C 96.803 150.771 97.56 151.379 97.652 152.22 C 97.742 153.046 97.156 153.791 96.338 153.905 L 96.254 153.917 C 95.414 154.032 94.64 153.446 94.524 152.606 C 94.408 151.768 94.994 150.993 95.833 150.877 C 95.846 150.875 95.868 150.873 95.88 150.871 Z" fill="#000000" stroke="none"/>
  <path d="M 101.098 149.78 L 101.173 149.76 C 101.942 149.548 102.737 150 102.949 150.769 C 103.157 151.522 102.723 152.301 101.983 152.532 L 101.905 152.557 C 101.142 152.793 100.332 152.365 100.097 151.603 C 99.861 150.84 100.288 150.03 101.051 149.794 C 101.064 149.79 101.084 149.784 101.098 149.78 Z" fill="#000000" stroke="none"/>
  <path d="M 106.247 148.094 L 106.319 148.066 C 107.001 147.799 107.769 148.136 108.036 148.817 C 108.294 149.475 107.982 150.217 107.348 150.508 L 107.274 150.542 C 106.606 150.844 105.819 150.548 105.517 149.879 C 105.215 149.211 105.511 148.425 106.179 148.122 C 106.2 148.113 106.226 148.103 106.247 148.094 Z" fill="#000000" stroke="none"/>
  <path d="M 111.151 145.816 L 111.218 145.779 C 111.783 145.464 112.496 145.666 112.812 146.231 C 113.116 146.776 112.932 147.464 112.412 147.794 L 112.343 147.838 C 111.794 148.183 111.069 148.017 110.724 147.468 C 110.38 146.919 110.545 146.194 111.095 145.85 C 111.112 145.839 111.133 145.827 111.151 145.816 Z" fill="#000000" stroke="none"/>
  <path d="M 115.691 142.883 L 115.752 142.836 C 116.179 142.508 116.791 142.587 117.119 143.013 C 117.432 143.418 117.37 143.997 116.997 144.335 L 116.936 144.39 C 116.533 144.749 115.915 144.714 115.555 144.312 C 115.195 143.908 115.23 143.29 115.633 142.931 C 115.651 142.914 115.672 142.898 115.691 142.883 Z" fill="#000000" stroke="none"/>
  <path d="M 119.713 139.246 L 119.766 139.189 C 120.045 138.888 120.515 138.869 120.817 139.148 C 121.099 139.41 121.128 139.846 120.902 140.147 L 120.852 140.211 C 120.601 140.539 120.132 140.601 119.804 140.35 C 119.476 140.099 119.414 139.629 119.665 139.302 C 119.681 139.282 119.697 139.264 119.713 139.246 Z" fill="#000000" stroke="none"/>
  <path d="M 123.056 134.93 L 123.098 134.863 C 123.234 134.648 123.518 134.584 123.733 134.72 C 123.932 134.846 124.001 135.102 123.902 135.309 L 123.867 135.382 C 123.755 135.613 123.477 135.71 123.245 135.599 C 123.015 135.487 122.917 135.209 123.029 134.978 C 123.036 134.962 123.047 134.944 123.056 134.93 Z" fill="#000000" stroke="none"/>
  <path d="M 125.527 130 L 125.555 129.925 C 125.574 129.871 125.633 129.843 125.687 129.862 C 125.736 129.88 125.764 129.932 125.753 129.981 L 125.737 130.061 C 125.724 130.119 125.666 130.157 125.607 130.145 C 125.548 130.132 125.51 130.074 125.523 130.016 C 125.524 130.011 125.525 130.005 125.527 130 Z" fill="#000000" stroke="none"/>
  <path d="M 91.257 140.568 C 93.519 140.132 95.655 139.356 97.667 138.333 C 99.689 137.336 101.596 136.131 103.406 134.811 C 107.001 132.141 110.216 128.956 112.732 125.302 C 115.279 121.675 117.093 117.546 117.862 113.178 C 118.665 108.799 118.202 104.24 117.02 99.797 C 119.061 103.906 120.095 108.684 119.562 113.408 C 119.343 115.77 118.728 118.086 117.888 120.304 C 117.02 122.514 115.87 124.604 114.537 126.556 C 111.817 130.427 108.336 133.724 104.369 136.223 C 102.391 137.481 100.281 138.526 98.085 139.322 C 95.89 140.102 93.566 140.616 91.257 140.568 Z" fill="#000000" stroke="none"/>
  <path d="M 145.396 124.066 L 145.332 124.11 C 145.328 124.113 145.324 124.112 145.321 124.108 C 145.318 124.105 145.319 124.099 145.323 124.097 C 145.323 124.097 145.324 124.096 145.325 124.096 L 145.396 124.066 Z" fill="#000000" stroke="none"/>
  <path d="M 142.811 128.675 L 142.797 128.748 C 142.739 129.04 142.454 129.231 142.162 129.172 C 141.869 129.113 141.68 128.829 141.738 128.537 C 141.743 128.511 141.751 128.483 141.759 128.459 L 141.787 128.383 C 141.887 128.106 142.193 127.961 142.47 128.061 C 142.722 128.151 142.864 128.412 142.813 128.668 L 142.811 128.675 Z" fill="#000000" stroke="none"/>
  <path d="M 142.797 133.954 L 142.81 134.024 C 142.898 134.525 142.564 135.003 142.064 135.091 C 141.563 135.18 141.086 134.846 140.997 134.345 C 140.991 134.311 140.987 134.269 140.985 134.233 L 140.98 134.153 C 140.952 133.648 141.339 133.217 141.844 133.189 C 142.311 133.163 142.717 133.493 142.796 133.943 L 142.797 133.954 Z" fill="#000000" stroke="none"/>
  <path d="M 144.515 138.845 L 144.55 138.906 C 144.874 139.488 144.665 140.224 144.083 140.549 C 143.5 140.874 142.765 140.665 142.44 140.082 C 142.424 140.052 142.407 140.018 142.393 139.987 L 142.359 139.912 C 142.086 139.306 142.357 138.593 142.963 138.32 C 143.536 138.063 144.204 138.29 144.506 138.827 L 144.515 138.845 Z" fill="#000000" stroke="none"/>
  <path d="M 147.723 142.759 L 147.776 142.804 C 148.371 143.313 148.442 144.208 147.933 144.804 C 147.424 145.4 146.528 145.471 145.932 144.961 C 145.915 144.946 145.894 144.928 145.878 144.912 L 145.817 144.854 C 145.249 144.315 145.225 143.419 145.764 142.852 C 146.285 142.303 147.14 142.262 147.709 142.747 L 147.723 142.759 Z" fill="#000000" stroke="none"/>
  <path d="M 152.063 145.312 L 152.13 145.337 C 152.934 145.641 153.34 146.539 153.036 147.344 C 152.732 148.148 151.834 148.555 151.029 148.251 C 151.006 148.242 150.978 148.231 150.955 148.221 L 150.877 148.187 C 150.091 147.843 149.731 146.926 150.076 146.139 C 150.409 145.377 151.277 145.017 152.046 145.305 L 152.063 145.312 Z" fill="#000000" stroke="none"/>
  <path d="M 157.057 146.523 L 157.127 146.531 C 158.015 146.631 158.653 147.431 158.553 148.318 C 158.453 149.206 157.653 149.845 156.765 149.745 C 156.759 149.744 156.741 149.742 156.734 149.741 L 156.655 149.731 C 155.769 149.613 155.147 148.802 155.264 147.916 C 155.379 147.041 156.175 146.423 157.049 146.522 L 157.057 146.523 Z" fill="#000000" stroke="none"/>
  <path d="M 47.726 34.293 C 49.519 33.187 51.149 31.856 52.389 30.231 C 53.632 28.609 54.436 26.714 54.816 24.754 C 55.186 22.788 55.112 20.757 54.707 18.802 C 54.286 16.845 53.508 14.974 52.499 13.255 C 50.458 9.836 47.362 7.033 43.722 5.635 C 40.07 4.235 35.989 4.426 32.289 5.872 C 30.45 6.619 28.633 7.541 26.997 8.773 C 25.297 9.924 23.829 11.351 22.459 12.858 C 21.207 14.451 20.083 16.176 19.39 18.106 C 18.732 20.04 18.387 22.092 18.394 24.165 C 18.469 26.234 18.753 28.309 19.309 30.326 C 19.9 32.33 20.564 34.323 21.47 36.222 C 21.877 37.189 22.384 38.114 22.835 39.062 C 23.347 39.981 23.833 40.913 24.374 41.817 C 25.425 43.642 26.549 45.426 27.692 47.198 C 29.987 50.741 32.462 54.179 34.765 57.763 C 37.066 61.348 39.372 64.984 41.009 69.114 C 41.395 70.161 41.76 71.222 42.013 72.346 C 42.269 73.448 42.396 74.516 42.592 75.605 C 42.744 76.694 42.795 77.81 42.897 78.913 L 42.882 80.597 C 42.882 81.157 42.878 81.719 42.792 82.287 L 42.595 83.988 L 42.191 85.685 C 42.083 86.253 41.809 86.8 41.607 87.356 C 41.491 87.63 41.403 87.913 41.261 88.18 L 40.808 88.975 C 39.611 91.054 37.55 92.993 34.902 93.518 C 32.279 94.023 29.524 93.144 27.67 91.466 C 25.781 89.797 24.636 87.55 24.08 85.281 C 22.99 80.674 23.96 76.109 25.511 72.046 C 28.791 63.881 34.458 57.219 40.582 51.375 C 40.642 51.318 40.737 51.32 40.794 51.38 C 40.847 51.436 40.849 51.521 40.802 51.578 L 40.799 51.582 C 38.132 54.877 35.449 58.144 33.227 61.706 C 30.958 65.224 29.018 68.948 27.737 72.838 C 26.487 76.697 25.868 80.855 26.892 84.54 C 27.419 86.35 28.346 88.003 29.669 89.129 C 30.986 90.266 32.702 90.695 34.248 90.386 C 35.803 90.057 37.154 88.895 38.053 87.349 L 38.394 86.767 C 38.503 86.568 38.568 86.338 38.659 86.126 C 38.814 85.686 39.042 85.283 39.126 84.804 L 39.483 83.415 L 39.683 81.963 C 39.772 81.483 39.785 80.985 39.796 80.486 L 39.848 78.992 C 39.773 77.985 39.756 76.978 39.64 75.968 C 39.482 74.968 39.381 73.924 39.18 72.958 C 38.992 72.007 38.69 71.056 38.367 70.106 C 36.943 66.317 34.863 62.647 32.742 59.017 C 30.575 55.399 28.397 51.752 26.289 48.053 C 24.179 44.356 22.185 40.574 20.536 36.627 C 18.889 32.691 17.606 28.529 17.422 24.187 C 17.354 22.019 17.616 19.834 18.218 17.723 C 18.82 15.601 19.896 13.65 21.143 11.831 C 22.498 10.102 23.992 8.457 25.721 7.107 C 27.391 5.686 29.294 4.497 31.336 3.564 C 35.426 1.732 40.408 1.4 44.683 3.157 C 48.959 4.864 52.4 8.177 54.524 12.112 C 56.656 16.023 57.554 20.75 56.372 25.112 C 55.808 27.283 54.673 29.287 53.169 30.888 C 51.67 32.502 49.822 33.711 47.86 34.562 C 47.784 34.595 47.695 34.56 47.662 34.483 C 47.632 34.414 47.659 34.334 47.721 34.296 L 47.726 34.293 Z" fill="#000000" stroke="none"/>
  <path d="M 43.919 10.375 C 45.209 11.336 46.456 12.377 47.536 13.604 C 48.614 14.816 49.604 16.215 50.009 17.92 C 50.429 19.63 49.953 21.52 49.038 22.957 C 48.132 24.422 46.956 25.606 45.819 26.754 C 44.682 27.902 43.52 28.985 42.573 30.168 C 41.629 31.346 40.943 32.645 40.889 33.973 C 40.815 35.293 41.371 36.678 42.187 37.867 C 42.998 39.049 44.135 39.952 45.441 40.526 C 48.089 41.676 51.292 41.354 54.049 40.201 C 56.836 39.044 59.249 36.975 60.854 34.386 C 62.46 31.788 63.193 28.665 63.039 25.536 C 62.939 22.39 61.956 19.296 60.663 16.358 C 62.343 19.1 63.553 22.185 63.984 25.459 C 64.389 28.724 63.838 32.199 62.173 35.154 C 60.548 38.126 57.9 40.513 54.791 41.91 C 51.708 43.301 47.992 43.731 44.659 42.354 C 43.008 41.669 41.562 40.457 40.565 38.981 C 39.595 37.531 38.863 35.782 38.973 33.861 C 39.097 31.939 40.115 30.313 41.197 29.036 C 42.304 27.743 43.53 26.662 44.716 25.596 C 45.895 24.527 47.046 23.454 47.903 22.223 C 48.783 21.011 49.251 19.575 49.014 18.106 C 48.811 16.636 48.042 15.217 47.11 13.949 C 46.17 12.675 45.061 11.509 43.919 10.375 Z" fill="#000000" stroke="none"/>
  <path d="M 26.156 56.266 C 21.278 53.888 17.296 49.814 14.35 45.213 C 11.397 40.585 9.457 35.264 8.901 29.735 C 8.653 26.973 8.752 24.164 9.291 21.43 C 9.851 18.704 10.803 16.046 12.206 13.65 C 14.949 8.788 19.356 5.148 24.138 2.709 C 19.782 5.865 15.905 9.688 13.579 14.394 C 11.216 19.055 10.363 24.364 10.891 29.545 C 11.375 34.74 13.118 39.813 15.683 44.413 C 18.288 48.991 21.723 53.178 26.156 56.266 Z" fill="#000000" stroke="none"/>
</svg>