<?xml version="1.0" encoding="UTF-8"?>
<svg xmlns="http://www.w3.org/2000/svg" width="268.591" height="198.168" viewBox="0 0 268.591 198.168">
  <path d="M 105.005 99.148 C 107.84 98.706 110.583 97.857 112.894 96.33 C 115.233 94.864 117.115 92.773 118.387 90.354 C 120.969 85.5 121.32 79.615 120.189 74.184 C 119.047 68.738 116.4 63.521 112.379 59.687 C 108.393 55.846 103.154 53.351 97.59 52.848 C 96.894 52.804 96.206 52.659 95.504 52.693 L 93.402 52.696 C 92.701 52.699 92.001 52.817 91.3 52.871 C 90.599 52.941 89.894 52.989 89.207 53.131 C 86.436 53.585 83.758 54.456 81.289 55.744 C 76.323 58.313 72.452 62.681 69.649 67.641 C 66.817 72.618 64.931 78.146 63.312 83.73 C 61.717 89.335 60.407 95.047 59.048 100.778 C 58.358 103.641 57.627 106.506 56.775 109.353 C 55.927 112.2 54.967 115.039 53.701 117.794 C 52.416 120.532 50.828 123.229 48.568 125.476 C 46.322 127.723 43.327 129.356 40.107 129.86 C 38.502 130.12 36.7 130.162 34.954 129.399 C 33.195 128.668 31.848 126.985 31.349 125.26 C 30.813 123.523 30.877 121.783 31.171 120.168 C 31.501 118.557 32.094 117.056 32.817 115.641 C 35.867 110.054 41.03 106.088 46.65 103.739 C 52.314 101.409 58.443 100.535 64.439 100.731 L 66.69 100.83 C 67.438 100.886 68.181 100.982 68.927 101.057 C 70.41 101.188 71.92 101.449 73.407 101.766 C 76.375 102.432 79.324 103.566 81.848 105.458 C 82.504 105.892 83.048 106.483 83.635 107.009 C 84.146 107.617 84.711 108.183 85.12 108.873 C 85.593 109.518 85.926 110.249 86.28 110.963 C 86.554 111.714 86.842 112.46 86.985 113.247 C 87.311 114.804 87.367 116.414 87.119 117.972 C 86.858 119.527 86.34 121.027 85.596 122.403 C 84.135 125.151 81.635 127.448 78.563 128.305 C 77.04 128.736 75.416 128.775 73.88 128.463 C 72.346 128.116 70.945 127.429 69.657 126.607 C 69.39 126.438 69.312 126.083 69.482 125.817 C 69.648 125.556 69.99 125.476 70.255 125.631 L 70.284 125.648 C 71.495 126.363 72.779 126.935 74.131 127.197 C 75.483 127.421 76.866 127.338 78.154 126.928 C 80.745 126.117 82.868 124.057 84.066 121.603 C 84.677 120.377 85.084 119.053 85.266 117.705 C 85.428 116.354 85.361 114.987 85.052 113.682 C 84.922 113.021 84.658 112.402 84.422 111.777 C 84.105 111.187 83.822 110.579 83.408 110.046 C 83.059 109.473 82.557 109.008 82.121 108.499 C 81.6 108.065 81.14 107.566 80.555 107.204 C 78.336 105.613 75.665 104.63 72.906 104.077 C 71.519 103.815 70.125 103.601 68.681 103.505 C 67.965 103.45 67.25 103.372 66.533 103.334 L 64.384 103.273 C 58.662 103.154 52.919 104.069 47.734 106.276 C 45.155 107.397 42.728 108.856 40.618 110.665 C 38.513 112.472 36.72 114.628 35.453 117.019 C 34.866 118.229 34.379 119.477 34.108 120.746 C 33.872 122.008 33.857 123.288 34.191 124.365 C 34.524 125.442 35.181 126.256 36.151 126.685 C 37.119 127.131 38.39 127.147 39.654 126.947 C 42.252 126.592 44.699 125.348 46.641 123.486 C 48.598 121.62 50.113 119.222 51.372 116.685 C 53.865 111.559 55.38 105.886 56.809 100.226 C 58.252 94.555 59.481 88.795 61.079 83.098 C 62.686 77.411 64.599 71.73 67.519 66.445 C 68.971 63.808 70.699 61.281 72.785 59.038 C 74.855 56.786 77.309 54.845 80.024 53.372 C 81.38 52.629 82.808 52.033 84.26 51.514 C 85.724 51.044 87.21 50.623 88.721 50.374 C 89.473 50.213 90.234 50.148 90.992 50.063 C 91.753 49.995 92.508 49.865 93.274 49.85 L 95.576 49.819 C 96.344 49.778 97.111 49.92 97.879 49.963 C 100.938 50.255 104.009 50.963 106.827 52.29 C 109.652 53.588 112.241 55.381 114.469 57.533 C 118.96 61.837 121.858 67.577 123.114 73.584 C 123.736 76.6 123.882 79.719 123.524 82.798 C 123.139 85.867 122.221 88.923 120.59 91.61 C 118.97 94.294 116.648 96.573 113.914 98.063 C 111.161 99.523 108.1 100.227 105.092 100.292 C 104.775 100.298 104.513 100.047 104.506 99.73 C 104.5 99.439 104.711 99.194 104.991 99.15 L 105.005 99.148 Z" fill="#000000" stroke="none"/><path d="M 52.278 94.721 C 52.971 93.024 53.307 91.11 53.537 89.193 C 53.768 87.269 53.912 85.32 54.014 83.36 C 54.224 79.44 54.307 75.487 54.532 71.531 C 54.973 63.625 55.772 55.631 57.969 47.863 C 59.079 43.991 60.576 40.196 62.561 36.636 C 64.543 33.078 67.043 29.769 70.038 26.958 C 73.018 24.134 76.513 21.854 80.179 20.105 C 83.842 18.336 87.775 17.058 91.835 16.415 C 95.893 15.762 100.085 15.885 104.129 16.7 C 106.14 17.151 108.138 17.713 110.031 18.54 C 111.937 19.331 113.772 20.298 115.481 21.457 C 118.927 23.728 121.929 26.695 124.164 30.233 C 125.259 32.016 126.152 33.963 126.614 36.09 C 127.052 38.191 127.11 40.591 126.019 42.749 C 125.477 43.817 124.677 44.739 123.638 45.45 C 122.574 46.147 121.262 46.413 120.062 46.341 C 118.843 46.285 117.73 45.887 116.747 45.361 C 115.74 44.855 114.886 44.162 114.087 43.434 C 111.003 40.427 109.223 36.25 109.192 32.001 C 109.165 29.882 109.571 27.767 110.342 25.82 C 111.107 23.867 112.212 22.086 113.489 20.472 C 116.125 17.301 119.438 14.853 122.95 12.921 C 123.327 12.714 123.8 12.851 124.007 13.228 C 124.209 13.596 124.079 14.058 123.721 14.272 C 120.392 16.253 117.341 18.695 114.984 21.657 C 112.704 24.645 111.223 28.265 111.394 31.953 C 111.517 35.604 113.118 39.216 115.737 41.673 C 116.403 42.258 117.106 42.813 117.875 43.178 C 118.629 43.571 119.434 43.829 120.192 43.842 C 120.949 43.867 121.66 43.713 122.255 43.311 C 122.829 42.891 123.365 42.292 123.701 41.588 C 124.397 40.182 124.385 38.391 123.996 36.677 C 123.596 34.947 122.804 33.258 121.811 31.699 C 119.813 28.575 117.071 25.868 113.917 23.819 C 112.354 22.769 110.674 21.896 108.933 21.184 C 107.203 20.436 105.378 19.937 103.543 19.533 C 99.85 18.812 96.025 18.712 92.29 19.332 C 88.55 19.933 84.917 21.169 81.463 22.799 C 78.002 24.427 74.8 26.494 72.027 29.085 C 66.431 34.242 62.797 41.255 60.609 48.638 C 58.361 56.046 57.418 63.855 56.838 71.682 L 55.982 83.495 C 55.819 85.473 55.612 87.458 55.312 89.444 C 54.994 91.426 54.573 93.432 53.693 95.365 C 53.515 95.756 53.054 95.928 52.663 95.75 C 52.282 95.577 52.109 95.135 52.265 94.75 L 52.278 94.721 Z" fill="#000000" stroke="none"/><path d="M 107.839 99.007 C 99.132 102.828 101.703 111.598 90.951 107.397 C 99.109 105.817 97.183 95.233 107.839 99.007 Z" fill="#000000" stroke="none"/><path d="M 74.273 127.753 C 64.767 127.961 63.795 137.048 55.461 129.062 C 63.604 130.714 65.865 120.198 74.273 127.753 Z" fill="#000000" stroke="none"/><path d="M 134.151 2.031 C 126.857 8.13 131.773 15.834 120.276 14.801 C 127.668 11.006 122.865 1.381 134.151 2.031 Z" fill="#000000" stroke="none"/><path d="M 88.935 3.262 C 83.419 11.007 90.123 17.218 78.738 19.125 C 84.931 13.585 77.852 5.485 88.935 3.262 Z" fill="#000000" stroke="none"/><path d="M 75.998 6.541 C 72.006 15.171 79.741 20.037 68.904 24.013 C 73.969 17.425 65.515 10.772 75.998 6.541 Z" fill="#000000" stroke="none"/><path d="M 62.244 14.795 C 61.889 24.297 70.903 25.804 62.437 33.652 C 64.569 25.62 54.204 22.741 62.244 14.795 Z" fill="#000000" stroke="none"/><path d="M 115.005 63.549 C 111.746 72.481 119.86 76.687 109.391 81.551 C 113.889 74.564 104.911 68.639 115.005 63.549 Z" fill="#000000" stroke="none"/><path d="M 125.462 81.056 C 130.383 89.192 138.743 85.501 135.978 96.709 C 133.349 88.826 123.106 92.112 125.462 81.056 Z" fill="#000000" stroke="none"/><path d="M 122.023 66.066 C 129.72 71.648 135.988 64.998 137.798 76.399 C 132.311 70.158 124.151 77.168 122.023 66.066 Z" fill="#000000" stroke="none"/><path d="M 111.15 51.176 C 120.01 54.626 124.389 46.605 129.027 57.176 C 122.138 52.528 116.021 61.376 111.15 51.176 Z" fill="#000000" stroke="none"/><path d="M 99.722 53.551 C 99.397 63.053 108.415 64.533 99.973 72.407 C 102.08 64.369 91.707 61.522 99.722 53.551 Z" fill="#000000" stroke="none"/><path d="M 121.88 184.139 C 120.906 185.087 119.617 185.643 118.364 186.139 C 117.093 186.627 115.77 186.976 114.427 187.243 C 111.737 187.727 108.921 187.849 106.141 187.27 C 103.376 186.721 100.627 185.414 98.553 183.314 C 96.467 181.231 95.14 178.506 94.448 175.764 C 94.275 175.074 94.127 174.38 94.039 173.683 L 93.743 171.72 C 93.674 171.09 93.489 170.504 93.369 169.893 C 93.18 169.315 93.023 168.716 92.785 168.17 C 92.347 167.058 91.75 166.03 90.953 165.258 C 90.156 164.497 89.187 163.96 88.108 163.803 C 85.958 163.496 83.475 164.731 82.412 166.856 C 81.856 167.903 81.72 169.159 81.967 170.391 C 82.238 171.622 82.895 172.797 83.725 173.848 C 82.691 173.003 81.762 171.942 81.233 170.617 C 80.715 169.299 80.66 167.736 81.158 166.327 C 82.173 163.513 85.116 161.465 88.306 161.649 C 89.892 161.726 91.438 162.433 92.595 163.47 C 93.77 164.503 94.593 165.805 95.196 167.135 C 95.813 168.473 96.164 169.872 96.412 171.26 L 96.745 173.247 C 96.831 173.874 96.978 174.479 97.133 175.082 C 97.694 177.505 98.801 179.743 100.433 181.494 C 102.027 183.304 104.262 184.452 106.649 185.176 C 109.061 185.86 111.665 186.054 114.259 185.9 C 115.56 185.838 116.86 185.661 118.15 185.406 C 118.796 185.284 119.433 185.117 120.064 184.925 C 120.695 184.733 121.322 184.512 121.88 184.139 Z" fill="#000000" stroke="none"/><path d="M 101.606 184.139 C 100.633 185.087 99.344 185.643 98.09 186.139 C 96.819 186.627 95.496 186.976 94.153 187.243 C 91.464 187.727 88.647 187.849 85.868 187.27 C 83.103 186.721 80.354 185.414 78.28 183.314 C 76.194 181.231 74.867 178.506 74.175 175.764 C 74.002 175.074 73.853 174.38 73.765 173.683 L 73.47 171.72 C 73.401 171.09 73.216 170.504 73.095 169.893 C 72.906 169.315 72.75 168.716 72.511 168.17 C 72.074 167.058 71.476 166.03 70.679 165.258 C 69.883 164.497 68.914 163.96 67.834 163.803 C 65.684 163.496 63.201 164.731 62.138 166.856 C 61.583 167.903 61.447 169.159 61.694 170.391 C 61.964 171.622 62.622 172.797 63.452 173.848 C 62.418 173.003 61.489 171.942 60.96 170.617 C 60.441 169.299 60.387 167.736 60.885 166.327 C 61.9 163.513 64.843 161.465 68.033 161.649 C 69.618 161.726 71.164 162.433 72.322 163.47 C 73.497 164.503 74.32 165.805 74.923 167.135 C 75.54 168.473 75.891 169.872 76.139 171.26 L 76.471 173.247 C 76.557 173.874 76.704 174.479 76.86 175.082 C 77.42 177.505 78.527 179.743 80.16 181.494 C 81.753 183.304 83.989 184.452 86.376 185.176 C 88.787 185.86 91.392 186.054 93.985 185.9 C 95.287 185.838 96.587 185.661 97.876 185.406 C 98.523 185.284 99.159 185.117 99.79 184.925 C 100.421 184.733 101.049 184.512 101.606 184.139 Z" fill="#000000" stroke="none"/><path d="M 81.333 184.139 C 80.359 185.087 79.071 185.643 77.817 186.139 C 76.546 186.627 75.223 186.976 73.88 187.243 C 71.19 187.727 68.374 187.849 65.594 187.27 C 62.829 186.721 60.08 185.414 58.007 183.314 C 55.92 181.231 54.594 178.506 53.902 175.764 C 53.728 175.074 53.58 174.38 53.492 173.683 L 53.197 171.72 C 53.127 171.09 52.942 170.504 52.822 169.893 C 52.633 169.315 52.476 168.716 52.238 168.17 C 51.801 167.058 51.203 166.03 50.406 165.258 C 49.609 164.497 48.64 163.96 47.561 163.803 C 45.411 163.496 42.928 164.731 41.865 166.856 C 41.309 167.903 41.173 169.159 41.42 170.391 C 41.691 171.622 42.348 172.797 43.178 173.848 C 42.144 173.003 41.215 171.942 40.686 170.617 C 40.168 169.299 40.114 167.736 40.611 166.327 C 41.626 163.513 44.57 161.465 47.76 161.649 C 49.345 161.726 50.891 162.433 52.049 163.47 C 53.223 164.503 54.046 165.805 54.649 167.135 C 55.266 168.473 55.617 169.872 55.865 171.26 L 56.198 173.247 C 56.284 173.874 56.431 174.479 56.586 175.082 C 57.147 177.505 58.254 179.743 59.886 181.494 C 61.48 183.304 63.716 184.452 66.102 185.176 C 68.514 185.86 71.118 186.054 73.712 185.9 C 75.013 185.838 76.313 185.661 77.603 185.406 C 78.249 185.284 78.886 185.117 79.517 184.925 C 80.148 184.733 80.775 184.512 81.333 184.139 Z" fill="#000000" stroke="none"/><path d="M 52.053 180.126 C 39.039 185.271 32.042 193.376 16.373 190.948 C 0.704 188.52 1.408 162.761 21.473 161.743 C 45.006 160.549 30.114 188.993 19.823 181.438 C 9.531 173.884 19.967 170.916 23.23 171.726 C 26.493 172.535 25.991 178.201 25.991 178.201 C 25.991 178.201 31.782 179.716 31.012 172.265 C 29.646 159.045 8.623 165.459 9.676 176.506 C 12.401 205.104 42.213 175.09 52.053 180.126 Z" fill="#000000" stroke="none"/><path d="M 121.943 193.924 C 122.404 194.625 123.094 195.137 123.858 195.422 C 124.627 195.706 125.467 195.757 126.278 195.667 C 127.91 195.479 129.447 194.704 130.633 193.61 C 131.823 192.511 132.607 191.01 132.771 189.429 C 132.86 188.639 132.806 187.837 132.651 187.053 C 132.473 186.271 132.205 185.507 131.87 184.768 C 131.213 183.335 130.044 182.151 128.744 181.169 C 127.431 180.189 125.969 179.388 124.445 178.727 C 121.385 177.423 118.141 176.492 114.831 175.899 C 111.524 175.284 108.16 174.91 104.779 174.771 C 101.399 174.619 98.002 174.694 94.623 174.998 C 87.857 175.547 81.177 176.96 74.671 178.856 C 68.164 180.775 61.803 183.139 55.58 185.812 C 49.351 188.546 42.99 191.109 36.411 193.004 C 29.859 194.908 23.046 196.386 16.108 196.042 C 12.68 195.846 9.115 195.083 6.241 193.005 C 4.824 191.966 3.676 190.559 2.963 188.971 C 2.268 187.371 1.985 185.636 2.001 183.929 C 2.002 183.888 2.035 183.855 2.076 183.856 C 2.115 183.856 2.147 183.888 2.149 183.927 C 2.237 185.615 2.625 187.287 3.382 188.769 C 4.156 190.243 5.316 191.47 6.671 192.396 C 9.435 194.234 12.85 194.788 16.16 194.89 C 19.501 195 22.857 194.584 26.16 193.962 C 29.464 193.323 32.744 192.521 35.979 191.543 C 39.219 190.587 42.408 189.452 45.583 188.278 C 48.769 187.122 51.892 185.834 55.039 184.528 C 61.345 181.912 67.838 179.729 74.458 178.075 C 81.073 176.399 87.794 175.198 94.575 174.484 C 101.351 173.833 108.238 173.611 115.043 174.688 C 118.422 175.281 121.809 176.088 124.97 177.55 C 126.552 178.267 128.081 179.133 129.478 180.211 C 130.857 181.291 132.147 182.617 132.894 184.303 C 133.622 185.916 133.998 187.755 133.72 189.557 C 133.463 191.358 132.497 193.022 131.143 194.178 C 129.797 195.348 128.078 196.055 126.319 196.159 C 125.441 196.203 124.542 196.093 123.73 195.738 C 122.922 195.379 122.236 194.759 121.816 194 C 121.797 193.964 121.809 193.919 121.845 193.9 C 121.879 193.881 121.922 193.893 121.943 193.924 Z" fill="#000000" stroke="none"/><path d="M 146.712 184.139 C 147.27 184.512 147.897 184.733 148.529 184.925 C 149.159 185.117 149.796 185.284 150.443 185.406 C 151.732 185.661 153.032 185.838 154.333 185.9 C 156.927 186.054 159.531 185.86 161.943 185.176 C 164.329 184.452 166.565 183.304 168.158 181.494 C 169.792 179.743 170.898 177.505 171.459 175.082 C 171.615 174.479 171.761 173.874 171.847 173.247 L 172.18 171.26 C 172.427 169.872 172.779 168.473 173.396 167.135 C 173.999 165.805 174.822 164.503 175.997 163.47 C 177.155 162.433 178.7 161.726 180.286 161.649 C 183.476 161.465 186.419 163.513 187.434 166.327 C 187.931 167.736 187.878 169.299 187.359 170.617 C 186.83 171.942 185.901 173.003 184.867 173.848 C 185.697 172.797 186.354 171.622 186.625 170.391 C 186.872 169.159 186.736 167.903 186.18 166.856 C 185.117 164.731 182.635 163.496 180.484 163.803 C 179.405 163.96 178.436 164.497 177.639 165.258 C 176.842 166.03 176.244 167.058 175.807 168.17 C 175.569 168.716 175.412 169.315 175.223 169.893 C 175.103 170.504 174.918 171.09 174.849 171.72 L 174.553 173.683 C 174.465 174.38 174.317 175.074 174.143 175.764 C 173.452 178.506 172.125 181.231 170.038 183.314 C 167.965 185.414 165.216 186.721 162.45 187.27 C 159.672 187.849 156.855 187.727 154.166 187.243 C 152.822 186.976 151.5 186.627 150.228 186.139 C 148.975 185.643 147.686 185.087 146.712 184.139 Z" fill="#000000" stroke="none"/><path d="M 166.986 184.139 C 167.543 184.512 168.171 184.733 168.802 184.925 C 169.432 185.117 170.069 185.284 170.716 185.406 C 172.005 185.661 173.305 185.838 174.607 185.9 C 177.2 186.054 179.805 185.86 182.217 185.176 C 184.603 184.452 186.839 183.304 188.432 181.494 C 190.065 179.743 191.172 177.505 191.732 175.082 C 191.888 174.479 192.034 173.874 192.12 173.247 L 192.453 171.26 C 192.701 169.872 193.052 168.473 193.669 167.135 C 194.273 165.805 195.095 164.503 196.27 163.47 C 197.428 162.433 198.973 161.726 200.559 161.649 C 203.749 161.465 206.693 163.513 207.708 166.327 C 208.205 167.736 208.151 169.299 207.633 170.617 C 207.104 171.942 206.175 173.003 205.14 173.848 C 205.97 172.797 206.628 171.622 206.898 170.391 C 207.145 169.159 207.009 167.903 206.454 166.856 C 205.39 164.731 202.908 163.496 200.758 163.803 C 199.678 163.96 198.71 164.497 197.912 165.258 C 197.115 166.03 196.518 167.058 196.081 168.17 C 195.842 168.716 195.686 169.315 195.496 169.893 C 195.377 170.504 195.192 171.09 195.122 171.72 L 194.826 173.683 C 194.739 174.38 194.591 175.074 194.417 175.764 C 193.725 178.506 192.398 181.231 190.312 183.314 C 188.238 185.414 185.49 186.721 182.724 187.27 C 179.945 187.849 177.129 187.727 174.439 187.243 C 173.095 186.976 171.773 186.627 170.502 186.139 C 169.248 185.643 167.959 185.087 166.986 184.139 Z" fill="#000000" stroke="none"/><path d="M 187.259 184.139 C 187.817 184.512 188.444 184.733 189.075 184.925 C 189.706 185.117 190.343 185.284 190.99 185.406 C 192.279 185.661 193.579 185.838 194.88 185.9 C 197.473 186.054 200.078 185.86 202.49 185.176 C 204.876 184.452 207.112 183.304 208.705 181.494 C 210.339 179.743 211.445 177.505 212.006 175.082 C 212.161 174.479 212.308 173.874 212.394 173.247 L 212.727 171.26 C 212.974 169.872 213.325 168.473 213.943 167.135 C 214.546 165.805 215.369 164.503 216.544 163.47 C 217.701 162.433 219.247 161.726 220.833 161.649 C 224.022 161.465 226.966 163.513 227.981 166.327 C 228.478 167.736 228.425 169.299 227.906 170.617 C 227.377 171.942 226.448 173.003 225.414 173.848 C 226.244 172.797 226.901 171.622 227.172 170.391 C 227.419 169.159 227.283 167.903 226.727 166.856 C 225.664 164.731 223.181 163.496 221.031 163.803 C 219.952 163.96 218.983 164.497 218.186 165.258 C 217.389 166.03 216.792 167.058 216.354 168.17 C 216.116 168.716 215.959 169.315 215.77 169.893 C 215.65 170.504 215.465 171.09 215.395 171.72 L 215.1 173.683 C 215.012 174.38 214.864 175.074 214.69 175.764 C 213.999 178.506 212.672 181.231 210.585 183.314 C 208.511 185.414 205.763 186.721 202.997 187.27 C 200.219 187.849 197.402 187.727 194.713 187.243 C 193.369 186.976 192.047 186.627 190.775 186.139 C 189.522 185.643 188.233 185.087 187.259 184.139 Z" fill="#000000" stroke="none"/><path d="M 216.539 180.126 C 229.553 185.271 236.55 193.376 252.219 190.948 C 267.888 188.52 267.184 162.761 247.119 161.743 C 223.587 160.549 238.478 188.993 248.769 181.438 C 259.061 173.884 248.625 170.916 245.362 171.726 C 242.098 172.535 242.6 178.201 242.6 178.201 C 242.6 178.201 236.81 179.716 237.58 172.265 C 238.946 159.045 259.97 165.459 258.917 176.506 C 256.191 205.104 226.379 175.09 216.539 180.126 Z" fill="#000000" stroke="none"/><path d="M 146.776 194 C 146.357 194.759 145.671 195.379 144.862 195.738 C 144.051 196.093 143.151 196.203 142.273 196.159 C 140.514 196.055 138.795 195.348 137.449 194.178 C 136.095 193.022 135.129 191.358 134.872 189.557 C 134.594 187.755 134.97 185.916 135.698 184.303 C 136.445 182.617 137.735 181.291 139.114 180.211 C 140.51 179.133 142.04 178.267 143.621 177.55 C 146.783 176.088 150.17 175.281 153.549 174.688 C 160.354 173.611 167.24 173.833 174.017 174.484 C 180.798 175.198 187.519 176.399 194.134 178.075 C 200.754 179.729 207.246 181.912 213.553 184.528 C 216.7 185.834 219.823 187.122 223.009 188.278 C 226.183 189.452 229.373 190.587 232.613 191.543 C 235.847 192.521 239.129 193.323 242.432 193.962 C 245.735 194.584 249.092 195 252.431 194.89 C 255.742 194.788 259.157 194.234 261.922 192.396 C 263.276 191.47 264.435 190.243 265.211 188.769 C 265.967 187.287 266.355 185.615 266.443 183.927 C 266.445 183.886 266.479 183.854 266.52 183.856 C 266.559 183.857 266.59 183.89 266.591 183.929 C 266.607 185.636 266.324 187.371 265.629 188.971 C 264.917 190.559 263.768 191.966 262.35 193.005 C 259.477 195.083 255.912 195.846 252.484 196.042 C 245.546 196.386 238.733 194.908 232.18 193.004 C 225.601 191.109 219.241 188.546 213.012 185.812 C 206.788 183.139 200.427 180.775 193.922 178.856 C 187.415 176.96 180.735 175.547 173.969 174.998 C 170.591 174.694 167.193 174.619 163.813 174.771 C 160.432 174.91 157.068 175.284 153.761 175.899 C 150.45 176.492 147.208 177.423 144.148 178.727 C 142.623 179.388 141.161 180.189 139.848 181.169 C 138.548 182.151 137.379 183.335 136.722 184.768 C 136.386 185.507 136.119 186.271 135.941 187.053 C 135.786 187.837 135.733 188.639 135.821 189.429 C 135.985 191.01 136.769 192.511 137.959 193.61 C 139.146 194.704 140.681 195.479 142.314 195.667 C 143.125 195.757 143.965 195.706 144.734 195.422 C 145.499 195.137 146.188 194.625 146.649 193.924 C 146.671 193.89 146.717 193.88 146.751 193.902 C 146.783 193.923 146.794 193.967 146.776 194 Z" fill="#000000" stroke="none"/><path d="M 116.091 181.161 C 115.07 181.205 114.074 180.7 113.347 179.984 C 112.612 179.262 112.07 178.376 111.619 177.457 C 110.781 175.583 110.357 173.545 110.236 171.498 C 110.064 167.399 111.124 163.223 113.362 159.717 C 115.557 156.152 119.105 153.585 122.911 152.008 C 126.765 150.47 130.908 149.869 134.997 149.81 C 139.09 149.776 143.234 150.394 147.11 151.863 C 149.028 152.646 150.869 153.638 152.528 154.898 C 154.188 156.157 155.615 157.714 156.762 159.442 C 159.068 162.901 160.227 167.035 160.22 171.13 C 160.202 173.179 159.879 175.233 159.153 177.149 C 158.773 178.095 158.326 179.036 157.637 179.807 C 156.969 180.568 156.028 181.193 154.996 181.161 C 156.027 181.113 156.876 180.441 157.465 179.665 C 158.083 178.888 158.468 177.952 158.783 177.018 C 159.385 175.125 159.588 173.118 159.496 171.141 C 159.359 167.186 158.109 163.268 155.826 160.088 C 154.682 158.503 153.312 157.089 151.754 155.915 C 150.185 154.752 148.444 153.838 146.623 153.118 C 142.94 151.768 138.968 151.215 135.007 151.286 C 131.05 151.299 127.074 151.84 123.411 153.254 C 119.778 154.7 116.508 157.095 114.305 160.342 C 112.087 163.566 110.936 167.521 110.956 171.478 C 110.965 173.455 111.266 175.447 111.976 177.302 C 112.362 178.212 112.84 179.092 113.506 179.828 C 114.154 180.566 115.069 181.126 116.091 181.161 Z" fill="#000000" stroke="none"/><path d="M 133.319 176.643 C 133.121 174.016 132.055 171.528 130.029 170.055 C 128.097 168.489 125.494 167.617 123.518 165.475 C 122.998 164.976 122.612 164.359 122.216 163.746 C 122.009 163.444 121.911 163.09 121.756 162.763 C 121.631 162.425 121.439 162.099 121.383 161.748 C 120.996 160.353 120.848 158.985 120.869 157.55 L 120.936 156.461 L 121.186 155.376 C 121.248 155.008 121.42 154.67 121.558 154.322 C 121.694 153.972 121.847 153.631 122.056 153.324 C 122.8 152.03 123.84 150.998 124.847 150.12 C 125.867 149.241 126.873 148.45 127.734 147.589 C 128.615 146.742 129.252 145.774 129.713 144.722 C 130.218 143.682 130.335 142.479 130.429 141.281 C 130.442 140.046 130.365 138.809 130.048 137.693 C 129.721 136.586 129.08 135.653 128.129 135.335 C 127.179 134.994 125.959 135.318 125.023 136.015 C 124.067 136.693 123.353 137.784 123.282 138.981 C 123.191 140.193 123.901 141.389 124.876 142.256 C 124.338 141.889 123.793 141.486 123.393 140.927 C 122.996 140.375 122.725 139.704 122.668 138.992 C 122.551 137.55 123.272 136.139 124.329 135.176 C 125.385 134.227 126.912 133.563 128.522 133.936 C 129.314 134.118 130.026 134.598 130.546 135.182 C 131.09 135.766 131.404 136.455 131.684 137.133 C 132.185 138.508 132.342 139.911 132.371 141.286 C 132.328 142.686 132.237 144.146 131.658 145.511 C 131.13 146.872 130.272 148.119 129.283 149.104 C 128.304 150.104 127.259 150.949 126.307 151.787 C 125.337 152.608 124.491 153.454 123.918 154.427 C 123.361 155.401 122.981 156.468 122.96 157.654 C 122.831 160.057 123.252 162.546 124.809 164.333 C 126.289 166.202 128.761 167.336 130.745 169.243 C 131.004 169.462 131.22 169.74 131.441 170.005 C 131.657 170.274 131.899 170.52 132.058 170.833 L 132.581 171.724 L 132.931 172.69 C 132.985 172.851 133.05 173.008 133.093 173.171 L 133.175 173.671 L 133.333 174.662 C 133.355 175.328 133.323 175.992 133.319 176.643 Z" fill="#000000" stroke="none"/><path d="M 135.273 176.643 C 135.27 175.992 135.237 175.328 135.259 174.662 L 135.417 173.671 L 135.499 173.171 C 135.543 173.008 135.607 172.851 135.661 172.69 L 136.011 171.724 L 136.534 170.833 C 136.694 170.52 136.935 170.274 137.151 170.005 C 137.372 169.74 137.588 169.462 137.847 169.243 C 139.831 167.336 142.303 166.202 143.783 164.333 C 145.34 162.546 145.761 160.057 145.633 157.654 C 145.611 156.468 145.231 155.401 144.674 154.427 C 144.101 153.454 143.255 152.608 142.285 151.787 C 141.333 150.949 140.288 150.104 139.309 149.104 C 138.32 148.119 137.462 146.872 136.934 145.511 C 136.356 144.146 136.264 142.686 136.22 141.286 C 136.25 139.911 136.406 138.508 136.907 137.133 C 137.189 136.455 137.502 135.766 138.046 135.182 C 138.567 134.598 139.278 134.118 140.07 133.936 C 141.68 133.563 143.207 134.227 144.263 135.176 C 145.32 136.139 146.041 137.55 145.925 138.992 C 145.867 139.704 145.596 140.375 145.199 140.927 C 144.799 141.486 144.254 141.889 143.716 142.256 C 144.691 141.389 145.401 140.193 145.31 138.981 C 145.239 137.784 144.525 136.693 143.569 136.015 C 142.634 135.318 141.412 134.994 140.463 135.335 C 139.512 135.653 138.871 136.586 138.545 137.693 C 138.227 138.809 138.15 140.046 138.163 141.281 C 138.257 142.479 138.374 143.682 138.88 144.722 C 139.34 145.774 139.977 146.742 140.858 147.589 C 141.719 148.45 142.724 149.241 143.744 150.12 C 144.752 150.998 145.792 152.03 146.536 153.324 C 146.745 153.631 146.898 153.972 147.034 154.322 C 147.172 154.67 147.344 155.008 147.406 155.376 L 147.656 156.461 L 147.723 157.55 C 147.743 158.985 147.596 160.353 147.209 161.748 C 147.153 162.099 146.961 162.425 146.836 162.763 C 146.681 163.09 146.584 163.444 146.377 163.746 C 145.98 164.359 145.594 164.976 145.073 165.475 C 143.098 167.617 140.495 168.489 138.563 170.055 C 136.537 171.528 135.47 174.016 135.273 176.643 Z" fill="#000000" stroke="none"/><path d="M 134.048 165.75 C 133.455 163.087 128.902 163.793 128.996 159.75 C 129.091 155.707 133.455 161.576 133.455 161.576 C 133.455 161.576 130.775 155.576 133.455 155.576 C 136.135 155.576 134.943 161.707 134.943 161.707 C 134.943 161.707 138.873 154.003 138.873 159.88 C 138.873 163.924 134.978 163.087 134.048 165.75 Z" fill="#000000" stroke="none"/>
</svg>
