<?xml version="1.0" encoding="UTF-8"?>
<svg xmlns="http://www.w3.org/2000/svg" width="166.802" height="89.488" viewBox="154.891 66.677 166.802 89.488">
  <path d="M 173.592 132.067 C 171.263 132.664 168.728 132.752 166.364 132.007 C 163.994 131.293 161.876 129.804 160.297 127.88 C 158.724 125.947 157.658 123.597 157.27 121.096 C 156.891 118.609 157.251 115.902 158.631 113.649 C 159.982 111.372 162.349 109.803 164.82 109.128 C 167.303 108.426 169.873 108.396 172.332 108.693 C 177.265 109.282 181.939 111.074 186.271 113.051 C 190.616 114.926 195.071 116.603 199.535 118.242 C 204.002 119.882 208.502 121.44 213.022 122.939 C 222.064 125.933 231.158 128.778 240.306 131.439 C 249.441 134.149 258.649 136.622 267.941 138.723 C 277.229 140.802 286.631 142.574 296.127 143.119 C 300.856 143.352 305.666 143.373 310.24 142.3 C 312.493 141.749 314.749 140.908 316.366 139.361 C 317.162 138.586 317.764 137.658 318.049 136.578 C 318.377 135.507 318.491 134.385 318.285 133.33 C 317.866 131.192 316.018 129.608 313.911 128.82 C 311.791 128.003 309.455 127.703 307.135 127.682 C 302.472 127.651 297.808 128.627 293.339 130.059 C 291.102 130.774 288.915 131.655 286.697 132.545 L 280.068 135.247 C 275.646 137.064 271.183 138.808 266.672 140.451 C 257.653 143.715 248.372 146.58 238.647 147.671 C 233.795 148.173 228.806 148.256 223.881 147.228 C 218.939 146.241 214.272 143.998 210.301 140.945 C 206.326 137.876 203.048 134.016 200.454 129.789 C 197.874 125.55 195.944 120.931 194.775 116.12 C 193.597 111.317 193.113 106.322 193.537 101.354 C 193.948 96.398 195.337 91.424 198.017 87.101 C 199.339 84.937 201.011 82.978 202.922 81.3 C 204.859 79.651 207.029 78.273 209.357 77.294 C 211.677 76.301 214.119 75.631 216.577 75.275 C 219.015 74.914 221.498 74.747 223.985 74.883 C 228.944 75.115 233.965 76.738 237.918 79.858 C 241.897 82.939 244.664 87.39 245.931 92.153 C 247.208 96.912 247.066 102.082 245.205 106.645 C 244.27 108.912 242.863 111.011 241 112.613 C 239.146 114.226 236.832 115.259 234.448 115.641 C 234.358 115.655 234.273 115.595 234.258 115.505 C 234.243 115.418 234.301 115.336 234.386 115.316 C 236.696 114.816 238.838 113.684 240.518 112.078 C 242.212 110.481 243.446 108.445 244.231 106.267 C 245.802 101.882 245.669 97.007 244.354 92.604 C 243.021 88.191 240.326 84.204 236.642 81.544 C 232.979 78.83 228.426 77.576 223.87 77.424 C 221.584 77.346 219.281 77.546 217.004 77.931 C 214.743 78.304 212.556 78.959 210.503 79.887 C 208.443 80.8 206.565 82.058 204.894 83.534 C 203.25 85.042 201.819 86.782 200.691 88.72 C 198.404 92.585 197.232 97.082 196.878 101.625 C 196.531 106.182 197.017 110.818 198.157 115.273 C 200.443 124.152 205.259 132.576 212.44 138.192 C 216.005 140.994 220.146 143.039 224.573 143.978 C 229.006 144.965 233.693 144.961 238.326 144.535 C 242.971 144.078 247.598 143.162 252.17 141.99 C 256.747 140.833 261.281 139.439 265.778 137.908 C 270.28 136.389 274.732 134.703 279.208 133.045 L 285.93 130.549 C 288.17 129.731 290.445 128.897 292.781 128.23 C 297.437 126.909 302.269 126.006 307.173 126.177 C 309.614 126.269 312.09 126.642 314.411 127.609 C 315.565 128.103 316.673 128.773 317.593 129.692 C 318.508 130.605 319.211 131.8 319.452 133.099 C 319.693 134.398 319.532 135.717 319.152 136.918 C 318.814 138.151 318.064 139.298 317.139 140.168 C 315.249 141.927 312.83 142.76 310.479 143.317 C 305.711 144.348 300.863 144.364 296.075 144.169 C 291.28 143.926 286.507 143.443 281.763 142.774 C 277.016 142.125 272.288 141.347 267.583 140.45 C 258.172 138.663 248.843 136.472 239.577 134.054 C 230.327 131.575 221.155 128.805 212.088 125.718 C 203.026 122.611 194.017 119.355 185.229 115.402 C 183.026 114.374 180.947 113.433 178.736 112.642 C 176.548 111.856 174.31 111.201 172.043 110.872 C 169.785 110.522 167.478 110.495 165.338 111.028 C 163.202 111.548 161.276 112.756 160.108 114.576 C 158.904 116.378 158.535 118.681 158.745 120.907 C 158.977 123.146 159.835 125.342 161.189 127.184 C 162.55 129.019 164.429 130.493 166.61 131.271 C 168.781 132.073 171.199 132.189 173.52 131.746 C 173.61 131.729 173.696 131.787 173.713 131.877 C 173.73 131.963 173.676 132.046 173.592 132.067 Z" fill="#000000" stroke="none"/>
  <path d="M 189.611 108.011 L 189.561 107.953 C 189.557 107.948 189.557 107.941 189.562 107.938 C 189.567 107.934 189.574 107.934 189.577 107.939 C 189.578 107.939 189.579 107.94 189.579 107.941 L 189.611 108.011 Z" fill="#000000" stroke="none"/>
  <path d="M 187.33 102.818 L 187.314 102.74 C 187.247 102.411 187.46 102.09 187.789 102.023 C 188.118 101.956 188.439 102.169 188.506 102.498 C 188.513 102.531 188.517 102.57 188.518 102.604 L 188.52 102.679 L 188.52 102.685 C 188.528 103.016 188.266 103.292 187.934 103.3 C 187.638 103.308 187.387 103.099 187.33 102.818 Z" fill="#000000" stroke="none"/>
  <path d="M 186.937 97.076 L 186.94 96.998 C 186.963 96.432 187.44 95.991 188.007 96.015 C 188.573 96.037 189.013 96.515 188.99 97.081 C 188.988 97.127 188.981 97.181 188.973 97.225 L 188.96 97.297 L 188.959 97.305 C 188.857 97.858 188.325 98.225 187.771 98.123 C 187.265 98.029 186.915 97.577 186.937 97.076 Z" fill="#000000" stroke="none"/>
  <path d="M 187.764 91.369 L 187.783 91.291 C 187.949 90.581 188.66 90.14 189.369 90.306 C 190.08 90.473 190.521 91.183 190.354 91.894 C 190.345 91.936 190.331 91.981 190.318 92.021 L 190.294 92.091 L 190.291 92.098 C 190.056 92.786 189.307 93.152 188.619 92.917 C 187.974 92.696 187.613 92.019 187.764 91.369 Z" fill="#000000" stroke="none"/>
  <path d="M 189.609 85.877 L 189.641 85.803 C 189.973 85.037 190.861 84.686 191.626 85.017 C 192.391 85.349 192.743 86.237 192.411 87.002 C 192.4 87.028 192.386 87.059 192.373 87.084 L 192.34 87.15 L 192.337 87.156 C 191.961 87.899 191.054 88.197 190.311 87.821 C 189.597 87.46 189.296 86.603 189.609 85.877 Z" fill="#000000" stroke="none"/>
  <path d="M 192.396 80.757 L 192.441 80.689 C 192.941 79.942 193.95 79.743 194.696 80.242 C 195.441 80.741 195.641 81.751 195.142 82.496 C 195.134 82.508 195.121 82.526 195.113 82.537 L 195.07 82.598 L 195.067 82.603 C 194.546 83.333 193.532 83.502 192.802 82.981 C 192.086 82.471 191.911 81.482 192.396 80.757 Z" fill="#000000" stroke="none"/>
  <path d="M 196.134 76.232 L 196.192 76.175 C 196.839 75.539 197.879 75.548 198.515 76.195 C 199.147 76.838 199.142 77.868 198.507 78.505 L 198.503 78.51 L 198.451 78.562 C 197.812 79.205 196.771 79.209 196.128 78.57 C 195.484 77.931 195.48 76.891 196.119 76.247 L 196.134 76.232 Z" fill="#000000" stroke="none"/>
  <path d="M 200.745 72.562 L 200.815 72.518 C 201.556 72.051 202.534 72.273 203 73.013 C 203.458 73.738 203.254 74.693 202.548 75.17 L 202.539 75.176 L 202.479 75.217 C 201.753 75.707 200.768 75.516 200.278 74.79 C 199.787 74.064 199.978 73.079 200.704 72.589 C 200.715 72.581 200.734 72.569 200.745 72.562 Z" fill="#000000" stroke="none"/>
  <path d="M 206.06 70.026 L 206.138 69.999 C 206.883 69.74 207.697 70.134 207.955 70.879 C 208.205 71.596 207.85 72.376 207.16 72.665 L 207.147 72.67 L 207.079 72.698 C 206.35 73.001 205.513 72.656 205.209 71.927 C 204.906 71.197 205.251 70.36 205.98 70.057 C 206.005 70.046 206.035 70.035 206.06 70.026 Z" fill="#000000" stroke="none"/>
  <path d="M 211.761 68.759 L 211.842 68.749 C 212.492 68.677 213.077 69.145 213.149 69.794 C 213.217 70.403 212.81 70.956 212.223 71.082 L 212.21 71.085 L 212.137 71.101 C 211.495 71.236 210.865 70.827 210.729 70.186 C 210.593 69.543 211.003 68.913 211.644 68.777 C 211.682 68.769 211.723 68.763 211.761 68.759 Z" fill="#000000" stroke="none"/>
  <path d="M 217.521 68.722 L 217.601 68.729 C 218.06 68.769 218.399 69.173 218.358 69.631 C 218.322 70.052 217.973 70.372 217.563 70.391 L 217.486 70.395 C 217.024 70.416 216.631 70.059 216.609 69.596 C 216.588 69.134 216.945 68.741 217.408 68.72 C 217.444 68.718 217.485 68.719 217.521 68.722 Z" fill="#000000" stroke="none"/>
  <path d="M 223.103 69.774 L 223.179 69.796 C 223.351 69.845 223.452 70.024 223.403 70.197 C 223.361 70.348 223.218 70.443 223.068 70.434 L 222.991 70.429 C 222.807 70.417 222.667 70.258 222.68 70.074 C 222.691 69.891 222.85 69.751 223.034 69.763 C 223.057 69.765 223.081 69.769 223.103 69.774 Z" fill="#000000" stroke="none"/>
  <path d="M 305.732 130.413 L 305.654 130.43 C 305.652 130.431 305.649 130.429 305.649 130.426 C 305.648 130.424 305.65 130.421 305.652 130.42 C 305.653 130.42 305.653 130.42 305.653 130.42 L 305.732 130.413 Z" fill="#000000" stroke="none"/>
  <path d="M 300.39 131.973 L 300.316 131.998 C 300.144 132.058 299.957 131.966 299.898 131.794 C 299.84 131.622 299.931 131.436 300.103 131.377 C 300.114 131.373 300.125 131.37 300.135 131.367 L 300.213 131.35 C 300.388 131.309 300.562 131.418 300.602 131.593 C 300.64 131.756 300.545 131.92 300.39 131.973 Z" fill="#000000" stroke="none"/>
  <path d="M 295.167 133.885 L 295.093 133.913 C 294.786 134.03 294.443 133.876 294.327 133.57 C 294.21 133.264 294.363 132.921 294.67 132.804 C 294.685 132.798 294.702 132.793 294.717 132.788 L 294.793 132.766 C 295.106 132.676 295.433 132.856 295.524 133.169 C 295.61 133.466 295.45 133.776 295.167 133.885 Z" fill="#000000" stroke="none"/>
  <path d="M 289.988 135.925 L 289.914 135.955 C 289.492 136.125 289.011 135.921 288.84 135.499 C 288.669 135.076 288.873 134.595 289.296 134.424 C 289.317 134.416 289.339 134.408 289.36 134.401 L 289.436 134.378 C 289.87 134.243 290.33 134.485 290.465 134.919 C 290.593 135.329 290.379 135.766 289.988 135.925 Z" fill="#000000" stroke="none"/>
  <path d="M 284.813 137.992 L 284.74 138.023 C 284.224 138.231 283.637 137.981 283.429 137.466 C 283.221 136.95 283.47 136.363 283.986 136.155 C 284.005 136.148 284.028 136.14 284.047 136.133 L 284.123 136.107 C 284.65 135.934 285.218 136.22 285.391 136.747 C 285.557 137.252 285.299 137.795 284.813 137.992 Z" fill="#000000" stroke="none"/>
  <path d="M 279.638 140.072 L 279.564 140.102 C 278.962 140.339 278.282 140.044 278.044 139.442 C 277.806 138.841 278.101 138.16 278.703 137.923 C 278.719 137.917 278.739 137.909 278.755 137.904 L 278.83 137.878 C 279.441 137.669 280.106 137.995 280.315 138.606 C 280.517 139.199 280.214 139.844 279.638 140.072 Z" fill="#000000" stroke="none"/>
  <path d="M 274.443 142.117 L 274.369 142.147 C 273.699 142.409 272.944 142.078 272.681 141.408 C 272.42 140.739 272.75 139.983 273.42 139.722 C 273.437 139.715 273.459 139.706 273.477 139.7 L 273.553 139.675 C 274.233 139.444 274.971 139.81 275.201 140.49 C 275.424 141.149 275.084 141.865 274.443 142.117 Z" fill="#000000" stroke="none"/>
  <path d="M 269.226 144.122 L 269.151 144.149 C 268.418 144.423 267.602 144.049 267.33 143.316 C 267.057 142.583 267.431 141.768 268.164 141.494 C 268.174 141.49 268.191 141.484 268.202 141.481 L 268.277 141.455 C 269.017 141.204 269.821 141.6 270.073 142.34 C 270.32 143.066 269.94 143.856 269.226 144.122 Z" fill="#000000" stroke="none"/>
  <path d="M 263.972 146.043 L 263.897 146.07 C 263.119 146.349 262.263 145.944 261.984 145.167 C 261.705 144.39 262.11 143.533 262.888 143.255 C 262.899 143.25 262.916 143.244 262.928 143.24 L 263.003 143.216 C 263.787 142.96 264.632 143.388 264.888 144.172 C 265.14 144.942 264.729 145.771 263.972 146.043 Z" fill="#000000" stroke="none"/>
  <path d="M 258.683 147.892 L 258.607 147.918 C 257.784 148.197 256.889 147.756 256.61 146.933 C 256.33 146.109 256.771 145.215 257.595 144.936 C 257.606 144.932 257.625 144.926 257.638 144.922 L 257.713 144.898 C 258.543 144.643 259.424 145.107 259.681 145.938 C 259.932 146.753 259.485 147.618 258.683 147.892 Z" fill="#000000" stroke="none"/>
  <path d="M 253.333 149.592 L 253.257 149.615 C 252.41 149.873 251.514 149.395 251.257 148.547 C 250.999 147.7 251.477 146.805 252.325 146.547 L 252.34 146.543 L 252.415 146.521 C 253.264 146.271 254.156 146.757 254.405 147.606 C 254.653 148.45 254.173 149.336 253.333 149.592 Z" fill="#000000" stroke="none"/>
  <path d="M 247.926 151.149 L 247.848 151.17 C 246.979 151.404 246.085 150.891 245.85 150.022 C 245.616 149.153 246.13 148.259 246.998 148.023 L 247.014 148.02 L 247.09 148 C 247.961 147.773 248.85 148.295 249.077 149.165 C 249.303 150.031 248.787 150.916 247.926 151.149 Z" fill="#000000" stroke="none"/>
  <path d="M 242.442 152.499 L 242.363 152.517 C 241.476 152.706 240.603 152.142 240.412 151.255 C 240.223 150.373 240.783 149.505 241.66 149.308 L 241.737 149.29 C 242.622 149.091 243.501 149.648 243.7 150.532 C 243.899 151.418 243.343 152.297 242.458 152.496 L 242.442 152.499 Z" fill="#000000" stroke="none"/>
  <path d="M 236.857 153.528 L 236.777 153.54 C 235.894 153.672 235.072 153.063 234.94 152.18 C 234.809 151.303 235.413 150.484 236.287 150.346 L 236.364 150.333 C 237.245 150.192 238.074 150.793 238.215 151.674 C 238.356 152.556 237.755 153.385 236.874 153.525 L 236.857 153.528 Z" fill="#000000" stroke="none"/>
  <path d="M 231.154 154.118 L 231.072 154.122 C 230.195 154.165 229.45 153.489 229.407 152.612 C 229.364 151.74 230.036 150.998 230.906 150.947 L 230.982 150.943 C 231.859 150.891 232.612 151.559 232.664 152.436 C 232.716 153.312 232.048 154.065 231.172 154.117 L 231.154 154.118 Z" fill="#000000" stroke="none"/>
  <path d="M 225.312 153.917 L 225.228 153.905 C 224.389 153.789 223.804 153.016 223.92 152.177 C 224.034 151.354 224.781 150.773 225.602 150.862 L 225.613 150.863 L 225.686 150.871 C 226.529 150.962 227.139 151.719 227.048 152.561 C 226.957 153.403 226.201 154.013 225.358 153.922 C 225.346 153.921 225.325 153.918 225.312 153.917 Z" fill="#000000" stroke="none"/>
  <path d="M 219.661 152.557 L 219.583 152.532 C 218.821 152.297 218.394 151.488 218.63 150.726 C 218.86 149.98 219.646 149.557 220.393 149.76 L 220.468 149.78 C 221.239 149.99 221.693 150.785 221.483 151.556 C 221.273 152.326 220.478 152.78 219.708 152.57 C 219.695 152.566 219.674 152.561 219.661 152.557 Z" fill="#000000" stroke="none"/>
  <path d="M 214.292 150.542 L 214.218 150.508 C 213.551 150.206 213.255 149.421 213.556 148.754 C 213.848 148.11 214.597 147.815 215.247 148.066 L 215.319 148.094 C 216.003 148.358 216.343 149.128 216.077 149.812 C 215.813 150.495 215.044 150.835 214.36 150.57 C 214.338 150.562 214.313 150.551 214.292 150.542 Z" fill="#000000" stroke="none"/>
  <path d="M 209.223 147.838 L 209.154 147.794 C 208.606 147.45 208.441 146.728 208.785 146.18 C 209.117 145.65 209.808 145.482 210.348 145.779 L 210.415 145.816 C 210.983 146.131 211.188 146.845 210.875 147.412 C 210.561 147.98 209.847 148.185 209.28 147.871 C 209.262 147.861 209.241 147.849 209.223 147.838 Z" fill="#000000" stroke="none"/>
  <path d="M 204.63 144.39 L 204.569 144.335 C 204.168 143.977 204.133 143.36 204.492 142.959 C 204.832 142.577 205.413 142.531 205.814 142.836 L 205.875 142.883 C 206.305 143.211 206.387 143.824 206.059 144.254 C 205.731 144.683 205.118 144.766 204.688 144.438 C 204.669 144.423 204.648 144.405 204.63 144.39 Z" fill="#000000" stroke="none"/>
  <path d="M 200.714 140.211 L 200.664 140.147 C 200.415 139.82 200.476 139.354 200.802 139.105 C 201.108 138.87 201.542 138.915 201.8 139.189 L 201.853 139.246 C 202.135 139.548 202.119 140.021 201.818 140.303 C 201.516 140.584 201.043 140.568 200.762 140.267 C 200.745 140.249 200.729 140.231 200.714 140.211 Z" fill="#000000" stroke="none"/>
  <path d="M 197.7 135.382 L 197.664 135.309 C 197.554 135.08 197.65 134.805 197.879 134.694 C 198.091 134.592 198.345 134.669 198.468 134.863 L 198.51 134.93 C 198.648 135.147 198.585 135.434 198.369 135.572 C 198.152 135.71 197.865 135.647 197.726 135.431 C 197.717 135.415 197.707 135.398 197.7 135.382 Z" fill="#000000" stroke="none"/>
  <path d="M 195.829 130.061 L 195.813 129.981 C 195.801 129.925 195.837 129.87 195.893 129.858 C 195.944 129.848 195.994 129.877 196.012 129.925 L 196.039 130 C 196.06 130.057 196.031 130.119 195.974 130.141 C 195.917 130.161 195.855 130.132 195.834 130.075 C 195.832 130.07 195.83 130.065 195.829 130.061 Z" fill="#000000" stroke="none"/>
  <path d="M 230.309 140.568 C 228 140.616 225.677 140.102 223.481 139.322 C 221.285 138.526 219.175 137.481 217.198 136.223 C 213.23 133.724 209.749 130.427 207.029 126.556 C 205.696 124.604 204.546 122.514 203.679 120.304 C 202.838 118.086 202.223 115.77 202.004 113.408 C 201.472 108.684 202.505 103.906 204.546 99.797 C 203.364 104.24 202.901 108.799 203.704 113.178 C 204.473 117.546 206.287 121.675 208.834 125.302 C 211.35 128.956 214.565 132.141 218.16 134.811 C 219.97 136.131 221.877 137.336 223.899 138.333 C 225.911 139.356 228.047 140.132 230.309 140.568 Z" fill="#000000" stroke="none"/>
  <path d="M 162.318 146.639 L 162.393 146.634 L 162.399 146.634 C 163.301 146.584 164.072 147.273 164.122 148.175 C 164.172 149.067 163.496 149.832 162.609 149.897 L 162.525 149.903 C 161.624 149.969 160.841 149.291 160.775 148.39 C 160.71 147.489 161.388 146.706 162.288 146.641 C 162.295 146.64 162.312 146.639 162.318 146.639 Z" fill="#000000" stroke="none"/>
  <path d="M 167.488 145.837 L 167.559 145.817 L 167.567 145.815 C 168.413 145.585 169.286 146.083 169.517 146.93 C 169.746 147.768 169.259 148.632 168.429 148.873 L 168.347 148.898 C 167.504 149.143 166.622 148.658 166.377 147.815 C 166.132 146.973 166.617 146.09 167.459 145.845 C 167.465 145.844 167.482 145.839 167.488 145.837 Z" fill="#000000" stroke="none"/>
  <path d="M 172.253 143.909 L 172.316 143.873 L 172.327 143.866 C 173.028 143.457 173.929 143.694 174.337 144.397 C 174.733 145.075 174.52 145.942 173.87 146.368 L 173.798 146.415 C 173.117 146.859 172.205 146.667 171.761 145.986 C 171.316 145.305 171.508 144.393 172.189 143.948 C 172.208 143.936 172.233 143.921 172.253 143.909 Z" fill="#000000" stroke="none"/>
  <path d="M 176.219 140.696 L 176.267 140.643 L 176.277 140.631 C 176.753 140.1 177.569 140.054 178.1 140.529 C 178.604 140.98 178.668 141.739 178.27 142.27 L 178.219 142.338 C 177.789 142.91 176.977 143.024 176.406 142.595 C 175.834 142.165 175.719 141.354 176.149 140.782 C 176.17 140.754 176.196 140.723 176.219 140.696 Z" fill="#000000" stroke="none"/>
  <path d="M 178.986 136.337 L 179.016 136.268 L 179.021 136.257 C 179.246 135.731 179.855 135.489 180.38 135.715 C 180.868 135.925 181.111 136.465 180.962 136.962 L 180.937 137.043 C 180.774 137.594 180.196 137.907 179.645 137.743 C 179.095 137.58 178.781 137.002 178.945 136.451 C 178.956 136.413 178.971 136.373 178.986 136.337 Z" fill="#000000" stroke="none"/>
  <path d="M 180.256 131.222 L 180.263 131.146 L 180.263 131.138 C 180.292 130.762 180.621 130.481 180.997 130.51 C 181.339 130.536 181.603 130.811 181.626 131.144 L 181.632 131.227 C 181.659 131.606 181.372 131.937 180.993 131.963 C 180.613 131.989 180.283 131.703 180.256 131.323 C 180.254 131.291 180.254 131.254 180.256 131.222 Z" fill="#000000" stroke="none"/>
  <path d="M 179.609 125.905 L 179.58 125.829 C 179.536 125.719 179.591 125.594 179.701 125.551 C 179.797 125.513 179.907 125.552 179.961 125.636 L 180.007 125.709 C 180.073 125.813 180.042 125.951 179.937 126.017 C 179.833 126.082 179.695 126.052 179.629 125.947 C 179.621 125.935 179.614 125.919 179.609 125.905 Z" fill="#000000" stroke="none"/>
</svg>