<?xml version="1.0" encoding="UTF-8"?>
<svg xmlns="http://www.w3.org/2000/svg" width="312.698" height="65.016" viewBox="187.612 86.707 312.698 65.016">
  <path d="M 248.746 116.649 C 280.535 126.158 289.833 97.83 326.471 124.917 C 282.786 104.388 273.306 138.033 248.746 116.649 Z M 276.289 112.942 C 250.772 121.365 246.636 113.512 239.223 106.384 C 242.36 123.777 258.778 134.101 276.148 127.636 C 296.834 119.938 308.964 124.407 308.964 124.407 L 299.489 129.122 C 299.489 129.122 317.347 126.628 340.443 132.046 C 340.443 132.046 311.645 101.272 276.289 112.942 Z" fill="#000000" stroke="none"/>
  <path d="M 262.582 112.087 C 262.582 112.087 250.322 114.083 244.334 106.384 C 238.346 98.686 244.049 88.707 253.458 90.417 C 262.867 92.128 259.731 104.103 250.036 101.272 C 246.472 108.546 262.582 112.087 262.582 112.087 Z" fill="#000000" stroke="none"/>
  <path d="M 297.053 126.058 L 297.015 126.059 C 297.013 126.059 297.012 126.058 297.012 126.056 C 297.012 126.054 297.013 126.052 297.015 126.052 L 297.015 126.052 L 297.053 126.058 Z" fill="#000000" stroke="none"/>
  <path d="M 293.159 127.307 L 293.088 127.338 C 292.935 127.404 292.758 127.335 292.692 127.182 C 292.625 127.03 292.695 126.853 292.847 126.786 C 292.859 126.781 292.872 126.776 292.884 126.773 L 292.96 126.751 C 293.117 126.706 293.281 126.797 293.326 126.954 C 293.367 127.098 293.293 127.248 293.159 127.307 Z" fill="#000000" stroke="none"/>
  <path d="M 289.355 129.005 L 289.284 129.038 C 289.014 129.16 288.697 129.041 288.574 128.771 C 288.452 128.501 288.572 128.183 288.841 128.061 C 288.859 128.053 288.878 128.046 288.896 128.04 L 288.97 128.016 C 289.249 127.924 289.55 128.077 289.641 128.356 C 289.726 128.615 289.598 128.895 289.355 129.005 Z" fill="#000000" stroke="none"/>
  <path d="M 285.518 130.677 L 285.444 130.708 C 285.072 130.863 284.647 130.689 284.491 130.318 C 284.337 129.947 284.511 129.521 284.882 129.366 C 284.901 129.359 284.921 129.351 284.939 129.345 L 285.015 129.32 C 285.396 129.197 285.804 129.405 285.927 129.786 C 286.045 130.146 285.861 130.532 285.518 130.677 Z" fill="#000000" stroke="none"/>
  <path d="M 281.61 132.225 L 281.532 132.253 C 281.072 132.421 280.562 132.183 280.394 131.722 C 280.227 131.261 280.465 130.752 280.926 130.584 C 280.941 130.578 280.96 130.572 280.976 130.567 L 281.053 130.544 C 281.522 130.404 282.015 130.67 282.155 131.139 C 282.29 131.589 282.046 132.065 281.61 132.225 Z" fill="#000000" stroke="none"/>
  <path d="M 277.608 133.575 L 277.532 133.599 C 276.998 133.764 276.431 133.465 276.266 132.932 C 276.101 132.398 276.4 131.832 276.933 131.667 C 276.952 131.661 276.974 131.655 276.993 131.65 L 277.069 131.631 C 277.61 131.499 278.156 131.83 278.29 132.371 C 278.417 132.891 278.112 133.417 277.608 133.575 Z" fill="#000000" stroke="none"/>
  <path d="M 273.515 134.676 L 273.435 134.694 C 272.84 134.831 272.246 134.458 272.111 133.863 C 271.974 133.267 272.347 132.674 272.943 132.538 C 272.954 132.535 272.971 132.532 272.983 132.53 L 273.06 132.515 C 273.659 132.4 274.238 132.792 274.354 133.391 C 274.467 133.976 274.091 134.543 273.515 134.676 Z" fill="#000000" stroke="none"/>
  <path d="M 269.325 135.469 L 269.242 135.481 C 268.597 135.576 267.998 135.129 267.904 134.484 C 267.809 133.839 268.255 133.239 268.9 133.145 C 268.913 133.143 268.931 133.141 268.943 133.139 L 269.022 133.13 C 269.669 133.058 270.253 133.523 270.326 134.171 C 270.397 134.802 269.949 135.375 269.325 135.469 Z" fill="#000000" stroke="none"/>
  <path d="M 265.052 135.863 L 264.968 135.866 C 264.294 135.891 263.727 135.365 263.702 134.691 C 263.677 134.016 264.204 133.449 264.878 133.424 C 264.881 133.424 264.892 133.424 264.895 133.424 L 264.973 133.422 C 265.648 133.403 266.209 133.935 266.228 134.609 C 266.246 135.278 265.719 135.837 265.052 135.863 Z" fill="#000000" stroke="none"/>
  <path d="M 260.735 135.783 L 260.65 135.776 C 259.964 135.722 259.452 135.121 259.507 134.435 C 259.562 133.749 260.162 133.236 260.848 133.291 C 260.851 133.292 260.863 133.293 260.866 133.293 L 260.944 133.3 C 261.63 133.361 262.135 133.966 262.075 134.651 C 262.014 135.332 261.414 135.835 260.735 135.783 Z" fill="#000000" stroke="none"/>
  <path d="M 256.444 135.133 L 256.361 135.113 C 255.69 134.958 255.272 134.288 255.427 133.617 C 255.582 132.951 256.248 132.535 256.914 132.681 L 256.99 132.698 C 257.664 132.844 258.092 133.508 257.946 134.182 C 257.8 134.855 257.135 135.283 256.462 135.137 C 256.459 135.136 256.447 135.133 256.444 135.133 Z" fill="#000000" stroke="none"/>
  <path d="M 252.276 133.824 L 252.197 133.792 C 251.572 133.537 251.271 132.824 251.526 132.198 C 251.778 131.578 252.488 131.279 253.11 131.524 L 253.182 131.552 C 253.811 131.797 254.122 132.506 253.877 133.136 C 253.631 133.765 252.922 134.076 252.293 133.831 C 252.29 133.83 252.279 133.825 252.276 133.824 Z" fill="#000000" stroke="none"/>
  <path d="M 340.443 129.194 C 319.262 108.254 302.254 103.104 278.285 108.95 C 257.084 114.121 266.607 103.533 282.786 102.392 C 311.148 100.393 324.76 109.806 340.443 129.194 Z" fill="#000000" stroke="none"/>
  <path d="M 340.443 134.663 C 318.773 132.046 299.121 130.201 271.357 140.585 C 246.922 149.723 200.376 147.514 194.174 119.215 C 189.612 98.401 212.992 98.401 212.422 110.091 C 212.129 116.098 204.596 117.789 201.587 115.661 C 201.302 137.177 243.13 146.154 268.306 138.318 C 311.36 124.917 340.443 134.663 340.443 134.663 Z" fill="#000000" stroke="none"/>
  <path d="M 357.265 124.917 C 393.903 97.83 403.201 126.158 434.99 116.649 C 410.429 138.033 400.949 104.388 357.265 124.917 Z M 343.294 132.046 C 366.389 126.628 384.247 129.122 384.247 129.122 L 374.772 124.407 C 374.772 124.407 386.902 119.938 407.588 127.636 C 424.959 134.101 441.377 123.777 444.512 106.384 C 437.099 113.512 432.964 121.365 407.447 112.942 C 372.091 101.272 343.294 132.046 343.294 132.046 Z" fill="#000000" stroke="none"/>
  <path d="M 421.154 112.087 C 421.154 112.087 433.414 114.083 439.402 106.384 C 445.389 98.686 439.687 88.707 430.278 90.417 C 420.869 92.128 424.005 104.103 433.699 101.272 C 437.264 108.546 421.154 112.087 421.154 112.087 Z" fill="#000000" stroke="none"/>
  <path d="M 386.683 126.058 L 386.72 126.052 C 386.722 126.052 386.724 126.053 386.724 126.055 C 386.724 126.057 386.723 126.059 386.721 126.059 L 386.721 126.059 L 386.683 126.058 Z" fill="#000000" stroke="none"/>
  <path d="M 390.776 126.751 L 390.852 126.773 C 391.011 126.818 391.104 126.985 391.058 127.145 C 391.012 127.304 390.846 127.397 390.686 127.351 C 390.674 127.348 390.66 127.342 390.649 127.338 L 390.577 127.307 C 390.427 127.242 390.358 127.067 390.423 126.918 C 390.483 126.78 390.635 126.711 390.776 126.751 Z" fill="#000000" stroke="none"/>
  <path d="M 394.766 128.016 L 394.84 128.04 C 395.122 128.132 395.275 128.435 395.183 128.716 C 395.091 128.998 394.788 129.151 394.507 129.059 C 394.488 129.053 394.47 129.046 394.452 129.038 L 394.381 129.005 C 394.113 128.884 393.995 128.569 394.116 128.302 C 394.229 128.053 394.512 127.934 394.766 128.016 Z" fill="#000000" stroke="none"/>
  <path d="M 398.72 129.32 L 398.797 129.345 C 399.179 129.468 399.389 129.879 399.265 130.261 C 399.142 130.643 398.732 130.853 398.35 130.73 C 398.331 130.723 398.311 130.716 398.293 130.708 L 398.218 130.677 C 397.849 130.523 397.675 130.099 397.829 129.73 C 397.975 129.38 398.366 129.207 398.72 129.32 Z" fill="#000000" stroke="none"/>
  <path d="M 402.683 130.544 L 402.76 130.567 C 403.231 130.707 403.498 131.201 403.358 131.671 C 403.218 132.142 402.724 132.409 402.254 132.27 C 402.238 132.265 402.219 132.258 402.204 132.253 L 402.126 132.225 C 401.667 132.058 401.429 131.549 401.597 131.09 C 401.758 130.648 402.238 130.413 402.683 130.544 Z" fill="#000000" stroke="none"/>
  <path d="M 406.667 131.631 L 406.743 131.65 C 407.285 131.782 407.618 132.329 407.486 132.872 C 407.354 133.415 406.807 133.748 406.264 133.615 C 406.245 133.611 406.223 133.605 406.204 133.599 L 406.128 133.575 C 405.595 133.41 405.298 132.845 405.463 132.313 C 405.621 131.801 406.154 131.507 406.667 131.631 Z" fill="#000000" stroke="none"/>
  <path d="M 410.676 132.515 L 410.754 132.53 C 411.354 132.644 411.748 133.222 411.634 133.823 C 411.52 134.423 410.941 134.817 410.341 134.703 C 410.329 134.701 410.313 134.697 410.301 134.694 L 410.221 134.676 C 409.626 134.541 409.254 133.948 409.39 133.354 C 409.523 132.773 410.095 132.405 410.676 132.515 Z" fill="#000000" stroke="none"/>
  <path d="M 414.714 133.13 L 414.793 133.139 C 415.441 133.21 415.909 133.793 415.838 134.441 C 415.767 135.089 415.185 135.557 414.536 135.486 C 414.524 135.485 414.506 135.483 414.493 135.481 L 414.411 135.469 C 413.767 135.375 413.321 134.776 413.415 134.131 C 413.508 133.502 414.087 133.063 414.714 133.13 Z" fill="#000000" stroke="none"/>
  <path d="M 418.762 133.422 L 418.842 133.424 C 419.516 133.44 420.05 133.999 420.034 134.674 C 420.018 135.348 419.459 135.882 418.784 135.867 C 418.781 135.866 418.77 135.866 418.768 135.866 L 418.684 135.863 C 418.009 135.838 417.484 135.271 417.509 134.597 C 417.533 133.928 418.095 133.405 418.762 133.422 Z" fill="#000000" stroke="none"/>
  <path d="M 422.792 133.3 L 422.87 133.293 C 423.555 133.229 424.163 133.732 424.228 134.418 C 424.292 135.103 423.788 135.711 423.103 135.775 C 423.1 135.775 423.089 135.776 423.086 135.776 L 423.002 135.783 C 422.316 135.838 421.715 135.326 421.66 134.64 C 421.606 133.96 422.114 133.362 422.792 133.3 Z" fill="#000000" stroke="none"/>
  <path d="M 426.746 132.698 L 426.822 132.681 C 427.494 132.531 428.161 132.955 428.311 133.627 C 428.46 134.295 428.039 134.957 427.375 135.113 L 427.292 135.133 C 426.621 135.289 425.95 134.87 425.795 134.199 C 425.639 133.527 426.057 132.857 426.728 132.702 C 426.731 132.701 426.743 132.698 426.746 132.698 Z" fill="#000000" stroke="none"/>
  <path d="M 430.554 131.552 L 430.627 131.524 C 431.254 131.274 431.965 131.58 432.214 132.208 C 432.462 132.83 432.157 133.537 431.539 133.792 L 431.46 133.824 C 430.834 134.079 430.121 133.778 429.866 133.152 C 429.611 132.527 429.912 131.813 430.537 131.559 C 430.54 131.558 430.551 131.553 430.554 131.552 Z" fill="#000000" stroke="none"/>
  <path d="M 434.127 129.815 L 434.195 129.776 L 434.2 129.773 C 434.764 129.443 435.488 129.633 435.817 130.198 C 436.139 130.749 435.963 131.454 435.428 131.793 L 435.356 131.838 C 434.803 132.189 434.072 132.024 433.722 131.471 C 433.372 130.919 433.537 130.188 434.09 129.838 C 434.1 129.831 434.116 129.821 434.127 129.815 Z" fill="#000000" stroke="none"/>
  <path d="M 437.4 127.535 L 437.46 127.485 L 437.464 127.482 C 437.936 127.092 438.634 127.159 439.023 127.631 C 439.403 128.092 439.347 128.77 438.904 129.164 L 438.841 129.221 C 438.383 129.628 437.682 129.586 437.275 129.128 C 436.868 128.67 436.91 127.969 437.368 127.562 C 437.377 127.554 437.391 127.543 437.4 127.535 Z" fill="#000000" stroke="none"/>
  <path d="M 440.309 124.769 L 440.363 124.711 C 440.739 124.296 441.38 124.266 441.794 124.643 C 442.192 125.005 442.23 125.618 441.897 126.032 L 441.843 126.097 C 441.49 126.532 440.85 126.598 440.416 126.243 C 439.98 125.889 439.915 125.25 440.269 124.815 C 440.282 124.8 440.297 124.783 440.309 124.769 Z" fill="#000000" stroke="none"/>
  <path d="M 442.841 121.61 L 442.885 121.545 C 443.165 121.141 443.717 121.04 444.122 121.318 C 444.51 121.587 444.616 122.114 444.376 122.513 L 444.332 122.585 C 444.075 123.005 443.526 123.137 443.106 122.881 C 442.686 122.624 442.554 122.075 442.81 121.655 C 442.819 121.641 442.831 121.624 442.841 121.61 Z" fill="#000000" stroke="none"/>
  <path d="M 444.993 118.146 L 445.031 118.075 C 445.221 117.721 445.662 117.588 446.016 117.779 C 446.351 117.959 446.486 118.37 446.338 118.713 L 446.303 118.789 C 446.141 119.158 445.71 119.326 445.341 119.164 C 444.971 119.001 444.803 118.569 444.967 118.2 C 444.974 118.182 444.983 118.163 444.993 118.146 Z" fill="#000000" stroke="none"/>
  <path d="M 446.759 114.435 L 446.79 114.36 C 446.902 114.087 447.214 113.955 447.487 114.067 C 447.742 114.171 447.872 114.454 447.799 114.713 L 447.774 114.793 C 447.69 115.078 447.391 115.242 447.105 115.158 C 446.82 115.073 446.656 114.774 446.741 114.488 C 446.746 114.47 446.753 114.452 446.759 114.435 Z" fill="#000000" stroke="none"/>
  <path d="M 448.111 110.535 L 448.133 110.457 C 448.176 110.298 448.339 110.205 448.498 110.248 C 448.643 110.288 448.734 110.431 448.714 110.577 L 448.702 110.66 C 448.677 110.825 448.524 110.94 448.359 110.916 C 448.193 110.892 448.079 110.738 448.102 110.573 C 448.104 110.561 448.107 110.546 448.111 110.535 Z" fill="#000000" stroke="none"/>
  <path d="M 448.792 106.422 L 448.79 106.384 L 448.798 106.421 C 448.799 106.423 448.798 106.425 448.796 106.425 C 448.794 106.426 448.792 106.425 448.792 106.423 L 448.792 106.422 Z" fill="#000000" stroke="none"/>
  <path d="M 343.294 129.194 C 364.473 108.254 381.482 103.104 405.451 108.95 C 426.652 114.121 417.129 103.533 400.949 102.392 C 372.589 100.393 358.975 109.806 343.294 129.194 Z" fill="#000000" stroke="none"/>
  <path d="M 349.096 104.35 C 344.741 105.131 341.868 100.833 341.868 100.833 C 341.868 100.833 338.995 105.131 334.639 104.35 C 338.995 107.866 336.593 112.319 331.319 112.359 C 340.891 116.071 341.868 123.806 341.868 123.806 C 341.868 123.806 342.845 116.071 352.418 112.359 C 347.143 112.319 344.741 107.866 349.096 104.35 Z" fill="#000000" stroke="none"/>
  <path d="M 343.294 134.663 C 364.963 132.046 384.615 130.201 412.38 140.585 C 436.814 149.723 483.36 147.514 489.562 119.215 C 494.125 98.401 470.744 98.401 471.314 110.091 C 471.607 116.098 479.14 117.789 482.149 115.661 C 482.434 137.177 440.606 146.154 415.43 138.318 C 372.376 124.917 343.294 134.663 343.294 134.663 Z" fill="#000000" stroke="none"/>
  <path d="M 465.042 145.395 L 465.121 145.37 C 465.124 145.369 465.127 145.371 465.128 145.374 C 465.129 145.377 465.127 145.38 465.124 145.381 L 465.123 145.381 L 465.042 145.395 Z" fill="#000000" stroke="none"/>
  <path d="M 469.111 144.05 L 469.185 144.024 C 469.331 143.972 469.49 144.048 469.542 144.193 C 469.594 144.338 469.517 144.498 469.373 144.55 C 469.362 144.553 469.35 144.557 469.341 144.559 L 469.263 144.577 C 469.115 144.61 468.969 144.517 468.935 144.37 C 468.904 144.233 468.982 144.096 469.111 144.05 Z" fill="#000000" stroke="none"/>
  <path d="M 473.097 142.541 L 473.176 142.509 C 473.429 142.404 473.72 142.526 473.825 142.781 C 473.929 143.036 473.807 143.327 473.553 143.431 C 473.539 143.437 473.523 143.442 473.51 143.446 L 473.428 143.471 C 473.167 143.551 472.89 143.403 472.811 143.143 C 472.736 142.897 472.865 142.636 473.097 142.541 Z" fill="#000000" stroke="none"/>
  <path d="M 476.979 140.814 L 477.054 140.777 C 477.394 140.614 477.802 140.756 477.966 141.096 C 478.129 141.435 477.986 141.843 477.647 142.006 C 477.633 142.014 477.616 142.021 477.601 142.026 L 477.522 142.058 C 477.174 142.195 476.779 142.025 476.641 141.675 C 476.51 141.343 476.663 140.967 476.979 140.814 Z" fill="#000000" stroke="none"/>
  <path d="M 480.712 138.832 L 480.783 138.79 C 481.182 138.555 481.696 138.688 481.93 139.087 C 482.166 139.485 482.033 139.999 481.634 140.234 C 481.617 140.244 481.597 140.255 481.58 140.263 L 481.503 140.301 C 481.09 140.505 480.589 140.336 480.385 139.923 C 480.189 139.528 480.34 139.052 480.712 138.832 Z" fill="#000000" stroke="none"/>
  <path d="M 484.246 136.565 L 484.312 136.517 C 484.742 136.21 485.34 136.309 485.647 136.738 C 485.955 137.168 485.856 137.765 485.427 138.073 C 485.414 138.082 485.397 138.093 485.385 138.101 L 485.312 138.148 C 484.868 138.431 484.278 138.301 483.994 137.857 C 483.719 137.427 483.837 136.859 484.246 136.565 Z" fill="#000000" stroke="none"/>
  <path d="M 487.494 133.956 L 487.555 133.901 C 487.994 133.509 488.668 133.546 489.06 133.984 C 489.454 134.423 489.417 135.097 488.977 135.49 C 488.97 135.497 488.959 135.507 488.951 135.513 L 488.885 135.569 C 488.433 135.947 487.762 135.887 487.385 135.437 C 487.014 134.995 487.068 134.337 487.494 133.956 Z" fill="#000000" stroke="none"/>
  <path d="M 490.381 131.006 L 490.432 130.945 C 490.836 130.465 491.551 130.403 492.03 130.805 C 492.51 131.208 492.572 131.923 492.17 132.403 C 492.163 132.411 492.151 132.424 492.144 132.432 L 492.087 132.497 C 491.668 132.963 490.952 133.001 490.487 132.583 C 490.031 132.173 489.989 131.472 490.381 131.006 Z" fill="#000000" stroke="none"/>
  <path d="M 492.758 127.682 L 492.799 127.614 C 493.135 127.042 493.872 126.851 494.444 127.188 C 495.016 127.525 495.207 128.261 494.87 128.833 C 494.865 128.843 494.855 128.859 494.849 128.868 L 494.802 128.942 C 494.446 129.502 493.705 129.668 493.145 129.312 C 492.596 128.964 492.427 128.245 492.754 127.69 L 492.758 127.682 Z" fill="#000000" stroke="none"/>
  <path d="M 494.533 124.043 L 494.56 123.968 C 494.795 123.333 495.5 123.007 496.135 123.242 C 496.771 123.476 497.096 124.181 496.862 124.817 L 496.856 124.833 L 496.824 124.916 C 496.581 125.548 495.872 125.863 495.24 125.62 C 494.612 125.379 494.297 124.677 494.53 124.048 L 494.533 124.043 Z" fill="#000000" stroke="none"/>
  <path d="M 495.557 120.151 L 495.569 120.073 C 495.672 119.391 496.307 118.921 496.99 119.023 C 497.672 119.126 498.142 119.761 498.04 120.443 L 498.037 120.461 L 498.022 120.549 C 497.911 121.229 497.268 121.69 496.588 121.578 C 495.912 121.467 495.453 120.833 495.556 120.157 L 495.557 120.151 Z" fill="#000000" stroke="none"/>
  <path d="M 495.779 116.14 L 495.775 116.06 L 495.774 116.053 C 495.742 115.365 496.273 114.781 496.961 114.749 C 497.644 114.716 498.225 115.241 498.265 115.922 L 498.27 116.014 C 498.31 116.702 497.785 117.292 497.096 117.331 C 496.409 117.371 495.819 116.846 495.779 116.158 L 495.779 116.14 Z" fill="#000000" stroke="none"/>
  <path d="M 495.176 112.167 L 495.156 112.09 L 495.154 112.085 C 494.982 111.431 495.373 110.761 496.026 110.589 C 496.676 110.418 497.342 110.802 497.519 111.448 L 497.543 111.534 C 497.721 112.187 497.339 112.86 496.686 113.04 C 496.034 113.219 495.36 112.836 495.18 112.183 L 495.176 112.167 Z" fill="#000000" stroke="none"/>
  <path d="M 493.765 108.4 L 493.731 108.331 L 493.728 108.324 C 493.438 107.732 493.684 107.016 494.277 106.726 C 494.857 106.442 495.556 106.674 495.857 107.24 L 495.897 107.317 C 496.207 107.901 495.985 108.624 495.401 108.934 C 494.817 109.243 494.094 109.021 493.784 108.437 C 493.779 108.427 493.77 108.41 493.765 108.4 Z" fill="#000000" stroke="none"/>
  <path d="M 491.63 104.985 L 491.584 104.927 L 491.579 104.921 C 491.194 104.433 491.279 103.724 491.767 103.339 C 492.246 102.963 492.935 103.037 493.326 103.498 L 493.38 103.563 C 493.781 104.039 493.721 104.75 493.245 105.152 C 492.768 105.553 492.057 105.493 491.655 105.017 C 491.648 105.008 491.636 104.994 491.63 104.985 Z" fill="#000000" stroke="none"/>
  <path d="M 488.809 102.117 L 488.749 102.067 L 488.743 102.062 C 488.292 101.692 488.227 101.027 488.597 100.576 C 488.955 100.141 489.59 100.067 490.039 100.396 L 490.109 100.448 C 490.58 100.795 490.68 101.457 490.335 101.927 C 489.988 102.398 489.326 102.499 488.855 102.152 C 488.842 102.142 488.823 102.128 488.809 102.117 Z" fill="#000000" stroke="none"/>
  <path d="M 485.419 99.957 L 485.348 99.924 L 485.342 99.921 C 484.87 99.7 484.667 99.139 484.887 98.667 C 485.1 98.212 485.634 98.007 486.094 98.193 L 486.176 98.226 C 486.66 98.421 486.893 98.972 486.697 99.456 C 486.502 99.94 485.951 100.174 485.468 99.978 C 485.452 99.972 485.433 99.963 485.419 99.957 Z" fill="#000000" stroke="none"/>
  <path d="M 481.579 98.741 L 481.502 98.727 L 481.494 98.726 C 481.049 98.648 480.752 98.224 480.829 97.779 C 480.903 97.356 481.294 97.066 481.715 97.107 L 481.802 97.115 C 482.253 97.16 482.583 97.562 482.538 98.013 C 482.494 98.464 482.092 98.794 481.64 98.749 C 481.621 98.747 481.597 98.744 481.579 98.741 Z" fill="#000000" stroke="none"/>
  <path d="M 477.52 98.612 L 477.442 98.621 L 477.436 98.622 C 477.074 98.663 476.747 98.402 476.706 98.039 C 476.667 97.694 476.904 97.38 477.239 97.316 L 477.324 97.3 C 477.684 97.232 478.032 97.468 478.1 97.829 C 478.169 98.189 477.931 98.537 477.571 98.605 C 477.555 98.608 477.536 98.61 477.52 98.612 Z" fill="#000000" stroke="none"/>
  <path d="M 473.515 99.582 L 473.44 99.611 C 473.198 99.705 472.926 99.586 472.831 99.344 C 472.743 99.117 472.847 98.86 473.06 98.753 L 473.136 98.714 C 473.371 98.598 473.656 98.694 473.771 98.929 C 473.887 99.163 473.792 99.447 473.557 99.564 C 473.544 99.57 473.529 99.577 473.515 99.582 Z" fill="#000000" stroke="none"/>
  <path d="M 469.773 101.489 L 469.707 101.532 C 469.594 101.605 469.444 101.573 469.371 101.461 C 469.303 101.357 469.327 101.219 469.42 101.141 L 469.482 101.089 C 469.588 101.003 469.744 101.017 469.831 101.123 C 469.918 101.228 469.903 101.384 469.798 101.472 C 469.791 101.478 469.781 101.484 469.773 101.489 Z" fill="#000000" stroke="none"/>
</svg>