<?xml version="1.0" encoding="UTF-8"?>
<svg xmlns="http://www.w3.org/2000/svg" width="90.134" height="103.824" viewBox="0 0 90.134 103.824">
  <path d="M 87.721 101.759 C 85.949 101.864 84.146 101.862 82.369 101.607 C 80.582 101.417 78.82 101.022 77.083 100.536 C 73.623 99.517 70.319 97.981 67.233 96.114 C 64.14 94.248 61.27 92.028 58.636 89.565 C 55.992 87.112 53.618 84.373 51.537 81.439 C 49.479 78.488 47.697 75.36 46.166 72.13 C 44.646 68.892 43.38 65.555 42.289 62.173 C 41.198 58.79 40.355 55.334 39.708 51.839 C 39.095 48.34 38.586 44.8 38.479 41.226 C 38.163 34.043 39.771 26.645 43.357 20.278 C 46.879 13.914 51.988 8.258 58.594 4.77 C 61.889 3.08 65.59 1.88 69.463 2.01 C 71.387 2.002 73.317 2.48 75.118 3.188 C 75.988 3.63 76.885 4.018 77.641 4.636 C 78.024 4.93 78.446 5.179 78.792 5.513 L 79.814 6.525 C 82.482 9.313 83.82 12.921 84.574 16.431 C 84.894 18.211 85.154 19.992 85.193 21.782 C 85.355 23.562 85.193 25.347 85.154 27.114 C 85.152 27.197 85.084 27.262 85.001 27.26 C 84.924 27.259 84.862 27.199 84.855 27.125 L 84.855 27.114 C 84.541 23.598 84.077 20.117 83.103 16.805 C 82.127 13.515 80.534 10.39 78.142 8.194 L 77.235 7.395 C 76.932 7.132 76.566 6.958 76.238 6.732 C 75.596 6.252 74.831 6.005 74.118 5.671 C 72.622 5.172 71.053 4.831 69.439 4.919 C 67.835 4.906 66.226 5.256 64.646 5.664 C 63.083 6.177 61.54 6.786 60.083 7.602 C 57.133 9.163 54.456 11.267 52.046 13.638 C 49.638 16.018 47.542 18.734 45.813 21.67 C 42.318 27.537 40.394 34.3 40.122 41.215 C 39.909 48.184 40.887 55.248 43.211 61.865 C 44.381 65.169 45.894 68.341 47.646 71.355 C 49.387 74.377 51.369 77.244 53.536 79.944 C 57.819 85.372 62.759 90.291 68.484 94.154 C 74.187 97.998 80.684 100.859 87.721 101.46 C 87.804 101.464 87.867 101.536 87.862 101.619 C 87.858 101.694 87.794 101.754 87.721 101.759 Z" fill="#000000" stroke="none"/><path d="M 60.216 88.819 C 57.272 86.685 54.717 83.954 52.742 80.807 C 50.787 77.651 49.433 74.086 48.788 70.386 C 47.446 62.965 48.829 55.197 52.139 48.446 C 53.845 45.088 56.043 41.945 58.818 39.32 C 61.624 36.761 65.042 34.67 68.878 33.922 L 69.589 33.767 C 69.828 33.727 70.074 33.722 70.315 33.7 L 71.768 33.591 C 72.25 33.548 72.737 33.637 73.22 33.657 C 73.702 33.704 74.188 33.706 74.659 33.811 C 76.547 34.208 78.381 34.818 80.001 35.786 C 83.269 37.684 85.843 40.431 87.871 43.434 C 85.329 40.846 82.541 38.499 79.338 37.101 C 76.176 35.656 72.637 35.28 69.399 36.205 C 66.163 37.1 63.209 38.952 60.783 41.372 C 58.348 43.788 56.35 46.672 54.822 49.785 C 53.249 52.879 52.151 56.22 51.509 59.641 C 50.83 63.06 50.717 66.582 51.095 70.049 C 51.505 73.512 52.459 76.931 54.024 80.098 C 55.557 83.287 57.706 86.185 60.216 88.819 Z" fill="#000000" stroke="none"/><path d="M 35.16 43.885 C 33.897 40.051 32.154 36.537 30 33.326 C 28.896 31.741 27.751 30.195 26.44 28.803 C 25.155 27.394 23.776 26.077 22.26 24.964 C 19.276 22.712 15.813 21.052 12.172 21.007 C 8.511 20.89 4.964 22.81 2 25.534 C 2.997 23.775 4.367 22.191 6.07 20.936 C 6.486 20.609 6.967 20.377 7.42 20.091 C 7.888 19.834 8.389 19.634 8.88 19.404 C 9.896 19.036 10.963 18.776 12.051 18.67 C 14.234 18.421 16.439 18.817 18.477 19.506 C 20.518 20.22 22.386 21.302 24.072 22.574 C 27.418 25.162 30.094 28.468 32.004 32.133 C 33.916 35.783 35.125 39.833 35.16 43.885 Z" fill="#000000" stroke="none"/><path d="M 34.388 33.459 C 33.8 29.465 32.685 25.704 31.113 22.172 C 30.297 20.421 29.434 18.702 28.38 17.106 C 27.356 15.497 26.223 13.963 24.92 12.606 C 22.367 9.878 19.238 7.649 15.659 6.98 C 12.073 6.238 8.249 7.522 4.863 9.698 C 6.145 8.135 7.766 6.81 9.66 5.866 C 10.126 5.614 10.639 5.467 11.134 5.264 C 11.64 5.09 12.167 4.98 12.69 4.838 C 13.754 4.648 14.851 4.575 15.941 4.656 C 18.134 4.785 20.238 5.554 22.128 6.581 C 24.016 7.634 25.671 9.021 27.114 10.563 C 29.968 13.686 32.038 17.402 33.292 21.339 C 34.55 25.262 35.048 29.46 34.388 33.459 Z" fill="#000000" stroke="none"/><path d="M 52.045 64.464 C 52.114 60.411 53.358 56.372 55.302 52.739 C 57.242 49.09 59.946 45.807 63.315 43.248 C 65.012 41.99 66.889 40.923 68.936 40.226 C 70.979 39.556 73.188 39.177 75.368 39.445 C 76.455 39.56 77.52 39.83 78.533 40.207 C 79.022 40.441 79.521 40.645 79.987 40.907 C 80.438 41.196 80.916 41.432 81.33 41.763 C 83.022 43.033 84.379 44.628 85.36 46.395 C 82.419 43.646 78.889 41.696 75.227 41.782 C 71.586 41.797 68.108 43.426 65.106 45.652 C 63.581 46.753 62.19 48.058 60.894 49.456 C 59.571 50.837 58.412 52.373 57.295 53.948 C 55.114 57.14 53.341 60.641 52.045 64.464 Z" fill="#000000" stroke="none"/><path d="M 13.731 27.114 C 13.731 28.646 12.489 29.888 10.957 29.888 C 9.424 29.888 8.182 28.646 8.182 27.114 C 8.182 25.582 9.424 24.339 10.957 24.339 C 12.489 24.339 13.731 25.582 13.731 27.114 Z" fill="#000000" stroke="none"/><path d="M 80.459 21.419 C 80.459 22.951 79.217 24.193 77.685 24.193 C 76.152 24.193 74.91 22.951 74.91 21.419 C 74.91 19.885 76.152 18.643 77.685 18.643 C 79.217 18.643 80.459 19.885 80.459 21.419 Z" fill="#000000" stroke="none"/><path d="M 77.674 13.625 C 77.674 15.158 76.432 16.4 74.899 16.4 C 73.367 16.4 72.125 15.158 72.125 13.625 C 72.125 12.092 73.367 10.85 74.899 10.85 C 76.432 10.85 77.674 12.092 77.674 13.625 Z" fill="#000000" stroke="none"/><path d="M 80.459 49.041 C 80.459 50.573 79.217 51.815 77.685 51.815 C 76.152 51.815 74.91 50.573 74.91 49.041 C 74.91 47.508 76.152 46.266 77.685 46.266 C 79.217 46.266 80.459 47.508 80.459 49.041 Z" fill="#000000" stroke="none"/><path d="M 88.134 96.343 C 88.134 97.876 86.892 99.118 85.36 99.118 C 83.827 99.118 82.585 97.876 82.585 96.343 C 82.585 94.811 83.827 93.569 85.36 93.569 C 86.892 93.569 88.134 94.811 88.134 96.343 Z" fill="#000000" stroke="none"/>
</svg>
