<?xml version="1.0" encoding="UTF-8"?>
<svg xmlns="http://www.w3.org/2000/svg" width="302.972" height="102.019" viewBox="0 0 302.972 102.019">
  <path d="M 151.487 94.168 C 152.376 89.783 153.77 85.513 155.493 81.366 C 157.221 77.22 159.36 73.221 161.957 69.489 C 164.567 65.774 167.661 62.324 171.323 59.473 C 174.961 56.597 179.187 54.401 183.69 53 L 183.694 52.999 L 183.779 52.977 C 184.882 52.702 185.998 53.373 186.272 54.474 C 186.399 54.981 186.324 55.495 186.101 55.925 C 185.408 57.249 184.741 58.607 184.278 60.049 C 183.769 61.474 183.426 62.964 183.187 64.474 C 182.939 65.986 182.844 67.53 182.87 69.075 C 182.894 70.603 183.056 72.209 183.373 73.624 L 183.374 73.629 L 181.357 73.475 C 183.481 69.72 185.492 65.872 188.169 62.452 L 189.128 61.139 C 189.458 60.71 189.82 60.307 190.165 59.889 L 192.269 57.407 C 193.775 55.851 195.237 54.237 196.867 52.802 C 200.055 49.854 203.481 47.15 207.132 44.772 L 209.896 43.026 C 210.842 42.48 211.776 41.916 212.737 41.391 C 214.68 40.332 216.572 39.372 218.75 38.474 L 218.757 38.473 L 218.948 38.416 C 220.244 38.033 221.605 38.772 221.989 40.069 C 222.153 40.625 222.11 41.195 221.906 41.693 L 220.663 44.718 C 220.385 45.748 219.998 46.784 219.787 47.837 C 219.613 48.889 219.35 49.959 219.347 51.025 C 219.225 52.105 219.335 53.163 219.398 54.245 C 219.68 56.371 220.354 58.471 221.481 60.374 C 222.589 62.27 224.15 64.008 225.992 65.259 L 225.997 65.262 L 225.438 65.471 C 227.549 60.764 229.687 56.043 232.532 51.698 C 235.328 47.336 238.667 43.282 242.587 39.805 C 246.474 36.3 251.042 33.456 256.082 31.675 C 261.123 29.907 266.695 29.454 272.029 30.466 C 277.399 31.417 282.349 33.985 286.629 37.208 C 290.868 40.463 294.612 44.554 297.158 49.396 L 298.095 51.218 C 298.372 51.842 298.604 52.487 298.86 53.121 C 299.414 54.376 299.726 55.716 300.091 57.034 C 300.301 57.688 300.353 58.377 300.485 59.048 C 300.583 59.724 300.747 60.393 300.787 61.076 C 300.872 62.44 301.034 63.803 300.946 65.168 C 300.949 67.903 300.43 70.596 299.789 73.224 C 299.378 74.514 299.045 75.832 298.497 77.07 C 298.236 77.693 298.014 78.332 297.722 78.94 L 296.818 80.751 C 296.537 81.364 296.171 81.931 295.826 82.51 C 295.47 83.08 295.149 83.674 294.762 84.224 C 293.967 85.31 293.227 86.435 292.32 87.432 C 290.626 89.521 288.62 91.337 286.512 92.993 C 284.373 94.625 282.03 95.972 279.579 97.082 C 278.969 97.362 278.323 97.569 277.697 97.815 C 277.069 98.059 276.438 98.293 275.779 98.445 L 273.825 98.967 L 271.826 99.293 C 266.473 100.148 260.947 99.105 256.057 96.985 C 254.857 96.401 253.661 95.795 252.509 95.128 L 250.833 94.038 L 249.996 93.492 L 249.211 92.864 L 247.643 91.604 C 247.151 91.145 246.681 90.658 246.2 90.184 L 245.486 89.468 L 244.851 88.672 C 244.44 88.13 243.975 87.632 243.614 87.052 C 242.06 84.807 241.003 82.203 240.489 79.509 C 239.979 76.806 240.068 74.004 240.681 71.344 C 241.974 66.03 245.072 61.286 249.28 57.853 C 251.383 56.133 253.8 54.769 256.417 53.886 C 259.03 53.007 261.876 52.657 264.674 53.025 C 267.474 53.381 270.165 54.469 272.488 56.032 C 274.808 57.639 276.698 59.595 278.964 61.42 C 280.088 62.324 280.265 63.968 279.36 65.091 C 278.455 66.215 276.812 66.391 275.688 65.487 C 275.3 65.174 275.024 64.772 274.868 64.335 L 274.856 64.302 C 274.049 62.017 272.51 60.075 270.61 58.704 C 268.703 57.352 266.538 56.41 264.245 56.054 C 259.652 55.32 254.731 56.935 250.961 59.964 C 247.177 62.97 244.255 67.207 243.126 71.914 C 242.012 76.624 242.947 81.657 245.691 85.641 C 246.006 86.155 246.432 86.598 246.794 87.082 L 247.358 87.794 L 248.007 88.44 C 248.442 88.867 248.864 89.307 249.31 89.726 L 250.749 90.879 L 251.467 91.457 L 252.246 91.963 L 253.802 92.975 C 254.87 93.592 255.975 94.15 257.079 94.692 L 258.797 95.365 L 259.655 95.701 L 260.545 95.935 L 262.323 96.405 C 262.923 96.523 263.532 96.591 264.135 96.687 C 265.338 96.933 266.569 96.867 267.785 96.946 C 268.395 96.932 269.003 96.867 269.611 96.832 L 270.524 96.769 C 270.826 96.729 271.126 96.665 271.427 96.615 L 273.229 96.295 L 274.991 95.793 C 275.586 95.649 276.156 95.427 276.723 95.194 C 277.288 94.961 277.87 94.768 278.422 94.504 C 279.512 93.942 280.623 93.426 281.636 92.726 C 282.695 92.107 283.657 91.34 284.63 90.595 C 286.507 89.019 288.291 87.311 289.776 85.354 C 290.577 84.423 291.216 83.37 291.912 82.364 C 292.252 81.855 292.526 81.304 292.838 80.778 C 293.138 80.246 293.459 79.724 293.698 79.16 C 298.105 70.415 298.277 59.75 293.665 51.251 C 291.417 46.987 288.168 43.228 284.307 40.166 C 280.476 37.118 276.103 34.744 271.359 33.659 C 266.634 32.545 261.602 32.72 256.863 34.129 C 252.124 35.531 247.646 37.979 243.732 41.161 C 239.794 44.32 236.374 48.146 233.437 52.307 C 230.489 56.463 227.986 60.981 226.19 65.774 C 226.113 65.979 225.885 66.084 225.68 66.007 L 225.639 65.989 L 225.631 65.985 L 225.625 65.981 C 223.415 64.92 221.526 63.356 219.968 61.439 C 218.409 59.529 217.26 57.25 216.564 54.819 C 216.295 53.595 215.99 52.352 215.937 51.093 C 215.763 49.826 215.863 48.58 215.891 47.312 C 215.956 46.054 216.202 44.833 216.36 43.577 L 217.252 39.944 L 220.401 43.164 L 220.397 43.167 C 218.604 43.766 216.635 44.585 214.79 45.44 C 213.855 45.871 212.938 46.344 212.012 46.797 L 209.29 48.28 C 205.695 50.329 202.284 52.709 199.078 55.338 C 197.437 56.615 195.96 58.071 194.425 59.474 L 192.274 61.728 C 191.92 62.108 191.548 62.474 191.208 62.867 L 190.217 64.069 C 187.472 67.204 185.207 70.739 183.312 74.449 L 183.306 74.461 C 183.031 74.997 182.374 75.21 181.838 74.935 C 181.569 74.798 181.381 74.561 181.295 74.296 L 181.293 74.288 C 180.722 72.585 180.408 70.968 180.198 69.266 C 179.996 67.58 179.928 65.87 180.028 64.16 C 180.122 62.451 180.337 60.733 180.747 59.052 C 181.111 57.355 181.706 55.717 182.359 54.096 L 184.765 57.022 L 184.762 57.023 C 180.68 57.977 176.735 59.652 173.195 62.052 C 169.638 64.422 166.479 67.446 163.72 70.819 C 160.972 74.208 158.601 77.941 156.609 81.882 C 154.622 85.821 152.93 89.949 151.732 94.22 L 151.731 94.226 C 151.712 94.294 151.643 94.333 151.576 94.313 C 151.513 94.296 151.475 94.231 151.487 94.168 Z" fill="#000000" stroke="none"/><path d="M 149.358 87.607 C 149.502 83.377 150.185 79.153 151.237 75.003 C 152.298 70.853 153.796 66.771 155.852 62.905 C 156.865 60.965 158.044 59.094 159.364 57.307 C 160.673 55.512 162.15 53.814 163.784 52.257 C 167.014 49.09 170.929 46.56 175.147 44.701 C 176.821 43.964 178.775 44.722 179.514 46.396 C 180.251 48.07 179.492 50.024 177.818 50.762 C 177.692 50.817 177.564 50.865 177.436 50.903 L 177.393 50.916 C 173.712 51.999 170.148 53.657 166.999 56.028 C 165.407 57.188 163.91 58.507 162.529 59.961 C 161.137 61.403 159.837 62.965 158.667 64.634 C 156.298 67.956 154.355 71.643 152.808 75.515 C 151.267 79.389 150.049 83.438 149.358 87.607 Z" fill="#000000" stroke="none"/><path d="M 148.94 70.144 C 148.981 67.228 149.544 64.327 150.419 61.534 C 151.3 58.739 152.499 56.04 153.97 53.475 C 155.446 50.915 157.186 48.477 159.301 46.286 C 161.434 44.13 163.9 42.086 167.314 41.041 C 168.519 40.673 169.794 41.35 170.162 42.554 C 170.53 43.759 169.853 45.034 168.648 45.402 C 168.564 45.428 168.48 45.448 168.396 45.464 L 168.309 45.479 C 166.153 45.865 163.806 47.235 161.77 48.934 C 159.71 50.647 157.857 52.709 156.229 54.939 C 154.604 57.175 153.195 59.594 152.073 62.149 C 150.957 64.704 150.119 67.406 149.776 70.199 C 149.75 70.429 149.542 70.594 149.312 70.567 C 149.098 70.542 148.94 70.355 148.94 70.144 Z" fill="#000000" stroke="none"/><path d="M 241.941 89.402 C 239.131 86.634 235.767 84.414 232.278 82.614 C 228.773 80.838 225.04 79.514 221.258 79.014 C 217.484 78.507 213.68 78.904 210.384 80.389 C 208.733 81.123 207.211 82.104 205.83 83.27 C 204.467 84.465 203.255 85.84 202.149 87.306 L 202.113 87.353 C 201.267 88.476 199.67 88.7 198.547 87.853 C 197.425 87.007 197.201 85.41 198.048 84.288 C 198.091 84.23 198.14 84.171 198.187 84.118 C 199.647 82.494 201.246 80.975 203.037 79.674 C 204.848 78.396 206.837 77.351 208.934 76.637 C 213.142 75.178 217.666 75.168 221.781 76.1 C 225.921 77.029 229.732 78.796 233.215 80.962 C 234.957 82.05 236.618 83.253 238.188 84.559 C 239.756 85.868 241.25 87.265 242.565 88.845 C 242.714 89.022 242.689 89.287 242.512 89.434 C 242.346 89.573 242.103 89.56 241.951 89.412 L 241.941 89.402 Z" fill="#000000" stroke="none"/><path d="M 239.35 88.863 C 236.606 88.164 233.824 87.63 231.051 87.42 C 228.287 87.199 225.504 87.324 222.977 88.072 C 220.446 88.797 218.239 90.183 216.671 92.121 C 216.234 92.559 215.924 93.119 215.592 93.648 C 215.428 93.916 215.252 94.171 215.098 94.443 L 214.712 95.318 C 214.129 96.439 213.872 97.723 213.165 98.849 L 212.994 99.123 C 212.434 100.017 211.254 100.288 210.36 99.727 C 209.661 99.289 209.345 98.469 209.507 97.706 C 209.83 96.205 210.391 94.765 211.272 93.455 L 211.876 92.457 C 212.107 92.139 212.367 91.836 212.611 91.527 C 213.107 90.913 213.579 90.289 214.2 89.779 C 216.481 87.571 219.48 86.194 222.466 85.747 C 225.466 85.287 228.425 85.579 231.235 86.181 C 234.051 86.806 236.739 87.77 239.35 88.863 Z" fill="#000000" stroke="none"/><path d="M 227.414 50.963 C 229.934 47.348 232.329 43.658 234.4 39.826 C 236.462 36 238.239 32.019 239.258 27.946 C 240.285 23.898 240.458 19.704 239.125 16.207 C 237.839 12.691 235.072 10.017 231.7 8.081 C 230.141 7.185 229.603 5.195 230.498 3.636 C 231.394 2.076 233.385 1.537 234.944 2.433 C 235.05 2.494 235.153 2.562 235.25 2.633 C 237.24 4.095 239.116 5.808 240.659 7.853 C 242.204 9.887 243.374 12.261 243.993 14.735 C 244.624 17.211 244.719 19.745 244.448 22.149 C 244.181 24.561 243.559 26.854 242.763 29.033 C 241.154 33.392 238.849 37.311 236.322 41.003 C 233.784 44.691 230.977 48.139 228.073 51.477 C 227.922 51.652 227.657 51.671 227.482 51.518 C 227.319 51.377 227.294 51.136 227.414 50.963 Z" fill="#000000" stroke="none"/><path d="M 229.621 41.2 C 230.791 37.319 231.201 33.193 230.382 29.548 C 229.973 27.737 229.23 26.091 228.19 24.818 C 227.158 23.535 225.826 22.654 224.34 22.091 C 222.732 21.481 221.923 19.685 222.532 18.078 C 223.142 16.471 224.937 15.662 226.545 16.271 C 226.758 16.352 226.958 16.454 227.142 16.574 L 227.289 16.672 C 229.407 18.069 231.226 20.04 232.312 22.286 C 233.418 24.524 233.853 26.915 233.866 29.179 C 233.878 31.453 233.492 33.632 232.879 35.692 C 232.261 37.754 231.41 39.703 230.39 41.53 C 230.276 41.733 230.021 41.805 229.817 41.692 C 229.642 41.595 229.565 41.385 229.621 41.2 Z" fill="#000000" stroke="none"/><path d="M 249.462 67.454 C 250.666 65.697 252.309 64.313 254.101 63.182 C 255.906 62.064 257.91 61.199 260.111 60.788 C 262.291 60.381 264.774 60.48 267.036 61.579 C 269.313 62.656 271.042 64.665 272.159 66.778 C 272.766 67.927 272.327 69.348 271.18 69.956 C 270.032 70.562 268.609 70.124 268.002 68.976 C 267.949 68.876 267.904 68.772 267.866 68.669 L 267.856 68.637 C 267.311 67.083 266.483 65.723 265.208 64.824 C 263.946 63.913 262.226 63.488 260.412 63.534 C 258.596 63.575 256.71 64.032 254.936 64.777 C 253.168 65.53 251.461 66.559 250.127 67.962 L 250.11 67.979 C 249.951 68.147 249.687 68.154 249.519 67.994 C 249.367 67.85 249.348 67.621 249.462 67.454 Z" fill="#000000" stroke="none"/><path d="M 253.134 52.837 C 254.297 51.408 255.833 50.403 257.419 49.575 C 259.018 48.753 260.721 48.153 262.47 47.712 C 265.969 46.846 269.708 46.657 273.404 47.415 C 277.091 48.157 280.708 49.975 283.55 52.708 C 284.964 54.074 286.179 55.631 287.214 57.284 C 288.258 58.941 289.034 60.709 289.739 62.499 C 290.412 64.205 289.574 66.134 287.867 66.806 C 286.161 67.478 284.233 66.64 283.561 64.934 C 283.507 64.798 283.463 64.659 283.428 64.52 L 283.399 64.401 C 283.038 62.92 282.633 61.437 282.017 60.069 C 281.406 58.7 280.662 57.398 279.75 56.22 C 277.916 53.879 275.378 52.064 272.418 51.011 C 269.463 49.949 266.147 49.618 262.874 49.959 C 261.238 50.134 259.6 50.463 258.035 51.008 C 256.481 51.557 254.951 52.287 253.758 53.393 L 253.743 53.408 C 253.574 53.565 253.309 53.555 253.151 53.386 C 253.008 53.23 253.004 52.996 253.134 52.837 Z" fill="#000000" stroke="none"/><path d="M 151.238 94.22 C 150.042 89.949 148.35 85.821 146.362 81.882 C 144.371 77.941 141.999 74.208 139.252 70.819 C 136.492 67.446 133.333 64.422 129.775 62.052 C 126.236 59.652 122.292 57.977 118.21 57.023 L 118.206 57.022 L 120.612 54.096 C 121.265 55.717 121.86 57.355 122.224 59.052 C 122.634 60.733 122.85 62.451 122.943 64.16 C 123.043 65.87 122.975 67.58 122.772 69.266 C 122.563 70.968 122.25 72.585 121.679 74.288 L 121.676 74.296 C 121.493 74.87 120.879 75.186 120.305 75.003 C 120.018 74.912 119.795 74.712 119.667 74.464 L 119.659 74.449 C 117.764 70.739 115.499 67.204 112.755 64.069 L 111.763 62.867 C 111.423 62.474 111.051 62.108 110.696 61.728 L 108.547 59.474 C 107.011 58.071 105.534 56.615 103.894 55.338 C 100.687 52.709 97.276 50.329 93.681 48.28 L 90.96 46.797 C 90.032 46.344 89.115 45.871 88.181 45.44 C 86.336 44.585 84.367 43.766 82.573 43.167 L 82.569 43.164 L 85.719 39.944 L 86.61 43.577 C 86.769 44.833 87.016 46.054 87.08 47.312 C 87.107 48.58 87.208 49.826 87.034 51.093 C 86.98 52.352 86.676 53.595 86.406 54.819 C 85.711 57.25 84.562 59.529 83.003 61.439 C 81.445 63.356 79.557 64.92 77.347 65.981 L 77.34 65.985 L 77.333 65.989 C 77.138 66.089 76.898 66.011 76.799 65.816 L 76.781 65.774 C 74.984 60.981 72.481 56.463 69.534 52.307 C 66.598 48.146 63.177 44.32 59.238 41.161 C 55.325 37.979 50.847 35.531 46.108 34.129 C 41.369 32.72 36.338 32.545 31.612 33.659 C 26.868 34.744 22.495 37.118 18.664 40.166 C 14.803 43.228 11.554 46.987 9.306 51.251 C 4.694 59.75 4.865 70.415 9.273 79.16 C 9.512 79.724 9.833 80.246 10.133 80.778 C 10.445 81.304 10.719 81.855 11.059 82.364 C 11.755 83.37 12.394 84.423 13.195 85.354 C 14.68 87.311 16.464 89.019 18.341 90.595 C 19.314 91.34 20.275 92.107 21.335 92.726 C 22.348 93.426 23.459 93.942 24.549 94.504 C 25.101 94.768 25.683 94.961 26.249 95.194 C 26.815 95.427 27.385 95.649 27.98 95.793 L 29.743 96.295 L 31.544 96.615 C 31.846 96.665 32.145 96.729 32.447 96.769 L 33.359 96.832 C 33.968 96.867 34.577 96.932 35.186 96.946 C 36.402 96.867 37.633 96.933 38.836 96.687 C 39.439 96.591 40.049 96.523 40.648 96.405 L 42.426 95.935 L 43.315 95.701 L 44.174 95.365 L 45.892 94.692 C 46.996 94.15 48.102 93.592 49.169 92.975 L 50.726 91.963 L 51.504 91.457 L 52.223 90.879 L 53.662 89.726 C 54.107 89.307 54.528 88.867 54.965 88.44 L 55.612 87.794 L 56.177 87.082 C 56.54 86.598 56.965 86.155 57.28 85.641 C 60.023 81.657 60.959 76.624 59.846 71.914 C 58.717 67.207 55.794 62.97 52.01 59.964 C 48.239 56.935 43.318 55.32 38.726 56.054 C 36.433 56.41 34.268 57.352 32.36 58.704 C 30.461 60.075 28.923 62.017 28.114 64.302 L 28.106 64.324 C 27.625 65.683 26.133 66.396 24.773 65.915 C 23.414 65.433 22.702 63.941 23.183 62.582 C 23.35 62.111 23.645 61.713 24.007 61.42 C 26.273 59.595 28.164 57.639 30.482 56.032 C 32.806 54.469 35.497 53.381 38.297 53.025 C 41.095 52.657 43.941 53.007 46.555 53.886 C 49.171 54.769 51.589 56.133 53.69 57.853 C 57.898 61.286 60.997 66.03 62.291 71.344 C 62.902 74.004 62.991 76.806 62.482 79.509 C 61.968 82.203 60.912 84.807 59.357 87.052 C 58.997 87.632 58.531 88.13 58.121 88.672 L 57.484 89.468 L 56.771 90.184 C 56.29 90.658 55.82 91.145 55.328 91.604 L 53.76 92.864 L 52.975 93.492 L 52.138 94.038 L 50.463 95.128 C 49.31 95.795 48.114 96.401 46.914 96.985 C 42.023 99.105 36.499 100.148 31.144 99.293 L 29.146 98.967 L 27.192 98.445 C 26.533 98.293 25.901 98.059 25.273 97.815 C 24.647 97.569 24.003 97.362 23.392 97.082 C 20.941 95.972 18.598 94.625 16.46 92.993 C 14.351 91.337 12.345 89.521 10.651 87.432 C 9.745 86.435 9.004 85.31 8.209 84.224 C 7.822 83.674 7.501 83.08 7.145 82.51 C 6.8 81.931 6.435 81.364 6.152 80.751 L 5.249 78.94 C 4.957 78.332 4.734 77.693 4.474 77.07 C 3.926 75.832 3.593 74.514 3.182 73.224 C 2.541 70.596 2.022 67.903 2.025 65.168 C 1.937 63.803 2.1 62.44 2.184 61.076 C 2.224 60.393 2.388 59.724 2.486 59.048 C 2.619 58.377 2.67 57.688 2.88 57.034 C 3.246 55.716 3.557 54.376 4.111 53.121 C 4.367 52.487 4.599 51.842 4.877 51.218 L 5.813 49.396 C 8.359 44.554 12.103 40.463 16.342 37.208 C 20.622 33.985 25.571 31.417 30.941 30.466 C 36.275 29.454 41.848 29.907 46.89 31.675 C 51.93 33.456 56.498 36.3 60.384 39.805 C 64.304 43.282 67.643 47.336 70.438 51.698 C 73.284 56.043 75.422 60.764 77.533 65.471 L 76.974 65.262 L 76.979 65.259 C 78.82 64.008 80.382 62.27 81.49 60.374 C 82.616 58.471 83.291 56.371 83.572 54.245 C 83.636 53.163 83.746 52.105 83.624 51.025 C 83.621 49.959 83.358 48.889 83.184 47.837 C 82.973 46.784 82.587 45.748 82.308 44.718 L 81.065 41.693 C 80.551 40.443 81.148 39.013 82.398 38.5 C 82.935 38.279 83.504 38.263 84.021 38.416 L 84.215 38.473 L 84.221 38.474 C 86.399 39.372 88.291 40.332 90.233 41.391 C 91.194 41.916 92.13 42.48 93.074 43.026 L 95.84 44.772 C 99.489 47.15 102.916 49.854 106.104 52.802 C 107.734 54.237 109.195 55.851 110.702 57.407 L 112.806 59.889 C 113.15 60.307 113.513 60.71 113.843 61.139 L 114.803 62.452 C 117.479 65.872 119.49 69.72 121.613 73.475 L 119.597 73.629 L 119.599 73.624 C 119.916 72.209 120.077 70.603 120.101 69.075 C 120.128 67.53 120.031 65.986 119.785 64.474 C 119.545 62.964 119.202 61.474 118.693 60.049 C 118.229 58.607 117.562 57.249 116.871 55.925 C 116.345 54.918 116.735 53.676 117.741 53.149 C 118.205 52.908 118.718 52.86 119.187 52.976 L 119.276 52.999 L 119.281 53 C 123.783 54.401 128.01 56.597 131.648 59.473 C 135.31 62.324 138.403 65.774 141.014 69.489 C 143.61 73.221 145.75 77.22 147.478 81.366 C 149.201 85.513 150.596 89.783 151.483 94.168 C 151.498 94.236 151.454 94.302 151.386 94.316 C 151.321 94.329 151.258 94.29 151.24 94.227 L 151.238 94.22 Z" fill="#000000" stroke="none"/><path d="M 153.612 87.607 C 152.922 83.438 151.705 79.389 150.164 75.515 C 148.616 71.643 146.673 67.956 144.305 64.634 C 143.134 62.965 141.834 61.403 140.441 59.961 C 139.061 58.507 137.563 57.188 135.973 56.028 C 132.822 53.657 129.259 51.999 125.579 50.916 L 125.554 50.908 C 123.799 50.392 122.795 48.552 123.312 46.797 C 123.827 45.043 125.668 44.039 127.423 44.554 C 127.555 44.594 127.7 44.648 127.823 44.701 C 132.042 46.56 135.958 49.09 139.187 52.257 C 140.821 53.814 142.298 55.512 143.606 57.307 C 144.928 59.094 146.105 60.965 147.119 62.905 C 149.175 66.771 150.673 70.853 151.734 75.003 C 152.786 79.153 153.47 83.377 153.612 87.607 Z" fill="#000000" stroke="none"/><path d="M 153.195 70.199 C 152.852 67.406 152.014 64.704 150.897 62.149 C 149.776 59.594 148.367 57.175 146.741 54.939 C 145.113 52.709 143.261 50.647 141.202 48.934 C 139.165 47.235 136.817 45.865 134.662 45.479 L 134.588 45.466 C 133.349 45.244 132.523 44.059 132.745 42.82 C 132.967 41.58 134.151 40.755 135.392 40.977 C 135.478 40.992 135.574 41.016 135.656 41.041 C 139.07 42.086 141.538 44.13 143.671 46.286 C 145.786 48.477 147.525 50.915 149.002 53.475 C 150.472 56.04 151.671 58.739 152.552 61.534 C 153.427 64.327 153.989 67.228 154.03 70.144 C 154.033 70.376 153.849 70.566 153.617 70.57 C 153.401 70.573 153.222 70.407 153.195 70.199 Z" fill="#000000" stroke="none"/><path d="M 60.405 88.845 C 61.722 87.265 63.215 85.868 64.783 84.559 C 66.354 83.253 68.014 82.05 69.756 80.962 C 73.239 78.796 77.05 77.029 81.19 76.1 C 85.305 75.168 89.83 75.178 94.037 76.637 C 96.135 77.351 98.123 78.396 99.935 79.674 C 101.725 80.975 103.323 82.494 104.784 84.118 C 105.725 85.164 105.639 86.774 104.593 87.714 C 103.547 88.654 101.937 88.568 100.997 87.522 C 100.949 87.47 100.903 87.414 100.86 87.357 L 100.822 87.306 C 99.716 85.84 98.504 84.465 97.141 83.27 C 95.76 82.104 94.237 81.123 92.587 80.389 C 89.292 78.904 85.486 78.507 81.714 79.014 C 77.932 79.514 74.197 80.838 70.693 82.614 C 67.204 84.414 63.84 86.634 61.03 89.402 L 61.021 89.411 C 60.856 89.573 60.591 89.571 60.429 89.407 C 60.277 89.252 60.271 89.009 60.405 88.845 Z" fill="#000000" stroke="none"/><path d="M 63.621 88.863 C 66.232 87.77 68.92 86.806 71.736 86.181 C 74.547 85.579 77.505 85.287 80.505 85.747 C 83.49 86.194 86.49 87.571 88.771 89.779 C 89.393 90.289 89.863 90.913 90.359 91.527 C 90.604 91.836 90.863 92.139 91.095 92.457 L 91.698 93.455 C 92.58 94.765 93.142 96.205 93.464 97.706 C 93.687 98.738 93.029 99.755 91.998 99.976 C 91.191 100.15 90.395 99.787 89.979 99.127 L 89.806 98.849 C 89.1 97.723 88.843 96.439 88.26 95.318 L 87.873 94.443 C 87.719 94.171 87.543 93.916 87.38 93.648 C 87.047 93.119 86.737 92.559 86.3 92.121 C 84.731 90.183 82.524 88.797 79.994 88.072 C 77.468 87.324 74.684 87.199 71.92 87.42 C 69.146 87.63 66.364 88.164 63.621 88.863 Z" fill="#000000" stroke="none"/><path d="M 74.897 51.477 C 71.994 48.139 69.187 44.691 66.648 41.003 C 64.123 37.311 61.816 33.392 60.208 29.033 C 59.412 26.854 58.791 24.561 58.522 22.149 C 58.253 19.745 58.348 17.211 58.978 14.735 C 59.597 12.261 60.768 9.887 62.312 7.853 C 63.854 5.808 65.731 4.095 67.721 2.633 C 69.17 1.568 71.209 1.88 72.273 3.329 C 73.338 4.778 73.026 6.816 71.577 7.882 C 71.479 7.954 71.374 8.021 71.271 8.081 C 67.899 10.017 65.132 12.691 63.846 16.207 C 62.513 19.704 62.686 23.898 63.714 27.946 C 64.731 32.019 66.509 36 68.57 39.826 C 70.643 43.658 73.037 47.348 75.558 50.963 C 75.689 51.152 75.644 51.414 75.454 51.546 C 75.277 51.67 75.036 51.636 74.897 51.477 Z" fill="#000000" stroke="none"/><path d="M 72.581 41.53 C 71.561 39.703 70.71 37.754 70.093 35.692 C 69.479 33.632 69.093 31.453 69.105 29.179 C 69.118 26.915 69.553 24.524 70.66 22.286 C 71.745 20.04 73.564 18.069 75.683 16.672 L 75.815 16.584 C 77.25 15.637 79.18 16.033 80.126 17.468 C 81.072 18.902 80.677 20.832 79.242 21.778 C 79.052 21.904 78.837 22.012 78.632 22.091 C 77.145 22.654 75.813 23.535 74.78 24.818 C 73.74 26.091 72.999 27.737 72.589 29.548 C 71.77 33.193 72.181 37.319 73.351 41.2 C 73.419 41.422 73.295 41.658 73.073 41.726 C 72.881 41.787 72.677 41.698 72.581 41.53 Z" fill="#000000" stroke="none"/><path d="M 52.844 67.962 C 51.51 66.559 49.803 65.53 48.035 64.777 C 46.262 64.032 44.375 63.575 42.56 63.534 C 40.745 63.488 39.024 63.913 37.763 64.824 C 36.488 65.723 35.661 67.083 35.115 68.637 L 35.108 68.656 C 34.679 69.881 33.337 70.525 32.112 70.095 C 30.886 69.666 30.242 68.324 30.672 67.098 C 30.709 66.991 30.761 66.877 30.812 66.778 C 31.929 64.665 33.657 62.656 35.935 61.579 C 38.197 60.48 40.681 60.381 42.859 60.788 C 45.061 61.199 47.065 62.064 48.87 63.182 C 50.662 64.313 52.305 65.697 53.509 67.454 C 53.64 67.644 53.591 67.905 53.4 68.036 C 53.229 68.154 53 68.126 52.86 67.979 L 52.844 67.962 Z" fill="#000000" stroke="none"/><path d="M 49.213 53.393 C 48.02 52.287 46.489 51.557 44.936 51.008 C 43.371 50.463 41.733 50.134 40.098 49.959 C 36.823 49.618 33.508 49.949 30.553 51.011 C 27.593 52.064 25.055 53.879 23.221 56.22 C 22.309 57.398 21.565 58.7 20.955 60.069 C 20.338 61.437 19.933 62.92 19.572 64.401 L 19.547 64.502 C 19.114 66.284 17.318 67.377 15.536 66.943 C 13.754 66.51 12.661 64.714 13.094 62.931 C 13.129 62.789 13.18 62.633 13.231 62.499 C 13.937 60.709 14.713 58.941 15.757 57.284 C 16.792 55.631 18.008 54.074 19.421 52.708 C 22.263 49.975 25.88 48.157 29.567 47.415 C 33.263 46.657 37.002 46.846 40.501 47.712 C 42.251 48.153 43.953 48.753 45.552 49.575 C 47.139 50.403 48.674 51.408 49.837 52.837 C 49.983 53.015 49.956 53.279 49.777 53.426 C 49.613 53.559 49.378 53.548 49.228 53.408 L 49.213 53.393 Z" fill="#000000" stroke="none"/><path d="M 18.296 73.542 C 18.296 75.402 19.804 76.911 21.665 76.911 C 23.526 76.911 25.035 75.402 25.035 73.542 C 25.035 71.68 23.526 70.172 21.665 70.172 C 19.804 70.172 18.296 71.68 18.296 73.542 Z" fill="#000000" stroke="none"/><path d="M 276.04 73.542 C 276.04 75.402 277.549 76.911 279.409 76.911 C 281.271 76.911 282.779 75.402 282.779 73.542 C 282.779 71.68 281.271 70.172 279.409 70.172 C 277.549 70.172 276.04 71.68 276.04 73.542 Z" fill="#000000" stroke="none"/><path d="M 148.521 37.996 C 148.521 39.856 150.03 41.365 151.891 41.365 C 153.752 41.365 155.261 39.856 155.261 37.996 C 155.261 36.135 153.752 34.626 151.891 34.626 C 150.03 34.626 148.521 36.135 148.521 37.996 Z" fill="#000000" stroke="none"/>
</svg>
