<?xml version="1.0" encoding="UTF-8"?>
<svg xmlns="http://www.w3.org/2000/svg" width="249.926" height="136.009" viewBox="0 0 249.926 136.009">
  <path d="M 207.866 71.577 C 207.969 74.081 208.324 76.565 209.063 78.932 C 209.802 81.296 211.01 83.497 212.596 85.355 C 215.77 89.108 220.579 91.197 225.418 91.408 C 230.268 91.632 235.186 90.048 238.891 86.997 C 242.627 83.964 244.964 79.446 245.504 74.676 C 245.801 72.302 245.735 69.839 245.361 67.451 L 245.064 65.662 L 244.58 63.918 L 244.34 63.046 L 244.006 62.207 L 243.338 60.53 C 241.251 56.202 237.982 52.435 233.857 49.91 C 229.791 47.299 225.051 45.793 220.219 45.255 C 215.378 44.676 210.426 45.202 205.713 46.497 C 200.993 47.8 196.5 49.928 192.433 52.689 C 188.359 55.448 184.723 58.839 181.526 62.604 C 175.115 70.143 170.62 79.276 167.677 88.749 C 167.333 89.94 167.061 91.147 166.748 92.346 C 166.448 93.547 166.302 94.773 166.07 95.985 C 165.876 97.202 165.83 98.43 165.699 99.652 C 165.685 100.263 165.7 100.874 165.697 101.484 C 165.705 102.094 165.674 102.71 165.767 103.309 L 165.958 105.12 C 166.043 105.718 166.208 106.297 166.328 106.888 C 166.399 107.18 166.443 107.482 166.536 107.765 L 166.839 108.607 C 167.044 109.167 167.212 109.746 167.52 110.252 C 168.537 112.379 170.146 114.222 172.21 115.22 C 174.254 116.227 176.706 116.377 178.872 115.545 C 181.043 114.725 182.884 113.095 184.198 111.113 C 184.494 110.595 184.85 110.11 185.104 109.565 L 185.834 107.913 C 186.188 106.756 186.592 105.608 186.743 104.391 C 187.01 103.199 187.027 101.965 187.118 100.744 C 187.169 100.133 187.094 99.515 187.089 98.9 C 187.055 98.285 187.077 97.669 186.998 97.055 C 186.523 92.132 185.085 87.314 183.208 82.697 C 181.273 78.034 179.381 73.353 177.549 68.647 C 173.911 59.223 170.42 49.744 167.316 40.096 C 165.791 35.263 164.406 30.371 163.444 25.331 C 162.978 22.81 162.589 20.25 162.539 17.61 C 162.512 16.291 162.558 14.951 162.763 13.585 C 162.989 12.223 163.342 10.81 164.169 9.472 C 164.58 8.812 165.097 8.166 165.761 7.655 C 166.419 7.14 167.186 6.763 167.965 6.536 C 168.747 6.296 169.533 6.246 170.276 6.241 C 170.995 6.256 171.726 6.314 172.463 6.475 C 173.923 6.788 175.454 7.496 176.544 8.677 C 177.659 9.83 178.331 11.262 178.693 12.654 C 179.421 15.466 179.246 18.195 178.883 20.806 C 178.496 23.423 177.83 25.946 177.027 28.407 C 175.404 33.325 173.239 38.008 170.697 42.475 C 168.142 46.933 165.226 51.204 161.711 55.054 C 159.944 56.968 158.033 58.789 155.808 60.321 C 154.694 61.083 153.499 61.77 152.184 62.296 C 150.878 62.813 149.41 63.191 147.894 63.157 C 145.062 63.132 142.338 62.259 139.943 60.998 C 137.551 59.709 135.44 58.047 133.559 56.209 C 129.793 52.519 126.86 48.191 124.384 43.676 C 121.928 39.142 119.957 34.367 118.527 29.419 C 117.118 24.475 116.112 19.357 116.293 14.072 C 116.416 11.45 116.798 8.713 118.216 6.196 C 118.931 4.963 119.943 3.781 121.28 3.05 C 122.6 2.299 124.109 1.989 125.526 2 L 125.542 2.001 C 126.211 2.006 126.75 2.554 126.744 3.223 C 126.738 3.893 126.196 4.431 125.526 4.425 L 124.703 4.422 L 124.703 2.004 C 126.121 2.006 127.623 2.332 128.926 3.09 C 130.248 3.829 131.239 5.011 131.936 6.24 C 133.317 8.748 133.668 11.47 133.762 14.078 C 133.875 19.331 132.856 24.42 131.417 29.334 C 129.954 34.248 127.975 38.995 125.525 43.501 C 123.053 47.986 120.126 52.28 116.392 55.921 C 114.526 57.734 112.44 59.367 110.091 60.627 C 107.738 61.857 105.081 62.7 102.332 62.718 C 100.885 62.749 99.479 62.385 98.212 61.88 C 96.939 61.369 95.766 60.706 94.669 59.961 C 92.473 58.471 90.566 56.682 88.799 54.796 C 85.292 50.994 82.336 46.775 79.731 42.362 C 77.138 37.939 74.927 33.286 73.254 28.39 C 72.43 25.939 71.723 23.426 71.329 20.809 C 70.958 18.197 70.773 15.466 71.494 12.642 C 71.854 11.244 72.524 9.802 73.645 8.638 C 74.74 7.444 76.282 6.726 77.752 6.407 C 78.494 6.24 79.231 6.185 79.953 6.177 C 80.701 6.186 81.492 6.237 82.281 6.48 C 83.066 6.711 83.839 7.092 84.501 7.613 C 85.17 8.13 85.69 8.781 86.102 9.447 C 86.931 10.795 87.279 12.213 87.516 13.576 C 87.729 14.945 87.785 16.289 87.745 17.611 C 87.668 20.254 87.304 22.816 86.836 25.34 C 85.889 30.386 84.491 35.277 83.003 40.123 C 80.005 49.807 76.62 59.335 72.957 68.754 C 71.128 73.464 69.239 78.149 67.309 82.816 C 65.445 87.414 64.02 92.206 63.557 97.085 C 63.482 97.693 63.506 98.303 63.475 98.912 C 63.473 99.519 63.401 100.132 63.456 100.734 C 63.551 101.94 63.573 103.158 63.842 104.329 C 63.997 105.527 64.4 106.649 64.744 107.785 L 65.46 109.399 C 65.708 109.932 66.056 110.402 66.344 110.908 C 67.625 112.836 69.409 114.406 71.492 115.191 C 73.571 115.987 75.901 115.837 77.854 114.876 C 79.824 113.921 81.376 112.15 82.364 110.079 C 82.663 109.589 82.826 109.022 83.026 108.475 L 83.322 107.653 C 83.412 107.376 83.455 107.079 83.525 106.793 C 83.641 106.213 83.804 105.647 83.888 105.058 L 84.075 103.276 C 84.166 102.687 84.136 102.079 84.143 101.477 C 84.14 100.874 84.155 100.272 84.141 99.668 C 84.011 98.458 83.966 97.245 83.773 96.039 C 83.542 94.836 83.398 93.622 83.099 92.429 C 82.788 91.239 82.518 90.041 82.176 88.857 C 79.255 79.43 74.745 70.362 68.417 62.844 C 62.148 55.315 53.82 49.41 44.421 46.841 C 39.748 45.553 34.842 45.051 30.048 45.599 C 25.263 46.106 20.547 47.555 16.529 50.155 C 12.448 52.656 9.223 56.378 7.161 60.653 L 6.503 62.311 L 6.172 63.139 L 5.936 64.002 L 5.458 65.725 L 5.166 67.495 C 4.794 69.857 4.739 72.296 5.019 74.636 C 5.509 79.352 7.822 83.804 11.507 86.786 C 15.16 89.791 20.015 91.35 24.795 91.125 C 27.183 91.005 29.557 90.471 31.728 89.468 C 33.9 88.47 35.856 87.004 37.415 85.175 C 38.972 83.346 40.159 81.181 40.886 78.847 C 41.62 76.514 41.961 74.056 42.061 71.577 L 42.062 71.558 C 42.073 71.271 42.316 71.047 42.603 71.059 C 42.882 71.07 43.101 71.3 43.103 71.577 C 43.113 74.14 42.886 76.728 42.204 79.244 C 41.516 81.753 40.319 84.149 38.678 86.216 C 35.399 90.39 30.206 92.916 24.919 93.247 C 19.629 93.609 14.199 92.023 9.97 88.708 C 7.858 87.056 6.068 84.973 4.752 82.62 C 3.416 80.272 2.622 77.648 2.248 75.007 C 1.879 72.353 1.939 69.693 2.316 67.078 L 2.625 65.113 L 3.137 63.186 L 3.395 62.222 L 3.753 61.29 L 4.478 59.426 C 6.735 54.597 10.352 50.376 14.859 47.553 C 19.307 44.622 24.478 42.987 29.697 42.384 C 34.934 41.748 40.248 42.345 45.28 43.733 C 50.322 45.136 55.092 47.412 59.39 50.343 C 63.693 53.272 67.52 56.849 70.834 60.817 C 74.134 64.795 77.009 69.128 79.28 73.744 C 81.547 78.359 83.531 83.095 84.937 88.062 C 85.282 89.304 85.555 90.571 85.866 91.824 C 86.165 93.081 86.31 94.381 86.537 95.657 C 86.727 96.942 86.768 98.258 86.887 99.556 C 86.897 100.212 86.876 100.872 86.87 101.529 C 86.855 102.188 86.877 102.844 86.772 103.504 L 86.54 105.482 C 86.439 106.139 86.252 106.79 86.108 107.443 C 86.025 107.769 85.969 108.099 85.862 108.419 L 85.51 109.374 C 85.27 110.009 85.066 110.655 84.708 111.249 C 83.505 113.689 81.554 115.928 78.952 117.153 C 76.379 118.394 73.263 118.523 70.633 117.473 C 67.987 116.441 65.855 114.471 64.383 112.197 C 64.049 111.608 63.657 111.045 63.378 110.433 L 62.585 108.579 C 62.204 107.303 61.778 106.03 61.62 104.717 C 61.343 103.416 61.329 102.103 61.246 100.794 C 61.197 100.138 61.277 99.489 61.288 98.837 C 61.329 98.188 61.315 97.531 61.401 96.888 C 61.922 91.712 63.435 86.743 65.379 82.012 C 67.327 77.367 69.232 72.704 71.077 68.02 C 74.739 58.645 78.294 49.207 81.007 39.537 C 82.347 34.704 83.484 29.81 84.209 24.905 C 84.561 22.455 84.8 19.993 84.769 17.59 C 84.73 15.226 84.474 12.758 83.43 11.114 C 82.919 10.298 82.255 9.81 81.404 9.578 C 80.983 9.45 80.499 9.43 79.991 9.43 C 79.453 9.451 78.928 9.499 78.439 9.603 C 76.457 9.989 75.15 11.37 74.611 13.485 C 74.054 15.564 74.147 17.984 74.482 20.342 C 74.829 22.716 75.413 25.099 76.158 27.438 C 77.653 32.121 79.699 36.671 82.102 41.008 C 84.513 45.337 87.295 49.493 90.6 53.14 C 92.253 54.954 94.032 56.658 95.997 58.027 C 97.944 59.386 100.145 60.444 102.31 60.417 C 104.624 60.405 106.913 59.695 109.019 58.598 C 111.12 57.474 113.05 55.977 114.799 54.279 C 118.306 50.871 121.14 46.743 123.531 42.41 C 125.903 38.055 127.832 33.443 129.251 28.69 C 130.644 23.948 131.645 19.011 131.473 14.157 C 131.38 11.759 130.986 9.324 129.888 7.401 C 129.336 6.456 128.632 5.641 127.732 5.156 C 126.845 4.654 125.804 4.417 124.703 4.422 C 124.036 4.425 123.492 3.886 123.489 3.218 C 123.486 2.551 124.025 2.007 124.693 2.004 L 124.693 2.004 L 124.703 2.004 L 125.526 2 L 125.526 4.425 C 124.426 4.435 123.392 4.686 122.521 5.196 C 121.637 5.689 120.953 6.504 120.419 7.445 C 119.358 9.359 118.996 11.779 118.932 14.163 C 118.829 18.985 119.842 23.893 121.265 28.604 C 122.716 33.324 124.654 37.908 127.019 42.235 C 129.407 46.537 132.236 50.632 135.71 53.99 C 137.442 55.665 139.349 57.132 141.407 58.227 C 143.47 59.294 145.693 59.974 147.924 59.979 C 149.942 60.001 152.068 58.988 153.985 57.667 C 155.922 56.341 157.697 54.669 159.349 52.883 C 162.648 49.284 165.469 45.179 167.93 40.895 C 170.383 36.602 172.476 32.083 174.021 27.422 C 174.786 25.092 175.411 22.72 175.765 20.345 C 176.109 17.987 176.212 15.564 175.662 13.473 C 175.131 11.348 173.81 9.931 171.806 9.534 C 171.312 9.424 170.781 9.381 170.239 9.367 C 169.727 9.369 169.237 9.389 168.81 9.522 C 167.946 9.76 167.271 10.262 166.758 11.088 C 165.729 12.753 165.425 15.218 165.408 17.59 C 165.402 19.996 165.616 22.461 165.971 24.913 C 166.68 29.825 167.831 34.718 169.133 39.564 C 171.739 49.27 175.19 58.757 178.877 68.127 C 180.718 72.816 182.62 77.482 184.565 82.131 C 186.495 86.843 187.994 91.786 188.504 96.918 C 188.587 97.556 188.57 98.206 188.607 98.849 C 188.614 99.494 188.692 100.137 188.641 100.785 C 188.552 102.077 188.533 103.376 188.254 104.655 C 188.093 105.949 187.668 107.196 187.297 108.451 L 186.518 110.267 C 186.245 110.867 185.86 111.416 185.534 111.992 C 184.096 114.212 182.022 116.122 179.464 117.119 C 176.92 118.132 173.924 118.004 171.444 116.809 C 168.937 115.627 167.042 113.461 165.869 111.076 C 165.518 110.498 165.319 109.863 165.085 109.242 L 164.74 108.307 C 164.635 107.993 164.581 107.668 164.499 107.349 C 164.359 106.706 164.174 106.067 164.075 105.42 L 163.846 103.472 C 163.743 102.821 163.765 102.172 163.75 101.522 C 163.745 100.872 163.724 100.221 163.733 99.572 C 163.852 98.286 163.891 96.985 164.08 95.711 C 164.306 94.444 164.449 93.156 164.747 91.908 C 165.056 90.663 165.327 89.405 165.67 88.17 C 168.599 78.389 173.092 68.991 179.683 61.058 C 186.196 53.131 195.009 46.853 205.044 44.077 C 210.038 42.694 215.305 42.122 220.494 42.728 C 225.667 43.3 230.814 44.878 235.213 47.797 C 239.677 50.596 243.251 54.773 245.481 59.549 L 246.197 61.393 L 246.551 62.316 L 246.806 63.269 L 247.312 65.176 L 247.617 67.121 C 247.992 69.711 248.04 72.346 247.687 74.968 C 247.329 77.576 246.572 80.179 245.247 82.494 C 243.945 84.816 242.178 86.87 240.091 88.497 C 235.915 91.765 230.548 93.327 225.327 92.964 C 222.719 92.774 220.13 92.12 217.796 90.931 C 215.46 89.755 213.383 88.074 211.77 86.036 C 210.158 83.999 208.981 81.637 208.306 79.159 C 207.629 76.677 207.417 74.115 207.429 71.577 C 207.43 71.457 207.528 71.359 207.648 71.36 C 207.766 71.36 207.861 71.453 207.866 71.569 L 207.866 71.577 Z" fill="#000000" stroke="none"/><path d="M 109.019 74.789 C 109.253 73.151 109.804 71.47 110.94 70.213 C 112.044 68.944 113.575 68.189 115.096 67.9 C 118.176 67.321 121.228 68.139 123.846 69.516 C 129.149 72.316 132.881 77.421 134.852 82.97 C 135.831 85.765 136.396 88.69 136.638 91.629 C 136.844 94.578 136.798 97.501 136.466 100.45 C 136.131 103.391 135.444 106.346 134.067 109.13 C 133.369 110.513 132.483 111.853 131.264 112.983 C 130.06 114.105 128.414 114.991 126.586 115.105 C 124.759 115.24 122.968 114.541 121.66 113.509 C 120.316 112.485 119.325 111.189 118.545 109.839 C 117.762 108.487 117.154 107.068 116.714 105.621 C 116.239 104.179 115.934 102.709 115.699 101.236 C 115.255 98.282 115.162 95.34 115.312 92.387 C 115.469 89.436 115.943 86.49 116.797 83.646 C 117.642 80.8 118.889 78.064 120.552 75.586 C 122.189 73.097 124.27 70.867 126.786 69.181 C 128.038 68.333 129.421 67.65 130.906 67.209 C 132.388 66.787 133.996 66.548 135.627 66.89 C 137.246 67.212 138.831 68.224 139.765 69.675 C 140.693 71.127 141.063 72.779 141.211 74.372 C 141.284 75.134 140.725 75.812 139.962 75.884 C 139.199 75.957 138.522 75.398 138.449 74.635 C 138.441 74.55 138.442 74.455 138.449 74.372 C 138.57 73.107 138.439 71.833 137.908 70.791 C 137.365 69.763 136.397 69.039 135.215 68.74 C 134.031 68.45 132.692 68.59 131.439 68.979 C 130.176 69.369 128.958 69.981 127.844 70.756 C 125.604 72.294 123.708 74.359 122.223 76.68 C 120.718 78.994 119.648 81.584 118.927 84.257 C 117.498 89.603 117.424 95.35 118.333 100.803 C 118.832 103.502 119.568 106.189 120.916 108.439 C 122.183 110.696 124.288 112.495 126.414 112.312 C 127.465 112.261 128.52 111.762 129.419 110.948 C 130.327 110.138 131.058 109.054 131.685 107.9 C 132.934 105.563 133.624 102.857 134.054 100.121 C 134.86 94.616 134.825 88.856 133.163 83.533 C 132.328 80.881 131.093 78.349 129.433 76.118 C 128.59 75.017 127.668 73.968 126.618 73.062 C 126.114 72.582 125.546 72.184 125 71.757 C 124.417 71.386 123.846 70.99 123.229 70.682 C 120.825 69.394 117.985 68.595 115.384 69.206 C 114.11 69.532 112.99 70.26 112.347 71.285 C 111.693 72.301 111.54 73.569 111.78 74.789 C 111.931 75.551 111.435 76.291 110.672 76.44 C 109.911 76.591 109.171 76.095 109.021 75.333 C 108.989 75.175 108.986 75.018 109.007 74.867 L 109.019 74.789 Z" fill="#000000" stroke="none"/><path d="M 204.052 28.049 C 219.254 31.649 199.871 31.945 196.243 47.266 C 191.924 34.061 197.737 10.498 204.052 28.049 Z" fill="#000000" stroke="none"/><path d="M 149.846 39.209 C 165.048 42.809 145.666 43.105 142.037 58.427 C 137.719 45.221 143.532 21.659 149.846 39.209 Z" fill="#000000" stroke="none"/><path d="M 182.61 128.795 C 166.992 128.428 185.891 124.116 186.261 108.375 C 193.226 120.397 192.429 144.653 182.61 128.795 Z" fill="#000000" stroke="none"/><path d="M 156.235 83.864 C 169.398 75.449 156.126 89.577 164.607 102.843 C 152.117 96.757 139.235 76.19 156.235 83.864 Z" fill="#000000" stroke="none"/><path d="M 204.431 65.664 C 218.058 58.025 203.99 71.361 211.689 85.096 C 199.572 78.297 187.904 57.018 204.431 65.664 Z" fill="#000000" stroke="none"/><path d="M 226.278 69.749 C 211.174 65.755 230.558 65.962 234.583 50.74 C 238.557 64.053 232.134 87.457 226.278 69.749 Z" fill="#000000" stroke="none"/><path d="M 45.062 28.049 C 29.859 31.649 49.242 31.945 52.871 47.266 C 57.189 34.061 51.377 10.498 45.062 28.049 Z" fill="#000000" stroke="none"/><path d="M 99.268 39.209 C 84.065 42.809 103.448 43.105 107.076 58.427 C 111.395 45.221 105.582 21.659 99.268 39.209 Z" fill="#000000" stroke="none"/><path d="M 66.503 128.795 C 82.122 128.428 63.223 124.116 62.853 108.375 C 55.888 120.397 56.685 144.653 66.503 128.795 Z" fill="#000000" stroke="none"/><path d="M 92.879 83.864 C 79.716 75.449 92.988 89.577 84.507 102.843 C 96.997 96.757 109.878 76.19 92.879 83.864 Z" fill="#000000" stroke="none"/><path d="M 44.683 65.664 C 31.055 58.025 45.123 71.361 37.424 85.096 C 49.541 78.297 61.21 57.018 44.683 65.664 Z" fill="#000000" stroke="none"/><path d="M 22.836 69.749 C 37.939 65.755 18.556 65.962 14.53 50.74 C 10.557 64.053 16.979 87.457 22.836 69.749 Z" fill="#000000" stroke="none"/>
</svg>
