<?xml version="1.0" encoding="UTF-8"?>
<svg xmlns="http://www.w3.org/2000/svg" width="120.617" height="163.903" viewBox="0 0 120.617 163.903">
  <path d="M 38.018 18.522 C 42.528 16.866 47.293 15.828 52.139 15.614 C 56.976 15.477 61.886 16.146 66.465 17.858 C 75.641 21.283 83.175 28.616 87.281 37.462 C 89.345 41.882 90.712 46.635 91.189 51.483 C 91.676 56.327 91.36 61.237 90.268 65.958 C 89.171 70.678 87.271 75.191 84.745 79.303 C 83.471 81.356 81.997 83.275 80.425 85.103 C 78.866 86.944 77.125 88.627 75.292 90.193 C 71.622 93.331 67.49 95.894 63.158 98.022 C 60.967 99.034 58.75 100.003 56.465 100.788 C 54.187 101.606 51.93 102.336 49.684 103.172 C 45.194 104.816 40.752 106.583 36.43 108.602 C 32.104 110.607 27.872 112.815 23.86 115.359 C 19.849 117.896 16.045 120.768 12.729 124.109 C 9.414 127.423 6.559 131.265 4.99 135.625 C 4.213 137.797 3.757 140.082 3.745 142.377 C 3.717 144.674 4.127 146.962 4.853 149.152 C 6.348 153.539 9.195 157.422 12.586 160.68 L 11.404 161.351 C 10.761 157.895 10.534 154.451 10.685 150.981 C 10.844 147.525 11.394 144.062 12.557 140.782 C 13.702 137.507 15.544 134.431 18.085 132.056 C 20.608 129.661 23.768 128.044 27.065 127.13 C 27.111 127.118 27.159 127.144 27.171 127.191 C 27.184 127.235 27.159 127.282 27.115 127.295 C 23.877 128.336 20.845 130.055 18.495 132.475 C 16.138 134.885 14.469 137.891 13.439 141.082 C 12.404 144.281 11.961 147.655 11.9 151.02 C 11.86 154.377 12.12 157.793 12.792 161.043 C 12.873 161.428 12.627 161.806 12.242 161.888 C 12.009 161.937 11.773 161.862 11.61 161.713 C 8.044 158.411 4.959 154.406 3.256 149.708 C 1.543 145.025 1.601 139.701 3.315 135.028 C 4.991 130.323 7.999 126.27 11.431 122.812 C 14.914 119.375 18.85 116.476 22.966 113.931 C 31.218 108.839 40.172 105.1 49.277 102.011 C 51.548 101.236 53.876 100.553 56.133 99.812 C 58.409 99.106 60.615 98.203 62.801 97.256 C 67.126 95.273 71.273 92.832 74.911 89.741 C 82.282 83.698 87.581 75.107 89.41 65.77 C 91.299 56.452 89.971 46.611 85.911 38.115 C 83.856 33.883 81.165 29.938 77.778 26.664 C 74.414 23.373 70.394 20.766 66.018 19.02 C 61.646 17.244 56.898 16.454 52.156 16.455 C 49.782 16.468 47.406 16.68 45.05 17.052 C 42.694 17.434 40.376 18.026 38.073 18.686 C 38.027 18.7 37.979 18.674 37.965 18.628 C 37.952 18.585 37.976 18.538 38.018 18.522 Z" fill="#000000" stroke="none"/><path d="M 93.893 51.359 C 93.893 51.359 93.872 20.724 59.82 12.362 C 39.124 7.281 50.745 4.298 54.749 6.292 C 58.753 8.286 62.301 9.425 62.301 9.425 C 62.301 9.425 58.535 1.625 64.885 2.014 C 68.904 2.26 72.779 14.006 72.779 14.006 C 72.779 14.006 73.101 8.019 77.785 9.595 C 80.219 10.413 83.553 23.361 83.553 23.361 C 83.553 23.361 81.283 11.29 85.006 14.282 C 88.73 17.273 90.223 31.128 90.223 31.128 C 90.223 31.128 90.779 23.487 94.555 27.621 C 98.331 31.755 93.893 51.359 93.893 51.359 Z" fill="#000000" stroke="none"/><path d="M 83.393 37.504 C 83.393 37.504 59.238 7.304 32.568 26.68 C 24.424 32.596 30.224 33.253 36.054 31.286 C 39.187 30.228 43.847 25.074 43.847 25.074 C 43.847 25.074 43.079 30.894 46.95 31.286 C 50.82 31.677 54.955 25.72 54.955 25.72 C 54.955 25.72 52.534 31.286 57.028 31.286 C 61.522 31.286 66.853 26.68 66.853 26.68 C 66.853 26.68 66.69 32.645 71.059 34.033 C 75.427 35.421 83.393 37.504 83.393 37.504 Z" fill="#000000" stroke="none"/><path d="M 8.786 121.103 C 8.786 121.103 29.71 101.935 53.05 97.721 C 76.39 93.506 80.172 55.173 53.05 58.351 C 31.785 60.841 42.583 68.538 45.239 68.538 C 52.561 68.538 51.613 61.982 58.783 61.506 C 65.953 61.031 67.718 74.014 67.718 74.014 C 67.718 74.014 62.346 66.865 60.451 70.45 C 57.028 76.925 66.853 83.333 66.853 83.333 C 66.853 83.333 63.19 81.866 60.451 83.333 C 57.712 84.801 60.451 92.433 60.451 92.433 C 60.451 92.433 56.61 85.488 52.561 88.352 C 48.512 91.216 48.238 96.818 48.238 96.818 C 48.238 96.818 47.415 92.143 43.122 92.433 C 38.828 92.724 36.054 100.13 36.054 100.13 C 36.054 100.13 17.87 105.66 8.786 121.103 Z" fill="#000000" stroke="none"/><path d="M 72 87.238 C 74.244 83.859 75.071 79.789 75.172 75.833 C 75.295 71.86 74.657 67.858 73.185 64.209 C 71.703 60.583 69.393 57.267 66.215 55.054 C 63.075 52.796 59.211 51.691 55.315 51.579 C 51.426 51.456 47.417 52.063 43.743 53.345 C 41.907 53.991 40.165 54.888 38.68 56.085 C 37.2 57.282 36.001 58.811 35.353 60.578 C 34.711 62.342 34.661 64.32 35.201 66.15 C 35.737 67.981 36.848 69.655 38.347 70.869 C 39.828 72.102 41.739 72.848 43.71 72.867 C 45.683 72.903 47.653 72.259 49.393 71.247 C 47.756 72.415 45.796 73.242 43.718 73.325 C 41.647 73.439 39.532 72.781 37.83 71.539 C 36.132 70.289 34.842 68.495 34.161 66.479 C 33.477 64.464 33.435 62.21 34.096 60.151 C 34.75 58.085 36.078 56.277 37.713 54.921 C 39.344 53.551 41.226 52.542 43.177 51.811 C 45.128 51.071 47.158 50.6 49.188 50.271 C 51.225 49.95 53.299 49.782 55.381 49.853 C 59.529 50.001 63.766 51.208 67.17 53.731 C 70.581 56.23 73.047 59.843 74.421 63.737 C 75.816 67.637 76.315 71.799 76.014 75.878 C 75.838 77.916 75.458 79.938 74.826 81.876 C 74.198 83.812 73.291 85.678 72 87.238 Z" fill="#000000" stroke="none"/><path d="M 28.544 119.793 C 28.544 119.793 47.869 104.728 79.882 100.16 C 97.133 97.699 119.126 120.504 100.497 140.459 C 81.868 160.415 59.638 146.277 64.565 132.634 C 67.718 123.906 72.823 120.616 75.639 123.346 C 78.456 126.077 71.059 140.283 71.059 140.283 C 71.059 140.283 68.505 146.72 79.882 145.155 C 91.259 143.589 80.624 141.242 83.393 138.112 C 86.163 134.982 96.077 138.894 96.077 138.894 C 96.077 138.894 90.88 133.504 93.215 130.677 C 96.077 127.213 102.27 123.906 102.27 123.906 C 102.27 123.906 94.737 125.268 94.389 121.103 C 93.997 116.418 99.099 110.755 99.099 110.755 C 99.099 110.755 95.071 114.408 88.943 112.288 C 83.393 110.369 83.393 102.599 83.393 102.599 C 83.393 102.599 80.439 107.639 76.3 107.639 C 70.747 107.639 71.9 103.759 60.451 107.639 C 49.001 111.52 28.544 119.793 28.544 119.793 Z" fill="#000000" stroke="none"/><path d="M 76.3 97.721 C 78.359 96.406 80.826 95.864 83.249 95.563 C 85.694 95.307 88.174 95.424 90.607 95.822 C 95.469 96.612 100.207 98.615 104.037 101.851 C 105.932 103.48 107.586 105.406 108.87 107.552 C 110.137 109.708 111.071 112.051 111.608 114.469 C 112.742 119.318 112.315 124.324 111.214 129.013 C 111.37 126.596 111.606 124.199 111.401 121.809 C 111.279 119.429 110.967 117.061 110.301 114.801 C 109.029 110.278 106.499 106.158 102.917 103.166 C 99.374 100.13 94.958 98.163 90.355 97.141 C 88.047 96.65 85.677 96.355 83.3 96.404 C 80.924 96.422 78.528 96.761 76.3 97.721 Z" fill="#000000" stroke="none"/><path d="M 79.882 92.433 C 82.315 90.617 84.662 88.696 86.861 86.643 C 89.054 84.588 91.116 82.407 92.872 80.055 C 94.617 77.71 96.081 75.177 96.83 72.583 C 97.594 69.99 97.507 67.426 96.543 65.237 C 95.942 63.872 96.562 62.278 97.928 61.676 C 99.293 61.076 100.887 61.696 101.488 63.061 C 101.544 63.191 101.59 63.322 101.626 63.455 L 101.654 63.564 C 102.117 65.345 102.246 67.218 102.036 69.003 C 101.83 70.791 101.305 72.479 100.601 74.014 C 99.175 77.092 97.113 79.606 94.897 81.825 C 92.664 84.038 90.224 85.946 87.703 87.691 C 85.177 89.431 82.556 90.995 79.882 92.433 Z" fill="#000000" stroke="none"/><path d="M 92.355 87.662 C 94.518 86.001 96.577 84.223 98.45 82.293 C 100.319 80.367 102.01 78.287 103.345 76.06 C 104.678 73.84 105.64 71.458 105.954 69.093 C 106.282 66.727 105.924 64.431 105.04 62.343 C 104.459 60.97 105.101 59.387 106.473 58.806 C 107.845 58.225 109.429 58.867 110.01 60.239 C 110.065 60.37 110.109 60.502 110.143 60.635 L 110.151 60.67 C 110.909 63.773 110.814 67.082 109.884 70.001 C 108.971 72.937 107.367 75.466 105.523 77.637 C 103.668 79.813 101.555 81.665 99.332 83.308 C 97.106 84.95 94.76 86.378 92.355 87.662 Z" fill="#000000" stroke="none"/><path d="M 88.657 90.362 C 91.37 90.093 94.115 89.978 96.877 90.107 C 99.638 90.239 102.423 90.605 105.174 91.383 C 107.914 92.165 110.652 93.377 113.041 95.311 C 115.437 97.223 117.354 99.921 118.447 102.922 L 118.454 102.942 C 118.963 104.342 118.242 105.891 116.841 106.401 C 115.441 106.911 113.893 106.188 113.383 104.789 C 113.334 104.655 113.294 104.505 113.268 104.371 C 112.843 102.143 111.865 100.036 110.278 98.249 C 108.704 96.458 106.581 95.01 104.24 93.905 C 101.893 92.795 99.331 92.004 96.706 91.44 C 94.077 90.876 91.378 90.541 88.657 90.362 Z" fill="#000000" stroke="none"/>
</svg>
