<?xml version="1.0" encoding="UTF-8"?>
<svg xmlns="http://www.w3.org/2000/svg" width="161.824" height="75.541" viewBox="108.064 131.563 161.824 75.541">
  <path d="M 146.712 184.139 C 147.27 184.512 147.897 184.733 148.529 184.925 C 149.159 185.117 149.796 185.284 150.443 185.406 C 151.732 185.661 153.032 185.838 154.333 185.9 C 156.927 186.054 159.531 185.86 161.943 185.176 C 164.329 184.452 166.565 183.304 168.158 181.494 C 169.792 179.743 170.898 177.505 171.459 175.082 C 171.615 174.479 171.761 173.874 171.847 173.247 L 172.18 171.26 C 172.427 169.872 172.779 168.473 173.396 167.135 C 173.999 165.805 174.822 164.503 175.997 163.47 C 177.155 162.433 178.7 161.726 180.286 161.649 C 183.476 161.465 186.419 163.513 187.434 166.327 C 187.931 167.736 187.878 169.299 187.359 170.617 C 186.83 171.942 185.901 173.003 184.867 173.848 C 185.697 172.797 186.354 171.622 186.625 170.391 C 186.872 169.159 186.736 167.903 186.18 166.856 C 185.117 164.731 182.635 163.496 180.484 163.803 C 179.405 163.96 178.436 164.497 177.639 165.258 C 176.842 166.03 176.244 167.058 175.807 168.17 C 175.569 168.716 175.412 169.315 175.223 169.893 C 175.103 170.504 174.918 171.09 174.849 171.72 L 174.553 173.683 C 174.465 174.38 174.317 175.074 174.143 175.764 C 173.452 178.506 172.125 181.231 170.038 183.314 C 167.965 185.414 165.216 186.721 162.45 187.27 C 159.672 187.849 156.855 187.727 154.166 187.243 C 152.822 186.976 151.5 186.627 150.228 186.139 C 148.975 185.643 147.686 185.087 146.712 184.139 Z" fill="#000000" stroke="none"/>
  <path d="M 166.986 184.139 C 167.543 184.512 168.171 184.733 168.802 184.925 C 169.432 185.117 170.069 185.284 170.716 185.406 C 172.005 185.661 173.305 185.838 174.607 185.9 C 177.2 186.054 179.805 185.86 182.217 185.176 C 184.603 184.452 186.839 183.304 188.432 181.494 C 190.065 179.743 191.172 177.505 191.732 175.082 C 191.888 174.479 192.034 173.874 192.12 173.247 L 192.453 171.26 C 192.701 169.872 193.052 168.473 193.669 167.135 C 194.273 165.805 195.095 164.503 196.27 163.47 C 197.428 162.433 198.973 161.726 200.559 161.649 C 203.749 161.465 206.693 163.513 207.708 166.327 C 208.205 167.736 208.151 169.299 207.633 170.617 C 207.104 171.942 206.175 173.003 205.14 173.848 C 205.97 172.797 206.628 171.622 206.898 170.391 C 207.145 169.159 207.009 167.903 206.454 166.856 C 205.39 164.731 202.908 163.496 200.758 163.803 C 199.678 163.96 198.71 164.497 197.912 165.258 C 197.115 166.03 196.518 167.058 196.081 168.17 C 195.842 168.716 195.686 169.315 195.496 169.893 C 195.377 170.504 195.192 171.09 195.122 171.72 L 194.826 173.683 C 194.739 174.38 194.591 175.074 194.417 175.764 C 193.725 178.506 192.398 181.231 190.312 183.314 C 188.238 185.414 185.49 186.721 182.724 187.27 C 179.945 187.849 177.129 187.727 174.439 187.243 C 173.095 186.976 171.773 186.627 170.502 186.139 C 169.248 185.643 167.959 185.087 166.986 184.139 Z" fill="#000000" stroke="none"/>
  <path d="M 187.259 184.139 C 187.817 184.512 188.444 184.733 189.075 184.925 C 189.706 185.117 190.343 185.284 190.99 185.406 C 192.279 185.661 193.579 185.838 194.88 185.9 C 197.473 186.054 200.078 185.86 202.49 185.176 C 204.876 184.452 207.112 183.304 208.705 181.494 C 210.339 179.743 211.445 177.505 212.006 175.082 C 212.161 174.479 212.308 173.874 212.394 173.247 L 212.727 171.26 C 212.974 169.872 213.325 168.473 213.943 167.135 C 214.546 165.805 215.369 164.503 216.544 163.47 C 217.701 162.433 219.247 161.726 220.833 161.649 C 224.022 161.465 226.966 163.513 227.981 166.327 C 228.478 167.736 228.425 169.299 227.906 170.617 C 227.377 171.942 226.448 173.003 225.414 173.848 C 226.244 172.797 226.901 171.622 227.172 170.391 C 227.419 169.159 227.283 167.903 226.727 166.856 C 225.664 164.731 223.181 163.496 221.031 163.803 C 219.952 163.96 218.983 164.497 218.186 165.258 C 217.389 166.03 216.792 167.058 216.354 168.17 C 216.116 168.716 215.959 169.315 215.77 169.893 C 215.65 170.504 215.465 171.09 215.395 171.72 L 215.1 173.683 C 215.012 174.38 214.864 175.074 214.69 175.764 C 213.999 178.506 212.672 181.231 210.585 183.314 C 208.511 185.414 205.763 186.721 202.997 187.27 C 200.219 187.849 197.402 187.727 194.713 187.243 C 193.369 186.976 192.047 186.627 190.775 186.139 C 189.522 185.643 188.233 185.087 187.259 184.139 Z" fill="#000000" stroke="none"/>
  <path d="M 216.539 180.126 C 229.553 185.271 236.55 193.376 252.219 190.948 C 267.888 188.52 267.184 162.761 247.119 161.743 C 223.587 160.549 238.478 188.993 248.769 181.438 C 259.061 173.884 248.625 170.916 245.362 171.726 C 242.098 172.535 242.6 178.201 242.6 178.201 C 242.6 178.201 236.81 179.716 237.58 172.265 C 238.946 159.045 259.97 165.459 258.917 176.506 C 256.191 205.104 226.379 175.09 216.539 180.126 Z" fill="#000000" stroke="none"/>
  <path d="M 146.776 194 C 146.357 194.759 145.671 195.379 144.862 195.738 C 144.051 196.093 143.151 196.203 142.273 196.159 C 140.514 196.055 138.795 195.348 137.449 194.178 C 136.095 193.022 135.129 191.358 134.872 189.557 C 134.594 187.755 134.97 185.916 135.698 184.303 C 136.445 182.617 137.735 181.291 139.114 180.211 C 140.51 179.133 142.04 178.267 143.621 177.55 C 146.783 176.088 150.17 175.281 153.549 174.688 C 160.354 173.611 167.24 173.833 174.017 174.484 C 180.798 175.198 187.519 176.399 194.134 178.075 C 200.754 179.729 207.246 181.912 213.553 184.528 C 216.7 185.834 219.823 187.122 223.009 188.278 C 226.183 189.452 229.373 190.587 232.613 191.543 C 235.847 192.521 239.129 193.323 242.432 193.962 C 245.735 194.584 249.092 195 252.431 194.89 C 255.742 194.788 259.157 194.234 261.922 192.396 C 263.276 191.47 264.435 190.243 265.211 188.769 C 265.967 187.287 266.355 185.615 266.443 183.927 C 266.445 183.886 266.479 183.854 266.52 183.856 C 266.559 183.857 266.59 183.89 266.591 183.929 C 266.607 185.636 266.324 187.371 265.629 188.971 C 264.917 190.559 263.768 191.966 262.35 193.005 C 259.477 195.083 255.912 195.846 252.484 196.042 C 245.546 196.386 238.733 194.908 232.18 193.004 C 225.601 191.109 219.241 188.546 213.012 185.812 C 206.788 183.139 200.427 180.775 193.922 178.856 C 187.415 176.96 180.735 175.547 173.969 174.998 C 170.591 174.694 167.193 174.619 163.813 174.771 C 160.432 174.91 157.068 175.284 153.761 175.899 C 150.45 176.492 147.208 177.423 144.148 178.727 C 142.623 179.388 141.161 180.189 139.848 181.169 C 138.548 182.151 137.379 183.335 136.722 184.768 C 136.386 185.507 136.119 186.271 135.941 187.053 C 135.786 187.837 135.733 188.639 135.821 189.429 C 135.985 191.01 136.769 192.511 137.959 193.61 C 139.146 194.704 140.681 195.479 142.314 195.667 C 143.125 195.757 143.965 195.706 144.734 195.422 C 145.499 195.137 146.188 194.625 146.649 193.924 C 146.671 193.89 146.717 193.88 146.751 193.902 C 146.783 193.923 146.794 193.967 146.776 194 Z" fill="#000000" stroke="none"/>
  <path d="M 116.091 181.161 C 115.07 181.205 114.074 180.7 113.347 179.984 C 112.612 179.262 112.07 178.376 111.619 177.457 C 110.781 175.583 110.357 173.545 110.236 171.498 C 110.064 167.399 111.124 163.223 113.362 159.717 C 115.557 156.152 119.105 153.585 122.911 152.008 C 126.765 150.47 130.908 149.869 134.997 149.81 C 139.09 149.776 143.234 150.394 147.11 151.863 C 149.028 152.646 150.869 153.638 152.528 154.898 C 154.188 156.157 155.615 157.714 156.762 159.442 C 159.068 162.901 160.227 167.035 160.22 171.13 C 160.202 173.179 159.879 175.233 159.153 177.149 C 158.773 178.095 158.326 179.036 157.637 179.807 C 156.969 180.568 156.028 181.193 154.996 181.161 C 156.027 181.113 156.876 180.441 157.465 179.665 C 158.083 178.888 158.468 177.952 158.783 177.018 C 159.385 175.125 159.588 173.118 159.496 171.141 C 159.359 167.186 158.109 163.268 155.826 160.088 C 154.682 158.503 153.312 157.089 151.754 155.915 C 150.185 154.752 148.444 153.838 146.623 153.118 C 142.94 151.768 138.968 151.215 135.007 151.286 C 131.05 151.299 127.074 151.84 123.411 153.254 C 119.778 154.7 116.508 157.095 114.305 160.342 C 112.087 163.566 110.936 167.521 110.956 171.478 C 110.965 173.455 111.266 175.447 111.976 177.302 C 112.362 178.212 112.84 179.092 113.506 179.828 C 114.154 180.566 115.069 181.126 116.091 181.161 Z" fill="#000000" stroke="none"/>
  <path d="M 135.273 176.643 C 135.27 175.992 135.237 175.328 135.259 174.662 L 135.417 173.671 L 135.499 173.171 C 135.543 173.008 135.607 172.851 135.661 172.69 L 136.011 171.724 L 136.534 170.833 C 136.694 170.52 136.935 170.274 137.151 170.005 C 137.372 169.74 137.588 169.462 137.847 169.243 C 139.831 167.336 142.303 166.202 143.783 164.333 C 145.34 162.546 145.761 160.057 145.633 157.654 C 145.611 156.468 145.231 155.401 144.674 154.427 C 144.101 153.454 143.255 152.608 142.285 151.787 C 141.333 150.949 140.288 150.104 139.309 149.104 C 138.32 148.119 137.462 146.872 136.934 145.511 C 136.356 144.146 136.264 142.686 136.22 141.286 C 136.25 139.911 136.406 138.508 136.907 137.133 C 137.189 136.455 137.502 135.766 138.046 135.182 C 138.567 134.598 139.278 134.118 140.07 133.936 C 141.68 133.563 143.207 134.227 144.263 135.176 C 145.32 136.139 146.041 137.55 145.925 138.992 C 145.867 139.704 145.596 140.375 145.199 140.927 C 144.799 141.486 144.254 141.889 143.716 142.256 C 144.691 141.389 145.401 140.193 145.31 138.981 C 145.239 137.784 144.525 136.693 143.569 136.015 C 142.634 135.318 141.412 134.994 140.463 135.335 C 139.512 135.653 138.871 136.586 138.545 137.693 C 138.227 138.809 138.15 140.046 138.163 141.281 C 138.257 142.479 138.374 143.682 138.88 144.722 C 139.34 145.774 139.977 146.742 140.858 147.589 C 141.719 148.45 142.724 149.241 143.744 150.12 C 144.752 150.998 145.792 152.03 146.536 153.324 C 146.745 153.631 146.898 153.972 147.034 154.322 C 147.172 154.67 147.344 155.008 147.406 155.376 L 147.656 156.461 L 147.723 157.55 C 147.743 158.985 147.596 160.353 147.209 161.748 C 147.153 162.099 146.961 162.425 146.836 162.763 C 146.681 163.09 146.584 163.444 146.377 163.746 C 145.98 164.359 145.594 164.976 145.073 165.475 C 143.098 167.617 140.495 168.489 138.563 170.055 C 136.537 171.528 135.47 174.016 135.273 176.643 Z" fill="#000000" stroke="none"/>
</svg>