<?xml version="1.0" encoding="UTF-8"?>
<svg xmlns="http://www.w3.org/2000/svg" width="252.479" height="148.131" viewBox="0.000 0.000 252.479 148.131">
  <path d="M 194.388 53.325 C 194.026 58.217 192.424 63.089 189.618 67.192 L 188.568 68.731 L 187.395 70.179 L 186.806 70.903 L 186.165 71.579 L 184.878 72.931 C 183.059 74.621 181.144 76.234 179.033 77.557 C 174.885 80.318 170.225 82.266 165.392 83.515 C 162.964 84.1 160.49 84.548 157.981 84.69 C 155.477 84.909 152.945 84.754 150.442 84.423 C 147.932 84.087 145.478 83.369 143.1 82.45 C 140.76 81.428 138.52 80.142 136.529 78.505 C 132.587 75.2 129.715 70.63 128.285 65.769 C 127.547 63.385 126.902 60.945 126.61 58.389 C 126.466 57.111 126.417 55.801 126.532 54.46 C 126.656 53.125 126.956 51.723 127.715 50.404 C 128.123 49.764 128.609 49.128 129.268 48.657 C 129.911 48.19 130.649 47.823 131.403 47.662 C 132.915 47.302 134.371 47.512 135.682 47.861 C 138.301 48.63 140.512 50.036 142.513 51.617 C 146.474 54.845 149.562 58.95 151.811 63.443 C 154.053 67.941 155.338 72.943 155.355 77.977 C 155.361 83.006 154.032 88.023 151.58 92.344 C 149.271 96.724 146.132 100.705 142.226 103.774 C 138.348 106.872 133.718 109.002 128.865 109.985 C 124.017 111 118.98 111.018 114.11 110.173 C 104.418 108.37 95.098 103.764 88.339 96.356 C 84.926 92.712 82.351 88.213 81.031 83.299 C 80.49 80.824 80.099 78.261 80.339 75.704 C 80.385 74.409 80.561 73.189 80.782 71.942 C 80.988 70.7 81.291 69.458 81.681 68.222 C 82.075 66.989 82.608 65.754 83.443 64.592 C 83.878 64.022 84.385 63.457 85.073 63.025 C 85.728 62.569 86.589 62.294 87.423 62.273 C 88.27 62.23 89.067 62.446 89.748 62.751 C 90.454 63.043 91.031 63.458 91.591 63.878 C 92.679 64.744 93.546 65.752 94.325 66.796 C 95.856 68.901 97.016 71.184 97.946 73.537 C 98.886 75.888 99.585 78.319 100.102 80.787 C 101.112 85.722 101.345 90.85 100.514 95.891 C 99.679 100.911 97.674 105.867 94.333 109.866 C 91.045 113.915 86.505 116.784 81.731 118.545 L 79.922 119.168 L 78.081 119.675 C 76.865 120.058 75.591 120.223 74.341 120.478 C 71.812 120.826 69.238 121.04 66.676 120.798 C 65.391 120.755 64.129 120.5 62.86 120.315 C 62.231 120.188 61.611 120.024 60.986 119.879 C 60.358 119.746 59.744 119.563 59.138 119.353 C 56.681 118.619 54.353 117.523 52.139 116.271 C 47.714 113.737 43.858 110.331 40.672 106.431 C 39.052 104.498 37.646 102.401 36.365 100.238 C 35.081 98.075 33.986 95.799 33.095 93.441 C 32.202 91.084 31.5 88.643 31.105 86.124 C 30.72 83.609 30.622 80.996 31.174 78.399 C 31.248 78.075 31.313 77.75 31.398 77.429 L 31.733 76.475 C 31.948 75.822 32.228 75.267 32.535 74.674 C 33.158 73.521 33.894 72.333 35.224 71.449 C 35.884 71.017 36.807 70.747 37.686 70.881 C 38.566 71.005 39.288 71.438 39.848 71.915 C 40.968 72.894 41.631 74.072 42.184 75.25 C 43.263 77.625 43.777 80.126 44.033 82.629 C 44.274 85.135 44.202 87.662 43.811 90.144 C 43.044 95.081 40.801 99.945 36.968 103.247 C 35.082 104.906 32.85 106.133 30.508 106.94 C 28.163 107.763 25.697 108.123 23.249 108.253 C 23.166 108.257 23.096 108.194 23.092 108.111 C 23.087 108.031 23.149 107.962 23.228 107.954 C 28.045 107.493 32.854 105.848 36.317 102.53 C 39.812 99.254 41.698 94.613 42.309 89.926 C 42.608 87.569 42.602 85.172 42.304 82.822 C 41.996 80.483 41.426 78.146 40.413 76.095 C 39.912 75.084 39.278 74.115 38.523 73.51 C 37.732 72.901 37.1 72.816 36.402 73.289 C 35.688 73.784 35.056 74.725 34.558 75.721 C 34.313 76.215 34.051 76.762 33.901 77.276 L 33.64 78.056 L 33.471 78.875 C 33.042 81.073 33.155 83.427 33.555 85.723 C 33.959 88.026 34.656 90.294 35.534 92.487 C 36.41 94.684 37.482 96.81 38.73 98.826 C 39.976 100.84 41.336 102.793 42.891 104.578 C 45.963 108.17 49.578 111.305 53.659 113.598 C 55.702 114.729 57.834 115.713 60.07 116.357 C 60.62 116.544 61.178 116.706 61.748 116.819 C 62.315 116.944 62.877 117.09 63.447 117.201 C 64.596 117.353 65.737 117.582 66.9 117.607 C 69.213 117.799 71.543 117.626 73.846 117.309 C 74.988 117.071 76.149 116.933 77.268 116.577 L 78.961 116.114 L 80.618 115.546 C 84.987 113.932 88.989 111.386 91.933 107.861 C 94.915 104.368 96.767 99.978 97.583 95.386 C 98.394 90.781 98.237 85.983 97.335 81.343 C 96.416 76.725 94.788 72.137 92.183 68.349 C 91.521 67.425 90.787 66.556 89.971 65.886 C 89.163 65.235 88.252 64.741 87.495 64.785 C 86.749 64.772 86.018 65.253 85.397 66.064 C 84.789 66.877 84.299 67.897 83.936 68.983 C 83.573 70.07 83.27 71.201 83.056 72.366 C 82.828 73.52 82.635 74.721 82.579 75.869 C 82.296 78.187 82.593 80.529 83.022 82.823 C 84.115 87.378 86.396 91.692 89.568 95.266 C 95.866 102.469 104.817 107.365 114.295 109.134 C 119.041 110.001 123.949 110.024 128.675 109.079 C 133.417 108.177 137.877 106.019 141.62 103.013 C 145.369 99.994 148.338 96.077 150.486 91.777 C 152.732 87.528 153.827 82.748 153.685 78.003 C 153.357 68.495 148.288 59.375 140.966 53.578 C 139.129 52.161 137.093 50.954 134.996 50.381 C 133.958 50.114 132.906 50.031 132.031 50.246 C 131.154 50.457 130.49 50.974 130.013 51.767 C 129.077 53.417 129.035 55.824 129.288 58.087 C 129.564 60.387 130.112 62.709 130.802 64.994 C 132.084 69.521 134.609 73.584 138.113 76.613 C 139.887 78.105 141.901 79.291 144.026 80.253 C 146.195 81.113 148.447 81.809 150.785 82.148 C 160.13 83.526 170.038 81.246 178.19 76.229 C 180.266 75.019 182.125 73.492 183.965 71.953 L 185.26 70.705 L 185.909 70.079 L 186.506 69.405 L 187.7 68.056 L 188.779 66.612 L 189.317 65.887 L 189.791 65.121 L 190.737 63.582 L 191.541 61.965 C 191.672 61.694 191.818 61.428 191.937 61.152 L 192.26 60.307 C 193.226 58.086 193.707 55.696 194.09 53.297 L 194.091 53.29 C 194.104 53.208 194.18 53.152 194.262 53.166 C 194.34 53.178 194.394 53.248 194.388 53.325 Z" fill="#000000" stroke="none"/>
  <path d="M 157.007 90.263 C 156.391 92.036 155.85 93.85 155.163 95.609 L 153.972 98.183 C 153.566 99.037 153.211 99.922 152.69 100.716 C 151.691 102.324 150.837 104.041 149.624 105.514 L 147.903 107.797 C 147.281 108.518 146.604 109.192 145.956 109.893 C 144.702 111.344 143.203 112.534 141.758 113.79 C 141.057 114.448 140.242 114.954 139.464 115.51 C 138.675 116.052 137.901 116.622 137.096 117.14 L 134.588 118.546 L 133.331 119.249 C 132.9 119.459 132.456 119.64 132.019 119.838 L 129.379 120.989 C 128.49 121.35 127.562 121.602 126.654 121.913 C 123.015 123.159 119.208 123.79 115.399 124.243 C 111.573 124.484 107.717 124.564 103.909 124.072 C 96.292 123.224 88.807 120.953 82.107 117.238 C 75.403 113.541 69.416 108.6 64.541 102.762 C 59.666 96.921 55.927 90.195 53.389 83.079 C 50.847 75.957 49.475 68.448 49.137 60.912 C 48.848 53.385 49.114 45.791 50.632 38.343 L 51.21 35.553 C 51.432 34.63 51.727 33.724 51.983 32.807 C 52.263 31.897 52.482 30.967 52.813 30.072 L 53.837 27.396 L 54.35 26.057 L 54.976 24.764 L 56.238 22.177 C 56.708 21.341 57.233 20.533 57.73 19.71 L 58.486 18.479 C 58.753 18.079 59.059 17.704 59.344 17.316 C 59.927 16.547 60.497 15.766 61.096 15.009 L 63.06 12.87 C 63.685 12.127 64.454 11.526 65.168 10.868 C 65.891 10.219 66.605 9.558 67.416 9.016 C 70.486 6.62 74.034 4.836 77.753 3.649 C 85.182 1.264 93.516 1.396 100.803 4.5 C 104.446 6.018 107.805 8.271 110.563 11.136 C 113.324 13.994 115.471 17.465 116.758 21.229 L 117.206 22.651 C 117.366 23.123 117.502 23.6 117.575 24.092 C 117.752 25.067 117.965 26.038 118.103 27.016 L 118.309 29.97 C 118.366 30.954 118.271 31.929 118.257 32.908 C 118.042 36.81 117.185 40.764 115.359 44.319 C 113.562 47.876 110.823 50.971 107.505 53.164 C 104.161 55.323 100.329 56.605 96.442 57.058 C 92.549 57.545 88.581 57.085 84.884 55.878 C 81.195 54.669 77.707 52.685 75.031 49.84 C 72.33 47.041 70.465 43.45 69.781 39.666 C 69.093 35.875 69.46 32.001 70.454 28.37 C 70.476 28.29 70.559 28.243 70.639 28.265 C 70.715 28.286 70.761 28.364 70.746 28.441 C 70.02 32.1 69.881 35.888 70.728 39.464 C 71.577 43.039 73.52 46.258 76.105 48.767 C 78.685 51.307 81.997 53.017 85.458 54.002 C 88.928 54.987 92.602 55.242 96.149 54.731 C 99.695 54.229 103.122 52.977 106.044 50.991 C 108.94 48.967 111.26 46.205 112.769 43.033 C 114.283 39.86 115.025 36.329 115.185 32.756 C 115.185 31.861 115.269 30.958 115.205 30.071 L 114.991 27.414 C 114.855 26.539 114.651 25.677 114.489 24.808 C 114.423 24.369 114.295 23.947 114.146 23.532 L 113.734 22.276 C 112.569 18.956 110.709 15.891 108.26 13.357 C 105.819 10.816 102.831 8.804 99.579 7.377 C 93.056 4.484 85.443 4.244 78.597 6.341 C 75.162 7.377 71.887 8.995 68.987 11.146 C 68.22 11.628 67.544 12.23 66.857 12.818 C 66.178 13.417 65.444 13.955 64.844 14.64 L 62.954 16.601 C 62.375 17.301 61.822 18.026 61.253 18.737 C 60.975 19.097 60.676 19.443 60.415 19.817 L 59.672 20.967 C 59.182 21.738 58.664 22.492 58.196 23.278 L 56.906 25.708 L 56.26 26.924 L 55.722 28.194 L 54.642 30.737 C 54.29 31.589 54.048 32.484 53.744 33.356 C 53.465 34.236 53.145 35.106 52.896 35.996 L 52.236 38.695 C 52.038 39.601 51.754 40.488 51.626 41.409 L 51.171 44.159 C 51.038 45.078 50.824 45.987 50.758 46.917 L 50.492 49.696 C 50.411 50.624 50.299 51.55 50.242 52.481 L 50.156 55.276 L 50.096 58.075 C 50.064 59.008 50.164 59.937 50.192 60.868 C 50.428 68.309 51.684 75.761 54.303 82.745 C 59.446 96.781 70.172 108.4 83.272 115.03 C 89.788 118.442 96.942 120.538 104.21 121.432 C 107.847 121.942 111.528 121.893 115.184 121.704 C 118.822 121.326 122.473 120.816 125.965 119.692 C 126.837 119.412 127.731 119.193 128.585 118.865 L 131.135 117.841 C 131.559 117.668 131.991 117.51 132.41 117.325 L 133.632 116.696 L 136.081 115.44 C 136.869 114.972 137.626 114.452 138.402 113.961 C 139.168 113.454 139.972 112.998 140.664 112.39 C 142.092 111.234 143.583 110.142 144.839 108.786 C 145.487 108.133 146.167 107.505 146.794 106.83 L 148.563 104.699 C 149.825 103.335 150.743 101.716 151.812 100.197 C 152.368 99.448 152.761 98.604 153.207 97.789 L 154.522 95.324 C 155.295 93.631 155.983 91.894 156.721 90.171 L 156.728 90.155 C 156.761 90.079 156.849 90.044 156.925 90.076 C 156.997 90.108 157.032 90.19 157.007 90.263 Z" fill="#000000" stroke="none"/>
  <path d="M 47.506 92.934 C 48.165 97.564 46.57 102.525 43.566 106.316 C 42.093 108.249 40.241 109.875 38.226 111.242 C 36.19 112.585 33.937 113.594 31.588 114.28 C 29.224 114.914 26.758 115.21 24.306 115.074 C 21.862 114.9 19.425 114.373 17.207 113.356 C 12.717 111.394 9.215 107.768 7.091 103.663 C 10.25 107.057 13.908 109.81 18.056 111.174 C 20.125 111.833 22.262 112.238 24.415 112.235 C 26.562 112.274 28.717 111.993 30.784 111.391 C 32.866 110.84 34.861 109.959 36.715 108.846 C 38.59 107.758 40.275 106.362 41.793 104.8 C 44.795 101.64 46.893 97.548 47.506 92.934 Z" fill="#000000" stroke="none"/>
  <path d="M 45.129 51.839 C 44.94 49.254 44.581 46.697 43.988 44.208 C 43.36 41.727 42.495 39.32 41.337 37.077 C 39.071 32.573 35.597 28.725 31.342 26.238 C 29.214 25.005 26.905 24.105 24.528 23.623 C 22.146 23.166 19.698 23.149 17.372 23.63 C 15.056 24.137 12.878 25.147 11.068 26.626 C 9.273 28.125 7.948 30.111 6.853 32.316 C 5.758 34.475 5.031 36.797 4.943 39.128 C 4.811 41.456 5.407 43.756 6.585 45.714 C 7.788 47.65 9.592 49.258 11.74 50.148 C 13.872 51.04 16.288 51.34 18.571 50.825 C 23.05 49.864 27.445 45.801 27.063 40.942 C 26.911 38.606 25.653 36.177 23.483 35.106 C 22.415 34.579 21.125 34.498 19.966 34.946 C 18.797 35.373 17.766 36.212 16.94 37.203 C 17.647 36.124 18.578 35.143 19.787 34.529 C 20.99 33.913 22.499 33.842 23.805 34.339 C 25.122 34.824 26.218 35.786 27.008 36.922 C 27.82 38.055 28.306 39.4 28.528 40.784 C 28.927 43.581 27.934 46.516 26.113 48.647 C 24.307 50.763 21.881 52.387 19.121 53.1 C 16.378 53.861 13.391 53.628 10.743 52.58 C 8.075 51.555 5.766 49.636 4.181 47.228 C 2.621 44.796 1.887 41.854 2.014 39.019 C 2.101 36.166 2.945 33.437 4.167 30.985 C 4.471 30.367 4.792 29.762 5.158 29.188 L 5.688 28.313 L 6.305 27.454 C 7.117 26.297 8.138 25.297 9.205 24.367 C 11.42 22.595 14.064 21.369 16.816 20.853 C 19.574 20.357 22.391 20.466 25.072 21.058 C 27.755 21.659 30.286 22.782 32.562 24.251 C 37.147 27.175 40.61 31.584 42.665 36.459 C 43.681 38.906 44.402 41.457 44.799 44.047 C 45.177 46.641 45.254 49.253 45.129 51.839 Z" fill="#000000" stroke="none"/>
  <path d="M 248.38 131.838 L 248.308 131.793 C 247.756 131.443 247.592 130.713 247.941 130.161 C 248.282 129.622 248.988 129.453 249.534 129.771 L 249.541 129.776 L 249.609 129.815 C 250.174 130.144 250.366 130.868 250.037 131.433 C 249.708 131.999 248.984 132.191 248.418 131.862 C 248.407 131.856 248.391 131.845 248.38 131.838 Z" fill="#000000" stroke="none"/>
  <path d="M 244.896 129.221 L 244.832 129.164 C 244.374 128.758 244.333 128.058 244.739 127.601 C 245.135 127.154 245.813 127.104 246.27 127.481 L 246.276 127.485 L 246.337 127.535 C 246.809 127.924 246.877 128.623 246.488 129.096 C 246.099 129.569 245.4 129.637 244.927 129.248 C 244.918 129.24 244.905 129.229 244.896 129.221 Z" fill="#000000" stroke="none"/>
  <path d="M 241.892 126.097 L 241.839 126.032 C 241.486 125.598 241.551 124.96 241.984 124.607 C 242.402 124.267 243.013 124.32 243.373 124.711 L 243.426 124.769 C 243.806 125.181 243.78 125.824 243.367 126.203 C 242.954 126.583 242.312 126.556 241.932 126.144 C 241.919 126.13 241.904 126.112 241.892 126.097 Z" fill="#000000" stroke="none"/>
  <path d="M 239.405 122.585 L 239.361 122.513 C 239.105 122.094 239.237 121.547 239.655 121.292 C 240.058 121.045 240.584 121.163 240.85 121.545 L 240.896 121.61 C 241.177 122.014 241.078 122.57 240.675 122.851 C 240.271 123.133 239.716 123.034 239.434 122.63 C 239.424 122.616 239.413 122.599 239.405 122.585 Z" fill="#000000" stroke="none"/>
  <path d="M 237.432 118.789 L 237.399 118.713 C 237.237 118.345 237.404 117.916 237.771 117.754 C 238.119 117.601 238.526 117.747 238.705 118.075 L 238.743 118.146 C 238.936 118.501 238.805 118.944 238.45 119.137 C 238.095 119.33 237.652 119.198 237.459 118.844 C 237.449 118.826 237.44 118.807 237.432 118.789 Z" fill="#000000" stroke="none"/>
  <path d="M 235.962 114.793 L 235.938 114.713 C 235.855 114.429 236.017 114.132 236.3 114.049 C 236.564 113.971 236.842 114.111 236.946 114.36 L 236.977 114.435 C 237.091 114.71 236.96 115.025 236.684 115.139 C 236.409 115.253 236.094 115.122 235.981 114.846 C 235.973 114.829 235.967 114.81 235.962 114.793 Z" fill="#000000" stroke="none"/>
  <path d="M 235.034 110.66 L 235.023 110.577 C 234.999 110.415 235.112 110.264 235.274 110.241 C 235.424 110.219 235.564 110.315 235.604 110.457 L 235.625 110.535 C 235.67 110.696 235.576 110.863 235.415 110.908 C 235.254 110.953 235.088 110.859 235.043 110.698 C 235.039 110.686 235.036 110.671 235.034 110.66 Z" fill="#000000" stroke="none"/>
  <path d="M 234.938 106.421 L 234.947 106.384 L 234.945 106.422 C 234.945 106.424 234.943 106.425 234.941 106.425 C 234.939 106.425 234.938 106.424 234.938 106.422 L 234.938 106.421 Z" fill="#000000" stroke="none"/>
  <path d="M 218.695 145.395 L 218.613 145.381 C 218.61 145.381 218.608 145.378 218.608 145.375 C 218.609 145.372 218.612 145.37 218.615 145.37 L 218.615 145.37 L 218.695 145.395 Z" fill="#000000" stroke="none"/>
  <path d="M 214.473 144.577 L 214.396 144.559 C 214.245 144.525 214.151 144.376 214.185 144.226 C 214.219 144.075 214.368 143.981 214.519 144.015 C 214.529 144.017 214.541 144.021 214.551 144.024 L 214.625 144.05 C 214.768 144.101 214.842 144.258 214.792 144.401 C 214.745 144.533 214.607 144.607 214.473 144.577 Z" fill="#000000" stroke="none"/>
  <path d="M 210.308 143.471 L 210.227 143.446 C 209.964 143.366 209.815 143.088 209.895 142.825 C 209.976 142.562 210.254 142.413 210.517 142.493 C 210.532 142.498 210.547 142.503 210.561 142.509 L 210.638 142.541 C 210.891 142.643 211.013 142.932 210.91 143.185 C 210.813 143.422 210.549 143.544 210.308 143.471 Z" fill="#000000" stroke="none"/>
  <path d="M 206.214 142.058 L 206.135 142.026 C 205.784 141.888 205.613 141.492 205.751 141.142 C 205.889 140.791 206.285 140.619 206.636 140.757 C 206.651 140.763 206.667 140.771 206.682 140.777 L 206.757 140.814 C 207.095 140.975 207.238 141.381 207.076 141.719 C 206.922 142.042 206.542 142.186 206.214 142.058 Z" fill="#000000" stroke="none"/>
  <path d="M 202.233 140.301 L 202.156 140.263 C 201.741 140.058 201.571 139.556 201.776 139.141 C 201.982 138.726 202.484 138.555 202.899 138.761 C 202.917 138.769 202.936 138.78 202.953 138.79 L 203.024 138.832 C 203.423 139.065 203.557 139.576 203.324 139.974 C 203.102 140.354 202.622 140.491 202.233 140.301 Z" fill="#000000" stroke="none"/>
  <path d="M 198.424 138.148 L 198.352 138.101 C 197.906 137.817 197.776 137.226 198.06 136.78 C 198.344 136.335 198.936 136.204 199.381 136.489 C 199.395 136.497 199.411 136.508 199.424 136.517 L 199.49 136.565 C 199.92 136.87 200.021 137.466 199.716 137.896 C 199.421 138.311 198.85 138.417 198.424 138.148 Z" fill="#000000" stroke="none"/>
  <path d="M 194.852 135.569 L 194.785 135.513 C 194.334 135.135 194.274 134.463 194.652 134.011 C 195.03 133.56 195.703 133.5 196.155 133.879 C 196.162 133.885 196.174 133.895 196.181 133.901 L 196.242 133.956 C 196.682 134.346 196.722 135.019 196.332 135.459 C 195.95 135.89 195.292 135.934 194.852 135.569 Z" fill="#000000" stroke="none"/>
  <path d="M 191.65 132.497 L 191.592 132.432 C 191.173 131.966 191.211 131.249 191.677 130.83 C 192.143 130.412 192.86 130.45 193.279 130.916 C 193.286 130.924 193.297 130.937 193.303 130.945 L 193.356 131.006 C 193.761 131.483 193.703 132.198 193.226 132.603 C 192.759 133 192.059 132.947 191.65 132.497 Z" fill="#000000" stroke="none"/>
  <path d="M 188.934 128.942 L 188.887 128.868 C 188.531 128.307 188.697 127.565 189.258 127.209 C 189.818 126.853 190.561 127.019 190.916 127.579 C 190.922 127.588 190.932 127.605 190.938 127.614 L 190.978 127.682 L 190.981 127.688 C 191.319 128.258 191.13 128.995 190.559 129.332 C 190 129.663 189.281 129.486 188.934 128.942 Z" fill="#000000" stroke="none"/>
  <path d="M 186.912 124.916 L 186.88 124.833 C 186.637 124.201 186.952 123.491 187.585 123.248 C 188.217 123.005 188.926 123.32 189.17 123.952 L 189.176 123.968 L 189.203 124.043 L 189.205 124.047 C 189.442 124.682 189.119 125.388 188.485 125.625 C 187.854 125.859 187.153 125.542 186.912 124.916 Z" fill="#000000" stroke="none"/>
  <path d="M 185.714 120.549 L 185.699 120.461 C 185.587 119.78 186.049 119.138 186.729 119.026 C 187.41 118.914 188.052 119.375 188.164 120.056 L 188.167 120.073 L 188.179 120.151 L 188.18 120.157 C 188.284 120.838 187.817 121.476 187.135 121.581 C 186.458 121.684 185.824 121.223 185.714 120.549 Z" fill="#000000" stroke="none"/>
  <path d="M 185.466 116.014 L 185.471 115.922 C 185.511 115.235 186.1 114.71 186.788 114.75 C 187.471 114.789 187.994 115.371 187.962 116.053 L 187.961 116.06 L 187.958 116.14 C 187.927 116.829 187.345 117.362 186.656 117.332 C 185.968 117.302 185.435 116.719 185.465 116.031 L 185.466 116.014 Z" fill="#000000" stroke="none"/>
  <path d="M 186.194 111.534 L 186.217 111.448 C 186.396 110.796 187.07 110.413 187.722 110.592 C 188.37 110.77 188.752 111.436 188.582 112.084 L 188.58 112.09 L 188.56 112.167 C 188.39 112.821 187.721 113.214 187.067 113.044 C 186.412 112.874 186.019 112.206 186.189 111.551 L 186.194 111.534 Z" fill="#000000" stroke="none"/>
  <path d="M 187.839 107.317 L 187.879 107.24 C 188.188 106.657 188.911 106.435 189.494 106.744 C 190.065 107.046 190.29 107.746 190.009 108.322 L 190.005 108.331 L 189.971 108.4 C 189.682 108.994 188.967 109.241 188.372 108.953 C 187.778 108.664 187.531 107.948 187.82 107.354 C 187.824 107.343 187.833 107.327 187.839 107.317 Z" fill="#000000" stroke="none"/>
  <path d="M 190.356 103.563 L 190.411 103.498 C 190.812 103.023 191.523 102.962 191.998 103.363 C 192.464 103.756 192.531 104.445 192.158 104.92 L 192.153 104.927 L 192.106 104.985 C 191.722 105.476 191.013 105.562 190.523 105.177 C 190.032 104.793 189.947 104.084 190.331 103.594 C 190.338 103.585 190.349 103.571 190.356 103.563 Z" fill="#000000" stroke="none"/>
  <path d="M 193.627 100.448 L 193.698 100.396 C 194.167 100.05 194.828 100.151 195.174 100.621 C 195.508 101.074 195.425 101.706 194.996 102.06 L 194.987 102.067 L 194.926 102.117 C 194.475 102.488 193.809 102.424 193.437 101.973 C 193.066 101.523 193.13 100.856 193.581 100.484 C 193.594 100.473 193.613 100.459 193.627 100.448 Z" fill="#000000" stroke="none"/>
  <path d="M 197.56 98.226 L 197.642 98.193 C 198.124 97.998 198.674 98.231 198.869 98.713 C 199.057 99.18 198.847 99.708 198.397 99.92 L 198.388 99.924 L 198.317 99.957 C 197.845 100.179 197.282 99.977 197.06 99.505 C 196.838 99.032 197.04 98.469 197.512 98.247 C 197.527 98.24 197.546 98.232 197.56 98.226 Z" fill="#000000" stroke="none"/>
  <path d="M 201.935 97.115 L 202.021 97.107 C 202.47 97.062 202.871 97.391 202.915 97.84 C 202.957 98.268 202.662 98.651 202.245 98.725 L 202.235 98.727 L 202.158 98.741 C 201.711 98.819 201.285 98.521 201.207 98.075 C 201.128 97.628 201.426 97.202 201.873 97.124 C 201.892 97.12 201.915 97.117 201.935 97.115 Z" fill="#000000" stroke="none"/>
  <path d="M 206.412 97.3 L 206.497 97.316 C 206.855 97.383 207.091 97.73 207.023 98.088 C 206.959 98.43 206.642 98.66 206.302 98.622 L 206.294 98.621 L 206.216 98.612 C 205.851 98.572 205.588 98.244 205.629 97.879 C 205.669 97.515 205.997 97.252 206.362 97.292 C 206.378 97.294 206.397 97.297 206.412 97.3 Z" fill="#000000" stroke="none"/>
  <path d="M 210.599 98.714 L 210.676 98.753 C 210.908 98.867 211.004 99.149 210.888 99.382 C 210.78 99.6 210.52 99.695 210.296 99.611 L 210.22 99.582 C 209.976 99.489 209.853 99.215 209.946 98.971 C 210.039 98.726 210.313 98.603 210.557 98.696 C 210.571 98.701 210.586 98.708 210.599 98.714 Z" fill="#000000" stroke="none"/>
  <path d="M 214.254 101.089 L 214.316 101.141 C 214.42 101.226 214.434 101.38 214.349 101.483 C 214.269 101.579 214.131 101.598 214.029 101.532 L 213.963 101.489 C 213.847 101.416 213.814 101.262 213.887 101.147 C 213.961 101.032 214.114 100.998 214.23 101.072 C 214.238 101.077 214.247 101.084 214.254 101.089 Z" fill="#000000" stroke="none"/>
</svg>