<?xml version="1.0" encoding="UTF-8"?>
<svg xmlns="http://www.w3.org/2000/svg" width="187.973" height="110.173" viewBox="0 0 187.973 110.173">
  <path d="M 111.389 97.554 C 99.667 97.743 87.911 93.43 78.995 85.681 C 70.088 77.955 63.986 66.876 62.594 55.053 C 62.543 54.685 62.464 54.321 62.434 53.951 L 62.37 52.84 L 62.241 50.617 C 62.093 49.139 62.223 47.639 62.279 46.144 L 62.33 45.022 L 62.492 43.911 L 62.826 41.688 C 63.074 40.211 63.529 38.775 63.875 37.318 C 65.656 31.588 68.763 26.289 72.844 21.897 C 73.805 20.74 74.995 19.81 76.082 18.776 C 76.615 18.246 77.256 17.845 77.843 17.379 L 79.648 16.034 L 81.569 14.858 C 82.215 14.476 82.836 14.048 83.526 13.748 C 84.886 13.115 86.199 12.367 87.633 11.906 C 93.258 9.763 99.303 8.871 105.36 9.411 C 108.379 9.773 111.342 10.534 114.158 11.678 C 116.933 12.904 119.598 14.407 121.953 16.329 C 124.273 18.274 126.432 20.442 128.14 22.956 C 128.62 23.545 128.959 24.231 129.366 24.869 C 129.757 25.519 130.169 26.156 130.471 26.854 L 131.452 28.906 L 132.231 31.042 C 133.178 33.914 133.813 36.914 133.884 39.943 C 134.048 42.96 133.723 46.08 132.808 49.002 C 131.008 54.871 127.044 60.008 121.867 63.249 C 116.702 66.539 110.403 67.867 104.327 66.866 C 98.232 65.83 92.829 61.822 89.871 56.479 C 88.373 53.81 87.552 50.787 87.38 47.757 C 87.276 46.249 87.369 44.691 87.665 43.186 C 88.004 41.692 88.454 40.209 89.194 38.863 C 89.901 37.507 90.771 36.231 91.834 35.134 C 92.332 34.554 92.933 34.079 93.496 33.567 C 94.117 33.126 94.702 32.632 95.375 32.273 C 97.976 30.681 101.031 29.931 104.04 29.941 C 104.444 29.942 104.771 30.271 104.769 30.675 C 104.768 31.076 104.445 31.4 104.047 31.405 L 104.04 31.405 C 98.512 31.468 93.28 34.847 90.943 39.743 C 90.316 40.943 89.961 42.259 89.691 43.572 C 89.467 44.902 89.416 46.243 89.543 47.608 C 89.764 50.317 90.557 52.984 91.943 55.312 C 94.646 59.995 99.451 63.449 104.784 64.264 C 110.084 65.065 115.806 63.804 120.307 60.807 C 124.851 57.846 128.291 53.272 129.869 48.108 C 130.663 45.517 130.933 42.812 130.773 40.085 C 130.701 37.347 130.107 34.647 129.244 32.063 L 128.535 30.141 L 127.639 28.298 C 127.369 27.669 126.99 27.099 126.635 26.515 C 126.262 25.944 125.963 25.323 125.524 24.797 C 123.977 22.538 122.015 20.601 119.925 18.857 C 117.798 17.137 115.393 15.806 112.9 14.712 C 110.367 13.697 107.707 13.043 105.001 12.709 C 94.096 11.685 82.624 15.865 75.142 24.052 C 71.364 28.081 68.474 32.948 66.804 38.224 C 66.486 39.568 66.052 40.889 65.819 42.251 L 65.502 44.302 L 65.34 45.327 L 65.281 46.364 C 65.213 47.747 65.062 49.125 65.186 50.525 L 65.276 52.619 L 65.32 53.667 C 65.342 54.015 65.413 54.359 65.457 54.705 C 66.594 65.854 72.208 76.413 80.564 83.909 C 84.725 87.683 89.581 90.707 94.831 92.773 C 100.081 94.836 105.71 95.954 111.389 96.09 L 111.395 96.091 C 111.8 96.1 112.12 96.436 112.11 96.84 C 112.1 97.234 111.78 97.548 111.389 97.554 Z" fill="#000000" stroke="none"/><path d="M 63.82 71.219 C 60.053 66.028 54.464 62.286 48.306 60.823 C 42.17 59.332 35.485 60.047 29.919 63.047 C 27.118 64.514 24.587 66.417 22.637 68.868 C 20.702 71.318 19.341 74.212 18.655 77.259 C 17.196 83.358 18.881 90.072 22.835 94.87 C 23.855 96.033 25.017 97.065 26.304 97.926 C 27.615 98.741 29.009 99.44 30.497 99.883 C 33.461 100.778 36.678 100.845 39.665 100.009 C 41.151 99.583 42.605 98.996 43.91 98.151 C 45.237 97.351 46.413 96.36 47.369 95.159 C 49.281 92.771 50.306 89.692 50.214 86.628 C 50.16 83.574 48.892 80.514 46.837 78.323 C 44.767 76.115 41.644 74.987 38.621 75.226 C 37.105 75.331 35.626 75.819 34.31 76.58 C 32.984 77.328 31.89 78.392 31.161 79.71 C 29.663 82.322 29.793 85.766 31.51 88.273 C 31.738 88.607 31.653 89.062 31.32 89.291 C 30.989 89.517 30.539 89.436 30.309 89.11 L 30.302 89.101 C 28.237 86.178 28.014 82.086 29.763 78.939 C 30.604 77.358 31.94 76.033 33.467 75.148 C 34.982 74.244 36.702 73.654 38.469 73.505 C 41.994 73.175 45.677 74.446 48.166 77.022 C 50.63 79.605 52.021 83.041 52.127 86.567 C 52.25 90.08 51.091 93.62 48.899 96.383 C 47.81 97.765 46.435 98.934 44.954 99.835 C 43.497 100.783 41.87 101.456 40.203 101.939 C 36.852 102.893 33.239 102.837 29.903 101.845 C 28.229 101.353 26.653 100.579 25.174 99.662 C 23.717 98.701 22.399 97.542 21.245 96.234 C 16.808 90.909 14.956 83.546 16.52 76.788 C 17.262 73.418 18.754 70.208 20.888 67.482 C 23.031 64.755 25.857 62.616 28.868 61.027 C 34.935 57.805 42.217 57.055 48.818 58.782 C 52.12 59.65 55.257 61.116 58.027 63.089 C 60.784 65.083 63.157 67.578 65.028 70.391 C 65.252 70.728 65.16 71.183 64.824 71.407 C 64.496 71.625 64.056 71.544 63.827 71.228 L 63.82 71.219 Z" fill="#000000" stroke="none"/><path d="M 185.973 104.428 C 185.973 104.428 167.124 94.712 139.234 96.823 C 104.428 99.456 85.866 109.732 63.637 80.29 C 63.637 80.29 66.376 106.748 92.827 108.074 C 123.287 109.601 143.875 92.826 185.973 104.428 Z" fill="#000000" stroke="none"/><path d="M 60.632 55.7 C 47.414 31.17 82.883 23.367 56.032 2 C 63.63 27.286 44.761 34.688 60.632 55.7 Z" fill="#000000" stroke="none"/><path d="M 51.538 29.243 C 57.557 19.367 50.451 17.245 53.941 9.415 C 42.726 15.921 45.403 25.388 51.538 29.243 Z" fill="#000000" stroke="none"/><path d="M 97.881 31.502 C 107.705 37.605 109.887 30.517 117.687 34.074 C 111.277 22.804 101.788 25.4 97.881 31.502 Z" fill="#000000" stroke="none"/><path d="M 29.707 80.021 C 37.624 85.517 32.924 89.53 38.224 94.319 C 27.485 93.143 26.333 85.027 29.707 80.021 Z" fill="#000000" stroke="none"/><path d="M 28.024 57.026 C 9.293 53.845 12.608 66.639 2 71.86 C 23.215 70.617 19.569 59.929 28.024 57.026 Z" fill="#000000" stroke="none"/><path d="M 43.731 53.866 C 32.937 40.34 27.425 51.041 17.052 48.151 C 32.217 60.179 36.226 50.707 43.731 53.866 Z" fill="#000000" stroke="none"/>
</svg>
