<?xml version="1.0" encoding="UTF-8"?>
<svg xmlns="http://www.w3.org/2000/svg" width="86.614" height="77.329" viewBox="0 0 86.614 77.329">
  <path d="M 65.739 44.754 C 66.548 45.65 67.299 46.639 67.905 47.768 C 68.504 48.896 68.981 50.178 69.065 51.584 C 69.164 52.98 68.826 54.46 68.1 55.667 C 67.383 56.883 66.344 57.821 65.213 58.476 C 62.939 59.785 60.281 60.126 57.811 59.575 C 55.332 59.032 53.111 57.494 51.672 55.5 C 50.945 54.508 50.381 53.424 49.964 52.31 C 49.54 51.193 49.285 50.036 49.054 48.976 C 48.584 46.807 48.224 44.606 48.031 42.379 C 47.653 37.938 47.885 33.348 49.292 28.991 C 50.683 24.663 53.32 20.571 57.152 17.875 C 60.933 15.156 65.72 13.806 70.435 14.331 C 72.786 14.585 75.127 15.303 77.213 16.555 C 79.295 17.803 81.094 19.596 82.341 21.727 C 83.603 23.85 84.31 26.271 84.527 28.676 C 84.754 31.088 84.516 33.479 84.073 35.787 C 83.842 36.989 82.681 37.777 81.479 37.546 C 80.277 37.316 79.49 36.155 79.72 34.953 C 79.734 34.878 79.754 34.802 79.775 34.73 C 80.921 30.929 81.007 26.81 79.273 23.445 C 78.394 21.786 77.092 20.357 75.494 19.299 C 73.894 18.241 72.015 17.564 70.064 17.268 C 66.143 16.682 61.973 17.73 58.67 20.024 C 55.341 22.318 52.926 25.844 51.683 29.766 C 50.424 33.697 50.14 37.959 50.564 42.15 C 50.768 44.249 51.13 46.34 51.601 48.408 C 51.837 49.468 52.073 50.435 52.451 51.34 C 52.819 52.249 53.295 53.095 53.871 53.84 C 55.02 55.332 56.637 56.363 58.423 56.709 C 60.194 57.058 62.135 56.749 63.592 55.808 C 65.065 54.865 65.848 53.383 65.645 51.864 C 65.482 50.313 64.384 48.721 63.001 47.396 C 62.241 46.669 62.215 45.463 62.942 44.704 C 63.67 43.944 64.875 43.918 65.634 44.645 C 65.667 44.677 65.699 44.709 65.728 44.742 L 65.739 44.754 Z" fill="#000000" stroke="none"/><path d="M 44.985 37.409 C 44.635 33.193 44.76 28.919 45.454 24.708 C 46.173 20.508 47.485 16.366 49.56 12.564 C 50.609 10.672 51.841 8.864 53.31 7.227 C 54.791 5.607 56.472 4.098 58.558 3.065 C 59.586 2.533 60.751 2.164 62.006 2.033 C 63.248 1.908 64.694 2.128 65.871 2.945 C 67.056 3.748 67.787 4.975 68.198 6.153 C 68.648 7.353 68.728 8.54 68.799 9.709 C 68.848 10.535 68.219 11.245 67.393 11.294 C 66.567 11.344 65.857 10.715 65.808 9.888 C 65.805 9.849 65.804 9.81 65.805 9.771 L 65.806 9.709 C 65.844 7.854 65.426 6.006 64.311 5.166 C 63.218 4.298 61.293 4.501 59.598 5.27 C 57.868 6.024 56.288 7.294 54.884 8.706 C 53.48 10.136 52.256 11.768 51.19 13.506 C 49.077 16.998 47.633 20.917 46.758 24.958 C 45.906 29.011 45.594 33.19 45.757 37.361 C 45.765 37.574 45.6 37.754 45.387 37.763 C 45.18 37.772 45.004 37.614 44.985 37.409 Z" fill="#000000" stroke="none"/><path d="M 55.108 45.99 C 54.866 45.354 54.209 44.776 53.385 44.528 C 52.562 44.277 51.599 44.33 50.717 44.693 C 50.253 44.834 49.857 45.137 49.427 45.393 L 48.871 45.909 C 48.674 46.072 48.501 46.262 48.35 46.475 L 47.866 47.088 C 47.713 47.301 47.596 47.541 47.459 47.767 C 47.332 47.999 47.196 48.228 47.081 48.469 L 46.789 49.219 C 46.03 51.229 45.666 53.43 45.67 55.627 C 45.637 57.824 45.855 60.028 46.346 62.15 C 46.821 64.276 47.711 66.297 48.96 68.006 C 50.203 69.714 51.948 71.024 53.862 71.548 C 55.765 72.06 57.832 71.729 59.176 70.564 C 60.55 69.43 61.113 67.649 60.983 65.872 C 60.903 64.762 61.737 63.797 62.847 63.717 C 63.957 63.636 64.922 64.47 65.003 65.58 C 65.014 65.738 65.007 65.893 64.983 66.042 L 64.967 66.14 C 64.749 67.467 64.301 68.782 63.596 69.961 C 62.884 71.134 61.897 72.149 60.736 72.844 C 58.387 74.241 55.546 74.278 53.26 73.35 C 52.102 72.909 51.058 72.248 50.156 71.459 C 49.258 70.659 48.519 69.728 47.871 68.758 C 47.218 67.785 46.752 66.72 46.325 65.654 C 45.953 64.568 45.631 63.47 45.412 62.355 C 44.961 60.126 44.833 57.861 44.899 55.611 C 44.931 53.361 45.21 51.095 45.872 48.894 C 46.593 46.753 47.708 44.476 49.957 43.175 C 51.048 42.535 52.372 42.14 53.757 42.242 C 55.132 42.334 56.568 42.91 57.674 44.062 L 57.853 44.25 C 58.488 44.91 58.467 45.96 57.805 46.594 C 57.145 47.228 56.095 47.206 55.461 46.546 C 55.304 46.383 55.185 46.188 55.108 45.99 Z" fill="#000000" stroke="none"/><path d="M 23.614 47.396 C 22.229 48.721 21.133 50.313 20.968 51.864 C 20.766 53.383 21.55 54.865 23.023 55.808 C 24.479 56.749 26.421 57.058 28.191 56.709 C 29.976 56.363 31.594 55.332 32.743 53.84 C 33.319 53.095 33.796 52.249 34.164 51.34 C 34.541 50.435 34.777 49.468 35.013 48.408 C 35.485 46.34 35.846 44.249 36.05 42.15 C 36.474 37.959 36.191 33.697 34.93 29.766 C 33.687 25.844 31.274 22.318 27.945 20.024 C 24.641 17.73 20.471 16.682 16.55 17.268 C 14.599 17.564 12.72 18.241 11.121 19.299 C 9.522 20.357 8.219 21.786 7.342 23.445 C 5.608 26.81 5.694 30.929 6.84 34.73 C 7.193 35.902 6.529 37.138 5.357 37.491 C 4.185 37.845 2.949 37.181 2.596 36.01 C 2.574 35.937 2.555 35.86 2.542 35.787 C 2.097 33.479 1.861 31.088 2.088 28.676 C 2.304 26.271 3.01 23.85 4.274 21.727 C 5.519 19.596 7.319 17.803 9.402 16.555 C 11.488 15.303 13.828 14.585 16.179 14.331 C 20.894 13.806 25.68 15.156 29.462 17.875 C 33.295 20.571 35.93 24.663 37.323 28.991 C 38.729 33.348 38.962 37.938 38.584 42.379 C 38.389 44.606 38.031 46.807 37.56 48.976 C 37.329 50.036 37.075 51.193 36.651 52.31 C 36.233 53.424 35.67 54.508 34.943 55.5 C 33.504 57.494 31.282 59.032 28.803 59.575 C 26.333 60.126 23.675 59.785 21.401 58.476 C 20.27 57.821 19.232 56.883 18.514 55.667 C 17.789 54.46 17.451 52.98 17.55 51.584 C 17.633 50.178 18.111 48.896 18.71 47.768 C 19.316 46.639 20.067 45.65 20.876 44.754 L 20.883 44.746 C 21.587 43.965 22.791 43.902 23.572 44.606 C 24.353 45.31 24.416 46.514 23.712 47.295 C 23.68 47.329 23.646 47.365 23.614 47.396 Z" fill="#000000" stroke="none"/><path d="M 40.858 37.361 C 41.02 33.19 40.709 29.011 39.857 24.958 C 38.982 20.917 37.538 16.998 35.424 13.506 C 34.359 11.768 33.134 10.136 31.73 8.706 C 30.327 7.294 28.746 6.024 27.016 5.27 C 25.322 4.501 23.396 4.298 22.303 5.166 C 21.188 6.006 20.769 7.854 20.807 9.709 L 20.809 9.768 C 20.826 10.595 20.169 11.28 19.342 11.297 C 18.514 11.314 17.831 10.657 17.813 9.83 C 17.812 9.79 17.813 9.748 17.815 9.709 C 17.885 8.54 17.967 7.353 18.417 6.153 C 18.828 4.975 19.557 3.748 20.743 2.945 C 21.921 2.128 23.367 1.908 24.609 2.033 C 25.864 2.164 27.028 2.533 28.055 3.065 C 30.142 4.098 31.823 5.607 33.303 7.227 C 34.774 8.864 36.006 10.672 37.053 12.564 C 39.13 16.366 40.441 20.508 41.16 24.708 C 41.853 28.919 41.978 33.193 41.629 37.409 C 41.611 37.622 41.425 37.78 41.212 37.762 C 41.006 37.745 40.85 37.566 40.858 37.361 Z" fill="#000000" stroke="none"/><path d="M 28.941 44.062 C 30.047 42.91 31.483 42.334 32.858 42.242 C 34.242 42.14 35.567 42.535 36.657 43.175 C 38.907 44.476 40.02 46.753 40.743 48.894 C 41.404 51.095 41.682 53.361 41.716 55.611 C 41.782 57.861 41.654 60.126 41.202 62.355 C 40.984 63.47 40.662 64.568 40.29 65.654 C 39.862 66.72 39.396 67.785 38.743 68.758 C 38.095 69.728 37.355 70.659 36.459 71.459 C 35.555 72.248 34.512 72.909 33.354 73.35 C 31.068 74.278 28.227 74.241 25.879 72.844 C 24.717 72.149 23.729 71.134 23.018 69.961 C 22.312 68.782 21.866 67.467 21.647 66.14 L 21.633 66.053 C 21.453 64.955 22.197 63.918 23.295 63.738 C 24.393 63.558 25.429 64.302 25.61 65.4 C 25.635 65.556 25.641 65.721 25.631 65.872 C 25.502 67.649 26.064 69.43 27.437 70.564 C 28.783 71.729 30.848 72.06 32.752 71.548 C 34.667 71.024 36.412 69.714 37.655 68.006 C 38.904 66.297 39.794 64.276 40.268 62.15 C 40.758 60.028 40.977 57.824 40.945 55.627 C 40.949 53.43 40.585 51.229 39.825 49.219 L 39.533 48.469 C 39.418 48.228 39.282 47.999 39.156 47.767 C 39.017 47.541 38.901 47.301 38.749 47.088 L 38.263 46.475 C 38.113 46.262 37.941 46.072 37.744 45.909 L 37.187 45.393 C 36.758 45.137 36.362 44.834 35.898 44.693 C 35.014 44.33 34.052 44.277 33.228 44.528 C 32.405 44.776 31.749 45.354 31.506 45.99 C 31.179 46.845 30.22 47.273 29.365 46.947 C 28.509 46.62 28.082 45.661 28.408 44.806 C 28.489 44.595 28.608 44.409 28.755 44.255 L 28.941 44.062 Z" fill="#000000" stroke="none"/><path d="M 40.855 5.741 C 40.855 7.095 41.953 8.192 43.307 8.192 C 44.661 8.192 45.758 7.095 45.758 5.741 C 45.758 4.387 44.661 3.289 43.307 3.289 C 41.953 3.289 40.855 4.387 40.855 5.741 Z" fill="#000000" stroke="none"/><path d="M 40.855 72.878 C 40.855 74.232 41.953 75.329 43.307 75.329 C 44.661 75.329 45.758 74.232 45.758 72.878 C 45.758 71.524 44.661 70.426 43.307 70.426 C 41.953 70.426 40.855 71.524 40.855 72.878 Z" fill="#000000" stroke="none"/>
</svg>
