<?xml version="1.0" encoding="UTF-8"?>
<svg xmlns="http://www.w3.org/2000/svg" width="156.404" height="115.392" viewBox="0.000 0.000 156.404 115.392">
  <path d="M 154.247 76.991 C 152.806 79.102 150.781 80.81 148.524 82.015 C 146.264 83.227 143.81 84.027 141.321 84.489 C 138.83 84.976 136.307 85.165 133.798 85.182 C 131.287 85.215 128.782 85.09 126.302 84.812 C 121.334 84.281 116.449 83.298 111.64 82.076 C 106.83 80.854 102.1 79.365 97.439 77.704 C 92.785 76.022 88.188 74.192 83.688 72.132 C 81.409 71.089 79.278 70.078 77.007 69.221 C 75.89 68.766 74.736 68.406 73.601 67.993 C 72.444 67.646 71.298 67.257 70.128 66.951 C 60.823 64.402 50.925 63.387 41.383 64.977 C 36.627 65.743 31.977 67.249 27.898 69.669 C 25.843 70.855 24.014 72.37 22.412 74.061 C 21.589 74.894 20.922 75.848 20.235 76.784 L 19.354 78.283 C 19.04 78.772 18.859 79.33 18.602 79.849 C 17.699 81.975 17.068 84.237 16.9 86.572 L 16.804 87.442 L 16.792 88.321 L 16.774 90.078 L 16.907 91.84 L 16.973 92.72 L 17.124 93.578 L 17.422 95.292 C 17.573 95.847 17.751 96.393 17.91 96.944 C 17.995 97.217 18.068 97.496 18.162 97.765 L 18.51 98.544 C 18.759 99.053 18.929 99.606 19.236 100.08 C 20.288 102.088 21.862 103.747 23.648 105.058 C 25.451 106.355 27.532 107.278 29.733 107.743 C 31.935 108.201 34.222 108.261 36.456 107.963 C 40.917 107.395 45.236 105.271 47.945 101.948 C 49.295 100.292 50.193 98.351 50.575 96.309 C 51.004 94.266 50.741 92.106 50.21 90.024 C 50.051 89.503 49.929 88.977 49.748 88.461 L 49.103 86.931 C 48.991 86.677 48.901 86.419 48.776 86.169 L 48.365 85.43 L 47.55 83.953 C 46.935 82.998 46.259 82.069 45.614 81.132 L 43.402 78.462 L 43.333 78.379 C 42.348 77.189 42.513 75.426 43.703 74.44 C 44.893 73.455 46.656 73.62 47.642 74.81 C 47.653 74.823 47.671 74.847 47.682 74.861 C 50.878 78.906 53.684 83.538 54.894 88.916 C 55.446 91.587 55.644 94.459 54.944 97.227 C 54.3 99.988 52.923 102.555 51.082 104.624 C 47.384 108.804 42.13 111.05 36.873 111.559 C 34.234 111.82 31.551 111.657 28.96 111.022 C 26.372 110.38 23.901 109.194 21.781 107.553 C 19.67 105.905 17.886 103.816 16.683 101.447 C 16.339 100.878 16.144 100.242 15.87 99.641 L 15.491 98.728 C 15.388 98.417 15.309 98.099 15.218 97.785 C 15.046 97.154 14.859 96.526 14.704 95.893 L 14.407 93.972 L 14.261 93.011 L 14.207 92.054 L 14.103 90.14 C 14.108 89.499 14.142 88.857 14.16 88.215 L 14.196 87.254 L 14.319 86.294 C 14.56 83.729 15.307 81.202 16.371 78.845 C 16.667 78.269 16.892 77.654 17.25 77.111 L 18.271 75.456 C 19.053 74.424 19.824 73.383 20.747 72.481 C 22.551 70.648 24.588 69.046 26.815 67.817 C 31.248 65.309 36.146 63.877 41.07 63.077 C 46.007 62.268 51.014 62.133 55.981 62.412 C 60.954 62.666 65.892 63.456 70.735 64.638 C 71.949 64.923 73.142 65.29 74.347 65.615 C 75.532 66.007 76.735 66.346 77.906 66.784 C 80.258 67.593 82.6 68.621 84.814 69.559 C 89.313 71.438 93.863 73.208 98.464 74.814 C 107.657 78.021 117.047 80.795 126.627 82.134 C 129.019 82.467 131.42 82.718 133.821 82.78 C 136.221 82.868 138.624 82.789 140.974 82.433 C 143.319 82.073 145.643 81.532 147.782 80.545 C 149.917 79.568 151.853 78.155 153.37 76.331 C 153.564 76.097 153.909 76.064 154.144 76.257 C 154.364 76.439 154.404 76.759 154.247 76.991 Z" fill="#000000" stroke="none"/>
  <path d="M 65.304 65.179 C 60.959 64.688 56.789 63.582 52.645 62.339 C 48.514 61.059 44.437 59.551 40.477 57.688 C 36.528 55.812 32.645 53.654 29.111 50.759 C 27.35 49.31 25.672 47.673 24.228 45.731 C 22.79 43.796 21.585 41.513 20.996 38.939 L 20.984 38.885 C 20.619 37.293 21.614 35.708 23.205 35.343 C 24.797 34.979 26.383 35.973 26.747 37.565 C 26.771 37.664 26.788 37.766 26.8 37.864 C 27.205 41.154 29.423 44.475 32.249 47.258 C 35.086 50.077 38.524 52.462 42.108 54.591 C 45.707 56.717 49.518 58.552 53.421 60.174 C 57.327 61.761 61.351 63.236 65.452 64.092 L 65.478 64.097 C 65.774 64.159 65.964 64.45 65.903 64.747 C 65.844 65.026 65.581 65.21 65.304 65.179 Z" fill="#000000" stroke="none"/>
  <path d="M 38.079 61.307 C 36.235 61.148 34.483 60.644 32.795 60.019 C 31.106 59.39 29.471 58.63 27.886 57.773 C 24.722 56.051 21.727 53.968 19.057 51.422 C 16.408 48.876 13.997 45.857 12.586 42.099 C 11.89 40.23 11.485 38.17 11.52 36.068 C 11.547 33.966 12.026 31.858 12.831 29.933 L 12.853 29.881 C 13.468 28.412 15.157 27.719 16.625 28.334 C 18.094 28.949 18.786 30.638 18.172 32.107 C 18.129 32.208 18.074 32.321 18.021 32.415 C 16.618 34.89 16.211 37.77 16.961 40.717 C 17.69 43.662 19.414 46.527 21.546 49.07 C 23.688 51.625 26.268 53.894 29.068 55.845 C 30.47 56.818 31.937 57.709 33.461 58.477 C 34.984 59.244 36.578 59.892 38.21 60.217 L 38.234 60.222 C 38.532 60.281 38.724 60.57 38.665 60.868 C 38.61 61.145 38.355 61.331 38.079 61.307 Z" fill="#000000" stroke="none"/>
  <path d="M 15.828 73.508 C 14.531 74.483 13.43 75.828 12.503 77.242 C 11.578 78.668 10.802 80.192 10.204 81.775 C 9.007 84.939 8.478 88.318 8.754 91.578 C 9.011 94.843 10.109 97.958 11.837 100.68 C 13.534 103.427 15.884 105.762 18.463 107.799 L 18.491 107.821 C 19.712 108.786 19.92 110.56 18.955 111.782 C 17.99 113.004 16.216 113.212 14.994 112.247 C 14.923 112.191 14.853 112.129 14.789 112.068 C 12.04 109.429 9.54 106.413 7.82 102.91 C 6.955 101.17 6.267 99.335 5.817 97.443 C 5.377 95.549 5.169 93.609 5.198 91.688 C 5.25 87.839 6.245 84.1 7.896 80.759 C 8.723 79.087 9.728 77.513 10.885 76.061 C 12.054 74.618 13.365 73.272 15.024 72.26 C 15.373 72.047 15.83 72.157 16.044 72.507 C 16.244 72.836 16.159 73.258 15.859 73.485 L 15.828 73.508 Z" fill="#000000" stroke="none"/>
  <path d="M 36.968 84.073 C 36.968 85.838 38.398 87.268 40.162 87.268 C 41.926 87.268 43.357 85.838 43.357 84.073 C 43.357 82.309 41.926 80.879 40.162 80.879 C 38.398 80.879 36.968 82.309 36.968 84.073 Z" fill="#000000" stroke="none"/>
  <path d="M 99.171 44.062 C 99.171 45.826 100.601 47.256 102.366 47.256 C 104.129 47.256 105.56 45.826 105.56 44.062 C 105.56 42.298 104.129 40.867 102.366 40.867 C 100.601 40.867 99.171 42.298 99.171 44.062 Z" fill="#000000" stroke="none"/>
  <path d="M 2 35.207 C 2 36.971 3.43 38.402 5.194 38.402 C 6.958 38.402 8.388 36.971 8.388 35.207 C 8.388 33.443 6.958 32.013 5.194 32.013 C 3.43 32.013 2 33.443 2 35.207 Z" fill="#000000" stroke="none"/>
  <path d="M 3.762 43.594 C 3.762 45.1 4.983 46.32 6.489 46.32 C 7.994 46.32 9.215 45.1 9.215 43.594 C 9.215 42.088 7.994 40.867 6.489 40.867 C 4.983 40.867 3.762 42.088 3.762 43.594 Z" fill="#000000" stroke="none"/>
  <path d="M 75.105 64.085 C 72.483 63.186 69.925 62.08 67.491 60.716 C 65.081 59.311 62.806 57.661 60.739 55.765 C 56.582 51.992 53.396 47.136 51.509 41.803 C 49.629 36.469 49.094 30.602 50.225 24.963 C 51.331 19.335 54.201 13.952 58.522 10.014 C 60.655 8.04 63.157 6.421 65.733 5.206 C 66.995 4.546 68.355 4.057 69.697 3.535 L 71.782 2.91 C 72.477 2.698 73.209 2.592 73.923 2.431 C 76.806 1.898 79.848 1.82 82.829 2.423 C 85.804 3.017 88.713 4.289 91.116 6.252 C 93.52 8.196 95.515 10.712 96.684 13.63 C 97.326 15.065 97.664 16.623 97.913 18.188 C 98.057 19.768 98.118 21.385 97.804 22.978 C 97.328 26.183 95.677 29.199 93.445 31.502 C 91.203 33.832 88.385 35.389 85.527 36.393 L 85.479 36.41 C 83.994 36.931 82.368 36.151 81.847 34.666 C 81.325 33.181 82.106 31.555 83.591 31.034 C 83.626 31.021 83.672 31.007 83.708 30.995 C 88.235 29.623 91.828 26.37 92.624 22.048 C 93.532 17.763 91.585 12.921 88.059 9.989 C 84.544 6.941 79.51 5.966 74.67 6.763 C 74.065 6.887 73.45 6.948 72.849 7.118 L 71.039 7.607 C 69.856 8.039 68.654 8.424 67.504 8.99 C 65.172 10.017 63.057 11.315 61.172 12.958 C 57.4 16.216 54.788 20.764 53.675 25.701 C 52.544 30.641 52.864 35.929 54.442 40.816 C 56.026 45.702 58.813 50.239 62.568 53.833 C 64.435 55.638 66.51 57.232 68.732 58.611 C 70.979 59.948 73.363 61.057 75.828 61.978 L 75.856 61.988 C 76.432 62.203 76.725 62.844 76.509 63.421 C 76.298 63.987 75.673 64.278 75.105 64.085 Z" fill="#000000" stroke="none"/>
</svg>