<?xml version="1.0" encoding="UTF-8"?>
<svg xmlns="http://www.w3.org/2000/svg" width="106.557" height="165.865" viewBox="0 0 106.557 165.865">
  <path d="M 77.578 9.98 C 71.821 17.031 67.739 25.273 65.238 33.932 C 62.693 42.588 61.535 51.619 61.558 60.638 C 61.55 65.148 61.834 69.673 62.562 74.136 C 62.895 76.373 63.387 78.582 63.934 80.778 C 64.545 82.955 65.201 85.127 66.082 87.212 C 66.955 89.296 67.917 91.355 69.14 93.256 C 69.721 94.217 70.363 95.178 70.971 96.139 L 72.756 99.061 C 75.053 103.007 77.254 107.015 79.197 111.157 C 83.119 119.41 86.281 128.099 87.906 137.188 C 88.678 141.729 89.127 146.392 88.511 151.09 C 88.2 153.427 87.582 155.79 86.365 157.942 C 85.17 160.08 83.25 161.98 80.886 162.904 C 80.291 163.087 79.696 163.33 79.098 163.452 C 78.499 163.56 77.906 163.689 77.302 163.776 C 76.686 163.807 76.073 163.864 75.453 163.865 C 74.83 163.795 74.202 163.804 73.585 163.658 C 71.109 163.189 68.721 161.634 67.509 159.392 C 66.204 157.206 65.852 154.643 66.132 152.226 C 66.395 149.795 67.451 147.47 69.061 145.627 C 70.674 143.764 73.013 142.621 75.371 142.235 C 77.752 141.84 80.143 142.162 82.38 142.788 C 86.846 144.159 90.788 146.661 94.327 149.525 C 94.37 149.559 94.377 149.622 94.342 149.665 C 94.309 149.706 94.25 149.714 94.207 149.684 C 90.484 147.092 86.442 144.875 82.12 143.765 C 79.963 143.261 77.723 143.073 75.616 143.52 C 73.52 143.963 71.585 145.037 70.238 146.657 C 67.526 149.851 66.984 154.918 69.159 158.393 C 70.194 160.155 71.99 161.27 73.967 161.644 C 75.932 162.027 78.197 161.646 80.079 160.929 C 81.973 160.164 83.487 158.7 84.512 156.886 C 85.545 155.069 86.118 152.951 86.449 150.794 C 87.089 146.451 86.741 141.925 86.05 137.498 C 84.582 128.621 81.742 119.948 78.199 111.608 C 76.388 107.451 74.426 103.346 72.149 99.415 L 70.41 96.487 C 69.812 95.517 69.201 94.575 68.615 93.58 C 67.407 91.628 66.376 89.573 65.484 87.463 C 61.91 79.014 60.198 69.84 59.894 60.663 C 59.633 51.474 60.947 42.231 63.757 33.474 C 66.571 24.737 71.08 16.44 77.43 9.847 C 77.468 9.807 77.532 9.806 77.572 9.844 C 77.61 9.88 77.612 9.94 77.578 9.98 Z" fill="#000000" stroke="none"/><path d="M 82.073 138.43 C 81.666 136.71 81.063 135.061 80.42 133.435 C 79.725 131.827 78.981 130.244 78.129 128.715 C 76.48 125.635 74.584 122.693 72.524 119.886 C 70.44 117.096 68.21 114.417 65.745 111.979 C 63.297 109.531 60.656 107.275 57.773 105.404 C 54.913 103.507 51.804 101.989 48.525 101.095 C 45.255 100.169 41.807 99.961 38.444 100.481 C 35.079 101.013 31.832 102.293 28.839 104.046 C 25.824 105.795 23.177 108.113 20.572 110.491 C 22.848 107.802 25.393 105.302 28.309 103.221 C 31.263 101.216 34.593 99.652 38.168 98.945 C 41.734 98.197 45.48 98.381 49.008 99.264 C 52.543 100.166 55.85 101.769 58.869 103.733 C 64.884 107.74 69.808 113.103 73.794 118.99 C 75.79 121.939 77.538 125.05 79.004 128.286 C 80.418 131.532 81.666 134.91 82.073 138.43 Z" fill="#000000" stroke="none"/><path d="M 79.101 104.123 C 78.032 102.132 76.974 100.126 75.937 98.106 C 75.041 96.024 74.112 93.947 73.27 91.831 L 72.202 88.584 L 71.67 86.956 C 71.501 86.412 71.4 85.847 71.261 85.293 L 70.494 81.945 C 70.28 80.821 70.182 79.673 70.021 78.536 C 69.514 73.985 69.56 69.274 70.779 64.755 C 71.973 60.264 74.195 55.922 77.627 52.64 L 78.946 51.45 C 79.37 51.036 79.903 50.75 80.377 50.396 C 81.32 49.668 82.409 49.164 83.47 48.623 C 85.681 47.692 88.021 47.101 90.434 47.105 C 92.831 47.102 95.281 47.643 97.38 48.857 C 99.494 50.034 101.27 51.776 102.477 53.839 C 103.722 55.879 104.424 58.224 104.544 60.593 C 104.647 62.957 104.133 65.368 102.973 67.423 C 101.786 69.464 100.033 71.132 97.999 72.216 C 95.967 73.318 93.72 73.897 91.474 74.144 C 93.688 73.684 95.842 72.932 97.731 71.759 C 99.618 70.585 101.145 68.902 102.107 66.964 C 104.045 63.056 103.494 58.221 101.153 54.664 C 98.867 51.035 94.701 48.81 90.453 48.998 L 89.66 49.018 L 88.868 49.118 C 88.604 49.153 88.338 49.175 88.076 49.219 L 87.292 49.395 L 86.51 49.572 L 85.76 49.84 C 85.266 50.035 84.745 50.156 84.272 50.405 C 83.326 50.903 82.352 51.35 81.503 52.022 C 81.077 52.348 80.595 52.6 80.212 52.983 L 79.02 54.074 C 75.859 57.038 73.785 61.047 72.601 65.248 C 71.351 69.47 71.258 73.971 71.568 78.386 C 72.34 87.27 75.282 95.936 79.101 104.123 Z" fill="#000000" stroke="none"/><path d="M 58.662 71.5 C 57.818 69.43 56.881 67.397 55.738 65.552 C 54.603 63.704 53.229 62.07 51.608 60.906 C 48.382 58.526 44.345 58.044 40.268 58.163 C 38.475 58.215 36.979 56.804 36.927 55.011 C 36.875 53.218 38.285 51.723 40.078 51.67 C 40.341 51.663 40.598 51.686 40.845 51.739 L 40.87 51.745 C 43.244 52.26 45.627 52.953 47.892 54.046 C 50.152 55.128 52.262 56.674 53.848 58.589 C 55.454 60.494 56.497 62.688 57.201 64.876 C 57.912 67.072 58.333 69.288 58.662 71.5 Z" fill="#000000" stroke="none"/><path d="M 26.073 109.337 C 24.651 111.063 23.305 112.851 22.223 114.734 C 21.134 116.609 20.348 118.594 20.092 120.574 C 19.527 124.541 21.017 128.325 23.056 131.858 C 23.952 133.411 23.419 135.397 21.867 136.293 C 20.313 137.19 18.326 136.657 17.43 135.104 C 17.299 134.876 17.199 134.639 17.127 134.396 L 17.12 134.371 C 16.448 132.037 15.927 129.61 15.816 127.098 C 15.697 124.596 16.056 122.004 16.99 119.701 C 17.905 117.382 19.341 115.423 20.934 113.766 C 22.53 112.099 24.281 110.676 26.073 109.337 Z" fill="#000000" stroke="none"/><path d="M 16.655 111.409 C 14.968 112.622 13.328 113.897 11.868 115.301 C 10.411 116.703 9.148 118.248 8.31 119.913 C 6.617 123.265 6.907 126.943 7.916 130.54 C 8.365 132.139 7.432 133.798 5.834 134.247 C 4.236 134.695 2.576 133.763 2.127 132.164 C 2.061 131.929 2.025 131.691 2.017 131.456 L 2.016 131.407 C 1.949 129.125 2.083 126.776 2.673 124.476 C 3.253 122.183 4.343 119.979 5.843 118.238 C 7.344 116.491 9.135 115.18 10.973 114.109 C 12.818 113.039 14.729 112.188 16.655 111.409 Z" fill="#000000" stroke="none"/><path d="M 33.631 103.523 C 32.478 104.922 31.388 106.371 30.51 107.897 C 29.627 109.417 28.991 111.027 28.783 112.631 C 28.325 115.848 29.534 118.915 31.186 121.779 C 31.912 123.038 31.481 124.648 30.221 125.374 C 28.962 126.101 27.352 125.669 26.625 124.41 C 26.519 124.226 26.437 124.033 26.379 123.837 L 26.373 123.816 C 25.828 121.924 25.407 119.957 25.317 117.92 C 25.22 115.892 25.511 113.791 26.268 111.923 C 27.009 110.044 28.174 108.456 29.465 107.113 C 30.759 105.761 32.178 104.608 33.631 103.523 Z" fill="#000000" stroke="none"/><path d="M 76.445 15.379 C 77.552 13.492 78.704 11.622 80.029 9.823 C 81.357 8.031 82.854 6.287 84.778 4.824 C 86.675 3.368 89.141 2.229 91.822 2.046 C 94.493 1.825 97.136 2.424 99.494 3.331 L 99.562 3.357 C 101.238 4.002 102.075 5.884 101.429 7.56 C 100.785 9.236 98.903 10.072 97.226 9.428 C 96.975 9.331 96.729 9.196 96.518 9.049 C 95.016 7.988 93.431 7.184 91.743 6.88 C 90.059 6.548 88.23 6.828 86.417 7.599 C 84.604 8.363 82.851 9.568 81.201 10.928 C 79.547 12.293 77.978 13.818 76.445 15.379 Z" fill="#000000" stroke="none"/><path d="M 71.936 23.699 C 73.244 21.984 74.751 20.371 76.511 18.983 C 78.266 17.591 80.283 16.443 82.51 15.681 C 84.732 14.915 87.169 14.523 89.682 14.725 C 92.186 14.921 94.783 15.694 97.115 17.27 L 97.267 17.372 C 98.76 18.382 99.153 20.411 98.143 21.904 C 97.134 23.397 95.105 23.79 93.612 22.781 C 93.367 22.615 93.141 22.41 92.957 22.196 C 91.971 21.041 90.51 20.069 88.806 19.479 C 87.101 18.876 85.164 18.667 83.204 18.828 C 81.239 18.981 79.243 19.51 77.345 20.362 C 75.442 21.208 73.632 22.354 71.936 23.699 Z" fill="#000000" stroke="none"/><path d="M 83.654 113.665 C 83.174 111.561 82.901 109.371 82.96 107.131 C 83.014 104.892 83.424 102.607 84.264 100.409 C 85.099 98.211 86.358 96.087 88.121 94.287 C 89.875 92.49 92.132 90.989 94.835 90.207 L 95.012 90.156 C 96.743 89.655 98.553 90.652 99.054 92.384 C 99.555 94.115 98.557 95.925 96.826 96.426 C 96.542 96.508 96.24 96.549 95.957 96.554 C 94.439 96.572 92.757 97.072 91.212 98.004 C 89.659 98.928 88.258 100.282 87.126 101.891 C 85.986 103.497 85.114 105.371 84.553 107.373 C 83.985 109.377 83.707 111.501 83.654 113.665 Z" fill="#000000" stroke="none"/><path d="M 30.525 99.664 C 28.892 100.599 27.134 101.385 25.25 101.904 C 23.369 102.429 21.36 102.668 19.312 102.526 C 17.267 102.389 15.175 101.879 13.224 100.866 C 11.28 99.859 9.453 98.359 8.114 96.303 L 8.027 96.169 C 7.168 94.852 7.54 93.089 8.857 92.231 C 10.174 91.372 11.937 91.744 12.795 93.061 C 12.936 93.277 13.047 93.518 13.123 93.753 C 13.525 95.015 14.369 96.29 15.538 97.342 C 16.704 98.404 18.19 99.227 19.82 99.762 C 21.451 100.305 23.235 100.556 25.048 100.514 C 26.864 100.478 28.706 100.17 30.525 99.664 Z" fill="#000000" stroke="none"/><path d="M 32.264 98.11 C 29.239 97.597 26.126 96.405 23.673 94.066 C 22.451 92.912 21.394 91.497 20.688 89.837 C 19.983 88.184 19.611 86.282 19.836 84.281 L 19.851 84.15 C 19.995 82.869 21.152 81.947 22.433 82.091 C 23.714 82.236 24.636 83.392 24.492 84.673 C 24.468 84.884 24.412 85.095 24.338 85.283 C 23.933 86.29 23.801 87.539 23.993 88.815 C 24.176 90.096 24.686 91.393 25.438 92.582 C 26.187 93.777 27.185 94.868 28.355 95.788 C 29.522 96.714 30.849 97.481 32.264 98.11 Z" fill="#000000" stroke="none"/><path d="M 63.979 92.154 C 62.674 89.384 61.374 86.604 59.968 83.914 C 58.559 81.241 57.015 78.616 55.068 76.604 C 53.124 74.58 50.833 73.345 48.217 73.022 C 45.618 72.645 42.809 72.915 39.996 73.392 L 39.965 73.397 C 38.202 73.696 36.532 72.509 36.233 70.746 C 35.934 68.983 37.12 67.312 38.883 67.014 C 39.07 66.982 39.274 66.968 39.456 66.969 C 42.713 67.001 46.093 67.23 49.431 68.342 C 49.847 68.454 50.256 68.625 50.661 68.816 L 51.869 69.366 C 52.265 69.56 52.636 69.826 53.015 70.055 C 53.383 70.306 53.784 70.498 54.109 70.806 C 54.783 71.383 55.482 71.919 56.025 72.594 C 56.309 72.918 56.607 73.23 56.868 73.563 L 57.589 74.597 C 59.444 77.379 60.504 80.354 61.454 83.292 C 62.386 86.24 63.177 89.196 63.979 92.154 Z" fill="#000000" stroke="none"/>
</svg>
