<?xml version="1.0" encoding="UTF-8"?>
<svg xmlns="http://www.w3.org/2000/svg" width="155.038" height="170.319" viewBox="0 0 155.038 170.319">
  <path d="M 68.693 143.813 C 68.354 141.562 67.825 139.335 66.923 137.285 C 66.054 135.23 64.796 133.342 63.119 131.975 C 61.459 130.592 59.383 129.812 57.269 129.682 C 55.149 129.54 53.009 130.025 51.062 130.899 C 47.149 132.661 44.029 136.06 42.555 139.997 C 41.033 143.949 41.377 148.403 43.111 152.275 C 43.968 154.197 45.107 156.133 46.446 157.679 C 47.81 159.255 49.48 160.576 51.319 161.611 C 55.005 163.679 59.313 164.695 63.566 164.579 C 67.825 164.478 72.013 163.185 75.514 160.872 C 79.032 158.558 81.72 155.137 83.479 151.243 C 84.368 149.296 84.998 147.215 85.446 145.083 C 85.907 142.953 86.172 140.761 86.275 138.55 C 86.469 134.12 86.112 129.622 85.189 125.252 C 83.346 116.472 79.243 108.209 74.271 100.577 C 69.35 92.884 63.615 85.672 59.008 77.644 C 56.706 73.639 54.723 69.397 53.453 64.889 C 52.156 60.394 51.66 55.629 52.074 50.929 C 52.479 46.223 53.671 41.632 55.434 37.255 C 57.218 32.882 59.689 28.75 62.791 25.141 C 68.995 17.904 77.48 12.713 86.644 10.163 C 95.804 7.598 105.648 7.36 114.936 9.779 C 124.213 12.125 132.925 17.471 138.849 25.226 C 141.785 29.105 143.974 33.516 145.407 38.118 C 146.819 42.741 147.497 47.51 147.584 52.257 C 147.671 57.017 147.144 61.844 145.742 66.466 C 144.331 71.075 142.007 75.446 138.851 79.105 C 135.722 82.793 131.766 85.706 127.468 87.757 C 123.159 89.801 118.513 91.028 113.822 91.437 C 109.132 91.866 104.383 91.454 99.875 90.214 C 95.376 88.984 91.075 86.913 87.553 83.897 C 87.463 83.82 87.452 83.685 87.529 83.594 C 87.603 83.51 87.729 83.496 87.818 83.56 C 91.523 86.216 95.802 87.94 100.203 88.85 C 104.613 89.76 109.158 89.839 113.577 89.255 C 117.999 88.659 122.298 87.293 126.185 85.219 C 130.061 83.129 133.51 80.315 136.223 76.924 C 138.955 73.542 140.866 69.565 142.036 65.385 C 143.195 61.191 143.577 56.781 143.389 52.385 C 143.175 47.974 142.526 43.582 141.191 39.452 C 139.843 35.32 137.834 31.432 135.197 28.021 C 132.583 24.593 129.336 21.657 125.688 19.323 C 122.031 16.998 118.002 15.233 113.788 14.058 C 105.351 11.708 96.22 11.767 87.698 14.008 C 79.195 16.281 71.199 20.759 65.269 27.325 C 59.332 33.822 55.405 42.304 54.259 51.152 C 53.702 55.576 53.997 60.096 55.079 64.457 C 56.147 68.828 58.018 72.993 60.2 76.972 C 64.652 84.92 70.364 92.129 75.53 99.744 C 78.116 103.552 80.575 107.475 82.714 111.602 C 84.84 115.732 86.596 120.094 87.772 124.645 C 88.948 129.2 89.537 133.896 89.535 138.633 C 89.536 143.365 88.795 148.213 86.882 152.725 C 85.024 157.247 81.788 161.307 77.649 164.076 C 73.505 166.854 68.546 168.238 63.645 168.316 C 58.738 168.386 53.794 167.204 49.543 164.656 C 47.42 163.391 45.476 161.782 43.881 159.85 C 42.276 157.879 41.117 155.789 40.155 153.509 C 38.288 148.976 38.04 143.58 40.003 138.987 C 41.905 134.391 45.688 130.729 50.222 128.908 C 52.486 127.995 54.989 127.586 57.442 127.901 C 59.89 128.198 62.253 129.267 64.024 130.939 C 65.818 132.594 67.035 134.726 67.818 136.933 C 68.614 139.15 68.951 141.471 69.12 143.769 C 69.129 143.887 69.04 143.99 68.922 143.999 C 68.81 144.007 68.71 143.923 68.693 143.813 Z" fill="#000000" stroke="none"/><path d="M 121.153 51.835 C 119.405 48.252 117.269 44.838 114.501 42.009 C 111.747 39.178 108.337 37.029 104.614 35.886 C 100.887 34.736 96.882 34.706 93.081 35.5 C 89.27 36.311 85.664 37.937 82.358 40.003 C 75.749 44.188 70.431 50.327 66.902 57.293 C 65.141 60.787 63.841 64.491 62.891 68.287 C 61.947 72.094 61.45 76.003 61.195 80.016 L 61.195 80.016 L 61.195 80.014 C 60.548 77.508 60.15 74.942 59.831 72.369 C 59.504 69.794 59.366 67.197 59.339 64.596 C 59.317 61.995 59.423 59.388 59.684 56.789 C 59.978 54.195 60.419 51.61 61.059 49.066 C 62.36 43.997 64.445 39.038 67.632 34.807 C 70.791 30.569 75.082 27.2 79.868 25.198 C 75.54 28.057 71.816 31.604 68.93 35.749 C 66.036 39.885 63.946 44.571 62.642 49.482 C 61.964 51.932 61.473 54.439 61.125 56.968 C 60.756 59.494 60.529 62.048 60.434 64.611 C 60.28 69.735 60.472 74.896 61.195 80.014 L 61.195 80.016 L 61.195 80.016 C 60.433 76.062 60.515 71.938 61.22 67.933 C 61.923 63.918 63.358 60.049 65.225 56.435 C 68.968 49.215 74.537 42.898 81.474 38.589 C 84.933 36.432 88.783 34.864 92.81 34.115 C 96.829 33.389 101.06 33.538 104.943 34.856 C 108.841 36.137 112.273 38.578 114.95 41.588 C 117.651 44.599 119.646 48.144 121.153 51.835 Z" fill="#000000" stroke="none"/><path d="M 54.719 66.259 C 52.115 61.111 48.511 56.486 44.049 52.93 C 39.618 49.394 34.272 46.842 28.684 46.522 C 25.907 46.381 23.12 46.834 20.57 47.878 C 18.028 48.949 15.74 50.586 13.811 52.583 C 11.902 54.572 10.207 56.928 9.012 59.375 C 7.859 61.851 7.263 64.588 7.569 67.275 C 7.815 69.96 8.911 72.551 10.587 74.684 C 12.261 76.83 14.525 78.502 17.039 79.549 C 18.305 80.051 19.625 80.422 20.979 80.592 C 22.331 80.734 23.704 80.744 25.054 80.528 C 26.391 80.283 27.731 79.948 28.969 79.347 C 29.614 79.108 30.189 78.714 30.803 78.403 C 31.372 78.013 31.969 77.657 32.506 77.218 C 33.038 76.772 33.6 76.36 34.08 75.85 L 34.829 75.118 C 35.068 74.868 35.279 74.6 35.507 74.343 C 36.371 73.283 37.064 72.093 37.474 70.808 C 38.325 68.24 37.831 65.307 36.273 63.02 C 34.769 60.709 32.344 58.911 29.584 58.351 C 26.831 57.726 23.798 58.817 21.973 61.082 C 22.819 59.915 23.966 58.937 25.322 58.358 C 26.677 57.783 28.207 57.608 29.671 57.847 C 32.618 58.295 35.288 60.055 37.053 62.482 C 38.848 64.89 39.556 68.194 38.689 71.167 C 38.28 72.652 37.524 74.014 36.599 75.211 C 36.358 75.502 36.126 75.806 35.875 76.084 L 35.097 76.886 C 34.598 77.44 34.007 77.904 33.445 78.398 C 31.152 80.321 28.322 81.67 25.327 82.199 C 23.826 82.463 22.292 82.48 20.776 82.343 C 19.26 82.177 17.777 81.786 16.355 81.247 C 13.526 80.116 11.001 78.248 9.105 75.854 C 7.21 73.469 5.941 70.534 5.648 67.469 C 5.315 64.397 6.014 61.295 7.309 58.563 C 7.642 57.885 8.022 57.225 8.399 56.578 L 9.63 54.724 L 10.995 52.958 C 11.496 52.405 11.981 51.836 12.507 51.306 C 14.616 49.189 17.138 47.437 19.938 46.312 C 22.742 45.2 25.807 44.787 28.783 45.023 C 34.785 45.51 40.252 48.408 44.652 52.208 C 49.017 56.094 52.506 60.92 54.719 66.259 Z" fill="#000000" stroke="none"/><path d="M 81.05 164.4 C 82.439 163.476 83.725 162.432 84.921 161.302 C 86.077 160.127 87.184 158.909 88.117 157.558 C 90.077 154.93 91.539 151.971 92.68 148.928 C 93.793 145.867 94.545 142.678 94.854 139.44 C 95.191 136.209 95.157 132.938 94.745 129.712 C 93.993 123.24 91.771 116.981 88.662 111.207 C 87.129 108.302 85.322 105.537 83.378 102.867 C 81.497 100.138 79.275 97.674 77.111 95.139 C 82.063 99.577 86.568 104.643 89.976 110.465 C 91.704 113.355 93.153 116.42 94.319 119.598 C 95.441 122.793 96.237 126.109 96.663 129.478 C 97.462 136.211 96.731 143.207 94.079 149.474 C 92.768 152.599 91.059 155.572 88.858 158.14 C 86.66 160.698 84.054 162.934 81.05 164.4 Z" fill="#000000" stroke="none"/><path d="M 90.389 84.118 C 91.804 83.541 92.482 81.926 91.904 80.511 C 91.326 79.097 89.712 78.418 88.297 78.996 C 86.883 79.573 86.204 81.189 86.782 82.603 C 87.359 84.018 88.975 84.696 90.389 84.118 Z" fill="#000000" stroke="none"/><path d="M 67.217 146.352 C 68.632 145.774 69.311 144.16 68.733 142.745 C 68.155 141.331 66.54 140.652 65.126 141.229 C 63.711 141.807 63.032 143.423 63.61 144.837 C 64.188 146.252 65.803 146.929 67.217 146.352 Z" fill="#000000" stroke="none"/><path d="M 119.432 55.11 C 120.847 54.532 121.526 52.918 120.947 51.503 C 120.37 50.089 118.755 49.41 117.341 49.988 C 115.926 50.565 115.247 52.18 115.825 53.595 C 116.402 55.01 118.018 55.688 119.432 55.11 Z" fill="#000000" stroke="none"/><path d="M 25.185 65.301 C 26.6 64.723 27.277 63.109 26.7 61.694 C 26.122 60.28 24.508 59.601 23.093 60.179 C 21.679 60.757 21 62.371 21.578 63.786 C 22.155 65.2 23.771 65.879 25.185 65.301 Z" fill="#000000" stroke="none"/><path d="M 48.448 53.498 C 47.083 51.16 45.29 49.136 43.175 47.543 C 41.089 45.917 38.742 44.663 36.293 43.716 C 31.384 41.858 26.011 41.184 20.859 41.946 C 15.724 42.661 10.76 44.987 7.394 48.966 C 3.98 52.936 2.482 58.286 2.062 63.648 C 1.884 60.949 2.086 58.21 2.693 55.522 C 3.34 52.848 4.501 50.248 6.218 48.021 C 7.904 45.769 10.151 43.955 12.615 42.611 C 15.099 41.282 17.819 40.454 20.578 40.034 C 26.111 39.257 31.812 40.076 36.869 42.328 C 39.399 43.448 41.762 44.955 43.786 46.827 C 45.774 48.724 47.473 50.963 48.448 53.498 Z" fill="#000000" stroke="none"/><path d="M 69.651 16.135 C 74.059 12.645 78.842 9.609 83.949 7.163 C 89.073 4.754 94.593 3.136 100.243 2.407 C 105.894 1.666 111.692 1.938 117.274 3.209 C 122.855 4.493 128.194 6.827 132.957 10.022 C 137.685 13.27 141.815 17.379 145.066 22.095 C 148.295 26.821 150.688 32.132 151.94 37.71 C 153.23 43.278 153.378 49.091 152.411 54.687 C 151.421 60.279 149.438 65.663 146.588 70.512 C 151.613 60.474 153.293 48.788 150.473 38.061 C 147.75 27.349 140.978 17.803 131.871 11.619 C 122.765 5.396 111.415 2.732 100.414 3.9 C 94.914 4.481 89.468 5.857 84.327 8.026 C 79.161 10.15 74.316 12.996 69.651 16.135 Z" fill="#000000" stroke="none"/>
</svg>
