<?xml version="1.0" encoding="UTF-8"?>
<svg xmlns="http://www.w3.org/2000/svg" width="134.635" height="86.141" viewBox="0 0 134.635 86.141">
  <path d="M 96.675 34.06 C 94.592 31.95 93.03 29.115 92.698 26.126 C 92.27 23.144 92.894 20.204 93.978 17.586 C 96.267 12.396 100.664 8.244 106.085 6.518 C 108.78 5.669 111.711 5.437 114.484 5.995 C 117.263 6.521 119.848 7.713 122.09 9.27 C 124.332 10.833 126.296 12.705 127.979 14.852 C 129.649 17 130.952 19.465 131.735 22.094 C 133.337 27.364 132.737 33.155 130.425 38.039 C 128.132 42.948 124.195 47.034 119.412 49.52 C 114.637 52.047 109.067 52.871 103.801 52.155 C 101.154 51.8 98.597 51.143 96.136 50.244 C 93.666 49.36 91.279 48.255 89.004 46.972 C 84.438 44.411 80.373 41.136 76.52 37.757 C 72.656 34.381 68.969 30.872 64.972 27.839 C 60.991 24.807 56.609 22.329 51.838 21.119 C 49.461 20.511 47.009 20.183 44.543 20.18 C 42.099 20.229 39.625 20.373 37.331 21.123 C 35.032 21.817 32.869 22.913 31.084 24.469 C 29.297 26.016 27.902 27.999 27.016 30.207 C 25.247 34.632 25.412 39.821 27.245 44.215 C 28.169 46.406 29.464 48.445 31.164 50.025 C 32.851 51.606 34.862 52.794 37.042 53.325 C 39.213 53.886 41.496 53.85 43.704 53.372 C 45.925 52.912 48.032 51.86 50.032 50.715 L 50.156 50.644 C 51.553 49.844 53.334 50.328 54.134 51.725 C 54.933 53.122 54.449 54.903 53.052 55.702 C 52.9 55.789 52.728 55.867 52.568 55.923 C 49.918 56.852 47.23 57.68 44.373 57.917 C 41.537 58.144 38.61 57.875 35.912 56.893 C 33.224 55.904 30.799 54.283 28.928 52.215 C 27.057 50.152 25.623 47.759 24.703 45.2 C 22.867 40.104 22.734 34.379 24.801 29.304 C 25.823 26.779 27.449 24.471 29.526 22.684 C 31.601 20.885 34.088 19.64 36.663 18.873 C 39.245 18.048 41.932 17.897 44.569 17.857 C 47.206 17.867 49.853 18.227 52.413 18.891 C 57.564 20.207 62.22 22.902 66.339 26.029 C 70.485 29.158 74.212 32.69 78.04 36.013 C 81.859 39.343 85.805 42.492 90.16 44.915 C 92.332 46.131 94.594 47.169 96.93 47.998 C 99.269 48.826 101.693 49.411 104.103 49.706 C 108.939 50.307 113.931 49.495 118.177 47.187 C 122.43 44.918 125.898 41.221 127.873 36.86 C 129.867 32.511 130.309 27.482 128.883 22.969 C 127.506 18.442 124.247 14.563 120.289 11.937 C 118.319 10.633 116.145 9.706 113.896 9.331 C 111.649 8.927 109.34 9.174 107.193 9.898 C 102.882 11.35 99.288 14.913 97.572 19.088 C 96.753 21.181 96.393 23.437 96.771 25.518 C 97.07 27.62 98.192 29.452 99.704 30.924 L 99.746 30.966 C 100.609 31.806 100.628 33.186 99.787 34.049 C 98.947 34.911 97.568 34.93 96.705 34.09 C 96.697 34.082 96.682 34.068 96.675 34.06 Z" fill="#000000" stroke="none"/><path d="M 109.905 55.473 C 112.432 54.993 115.028 55.412 117.385 56.31 C 119.745 57.222 121.937 58.597 123.763 60.399 C 125.583 62.194 127.048 64.451 127.744 67.027 C 128.449 69.591 128.288 72.435 127.336 74.935 C 126.889 76.202 126.268 77.378 125.539 78.492 C 124.841 79.623 123.95 80.685 122.889 81.617 C 121.826 82.545 120.536 83.322 119.083 83.75 C 117.635 84.186 116.055 84.253 114.561 83.972 C 113.057 83.712 111.64 83.111 110.387 82.273 C 109.136 81.43 108.012 80.37 107.141 79.034 C 106.294 77.7 105.57 76.084 105.616 74.117 C 105.583 72.159 106.689 70.074 108.116 68.822 L 108.268 68.689 C 109.513 67.597 111.408 67.722 112.5 68.967 C 113.592 70.213 113.468 72.108 112.222 73.2 C 112.106 73.301 111.97 73.401 111.844 73.482 C 111.385 73.771 111.103 73.968 110.986 74.489 C 110.838 74.988 110.957 75.8 111.323 76.578 C 112.077 78.15 113.66 79.6 115.443 80.145 C 117.234 80.699 119.208 80.345 120.907 79.117 C 122.599 77.924 124.081 76.007 124.989 73.989 C 125.944 71.966 126.255 69.685 125.838 67.47 C 125.442 65.244 124.283 63.14 122.705 61.41 C 121.13 59.675 119.171 58.238 116.987 57.289 C 114.812 56.367 112.384 55.855 110.056 56.263 L 110.049 56.264 C 109.831 56.302 109.622 56.156 109.584 55.937 C 109.546 55.721 109.69 55.514 109.905 55.473 Z" fill="#000000" stroke="none"/><path d="M 34.93 30.924 C 36.443 29.452 37.564 27.62 37.863 25.518 C 38.241 23.437 37.88 21.181 37.062 19.088 C 35.346 14.913 31.752 11.35 27.441 9.898 C 25.294 9.174 22.985 8.927 20.738 9.331 C 18.489 9.706 16.315 10.633 14.344 11.937 C 10.387 14.563 7.128 18.442 5.751 22.969 C 4.325 27.482 4.767 32.511 6.761 36.86 C 8.736 41.221 12.204 44.918 16.457 47.187 C 20.703 49.495 25.695 50.307 30.531 49.706 C 32.941 49.411 35.365 48.826 37.704 47.998 C 40.04 47.169 42.302 46.131 44.474 44.915 C 48.829 42.492 52.775 39.343 56.593 36.013 C 60.422 32.69 64.149 29.158 68.295 26.029 C 72.414 22.902 77.07 20.207 82.221 18.891 C 84.781 18.227 87.428 17.867 90.065 17.857 C 92.701 17.897 95.389 18.048 97.971 18.873 C 100.546 19.64 103.033 20.885 105.108 22.684 C 107.185 24.471 108.811 26.779 109.833 29.304 C 111.901 34.379 111.767 40.104 109.931 45.2 C 109.011 47.759 107.577 50.152 105.705 52.215 C 103.834 54.283 101.41 55.904 98.722 56.893 C 96.024 57.875 93.097 58.144 90.261 57.917 C 87.404 57.68 84.716 56.852 82.067 55.923 C 80.547 55.391 79.747 53.729 80.279 52.209 C 80.812 50.691 82.474 49.891 83.993 50.422 C 84.159 50.481 84.316 50.552 84.464 50.635 L 84.602 50.715 C 86.601 51.86 88.708 52.912 90.93 53.372 C 93.138 53.85 95.421 53.886 97.592 53.325 C 99.772 52.794 101.783 51.606 103.47 50.025 C 105.17 48.445 106.465 46.406 107.389 44.215 C 109.222 39.821 109.387 34.632 107.618 30.207 C 106.732 27.999 105.337 26.016 103.549 24.469 C 101.765 22.913 99.602 21.817 97.303 21.123 C 95.009 20.373 92.535 20.229 90.091 20.18 C 87.625 20.183 85.173 20.511 82.796 21.119 C 78.025 22.329 73.643 24.807 69.662 27.839 C 65.665 30.872 61.978 34.381 58.114 37.757 C 54.261 41.136 50.196 44.411 45.63 46.972 C 43.355 48.255 40.968 49.36 38.498 50.244 C 36.037 51.143 33.479 51.8 30.833 52.155 C 25.568 52.871 19.997 52.047 15.222 49.52 C 10.439 47.034 6.502 42.948 4.209 38.039 C 1.897 33.155 1.297 27.364 2.899 22.094 C 3.682 19.465 4.985 17 6.655 14.852 C 8.337 12.705 10.302 10.833 12.544 9.27 C 14.786 7.713 17.371 6.521 20.15 5.995 C 22.923 5.437 25.854 5.669 28.549 6.518 C 33.97 8.244 38.367 12.396 40.656 17.586 C 41.74 20.204 42.364 23.144 41.936 26.126 C 41.604 29.115 40.042 31.95 37.959 34.06 C 37.113 34.916 35.734 34.925 34.876 34.079 C 34.02 33.233 34.011 31.853 34.858 30.996 C 34.864 30.989 34.872 30.982 34.88 30.974 L 34.93 30.924 Z" fill="#000000" stroke="none"/><path d="M 24.578 56.263 C 22.25 55.855 19.822 56.367 17.646 57.289 C 15.463 58.238 13.504 59.675 11.929 61.41 C 10.351 63.14 9.193 65.244 8.796 67.47 C 8.379 69.685 8.69 71.966 9.645 73.989 C 10.553 76.007 12.035 77.924 13.727 79.117 C 15.426 80.345 17.401 80.699 19.191 80.145 C 20.974 79.6 22.557 78.15 23.311 76.578 C 23.677 75.8 23.796 74.988 23.648 74.489 C 23.53 73.968 23.249 73.771 22.79 73.482 C 21.389 72.598 20.969 70.746 21.852 69.345 C 22.735 67.944 24.588 67.524 25.989 68.408 C 26.119 68.49 26.241 68.579 26.354 68.678 L 26.518 68.822 C 27.945 70.074 29.051 72.159 29.018 74.117 C 29.064 76.084 28.339 77.7 27.493 79.034 C 26.622 80.37 25.498 81.43 24.247 82.273 C 22.994 83.111 21.577 83.712 20.073 83.972 C 18.579 84.253 16.999 84.186 15.551 83.75 C 14.098 83.322 12.808 82.545 11.745 81.617 C 10.684 80.685 9.793 79.623 9.095 78.492 C 8.366 77.378 7.745 76.202 7.298 74.935 C 6.346 72.435 6.185 69.591 6.89 67.027 C 7.586 64.451 9.051 62.194 10.871 60.399 C 12.697 58.597 14.889 57.222 17.249 56.31 C 19.606 55.412 22.202 54.993 24.729 55.473 C 24.947 55.515 25.09 55.725 25.049 55.943 C 25.008 56.159 24.801 56.301 24.585 56.264 L 24.578 56.263 Z" fill="#000000" stroke="none"/><path d="M 68.123 68.982 C 67.973 66.61 67.858 64.214 67.956 61.794 C 68.057 59.377 68.347 56.926 69.08 54.507 C 69.808 52.106 71.04 49.69 73.025 47.796 C 74.992 45.885 77.625 44.7 80.266 44.163 C 81.423 43.927 82.552 44.674 82.788 45.831 C 83.024 46.989 82.276 48.117 81.119 48.354 C 81.04 48.369 80.961 48.381 80.882 48.388 L 80.845 48.391 C 78.802 48.561 76.852 49.15 75.227 50.359 C 73.594 51.553 72.318 53.342 71.414 55.373 C 70.504 57.408 69.932 59.66 69.548 61.956 C 69.164 64.257 68.98 66.613 68.834 68.982 C 68.821 69.179 68.652 69.328 68.456 69.316 C 68.275 69.305 68.134 69.159 68.123 68.982 Z" fill="#000000" stroke="none"/><path d="M 65.8 68.982 C 65.647 66.613 65.454 64.257 65.062 61.958 C 64.671 59.665 64.091 57.416 63.175 55.39 C 62.266 53.367 60.987 51.591 59.36 50.413 C 57.741 49.22 55.806 48.647 53.776 48.486 L 53.754 48.484 C 52.524 48.387 51.605 47.311 51.702 46.08 C 51.8 44.85 52.876 43.932 54.106 44.03 C 54.195 44.036 54.295 44.051 54.381 44.069 C 57.035 44.616 59.682 45.815 61.655 47.742 C 63.647 49.652 64.876 52.08 65.599 54.491 C 66.326 56.917 66.609 59.373 66.701 61.792 C 66.792 64.214 66.669 66.61 66.511 68.982 C 66.498 69.179 66.329 69.327 66.133 69.315 C 65.952 69.303 65.812 69.158 65.8 68.982 Z" fill="#000000" stroke="none"/><path d="M 66.645 2.39 C 66.807 5.167 66.933 7.968 66.827 10.796 C 66.719 13.621 66.406 16.483 65.615 19.319 C 64.826 22.134 63.512 24.991 61.278 27.307 C 59.069 29.645 55.96 31.146 52.844 31.744 L 52.805 31.751 C 51.464 32.009 50.167 31.13 49.909 29.788 C 49.651 28.447 50.53 27.151 51.872 26.893 C 51.964 26.875 52.07 26.862 52.161 26.855 C 54.532 26.684 56.775 25.942 58.615 24.446 C 60.468 22.967 61.886 20.794 62.893 18.38 C 63.906 15.959 64.548 13.311 64.984 10.617 C 65.423 7.917 65.642 5.159 65.822 2.386 C 65.837 2.159 66.033 1.987 66.26 2.001 C 66.47 2.015 66.633 2.185 66.645 2.39 Z" fill="#000000" stroke="none"/><path d="M 69.261 2.403 C 69.424 5.178 69.625 7.937 70.047 10.638 C 70.467 13.334 71.092 15.985 72.089 18.407 C 73.08 20.821 74.483 22.992 76.314 24.47 C 78.134 25.964 80.351 26.709 82.704 26.891 C 84.127 27.001 85.193 28.244 85.082 29.668 C 84.972 31.091 83.729 32.157 82.305 32.046 C 82.202 32.038 82.101 32.024 82.001 32.004 L 81.942 31.992 C 78.816 31.353 75.702 29.804 73.51 27.425 C 71.291 25.069 70.009 22.185 69.253 19.354 C 68.497 16.501 68.22 13.634 68.148 10.805 C 68.078 7.974 68.24 5.174 68.438 2.399 C 68.453 2.171 68.651 2 68.877 2.016 C 69.086 2.03 69.248 2.199 69.261 2.403 Z" fill="#000000" stroke="none"/>
</svg>
