<?xml version="1.0" encoding="UTF-8"?>
<svg xmlns="http://www.w3.org/2000/svg" width="91.193" height="118.867" viewBox="0 0 91.193 118.867">
  <path d="M 46.837 36.294 C 45.614 35.632 44.22 35.536 42.909 35.805 C 41.584 36.065 40.379 36.768 39.336 37.63 C 38.288 38.493 37.373 39.521 36.609 40.655 C 35.864 41.802 35.293 43.059 34.872 44.356 C 34.048 46.958 33.929 49.762 34.517 52.329 C 35.098 54.905 36.392 57.21 38.176 58.983 C 39.957 60.744 42.234 62.073 44.66 62.836 C 47.09 63.631 49.696 63.869 52.323 63.796 C 54.949 63.738 57.675 63.447 60.349 62.637 C 63.011 61.83 65.575 60.44 67.615 58.458 C 67.878 58.22 68.125 57.961 68.213 57.564 C 68.308 57.174 68.313 56.717 68.321 56.283 C 68.296 55.387 68.819 54.972 69.182 54.407 C 69.926 53.306 70.569 52.138 71.1 50.92 C 72.167 48.482 72.742 45.838 72.901 43.147 C 73.068 40.454 72.793 37.709 72.188 35.011 C 71.887 33.661 71.502 32.323 71.055 30.997 C 70.606 29.687 70.117 28.429 69.484 27.218 C 67.048 22.341 62.992 18.338 58.138 15.702 C 53.289 13.043 47.654 11.755 42.055 11.877 C 36.455 12.021 30.874 13.655 26.164 16.692 C 23.819 18.222 21.68 20.076 19.873 22.227 C 18.05 24.367 16.596 26.813 15.455 29.396 C 13.193 34.595 12.392 40.372 12.426 46.088 C 12.481 48.91 12.823 51.719 13.635 54.391 C 14.453 57.06 15.708 59.587 17.39 61.829 C 20.744 66.345 25.616 69.652 30.866 72.009 C 36.142 74.378 41.836 75.861 47.6 76.822 C 53.371 77.806 59.242 78.221 65.111 78.338 C 70.975 78.434 76.887 78.235 82.691 77.624 C 83.189 77.572 83.635 77.933 83.688 78.432 C 83.727 78.805 83.535 79.149 83.226 79.32 L 83.212 79.328 C 81.591 80.226 80.015 81.522 78.739 82.956 C 77.451 84.406 76.433 86.081 75.791 87.889 C 75.147 89.698 74.922 91.641 75.056 93.566 C 75.198 95.494 75.672 97.405 76.384 99.237 C 76.57 99.714 76.334 100.251 75.857 100.436 C 75.631 100.524 75.392 100.517 75.183 100.435 L 75.164 100.427 C 70.563 98.608 65.811 97.028 61.034 95.663 C 56.25 94.305 51.4 93.17 46.506 92.429 C 41.624 91.732 36.636 91.396 31.866 92.132 C 27.142 92.812 22.547 94.792 20.311 98.521 C 19.759 99.421 19.303 100.48 18.988 101.505 C 18.677 102.529 18.557 103.539 18.665 104.42 C 18.802 105.293 19.147 106.009 19.724 106.63 C 20.325 107.229 21.138 107.757 22.113 108.104 C 24.056 108.822 26.404 108.983 28.689 108.73 C 30.987 108.47 33.276 107.817 35.39 106.808 C 37.506 105.798 39.443 104.415 41.025 102.693 C 42.604 100.972 43.774 98.871 44.373 96.571 C 44.957 94.27 45 91.805 44.611 89.387 C 44.228 86.961 43.412 84.592 42.414 82.303 C 42.389 82.249 42.414 82.186 42.467 82.161 C 42.518 82.138 42.577 82.159 42.605 82.205 C 43.86 84.38 44.92 86.705 45.559 89.187 C 46.216 91.659 46.425 94.308 45.975 96.915 C 45.526 99.517 44.398 102.027 42.757 104.14 C 41.126 106.267 39.007 107.981 36.69 109.291 C 34.366 110.6 31.829 111.521 29.173 112.006 C 26.522 112.458 23.717 112.567 20.891 111.698 C 19.496 111.255 18.062 110.532 16.909 109.331 C 16.337 108.732 15.852 108.024 15.491 107.257 C 15.141 106.482 14.955 105.66 14.856 104.853 C 14.714 103.236 15.006 101.723 15.463 100.37 C 15.93 99.019 16.541 97.789 17.35 96.588 C 18.959 94.214 21.306 92.414 23.812 91.343 C 26.322 90.248 28.952 89.722 31.54 89.477 C 36.735 89.024 41.833 89.521 46.834 90.326 C 51.839 91.13 56.751 92.33 61.588 93.75 C 66.426 95.182 71.177 96.807 75.875 98.714 L 74.654 99.904 C 73.903 97.926 73.395 95.829 73.256 93.682 C 73.117 91.537 73.405 89.343 74.126 87.303 C 74.843 85.26 75.982 83.38 77.399 81.774 C 78.838 80.165 80.442 78.807 82.39 77.716 L 82.911 79.421 C 76.96 80.071 71.035 80.29 65.082 80.219 C 59.134 80.133 53.185 79.699 47.282 78.802 C 41.388 77.881 35.523 76.475 29.931 74.161 C 24.379 71.841 19.046 68.429 15.197 63.501 C 13.274 61.054 11.796 58.248 10.816 55.285 C 9.837 52.321 9.383 49.209 9.34 46.128 C 9.284 43.079 9.529 40.031 10.087 37.017 C 10.627 34.004 11.514 31.04 12.757 28.218 C 15.209 22.568 19.232 17.514 24.402 14.031 C 29.564 10.535 35.712 8.629 41.911 8.29 C 48.114 7.966 54.44 9.19 60.06 12.047 C 65.671 14.885 70.52 19.457 73.514 25.109 C 74.282 26.503 74.904 27.993 75.445 29.464 C 75.982 30.925 76.43 32.427 76.781 33.96 C 77.492 37.02 77.847 40.21 77.673 43.421 C 77.493 46.627 76.767 49.844 75.453 52.821 C 74.798 54.309 74.003 55.737 73.085 57.079 C 72.847 57.409 72.619 57.746 72.367 58.064 C 72.11 58.38 71.722 58.593 71.268 58.734 C 70.809 58.873 70.327 58.971 69.921 59.124 C 69.523 59.284 69.238 59.539 68.99 59.835 C 66.845 62.03 64.465 64.04 61.761 65.708 C 59.063 67.36 55.994 68.624 52.724 69.015 C 49.462 69.408 46.07 68.97 42.912 67.83 C 39.777 66.621 36.881 64.727 34.718 62.068 C 32.539 59.446 31.261 56.165 30.92 52.904 C 30.582 49.63 31.098 46.369 32.296 43.419 C 32.891 41.943 33.663 40.539 34.613 39.265 C 35.541 37.976 36.647 36.808 37.913 35.831 C 39.19 34.863 40.599 34.106 42.063 33.386 C 43.54 32.667 45.106 32.114 46.837 31.434 L 47.14 31.315 C 48.554 30.76 50.15 31.456 50.706 32.87 C 51.261 34.284 50.565 35.88 49.151 36.435 C 48.37 36.742 47.523 36.661 46.837 36.294 Z" fill="#000000" stroke="none"/><path d="M 18.965 73.668 C 16.686 71.831 14.508 69.855 12.514 67.686 C 10.545 65.501 8.739 63.151 7.193 60.621 C 4.119 55.565 2.189 49.699 2.022 43.685 C 1.797 37.674 3.328 31.661 6.032 26.317 C 8.751 20.957 12.676 16.276 17.253 12.432 C 21.864 8.623 27.175 5.644 32.891 3.834 C 38.598 2.047 44.755 1.456 50.67 2.552 C 53.62 3.093 56.503 4.025 59.179 5.366 C 61.857 6.702 64.327 8.427 66.525 10.425 C 70.903 14.464 74.162 19.52 76.49 24.881 C 73.729 19.735 70.323 14.879 65.835 11.217 C 61.422 7.501 56.029 5.053 50.39 4.202 C 44.751 3.355 38.925 3.952 33.51 5.767 C 28.083 7.549 23.009 10.411 18.624 14.079 C 14.222 17.722 10.471 22.187 7.83 27.246 C 5.159 32.284 3.669 37.945 3.688 43.653 C 3.707 49.363 5.317 55.045 8.1 60.102 C 9.469 62.647 11.114 65.051 12.942 67.317 C 14.807 69.552 16.837 71.656 18.965 73.668 Z" fill="#000000" stroke="none"/><path d="M 59.443 89.738 C 61.011 92.534 61.689 95.855 61.452 99.137 C 61.178 102.425 59.947 105.624 58.054 108.349 C 56.174 111.09 53.622 113.373 50.651 114.96 C 47.683 116.495 44.152 117.332 40.698 116.598 C 38.988 116.233 37.356 115.473 35.974 114.415 C 34.615 113.378 33.384 112.086 32.574 110.491 C 31.757 108.907 31.423 107.048 31.669 105.287 C 31.895 103.519 32.666 101.892 33.685 100.528 C 35.739 97.783 38.83 95.998 42.082 95.388 C 45.343 94.798 48.786 95.463 51.444 97.263 C 50.001 96.575 48.461 96.134 46.908 95.97 C 45.352 95.815 43.785 95.963 42.304 96.375 C 39.343 97.174 36.684 99.017 35.016 101.474 C 34.182 102.698 33.652 104.097 33.504 105.504 C 33.354 106.914 33.657 108.326 34.338 109.562 C 35.024 110.795 36.047 111.87 37.225 112.752 C 38.387 113.621 39.725 114.224 41.139 114.511 C 43.975 115.111 47.043 114.491 49.719 113.131 C 52.436 111.812 54.806 109.764 56.681 107.351 C 58.537 104.924 59.885 102.062 60.385 99.005 C 60.666 97.482 60.711 95.91 60.55 94.348 C 60.374 92.788 59.993 91.241 59.443 89.738 Z" fill="#000000" stroke="none"/><path d="M 74.305 70.998 C 72.666 72.941 71.964 75.438 71.807 77.884 C 71.669 80.344 72.008 82.821 72.807 85.11 C 73.613 87.387 74.877 89.516 76.669 91.005 C 77.562 91.743 78.557 92.34 79.641 92.703 C 80.726 93.062 81.896 93.283 82.873 93.094 C 83.867 92.921 84.696 92.352 85.321 91.503 C 85.943 90.649 86.352 89.565 86.603 88.433 C 87.093 86.15 87.047 83.69 86.727 81.296 C 86.398 78.894 85.724 76.531 84.758 74.325 C 83.788 72.137 82.441 70.064 80.599 68.713 L 80.56 68.684 C 80.173 68.4 80.089 67.855 80.373 67.467 C 80.451 67.362 80.551 67.277 80.659 67.217 C 82.155 66.405 83.483 65.238 84.594 63.885 C 85.711 62.534 86.639 61.001 87.317 59.357 C 87.998 57.716 88.475 55.966 88.567 54.174 C 88.649 52.394 88.362 50.545 87.413 48.959 C 88.582 50.399 89.109 52.306 89.182 54.175 C 89.257 56.055 88.964 57.951 88.372 59.747 C 87.172 63.316 84.916 66.666 81.545 68.751 L 81.604 67.255 C 83.919 68.823 85.436 71.132 86.58 73.485 C 87.718 75.865 88.42 78.408 88.815 80.995 C 89.199 83.582 89.261 86.251 88.656 88.902 C 88.345 90.22 87.858 91.552 86.981 92.737 C 86.131 93.925 84.71 94.874 83.191 95.064 C 82.442 95.176 81.698 95.143 80.997 95.021 L 79.985 94.795 C 79.654 94.698 79.328 94.584 79 94.477 C 77.705 93.994 76.51 93.252 75.512 92.325 C 73.506 90.466 72.206 88.036 71.505 85.52 C 70.801 82.997 70.624 80.351 71.03 77.797 C 71.422 75.271 72.399 72.708 74.305 70.998 Z" fill="#000000" stroke="none"/>
</svg>
