<?xml version="1.0" encoding="UTF-8"?>
<svg xmlns="http://www.w3.org/2000/svg" width="252.999" height="73.147" viewBox="0 0 252.999 73.147">
  <path d="M 18.763 21.752 C 42.979 34.083 54.631 12.624 80.173 39.829 C 47.991 16.873 35.411 42.589 18.763 21.752 Z M 41.499 22.811 C 19.703 25.85 17.524 18.915 12.597 12.083 C 12.57 26.558 24.282 37.287 39.227 34.629 C 57.025 31.465 66.142 36.847 66.142 36.847 L 57.816 39.255 C 57.816 39.255 72.571 39.867 90.383 47.624 C 90.383 47.624 71.7 18.6 41.499 22.811 Z" fill="#000000" stroke="none"/><path d="M 134.739 52.565 C 134.739 52.565 144.419 47.853 151.422 53.819 C 158.426 59.785 156.3 70.605 148.02 71.13 C 139.74 71.656 139.208 59.522 148.018 59.999 C 149.075 52.247 134.739 52.565 134.739 52.565 Z" fill="#000000" stroke="none"/><path d="M 9.923 42.763 C 31.593 40.146 51.245 38.301 79.009 48.685 C 103.444 57.823 149.989 55.614 156.192 27.315 C 160.754 6.501 137.374 6.501 137.944 18.191 C 138.237 24.198 145.77 25.889 148.779 23.762 C 149.064 45.278 107.236 54.254 82.06 46.418 C 39.006 33.018 9.923 42.763 9.923 42.763 Z" fill="#000000" stroke="none"/><path d="M 115.579 43.554 L 115.5 43.579 C 115.497 43.58 115.494 43.578 115.493 43.576 C 115.492 43.573 115.493 43.571 115.496 43.57 C 115.497 43.57 115.497 43.57 115.497 43.57 L 115.579 43.554 Z" fill="#000000" stroke="none"/><path d="M 110.657 44.909 L 110.576 44.928 C 110.409 44.963 110.246 44.859 110.21 44.693 C 110.174 44.527 110.28 44.364 110.445 44.327 C 110.456 44.325 110.467 44.323 110.478 44.323 L 110.56 44.314 C 110.726 44.295 110.876 44.415 110.894 44.581 C 110.911 44.736 110.806 44.876 110.657 44.909 Z" fill="#000000" stroke="none"/><path d="M 105.556 45.614 L 105.471 45.617 C 105.171 45.632 104.915 45.401 104.9 45.1 C 104.885 44.8 105.117 44.544 105.417 44.529 C 105.433 44.529 105.451 44.529 105.466 44.529 L 105.548 44.531 C 105.846 44.542 106.08 44.792 106.07 45.091 C 106.061 45.373 105.832 45.598 105.556 45.614 Z" fill="#000000" stroke="none"/><path d="M 100.35 45.3 L 100.265 45.284 C 99.864 45.213 99.597 44.829 99.67 44.429 C 99.742 44.028 100.125 43.761 100.526 43.833 C 100.542 43.836 100.561 43.84 100.576 43.844 L 100.655 43.865 C 101.049 43.96 101.29 44.359 101.193 44.752 C 101.101 45.129 100.726 45.365 100.35 45.3 Z" fill="#000000" stroke="none"/><path d="M 95.317 43.782 L 95.238 43.748 C 94.783 43.55 94.576 43.022 94.773 42.567 C 94.971 42.113 95.5 41.905 95.954 42.103 C 95.967 42.108 95.983 42.115 95.995 42.121 L 96.068 42.157 C 96.512 42.375 96.696 42.911 96.479 43.355 C 96.268 43.785 95.752 43.968 95.317 43.782 Z" fill="#000000" stroke="none"/><path d="M 90.717 41.262 L 90.645 41.215 C 90.174 40.904 90.045 40.269 90.357 39.797 C 90.669 39.326 91.303 39.198 91.774 39.509 C 91.787 39.518 91.804 39.53 91.817 39.538 L 91.882 39.586 C 92.337 39.919 92.437 40.558 92.105 41.013 C 91.783 41.453 91.169 41.558 90.717 41.262 Z" fill="#000000" stroke="none"/><path d="M 86.581 38.096 L 86.516 38.04 C 86.051 37.637 86 36.934 86.403 36.468 C 86.805 36.003 87.509 35.951 87.974 36.355 C 87.981 36.361 87.993 36.371 88 36.377 L 88.06 36.433 C 88.514 36.848 88.545 37.551 88.131 38.005 C 87.724 38.45 87.035 38.486 86.581 38.096 Z" fill="#000000" stroke="none"/><path d="M 82.811 34.55 L 82.752 34.49 C 82.29 34.022 82.296 33.268 82.764 32.807 C 83.232 32.345 83.986 32.351 84.447 32.819 C 84.454 32.826 84.465 32.838 84.472 32.845 L 84.528 32.906 C 84.976 33.386 84.949 34.138 84.469 34.586 C 83.997 35.025 83.262 35.004 82.811 34.55 Z" fill="#000000" stroke="none"/><path d="M 79.332 30.754 L 79.276 30.691 C 78.833 30.179 78.889 29.405 79.401 28.962 C 79.912 28.519 80.686 28.574 81.129 29.086 L 81.138 29.096 L 81.191 29.159 C 81.629 29.675 81.567 30.448 81.051 30.886 C 80.539 31.322 79.771 31.261 79.332 30.754 Z" fill="#000000" stroke="none"/><path d="M 75.875 27.273 L 75.814 27.22 C 75.292 26.769 75.235 25.981 75.685 25.458 C 76.136 24.937 76.925 24.879 77.447 25.33 L 77.457 25.339 L 77.522 25.397 C 78.039 25.854 78.088 26.642 77.631 27.158 C 77.178 27.672 76.392 27.721 75.875 27.273 Z" fill="#000000" stroke="none"/><path d="M 71.969 24.313 L 71.901 24.268 C 71.325 23.892 71.162 23.119 71.538 22.543 C 71.912 21.97 72.681 21.808 73.256 22.176 L 73.329 22.223 C 73.909 22.595 74.076 23.366 73.703 23.946 C 73.331 24.525 72.56 24.693 71.981 24.321 L 71.969 24.313 Z" fill="#000000" stroke="none"/><path d="M 67.688 21.896 L 67.614 21.861 C 67.005 21.57 66.746 20.84 67.036 20.231 C 67.326 19.624 68.051 19.366 68.659 19.65 L 68.737 19.686 C 69.349 19.972 69.613 20.7 69.326 21.313 C 69.04 21.924 68.312 22.188 67.7 21.902 L 67.688 21.896 Z" fill="#000000" stroke="none"/><path d="M 63.119 20.022 L 63.042 19.994 C 62.423 19.78 62.096 19.103 62.311 18.484 C 62.522 17.875 63.183 17.55 63.793 17.742 L 63.875 17.769 C 64.5 17.968 64.846 18.637 64.646 19.262 C 64.446 19.887 63.778 20.233 63.152 20.032 C 63.143 20.03 63.128 20.025 63.119 20.022 Z" fill="#000000" stroke="none"/><path d="M 58.357 18.629 L 58.277 18.611 C 57.677 18.47 57.304 17.869 57.445 17.269 C 57.583 16.68 58.169 16.311 58.758 16.431 L 58.842 16.448 C 59.446 16.573 59.834 17.165 59.709 17.77 C 59.584 18.373 58.993 18.762 58.388 18.637 C 58.38 18.635 58.365 18.631 58.357 18.629 Z" fill="#000000" stroke="none"/><path d="M 53.459 17.694 L 53.378 17.682 C 52.813 17.597 52.424 17.071 52.509 16.506 C 52.591 15.958 53.094 15.576 53.638 15.631 L 53.723 15.64 C 54.292 15.699 54.705 16.209 54.646 16.779 C 54.586 17.347 54.076 17.76 53.508 17.7 C 53.493 17.698 53.474 17.696 53.459 17.694 Z" fill="#000000" stroke="none"/><path d="M 48.483 17.139 L 48.401 17.133 C 47.896 17.098 47.515 16.66 47.551 16.156 C 47.585 15.666 48.002 15.293 48.488 15.304 L 48.573 15.306 C 49.079 15.319 49.48 15.74 49.467 16.247 C 49.454 16.754 49.033 17.155 48.526 17.142 C 48.513 17.141 48.496 17.14 48.483 17.139 Z" fill="#000000" stroke="none"/><path d="M 43.462 16.933 L 43.379 16.932 C 42.951 16.928 42.607 16.578 42.611 16.151 C 42.615 15.74 42.94 15.407 43.344 15.385 L 43.429 15.38 C 43.857 15.357 44.223 15.686 44.246 16.115 C 44.269 16.542 43.94 16.908 43.512 16.932 C 43.496 16.933 43.477 16.933 43.462 16.933 Z" fill="#000000" stroke="none"/><path d="M 38.42 17.034 L 38.337 17.038 C 38.002 17.054 37.719 16.795 37.704 16.461 C 37.689 16.145 37.924 15.872 38.233 15.832 L 38.317 15.822 C 38.651 15.78 38.956 16.016 38.998 16.35 C 39.04 16.684 38.804 16.989 38.47 17.031 C 38.454 17.032 38.436 17.034 38.42 17.034 Z" fill="#000000" stroke="none"/><path d="M 33.376 17.409 L 33.293 17.417 C 33.075 17.441 32.879 17.281 32.857 17.063 C 32.835 16.857 32.978 16.671 33.178 16.632 L 33.261 16.615 C 33.478 16.574 33.688 16.717 33.73 16.935 C 33.772 17.152 33.629 17.363 33.411 17.404 C 33.4 17.406 33.388 17.407 33.376 17.409 Z" fill="#000000" stroke="none"/><path d="M 28.343 18.043 L 28.26 18.057 C 28.186 18.068 28.117 18.018 28.105 17.944 C 28.095 17.875 28.138 17.811 28.203 17.793 L 28.284 17.77 C 28.359 17.749 28.436 17.793 28.457 17.867 C 28.478 17.943 28.434 18.02 28.36 18.04 C 28.354 18.041 28.348 18.043 28.343 18.043 Z" fill="#000000" stroke="none"/><path d="M 18.763 35.728 L 18.681 35.74 C 18.675 35.74 18.669 35.736 18.668 35.729 C 18.667 35.723 18.672 35.717 18.678 35.716 C 18.68 35.716 18.68 35.716 18.682 35.716 L 18.763 35.728 Z" fill="#000000" stroke="none"/><path d="M 13.648 34.905 L 13.569 34.874 C 13.265 34.757 13.115 34.416 13.231 34.114 C 13.348 33.81 13.689 33.659 13.992 33.777 C 14.027 33.789 14.063 33.808 14.094 33.827 L 14.161 33.869 L 14.167 33.873 C 14.438 34.044 14.52 34.402 14.349 34.673 C 14.199 34.912 13.902 35.003 13.648 34.905 Z" fill="#000000" stroke="none"/><path d="M 9.082 32.271 L 9.015 32.219 C 8.604 31.9 8.529 31.308 8.848 30.897 C 9.168 30.486 9.76 30.41 10.171 30.73 C 10.199 30.751 10.226 30.776 10.251 30.799 L 10.306 30.854 L 10.312 30.859 C 10.683 31.22 10.691 31.814 10.329 32.185 C 9.993 32.531 9.454 32.561 9.082 32.271 Z" fill="#000000" stroke="none"/><path d="M 5.34 28.478 L 5.288 28.408 C 4.905 27.899 5.008 27.175 5.518 26.793 C 6.028 26.41 6.751 26.513 7.134 27.023 C 7.149 27.042 7.165 27.066 7.178 27.086 L 7.22 27.151 L 7.225 27.158 C 7.572 27.691 7.421 28.405 6.888 28.751 C 6.378 29.083 5.701 28.955 5.34 28.478 Z" fill="#000000" stroke="none"/><path d="M 2.792 23.698 L 2.764 23.615 C 2.543 22.966 2.889 22.26 3.539 22.038 C 4.189 21.817 4.895 22.163 5.117 22.813 C 5.119 22.82 5.124 22.836 5.126 22.843 L 5.149 22.913 L 5.151 22.922 C 5.358 23.575 4.996 24.274 4.342 24.48 C 3.698 24.684 3.01 24.333 2.792 23.698 Z" fill="#000000" stroke="none"/><path d="M 2.001 18.272 L 2.005 18.185 C 2.034 17.511 2.605 16.989 3.279 17.018 C 3.943 17.047 4.459 17.601 4.446 18.262 L 4.446 18.273 L 4.445 18.346 C 4.433 19.021 3.876 19.559 3.201 19.547 C 2.526 19.535 1.989 18.979 2 18.304 C 2 18.296 2.001 18.279 2.001 18.272 Z" fill="#000000" stroke="none"/><path d="M 3.244 12.963 L 3.279 12.884 C 3.517 12.332 4.159 12.078 4.711 12.317 C 5.239 12.545 5.494 13.142 5.306 13.676 L 5.302 13.69 L 5.277 13.76 C 5.076 14.329 4.451 14.627 3.883 14.426 C 3.314 14.225 3.016 13.601 3.218 13.032 C 3.225 13.01 3.236 12.985 3.244 12.963 Z" fill="#000000" stroke="none"/><path d="M 6.088 8.455 L 6.144 8.391 C 6.442 8.047 6.962 8.01 7.305 8.308 C 7.617 8.577 7.677 9.031 7.463 9.368 L 7.459 9.374 L 7.416 9.443 C 7.172 9.83 6.66 9.947 6.272 9.701 C 5.885 9.457 5.768 8.946 6.013 8.558 C 6.034 8.523 6.062 8.486 6.088 8.455 Z" fill="#000000" stroke="none"/><path d="M 9.892 4.899 L 9.958 4.851 C 10.133 4.724 10.377 4.763 10.503 4.938 C 10.611 5.086 10.597 5.286 10.484 5.42 L 10.432 5.481 C 10.29 5.65 10.037 5.671 9.868 5.528 C 9.7 5.385 9.679 5.133 9.822 4.964 C 9.843 4.94 9.868 4.916 9.892 4.899 Z" fill="#000000" stroke="none"/><path d="M 152.372 7.199 L 152.314 7.143 C 152.306 7.135 152.306 7.123 152.314 7.116 C 152.321 7.109 152.333 7.109 152.341 7.115 C 152.343 7.117 152.345 7.12 152.346 7.123 L 152.372 7.199 Z" fill="#000000" stroke="none"/><path d="M 148.144 4.824 L 148.069 4.804 C 147.66 4.691 147.42 4.268 147.532 3.86 C 147.644 3.45 148.067 3.21 148.476 3.323 C 148.53 3.337 148.581 3.357 148.628 3.382 L 148.637 3.386 L 148.715 3.428 C 149.085 3.623 149.225 4.081 149.03 4.451 C 148.861 4.772 148.495 4.921 148.16 4.828 L 148.144 4.824 Z" fill="#000000" stroke="none"/><path d="M 143.451 4.269 L 143.374 4.271 C 142.747 4.291 142.222 3.8 142.201 3.173 C 142.181 2.546 142.673 2.022 143.3 2.001 C 143.335 2 143.373 2 143.408 2.002 L 143.497 2.008 C 144.121 2.046 144.596 2.583 144.557 3.207 C 144.521 3.793 144.045 4.247 143.47 4.268 L 143.451 4.269 Z" fill="#000000" stroke="none"/><path d="M 138.906 5.106 L 138.836 5.131 L 138.828 5.134 C 138.174 5.369 137.452 5.029 137.218 4.374 C 136.982 3.72 137.318 3.001 137.973 2.766 L 138.058 2.735 C 138.712 2.497 139.433 2.834 139.672 3.488 C 139.909 4.142 139.572 4.864 138.919 5.102 L 138.914 5.103 L 138.906 5.106 Z" fill="#000000" stroke="none"/><path d="M 135.077 7.415 L 135.025 7.466 L 135.009 7.482 C 134.561 7.917 133.848 7.907 133.412 7.46 C 133.005 7.041 132.991 6.382 133.359 5.945 L 133.419 5.874 C 133.821 5.395 134.537 5.333 135.015 5.736 C 135.495 6.139 135.556 6.854 135.154 7.333 C 135.131 7.361 135.102 7.391 135.077 7.415 Z" fill="#000000" stroke="none"/><path d="M 132.633 11.27 L 132.605 11.343 L 132.6 11.358 C 132.458 11.746 132.028 11.946 131.64 11.804 C 131.304 11.681 131.109 11.342 131.155 11.001 L 131.167 10.913 L 131.168 10.908 C 131.223 10.492 131.605 10.201 132.02 10.256 C 132.435 10.312 132.727 10.694 132.672 11.11 C 132.665 11.163 132.65 11.22 132.633 11.27 Z" fill="#000000" stroke="none"/><path d="M 77.994 50.798 C 55.178 42.205 26.869 39.175 9.923 53.494 C 3.216 59.162 7.396 68.556 15.844 66.294 C 23.487 64.248 18.763 54.961 18.763 54.961 C 18.763 54.961 26.033 41.118 77.994 50.798 Z" fill="#000000" stroke="none"/><path d="M 172.826 39.829 C 198.368 12.624 210.019 34.083 234.236 21.752 C 217.588 42.589 205.009 16.873 172.826 39.829 Z M 162.616 47.624 C 180.429 39.867 195.183 39.255 195.183 39.255 L 186.857 36.847 C 186.857 36.847 195.973 31.465 213.771 34.629 C 228.717 37.287 240.429 26.558 240.401 12.083 C 235.475 18.915 233.296 25.85 211.5 22.811 C 181.299 18.6 162.616 47.624 162.616 47.624 Z" fill="#000000" stroke="none"/><path d="M 118.26 52.565 C 118.26 52.565 108.58 47.853 101.577 53.819 C 94.573 59.785 96.7 70.605 104.979 71.13 C 113.259 71.656 113.791 59.522 104.981 59.999 C 103.924 52.247 118.26 52.565 118.26 52.565 Z" fill="#000000" stroke="none"/><path d="M 243.076 42.763 C 221.406 40.146 201.754 38.301 173.99 48.685 C 149.555 57.823 103.01 55.614 96.807 27.315 C 92.245 6.501 115.625 6.501 115.055 18.191 C 114.762 24.198 107.229 25.889 104.22 23.762 C 103.935 45.278 145.764 54.254 170.939 46.418 C 213.993 33.018 243.076 42.763 243.076 42.763 Z" fill="#000000" stroke="none"/><path d="M 137.57 43.554 L 137.652 43.573 C 137.654 43.573 137.656 43.575 137.656 43.578 C 137.655 43.581 137.652 43.583 137.649 43.582 L 137.648 43.582 L 137.57 43.554 Z" fill="#000000" stroke="none"/><path d="M 142.558 44.492 L 142.64 44.503 C 142.807 44.527 142.925 44.682 142.901 44.849 C 142.878 45.017 142.723 45.133 142.556 45.11 C 142.545 45.109 142.534 45.107 142.523 45.104 L 142.442 45.083 C 142.28 45.043 142.182 44.879 142.223 44.717 C 142.261 44.567 142.408 44.471 142.558 44.492 Z" fill="#000000" stroke="none"/><path d="M 147.557 44.848 L 147.64 44.847 C 147.939 44.841 148.187 45.079 148.193 45.38 C 148.199 45.68 147.96 45.928 147.66 45.934 C 147.644 45.934 147.627 45.933 147.611 45.932 L 147.526 45.926 C 147.229 45.906 147.005 45.648 147.026 45.35 C 147.046 45.07 147.282 44.854 147.557 44.848 Z" fill="#000000" stroke="none"/><path d="M 152.443 44.238 L 152.521 44.218 C 152.915 44.118 153.315 44.357 153.415 44.75 C 153.515 45.145 153.276 45.544 152.883 45.644 C 152.867 45.649 152.848 45.653 152.832 45.656 L 152.747 45.67 C 152.348 45.742 151.968 45.477 151.896 45.079 C 151.827 44.698 152.074 44.331 152.443 44.238 Z" fill="#000000" stroke="none"/><path d="M 156.998 42.491 L 157.069 42.454 C 157.508 42.226 158.049 42.397 158.277 42.835 C 158.506 43.275 158.335 43.815 157.896 44.043 C 157.884 44.05 157.867 44.058 157.855 44.064 L 157.776 44.1 C 157.327 44.305 156.797 44.108 156.592 43.658 C 156.393 43.224 156.579 42.709 156.998 42.491 Z" fill="#000000" stroke="none"/><path d="M 161.127 39.836 L 161.191 39.786 C 161.638 39.443 162.278 39.526 162.622 39.972 C 162.967 40.418 162.884 41.059 162.437 41.404 C 162.425 41.413 162.408 41.425 162.395 41.434 L 162.325 41.483 C 161.862 41.803 161.228 41.688 160.907 41.226 C 160.598 40.778 160.7 40.165 161.127 39.836 Z" fill="#000000" stroke="none"/><path d="M 164.891 36.605 L 164.951 36.548 C 165.397 36.125 166.101 36.143 166.524 36.589 C 166.948 37.034 166.93 37.739 166.484 38.162 C 166.477 38.168 166.466 38.179 166.459 38.185 L 166.395 38.242 C 165.937 38.651 165.234 38.612 164.826 38.154 C 164.425 37.704 164.458 37.017 164.891 36.605 Z" fill="#000000" stroke="none"/><path d="M 168.389 33.03 L 168.444 32.969 C 168.888 32.484 169.639 32.45 170.123 32.893 C 170.608 33.335 170.641 34.087 170.199 34.572 C 170.192 34.578 170.181 34.59 170.175 34.598 L 170.115 34.658 C 169.659 35.129 168.907 35.14 168.437 34.684 C 167.975 34.236 167.959 33.501 168.389 33.03 Z" fill="#000000" stroke="none"/><path d="M 171.72 29.263 L 171.773 29.199 C 172.212 28.685 172.984 28.621 173.5 29.059 C 174.015 29.497 174.078 30.27 173.64 30.785 L 173.632 30.795 L 173.576 30.859 C 173.134 31.369 172.36 31.424 171.849 30.982 C 171.342 30.541 171.286 29.774 171.72 29.263 Z" fill="#000000" stroke="none"/><path d="M 175.37 25.491 L 175.435 25.433 C 175.95 24.975 176.739 25.021 177.197 25.535 C 177.656 26.05 177.61 26.839 177.096 27.297 L 177.085 27.307 L 177.024 27.36 C 176.507 27.815 175.719 27.764 175.264 27.246 C 174.811 26.733 174.861 25.948 175.37 25.491 Z" fill="#000000" stroke="none"/><path d="M 179.551 22.3 L 179.624 22.252 C 180.201 21.878 180.973 22.042 181.348 22.62 C 181.721 23.195 181.556 23.963 180.987 24.341 L 180.92 24.385 C 180.346 24.767 179.571 24.611 179.19 24.036 C 178.809 23.463 178.965 22.689 179.539 22.308 L 179.551 22.3 Z" fill="#000000" stroke="none"/><path d="M 184.134 19.746 L 184.213 19.709 C 184.823 19.42 185.553 19.682 185.841 20.293 C 186.128 20.901 185.868 21.626 185.265 21.918 L 185.191 21.953 C 184.584 22.249 183.851 21.995 183.556 21.388 C 183.261 20.78 183.514 20.047 184.122 19.752 L 184.134 19.746 Z" fill="#000000" stroke="none"/><path d="M 188.99 17.812 L 189.072 17.785 C 189.697 17.583 190.367 17.927 190.568 18.552 C 190.766 19.165 190.434 19.824 189.831 20.038 L 189.754 20.066 C 189.135 20.286 188.454 19.962 188.233 19.343 C 188.014 18.723 188.338 18.043 188.957 17.823 C 188.966 17.82 188.981 17.815 188.99 17.812 Z" fill="#000000" stroke="none"/><path d="M 194.02 16.477 L 194.104 16.459 C 194.708 16.332 195.301 16.72 195.428 17.323 C 195.553 17.917 195.178 18.5 194.592 18.642 L 194.512 18.66 C 193.911 18.805 193.306 18.435 193.162 17.834 C 193.017 17.234 193.388 16.629 193.988 16.485 C 193.997 16.483 194.012 16.479 194.02 16.477 Z" fill="#000000" stroke="none"/><path d="M 199.137 15.655 L 199.222 15.646 C 199.791 15.584 200.302 15.996 200.363 16.566 C 200.423 17.118 200.031 17.617 199.488 17.701 L 199.406 17.714 C 198.84 17.802 198.308 17.414 198.221 16.847 C 198.133 16.28 198.521 15.749 199.089 15.661 C 199.103 15.658 199.122 15.656 199.137 15.655 Z" fill="#000000" stroke="none"/><path d="M 204.287 15.31 L 204.373 15.308 C 204.88 15.293 205.303 15.694 205.316 16.201 C 205.33 16.694 204.949 17.107 204.464 17.143 L 204.381 17.15 C 203.874 17.187 203.431 16.806 203.393 16.299 C 203.356 15.791 203.737 15.35 204.244 15.312 C 204.258 15.311 204.274 15.31 204.287 15.31 Z" fill="#000000" stroke="none"/><path d="M 209.432 15.372 L 209.516 15.377 C 209.946 15.4 210.276 15.766 210.254 16.196 C 210.232 16.607 209.891 16.927 209.484 16.934 L 209.401 16.935 C 208.97 16.94 208.616 16.595 208.61 16.163 C 208.604 15.732 208.95 15.377 209.382 15.371 C 209.397 15.371 209.416 15.372 209.432 15.372 Z" fill="#000000" stroke="none"/><path d="M 214.545 15.804 L 214.629 15.815 C 214.964 15.857 215.202 16.162 215.16 16.497 C 215.12 16.815 214.841 17.045 214.526 17.032 L 214.442 17.03 C 214.103 17.015 213.84 16.728 213.854 16.389 C 213.868 16.049 214.155 15.786 214.495 15.8 C 214.511 15.801 214.529 15.802 214.545 15.804 Z" fill="#000000" stroke="none"/><path d="M 219.603 16.59 L 219.686 16.606 C 219.905 16.647 220.05 16.858 220.009 17.076 C 219.97 17.284 219.776 17.424 219.57 17.404 L 219.486 17.395 C 219.264 17.372 219.1 17.172 219.124 16.948 C 219.146 16.725 219.347 16.563 219.57 16.585 C 219.581 16.586 219.593 16.588 219.603 16.59 Z" fill="#000000" stroke="none"/><path d="M 224.582 17.734 L 224.664 17.756 C 224.74 17.777 224.785 17.856 224.764 17.932 C 224.744 18.003 224.675 18.047 224.604 18.036 L 224.52 18.024 C 224.439 18.011 224.384 17.936 224.395 17.855 C 224.408 17.774 224.483 17.718 224.564 17.73 C 224.57 17.731 224.576 17.732 224.582 17.734 Z" fill="#000000" stroke="none"/><path d="M 234.236 35.728 L 234.317 35.716 C 234.324 35.715 234.33 35.719 234.331 35.726 C 234.332 35.732 234.327 35.739 234.321 35.74 C 234.32 35.74 234.318 35.74 234.317 35.74 L 234.236 35.728 Z" fill="#000000" stroke="none"/><path d="M 238.838 33.869 L 238.905 33.827 C 239.181 33.654 239.544 33.737 239.717 34.012 C 239.89 34.286 239.806 34.65 239.532 34.823 C 239.501 34.843 239.464 34.861 239.431 34.874 L 239.35 34.905 C 239.052 35.021 238.716 34.872 238.6 34.573 C 238.498 34.311 238.601 34.018 238.832 33.873 L 238.838 33.869 Z" fill="#000000" stroke="none"/><path d="M 242.692 30.854 L 242.748 30.799 C 243.121 30.436 243.718 30.444 244.081 30.817 C 244.444 31.19 244.436 31.786 244.063 32.15 C 244.039 32.174 244.011 32.198 243.984 32.219 L 243.917 32.271 C 243.509 32.589 242.919 32.516 242.601 32.107 C 242.305 31.726 242.348 31.188 242.686 30.859 L 242.692 30.854 Z" fill="#000000" stroke="none"/><path d="M 245.779 27.151 L 245.821 27.086 C 246.168 26.552 246.883 26.401 247.418 26.748 C 247.952 27.096 248.103 27.811 247.756 28.345 C 247.742 28.365 247.725 28.389 247.711 28.408 L 247.659 28.478 C 247.278 28.986 246.556 29.088 246.048 28.706 C 245.561 28.341 245.446 27.664 245.771 27.161 L 245.779 27.151 Z" fill="#000000" stroke="none"/><path d="M 247.85 22.913 L 247.872 22.843 C 248.077 22.189 248.774 21.823 249.43 22.029 C 250.084 22.233 250.449 22.93 250.244 23.585 C 250.242 23.592 250.237 23.609 250.234 23.615 L 250.207 23.698 C 249.985 24.346 249.279 24.693 248.631 24.471 C 247.991 24.253 247.645 23.565 247.848 22.923 L 247.85 22.913 Z" fill="#000000" stroke="none"/><path d="M 248.555 18.346 L 248.553 18.273 L 248.553 18.264 C 248.539 17.589 249.074 17.031 249.749 17.017 C 250.413 17.003 250.965 17.525 250.994 18.185 L 250.998 18.272 C 251.027 18.946 250.505 19.517 249.83 19.546 C 249.156 19.575 248.585 19.053 248.556 18.378 C 248.556 18.371 248.555 18.353 248.555 18.346 Z" fill="#000000" stroke="none"/><path d="M 247.723 13.76 L 247.697 13.69 L 247.694 13.68 C 247.493 13.113 247.79 12.49 248.357 12.289 C 248.899 12.098 249.494 12.365 249.72 12.884 L 249.754 12.963 C 249.994 13.517 249.739 14.159 249.185 14.399 C 248.632 14.638 247.989 14.383 247.75 13.83 C 247.74 13.808 247.73 13.782 247.723 13.76 Z" fill="#000000" stroke="none"/><path d="M 245.583 9.443 L 245.54 9.374 L 245.536 9.368 C 245.294 8.984 245.409 8.476 245.794 8.234 C 246.142 8.014 246.593 8.088 246.854 8.391 L 246.91 8.455 C 247.211 8.801 247.175 9.325 246.829 9.626 C 246.483 9.927 245.959 9.89 245.658 9.544 C 245.632 9.513 245.604 9.476 245.583 9.443 Z" fill="#000000" stroke="none"/><path d="M 242.566 5.481 L 242.515 5.42 C 242.375 5.256 242.394 5.01 242.557 4.87 C 242.697 4.75 242.898 4.748 243.041 4.851 L 243.106 4.899 C 243.286 5.029 243.326 5.279 243.196 5.457 C 243.066 5.636 242.816 5.676 242.637 5.546 C 242.611 5.528 242.587 5.504 242.566 5.481 Z" fill="#000000" stroke="none"/><path d="M 100.627 7.199 L 100.654 7.123 C 100.657 7.114 100.668 7.108 100.678 7.112 C 100.687 7.115 100.693 7.125 100.689 7.135 C 100.688 7.138 100.686 7.141 100.684 7.143 L 100.627 7.199 Z" fill="#000000" stroke="none"/><path d="M 104.284 3.428 L 104.363 3.386 L 104.367 3.384 C 104.742 3.186 105.207 3.329 105.405 3.704 C 105.603 4.079 105.46 4.544 105.085 4.742 C 105.036 4.768 104.981 4.789 104.93 4.804 L 104.855 4.824 L 104.84 4.828 C 104.436 4.94 104.019 4.702 103.908 4.299 C 103.812 3.949 103.977 3.59 104.284 3.428 Z" fill="#000000" stroke="none"/><path d="M 109.501 2.008 L 109.591 2.002 C 110.217 1.963 110.757 2.439 110.796 3.065 C 110.835 3.691 110.36 4.23 109.734 4.27 C 109.699 4.272 109.66 4.272 109.625 4.271 L 109.548 4.269 L 109.534 4.268 C 108.909 4.248 108.42 3.725 108.44 3.101 C 108.459 2.514 108.928 2.045 109.501 2.008 Z" fill="#000000" stroke="none"/><path d="M 114.941 2.735 L 115.027 2.766 C 115.68 3.003 116.017 3.726 115.78 4.379 C 115.542 5.032 114.82 5.369 114.167 5.132 L 114.163 5.131 L 114.093 5.106 L 114.085 5.103 C 113.431 4.868 113.091 4.147 113.326 3.492 C 113.561 2.838 114.282 2.498 114.936 2.733 L 114.941 2.735 Z" fill="#000000" stroke="none"/><path d="M 119.58 5.874 L 119.639 5.945 C 120.042 6.42 119.982 7.132 119.507 7.535 C 119.06 7.912 118.406 7.884 117.994 7.486 L 117.974 7.466 L 117.923 7.415 C 117.473 6.98 117.464 6.262 117.9 5.813 C 118.337 5.365 119.055 5.355 119.503 5.791 C 119.529 5.817 119.557 5.847 119.58 5.874 Z" fill="#000000" stroke="none"/><path d="M 121.832 10.913 L 121.844 11.001 C 121.899 11.411 121.611 11.787 121.201 11.842 C 120.847 11.89 120.516 11.681 120.399 11.359 L 120.393 11.343 L 120.367 11.27 C 120.222 10.876 120.425 10.44 120.818 10.296 C 121.212 10.152 121.648 10.355 121.792 10.748 C 121.81 10.799 121.824 10.852 121.831 10.904 L 121.832 10.913 Z" fill="#000000" stroke="none"/><path d="M 175.005 50.798 C 197.821 42.205 226.13 39.175 243.076 53.494 C 249.783 59.162 245.603 68.556 237.155 66.294 C 229.512 64.248 234.236 54.961 234.236 54.961 C 234.236 54.961 226.967 41.118 175.005 50.798 Z" fill="#000000" stroke="none"/><path d="M 121.455 29.854 C 121.455 27.097 123.69 24.862 126.447 24.862 C 129.205 24.862 131.44 27.097 131.44 29.854 C 131.44 32.612 129.205 34.847 126.447 34.847 C 123.69 34.847 121.455 32.612 121.455 29.854 Z" fill="#000000" stroke="none"/>
</svg>
