<?xml version="1.0" encoding="UTF-8"?>
<svg xmlns="http://www.w3.org/2000/svg" width="221.641" height="95.973" viewBox="0 0 221.641 95.973">
  <path d="M 146.665 83.42 C 138.005 83.56 129.321 80.374 122.734 74.649 C 116.154 68.941 111.646 60.757 110.618 52.023 C 110.512 51.483 110.476 50.936 110.452 50.388 L 110.357 48.746 C 110.248 47.654 110.345 46.546 110.386 45.442 L 110.423 44.613 L 110.543 43.791 L 110.79 42.15 C 110.972 41.058 111.309 39.998 111.564 38.921 C 112.88 34.688 115.176 30.774 118.191 27.53 C 124.179 20.944 133.32 17.508 142.211 18.305 C 144.441 18.573 146.63 19.135 148.71 19.98 C 150.761 20.885 152.729 21.996 154.469 23.416 C 157.95 26.237 160.638 30.033 162.062 34.285 C 162.761 36.407 163.231 38.623 163.283 40.86 C 163.404 43.088 163.164 45.394 162.488 47.553 C 161.158 51.889 158.229 55.683 154.406 58.078 C 150.59 60.508 145.937 61.49 141.448 60.749 C 136.945 59.985 132.954 57.024 130.768 53.077 C 129.662 51.105 129.056 48.872 128.929 46.633 C 128.771 44.393 129.211 42.063 130.268 40.062 C 130.79 39.061 131.434 38.119 132.219 37.308 C 132.981 36.479 133.867 35.764 134.835 35.194 C 136.756 34.018 139.013 33.464 141.236 33.471 C 141.534 33.472 141.776 33.715 141.775 34.014 C 141.774 34.31 141.531 34.549 141.236 34.553 C 137.153 34.6 133.287 37.096 131.561 40.712 C 130.672 42.509 130.339 44.521 130.526 46.523 C 130.69 48.524 131.275 50.495 132.299 52.214 C 134.296 55.674 137.846 58.226 141.785 58.828 C 145.7 59.419 149.928 58.488 153.253 56.274 C 156.61 54.086 159.15 50.708 160.317 46.892 C 160.903 44.978 161.103 42.98 160.985 40.965 C 160.931 38.942 160.492 36.948 159.855 35.04 C 158.554 31.214 156.113 27.808 152.97 25.284 C 151.399 24.013 149.623 23.03 147.782 22.222 C 145.91 21.471 143.945 20.988 141.946 20.742 C 133.89 19.986 125.415 23.074 119.888 29.122 C 117.097 32.097 114.962 35.693 113.729 39.59 C 112.512 43.505 112.287 47.652 112.733 51.766 C 113.573 60.002 117.721 67.803 123.893 73.34 C 126.968 76.128 130.554 78.362 134.432 79.888 C 138.311 81.413 142.47 82.238 146.665 82.338 C 146.964 82.343 147.202 82.589 147.198 82.888 C 147.193 83.179 146.953 83.413 146.665 83.42 Z" fill="#000000" stroke="none"/><path d="M 201.763 88.499 C 201.763 88.499 187.838 81.321 167.235 82.879 C 141.523 84.825 127.241 92.416 110.821 70.666 C 110.821 70.666 113.412 90.212 132.952 91.192 C 155.454 92.32 170.663 79.927 201.763 88.499 Z" fill="#000000" stroke="none"/><path d="M 136.686 34.624 C 143.943 39.133 145.555 33.897 151.318 36.525 C 146.582 28.199 139.573 30.117 136.686 34.624 Z" fill="#000000" stroke="none"/><path d="M 135.651 16.025 C 137.826 7.012 142.997 9.587 145.439 3.13 C 148.065 12.962 141.251 17.065 135.651 16.025 Z" fill="#000000" stroke="none"/><path d="M 128.16 17.916 C 126.061 8.884 131.838 8.868 131.123 2 C 137.881 9.61 133.631 16.333 128.16 17.916 Z" fill="#000000" stroke="none"/><path d="M 122.203 21.359 C 117.325 14.922 121.913 12.856 118.906 7.648 C 126.984 11.299 125.992 18.156 122.203 21.359 Z" fill="#000000" stroke="none"/><path d="M 118.117 24.384 C 113.039 22.391 114.956 19.585 111.389 17.643 C 117.33 16.903 119.173 21.205 118.117 24.384 Z" fill="#000000" stroke="none"/><path d="M 182.621 85.364 C 180.336 84.36 178.219 82.95 176.417 81.197 C 174.629 79.431 173.163 77.334 172.113 75.042 C 170.018 70.458 169.638 65.063 171.212 60.239 C 171.986 57.845 173.183 55.517 174.896 53.612 C 176.608 51.712 178.755 50.219 181.114 49.25 C 185.833 47.253 191.427 47.666 195.865 50.218 C 196.964 50.892 197.974 51.705 198.859 52.642 C 199.714 53.603 200.477 54.651 201.048 55.806 C 202.194 58.109 202.694 60.73 202.425 63.291 C 202.285 64.565 202.003 65.833 201.498 67.015 C 201.03 68.208 200.354 69.357 199.487 70.324 C 197.755 72.271 195.325 73.563 192.753 73.92 C 190.174 74.291 187.496 73.715 185.304 72.25 C 183.113 70.766 181.72 68.248 181.513 65.641 C 181.397 64.335 181.607 63.008 182.073 61.792 C 182.523 60.568 183.317 59.427 184.361 58.615 C 186.429 56.942 189.435 56.585 191.825 57.716 L 191.831 57.719 C 192.101 57.847 192.217 58.169 192.089 58.44 C 191.962 58.708 191.644 58.823 191.376 58.701 C 189.333 57.769 186.81 58.113 185.099 59.534 C 183.365 60.917 182.586 63.319 182.784 65.533 C 182.994 67.763 184.212 69.893 186.081 71.119 C 187.938 72.335 190.325 72.869 192.554 72.52 C 194.796 72.199 196.907 71.061 198.402 69.367 C 199.154 68.518 199.726 67.537 200.139 66.469 C 200.588 65.412 200.831 64.28 200.952 63.144 C 201.181 60.864 200.723 58.532 199.696 56.488 C 199.184 55.462 198.499 54.536 197.739 53.685 C 196.949 52.858 196.05 52.143 195.074 51.548 C 191.08 49.281 185.98 48.908 181.727 50.745 C 179.597 51.631 177.664 52.989 176.127 54.708 C 174.59 56.438 173.528 58.522 172.815 60.748 C 171.34 65.178 171.668 70.134 173.533 74.411 C 175.38 78.706 178.813 82.298 183.07 84.379 L 183.076 84.383 C 183.344 84.514 183.455 84.838 183.324 85.106 C 183.196 85.368 182.885 85.479 182.621 85.364 Z" fill="#000000" stroke="none"/><path d="M 185.141 58.437 C 190.146 63.499 192.47 59.57 196.628 62.819 C 194.408 55.152 188.356 55.345 185.141 58.437 Z" fill="#000000" stroke="none"/><path d="M 219.503 49.58 C 208.919 40.362 206.082 49.704 197.385 48.912 C 211.238 56.296 213.054 48.154 219.503 49.58 Z" fill="#000000" stroke="none"/><path d="M 210 36.557 C 196.369 33.211 198.127 42.815 190.032 46.094 C 205.729 46.313 203.615 38.244 210 36.557 Z" fill="#000000" stroke="none"/><path d="M 219.641 62.418 C 214.465 52.018 209.338 58.264 202.936 54.905 C 211.194 64.939 215.16 59.287 219.641 62.418 Z" fill="#000000" stroke="none"/><path d="M 181.219 33.749 C 174.225 39.875 180.104 42.571 178.809 48.209 C 184.891 39.773 179.709 37.855 181.219 33.749 Z" fill="#000000" stroke="none"/><path d="M 195.028 31.699 C 183.719 34.358 188.626 40.779 183.89 46.241 C 195.548 40.499 190.954 35.344 195.028 31.699 Z" fill="#000000" stroke="none"/><path d="M 217.46 77.211 C 216.799 65.613 209.626 69.334 205.066 63.724 C 208.703 76.2 214.575 72.568 217.46 77.211 Z" fill="#000000" stroke="none"/><path d="M 206.36 83.828 C 210.113 75.948 204.043 75.81 203.064 70.468 C 200.956 79.999 206.137 79.727 206.36 83.828 Z" fill="#000000" stroke="none"/><path d="M 171.357 38.493 C 167.488 46.316 173.555 46.543 174.454 51.899 C 176.703 42.4 171.52 42.596 171.357 38.493 Z" fill="#000000" stroke="none"/><path d="M 74.975 82.338 C 79.171 82.238 83.33 81.413 87.208 79.888 C 91.087 78.362 94.674 76.128 97.748 73.34 C 103.92 67.803 108.068 60.002 108.908 51.766 C 109.353 47.652 109.129 43.505 107.912 39.59 C 106.679 35.693 104.544 32.097 101.753 29.122 C 96.226 23.074 87.751 19.986 79.695 20.742 C 77.696 20.988 75.731 21.471 73.86 22.222 C 72.018 23.03 70.242 24.013 68.671 25.284 C 65.528 27.808 63.087 31.214 61.786 35.04 C 61.148 36.948 60.71 38.942 60.656 40.965 C 60.538 42.98 60.738 44.978 61.324 46.892 C 62.491 50.708 65.031 54.086 68.388 56.274 C 71.713 58.488 75.94 59.419 79.856 58.828 C 83.795 58.226 87.345 55.674 89.342 52.214 C 90.366 50.495 90.951 48.524 91.115 46.523 C 91.302 44.521 90.97 42.509 90.08 40.712 C 88.354 37.096 84.489 34.6 80.405 34.553 C 80.106 34.552 79.865 34.309 79.866 34.01 C 79.867 33.714 80.11 33.475 80.405 33.471 C 82.628 33.464 84.885 34.018 86.806 35.194 C 87.774 35.764 88.66 36.479 89.422 37.308 C 90.207 38.119 90.85 39.061 91.372 40.062 C 92.43 42.063 92.87 44.393 92.713 46.633 C 92.585 48.872 91.979 51.105 90.872 53.077 C 88.687 57.024 84.696 59.985 80.193 60.749 C 75.704 61.49 71.051 60.508 67.235 58.078 C 63.411 55.683 60.482 51.889 59.153 47.553 C 58.477 45.394 58.237 43.088 58.357 40.86 C 58.41 38.623 58.88 36.407 59.579 34.285 C 61.003 30.033 63.691 26.237 67.172 23.416 C 68.912 21.996 70.88 20.885 72.93 19.98 C 75.011 19.135 77.2 18.573 79.43 18.305 C 88.321 17.508 97.463 20.944 103.451 27.53 C 106.465 30.774 108.761 34.688 110.076 38.921 C 110.332 39.998 110.668 41.058 110.851 42.15 L 111.098 43.791 L 111.218 44.613 L 111.255 45.442 C 111.297 46.546 111.392 47.654 111.284 48.746 L 111.189 50.388 C 111.165 50.936 111.129 51.483 111.022 52.023 C 109.995 60.757 105.487 68.941 98.907 74.649 C 92.32 80.374 83.636 83.56 74.975 83.42 C 74.677 83.416 74.439 83.169 74.443 82.871 C 74.448 82.58 74.687 82.346 74.975 82.338 Z" fill="#000000" stroke="none"/><path d="M 19.878 88.499 C 19.878 88.499 33.803 81.321 54.406 82.879 C 80.118 84.825 94.4 92.416 110.821 70.666 C 110.821 70.666 108.229 90.212 88.689 91.192 C 66.187 92.32 50.977 79.927 19.878 88.499 Z" fill="#000000" stroke="none"/><path d="M 84.955 34.624 C 77.698 39.133 76.085 33.897 70.323 36.525 C 75.058 28.199 82.069 30.117 84.955 34.624 Z" fill="#000000" stroke="none"/><path d="M 85.99 16.025 C 83.814 7.012 78.644 9.587 76.201 3.13 C 73.576 12.962 80.39 17.065 85.99 16.025 Z" fill="#000000" stroke="none"/><path d="M 93.481 17.916 C 95.579 8.884 89.804 8.868 90.517 2 C 83.76 9.61 88.01 16.333 93.481 17.916 Z" fill="#000000" stroke="none"/><path d="M 99.437 21.359 C 104.315 14.922 99.728 12.856 102.735 7.648 C 94.657 11.299 95.649 18.156 99.437 21.359 Z" fill="#000000" stroke="none"/><path d="M 103.524 24.384 C 108.601 22.391 106.685 19.585 110.252 17.643 C 104.31 16.903 102.468 21.205 103.524 24.384 Z" fill="#000000" stroke="none"/><path d="M 38.571 84.379 C 42.827 82.298 46.261 78.706 48.108 74.411 C 49.972 70.134 50.302 65.178 48.826 60.748 C 48.113 58.522 47.051 56.438 45.514 54.708 C 43.977 52.989 42.044 51.631 39.914 50.745 C 35.66 48.908 30.561 49.281 26.567 51.548 C 25.591 52.143 24.692 52.858 23.902 53.685 C 23.142 54.536 22.456 55.462 21.945 56.488 C 20.917 58.532 20.459 60.864 20.689 63.144 C 20.809 64.28 21.053 65.412 21.501 66.469 C 21.915 67.537 22.487 68.518 23.239 69.367 C 24.734 71.061 26.845 72.199 29.086 72.52 C 31.316 72.869 33.703 72.335 35.559 71.119 C 37.429 69.893 38.647 67.763 38.857 65.533 C 39.055 63.319 38.276 60.917 36.541 59.534 C 34.831 58.113 32.307 57.769 30.265 58.701 C 29.993 58.824 29.673 58.705 29.549 58.432 C 29.426 58.164 29.542 57.846 29.809 57.719 L 29.816 57.716 C 32.206 56.585 35.212 56.942 37.28 58.615 C 38.324 59.427 39.118 60.568 39.568 61.792 C 40.034 63.008 40.244 64.335 40.128 65.641 C 39.921 68.248 38.528 70.766 36.337 72.25 C 34.144 73.715 31.467 74.291 28.888 73.92 C 26.315 73.563 23.887 72.271 22.154 70.324 C 21.286 69.357 20.611 68.208 20.143 67.015 C 19.638 65.833 19.355 64.565 19.216 63.291 C 18.947 60.73 19.447 58.109 20.593 55.806 C 21.163 54.651 21.927 53.603 22.782 52.642 C 23.666 51.705 24.677 50.892 25.776 50.218 C 30.214 47.666 35.808 47.253 40.527 49.25 C 42.886 50.219 45.033 51.712 46.744 53.612 C 48.457 55.517 49.655 57.845 50.429 60.239 C 52.003 65.063 51.623 70.458 49.528 75.042 C 48.477 77.334 47.012 79.431 45.224 81.197 C 43.422 82.95 41.305 84.36 39.02 85.364 C 38.747 85.484 38.428 85.36 38.307 85.086 C 38.19 84.82 38.305 84.51 38.564 84.383 L 38.571 84.379 Z" fill="#000000" stroke="none"/><path d="M 36.499 58.437 C 31.494 63.499 29.171 59.57 25.013 62.819 C 27.233 55.152 33.285 55.345 36.499 58.437 Z" fill="#000000" stroke="none"/><path d="M 2.138 49.58 C 12.722 40.362 15.558 49.704 24.257 48.912 C 10.403 56.296 8.586 48.154 2.138 49.58 Z" fill="#000000" stroke="none"/><path d="M 11.641 36.557 C 25.272 33.211 23.514 42.815 31.609 46.094 C 15.911 46.313 18.026 38.244 11.641 36.557 Z" fill="#000000" stroke="none"/><path d="M 2 62.418 C 7.177 52.018 12.303 58.264 18.704 54.905 C 10.448 64.939 6.48 59.287 2 62.418 Z" fill="#000000" stroke="none"/><path d="M 40.422 33.749 C 47.416 39.875 41.536 42.571 42.832 48.209 C 36.749 39.773 41.932 37.855 40.422 33.749 Z" fill="#000000" stroke="none"/><path d="M 26.613 31.699 C 37.922 34.358 33.014 40.779 37.75 46.241 C 26.093 40.499 30.687 35.344 26.613 31.699 Z" fill="#000000" stroke="none"/><path d="M 4.181 77.211 C 4.842 65.613 12.014 69.334 16.575 63.724 C 12.938 76.2 7.065 72.568 4.181 77.211 Z" fill="#000000" stroke="none"/><path d="M 15.281 83.828 C 11.529 75.948 17.598 75.81 18.576 70.468 C 20.685 79.999 15.505 79.727 15.281 83.828 Z" fill="#000000" stroke="none"/><path d="M 50.284 38.493 C 54.153 46.316 48.086 46.543 47.186 51.899 C 44.937 42.4 50.121 42.596 50.284 38.493 Z" fill="#000000" stroke="none"/><path d="M 121.976 93.767 C 121.617 93.822 121.251 93.86 120.882 93.896 C 120.514 93.918 120.134 94.01 119.764 93.957 C 119.019 93.905 118.248 93.877 117.513 93.638 C 116.748 93.488 116.053 93.13 115.338 92.793 C 114.673 92.378 114.002 91.939 113.439 91.378 C 112.275 90.297 111.37 88.954 110.747 87.519 C 110.115 86.065 109.71 84.613 109.596 82.951 L 109.595 82.944 L 112.046 82.946 C 111.94 84.614 111.534 86.059 110.892 87.505 C 110.247 88.927 109.319 90.25 108.146 91.305 C 106.992 92.374 105.576 93.165 104.094 93.534 C 103.367 93.776 102.602 93.812 101.866 93.887 C 101.124 93.917 100.381 93.832 99.664 93.767 C 100.367 93.527 101.067 93.403 101.725 93.148 C 102.375 92.871 103.036 92.679 103.615 92.309 C 104.83 91.712 105.847 90.849 106.683 89.873 C 107.518 88.889 108.162 87.758 108.636 86.545 C 109.097 85.353 109.443 83.999 109.595 82.813 L 109.609 82.701 C 109.695 82.03 110.308 81.556 110.978 81.642 C 111.583 81.719 112.027 82.226 112.046 82.816 L 112.046 82.819 C 112.18 84.03 112.503 85.402 112.945 86.62 C 113.412 87.851 114.043 89.005 114.874 90.002 C 115.267 90.53 115.782 90.925 116.266 91.377 C 116.814 91.733 117.341 92.158 117.966 92.425 C 119.167 93.084 120.542 93.412 121.976 93.767 Z" fill="#000000" stroke="none"/>
</svg>
