<?xml version="1.0" encoding="UTF-8"?>
<svg xmlns="http://www.w3.org/2000/svg" width="620.886" height="301.620" viewBox="0 0 620.886 301.620">
  <path d="M 310.446 12 C 309.146 12 307.836 12.06 306.546 12.19 L 47.641 37.97 C 27.279 40 11.923 57.08 11.923 77.7 L 11.923 182.66 C 11.923 200.89 24.16 216.79 41.68 221.33 L 300.586 288.36 C 307.016 290.03 313.866 290.03 320.296 288.36 L 579.206 221.33 C 596.726 216.79 608.956 200.89 608.956 182.66 L 608.956 77.7 C 608.956 57.08 593.606 40 573.236 37.97 L 314.336 12.19 C 313.046 12.06 311.736 12 310.446 12 Z M 310.446 299.62 C 306.286 299.62 302.136 299.09 298.116 298.05 L 39.211 231.01 C 17.302 225.34 2 205.46 2 182.66 L 2 77.7 C 2 51.92 21.202 30.56 46.665 28.02 L 305.566 2.24 C 308.786 1.92 312.086 1.92 315.316 2.24 L 574.216 28.02 C 599.676 30.56 618.886 51.92 618.886 77.7 L 618.886 182.66 C 618.886 205.46 603.576 225.34 581.676 231.01 L 322.766 298.05 C 318.746 299.09 314.596 299.62 310.446 299.62 Z" fill="#000000" stroke="none"/><path d="M 310.436 28 C 309.656 28 308.886 28.04 308.106 28.11 L 49.203 53.9 C 37.001 55.11 27.799 65.35 27.799 77.7 L 27.799 182.66 C 27.799 193.59 35.132 203.11 45.631 205.83 L 304.536 272.86 C 308.396 273.86 312.486 273.86 316.346 272.86 L 575.246 205.83 C 585.746 203.11 593.086 193.59 593.086 182.66 L 593.086 77.7 C 593.086 65.35 583.886 55.11 571.676 53.9 L 312.776 28.11 C 311.996 28.04 311.216 28 310.436 28 Z M 310.446 275.61 C 308.286 275.61 306.136 275.34 304.036 274.8 L 45.137 207.77 C 33.761 204.82 25.815 194.5 25.815 182.66 L 25.815 77.7 C 25.815 64.31 35.786 53.22 49.008 51.91 L 307.916 26.12 C 309.586 25.96 311.296 25.96 312.966 26.12 L 571.876 51.91 C 585.096 53.22 595.066 64.31 595.066 77.7 L 595.066 182.66 C 595.066 194.5 587.126 204.82 575.746 207.77 L 316.846 274.8 C 314.746 275.34 312.596 275.61 310.446 275.61 Z" fill="#000000" stroke="none"/><path d="M 310.436 27 C 309.696 27 308.946 27.03 308.206 27.1 C 309.596 26.97 311.026 26.96 312.416 27.08 C 311.756 27.02 311.096 27 310.436 27 Z M 586.476 59.69 C 586.476 59.69 586.486 59.7 586.486 59.7 C 586.486 59.7 586.476 59.69 586.476 59.69 Z M 586.626 59.84 L 586.626 59.84 L 586.626 59.84 Z M 586.746 59.95 C 590.526 63.72 593.086 68.7 593.846 74.26 C 593.086 68.7 590.526 63.72 586.746 59.95 Z M 310.436 29 C 309.696 29 308.936 29.04 308.206 29.11 L 49.3 54.89 C 37.609 56.06 28.792 65.86 28.792 77.7 L 28.792 182.66 C 28.792 193.13 35.818 202.26 45.878 204.86 L 304.786 271.89 C 308.486 272.85 312.406 272.85 316.096 271.89 L 575.006 204.86 C 585.066 202.26 592.086 193.13 592.086 182.66 L 592.086 77.7 C 592.086 65.86 583.276 56.06 571.586 54.89 L 312.676 29.11 C 311.946 29.04 311.186 29 310.436 29 Z M 594.076 77.7 L 594.076 182.66 C 594.076 194.04 586.436 203.97 575.496 206.8 L 316.596 273.83 C 315.216 274.19 313.816 274.42 312.406 274.54 C 313.826 274.42 315.226 274.19 316.596 273.83 L 575.496 206.8 C 586.436 203.97 594.076 194.04 594.076 182.66 L 594.076 77.7 Z M 312.406 274.54 C 312.396 274.54 312.386 274.54 312.386 274.54 C 312.386 274.54 312.396 274.54 312.406 274.54 Z M 312.376 274.54 C 312.366 274.54 312.366 274.54 312.356 274.54 C 312.366 274.54 312.366 274.54 312.376 274.54 Z M 312.346 274.54 C 312.346 274.54 312.336 274.54 312.336 274.54 C 312.336 274.54 312.346 274.54 312.346 274.54 Z M 311.076 274.61 C 311.076 274.61 311.076 274.61 311.076 274.61 C 311.076 274.61 311.076 274.61 311.076 274.61 Z M 26.807 182.66 C 26.807 194.04 34.446 203.97 45.384 206.8 L 304.286 273.83 C 306.486 274.4 308.776 274.66 311.066 274.61 C 308.786 274.66 306.506 274.41 304.286 273.83 L 45.384 206.8 C 34.447 203.97 26.807 194.04 26.807 182.66 Z M 310.446 276.61 C 308.196 276.61 305.956 276.33 303.796 275.77 L 44.89 208.74 C 33.074 205.68 24.823 194.96 24.823 182.66 L 24.823 77.7 C 24.823 63.8 35.178 52.28 48.91 50.91 L 307.816 25.13 C 309.556 24.95 311.326 24.95 313.066 25.13 L 571.976 50.91 C 585.706 52.28 596.056 63.8 596.056 77.7 L 596.056 182.66 C 596.056 194.96 587.806 205.68 575.996 208.74 L 317.086 275.77 C 314.926 276.33 312.686 276.61 310.446 276.61 Z" fill="#000000" stroke="none"/>
</svg>
