<?xml version="1.0" encoding="UTF-8"?>
<svg xmlns="http://www.w3.org/2000/svg" width="596.508" height="374.316" viewBox="0 0 596.508 374.316">
  <path d="M 229.775 314.735 L 230.181 314.745 C 244.048 315.083 257.296 320.501 267.485 330.001 L 298.254 358.692 L 329.023 330.002 C 339.211 320.501 352.459 315.083 366.327 314.745 L 366.733 314.735 L 511.325 335.139 C 513.085 335.388 514.874 335.514 516.642 335.514 C 530.3 335.514 542.946 328.134 549.643 316.254 L 550.771 314.253 L 553.013 313.816 C 559.645 312.521 565.828 309.83 570.895 306.031 C 579.595 299.507 584.585 290.028 584.585 280.025 L 584.585 94.291 C 584.585 77.905 571.604 63.997 553.018 60.47 L 550.761 60.041 L 549.625 58.03 C 542.923 46.171 530.285 38.803 516.642 38.803 C 514.874 38.803 513.085 38.929 511.326 39.178 L 366.733 59.582 L 366.327 59.572 C 352.46 59.234 339.211 53.816 329.023 44.315 L 298.254 15.624 L 267.486 44.315 C 257.296 53.816 244.048 59.234 230.181 59.572 L 229.775 59.582 L 85.183 39.178 C 83.423 38.929 81.634 38.803 79.866 38.803 C 66.223 38.803 53.585 46.171 46.883 58.03 L 45.747 60.041 L 43.49 60.47 C 24.904 63.997 11.923 77.905 11.923 94.291 L 11.923 280.025 C 11.923 296.411 24.904 310.319 43.49 313.847 L 45.747 314.275 L 46.883 316.287 C 53.585 328.146 66.223 335.514 79.866 335.514 C 81.634 335.514 83.423 335.388 85.182 335.139 L 229.775 314.735 Z M 298.254 372.316 L 260.746 337.341 C 252.429 329.586 241.644 325.124 230.336 324.753 L 86.558 345.042 C 84.346 345.355 82.094 345.514 79.866 345.514 C 63.433 345.514 48.15 337.024 39.439 323.209 C 17.281 318.093 2 300.615 2 280.025 L 2 94.291 C 2 73.702 17.281 56.223 39.439 51.108 C 48.15 37.292 63.433 28.803 79.866 28.803 C 82.093 28.803 84.346 28.962 86.559 29.274 L 230.336 49.564 C 241.644 49.192 252.429 44.731 260.747 36.976 L 298.254 2 L 335.762 36.976 C 344.079 44.731 354.864 49.192 366.171 49.564 L 509.95 29.274 C 512.162 28.962 514.414 28.803 516.642 28.803 C 533.074 28.803 548.358 37.292 557.069 51.108 C 579.227 56.223 594.508 73.702 594.508 94.291 L 594.508 280.025 C 594.508 293.221 588.06 305.624 576.818 314.054 C 571.135 318.315 564.358 321.439 557.101 323.158 C 548.395 337.004 533.098 345.514 516.642 345.514 C 514.415 345.514 512.162 345.355 509.949 345.042 L 366.171 324.753 C 354.864 325.124 344.079 329.586 335.762 337.342 L 298.254 372.316 Z" fill="#000000" stroke="none"/><path d="M 228.719 298.727 L 228.788 298.727 C 247.189 298.727 264.762 305.663 278.268 318.258 L 298.254 336.894 L 318.24 318.258 C 331.747 305.663 349.319 298.727 367.72 298.727 L 367.858 298.737 L 513.527 319.294 C 519.564 320.146 525.519 318.522 530.297 314.723 C 535.091 310.913 538.051 305.459 538.632 299.369 L 538.728 298.365 L 540.19 298.519 C 548.887 299.436 557.42 296.954 563.026 291.868 C 566.743 288.495 568.709 284.399 568.709 280.025 L 568.709 94.291 C 568.709 89.917 566.743 85.822 563.026 82.449 C 557.42 77.362 548.88 74.875 540.191 75.798 L 539.723 75.847 L 538.728 75.952 L 538.632 74.948 C 538.051 68.857 535.091 63.404 530.297 59.594 C 525.518 55.794 519.562 54.174 513.527 55.023 L 367.789 75.589 L 367.72 75.589 C 349.319 75.589 331.747 68.653 318.24 56.059 L 298.254 37.423 L 278.268 56.059 C 264.762 68.653 247.189 75.589 228.788 75.589 L 228.65 75.58 L 82.981 55.023 C 76.945 54.172 70.989 55.794 66.211 59.594 C 61.417 63.404 58.457 68.857 57.876 74.948 L 57.78 75.952 L 56.318 75.798 C 47.619 74.874 39.087 77.363 33.482 82.449 C 29.764 85.822 27.799 89.917 27.799 94.291 L 27.799 280.025 C 27.799 284.399 29.764 288.495 33.482 291.868 C 39.087 296.954 47.625 299.441 56.317 298.519 L 57.78 298.365 L 57.876 299.369 C 58.457 305.459 61.417 310.913 66.211 314.723 C 70.99 318.522 76.946 320.145 82.981 319.294 L 228.719 298.727 Z M 298.254 339.619 L 276.92 319.726 C 263.799 307.49 246.732 300.745 228.856 300.727 L 83.256 321.274 C 76.681 322.205 70.19 320.434 64.981 316.293 C 60.097 312.411 56.867 306.721 56.017 300.558 C 46.95 301.394 38.061 298.713 32.154 293.354 C 28.066 289.645 25.815 284.911 25.815 280.025 L 25.815 94.291 C 25.815 89.405 28.066 84.672 32.154 80.962 C 38.06 75.604 46.944 72.93 56.017 73.758 C 56.867 67.596 60.097 61.906 64.981 58.023 C 70.189 53.883 76.682 52.114 83.256 53.042 L 228.857 73.589 C 246.732 73.572 263.799 66.827 276.92 54.591 L 298.254 34.698 L 319.588 54.591 C 332.709 66.827 349.776 73.572 367.651 73.589 L 513.252 53.042 C 519.826 52.115 526.318 53.883 531.526 58.023 C 536.41 61.906 539.641 67.596 540.491 73.759 C 549.562 72.925 558.448 75.603 564.354 80.962 C 568.442 84.672 570.693 89.405 570.693 94.291 L 570.693 280.025 C 570.693 284.911 568.442 289.645 564.354 293.354 C 558.448 298.713 549.56 301.386 540.491 300.558 C 539.641 306.721 536.41 312.411 531.526 316.293 C 526.319 320.434 519.829 322.203 513.252 321.274 L 367.652 300.727 C 349.776 300.745 332.709 307.49 319.588 319.726 L 298.254 339.619 Z" fill="#000000" stroke="none"/><path d="M 79.84 53.801 C 74.684 53.801 69.721 55.529 65.596 58.809 C 65.55 58.845 65.504 58.882 65.459 58.918 C 65.504 58.882 65.55 58.845 65.596 58.809 C 70.354 55.025 76.233 53.307 82.23 53.924 C 81.431 53.842 80.633 53.801 79.84 53.801 Z M 516.662 53.802 C 521.823 53.802 526.788 55.53 530.912 58.809 C 530.977 58.861 531.042 58.913 531.107 58.966 C 531.042 58.913 530.977 58.861 530.912 58.809 C 526.062 54.953 520.05 53.244 513.933 53.962 C 514.846 53.855 515.757 53.802 516.662 53.802 Z M 272.168 59.911 C 272.16 59.916 272.154 59.921 272.147 59.926 C 272.154 59.921 272.16 59.916 272.168 59.911 Z M 329.253 63.351 L 329.255 63.352 C 329.254 63.351 329.254 63.351 329.253 63.351 Z M 329.295 63.377 C 329.298 63.379 329.301 63.381 329.304 63.383 C 329.301 63.381 329.298 63.379 329.295 63.377 Z M 329.338 63.405 C 329.343 63.408 329.346 63.41 329.352 63.413 C 329.347 63.411 329.342 63.408 329.338 63.405 Z M 329.38 63.432 C 329.387 63.435 329.394 63.44 329.401 63.444 C 329.394 63.44 329.387 63.435 329.38 63.432 Z M 329.423 63.458 C 329.431 63.464 329.44 63.47 329.448 63.475 C 329.44 63.47 329.431 63.464 329.423 63.458 Z M 329.465 63.486 C 329.476 63.493 329.487 63.499 329.498 63.506 C 329.487 63.499 329.476 63.493 329.465 63.486 Z M 329.507 63.512 C 329.52 63.52 329.534 63.529 329.546 63.537 C 329.534 63.529 329.52 63.52 329.507 63.512 Z M 329.549 63.539 C 338.364 69.117 348.271 72.692 358.638 74.014 C 348.271 72.691 338.363 69.117 329.549 63.539 Z M 358.656 74.016 C 358.665 74.017 358.674 74.018 358.684 74.019 C 358.675 74.018 358.664 74.017 358.656 74.016 Z M 358.707 74.022 C 358.715 74.023 358.723 74.024 358.731 74.025 C 358.723 74.024 358.715 74.023 358.707 74.022 Z M 358.761 74.029 C 358.766 74.03 358.769 74.03 358.774 74.031 C 358.769 74.03 358.766 74.03 358.761 74.029 Z M 358.814 74.036 C 358.816 74.036 358.818 74.037 358.82 74.037 C 358.818 74.037 358.816 74.036 358.814 74.036 Z M 228.792 74.589 L 228.858 74.592 C 244.557 74.59 259.693 69.431 272.129 59.94 C 259.712 69.416 244.592 74.574 228.858 74.589 L 228.792 74.589 Z M 55.606 74.726 C 55.877 74.748 56.15 74.774 56.422 74.803 L 56.888 74.852 C 56.913 74.588 56.943 74.325 56.977 74.063 L 56.87 74.84 L 55.927 74.754 C 55.82 74.745 55.713 74.735 55.606 74.726 Z M 539.532 74.067 C 539.565 74.328 539.595 74.589 539.62 74.852 L 540.087 74.803 C 540.206 74.79 540.325 74.779 540.444 74.767 L 539.639 74.841 L 539.532 74.067 Z M 33.219 81.35 C 33.084 81.467 32.95 81.585 32.818 81.705 C 32.749 81.768 32.68 81.832 32.611 81.895 C 32.68 81.832 32.749 81.768 32.818 81.705 C 32.951 81.585 33.084 81.467 33.219 81.35 Z M 563.25 81.316 C 563.398 81.444 563.545 81.574 563.69 81.705 C 563.759 81.768 563.828 81.832 563.897 81.895 C 563.828 81.832 563.759 81.768 563.69 81.705 C 563.545 81.574 563.398 81.444 563.25 81.316 Z M 569.701 94.291 L 569.701 280.025 L 569.701 94.291 Z M 32.381 292.204 C 32.524 292.341 32.67 292.477 32.818 292.611 C 33.169 292.929 33.53 293.238 33.902 293.536 C 33.53 293.237 33.169 292.929 32.818 292.611 C 32.67 292.476 32.524 292.34 32.381 292.204 Z M 564.146 292.185 C 563.997 292.328 563.845 292.47 563.69 292.611 C 563.253 293.007 562.798 293.389 562.328 293.755 C 562.799 293.389 563.253 293.008 563.69 292.611 C 563.845 292.471 563.997 292.329 564.146 292.185 Z M 55.316 299.613 C 54.576 299.668 53.838 299.699 53.103 299.706 C 53.838 299.699 54.576 299.668 55.316 299.613 Z M 228.788 299.727 L 228.788 299.727 Z M 235.073 300.002 C 235.075 300.002 235.076 300.002 235.079 300.003 C 235.076 300.002 235.075 300.002 235.073 300.002 Z M 235.125 300.007 C 235.127 300.007 235.129 300.007 235.131 300.007 C 235.129 300.007 235.127 300.007 235.125 300.007 Z M 235.168 300.011 C 235.175 300.011 235.18 300.012 235.186 300.012 C 235.181 300.012 235.174 300.011 235.168 300.011 Z M 235.215 300.015 C 235.224 300.016 235.23 300.016 235.239 300.017 C 235.231 300.017 235.223 300.016 235.215 300.015 Z M 235.263 300.019 C 235.273 300.02 235.283 300.021 235.293 300.022 C 235.282 300.021 235.274 300.02 235.263 300.019 Z M 235.309 300.023 C 235.321 300.024 235.334 300.026 235.346 300.027 C 235.333 300.025 235.322 300.024 235.309 300.023 Z M 56.869 299.476 L 56.976 300.248 C 56.942 299.988 56.913 299.726 56.888 299.464 L 56.421 299.514 C 56.303 299.526 56.186 299.538 56.069 299.549 L 56.869 299.476 Z M 539.62 299.464 L 539.62 299.464 C 539.595 299.728 539.565 299.992 539.531 300.254 L 539.638 299.476 L 540.581 299.562 C 541.322 299.63 542.064 299.674 542.802 299.693 C 541.9 299.669 540.994 299.609 540.087 299.514 L 539.62 299.464 Z M 235.357 300.028 C 246.617 301.061 257.402 304.74 266.914 310.75 C 257.402 304.739 246.617 301.061 235.357 300.028 Z M 266.918 310.752 C 266.931 310.76 266.944 310.768 266.957 310.777 C 266.944 310.768 266.931 310.76 266.918 310.752 Z M 266.966 310.783 C 266.977 310.789 266.988 310.796 266.999 310.803 C 266.988 310.796 266.977 310.789 266.966 310.783 Z M 267.015 310.813 C 267.024 310.819 267.032 310.824 267.041 310.83 C 267.032 310.824 267.024 310.819 267.015 310.813 Z M 267.064 310.844 C 267.07 310.849 267.077 310.853 267.084 310.857 C 267.077 310.853 267.07 310.849 267.064 310.844 Z M 267.111 310.874 C 267.115 310.877 267.122 310.881 267.127 310.884 C 267.121 310.881 267.116 310.878 267.111 310.874 Z M 267.159 310.905 C 267.163 310.908 267.165 310.909 267.169 310.911 C 267.166 310.91 267.162 310.907 267.159 310.905 Z M 267.208 310.936 C 267.209 310.936 267.21 310.937 267.211 310.938 C 267.21 310.937 267.209 310.936 267.208 310.936 Z M 367.65 299.725 C 352.128 299.727 337.157 304.769 324.801 314.058 C 337.139 304.784 352.094 299.742 367.651 299.727 L 367.716 299.727 L 367.65 299.725 Z M 324.767 314.082 C 324.766 314.084 324.764 314.084 324.763 314.086 C 324.764 314.084 324.766 314.084 324.767 314.082 Z M 531.108 315.351 C 531.042 315.404 530.977 315.456 530.912 315.508 C 527.255 318.416 522.937 320.104 518.411 320.45 C 522.936 320.104 527.254 318.416 530.912 315.508 C 530.977 315.456 531.043 315.404 531.108 315.351 Z M 65.367 315.323 C 65.443 315.386 65.519 315.447 65.596 315.508 C 70.507 319.413 76.605 321.119 82.796 320.328 C 76.598 321.116 70.503 319.409 65.596 315.508 C 65.519 315.447 65.443 315.385 65.367 315.323 Z M 228.649 297.727 L 228.788 297.727 C 247.44 297.727 265.252 304.758 278.942 317.524 L 298.254 335.532 L 317.566 317.524 C 331.257 304.758 349.068 297.727 367.72 297.727 L 367.927 297.74 L 513.665 318.304 C 519.432 319.119 525.119 317.567 529.682 313.938 C 534.262 310.298 537.089 305.09 537.644 299.273 L 537.836 297.265 L 540.293 297.524 C 548.719 298.415 556.966 296.02 562.362 291.124 C 565.865 287.946 567.716 284.108 567.716 280.025 L 567.716 94.291 C 567.716 90.209 565.865 86.371 562.362 83.192 C 556.961 78.29 548.707 75.898 540.295 76.792 L 537.836 77.052 L 537.644 75.044 C 537.089 69.227 534.262 64.019 529.683 60.379 C 525.121 56.751 519.431 55.203 513.664 56.013 L 367.859 76.589 L 367.789 76.589 C 349.068 76.589 331.257 69.559 317.566 56.793 L 298.254 38.785 L 278.942 56.793 C 265.252 69.559 247.44 76.589 228.788 76.589 L 228.581 76.577 L 82.843 56.013 C 77.079 55.203 71.388 56.751 66.825 60.379 C 62.246 64.019 59.419 69.227 58.864 75.044 L 58.672 77.052 L 56.215 76.792 C 47.796 75.901 39.548 78.291 34.146 83.192 C 30.643 86.371 28.791 90.209 28.791 94.291 L 28.791 280.025 C 28.791 284.108 30.643 287.946 34.146 291.124 C 39.546 296.025 47.797 298.416 56.213 297.524 L 58.672 297.265 L 58.864 299.273 C 59.419 305.09 62.246 310.298 66.825 313.938 C 71.389 317.566 77.079 319.116 82.843 318.304 L 228.649 297.727 Z M 298.254 340.981 L 276.246 320.459 C 263.327 308.413 246.524 301.762 228.924 301.727 L 83.394 322.265 C 76.552 323.235 69.792 321.392 64.367 317.079 C 59.565 313.261 56.252 307.671 55.181 301.627 C 46.178 302.223 37.381 299.443 31.49 294.098 C 27.19 290.196 24.822 285.198 24.822 280.025 L 24.822 94.291 C 24.822 89.119 27.19 84.121 31.49 80.219 C 37.373 74.881 46.167 72.094 55.181 72.69 C 56.252 66.645 59.564 61.056 64.367 57.238 C 69.79 52.928 76.547 51.086 83.394 52.052 L 228.925 72.589 C 246.524 72.555 263.328 65.904 276.246 53.857 L 298.254 33.336 L 320.262 53.857 C 333.181 65.904 349.985 72.555 367.583 72.589 L 513.114 52.052 C 519.962 51.085 526.719 52.927 532.141 57.238 C 536.943 61.056 540.255 66.646 541.327 72.689 C 550.338 72.098 559.13 74.876 565.018 80.219 C 569.318 84.121 571.686 89.119 571.686 94.291 L 571.686 280.025 C 571.686 285.198 569.318 290.196 565.018 294.098 C 559.135 299.435 550.339 302.222 541.327 301.627 C 540.256 307.671 536.944 313.261 532.141 317.079 C 526.718 321.391 519.964 323.233 513.114 322.265 L 367.584 301.727 C 349.984 301.762 333.182 308.413 320.262 320.459 L 298.254 340.981 Z" fill="#000000" stroke="none"/>
</svg>
