<?xml version="1.0" encoding="UTF-8"?>
<svg xmlns="http://www.w3.org/2000/svg" width="578.132" height="395.127" viewBox="0 0 578.132 395.127">
  <path d="M 138.419 340.706 L 139.679 340.706 C 158.319 340.706 176.989 346.096 193.659 356.296 C 222.349 373.849 255.339 383.127 289.059 383.127 C 322.789 383.127 355.779 373.849 384.469 356.295 C 401.139 346.096 419.809 340.706 438.449 340.706 L 439.709 340.706 C 455.779 340.706 470.549 343.838 483.609 350.015 C 491.349 353.673 499.619 355.528 508.209 355.529 C 509.729 355.529 511.279 355.468 512.799 355.35 C 540.989 353.147 563.879 330.06 566.039 301.648 C 566.809 291.494 564.959 281.308 560.689 272.191 C 554.539 259.04 551.419 244.162 551.419 227.972 L 551.419 166.804 C 551.419 150.613 554.539 135.737 560.689 122.588 C 564.959 113.471 566.809 103.287 566.039 93.137 C 563.869 64.603 540.879 41.505 512.559 39.409 C 511.109 39.303 509.649 39.249 508.209 39.249 C 499.469 39.249 491.049 41.169 483.199 44.957 C 470.189 51.236 455.459 54.421 439.399 54.421 L 438.449 54.421 C 419.809 54.421 401.139 49.03 384.469 38.832 C 355.779 21.278 322.789 12 289.059 12 C 255.339 12 222.349 21.278 193.659 38.831 C 176.989 49.03 158.319 54.421 139.679 54.421 L 138.729 54.421 C 122.669 54.421 107.939 51.236 94.919 44.956 C 87.079 41.169 78.659 39.249 69.919 39.249 C 68.479 39.249 67.019 39.303 65.579 39.409 C 37.249 41.505 14.259 64.602 12.089 93.136 C 11.319 103.287 13.169 113.47 17.439 122.586 C 23.589 135.737 26.709 150.614 26.709 166.804 L 26.709 227.972 C 26.709 244.163 23.589 259.041 17.429 272.192 L 17.429 272.192 C 13.169 281.309 11.319 291.495 12.089 301.646 C 14.249 330.06 37.139 353.147 65.329 355.35 C 66.859 355.468 68.399 355.529 69.919 355.529 C 78.509 355.529 86.779 353.674 94.519 350.016 C 107.579 343.838 122.349 340.706 138.419 340.706 Z M 289.059 393.127 C 253.529 393.127 218.759 383.347 188.509 364.843 C 173.389 355.594 156.509 350.706 139.679 350.706 L 138.419 350.706 C 123.809 350.706 110.459 353.519 98.729 359.068 C 89.669 363.355 79.979 365.529 69.919 365.529 C 68.139 365.529 66.339 365.459 64.559 365.319 C 31.539 362.739 4.729 335.694 2.199 302.41 C 1.299 290.534 3.459 278.61 8.459 267.926 L 8.459 267.925 C 13.989 256.119 16.789 242.677 16.789 227.972 L 16.789 166.804 C 16.789 152.1 13.989 138.658 8.459 126.852 C 3.459 116.172 1.299 104.249 2.199 92.373 C 4.739 58.948 31.669 31.891 64.849 29.436 C 66.529 29.312 68.239 29.249 69.919 29.249 C 80.159 29.249 90.009 31.499 99.209 35.937 C 110.869 41.567 124.169 44.421 138.729 44.421 L 139.679 44.421 C 156.509 44.421 173.389 39.532 188.509 30.283 C 218.759 11.78 253.529 2 289.059 2 C 324.599 2 359.369 11.78 389.619 30.284 C 404.739 39.532 421.619 44.421 438.449 44.421 L 439.399 44.421 C 453.959 44.421 467.259 41.567 478.919 35.938 C 488.119 31.499 497.969 29.249 508.209 29.249 C 509.889 29.249 511.599 29.312 513.279 29.437 C 546.459 31.891 573.399 58.948 575.929 92.374 C 576.829 104.249 574.669 116.172 569.669 126.853 C 564.139 138.658 561.339 152.1 561.339 166.804 L 561.339 227.972 C 561.339 242.676 564.139 256.118 569.669 267.925 C 574.669 278.607 576.839 290.532 575.929 302.412 C 573.399 335.694 546.589 362.739 513.569 365.319 C 511.789 365.459 509.989 365.529 508.209 365.529 C 498.149 365.528 488.459 363.354 479.399 359.068 C 467.669 353.519 454.319 350.706 439.709 350.706 L 438.449 350.706 C 421.619 350.706 404.739 355.594 389.619 364.843 C 359.369 383.347 324.599 393.127 289.059 393.127 Z" fill="#000000" stroke="none"/><path d="M 138.419 324.706 L 139.679 324.706 C 161.229 324.706 182.739 330.9 201.899 342.618 C 228.109 358.652 258.249 367.127 289.059 367.127 C 319.879 367.127 350.019 358.652 376.229 342.618 C 395.389 330.9 416.899 324.706 438.449 324.706 L 439.709 324.706 C 458.129 324.706 475.169 328.348 490.359 335.531 C 496.909 338.633 504.249 339.967 511.569 339.397 C 532.029 337.799 548.639 321.044 550.209 300.425 C 550.769 293.032 549.429 285.629 546.329 279.016 C 539.169 263.715 535.539 246.542 535.539 227.972 L 535.539 166.804 C 535.539 148.235 539.169 131.062 546.329 115.761 C 549.429 109.15 550.769 101.748 550.209 94.357 C 548.639 73.65 531.949 56.887 511.389 55.366 C 504.009 54.821 496.639 56.211 490.059 59.386 C 474.889 66.709 457.849 70.421 439.399 70.421 L 438.449 70.421 C 416.899 70.421 395.389 64.227 376.229 52.509 C 350.019 36.475 319.879 28 289.059 28 C 258.249 28 228.109 36.475 201.899 52.509 C 182.739 64.227 161.229 70.421 139.679 70.421 L 138.729 70.421 C 120.279 70.421 103.239 66.709 88.069 59.386 C 81.489 56.211 74.109 54.822 66.739 55.366 C 46.179 56.887 29.499 73.65 27.919 94.357 C 27.359 101.748 28.699 109.15 31.799 115.761 C 38.959 131.062 42.589 148.235 42.589 166.804 L 42.589 227.972 C 42.589 246.542 38.959 263.716 31.789 279.016 C 28.699 285.63 27.359 293.033 27.919 300.425 C 29.489 321.044 46.099 337.799 66.559 339.397 C 73.879 339.972 81.219 338.633 87.769 335.531 C 102.959 328.348 119.999 324.706 138.419 324.706 Z M 289.059 369.127 C 257.889 369.127 227.389 360.551 200.869 344.328 C 182.019 332.8 160.869 326.706 139.679 326.706 L 138.419 326.706 C 120.289 326.706 103.539 330.284 88.609 337.342 C 81.749 340.59 74.069 341.993 66.409 341.391 C 44.979 339.717 27.589 322.171 25.939 300.577 C 25.359 292.84 26.759 285.089 29.999 278.163 C 37.039 263.132 40.599 246.245 40.599 227.972 L 40.599 166.804 C 40.599 148.532 37.039 131.646 29.999 116.614 C 26.759 109.69 25.359 101.941 25.939 94.205 C 27.589 72.519 45.069 54.965 66.589 53.372 C 74.309 52.802 82.029 54.258 88.919 57.583 C 103.819 64.775 120.579 68.421 138.729 68.421 L 139.679 68.421 C 160.869 68.421 182.019 62.327 200.869 50.799 C 227.389 34.575 257.889 26 289.059 26 C 320.239 26 350.739 34.575 377.259 50.799 C 396.109 62.327 417.259 68.421 438.449 68.421 L 439.399 68.421 C 457.549 68.421 474.309 64.775 489.209 57.583 C 496.099 54.258 503.819 52.801 511.539 53.372 C 533.069 54.965 550.539 72.519 552.189 94.205 C 552.769 101.941 551.369 109.69 548.129 116.614 C 541.089 131.646 537.529 148.532 537.529 166.804 L 537.529 227.972 C 537.529 246.244 541.089 263.131 548.129 278.163 C 551.369 285.089 552.769 292.839 552.189 300.577 C 550.539 322.171 533.149 339.717 511.719 341.391 C 504.059 341.99 496.379 340.59 489.519 337.342 C 474.599 330.284 457.839 326.706 439.709 326.706 L 438.449 326.706 C 417.259 326.706 396.109 332.8 377.259 344.328 C 350.739 360.551 320.239 369.127 289.059 369.127 Z" fill="#000000" stroke="none"/><path d="M 97.129 62.181 C 109.899 66.99 123.849 69.421 138.729 69.421 C 123.849 69.421 109.899 66.99 97.129 62.181 Z M 195.069 55.271 C 177.719 64.548 158.709 69.421 139.679 69.421 C 158.709 69.421 177.709 64.548 195.069 55.271 Z M 382.549 54.994 C 400.039 64.451 419.229 69.421 438.449 69.421 C 419.229 69.421 400.039 64.451 382.549 54.994 Z M 480.929 62.21 C 468.169 66.999 454.249 69.421 439.399 69.421 C 454.249 69.421 468.169 66.999 480.929 62.21 Z M 525.649 57.971 C 538.779 63.878 548.539 76.255 550.819 90.973 C 548.539 76.255 538.779 63.878 525.649 57.971 Z M 52.969 57.755 C 38.819 63.904 28.479 77.528 26.989 93.558 C 28.479 77.528 38.819 63.904 52.969 57.755 Z M 26.829 96.231 C 26.639 102.298 27.689 108.327 29.909 113.895 C 27.689 108.326 26.639 102.298 26.829 96.231 Z M 29.909 113.898 C 29.909 113.9 29.909 113.902 29.909 113.904 C 29.909 113.902 29.909 113.901 29.909 113.898 Z M 551.249 100.251 C 550.959 105.084 549.889 109.832 548.069 114.278 C 549.889 109.833 550.959 105.084 551.249 100.251 Z M 536.539 166.804 L 536.539 227.972 L 536.539 166.804 Z M 548.209 280.851 C 549.709 284.6 550.679 288.558 551.089 292.597 C 550.679 288.558 549.709 284.6 548.209 280.851 Z M 26.889 299.88 C 26.899 300.087 26.919 300.294 26.929 300.501 C 26.939 300.63 26.949 300.759 26.959 300.888 C 26.949 300.759 26.939 300.63 26.929 300.501 C 26.919 300.294 26.899 300.087 26.889 299.88 Z M 138.419 325.706 L 139.679 325.706 C 157.509 325.706 175.329 329.985 191.769 338.158 C 175.329 329.985 157.509 325.706 139.679 325.706 L 138.419 325.706 C 120.509 325.706 103.919 329.173 89.099 336.013 C 103.919 329.173 120.509 325.706 138.419 325.706 Z M 438.449 325.706 C 420.309 325.706 402.199 330.132 385.519 338.577 C 402.199 330.132 420.309 325.706 438.449 325.706 L 439.709 325.706 L 438.449 325.706 Z M 483.819 333.776 C 485.889 334.6 487.929 335.487 489.939 336.437 C 496.649 339.611 504.159 340.982 511.649 340.394 C 513.979 340.213 516.249 339.839 518.469 339.29 C 516.249 339.839 513.979 340.213 511.649 340.394 C 504.149 340.977 496.639 339.609 489.939 336.437 C 487.929 335.487 485.889 334.6 483.819 333.776 Z M 60.709 339.534 C 62.589 339.951 64.519 340.241 66.479 340.394 C 73.899 340.974 81.319 339.642 87.979 336.539 C 81.319 339.643 73.899 340.976 66.479 340.394 C 64.519 340.241 62.589 339.951 60.709 339.534 Z M 138.419 323.706 L 139.679 323.706 C 161.409 323.706 183.099 329.95 202.409 341.763 C 228.469 357.702 258.429 366.127 289.059 366.127 C 319.699 366.127 349.659 357.702 375.719 341.763 C 395.029 329.95 416.719 323.706 438.449 323.706 L 439.709 323.706 C 458.279 323.706 475.459 327.38 490.779 334.626 C 497.179 337.652 504.339 338.959 511.499 338.4 C 531.469 336.839 547.689 320.481 549.219 300.348 C 549.769 293.129 548.459 285.9 545.439 279.443 C 538.209 264.007 534.549 246.69 534.549 227.972 L 534.549 166.804 C 534.549 148.087 538.209 130.77 545.439 115.334 C 548.459 108.879 549.769 101.652 549.219 94.433 C 547.679 74.215 531.389 57.849 511.319 56.363 C 504.119 55.83 496.909 57.188 490.489 60.288 C 475.189 67.675 457.999 71.421 439.399 71.421 L 438.449 71.421 C 416.719 71.421 395.029 65.177 375.719 53.364 C 349.659 37.424 319.699 29 289.059 29 C 258.429 29 228.469 37.424 202.409 53.364 C 183.099 65.177 161.409 71.421 139.679 71.421 L 138.729 71.421 C 120.129 71.421 102.939 67.675 87.639 60.288 C 81.219 57.189 74.009 55.83 66.809 56.363 C 46.739 57.849 30.449 74.215 28.909 94.433 C 28.369 101.652 29.669 108.879 32.689 115.334 C 39.919 130.77 43.579 148.087 43.579 166.804 L 43.579 227.972 C 43.579 246.692 39.919 264.009 32.689 279.443 C 29.669 285.899 28.359 293.128 28.909 300.348 C 30.439 320.481 46.659 336.839 66.639 338.4 C 73.779 338.961 80.939 337.656 87.349 334.626 C 102.669 327.38 119.849 323.706 138.419 323.706 Z M 289.059 370.127 C 257.709 370.127 227.029 361.502 200.349 345.183 C 181.669 333.749 160.679 327.706 139.679 327.706 L 138.419 327.706 C 120.439 327.706 103.819 331.253 89.039 338.247 C 82.009 341.571 74.159 343.001 66.329 342.388 C 44.419 340.677 26.629 322.735 24.959 300.653 C 24.349 292.744 25.789 284.819 29.099 277.736 C 36.079 262.84 39.609 246.097 39.609 227.972 L 39.609 166.804 C 39.609 148.68 36.079 131.938 29.099 117.041 C 25.789 109.961 24.349 102.038 24.959 94.129 C 26.639 71.953 44.509 54.003 66.519 52.375 C 74.409 51.794 82.309 53.282 89.349 56.681 C 104.119 63.807 120.729 67.421 138.729 67.421 L 139.679 67.421 C 160.679 67.421 181.669 61.378 200.349 49.944 C 227.029 33.625 257.699 25 289.059 25 C 320.429 25 351.099 33.625 377.779 49.944 C 396.469 61.378 417.449 67.421 438.449 67.421 L 439.399 67.421 C 457.399 67.421 474.009 63.807 488.779 56.681 C 495.819 53.28 503.719 51.79 511.609 52.375 C 533.619 54.003 551.489 71.953 553.179 94.129 C 553.779 102.038 552.339 109.961 549.029 117.041 C 542.049 131.938 538.519 148.68 538.519 166.804 L 538.519 227.972 C 538.519 246.096 542.049 262.839 549.029 277.736 C 552.339 284.818 553.779 292.743 553.179 300.653 C 551.499 322.735 533.709 340.677 511.799 342.388 C 503.969 343.003 496.109 341.568 489.089 338.247 C 474.309 331.253 457.689 327.706 439.709 327.706 L 438.449 327.706 C 417.449 327.706 396.469 333.749 377.779 345.183 C 351.099 361.502 320.419 370.127 289.059 370.127 Z" fill="#000000" stroke="none"/>
</svg>
