<?xml version="1.0" encoding="UTF-8"?>
<svg xmlns="http://www.w3.org/2000/svg" width="605.936" height="395.130" viewBox="0 0 605.936 395.130">
  <path d="M 79.33 340.71 L 185.79 340.71 L 187.155 341.82 C 219.796 368.46 260.926 383.13 302.968 383.13 C 345.01 383.13 386.139 368.46 418.781 341.82 L 420.146 340.71 L 526.606 340.71 L 526.606 325.71 C 526.606 312.47 537.297 301.69 550.438 301.69 L 565.323 301.69 L 565.323 258.48 L 567.043 256.99 C 584.183 242.08 594.013 220.43 594.013 197.57 C 594.013 174.71 584.183 153.05 567.043 138.15 L 565.323 136.65 L 565.323 93.44 L 550.438 93.44 C 537.297 93.44 526.606 82.67 526.606 69.42 L 526.606 54.42 L 420.146 54.42 L 418.781 53.31 C 386.139 26.67 345.01 12 302.968 12 C 260.926 12 219.796 26.67 187.155 53.31 L 185.79 54.42 L 79.33 54.42 L 79.33 69.42 C 79.33 82.67 68.639 93.44 55.498 93.44 L 40.614 93.44 L 40.614 136.65 L 38.893 138.15 C 21.754 153.05 11.923 174.71 11.923 197.57 C 11.923 220.43 21.754 242.08 38.893 256.99 L 40.614 258.48 L 40.614 301.69 L 55.498 301.69 C 68.639 301.69 79.33 312.47 79.33 325.71 L 79.33 340.71 Z M 302.968 393.13 C 259.25 393.13 216.467 378.08 182.289 350.71 L 69.407 350.71 L 69.407 325.71 C 69.407 317.98 63.168 311.69 55.498 311.69 L 30.691 311.69 L 30.691 263.02 C 12.43 246.29 2 222.56 2 197.57 C 2 172.57 12.43 148.85 30.691 132.11 L 30.691 83.44 L 55.498 83.44 C 63.168 83.44 69.407 77.15 69.407 69.42 L 69.407 44.42 L 182.289 44.42 C 216.467 17.06 259.25 2 302.968 2 C 346.686 2 389.469 17.06 423.647 44.42 L 536.529 44.42 L 536.529 69.42 C 536.529 77.15 542.768 83.44 550.438 83.44 L 575.245 83.44 L 575.245 132.11 C 593.507 148.85 603.936 172.57 603.936 197.57 C 603.936 222.56 593.507 246.29 575.245 263.02 L 575.245 311.69 L 550.438 311.69 C 542.768 311.69 536.529 317.98 536.529 325.71 L 536.529 350.71 L 423.647 350.71 C 389.469 378.08 346.686 393.13 302.968 393.13 Z" fill="#000000" stroke="none"/><path d="M 95.195 324.71 L 191.655 324.71 L 191.936 324.96 C 222.634 352.15 262.066 367.13 302.968 367.13 C 343.87 367.13 383.302 352.15 414 324.96 L 414.281 324.71 L 510.741 324.71 C 511.261 303.44 528.336 286.23 549.446 285.7 L 549.446 250.3 L 549.896 250 C 567.579 238.39 578.136 218.79 578.136 197.57 C 578.136 176.35 567.579 156.74 549.896 145.13 L 549.446 144.83 L 549.446 109.43 C 528.336 108.91 511.261 91.7 510.741 70.42 L 414.281 70.42 L 414 70.18 C 383.302 42.98 343.87 28 302.968 28 C 262.066 28 222.634 42.98 191.936 70.18 L 191.655 70.42 L 95.195 70.42 C 94.675 91.7 77.6 108.91 56.49 109.43 L 56.49 144.83 L 56.04 145.13 C 38.357 156.74 27.8 176.35 27.8 197.57 C 27.8 218.79 38.357 238.39 56.04 250 L 56.49 250.3 L 56.49 285.7 C 77.6 286.23 94.675 303.44 95.195 324.71 Z M 302.968 369.13 C 261.708 369.13 221.928 354.07 190.907 326.71 L 93.222 326.71 L 93.222 325.71 C 93.222 304.75 76.299 287.69 55.498 287.69 L 54.506 287.69 L 54.506 251.38 C 36.529 239.36 25.815 219.29 25.815 197.57 C 25.815 175.85 36.529 155.77 54.506 143.75 L 54.506 107.44 L 55.498 107.44 C 76.299 107.44 93.222 90.39 93.222 69.42 L 93.222 68.42 L 190.907 68.42 C 221.928 41.06 261.708 26 302.968 26 C 344.228 26 384.008 41.06 415.029 68.42 L 512.714 68.42 L 512.714 69.42 C 512.714 90.39 529.637 107.44 550.438 107.44 L 551.43 107.44 L 551.43 143.75 C 569.407 155.77 580.121 175.85 580.121 197.57 C 580.121 219.29 569.407 239.36 551.43 251.38 L 551.43 287.69 L 550.438 287.69 C 529.637 287.69 512.714 304.75 512.714 325.71 L 512.714 326.71 L 415.029 326.71 C 384.008 354.07 344.228 369.13 302.968 369.13 Z" fill="#000000" stroke="none"/><path d="M 409.936 65.4 L 409.937 65.4 L 409.936 65.4 Z M 409.98 65.43 C 409.986 65.44 409.995 65.44 410.001 65.45 C 409.995 65.44 409.986 65.44 409.98 65.43 Z M 410.026 65.47 C 410.034 65.48 410.04 65.48 410.048 65.49 C 410.042 65.48 410.032 65.47 410.026 65.47 Z M 410.073 65.51 C 410.082 65.52 410.09 65.52 410.099 65.53 C 410.091 65.52 410.08 65.51 410.073 65.51 Z M 410.118 65.55 C 410.13 65.56 410.14 65.56 410.152 65.57 C 410.14 65.56 410.13 65.56 410.118 65.55 Z M 410.164 65.58 C 410.177 65.59 410.189 65.6 410.202 65.61 C 410.189 65.6 410.177 65.59 410.164 65.58 Z M 410.21 65.62 C 410.222 65.63 410.232 65.64 410.244 65.65 C 410.232 65.64 410.222 65.63 410.21 65.62 Z M 410.257 65.66 C 411 66.27 411.735 66.89 412.469 67.52 C 411.735 66.89 410.999 66.27 410.257 65.66 Z M 412.497 67.54 C 412.502 67.55 412.508 67.55 412.514 67.56 C 412.508 67.55 412.502 67.55 412.497 67.54 Z M 412.545 67.59 C 412.55 67.59 412.554 67.59 412.559 67.6 C 412.556 67.59 412.548 67.59 412.545 67.59 Z M 191.28 69.42 L 191.281 69.42 C 191.335 69.38 191.388 69.33 191.443 69.28 L 191.28 69.42 Z M 414.655 69.42 L 414.656 69.42 L 414.453 69.24 C 414.52 69.31 414.587 69.36 414.655 69.42 L 414.655 69.42 Z M 511.709 69.42 L 511.733 70.4 C 512.231 90.75 528.082 107.17 548.087 108.37 C 527.83 107.14 511.722 90.14 511.722 69.42 L 511.709 69.42 Z M 94.214 69.42 C 94.214 90.14 78.107 107.14 57.848 108.37 C 77.853 107.17 93.705 90.75 94.203 70.4 L 94.226 69.42 L 94.214 69.42 Z M 55.498 108.44 L 55.498 108.45 L 56.301 108.43 C 56.034 108.44 55.767 108.44 55.498 108.44 Z M 55.498 144.29 L 55.186 144.5 C 55.29 144.43 55.394 144.36 55.498 144.29 L 55.498 144.29 Z M 550.438 144.29 C 550.555 144.37 550.671 144.45 550.786 144.52 L 550.438 144.29 L 550.438 108.44 C 550.171 108.44 549.904 108.44 549.638 108.43 L 550.438 108.45 L 550.438 144.29 Z M 26.808 197.44 C 26.808 197.45 26.808 197.45 26.808 197.45 C 26.808 197.45 26.808 197.45 26.808 197.44 Z M 579.128 197.44 C 579.128 197.45 579.128 197.45 579.128 197.45 C 579.128 197.45 579.128 197.45 579.128 197.44 Z M 26.808 197.68 C 26.808 197.69 26.808 197.69 26.808 197.69 C 26.808 197.69 26.808 197.69 26.808 197.68 Z M 579.128 197.68 C 579.128 197.69 579.128 197.69 579.128 197.69 C 579.128 197.69 579.128 197.69 579.128 197.68 Z M 55.172 250.63 L 55.498 250.84 L 55.498 250.84 C 55.39 250.77 55.28 250.7 55.172 250.63 Z M 550.438 250.84 L 550.438 286.68 L 549.638 286.7 C 549.904 286.69 550.171 286.69 550.438 286.69 L 550.438 250.84 L 550.769 250.62 C 550.659 250.7 550.549 250.77 550.438 250.84 L 550.438 250.84 Z M 55.498 286.69 C 55.767 286.69 56.034 286.69 56.301 286.7 L 55.498 286.68 L 55.498 286.69 Z M 414.655 325.71 C 414.601 325.76 414.548 325.8 414.493 325.85 L 414.656 325.71 L 511.722 325.71 C 511.722 304.99 527.83 287.99 548.087 286.76 C 528.082 287.97 512.231 304.39 511.733 324.73 L 511.709 325.71 L 414.655 325.71 Z M 94.214 325.71 L 191.28 325.71 L 191.483 325.89 C 191.415 325.83 191.349 325.77 191.281 325.71 L 94.226 325.71 L 94.203 324.73 C 93.705 304.39 77.853 287.97 57.848 286.76 C 78.107 287.99 94.214 304.99 94.214 325.71 Z M 193.377 327.54 C 193.38 327.54 193.388 327.55 193.391 327.55 C 193.386 327.54 193.382 327.54 193.377 327.54 Z M 193.422 327.57 C 193.428 327.58 193.433 327.58 193.439 327.59 C 193.433 327.58 193.428 327.58 193.422 327.57 Z M 193.467 327.61 C 194.2 328.24 194.936 328.86 195.679 329.47 C 194.936 328.86 194.201 328.24 193.467 327.61 Z M 195.692 329.48 C 195.704 329.49 195.714 329.5 195.726 329.51 C 195.714 329.5 195.704 329.49 195.692 329.48 Z M 195.733 329.52 C 195.747 329.53 195.759 329.54 195.772 329.55 C 195.759 329.54 195.747 329.53 195.733 329.52 Z M 195.784 329.56 C 195.796 329.57 195.806 329.58 195.818 329.59 C 195.806 329.58 195.796 329.57 195.784 329.56 Z M 195.837 329.6 C 195.844 329.61 195.856 329.62 195.863 329.63 C 195.854 329.62 195.846 329.61 195.837 329.6 Z M 195.888 329.65 C 195.894 329.65 195.904 329.66 195.91 329.66 C 195.902 329.66 195.896 329.65 195.888 329.65 Z M 195.935 329.69 C 195.941 329.69 195.95 329.7 195.956 329.7 C 195.95 329.7 195.941 329.69 195.935 329.69 Z M 195.998 329.74 L 196 329.74 L 195.998 329.74 Z M 96.151 323.71 L 192.029 323.71 L 192.591 324.21 C 223.108 351.24 262.307 366.13 302.968 366.13 C 343.629 366.13 382.828 351.24 413.345 324.21 L 413.907 323.71 L 509.784 323.71 C 510.789 302.61 527.516 285.75 548.454 284.74 L 548.454 249.76 L 549.355 249.17 C 566.755 237.74 577.144 218.45 577.144 197.57 C 577.144 176.69 566.755 157.4 549.355 145.97 L 548.454 145.38 L 548.454 110.39 C 527.516 109.38 510.789 92.52 509.784 71.42 L 413.907 71.42 L 413.345 70.93 C 382.828 43.89 343.629 29 302.968 29 C 262.307 29 223.108 43.89 192.591 70.93 L 192.029 71.42 L 96.151 71.42 C 95.147 92.52 78.421 109.38 57.483 110.39 L 57.483 145.38 L 56.582 145.97 C 39.181 157.4 28.792 176.68 28.792 197.57 C 28.792 218.45 39.181 237.74 56.582 249.17 L 57.483 249.76 L 57.483 284.74 C 78.421 285.75 95.147 302.61 96.151 323.71 Z M 302.968 370.13 C 261.603 370.13 221.69 355.07 190.535 327.71 L 92.23 327.71 L 92.23 325.71 C 92.23 305.3 75.752 288.69 55.498 288.69 L 53.514 288.69 L 53.514 251.91 C 35.537 239.68 24.823 219.41 24.823 197.57 C 24.823 175.72 35.537 155.45 53.514 143.22 L 53.514 106.44 L 55.498 106.44 C 75.752 106.44 92.23 89.84 92.23 69.42 L 92.23 67.42 L 190.535 67.42 C 221.69 40.06 261.603 25 302.968 25 C 344.332 25 384.245 40.06 415.401 67.42 L 513.706 67.42 L 513.706 69.42 C 513.706 89.84 530.184 106.44 550.438 106.44 L 552.423 106.44 L 552.423 143.22 C 570.399 155.45 581.113 175.72 581.113 197.57 C 581.113 219.41 570.399 239.68 552.423 251.91 L 552.423 288.69 L 550.438 288.69 C 530.184 288.69 513.706 305.3 513.706 325.71 L 513.706 327.71 L 415.401 327.71 C 384.245 355.07 344.332 370.13 302.968 370.13 Z" fill="#000000" stroke="none"/>
</svg>
