<?xml version="1.0" encoding="UTF-8"?>
<svg xmlns="http://www.w3.org/2000/svg" width="592.826" height="356.196" viewBox="0 0 592.826 356.196">
  <path d="M 60.408 321.24 L 151.029 321.24 L 151.802 321.504 C 195.386 336.349 245.386 344.196 296.416 344.196 C 347.436 344.196 397.436 336.349 441.016 321.504 L 441.796 321.24 L 532.416 321.24 L 532.416 271.635 L 534.106 270.142 C 564.716 243.105 580.896 211.277 580.896 178.098 C 580.896 144.919 564.716 113.091 534.106 86.054 L 532.416 84.561 L 532.416 34.955 L 441.796 34.955 L 441.016 34.692 C 397.436 19.847 347.436 12 296.416 12 C 245.386 12 195.386 19.847 151.802 34.692 L 151.029 34.955 L 60.408 34.955 L 60.408 84.561 L 58.716 86.054 C 28.104 113.091 11.923 144.919 11.923 178.098 C 11.923 211.277 28.104 243.106 58.716 270.142 L 60.408 271.635 L 60.408 321.24 Z M 296.416 354.196 C 244.616 354.196 193.806 346.259 149.4 331.24 L 50.485 331.24 L 50.485 276.151 C 18.756 247.479 2 213.616 2 178.098 C 2 142.58 18.756 108.717 50.485 80.045 L 50.485 24.955 L 149.401 24.955 C 193.806 9.936 244.616 2 296.416 2 C 348.206 2 399.016 9.936 443.426 24.955 L 542.336 24.955 L 542.336 80.045 C 574.066 108.718 590.826 142.58 590.826 178.098 C 590.826 213.615 574.066 247.478 542.336 276.151 L 542.336 331.24 L 443.426 331.24 C 399.016 346.259 348.206 354.196 296.416 354.196 Z" fill="#000000" stroke="none"/><path d="M 76.284 305.24 L 153.691 305.24 L 153.85 305.296 C 196.536 320.278 245.826 328.196 296.416 328.196 C 346.986 328.196 396.286 320.278 438.976 305.296 L 439.126 305.24 L 516.536 305.24 L 516.536 264.069 L 516.916 263.769 C 548.386 238.531 565.026 208.906 565.026 178.098 C 565.026 147.29 548.386 117.665 516.916 92.427 L 516.536 92.127 L 516.536 50.955 L 439.126 50.955 L 438.976 50.9 C 396.286 35.919 346.996 28 296.416 28 C 245.826 28 196.536 35.919 153.85 50.9 L 153.691 50.955 L 76.284 50.955 L 76.284 92.127 L 75.91 92.427 C 44.436 117.665 27.8 147.289 27.8 178.098 C 27.8 208.907 44.436 238.531 75.91 263.769 L 76.284 264.069 L 76.284 305.24 Z M 296.416 330.196 C 245.676 330.196 196.206 322.259 153.356 307.24 L 74.3 307.24 L 74.3 265.033 C 42.578 239.468 25.815 209.415 25.815 178.098 C 25.815 146.781 42.578 116.729 74.3 91.163 L 74.3 48.955 L 153.356 48.955 C 196.206 33.937 245.676 26 296.416 26 C 347.146 26 396.616 33.937 439.466 48.955 L 518.526 48.955 L 518.526 91.163 C 550.246 116.729 567.006 146.781 567.006 178.098 C 567.006 209.414 550.246 239.467 518.526 265.033 L 518.526 307.24 L 439.466 307.24 C 396.606 322.259 347.146 330.196 296.416 330.196 Z" fill="#000000" stroke="none"/><path d="M 296.196 27 C 296.166 27 296.146 27 296.116 27 C 296.146 27 296.166 27 296.196 27 Z M 296.626 27 C 296.656 27 296.676 27 296.706 27 C 296.676 27 296.656 27 296.626 27 Z M 296.096 27 C 296.056 27 296.006 27 295.966 27 C 296.006 27 296.056 27 296.096 27 Z M 296.726 27 C 296.766 27 296.816 27 296.856 27 C 296.816 27 296.766 27 296.726 27 Z M 295.846 27.001 C 295.836 27.001 295.826 27.001 295.816 27.001 C 295.826 27.001 295.836 27.001 295.846 27.001 Z M 296.976 27.001 C 296.986 27.001 296.996 27.001 297.006 27.001 C 296.996 27.001 296.986 27.001 296.976 27.001 Z M 295.706 27.001 C 295.696 27.001 295.686 27.001 295.666 27.001 C 295.686 27.001 295.696 27.001 295.706 27.001 Z M 297.116 27.001 C 297.126 27.001 297.136 27.001 297.156 27.001 C 297.136 27.001 297.126 27.001 297.116 27.001 Z M 295.246 27.002 C 295.246 27.002 295.226 27.002 295.226 27.002 C 295.236 27.002 295.236 27.002 295.246 27.002 Z M 297.576 27.002 C 297.586 27.002 297.586 27.002 297.596 27.002 C 297.586 27.002 297.586 27.002 297.576 27.002 Z M 295.136 27.002 C 295.116 27.002 295.096 27.002 295.076 27.002 C 295.096 27.002 295.116 27.002 295.136 27.002 Z M 297.686 27.002 C 297.706 27.002 297.726 27.002 297.746 27.002 C 297.726 27.002 297.706 27.002 297.686 27.002 Z M 297.896 27.003 L 297.896 27.003 L 297.896 27.003 Z M 294.816 27.003 C 294.806 27.003 294.796 27.003 294.776 27.003 C 294.796 27.003 294.806 27.003 294.816 27.003 Z M 298.006 27.003 C 298.016 27.003 298.026 27.003 298.046 27.003 C 298.026 27.003 298.016 27.003 298.006 27.003 Z M 421.636 44.265 C 421.636 44.267 421.636 44.267 421.646 44.268 C 421.636 44.268 421.636 44.266 421.636 44.265 Z M 421.726 44.295 C 421.746 44.299 421.756 44.303 421.776 44.308 C 421.756 44.303 421.746 44.299 421.726 44.295 Z M 421.846 44.329 C 421.866 44.335 421.886 44.341 421.906 44.346 C 421.886 44.34 421.866 44.336 421.846 44.329 Z M 421.966 44.364 C 421.996 44.372 422.016 44.378 422.036 44.386 C 422.016 44.379 421.986 44.371 421.966 44.364 Z M 422.066 44.394 C 422.106 44.404 422.136 44.415 422.176 44.425 C 422.136 44.416 422.096 44.404 422.066 44.394 Z M 168.726 45 C 168.726 45.001 168.716 45.003 168.716 45.004 C 168.716 45.003 168.726 45.001 168.726 45 Z M 168.616 45.034 C 168.606 45.037 168.586 45.041 168.586 45.044 C 168.596 45.041 168.606 45.037 168.616 45.034 Z M 168.506 45.067 C 168.486 45.072 168.466 45.078 168.446 45.084 C 168.466 45.078 168.486 45.072 168.506 45.067 Z M 168.396 45.101 C 168.366 45.109 168.346 45.116 168.316 45.123 C 168.346 45.116 168.366 45.109 168.396 45.101 Z M 168.276 45.136 C 168.246 45.146 168.216 45.154 168.186 45.164 C 168.216 45.155 168.246 45.145 168.276 45.136 Z M 153.523 49.955 L 153.524 49.955 C 158.326 48.269 163.206 46.674 168.176 45.168 C 163.266 46.657 158.436 48.235 153.682 49.9 L 153.523 49.955 Z M 439.296 49.955 L 439.136 49.9 C 433.596 47.956 427.936 46.132 422.176 44.427 C 427.986 46.147 433.706 47.991 439.296 49.955 Z M 75.292 91.644 L 74.919 91.944 C 72.823 93.633 70.791 95.344 68.827 97.071 C 70.907 95.242 73.064 93.432 75.292 91.645 L 75.292 91.644 Z M 68.819 97.079 C 68.808 97.089 68.799 97.096 68.788 97.106 C 68.799 97.096 68.808 97.089 68.819 97.079 Z M 68.771 97.121 C 68.764 97.127 68.756 97.134 68.749 97.14 C 68.756 97.134 68.764 97.127 68.771 97.121 Z M 68.723 97.164 C 68.719 97.167 68.714 97.172 68.71 97.174 C 68.714 97.172 68.719 97.167 68.723 97.164 Z M 68.676 97.205 C 68.674 97.207 68.672 97.208 68.67 97.21 C 68.672 97.208 68.674 97.207 68.676 97.205 Z M 517.526 91.645 L 517.526 91.645 C 520.306 93.868 522.956 96.124 525.506 98.413 C 523.076 96.227 520.536 94.07 517.906 91.944 L 517.526 91.644 L 517.526 49.955 L 517.526 91.645 Z M 525.506 98.415 C 525.516 98.424 525.526 98.435 525.536 98.445 C 525.526 98.433 525.516 98.426 525.506 98.415 Z M 525.556 98.458 C 525.556 98.465 525.566 98.469 525.576 98.476 C 525.566 98.471 525.556 98.463 525.556 98.458 Z M 525.596 98.5 C 525.606 98.504 525.606 98.506 525.606 98.509 C 525.606 98.506 525.606 98.504 525.596 98.5 Z M 67.301 257.766 C 67.302 257.767 67.305 257.77 67.307 257.771 C 67.305 257.77 67.302 257.767 67.301 257.766 Z M 67.338 257.799 C 67.343 257.804 67.347 257.807 67.352 257.812 C 67.349 257.809 67.341 257.803 67.338 257.799 Z M 67.374 257.832 C 67.383 257.84 67.39 257.847 67.4 257.855 C 67.39 257.847 67.383 257.84 67.374 257.832 Z M 67.411 257.865 C 67.423 257.876 67.434 257.885 67.446 257.897 C 67.434 257.885 67.423 257.876 67.411 257.865 Z M 524.326 258.834 C 524.326 258.835 524.316 258.839 524.316 258.84 C 524.326 258.837 524.326 258.837 524.326 258.834 Z M 524.286 258.868 C 524.286 258.872 524.276 258.877 524.266 258.882 C 524.276 258.878 524.286 258.871 524.286 258.868 Z M 524.246 258.903 C 524.236 258.909 524.226 258.917 524.226 258.923 C 524.226 258.917 524.236 258.909 524.246 258.903 Z M 524.206 258.938 C 524.196 258.945 524.186 258.957 524.176 258.965 C 524.186 258.955 524.196 258.947 524.206 258.938 Z M 67.448 257.898 C 69.837 260.045 72.328 262.163 74.919 264.252 L 75.292 264.552 L 75.292 264.551 C 72.566 262.365 69.951 260.148 67.448 257.898 Z M 75.292 306.24 L 153.555 306.252 C 153.545 306.248 153.534 306.244 153.523 306.24 L 75.292 306.24 Z M 439.296 306.24 L 439.296 306.241 C 439.256 306.256 439.216 306.27 439.176 306.284 L 439.296 306.24 L 517.526 306.24 L 517.526 264.552 L 517.906 264.252 C 520.056 262.513 522.146 260.751 524.166 258.972 C 522.036 260.854 519.816 262.715 517.526 264.551 L 517.526 306.24 L 439.296 306.24 Z M 153.678 306.295 L 153.682 306.296 C 153.684 306.297 153.689 306.299 153.691 306.299 C 153.689 306.299 153.681 306.296 153.678 306.295 Z M 439.176 306.285 C 439.136 306.299 439.096 306.313 439.056 306.326 C 439.086 306.317 439.116 306.306 439.136 306.296 L 439.176 306.285 Z M 153.804 306.339 C 153.807 306.34 153.811 306.341 153.814 306.342 C 153.811 306.341 153.807 306.34 153.804 306.339 Z M 439.046 306.329 C 439.006 306.344 438.966 306.358 438.926 306.372 C 438.966 306.358 439.006 306.344 439.046 306.329 Z M 153.928 306.382 C 153.933 306.384 153.939 306.386 153.944 306.388 C 153.939 306.386 153.933 306.384 153.928 306.382 Z M 438.916 306.373 C 438.886 306.386 438.846 306.401 438.806 306.414 C 438.846 306.401 438.886 306.386 438.916 306.373 Z M 154.054 306.426 C 154.057 306.427 154.065 306.43 154.068 306.431 C 154.065 306.43 154.057 306.427 154.054 306.426 Z M 438.796 306.417 C 438.756 306.431 438.716 306.445 438.676 306.458 C 438.716 306.445 438.756 306.431 438.796 306.417 Z M 154.177 306.469 C 154.185 306.472 154.191 306.474 154.199 306.477 C 154.191 306.474 154.185 306.472 154.177 306.469 Z M 438.666 306.461 C 438.626 306.474 438.596 306.486 438.556 306.5 C 438.596 306.486 438.626 306.474 438.666 306.461 Z M 154.305 306.513 C 154.307 306.514 154.316 306.518 154.319 306.519 C 154.316 306.518 154.307 306.514 154.305 306.513 Z M 438.546 306.505 C 438.506 306.519 438.466 306.531 438.426 306.545 C 438.466 306.532 438.506 306.519 438.546 306.505 Z M 154.428 306.557 C 154.436 306.559 154.441 306.561 154.449 306.564 C 154.441 306.561 154.436 306.559 154.428 306.557 Z M 438.416 306.549 C 438.376 306.561 438.346 306.574 438.306 306.587 C 438.346 306.574 438.376 306.561 438.416 306.549 Z M 154.555 306.601 C 154.561 306.603 154.566 306.605 154.572 306.607 C 154.566 306.605 154.561 306.603 154.555 306.601 Z M 438.286 306.593 C 438.256 306.606 438.216 306.619 438.176 306.632 C 438.216 306.619 438.256 306.606 438.286 306.593 Z M 154.678 306.643 C 154.686 306.646 154.696 306.65 154.704 306.653 C 154.696 306.65 154.686 306.646 154.678 306.643 Z M 438.166 306.636 C 438.126 306.65 438.096 306.661 438.056 306.675 C 438.096 306.661 438.126 306.65 438.166 306.636 Z M 154.805 306.688 C 154.813 306.69 154.818 306.692 154.826 306.695 C 154.818 306.692 154.813 306.69 154.805 306.688 Z M 438.036 306.68 C 437.996 306.694 437.966 306.705 437.926 306.719 C 437.966 306.706 438.006 306.693 438.036 306.68 Z M 154.93 306.731 C 154.938 306.734 154.946 306.736 154.954 306.739 C 154.946 306.736 154.938 306.734 154.93 306.731 Z M 437.916 306.723 C 437.876 306.736 437.846 306.747 437.806 306.76 C 437.836 306.748 437.876 306.735 437.916 306.723 Z M 155.056 306.774 C 155.064 306.777 155.073 306.78 155.081 306.783 C 155.073 306.78 155.064 306.777 155.056 306.774 Z M 437.786 306.768 C 437.746 306.78 437.716 306.793 437.676 306.806 C 437.716 306.793 437.746 306.78 437.786 306.768 Z M 155.178 306.817 C 155.189 306.82 155.203 306.825 155.213 306.829 C 155.203 306.825 155.189 306.82 155.178 306.817 Z M 437.666 306.81 C 437.626 306.823 437.596 306.835 437.556 306.847 C 437.596 306.835 437.626 306.823 437.666 306.81 Z M 155.305 306.861 C 155.316 306.864 155.328 306.868 155.338 306.872 C 155.328 306.868 155.316 306.864 155.305 306.861 Z M 437.536 306.855 C 437.496 306.866 437.466 306.879 437.426 306.89 C 437.466 306.879 437.496 306.866 437.536 306.855 Z M 155.43 306.903 C 155.44 306.907 155.454 306.912 155.464 306.915 C 155.454 306.912 155.44 306.907 155.43 306.903 Z M 437.406 306.898 C 437.376 306.909 437.336 306.921 437.306 306.932 C 437.336 306.921 437.376 306.909 437.406 306.898 Z M 155.557 306.947 C 155.568 306.951 155.577 306.954 155.588 306.958 C 155.577 306.954 155.568 306.951 155.557 306.947 Z M 437.276 306.942 C 437.246 306.954 437.216 306.965 437.176 306.977 C 437.216 306.965 437.246 306.954 437.276 306.942 Z M 155.686 306.99 C 155.696 306.993 155.706 306.999 155.716 307.003 C 155.706 306.999 155.696 306.993 155.686 306.99 Z M 437.156 306.985 C 437.126 306.995 437.086 307.008 437.056 307.019 C 437.086 307.007 437.126 306.996 437.156 306.985 Z M 155.806 307.033 C 155.816 307.037 155.836 307.042 155.846 307.046 C 155.836 307.042 155.816 307.037 155.806 307.033 Z M 437.026 307.028 C 436.996 307.039 436.966 307.051 436.926 307.062 C 436.966 307.05 436.996 307.04 437.026 307.028 Z M 155.936 307.076 C 155.946 307.081 155.956 307.085 155.966 307.089 C 155.956 307.085 155.946 307.08 155.936 307.076 Z M 436.906 307.071 C 436.876 307.081 436.846 307.092 436.816 307.102 C 436.846 307.091 436.866 307.082 436.906 307.071 Z M 156.056 307.12 C 156.066 307.124 156.086 307.128 156.096 307.132 C 156.086 307.128 156.066 307.124 156.056 307.12 Z M 436.776 307.116 C 436.746 307.126 436.716 307.135 436.686 307.145 C 436.716 307.136 436.746 307.125 436.776 307.116 Z M 156.186 307.162 C 156.196 307.167 156.216 307.172 156.226 307.176 C 156.216 307.172 156.196 307.167 156.186 307.162 Z M 436.646 307.159 C 436.626 307.168 436.596 307.177 436.566 307.187 C 436.596 307.176 436.616 307.169 436.646 307.159 Z M 156.316 307.206 C 156.326 307.21 156.336 307.214 156.346 307.218 C 156.336 307.214 156.326 307.21 156.316 307.206 Z M 436.516 307.203 C 436.496 307.211 436.466 307.22 436.446 307.228 C 436.466 307.22 436.496 307.211 436.516 307.203 Z M 156.436 307.249 C 156.446 307.252 156.466 307.257 156.476 307.261 C 156.466 307.257 156.446 307.252 156.436 307.249 Z M 436.396 307.246 C 436.366 307.254 436.346 307.262 436.326 307.27 C 436.346 307.262 436.366 307.254 436.396 307.246 Z M 156.566 307.292 C 156.576 307.296 156.586 307.3 156.596 307.303 C 156.586 307.3 156.576 307.296 156.566 307.292 Z M 436.266 307.29 C 436.236 307.298 436.216 307.305 436.196 307.313 C 436.216 307.305 436.236 307.298 436.266 307.29 Z M 156.686 307.334 C 156.706 307.339 156.716 307.343 156.726 307.348 C 156.716 307.342 156.706 307.34 156.686 307.334 Z M 436.136 307.332 C 436.116 307.341 436.096 307.348 436.066 307.357 C 436.096 307.349 436.116 307.34 436.136 307.332 Z M 156.816 307.378 C 156.826 307.382 156.836 307.385 156.856 307.39 C 156.846 307.386 156.826 307.382 156.816 307.378 Z M 436.016 307.375 C 435.996 307.382 435.966 307.392 435.946 307.399 C 435.966 307.391 435.986 307.383 436.016 307.375 Z M 156.946 307.421 C 156.956 307.424 156.966 307.429 156.976 307.433 C 156.966 307.429 156.956 307.424 156.946 307.421 Z M 435.886 307.418 C 435.866 307.425 435.846 307.432 435.826 307.44 C 435.846 307.432 435.866 307.425 435.886 307.418 Z M 157.066 307.464 C 157.076 307.467 157.096 307.471 157.106 307.475 C 157.096 307.471 157.076 307.467 157.066 307.464 Z M 435.756 307.462 C 435.736 307.468 435.716 307.475 435.696 307.481 C 435.726 307.474 435.736 307.469 435.756 307.462 Z M 157.196 307.506 C 157.206 307.51 157.216 307.514 157.236 307.519 C 157.216 307.514 157.206 307.51 157.196 307.506 Z M 435.636 307.505 C 435.616 307.511 435.596 307.517 435.576 307.524 C 435.596 307.517 435.616 307.511 435.636 307.505 Z M 157.326 307.549 C 157.336 307.553 157.346 307.556 157.356 307.56 C 157.346 307.556 157.336 307.553 157.326 307.549 Z M 435.506 307.548 C 435.486 307.553 435.476 307.559 435.456 307.564 C 435.476 307.559 435.486 307.553 435.506 307.548 Z M 157.446 307.592 C 157.456 307.595 157.466 307.599 157.476 307.602 C 157.466 307.599 157.456 307.595 157.446 307.592 Z M 435.376 307.591 C 435.356 307.596 435.346 307.6 435.336 307.605 C 435.346 307.601 435.366 307.595 435.376 307.591 Z M 157.576 307.635 C 157.586 307.639 157.596 307.64 157.606 307.644 C 157.596 307.641 157.586 307.638 157.576 307.635 Z M 435.246 307.635 C 435.236 307.638 435.226 307.643 435.216 307.646 C 435.226 307.643 435.236 307.638 435.246 307.635 Z M 157.696 307.677 C 157.706 307.68 157.726 307.685 157.736 307.689 C 157.726 307.685 157.706 307.68 157.696 307.677 Z M 435.126 307.676 C 435.106 307.681 435.096 307.686 435.086 307.69 C 435.096 307.686 435.106 307.681 435.126 307.676 Z M 157.826 307.72 C 157.836 307.724 157.846 307.725 157.856 307.729 C 157.846 307.726 157.836 307.723 157.826 307.72 Z M 434.996 307.72 C 434.986 307.723 434.976 307.727 434.966 307.73 C 434.976 307.726 434.986 307.724 434.996 307.72 Z M 434.866 307.763 C 434.856 307.766 434.846 307.768 434.846 307.771 C 434.846 307.768 434.856 307.766 434.866 307.763 Z M 157.956 307.763 C 157.966 307.765 157.976 307.769 157.976 307.771 C 157.976 307.769 157.966 307.765 157.956 307.763 Z M 434.736 307.806 C 434.726 307.808 434.726 307.809 434.726 307.811 C 434.726 307.81 434.736 307.807 434.736 307.806 Z M 158.086 307.806 C 158.086 307.808 158.096 307.81 158.096 307.811 C 158.096 307.81 158.086 307.808 158.086 307.806 Z M 434.616 307.848 C 434.606 307.85 434.596 307.853 434.596 307.854 C 434.596 307.853 434.606 307.85 434.616 307.848 Z M 158.206 307.848 C 158.216 307.851 158.226 307.853 158.236 307.856 C 158.226 307.853 158.216 307.851 158.206 307.848 Z M 434.486 307.892 C 434.476 307.892 434.476 307.894 434.476 307.894 C 434.476 307.894 434.476 307.892 434.486 307.892 Z M 158.336 307.891 C 158.346 307.893 158.346 307.894 158.356 307.896 C 158.346 307.894 158.346 307.893 158.336 307.891 Z M 434.356 307.934 C 434.356 307.935 434.346 307.936 434.346 307.937 C 434.346 307.936 434.356 307.935 434.356 307.934 Z M 158.466 307.933 C 158.476 307.936 158.476 307.937 158.486 307.939 C 158.476 307.937 158.466 307.935 158.466 307.933 Z M 158.596 307.976 C 158.596 307.977 158.596 307.978 158.606 307.979 C 158.596 307.978 158.596 307.977 158.596 307.976 Z M 434.096 308.019 C 434.096 308.02 434.106 308.019 434.096 308.02 L 434.096 308.019 Z M 158.716 308.018 C 158.726 308.02 158.726 308.021 158.736 308.024 C 158.726 308.022 158.726 308.02 158.716 308.018 Z M 158.846 308.061 C 158.846 308.062 158.846 308.062 158.856 308.063 C 158.846 308.062 158.846 308.062 158.846 308.061 Z M 158.976 308.103 C 158.976 308.104 158.976 308.105 158.976 308.105 C 158.976 308.105 158.976 308.104 158.976 308.103 Z M 159.226 308.188 L 159.226 308.189 L 159.226 308.188 Z M 77.276 304.24 L 153.859 304.24 L 154.175 304.352 C 196.756 319.297 245.936 327.196 296.416 327.196 C 346.886 327.196 396.066 319.297 438.646 304.352 L 438.966 304.24 L 515.546 304.24 L 515.546 263.587 L 516.296 262.986 C 547.526 237.945 564.026 208.591 564.026 178.098 C 564.026 147.605 547.526 118.251 516.296 93.21 L 515.546 92.61 L 515.546 51.955 L 438.966 51.955 L 438.646 51.844 C 396.066 36.9 346.886 29 296.416 29 C 245.936 29 196.756 36.9 154.176 51.844 L 153.859 51.955 L 77.276 51.955 L 77.276 92.61 L 76.527 93.21 C 45.298 118.251 28.792 147.605 28.792 178.098 C 28.792 208.591 45.298 237.945 76.527 262.986 L 77.276 263.587 L 77.276 304.24 Z M 294.776 329.193 C 294.796 329.193 294.806 329.194 294.816 329.194 C 294.806 329.194 294.796 329.193 294.776 329.193 Z M 298.046 329.193 C 298.026 329.193 298.016 329.194 298.006 329.194 C 298.016 329.194 298.026 329.193 298.046 329.193 Z M 297.896 329.194 L 297.896 329.194 L 297.896 329.194 Z M 295.076 329.194 C 295.096 329.194 295.116 329.194 295.136 329.195 C 295.116 329.194 295.096 329.194 295.076 329.194 Z M 297.746 329.194 C 297.726 329.194 297.706 329.194 297.686 329.195 C 297.706 329.194 297.726 329.194 297.746 329.194 Z M 295.226 329.195 C 295.226 329.195 295.246 329.195 295.246 329.195 C 295.236 329.195 295.236 329.195 295.226 329.195 Z M 297.596 329.195 C 297.586 329.195 297.586 329.195 297.576 329.195 C 297.586 329.195 297.586 329.195 297.596 329.195 Z M 295.666 329.195 C 295.686 329.195 295.696 329.195 295.706 329.195 C 295.696 329.195 295.686 329.195 295.666 329.195 Z M 297.156 329.195 C 297.136 329.195 297.126 329.195 297.116 329.195 C 297.126 329.195 297.136 329.195 297.156 329.195 Z M 295.816 329.195 C 295.826 329.195 295.836 329.195 295.846 329.195 C 295.836 329.195 295.826 329.195 295.816 329.195 Z M 297.006 329.195 C 296.996 329.195 296.986 329.195 296.966 329.195 C 296.986 329.195 296.996 329.195 297.006 329.195 Z M 295.966 329.196 C 296.006 329.196 296.056 329.196 296.096 329.196 C 296.056 329.196 296.006 329.196 295.966 329.196 Z M 296.856 329.196 C 296.816 329.196 296.766 329.196 296.726 329.196 C 296.766 329.196 296.816 329.196 296.856 329.196 Z M 296.116 329.196 C 296.146 329.196 296.166 329.196 296.196 329.196 C 296.166 329.196 296.146 329.196 296.116 329.196 Z M 296.706 329.196 C 296.676 329.196 296.656 329.196 296.626 329.196 C 296.656 329.196 296.676 329.196 296.706 329.196 Z M 296.416 331.196 C 245.626 331.196 196.106 323.258 153.188 308.24 L 73.307 308.24 L 73.307 265.513 C 41.587 239.819 24.823 209.599 24.823 178.098 C 24.823 146.597 41.587 116.378 73.307 90.683 L 73.307 47.955 L 153.188 47.955 C 196.106 32.937 245.626 25 296.416 25 C 347.196 25 396.716 32.937 439.636 47.955 L 519.516 47.955 L 519.516 90.683 C 551.236 116.378 567.996 146.597 567.996 178.098 C 567.996 209.599 551.236 239.818 519.516 265.513 L 519.516 308.24 L 439.636 308.24 C 396.716 323.258 347.196 331.196 296.416 331.196 Z" fill="#000000" stroke="none"/>
</svg>
