<?xml version="1.0" encoding="UTF-8"?>
<svg xmlns="http://www.w3.org/2000/svg" width="548.550" height="310.285" viewBox="0 0 548.550 310.285">
  <path d="M 50.64 298.285 L 497.91 298.285 L 497.91 283.285 C 497.91 270.042 508.6 259.267 521.75 259.267 L 536.63 259.267 L 536.63 51.017 L 521.75 51.017 C 508.6 51.017 497.91 40.243 497.91 27 L 497.91 12 L 50.64 12 L 50.64 27 C 50.64 40.243 39.95 51.017 26.81 51.017 L 11.92 51.017 L 11.92 259.267 L 26.81 259.267 C 39.95 259.267 50.64 270.042 50.64 283.285 L 50.64 298.285 Z M 507.84 308.285 L 40.72 308.285 L 40.72 283.285 C 40.72 275.555 34.48 269.267 26.81 269.267 L 2 269.267 L 2 41.017 L 26.81 41.017 C 34.48 41.017 40.72 34.729 40.72 27 L 40.72 2 L 507.84 2 L 507.84 27 C 507.84 34.729 514.08 41.017 521.75 41.017 L 546.55 41.017 L 546.55 269.267 L 521.75 269.267 C 514.08 269.267 507.84 275.555 507.84 283.285 L 507.84 308.285 Z" fill="#000000" stroke="none"/><path d="M 66.5 282.285 L 482.05 282.285 C 482.57 261.011 499.64 243.803 520.75 243.279 L 520.75 67.005 C 499.64 66.481 482.57 49.274 482.05 28 L 66.5 28 C 65.98 49.274 48.91 66.481 27.8 67.005 L 27.8 243.279 C 48.91 243.803 65.98 261.011 66.5 282.285 Z M 484.02 284.285 L 64.53 284.285 L 64.53 283.285 C 64.53 262.322 47.61 245.267 26.81 245.267 L 25.81 245.267 L 25.81 65.017 L 26.81 65.017 C 47.61 65.017 64.53 47.963 64.53 27 L 64.53 26 L 484.02 26 L 484.02 27 C 484.02 47.963 500.94 65.017 521.75 65.017 L 522.74 65.017 L 522.74 245.267 L 521.75 245.267 C 500.94 245.267 484.02 262.322 484.02 283.285 L 484.02 284.285 Z" fill="#000000" stroke="none"/><path d="M 483.02 27 L 483.04 27.799 C 483.03 27.534 483.03 27.267 483.03 27 L 483.02 27 Z M 65.52 27 C 65.52 27.267 65.52 27.534 65.52 27.799 L 65.53 27 L 65.52 27 Z M 26.81 66.017 L 26.81 66.029 L 27.77 66.005 C 47.93 65.505 64.21 49.575 65.45 29.458 C 64.18 49.831 47.34 66.017 26.81 66.017 Z M 483.11 29.476 C 484.35 49.585 500.62 65.505 520.78 66.005 L 521.75 66.029 L 521.75 244.255 L 520.78 244.279 C 500.62 244.779 484.35 260.699 483.11 280.808 C 484.38 260.444 501.22 244.267 521.75 244.267 L 521.75 66.017 C 501.22 66.017 484.38 49.841 483.11 29.476 Z M 26.81 244.267 C 47.34 244.267 64.18 260.452 65.45 280.825 C 64.21 260.708 47.93 244.779 27.77 244.279 L 26.81 244.255 L 26.81 244.267 Z M 67.46 281.285 L 481.09 281.285 C 482.1 260.184 498.82 243.327 519.76 242.315 L 519.76 67.969 C 498.82 66.957 482.1 50.101 481.09 29 L 67.46 29 C 66.46 50.101 49.73 66.957 28.79 67.969 L 28.79 242.315 C 49.73 243.327 66.46 260.184 67.46 281.285 Z M 65.52 283.285 L 483.03 283.285 C 483.03 283.018 483.03 282.751 483.04 282.485 L 483.02 283.285 L 65.53 283.285 L 65.52 282.485 C 65.52 282.751 65.52 283.018 65.52 283.285 Z M 485.01 285.285 L 63.54 285.285 L 63.54 283.285 C 63.54 262.873 47.06 246.267 26.81 246.267 L 24.82 246.267 L 24.82 64.017 L 26.81 64.017 C 47.06 64.017 63.54 47.411 63.54 27 L 63.54 25 L 485.01 25 L 485.01 27 C 485.01 47.411 501.49 64.017 521.75 64.017 L 523.73 64.017 L 523.73 246.267 L 521.75 246.267 C 501.49 246.267 485.01 262.873 485.01 283.285 L 485.01 285.285 Z" fill="#000000" stroke="none"/>
</svg>
