<?xml version="1.0" encoding="UTF-8"?>
<svg xmlns="http://www.w3.org/2000/svg" width="544.150" height="379.643" viewBox="0 0 544.150 379.643">
  <path d="M 213.39 317.406 L 213.9 317.427 C 224.72 317.893 235.17 323.021 243.33 331.867 L 271.99 362.957 L 300.66 331.868 C 308.82 323.022 319.27 317.893 330.09 317.427 L 330.6 317.406 L 331.1 317.488 L 454.57 337.752 C 455.36 337.881 456.15 337.982 456.94 338.052 C 457.86 338.134 458.79 338.175 459.71 338.175 C 469.79 338.175 479.26 333.207 485.69 324.544 C 493.18 314.435 495.48 300.99 491.84 288.58 L 487.4 273.467 L 496.14 273.467 C 516.04 273.467 532.23 257.155 532.23 237.105 L 532.23 142.541 C 532.23 122.491 516.04 106.179 496.14 106.179 L 487.41 106.179 L 491.84 91.066 C 495.48 78.655 493.18 65.211 485.69 55.103 C 478.68 45.649 468 40.605 456.92 41.595 C 456.15 41.664 455.36 41.764 454.58 41.892 L 330.6 62.24 L 330.09 62.219 C 319.27 61.753 308.82 56.625 300.66 47.779 L 271.99 16.69 L 243.33 47.779 C 235.17 56.625 224.72 61.753 213.9 62.219 L 213.39 62.24 L 89.39 41.889 C 88.62 41.764 87.83 41.664 87.04 41.593 C 86.13 41.512 85.2 41.47 84.28 41.47 C 74.19 41.47 64.72 46.439 58.3 55.102 C 50.81 65.21 48.51 78.655 52.15 91.066 L 56.58 106.179 L 48.01 106.179 C 28.11 106.179 11.92 122.491 11.92 142.541 L 11.92 237.105 C 11.92 257.155 28.11 273.467 48.01 273.467 L 56.58 273.467 L 52.15 288.579 C 48.51 300.99 50.81 314.435 58.3 324.544 C 64.72 333.207 74.19 338.175 84.28 338.175 C 85.2 338.175 86.13 338.134 87.04 338.053 C 87.83 337.982 88.63 337.882 89.4 337.754 L 213.39 317.406 Z M 271.99 377.643 L 236.06 338.675 C 229.81 331.905 221.98 327.931 213.96 327.443 L 91 347.624 C 89.99 347.79 88.95 347.922 87.91 348.014 C 86.71 348.121 85.49 348.175 84.28 348.175 C 71.03 348.175 58.67 341.743 50.35 330.529 C 40.99 317.906 38.11 301.164 42.63 285.744 L 43.37 283.234 C 20.17 280.885 2 261.093 2 237.105 L 2 142.541 C 2 118.552 20.17 98.761 43.37 96.412 L 42.63 93.902 C 38.11 78.481 40.99 61.739 50.35 49.117 C 58.66 37.902 71.03 31.47 84.28 31.47 C 85.49 31.47 86.72 31.525 87.92 31.632 C 88.95 31.725 89.98 31.855 90.98 32.019 L 213.96 52.203 C 221.98 51.715 229.81 47.741 236.06 40.972 L 271.99 2 L 307.93 40.971 C 314.17 47.741 322 51.715 330.03 52.203 L 452.99 32.022 C 454 31.856 455.03 31.725 456.05 31.634 C 457.26 31.525 458.49 31.47 459.7 31.47 C 472.95 31.47 485.32 37.902 493.64 49.117 C 502.99 61.74 505.88 78.482 501.35 93.901 L 500.62 96.397 C 523.9 98.671 542.15 118.498 542.15 142.541 L 542.15 237.105 C 542.15 261.148 523.9 280.975 500.62 283.25 L 501.35 285.744 C 505.88 301.164 502.99 317.906 493.64 330.528 C 485.32 341.743 472.95 348.175 459.71 348.175 C 458.5 348.175 457.27 348.121 456.06 348.013 C 455.03 347.921 453.99 347.79 452.97 347.622 L 330.03 327.443 C 322 327.931 314.17 331.906 307.93 338.675 L 271.99 377.643 Z" fill="#000000" stroke="none"/><path d="M 212.18 301.392 L 212.26 301.392 C 228.15 301.392 243.31 308.347 254.96 320.976 L 271.99 339.452 L 289.03 320.976 C 300.68 308.347 315.84 301.392 331.72 301.392 L 331.88 301.405 L 457.13 321.962 C 457.54 322.028 457.94 322.079 458.34 322.114 C 463.65 322.583 468.65 320.312 472.4 315.704 C 477.31 309.652 478.93 300.997 476.61 293.117 L 467.89 263.394 C 467.44 261.859 467.03 260.278 466.66 258.695 L 466.38 257.467 L 496.14 257.467 C 507.29 257.467 516.35 248.333 516.35 237.105 L 516.35 142.541 C 516.35 131.313 507.29 122.179 496.14 122.179 L 466.38 122.179 L 466.66 120.952 C 467.03 119.37 467.44 117.789 467.89 116.252 L 476.61 86.529 C 478.93 78.649 477.31 69.994 472.39 63.942 C 468.65 59.334 463.66 57.059 458.34 57.531 C 457.94 57.568 457.54 57.618 457.13 57.684 L 331.8 78.254 L 331.72 78.254 C 315.84 78.254 300.68 71.299 289.03 58.67 L 271.99 40.194 L 254.96 58.67 C 243.31 71.299 228.15 78.254 212.26 78.254 L 212.1 78.241 L 86.85 57.684 C 86.45 57.618 86.05 57.568 85.65 57.531 C 80.34 57.059 75.33 59.333 71.59 63.941 C 66.68 69.994 65.06 78.649 67.37 86.529 L 76.24 116.738 C 76.61 118.001 76.97 119.378 77.34 120.946 L 77.63 122.179 L 48.01 122.179 C 36.86 122.179 27.8 131.313 27.8 142.541 L 27.8 237.105 C 27.8 248.333 36.86 257.467 48.01 257.467 L 77.63 257.467 L 77.34 258.7 C 76.96 260.307 76.61 261.644 76.24 262.907 L 67.37 293.116 C 65.06 300.997 66.68 309.652 71.59 315.704 C 75.33 320.313 80.32 322.588 85.65 322.114 C 86.05 322.079 86.45 322.028 86.85 321.962 L 212.18 301.392 Z M 271.99 342.39 L 253.5 322.337 C 242.26 310.141 227.64 303.415 212.34 303.392 L 87.17 323.936 C 86.72 324.01 86.27 324.067 85.82 324.107 C 79.92 324.638 74.17 322.033 70.06 316.971 C 64.73 310.414 62.97 301.056 65.47 292.549 L 74.34 262.34 C 74.6 261.447 74.85 260.514 75.11 259.467 L 48.01 259.467 C 35.77 259.467 25.82 249.436 25.82 237.105 L 25.82 142.541 C 25.82 130.21 35.77 120.179 48.01 120.179 L 75.11 120.179 C 74.85 119.142 74.59 118.193 74.34 117.305 L 65.47 87.096 C 62.97 78.59 64.73 69.232 70.06 62.675 C 74.17 57.613 79.91 55.01 85.82 55.539 C 86.27 55.579 86.72 55.636 87.17 55.709 L 212.34 76.254 C 227.64 76.231 242.26 69.505 253.5 57.309 L 271.99 37.256 L 290.48 57.309 C 301.73 69.505 316.34 76.231 331.64 76.254 L 456.81 55.71 C 457.27 55.636 457.72 55.579 458.16 55.539 C 464.07 55.009 469.82 57.612 473.93 62.675 C 479.26 69.232 481.01 78.59 478.52 87.096 L 469.8 116.819 C 469.47 117.922 469.17 119.047 468.89 120.179 L 496.14 120.179 C 508.38 120.179 518.33 130.21 518.33 142.541 L 518.33 237.105 C 518.33 249.436 508.38 259.467 496.14 259.467 L 468.89 259.467 C 469.17 260.6 469.47 261.726 469.8 262.827 L 478.52 292.549 C 481.01 301.056 479.26 310.413 473.93 316.97 C 469.82 322.033 464.08 324.637 458.16 324.107 C 457.72 324.067 457.27 324.01 456.81 323.936 L 331.64 303.392 C 316.34 303.415 301.73 310.141 290.48 322.337 L 271.99 342.39 Z" fill="#000000" stroke="none"/><path d="M 271.99 38.726 L 268.82 42.162 L 271.99 38.726 Z M 85.44 56.512 C 85.54 56.519 85.64 56.526 85.73 56.535 C 85.64 56.526 85.54 56.519 85.44 56.512 Z M 85.74 56.535 C 86.16 56.574 86.59 56.628 87.01 56.696 L 112.51 60.882 L 87.01 56.696 C 86.59 56.628 86.16 56.573 85.74 56.535 Z M 248.76 63.273 C 248.76 63.275 248.76 63.277 248.76 63.279 C 248.76 63.277 248.76 63.275 248.76 63.273 Z M 70.76 63.382 L 70.76 63.382 Z M 458.93 56.489 C 458.7 56.5 458.48 56.515 458.25 56.535 C 457.83 56.573 457.4 56.628 456.97 56.697 L 405.85 65.088 L 456.97 56.697 C 457.4 56.628 457.83 56.574 458.25 56.535 C 458.48 56.515 458.7 56.5 458.93 56.489 Z M 299.79 66.846 C 299.79 66.847 299.8 66.849 299.8 66.85 C 299.8 66.849 299.79 66.847 299.79 66.846 Z M 299.83 66.871 C 299.83 66.874 299.84 66.877 299.84 66.88 C 299.84 66.878 299.83 66.874 299.83 66.871 Z M 299.86 66.896 C 299.87 66.9 299.88 66.905 299.88 66.909 C 299.88 66.905 299.87 66.9 299.86 66.896 Z M 299.9 66.921 C 299.91 66.927 299.92 66.933 299.92 66.939 C 299.92 66.933 299.91 66.927 299.9 66.921 Z M 299.93 66.946 C 299.94 66.953 299.96 66.961 299.97 66.969 C 299.96 66.961 299.94 66.953 299.93 66.946 Z M 299.97 66.971 C 307.25 72.091 315.35 75.393 323.82 76.664 C 315.35 75.393 307.25 72.09 299.97 66.971 Z M 323.82 76.665 C 323.84 76.667 323.85 76.669 323.86 76.67 C 323.85 76.669 323.84 76.667 323.82 76.665 Z M 323.87 76.671 C 323.88 76.673 323.89 76.675 323.9 76.677 C 323.89 76.675 323.88 76.673 323.87 76.671 Z M 323.92 76.679 C 323.93 76.68 323.94 76.682 323.95 76.683 C 323.94 76.682 323.93 76.68 323.92 76.679 Z M 323.96 76.686 C 323.97 76.687 323.98 76.688 323.99 76.69 C 323.98 76.688 323.97 76.687 323.96 76.686 Z M 324.01 76.692 C 324.02 76.693 324.02 76.694 324.03 76.695 C 324.02 76.694 324.02 76.693 324.01 76.692 Z M 324.06 76.699 C 324.06 76.7 324.07 76.701 324.07 76.702 C 324.07 76.701 324.06 76.7 324.06 76.699 Z M 324.11 76.707 C 324.11 76.707 324.11 76.707 324.11 76.708 C 324.11 76.707 324.11 76.707 324.11 76.707 Z M 324.15 76.713 C 324.15 76.713 324.16 76.713 324.16 76.714 C 324.16 76.713 324.15 76.713 324.15 76.713 Z M 212.27 77.254 L 212.35 77.257 C 225.49 77.254 238.19 72.347 248.73 63.299 C 238.22 72.327 225.53 77.234 212.35 77.254 L 212.27 77.254 Z M 70.76 63.383 C 65.69 69.684 64.03 78.651 66.42 86.813 L 70.08 99.265 L 66.42 86.813 C 64.03 78.652 65.69 69.684 70.76 63.383 Z M 473.1 63.231 C 473.12 63.257 473.14 63.283 473.16 63.309 C 478.28 69.613 479.97 78.619 477.56 86.813 L 468.84 116.536 C 468.81 116.656 468.77 116.776 468.74 116.897 C 468.77 116.776 468.81 116.656 468.84 116.536 L 477.56 86.813 C 479.97 78.619 478.28 69.613 473.16 63.309 C 473.14 63.283 473.12 63.257 473.1 63.231 Z M 75.5 117.752 C 75.69 118.439 75.88 119.162 76.07 119.934 L 76.13 120.181 C 75.92 119.321 75.71 118.517 75.5 117.752 Z M 75.11 121.179 L 76.38 121.179 L 75.11 121.179 Z M 26.81 237.105 C 26.81 248.884 36.32 258.467 48.01 258.467 L 76.38 258.467 L 48.01 258.467 C 36.32 258.467 26.81 248.884 26.81 237.105 Z M 467.63 258.467 L 496.14 258.467 C 507.83 258.467 517.34 248.884 517.34 237.105 L 517.34 142.541 L 517.34 237.105 C 517.34 248.884 507.83 258.467 496.14 258.467 L 467.63 258.467 Z M 467.86 259.441 C 467.99 259.994 468.13 260.547 468.28 261.097 C 468.16 260.636 468.04 260.172 467.92 259.709 L 467.86 259.441 Z M 468.29 261.124 C 468.29 261.126 468.29 261.128 468.29 261.131 C 468.29 261.128 468.29 261.126 468.29 261.124 Z M 220.99 303.112 C 220.99 303.113 221 303.113 221 303.113 C 221 303.113 220.99 303.113 220.99 303.112 Z M 221.03 303.119 C 221.04 303.12 221.04 303.12 221.04 303.121 C 221.04 303.121 221.04 303.12 221.03 303.119 Z M 221.08 303.127 C 221.08 303.128 221.09 303.128 221.09 303.129 C 221.09 303.128 221.08 303.128 221.08 303.127 Z M 221.12 303.133 C 221.13 303.135 221.13 303.136 221.14 303.137 C 221.13 303.136 221.13 303.135 221.12 303.133 Z M 221.16 303.141 C 221.17 303.142 221.18 303.144 221.19 303.145 C 221.18 303.144 221.17 303.142 221.16 303.141 Z M 221.2 303.148 C 221.21 303.149 221.22 303.151 221.23 303.152 C 221.22 303.151 221.21 303.149 221.2 303.148 Z M 221.25 303.155 C 221.26 303.157 221.27 303.159 221.28 303.161 C 221.27 303.159 221.26 303.157 221.25 303.155 Z M 221.29 303.162 C 221.3 303.165 221.31 303.167 221.32 303.169 C 221.31 303.167 221.3 303.165 221.29 303.162 Z M 75.5 261.894 C 75.43 262.141 75.36 262.383 75.29 262.623 L 66.42 292.833 C 64.87 298.105 65.02 303.715 66.69 308.725 C 65.02 303.715 64.88 298.106 66.42 292.833 L 75.29 262.624 C 75.36 262.383 75.43 262.14 75.5 261.894 Z M 221.33 303.17 C 229.2 304.529 236.73 307.649 243.56 312.353 C 236.73 307.648 229.2 304.529 221.33 303.17 Z M 243.56 312.355 C 243.57 312.362 243.58 312.371 243.59 312.378 C 243.58 312.37 243.57 312.363 243.56 312.355 Z M 243.6 312.383 C 243.61 312.39 243.62 312.397 243.63 312.402 C 243.62 312.396 243.61 312.39 243.6 312.383 Z M 243.64 312.413 C 243.65 312.418 243.66 312.422 243.66 312.427 C 243.66 312.423 243.65 312.417 243.64 312.413 Z M 243.68 312.441 C 243.69 312.445 243.69 312.448 243.7 312.452 C 243.69 312.449 243.69 312.444 243.68 312.441 Z M 243.72 312.47 C 243.73 312.473 243.73 312.474 243.73 312.477 C 243.73 312.475 243.73 312.472 243.72 312.47 Z M 243.77 312.499 C 243.77 312.5 243.77 312.501 243.77 312.502 C 243.77 312.501 243.77 312.5 243.77 312.499 Z M 331.64 302.389 C 318.48 302.392 305.76 307.312 295.21 316.38 C 305.74 307.331 318.44 302.412 331.64 302.392 L 331.72 302.392 L 331.64 302.389 Z M 295.21 316.382 C 295.2 316.391 295.19 316.399 295.18 316.407 C 295.19 316.399 295.2 316.39 295.21 316.382 Z M 468.68 262.543 C 468.73 262.732 468.79 262.921 468.84 263.11 L 477.56 292.833 C 479.97 301.026 478.28 310.032 473.16 316.337 C 473.09 316.423 473.02 316.509 472.95 316.594 C 473.02 316.509 473.09 316.423 473.16 316.337 C 478.28 310.032 479.97 301.026 477.56 292.833 L 468.84 263.11 C 468.79 262.922 468.73 262.732 468.68 262.543 Z M 86.27 323.054 C 86.12 323.073 85.96 323.089 85.81 323.104 C 85.96 323.09 86.12 323.073 86.27 323.054 Z M 457.67 323.049 C 457.84 323.07 458.02 323.089 458.2 323.106 C 458.02 323.089 457.84 323.07 457.67 323.049 Z M 85.69 323.115 C 85.48 323.132 85.28 323.146 85.08 323.156 C 85.28 323.146 85.48 323.132 85.69 323.115 Z M 458.28 323.113 C 458.58 323.139 458.87 323.156 459.16 323.166 C 458.87 323.156 458.58 323.139 458.28 323.113 Z M 212.1 300.392 L 212.26 300.392 C 228.43 300.392 243.85 307.461 255.68 320.295 L 271.99 337.982 L 288.3 320.295 C 300.14 307.461 315.56 300.392 331.72 300.392 L 331.96 300.409 L 457.29 320.975 C 457.67 321.038 458.05 321.085 458.43 321.118 C 463.41 321.559 468.1 319.41 471.63 315.07 C 476.34 309.271 477.88 300.967 475.66 293.4 L 466.94 263.678 C 466.48 262.119 466.06 260.519 465.69 258.922 L 465.12 256.467 L 496.14 256.467 C 506.74 256.467 515.36 247.781 515.36 237.105 L 515.36 142.541 C 515.36 131.864 506.74 123.179 496.14 123.179 L 465.13 123.179 L 465.69 120.725 C 466.06 119.13 466.48 117.53 466.94 115.969 L 475.66 86.245 C 477.88 78.678 476.34 70.375 471.63 64.575 C 468.1 60.233 463.41 58.083 458.42 58.527 C 458.05 58.561 457.67 58.609 457.29 58.671 L 331.88 79.254 L 331.8 79.254 C 315.56 79.254 300.14 72.186 288.3 59.351 L 271.99 41.663 L 255.68 59.351 C 243.85 72.186 228.43 79.254 212.26 79.254 L 212.02 79.237 L 86.69 58.67 C 86.32 58.609 85.94 58.562 85.56 58.527 C 80.58 58.084 75.89 60.232 72.36 64.575 C 67.65 70.375 66.11 78.678 68.33 86.245 L 77.19 116.455 C 77.57 117.749 77.93 119.141 78.31 120.714 L 78.89 123.179 L 48.01 123.179 C 37.41 123.179 28.79 131.864 28.79 142.541 L 28.79 237.105 C 28.79 247.781 37.41 256.467 48.01 256.467 L 78.89 256.467 L 78.31 258.933 C 77.92 260.551 77.57 261.904 77.19 263.191 L 68.33 293.4 C 66.11 300.968 67.65 309.272 72.36 315.071 C 75.89 319.415 80.58 321.562 85.56 321.118 C 85.94 321.085 86.31 321.038 86.69 320.975 L 212.1 300.392 Z M 262.42 330.536 L 271.99 340.921 L 280.55 331.641 L 271.99 340.921 L 262.42 330.536 Z M 271.99 343.859 L 252.78 323.018 C 241.74 311.05 227.41 304.438 212.42 304.392 L 87.33 324.922 C 86.86 325.001 86.38 325.061 85.91 325.103 C 79.67 325.665 73.61 322.932 69.29 317.604 C 63.76 310.794 61.93 301.085 64.52 292.265 L 73.38 262.056 C 73.53 261.545 73.68 261.02 73.83 260.467 L 48.01 260.467 C 35.22 260.467 24.82 249.987 24.82 237.105 L 24.82 142.541 C 24.82 129.659 35.22 119.179 48.01 119.179 L 73.83 119.179 C 73.68 118.625 73.53 118.096 73.38 117.587 L 64.52 87.38 C 61.93 78.56 63.76 68.851 69.29 62.042 C 73.61 56.718 79.67 53.983 85.91 54.543 C 86.38 54.585 86.85 54.645 87.33 54.722 L 212.42 75.254 C 227.41 75.208 241.74 68.595 252.78 56.628 L 271.99 35.788 L 291.21 56.628 C 302.25 68.595 316.57 75.208 331.56 75.254 L 456.65 54.723 C 457.13 54.645 457.6 54.585 458.07 54.543 C 464.33 53.99 470.38 56.717 474.7 62.042 C 480.23 68.851 482.06 78.56 479.47 87.38 L 470.75 117.103 C 470.55 117.786 470.35 118.481 470.17 119.179 L 496.14 119.179 C 508.93 119.179 519.33 129.659 519.33 142.541 L 519.33 237.105 C 519.33 249.987 508.93 260.467 496.14 260.467 L 470.17 260.467 C 470.35 261.166 470.55 261.86 470.75 262.543 L 479.47 292.266 C 482.06 301.085 480.23 310.794 474.7 317.604 C 470.38 322.93 464.31 325.659 458.08 325.103 C 457.6 325.061 457.13 325.001 456.65 324.922 L 331.56 304.392 C 316.57 304.438 302.25 311.05 291.21 323.018 L 271.99 343.859 Z" fill="#000000" stroke="none"/>
</svg>
