<?xml version="1.0" encoding="UTF-8"?>
<svg xmlns="http://www.w3.org/2000/svg" width="592.826" height="356.200" viewBox="0 0 592.826 356.200">
  <path d="M 39.427 301.58 L 193.776 301.58 L 195.206 302.94 C 223.146 329.55 259.086 344.2 296.406 344.2 C 333.736 344.2 369.676 329.55 397.616 302.94 L 399.046 301.58 L 553.396 301.58 L 553.396 286.58 C 553.396 278.31 559.056 271.58 566.016 271.58 L 580.896 271.58 L 580.896 84.63 L 566.016 84.63 C 559.056 84.63 553.396 77.9 553.396 69.63 L 553.396 54.63 L 399.046 54.63 L 397.616 53.26 C 369.676 26.66 333.736 12 296.406 12 C 259.086 12 223.146 26.66 195.206 53.26 L 193.776 54.63 L 39.427 54.63 L 39.427 69.63 C 39.427 77.9 33.766 84.63 26.807 84.63 L 11.923 84.63 L 11.923 271.58 L 26.807 271.58 C 33.766 271.58 39.427 278.31 39.427 286.58 L 39.427 301.58 Z M 296.406 354.2 C 257.186 354.2 219.416 339.08 189.846 311.58 L 29.504 311.58 L 29.504 286.58 C 29.504 283.53 27.733 281.58 26.807 281.58 L 2 281.58 L 2 74.63 L 26.807 74.63 C 27.733 74.63 29.504 72.68 29.504 69.63 L 29.504 44.63 L 189.846 44.63 C 219.416 17.13 257.186 2 296.406 2 C 335.636 2 373.406 17.13 402.976 44.63 L 563.316 44.63 L 563.316 69.63 C 563.316 72.68 565.086 74.63 566.016 74.63 L 590.826 74.63 L 590.826 281.58 L 566.016 281.58 C 565.086 281.58 563.316 283.53 563.316 286.58 L 563.316 311.58 L 402.976 311.58 C 373.406 339.08 335.636 354.2 296.406 354.2 Z" fill="#000000" stroke="none"/><path d="M 55.289 285.58 L 200.416 285.58 L 200.706 285.89 C 226.506 313.17 260.496 328.2 296.406 328.2 C 332.326 328.2 366.316 313.17 392.116 285.89 L 392.406 285.58 L 537.536 285.58 C 538.006 269.3 550.076 256.15 565.026 255.6 L 565.026 100.61 C 550.076 100.05 538.006 86.9 537.536 70.63 L 392.406 70.63 L 392.116 70.32 C 366.316 43.03 332.326 28 296.406 28 C 260.496 28 226.506 43.03 200.706 70.32 L 200.416 70.63 L 55.289 70.63 C 54.812 86.9 42.75 100.05 27.8 100.61 L 27.8 255.6 C 42.75 256.15 54.812 269.3 55.289 285.58 Z M 296.406 330.2 C 260.076 330.2 225.706 315.07 199.566 287.58 L 53.319 287.58 L 53.319 286.58 C 53.319 270.59 41.426 257.58 26.807 257.58 L 25.815 257.58 L 25.815 98.63 L 26.807 98.63 C 41.426 98.63 53.319 85.62 53.319 69.63 L 53.319 68.63 L 199.566 68.63 C 225.706 41.14 260.076 26 296.406 26 C 332.746 26 367.116 41.14 393.256 68.63 L 539.506 68.63 L 539.506 69.63 C 539.506 85.62 551.396 98.63 566.016 98.63 L 567.006 98.63 L 567.006 257.58 L 566.016 257.58 C 551.396 257.58 539.506 270.59 539.506 286.58 L 539.506 287.58 L 393.256 287.58 C 367.116 315.07 332.746 330.2 296.406 330.2 Z" fill="#000000" stroke="none"/><path d="M 296.306 27 C 296.306 27 296.306 27 296.306 27 C 296.306 27 296.306 27 296.306 27 Z M 296.516 27 C 296.516 27 296.516 27 296.516 27 C 296.516 27 296.516 27 296.516 27 Z M 296.276 27 C 296.266 27 296.256 27 296.256 27 C 296.256 27 296.266 27 296.276 27 Z M 296.546 27 C 296.556 27 296.566 27 296.566 27 C 296.566 27 296.556 27 296.546 27 Z M 204.376 65.18 L 204.376 65.18 Z M 204.346 65.22 C 204.336 65.22 204.336 65.22 204.336 65.22 C 204.336 65.22 204.336 65.22 204.346 65.22 Z M 204.306 65.25 C 204.306 65.25 204.296 65.26 204.296 65.26 C 204.296 65.26 204.306 65.25 204.306 65.25 Z M 204.276 65.28 C 204.266 65.29 204.256 65.29 204.246 65.3 C 204.256 65.3 204.266 65.29 204.276 65.28 Z M 204.236 65.31 C 204.226 65.32 204.216 65.34 204.206 65.35 C 204.216 65.33 204.226 65.32 204.236 65.31 Z M 204.206 65.35 C 203.006 66.52 201.816 67.72 200.636 68.95 C 201.816 67.72 203.006 66.52 204.206 65.35 Z M 200.636 68.95 C 200.626 68.96 200.616 68.97 200.606 68.98 C 200.616 68.97 200.626 68.96 200.636 68.95 Z M 200.596 68.99 C 200.586 69 200.576 69.01 200.576 69.02 C 200.576 69.01 200.586 69 200.596 68.99 Z M 200.556 69.03 C 200.546 69.04 200.546 69.04 200.536 69.05 C 200.546 69.04 200.546 69.04 200.556 69.03 Z M 200.516 69.08 C 200.506 69.08 200.506 69.08 200.506 69.09 C 200.506 69.08 200.506 69.08 200.516 69.08 Z M 199.986 69.63 L 199.986 69.63 C 200.076 69.54 200.156 69.45 200.246 69.36 L 199.986 69.63 Z M 392.836 69.63 L 392.836 69.63 L 392.606 69.39 C 392.686 69.47 392.756 69.55 392.836 69.63 L 392.836 69.63 Z M 54.311 69.63 C 54.311 70.33 54.289 71.03 54.246 71.72 C 54.269 71.35 54.286 70.97 54.297 70.6 L 54.326 69.63 L 54.311 69.63 Z M 538.496 69.63 L 538.526 70.6 C 538.536 70.97 538.556 71.35 538.576 71.72 C 538.536 71.03 538.506 70.33 538.506 69.63 L 538.496 69.63 Z M 54.245 71.73 C 54.244 71.74 54.244 71.74 54.243 71.75 C 54.244 71.74 54.244 71.74 54.245 71.73 Z M 538.576 71.73 C 538.576 71.74 538.576 71.74 538.576 71.75 C 538.576 71.74 538.576 71.74 538.576 71.73 Z M 28.648 99.56 C 28.646 99.56 28.644 99.56 28.648 99.56 Z M 564.176 99.56 C 564.176 99.56 564.176 99.56 564.176 99.56 C 564.176 99.56 564.176 99.56 564.176 99.56 Z M 28.608 99.56 C 28.606 99.56 28.602 99.56 28.6 99.56 C 28.603 99.56 28.605 99.56 28.608 99.56 Z M 564.216 99.56 C 564.216 99.56 564.216 99.56 564.226 99.56 C 564.216 99.56 564.216 99.56 564.216 99.56 Z M 28.568 99.57 C 28.564 99.57 28.559 99.57 28.555 99.57 C 28.559 99.57 28.564 99.57 28.568 99.57 Z M 564.256 99.57 C 564.256 99.57 564.266 99.57 564.266 99.57 C 564.266 99.57 564.256 99.57 564.256 99.57 Z M 28.527 99.57 C 28.522 99.57 28.516 99.57 28.51 99.57 C 28.516 99.57 28.522 99.57 28.527 99.57 Z M 564.296 99.57 C 564.296 99.57 564.306 99.57 564.316 99.57 C 564.306 99.57 564.296 99.57 564.296 99.57 Z M 28.493 99.57 C 28.484 99.57 28.474 99.57 28.466 99.57 C 28.475 99.57 28.484 99.57 28.493 99.57 Z M 564.326 99.57 C 564.336 99.57 564.346 99.57 564.356 99.57 C 564.346 99.57 564.336 99.57 564.326 99.57 Z M 28.454 99.57 C 28.443 99.57 28.432 99.58 28.421 99.58 C 28.431 99.58 28.443 99.57 28.454 99.57 Z M 564.366 99.57 C 564.376 99.57 564.386 99.58 564.406 99.58 C 564.386 99.58 564.376 99.57 564.366 99.57 Z M 28.414 99.58 C 28.4 99.58 28.389 99.58 28.375 99.58 C 28.387 99.58 28.402 99.58 28.414 99.58 Z M 564.406 99.58 C 564.416 99.58 564.436 99.58 564.446 99.58 C 564.436 99.58 564.426 99.58 564.406 99.58 Z M 28.373 99.58 C 28.25 99.59 28.127 99.59 28.003 99.6 C 28.127 99.59 28.249 99.59 28.373 99.58 Z M 564.446 99.58 C 564.576 99.59 564.696 99.59 564.816 99.6 C 564.696 99.59 564.576 99.59 564.446 99.58 Z M 27.991 99.6 C 27.982 99.6 27.971 99.6 27.962 99.6 C 27.971 99.6 27.982 99.6 27.991 99.6 Z M 564.836 99.6 C 564.836 99.6 564.856 99.6 564.856 99.6 C 564.846 99.6 564.836 99.6 564.836 99.6 Z M 27.942 99.6 C 27.935 99.6 27.93 99.6 27.922 99.6 C 27.93 99.6 27.935 99.6 27.942 99.6 Z M 564.876 99.6 C 564.886 99.6 564.896 99.6 564.896 99.6 C 564.896 99.6 564.886 99.6 564.876 99.6 Z M 27.896 99.6 C 27.891 99.6 27.888 99.61 27.883 99.61 C 27.887 99.61 27.892 99.6 27.896 99.6 Z M 564.926 99.6 C 564.926 99.6 564.936 99.61 564.936 99.61 C 564.936 99.61 564.926 99.6 564.926 99.6 Z M 27.849 99.61 C 27.848 99.61 27.848 99.61 27.847 99.61 C 27.848 99.61 27.848 99.61 27.849 99.61 Z M 564.976 99.61 C 564.976 99.61 564.976 99.61 564.976 99.61 C 564.976 99.61 564.976 99.61 564.976 99.61 Z M 26.807 99.63 L 26.807 99.65 L 27.749 99.61 C 27.437 99.62 27.122 99.63 26.807 99.63 Z M 26.807 256.58 C 27.123 256.58 27.438 256.58 27.751 256.6 L 26.807 256.56 L 26.807 256.58 Z M 565.076 99.61 L 566.016 99.65 L 566.016 256.56 L 565.076 256.6 C 565.386 256.58 565.696 256.58 566.016 256.58 L 566.016 99.63 C 565.696 99.63 565.386 99.62 565.076 99.61 Z M 27.847 256.6 C 27.848 256.6 27.848 256.6 27.849 256.6 C 27.848 256.6 27.848 256.6 27.847 256.6 Z M 564.976 256.6 C 564.976 256.6 564.976 256.6 564.976 256.6 C 564.976 256.6 564.976 256.6 564.976 256.6 Z M 27.883 256.6 C 27.888 256.6 27.891 256.6 27.896 256.6 C 27.892 256.6 27.887 256.6 27.883 256.6 Z M 564.936 256.6 C 564.936 256.6 564.926 256.6 564.926 256.6 C 564.926 256.6 564.936 256.6 564.936 256.6 Z M 27.922 256.6 C 27.93 256.6 27.935 256.6 27.942 256.6 C 27.935 256.6 27.93 256.6 27.922 256.6 Z M 564.896 256.6 C 564.896 256.6 564.886 256.6 564.876 256.6 C 564.886 256.6 564.896 256.6 564.896 256.6 Z M 27.962 256.6 C 27.971 256.6 27.982 256.61 27.991 256.61 C 27.982 256.61 27.971 256.6 27.962 256.6 Z M 564.856 256.6 C 564.856 256.6 564.836 256.61 564.836 256.61 C 564.836 256.61 564.846 256.6 564.856 256.6 Z M 28.003 256.61 C 28.127 256.61 28.25 256.62 28.373 256.63 C 28.249 256.62 28.127 256.61 28.003 256.61 Z M 564.816 256.61 C 564.696 256.61 564.576 256.62 564.446 256.63 C 564.576 256.62 564.696 256.61 564.816 256.61 Z M 28.375 256.63 C 28.389 256.63 28.4 256.63 28.414 256.63 C 28.402 256.63 28.387 256.63 28.375 256.63 Z M 564.446 256.63 C 564.436 256.63 564.416 256.63 564.406 256.63 C 564.426 256.63 564.436 256.63 564.446 256.63 Z M 28.421 256.63 C 28.432 256.63 28.443 256.63 28.454 256.63 C 28.443 256.63 28.431 256.63 28.421 256.63 Z M 564.406 256.63 C 564.386 256.63 564.376 256.63 564.366 256.63 C 564.376 256.63 564.386 256.63 564.406 256.63 Z M 28.466 256.63 C 28.474 256.63 28.484 256.63 28.493 256.63 C 28.484 256.63 28.475 256.63 28.466 256.63 Z M 564.356 256.63 C 564.346 256.63 564.336 256.63 564.326 256.63 C 564.336 256.63 564.346 256.63 564.356 256.63 Z M 28.51 256.63 C 28.516 256.64 28.522 256.64 28.527 256.64 C 28.522 256.64 28.516 256.64 28.51 256.63 Z M 564.316 256.63 C 564.306 256.64 564.296 256.64 564.296 256.64 C 564.296 256.64 564.306 256.64 564.316 256.63 Z M 28.555 256.64 C 28.559 256.64 28.564 256.64 28.568 256.64 C 28.564 256.64 28.559 256.64 28.555 256.64 Z M 564.266 256.64 C 564.266 256.64 564.256 256.64 564.256 256.64 C 564.256 256.64 564.266 256.64 564.266 256.64 Z M 28.6 256.64 C 28.602 256.64 28.606 256.64 28.608 256.64 C 28.605 256.64 28.603 256.64 28.6 256.64 Z M 564.226 256.64 C 564.216 256.64 564.216 256.64 564.216 256.64 C 564.216 256.64 564.216 256.64 564.226 256.64 Z M 28.645 256.64 C 28.646 256.64 28.647 256.64 28.648 256.64 C 28.646 256.64 28.647 256.64 28.645 256.64 Z M 564.176 256.64 C 564.176 256.64 564.176 256.64 564.176 256.64 C 564.176 256.64 564.176 256.64 564.176 256.64 Z M 54.243 284.45 C 54.244 284.46 54.244 284.47 54.245 284.48 C 54.244 284.47 54.244 284.46 54.243 284.45 Z M 538.576 284.45 C 538.576 284.46 538.576 284.47 538.576 284.48 C 538.576 284.47 538.576 284.46 538.576 284.45 Z M 392.836 286.58 C 392.766 286.65 392.706 286.71 392.636 286.78 L 392.836 286.58 L 538.506 286.58 C 538.506 285.87 538.536 285.18 538.576 284.49 C 538.556 284.86 538.536 285.23 538.526 285.61 L 538.496 286.58 L 392.836 286.58 L 392.836 286.58 Z M 54.311 286.58 L 199.986 286.58 L 200.196 286.8 C 200.126 286.72 200.056 286.65 199.986 286.58 L 54.326 286.58 L 54.297 285.61 C 54.286 285.23 54.269 284.86 54.246 284.49 C 54.289 285.18 54.311 285.87 54.311 286.58 Z M 56.239 284.58 L 200.846 284.58 L 201.426 285.2 C 227.036 312.28 260.766 327.2 296.406 327.2 C 332.056 327.2 365.786 312.28 391.396 285.2 L 391.986 284.58 L 536.586 284.58 C 537.496 268.59 549.316 255.72 564.026 254.65 L 564.026 101.56 C 549.316 100.49 537.496 87.61 536.586 71.63 L 391.986 71.63 L 391.396 71.01 C 365.786 43.92 332.056 29 296.406 29 C 260.766 29 227.036 43.92 201.426 71.01 L 200.846 71.63 L 56.239 71.63 C 55.325 87.61 43.51 100.49 28.792 101.56 L 28.792 254.65 C 43.51 255.72 55.325 268.59 56.239 284.58 Z M 296.256 329.2 C 296.256 329.2 296.266 329.2 296.276 329.2 C 296.266 329.2 296.256 329.2 296.256 329.2 Z M 296.566 329.2 C 296.566 329.2 296.556 329.2 296.546 329.2 C 296.556 329.2 296.566 329.2 296.566 329.2 Z M 296.306 329.2 C 296.306 329.2 296.306 329.2 296.306 329.2 C 296.306 329.2 296.306 329.2 296.306 329.2 Z M 296.516 329.2 C 296.516 329.2 296.516 329.2 296.516 329.2 C 296.516 329.2 296.516 329.2 296.516 329.2 Z M 296.406 331.2 C 259.956 331.2 225.426 316.07 199.146 288.58 L 52.327 288.58 L 52.327 286.58 C 52.327 271.14 40.879 258.58 26.807 258.58 L 24.823 258.58 L 24.823 97.63 L 26.807 97.63 C 40.879 97.63 52.327 85.07 52.327 69.63 L 52.327 67.63 L 199.146 67.63 C 225.426 40.14 259.956 25 296.406 25 C 332.866 25 367.396 40.14 393.676 67.63 L 540.496 67.63 L 540.496 69.63 C 540.496 85.07 551.946 97.63 566.016 97.63 L 567.996 97.63 L 567.996 258.58 L 566.016 258.58 C 551.946 258.58 540.496 271.14 540.496 286.58 L 540.496 288.58 L 393.676 288.58 C 367.396 316.07 332.866 331.2 296.406 331.2 Z" fill="#000000" stroke="none"/>
</svg>
