<?xml version="1.0" encoding="UTF-8"?>
<svg xmlns="http://www.w3.org/2000/svg" width="540.043" height="374.318" viewBox="0 0 540.043 374.318">
  <path d="M 201.446 314.734 L 201.852 314.744 C 215.719 315.083 228.968 320.501 239.156 330.001 L 269.925 358.692 L 300.694 330.001 C 310.883 320.501 324.131 315.083 337.998 314.744 L 338.404 314.734 L 482.992 335.138 C 483.799 335.253 484.614 335.341 485.414 335.402 C 498.235 336.382 510.581 330.442 518.065 319.873 C 525.172 309.836 527.048 296.908 523.084 285.29 L 512.941 255.567 C 506.307 236.13 510.48 214.404 523.832 198.867 C 529.571 192.19 529.572 182.124 523.834 175.452 L 523.834 175.451 C 510.481 159.913 506.307 138.186 512.94 118.749 L 523.084 89.026 C 527.048 77.41 525.172 64.483 518.066 54.447 C 510.578 43.871 498.143 37.937 485.405 38.914 C 484.612 38.976 483.799 39.064 482.993 39.177 L 338.404 59.582 L 337.998 59.572 C 324.131 59.234 310.882 53.815 300.693 44.314 L 269.925 15.624 L 239.156 44.315 C 228.968 53.815 215.719 59.234 201.852 59.572 L 201.446 59.582 L 56.838 39.174 C 56.045 39.063 55.233 38.975 54.431 38.913 C 53.499 38.842 52.55 38.805 51.612 38.805 C 39.869 38.805 28.718 44.652 21.784 54.446 C 14.677 64.483 12.802 77.409 16.766 89.026 L 27.076 119.235 C 33.606 138.373 29.496 159.765 16.349 175.063 C 10.425 181.958 10.426 192.359 16.351 199.255 C 29.497 214.552 33.606 235.943 27.076 255.08 L 16.766 285.29 C 12.802 296.906 14.678 309.833 21.784 319.869 C 28.719 329.663 39.87 335.51 51.612 335.51 C 52.55 335.51 53.496 335.474 54.424 335.403 C 55.243 335.34 56.058 335.252 56.849 335.139 L 201.446 314.734 Z M 269.925 372.318 L 232.417 337.341 C 224.1 329.586 213.315 325.124 202.007 324.753 L 58.229 345.042 C 57.232 345.184 56.204 345.296 55.177 345.374 C 54.001 345.464 52.801 345.51 51.612 345.51 C 36.67 345.51 22.5 338.096 13.707 325.678 C 4.742 313.017 2.378 296.703 7.383 282.038 L 17.692 251.828 C 23.076 236.05 19.688 218.414 8.849 205.8 C -0.282 195.173 -0.283 179.144 8.848 168.517 C 19.688 155.903 23.076 138.266 17.692 122.487 L 7.383 92.278 C 2.378 77.613 4.741 61.298 13.706 48.638 C 22.499 36.219 36.669 28.805 51.612 28.805 C 52.8 28.805 54.003 28.851 55.187 28.942 C 56.194 29.02 57.21 29.13 58.21 29.271 L 202.007 49.564 C 213.315 49.192 224.1 44.73 232.417 36.975 L 269.925 2 L 307.432 36.974 C 315.75 44.73 326.535 49.192 337.842 49.564 L 481.62 29.274 C 482.633 29.131 483.651 29.021 484.649 28.943 C 485.842 28.852 487.049 28.805 488.237 28.805 C 503.18 28.805 517.35 36.219 526.143 48.638 C 535.107 61.299 537.472 77.613 532.467 92.278 L 522.323 122.001 C 516.837 138.079 520.29 156.051 531.335 168.904 C 540.28 179.309 540.28 195.005 531.333 205.414 C 520.289 218.266 516.837 236.237 522.324 252.315 L 532.467 282.038 C 537.472 296.705 535.108 313.021 526.142 325.681 C 517.349 338.098 503.18 345.51 488.24 345.51 C 487.055 345.51 485.854 345.464 484.665 345.374 C 483.656 345.296 482.629 345.185 481.615 345.042 L 337.842 324.753 C 326.535 325.124 315.75 329.586 307.432 337.341 L 269.925 372.318 Z" fill="#000000" stroke="none"/><path d="M 200.39 298.727 L 200.459 298.727 C 218.86 298.727 236.432 305.663 249.939 318.257 L 269.925 336.894 L 289.91 318.257 C 303.417 305.663 320.99 298.727 339.391 298.727 L 339.529 298.737 L 485.198 319.294 C 485.674 319.361 486.149 319.412 486.621 319.448 C 493.666 319.982 500.236 317.002 504.641 311.256 C 509.197 305.313 510.478 297.551 508.07 290.493 L 497.926 260.771 C 489.46 235.959 494.788 208.225 511.832 188.391 C 512.436 187.688 512.436 186.628 511.832 185.925 C 494.788 166.091 489.46 138.357 497.926 113.546 L 508.07 83.822 C 510.478 76.765 509.196 69.003 504.641 63.06 C 500.236 57.314 493.673 54.332 486.62 54.867 C 486.148 54.904 485.674 54.955 485.197 55.022 L 339.46 75.589 L 339.391 75.589 C 320.989 75.589 303.417 68.653 289.911 56.058 L 269.925 37.422 L 249.939 56.058 C 236.433 68.653 218.86 75.589 200.459 75.589 L 200.321 75.579 L 54.652 55.022 C 54.175 54.955 53.701 54.904 53.228 54.867 C 46.194 54.335 39.614 57.314 35.209 63.06 C 30.653 69.004 29.371 76.765 31.78 83.822 L 42.089 114.032 C 50.454 138.544 45.19 165.942 28.352 185.536 C 27.558 186.461 27.558 187.855 28.352 188.78 C 45.19 208.374 50.454 235.773 42.089 260.284 L 31.78 290.493 C 29.372 297.551 30.653 305.313 35.209 311.256 C 39.614 317.003 46.182 319.986 53.229 319.448 C 53.701 319.412 54.175 319.361 54.651 319.294 L 200.39 298.727 Z M 269.925 339.618 L 248.591 319.725 C 235.47 307.49 218.403 300.745 200.528 300.727 L 54.927 321.274 C 54.409 321.347 53.893 321.403 53.379 321.442 C 45.655 322.034 38.459 318.767 33.639 312.479 C 28.673 306.001 27.277 297.539 29.903 289.843 L 40.212 259.633 C 48.348 235.794 43.228 209.147 26.852 190.09 C 25.416 188.418 25.416 185.898 26.852 184.227 C 43.228 165.17 48.348 138.522 40.212 114.682 L 29.903 84.473 C 27.277 76.777 28.673 68.315 33.638 61.838 C 38.459 55.548 45.653 52.281 53.379 52.873 C 53.893 52.913 54.409 52.969 54.926 53.042 L 200.528 73.589 C 218.403 73.572 235.47 66.826 248.591 54.59 L 269.925 34.698 L 291.258 54.59 C 304.38 66.826 321.446 73.572 339.322 73.589 L 484.922 53.042 C 485.441 52.969 485.956 52.913 486.469 52.873 C 494.191 52.275 501.391 55.548 506.211 61.838 C 511.176 68.315 512.573 76.776 509.947 84.473 L 499.803 114.196 L 498.865 113.871 L 499.803 114.196 C 491.566 138.336 496.75 165.319 513.332 184.616 C 514.578 186.065 514.578 188.251 513.332 189.7 C 496.75 208.997 491.566 235.981 499.803 260.12 L 509.947 289.843 C 512.573 297.539 511.176 306.001 506.212 312.479 C 501.391 318.768 494.192 322.036 486.471 321.442 C 485.957 321.403 485.441 321.347 484.922 321.274 L 339.322 300.727 C 321.447 300.745 304.38 307.49 291.259 319.725 L 269.925 339.618 Z" fill="#000000" stroke="none"/><path d="M 486.485 53.875 C 486.365 53.884 486.245 53.895 486.125 53.906 C 486.245 53.895 486.365 53.884 486.485 53.875 Z M 53.373 53.876 C 53.495 53.885 53.618 53.896 53.74 53.908 C 53.617 53.896 53.495 53.885 53.373 53.876 Z M 245.499 58.603 C 245.494 58.607 245.487 58.611 245.482 58.616 C 245.487 58.611 245.494 58.607 245.499 58.603 Z M 488.235 53.806 C 494.534 53.806 500.352 56.503 504.56 61.383 C 499.974 56.061 493.485 53.341 486.556 53.869 C 487.118 53.827 487.679 53.806 488.235 53.806 Z M 300.439 63.037 L 300.441 63.038 C 300.44 63.038 300.44 63.038 300.439 63.037 Z M 300.48 63.064 C 300.484 63.067 300.488 63.069 300.492 63.071 C 300.488 63.069 300.484 63.067 300.48 63.064 Z M 300.522 63.091 C 300.529 63.096 300.536 63.1 300.543 63.105 C 300.536 63.1 300.529 63.096 300.522 63.091 Z M 300.563 63.117 C 300.573 63.124 300.584 63.131 300.594 63.138 C 300.584 63.131 300.573 63.124 300.563 63.117 Z M 300.604 63.144 C 309.765 69.073 320.137 72.82 330.997 74.098 C 320.137 72.82 309.765 69.073 300.604 63.144 Z M 331.002 74.098 C 331.015 74.1 331.025 74.101 331.038 74.103 C 331.026 74.101 331.014 74.1 331.002 74.098 Z M 331.056 74.105 C 331.065 74.106 331.073 74.107 331.082 74.108 C 331.073 74.107 331.065 74.106 331.056 74.105 Z M 331.109 74.111 C 331.114 74.111 331.12 74.112 331.125 74.113 C 331.12 74.112 331.114 74.111 331.109 74.111 Z M 331.163 74.117 C 331.164 74.117 331.164 74.117 331.165 74.117 L 331.163 74.117 Z M 339.391 74.589 C 339.392 74.589 339.39 74.589 339.391 74.589 L 362.191 71.371 L 339.391 74.589 Z M 200.464 74.589 L 200.529 74.591 C 216.933 74.589 232.724 68.956 245.46 58.634 C 232.742 68.941 216.971 74.573 200.529 74.589 L 200.464 74.589 Z M 510.256 76.628 C 510.256 76.629 510.256 76.63 510.256 76.631 C 510.256 76.63 510.256 76.629 510.256 76.628 Z M 510.256 76.631 C 510.257 79.153 509.847 81.691 509.008 84.148 L 498.865 113.871 C 498.849 113.916 498.833 113.963 498.818 114.007 L 509.008 84.148 C 509.847 81.691 510.257 79.153 510.256 76.631 Z M 498.549 114.818 C 493.801 129.382 493.835 144.913 498.22 159.18 C 493.835 144.913 493.801 129.382 498.549 114.818 L 498.549 114.818 Z M 508.359 179.854 C 509.673 181.716 511.082 183.525 512.582 185.271 C 512.965 185.716 513.19 186.255 513.256 186.811 C 513.19 186.255 512.965 185.716 512.582 185.271 C 511.082 183.525 509.673 181.716 508.359 179.854 Z M 51.601 53.805 C 44.867 53.805 38.68 56.896 34.423 62.449 C 29.663 68.659 28.324 76.771 30.842 84.148 L 41.151 114.357 C 49.401 138.533 44.209 165.556 27.602 184.881 C 26.774 185.845 26.56 187.172 26.963 188.324 C 26.561 187.172 26.774 185.845 27.602 184.881 C 44.209 165.556 49.401 138.533 41.151 114.357 L 30.842 84.148 C 28.324 76.772 29.663 68.66 34.423 62.449 C 39.026 56.445 45.909 53.325 53.274 53.868 C 52.714 53.826 52.155 53.805 51.601 53.805 Z M 512.828 188.713 C 512.755 188.828 512.673 188.94 512.582 189.046 C 510.409 191.574 508.429 194.234 506.647 196.999 C 508.429 194.234 510.409 191.574 512.582 189.046 C 512.673 188.94 512.755 188.828 512.828 188.713 Z M 36.617 202.684 C 45.807 220.107 47.649 240.917 41.151 259.959 L 30.842 290.168 C 30.002 292.627 29.592 295.168 29.594 297.692 C 29.592 295.168 30.002 292.627 30.842 290.168 L 41.151 259.959 C 47.649 240.917 45.807 220.107 36.617 202.684 Z M 498.894 213.056 C 493.745 228.192 493.56 244.901 498.865 260.445 L 509.008 290.168 C 509.898 292.776 510.306 295.476 510.252 298.151 C 510.306 295.476 509.898 292.776 509.008 290.168 L 498.865 260.445 C 493.56 244.9 493.745 228.192 498.894 213.056 Z M 202.157 299.747 C 202.158 299.747 202.158 299.747 202.159 299.747 L 202.157 299.747 Z M 202.202 299.748 C 202.206 299.748 202.211 299.749 202.215 299.749 C 202.211 299.749 202.206 299.748 202.202 299.748 Z M 202.249 299.75 C 202.256 299.75 202.263 299.75 202.27 299.75 C 202.263 299.75 202.256 299.75 202.249 299.75 Z M 202.298 299.751 C 202.306 299.751 202.317 299.751 202.325 299.751 C 202.317 299.751 202.306 299.751 202.298 299.751 Z M 202.346 299.752 C 202.358 299.752 202.368 299.753 202.38 299.753 C 202.369 299.753 202.357 299.752 202.346 299.752 Z M 202.394 299.753 C 202.408 299.754 202.421 299.754 202.436 299.755 C 202.421 299.754 202.408 299.754 202.394 299.753 Z M 202.441 299.755 C 216.445 300.14 229.891 304.6 241.293 312.547 C 229.889 304.598 216.446 300.139 202.441 299.755 Z M 241.301 312.553 C 241.313 312.561 241.322 312.567 241.334 312.576 C 241.323 312.568 241.312 312.561 241.301 312.553 Z M 241.351 312.588 C 241.359 312.593 241.367 312.599 241.375 312.605 C 241.367 312.599 241.359 312.593 241.351 312.588 Z M 241.399 312.621 C 241.404 312.625 241.411 312.63 241.417 312.633 C 241.411 312.63 241.404 312.625 241.399 312.621 Z M 241.449 312.656 C 241.452 312.659 241.454 312.66 241.457 312.662 C 241.455 312.66 241.451 312.658 241.449 312.656 Z M 38.457 315.965 C 42.553 319.183 47.595 320.785 52.909 320.472 C 47.595 320.777 42.552 319.182 38.457 315.965 Z M 486.695 320.456 C 494.029 320.97 500.844 317.845 505.426 311.867 C 506.001 311.118 506.525 310.341 507 309.541 C 506.525 310.341 506 311.118 505.426 311.867 C 500.849 317.838 494.033 320.965 486.695 320.456 Z M 339.321 299.725 C 321.241 299.727 303.907 306.568 290.584 318.991 L 279.217 329.591 L 290.585 318.991 C 303.888 306.587 321.196 299.745 339.321 299.727 L 339.386 299.727 L 339.321 299.725 Z M 200.32 297.727 L 200.459 297.727 C 219.11 297.727 236.922 304.757 250.613 317.524 L 269.925 335.531 L 289.236 317.524 C 302.927 304.757 320.739 297.727 339.391 297.727 L 339.598 297.739 L 485.335 318.303 C 485.791 318.368 486.245 318.417 486.696 318.451 C 493.409 318.954 499.662 316.114 503.855 310.645 C 508.206 304.969 509.431 297.558 507.131 290.818 L 496.988 261.096 C 488.407 235.949 493.807 207.839 511.082 187.736 C 511.365 187.406 511.365 186.91 511.082 186.58 C 493.807 166.477 488.407 138.367 496.988 113.22 L 507.131 83.497 C 509.431 76.759 508.206 69.347 503.855 63.671 C 499.662 58.201 493.406 55.355 486.695 55.864 C 486.245 55.9 485.79 55.948 485.334 56.012 L 339.53 76.589 L 339.46 76.589 C 320.738 76.589 302.926 69.558 289.237 56.792 L 269.925 38.785 L 250.613 56.792 C 236.923 69.558 219.111 76.589 200.459 76.589 L 200.252 76.577 L 54.514 56.012 C 54.059 55.948 53.605 55.9 53.152 55.864 C 46.443 55.362 40.187 58.202 35.994 63.671 C 31.643 69.348 30.419 76.759 32.719 83.497 L 43.028 113.707 C 51.507 138.554 46.171 166.329 29.102 186.191 C 28.628 186.742 28.628 187.574 29.103 188.126 C 46.171 207.988 51.507 235.762 43.028 260.609 L 32.719 290.818 C 30.419 297.557 31.644 304.969 35.994 310.645 C 40.189 316.118 46.448 318.958 53.154 318.451 C 53.605 318.417 54.058 318.368 54.513 318.303 L 200.32 297.727 Z M 269.925 340.981 L 247.917 320.459 C 234.998 308.412 218.196 301.761 200.596 301.727 L 55.065 322.264 C 54.526 322.34 53.988 322.399 53.454 322.44 C 45.389 323.057 37.882 319.65 32.853 313.09 C 27.684 306.345 26.23 297.533 28.965 289.518 L 39.274 259.308 C 47.295 235.805 42.248 209.533 26.102 190.744 C 24.345 188.7 24.345 185.616 26.102 183.572 C 42.248 164.784 47.295 138.511 39.274 115.007 L 28.965 84.798 C 26.23 76.783 27.683 67.971 32.852 61.226 C 37.881 54.666 45.391 51.259 53.454 51.876 C 53.989 51.917 54.525 51.976 55.064 52.051 L 200.597 72.589 C 218.195 72.554 234.999 65.903 247.917 53.857 L 269.925 33.336 L 291.932 53.857 C 304.851 65.903 321.655 72.554 339.253 72.589 L 484.785 52.051 C 485.325 51.976 485.86 51.917 486.394 51.876 C 494.457 51.252 501.964 54.66 506.997 61.226 C 512.166 67.971 513.62 76.782 510.885 84.798 L 500.742 114.521 C 492.619 138.325 497.73 164.933 514.082 183.961 C 515.649 185.783 515.649 188.532 514.082 190.355 C 497.73 209.383 492.619 235.991 500.742 259.795 L 510.885 289.518 C 513.62 297.533 512.166 306.345 506.997 313.09 C 501.967 319.652 494.451 323.064 486.395 322.44 C 485.862 322.399 485.324 322.34 484.785 322.264 L 339.254 301.727 C 321.654 301.761 304.851 308.412 291.933 320.459 L 269.925 340.981 Z" fill="#000000" stroke="none"/>
</svg>
